<svg xmlns="http://www.w3.org/2000/svg" width="194.702" height="194.702" viewBox="0 0 194.702 194.702"><defs><style>.a{stroke:#707070;}</style></defs><g transform="translate(0.5 0.5)"><g transform="translate(0 16.844)"><path class="a" d="M37.9,42.667H21.054A21.084,21.084,0,0,0,0,63.721V80.565a21.084,21.084,0,0,0,21.054,21.054H37.9A21.084,21.084,0,0,0,58.953,80.565V63.721A21.084,21.084,0,0,0,37.9,42.667Zm12.633,37.9A12.648,12.648,0,0,1,37.9,93.2H21.054A12.648,12.648,0,0,1,8.422,80.565V63.721A12.648,12.648,0,0,1,21.054,51.089H37.9A12.648,12.648,0,0,1,50.531,63.721Z" transform="translate(0 -42.667)"/></g><g transform="translate(134.749 117.905)"><path class="a" d="M379.231,298.667H362.387a21.084,21.084,0,0,0-21.054,21.054v16.844a21.084,21.084,0,0,0,21.054,21.054h16.844a21.084,21.084,0,0,0,21.054-21.054V319.721A21.083,21.083,0,0,0,379.231,298.667Zm12.633,37.9A12.648,12.648,0,0,1,379.231,349.2H362.387a12.648,12.648,0,0,1-12.633-12.633V319.721a12.648,12.648,0,0,1,12.633-12.633h16.844a12.648,12.648,0,0,1,12.633,12.633Z" transform="translate(-341.333 -298.667)"/></g><g transform="translate(67.375 67.375)"><path class="a" d="M208.565,170.667H191.721a21.084,21.084,0,0,0-21.054,21.054v16.844a21.084,21.084,0,0,0,21.054,21.054h16.844a21.084,21.084,0,0,0,21.054-21.054V191.721A21.084,21.084,0,0,0,208.565,170.667Zm12.633,37.9A12.648,12.648,0,0,1,208.565,221.2H191.721a12.648,12.648,0,0,1-12.633-12.633V191.721a12.648,12.648,0,0,1,12.633-12.633h16.844A12.648,12.648,0,0,1,221.2,191.721Z" transform="translate(-170.667 -170.667)"/></g><g transform="translate(25.266)"><path class="a" d="M68.211,0A4.213,4.213,0,0,0,64,4.211V21.055a4.211,4.211,0,0,0,8.422,0V4.211A4.213,4.213,0,0,0,68.211,0Z" transform="translate(-64)"/></g><g transform="translate(25.266 67.375)"><path class="a" d="M68.211,170.667A4.213,4.213,0,0,0,64,174.878v117.9a4.211,4.211,0,1,0,8.422,0V174.878A4.212,4.212,0,0,0,68.211,170.667Z" transform="translate(-64 -170.667)"/></g><g transform="translate(92.64 117.905)"><path class="a" d="M238.877,298.667a4.213,4.213,0,0,0-4.211,4.211v67.374a4.211,4.211,0,1,0,8.422,0V302.878A4.212,4.212,0,0,0,238.877,298.667Z" transform="translate(-234.666 -298.667)"/></g><g transform="translate(92.64)"><path class="a" d="M238.877,0a4.213,4.213,0,0,0-4.211,4.211V71.586a4.211,4.211,0,1,0,8.422,0V4.211A4.213,4.213,0,0,0,238.877,0Z" transform="translate(-234.666)"/></g><g transform="translate(160.015)"><path class="a" d="M409.544,0a4.213,4.213,0,0,0-4.211,4.211V122.116a4.211,4.211,0,1,0,8.422,0V4.211A4.213,4.213,0,0,0,409.544,0Z" transform="translate(-405.333)"/></g><g transform="translate(160.015 168.436)"><path class="a" d="M409.544,426.667a4.213,4.213,0,0,0-4.211,4.211v16.843a4.211,4.211,0,1,0,8.422,0V430.878A4.212,4.212,0,0,0,409.544,426.667Z" transform="translate(-405.333 -426.667)"/></g></g></svg>