<svg xmlns="http://www.w3.org/2000/svg" width="194.702" height="127.327" viewBox="0 0 194.702 127.327"><defs><style>.a{stroke:#707070;}</style></defs><g transform="translate(0.5 0.5)"><g transform="translate(0 0)"><path class="a" d="M130.539,85.333H63.164a63.163,63.163,0,1,0,0,126.327h67.375a63.163,63.163,0,1,0,0-126.327Zm0,117.905H63.164a54.742,54.742,0,1,1,0-109.483h67.375a54.742,54.742,0,1,1,0,109.483Z" transform="translate(0 -85.333)"/></g><g transform="translate(16.844 16.844)"><path class="a" d="M88.987,128a46.32,46.32,0,1,0,46.32,46.32A46.374,46.374,0,0,0,88.987,128Zm0,84.218a37.9,37.9,0,1,1,37.9-37.9A37.944,37.944,0,0,1,88.987,212.218Z" transform="translate(-42.667 -128)"/></g></g></svg>