<svg xmlns="http://www.w3.org/2000/svg" width="194.703" height="203.646" viewBox="0 0 194.703 203.646"><defs><style>.a{stroke:#707070;}</style></defs><g transform="translate(0.5 0.5)"><g transform="translate(0 101.584)"><path class="a" d="M108.179,257.323a96.962,96.962,0,0,0-96.851,96.85,4.211,4.211,0,1,0,8.422,0,88.429,88.429,0,0,1,176.859,0,4.211,4.211,0,1,0,8.422,0A96.957,96.957,0,0,0,108.179,257.323Z" transform="translate(-11.328 -257.323)"/></g><g transform="translate(50.531)"><path class="a" d="M185.648,0a46.32,46.32,0,1,0,46.32,46.32A46.374,46.374,0,0,0,185.648,0Zm0,84.218a37.9,37.9,0,1,1,37.9-37.9A37.944,37.944,0,0,1,185.648,84.218Z" transform="translate(-139.328)"/></g></g></svg>