<svg xmlns="http://www.w3.org/2000/svg" width="203.122" height="169.453" viewBox="0 0 203.122 169.453"><defs><style>.a{stroke:#707070;}</style></defs><g transform="translate(0.5 0.5)"><g transform="translate(0 25.259)"><path class="a" d="M130.539,140.336H12.633a4.223,4.223,0,0,1-4.211-4.211c0-2.316,1.895-4.211,4.9-4.27L114.385,115a4.209,4.209,0,1,0-1.381-8.3l-100.371,16.8A12.648,12.648,0,0,0,0,136.125V237.187A12.648,12.648,0,0,0,12.633,249.82H130.539a21.073,21.073,0,0,0,21.054-21.054V161.391A21.073,21.073,0,0,0,130.539,140.336Zm12.633,88.429A12.648,12.648,0,0,1,130.539,241.4H12.633a4.223,4.223,0,0,1-4.211-4.211V148.034a12.458,12.458,0,0,0,4.211.724H130.539a12.648,12.648,0,0,1,12.633,12.633Z" transform="translate(0 -106.626)"/></g><g transform="translate(75.786 0)"><path class="a" d="M314.614,93.376,267.57,46.332a12.657,12.657,0,0,0-17.863,0l-56.5,56.5a4.21,4.21,0,0,0,5.954,5.954l56.494-56.5a4.214,4.214,0,0,1,5.954,0L308.651,99.33a4.214,4.214,0,0,1,0,5.954l-48.08,48.08a4.213,4.213,0,0,0,5.963,5.954l48.08-48.08A12.641,12.641,0,0,0,314.614,93.376Z" transform="translate(-191.973 -42.643)"/></g><g transform="translate(101.06 9.144)"><path class="a" d="M313,67.037a4.214,4.214,0,0,0-5.954,0l-49.815,49.815a4.21,4.21,0,0,0,5.954,5.954L313,72.991A4.214,4.214,0,0,0,313,67.037Z" transform="translate(-255.995 -65.805)"/></g><g transform="translate(126.325 21.777)"><path class="a" d="M364.363,99.037a4.214,4.214,0,0,0-5.954,0l-37.183,37.182a4.21,4.21,0,0,0,5.954,5.954l37.182-37.182A4.214,4.214,0,0,0,364.363,99.037Z" transform="translate(-319.994 -97.805)"/></g><g transform="translate(109.484 101.062)"><path class="a" d="M289.966,298.643A12.633,12.633,0,1,0,302.6,311.276,12.648,12.648,0,0,0,289.966,298.643Zm0,16.843a4.211,4.211,0,1,1,4.211-4.211A4.223,4.223,0,0,1,289.966,315.486Z" transform="translate(-277.333 -298.643)"/></g><g transform="translate(92.64 84.218)"><path class="a" d="M289.409,306.506H255.721a12.648,12.648,0,0,1-12.633-12.633V277.03A12.648,12.648,0,0,1,255.721,264.4h33.687a4.211,4.211,0,0,0,0-8.422H255.721a21.073,21.073,0,0,0-21.054,21.054v16.844a21.073,21.073,0,0,0,21.054,21.054h33.687a4.211,4.211,0,1,0,0-8.421Z" transform="translate(-234.667 -255.975)"/></g></g></svg>