<svg xmlns="http://www.w3.org/2000/svg" width="118.906" height="194.701" viewBox="0 0 118.906 194.701"><defs><style>.a{stroke:#707070;}</style></defs><g transform="translate(0.5 0.5)"><g transform="translate(0 42.109)"><path class="a" d="M150.742,106.667a54.742,54.742,0,1,0,54.742,54.741A54.8,54.8,0,0,0,150.742,106.667Zm0,101.062a46.32,46.32,0,1,1,46.32-46.32A46.375,46.375,0,0,1,150.742,207.729Z" transform="translate(-96 -106.667)"/></g><g transform="translate(16.843 130.538)"><path class="a" d="M210.251,330.666a4.213,4.213,0,0,0-4.211,4.211V381.2a4.218,4.218,0,0,1-4.211,4.211H151.3a4.218,4.218,0,0,1-4.211-4.211v-46.32a4.211,4.211,0,0,0-8.422,0V381.2A12.648,12.648,0,0,0,151.3,393.83h50.531A12.648,12.648,0,0,0,214.462,381.2v-46.32A4.211,4.211,0,0,0,210.251,330.666Z" transform="translate(-138.665 -330.666)"/></g><g transform="translate(16.844)"><path class="a" d="M201.831,0H151.3a12.648,12.648,0,0,0-12.633,12.633v46.32a4.211,4.211,0,1,0,8.422,0V12.633A4.218,4.218,0,0,1,151.3,8.422h50.531a4.218,4.218,0,0,1,4.211,4.211v46.32a4.211,4.211,0,1,0,8.422,0V12.633A12.649,12.649,0,0,0,201.831,0Z" transform="translate(-138.667)"/></g><g transform="translate(109.484 84.218)"><path class="a" d="M377.544,213.333a4.213,4.213,0,0,0-4.211,4.211v16.844a4.211,4.211,0,0,0,8.422,0V217.544A4.213,4.213,0,0,0,377.544,213.333Z" transform="translate(-373.333 -213.333)"/></g></g></svg>