<svg xmlns="http://www.w3.org/2000/svg" width="203.124" height="186.117" viewBox="0 0 203.124 186.117"><defs><style>.a{stroke:#707070;}</style></defs><g transform="translate(0.5 0.5)"><g transform="translate(0 0)"><path class="a" d="M101.062,21.547A100.994,100.994,0,0,0,44.013,205.926a4.208,4.208,0,0,0,4.75-6.948,92.642,92.642,0,1,1,104.608-.009,4.213,4.213,0,0,0,4.767,6.948,101,101,0,0,0-57.075-184.37Z" transform="translate(0 -21.547)"/></g><g transform="translate(25.266 25.265)"><path class="a" d="M139.8,85.547A75.745,75.745,0,0,0,97.014,223.833a4.208,4.208,0,0,0,4.75-6.948,67.377,67.377,0,1,1,76.075-.008,4.213,4.213,0,0,0,4.767,6.948A75.751,75.751,0,0,0,139.8,85.547Z" transform="translate(-64 -85.547)"/></g><g transform="translate(50.531 50.531)"><path class="a" d="M178.531,149.547a50.5,50.5,0,0,0-28.516,92.193,4.208,4.208,0,0,0,4.75-6.948,42.107,42.107,0,1,1,47.55-.008,4.208,4.208,0,0,0,4.75,6.948,50.5,50.5,0,0,0-28.533-92.185Z" transform="translate(-128 -149.547)"/></g><g transform="translate(84.218 84.218)"><path class="a" d="M230.177,234.88a16.844,16.844,0,1,0,16.844,16.844A16.861,16.861,0,0,0,230.177,234.88Zm0,25.265a8.422,8.422,0,1,1,8.422-8.422A8.43,8.43,0,0,1,230.177,260.145Z" transform="translate(-213.333 -234.88)"/></g></g></svg>