<svg xmlns="http://www.w3.org/2000/svg" xmlns:xlink="http://www.w3.org/1999/xlink" width="285.503" height="347.623" viewBox="0 0 285.503 347.623"><defs><style>.a,.ai,.aq,.ar,.at,.av,.d,.f,.x{fill:none;}.b{fill:#96654d;}.c{fill:#eb9f75;}.au,.av,.d,.f{stroke:#ba5320;}.ai,.ar,.at,.d,.f{stroke-miterlimit:10;}.av,.d{stroke-width:0.5px;}.e{fill:url(#a);}.au,.f{stroke-width:0.62px;}.g{fill:#ecf4fd;}.h{fill:#fec813;}.i{fill:url(#b);}.j{fill:url(#c);}.k{opacity:0.25;fill:url(#d);}.l{fill:url(#e);}.m{fill:url(#f);}.n{fill:#38447a;}.o{fill:#ef4858;}.p{fill:#ff996c;}.q{fill:#1b2246;}.r{fill:url(#g);}.s{fill:url(#h);}.t{fill:#da946c;}.u{fill:#3b2451;}.v{clip-path:url(#i);}.w{fill:#fff;}.x{stroke:#efefef;stroke-width:0.75px;}.aq,.au,.av,.x{stroke-linecap:round;stroke-linejoin:round;}.y{fill:url(#j);}.z{fill:url(#k);}.aa{fill:url(#l);}.ab{fill:#422959;}.ac{fill:#0055a0;}.ad{fill:url(#m);}.ae{fill:url(#n);}.af{fill:url(#o);}.ag{fill:url(#p);}.ah{fill:url(#q);}.ai{stroke:#1b2246;}.aj{fill:url(#r);}.ak{fill:url(#s);}.al{fill:url(#t);}.am{opacity:0.68;fill:url(#u);}.an{fill:#ff585b;}.ao{fill:url(#v);}.ap{clip-path:url(#w);}.aq{stroke:#7fd4e3;stroke-width:1.24px;}.ar{stroke:#231530;}.as{fill:url(#x);}.at{stroke:#87670e;stroke-width:2px;opacity:0.42;}.au{fill:#f0b08a;}.aw{fill:url(#y);}.ax{fill:url(#z);}.ay{fill:#ba5320;}.az{clip-path:url(#aa);}.ba{fill:url(#ab);}</style><linearGradient id="a" y1="0.5" x2="0.999" y2="0.5" gradientUnits="objectBoundingBox"><stop offset="0" stop-color="#da946c" stop-opacity="0"/><stop offset="0.02" stop-color="#d8926a" stop-opacity="0.031"/><stop offset="0.27" stop-color="#c78159" stop-opacity="0.369"/><stop offset="0.5" stop-color="#b8734a" stop-opacity="0.639"/><stop offset="0.71" stop-color="#ae6940" stop-opacity="0.839"/><stop offset="0.88" stop-color="#a8633a" stop-opacity="0.961"/><stop offset="0.99" stop-color="#a66138"/></linearGradient><linearGradient id="b" x1="-6.856" y1="-11.684" x2="-5.924" y2="-11.684" xlink:href="#a"/><linearGradient id="c" x1="0.5" y1="-0.006" x2="0.5" y2="1.002" gradientUnits="objectBoundingBox"><stop offset="0" stop-color="#b6d4f7" stop-opacity="0.698"/><stop offset="1" stop-color="#b6d4f7" stop-opacity="0"/></linearGradient><linearGradient id="d" x1="0.5" x2="0.5" y2="1" gradientUnits="objectBoundingBox"><stop offset="0" stop-color="#52519d"/><stop offset="1" stop-color="#b6d4f7" stop-opacity="0.102"/></linearGradient><linearGradient id="e" x1="-0.647" y1="-1.806" x2="0.353" y2="-1.806" gradientUnits="objectBoundingBox"><stop offset="0.01" stop-color="#1b2246" stop-opacity="0.102"/><stop offset="1" stop-color="#1b2246" stop-opacity="0.2"/></linearGradient><linearGradient id="f" x1="-0.538" y1="-0.123" x2="0.462" y2="-0.123" xlink:href="#e"/><linearGradient id="g" x1="1.034" y1="0.195" x2="0.364" y2="0.535" gradientUnits="objectBoundingBox"><stop offset="0.01" stop-color="#38447a" stop-opacity="0"/><stop offset="0.06" stop-color="#38447a" stop-opacity="0.071"/><stop offset="0.36" stop-color="#38447a" stop-opacity="0.471"/><stop offset="0.63" stop-color="#38447a" stop-opacity="0.761"/><stop offset="0.85" stop-color="#38447a" stop-opacity="0.941"/><stop offset="0.99" stop-color="#38447a"/></linearGradient><linearGradient id="h" x1="0.822" y1="-171.463" x2="0.389" y2="59.488" xlink:href="#g"/><clipPath id="i"><path class="a" d="M264.217,308.455s5.46.7,6.935-6.2c.627-2.933-1.009-2.052-2.009-3.595a22.17,22.17,0,0,1-2.187-5.883s3.391,1.28,6.129,2.543,6.494,2.891,7.825,6.324,5.341,13.564,5.307,21.245-5.578,12.954-10.173,7.062c-1.831-2.357-3.221-10.233-6.519-16C267.066,309.608,263.963,307.718,264.217,308.455Z" transform="translate(-264.203 -292.78)"/></clipPath><linearGradient id="j" x1="0" y1="0.5" x2="1" y2="0.5" xlink:href="#a"/><linearGradient id="k" y1="0.5" x2="1" y2="0.5" gradientUnits="objectBoundingBox"><stop offset="0" stop-color="#231530" stop-opacity="0"/><stop offset="0.31" stop-color="#231530" stop-opacity="0.522"/><stop offset="0.64" stop-color="#231530"/></linearGradient><linearGradient id="l" x1="0" y1="0.5" x2="1" y2="0.5" xlink:href="#a"/><linearGradient id="m" x1="0" y1="0.5" x2="1" y2="0.5" xlink:href="#g"/><linearGradient id="n" x1="0" y1="0.5" x2="1" y2="0.5" xlink:href="#k"/><linearGradient id="o" y1="0.5" x2="1" y2="0.5" gradientUnits="objectBoundingBox"><stop offset="0.38" stop-color="#d8926a" stop-opacity="0.149"/><stop offset="0.48" stop-color="#cd875f" stop-opacity="0.341"/><stop offset="0.64" stop-color="#bc774e" stop-opacity="0.62"/><stop offset="0.79" stop-color="#b06b42" stop-opacity="0.831"/><stop offset="0.91" stop-color="#a9643b" stop-opacity="0.949"/><stop offset="0.99" stop-color="#a66138"/></linearGradient><linearGradient id="p" x1="5.512" y1="-23.454" x2="4.643" y2="-23.645" gradientUnits="objectBoundingBox"><stop offset="0.22" stop-color="#f1c312" stop-opacity="0"/><stop offset="0.31" stop-color="#edb819" stop-opacity="0.188"/><stop offset="0.53" stop-color="#e39f2a" stop-opacity="0.62"/><stop offset="0.69" stop-color="#dd8f35" stop-opacity="0.89"/><stop offset="0.77" stop-color="#db8939"/></linearGradient><linearGradient id="q" x1="11.833" y1="10.075" x2="12.826" y2="10.075" xlink:href="#p"/><linearGradient id="r" x1="0" y1="0.499" x2="1" y2="0.499" xlink:href="#g"/><linearGradient id="s" x1="0" y1="0.5" x2="0.998" y2="0.5" xlink:href="#a"/><linearGradient id="t" x1="0" y1="0.499" x2="0.999" y2="0.499" xlink:href="#a"/><linearGradient id="u" x1="0.409" y1="0.629" x2="0.761" y2="0.219" gradientUnits="objectBoundingBox"><stop offset="0.26" stop-color="#d79269" stop-opacity="0.051"/><stop offset="0.35" stop-color="#d69168" stop-opacity="0.2"/><stop offset="0.49" stop-color="#d48f66" stop-opacity="0.42"/><stop offset="0.57" stop-color="#c9845b" stop-opacity="0.561"/><stop offset="0.74" stop-color="#b67148" stop-opacity="0.8"/><stop offset="0.89" stop-color="#aa653c" stop-opacity="0.949"/><stop offset="0.99" stop-color="#a66138"/></linearGradient><linearGradient id="v" y1="0.501" x2="0.999" y2="0.501" gradientUnits="objectBoundingBox"><stop offset="0.22" stop-color="#231530" stop-opacity="0"/><stop offset="0.48" stop-color="#231530" stop-opacity="0.522"/><stop offset="0.77" stop-color="#231530"/></linearGradient><clipPath id="w"><path class="a" d="M270.23,368.408s5.663,4.239,9.326-.373a7,7,0,0,0,1.577-6.358c-.593-3.934-2.848-4.917-2.848-4.917s3.111,2.45,5.57,4.637,5.833,5.154,6.1,9.173.729,16-1.814,23.975-10.419,9.724-12.547,3.993c-1.136-3.069-.7-11.623-1.56-18.846A31.164,31.164,0,0,0,270.23,368.408Z" transform="translate(-270.23 -356.76)"/></clipPath><linearGradient id="x" x1="0.001" y1="0.498" x2="1.003" y2="0.498" xlink:href="#a"/><linearGradient id="y" x1="-0.262" y1="0.459" x2="4.689" y2="1.007" xlink:href="#g"/><linearGradient id="z" x1="-95.751" y1="-181.09" x2="244.429" y2="460.906" xlink:href="#g"/><clipPath id="aa"><path class="b" d="M149.992,85.337c.127,0,2.2,5.561,6.7,3.883,3.484-1.306,3.154-5.57,3.154-5.57A48.788,48.788,0,0,1,149.95,85.4" transform="translate(-149.95 -83.65)"/></clipPath><linearGradient id="ab" x1="0.5" y1="-0.006" x2="0.5" y2="1" xlink:href="#c"/></defs><g transform="translate(0 0)"><path class="c" d="M114.045,71.021c1.492,4.239,2.543,0-5.087-19.448-2.492-6.341-9.241-24.984-9.792-26.959-1.161-4.179-9.631-6.841-10.275,1.7s5.756,45.966,9.944,53.74,8.885,9.766,8.885,9.766S113.681,93.86,114.045,71.021Z" transform="translate(-13.512 -3.147)"/><path class="c" d="M97.743,21.864s-1.56-3.883-.848-6.477,2.119-7.206,1.7-9.86S96.523-.424,94.157.042c0,0-10.6.263-14.226,2.28-4.341,2.416-.441,8.189-.441,8.189,2,.975.1-.085.1-.085s-.263,5.248,3.145,7.181S86.6,21,87.536,26.314,100.753,31.664,97.743,21.864Z" transform="translate(-11.843 0.002)"/><path class="d" d="M91.976,17.893s-2.738-6.087.729-8.478,3.467-2.1,3.467-2.1-4.29,2.577-4.332-.966A15.132,15.132,0,0,1,94.672,3.8a5.561,5.561,0,0,1,4.968-.848" transform="translate(-13.832 -0.41)"/><path class="d" d="M90.994,1.68S86.9,3.5,86.391,5.554s2.976,3.162,2.128,4.637c0,0,1.475.848,2.611-1.212" transform="translate(-13.131 -0.254)"/><path class="d" d="M85.028,2.82s-2.018,1.5-1.4,3.544,1.831,4.349,1.543,4.942,0,.585,0,.585,4.349-1.831,2.891-1.509" transform="translate(-12.7 -0.427)"/><path class="d" d="M81.218,4.33s-1.356.322-.746,3.23.941,4.968.941,4.968,3.747-.627,3.06-2.238" transform="translate(-12.213 -0.657)"/><path class="c" d="M131.338,88.546s-7.274-7.579-9.436-9.385-9.478-15.26-16.523-4.332-2.425,16.108-2.306,16.591,12.81,16.667,16.108,19.007S139.273,101.186,131.338,88.546Z" transform="translate(-15.435 -10.745)"/><path class="e" d="M110.446,95.614a83.189,83.189,0,0,0-7.537-7.935A36.226,36.226,0,0,1,97.56,82.05,38.814,38.814,0,0,0,100.1,89.2a33.13,33.13,0,0,0,1.823,2.984c.237.441.424.7.441.8.11.492,12.81,16.667,16.108,19.007.916.653,2.882.22,5.087-1.017Z" transform="translate(-14.839 -12.489)"/><path class="f" d="M118.2,73.489s-4.459-3.679-8.164-1.475" transform="translate(-16.739 -10.854)"/><path class="g" d="M35.19,241.068c-14.259-9.817-22.669-29.392-23.737-45.958-1.28-19.5,10.377-37.3,25.255-48.959S70.78,131.7,87.718,124.194c14.48-6.409,25.755-16.871,31.41-31.808,7.994-21.126,14.361-37.946,39.235-42.168,28.188-4.79,55.2,4.01,77.147,21.983,11.869,9.749,21.542,22.652,25.764,37.446,4.239,14.938,2.84,30.994-.983,46.051-3.094,12.2-7.876,24.4-7.63,37.166s7.63,20.575,16.311,28.824c10.1,9.58,16.9,21.381,18.074,35.5,1.39,16.854-5.646,34.394-19.075,44.872-14.972,11.682-40.693,15.641-59.064,15.6-23.28-.059-46.627-7.028-65.677-20.524-20.126-14.268-34.216-33-58.742-40.184C68.118,252.139,49.56,250.961,35.19,241.068Z" transform="translate(-1.716 -7.446)"/><path class="h" d="M154.534,103.044s-2.2-3.781-8.367-6.426c-3.493-1.5-9.91-6.782-11.309-7.384s-7.494-.543-12.343,10.131-3.391,13.674-3.391,13.674a84.772,84.772,0,0,0,7.842,6.655c5.231,3.934,7.121,3.349,6.841,9.156S146.964,100.7,154.534,103.044Z" transform="translate(-18.09 -13.551)"/><path class="i" d="M120.134,111s6.273,10.58,13.564,8.317a92.355,92.355,0,0,0,8.893-3s-8.783,9.41-8.783,12.716c0,0-12.488-11.869-15.938-12.716A13.564,13.564,0,0,1,120.134,111Z" transform="translate(-17.931 -16.896)"/><path class="j" d="M311.4,139.425h-.153a7.7,7.7,0,0,0-.331-1.153h0c-.051-.127-.1-.254-.161-.381l-.068-.161c-.051-.119-.11-.229-.17-.339l-.093-.178-.186-.314-.119-.187-.2-.3-.136-.178-.22-.271-.153-.178-.229-.254-.169-.17q-.2-.187-.407-.365l-.263-.22-.229-.161-.254-.178-.237-.144-.271-.161-.237-.127-.3-.144-.246-.1-.314-.119-.246-.085-.339-.1-.237-.059-.39-.076h-.2c-.2,0-.407-.059-.61-.068a12.886,12.886,0,0,0-15.675-9.9,18.556,18.556,0,0,0-4.4-6.494h0a18.655,18.655,0,0,0-1.45-1.246l-.059-.051a18.543,18.543,0,0,0-1.551-1.068l-.093-.059a18.458,18.458,0,0,0-1.645-.848l-.127-.059-.78-.339h-.085l-.848-.331-.144-.051-.754-.237-.161-.051-.848-.229h-.153l-.771-.153h-.22l-.907-.127h-.11l-.848-.068h-1.187a18.445,18.445,0,0,0-12.714,5.084,8.477,8.477,0,0,0-3.394-.71h-1.136a8.489,8.489,0,0,0-.9.161h-.119l-.339.093h-.11a8.479,8.479,0,0,0-.848.322h-.076l-.348.17h-.068a8.541,8.541,0,0,0-.8.466h0l-.348.246h0a8.582,8.582,0,0,0-.729.61h0l-.331.331h0a8.529,8.529,0,0,0-2.2,4.341,12.886,12.886,0,0,0,1.806,25.636h62.735a4.671,4.671,0,0,0,0-9.325Z" transform="translate(-35.903 -17.039)"/><path class="k" d="M295.551,285.522a51.417,51.417,0,0,0-9.766-26.086,17.7,17.7,0,0,0-1.7,6.723c-.8-5.2-10.283-5.366-10.122,1.416-4.612-9.181-18.515-8.868-21.084-1.212a3.713,3.713,0,0,0-6.782-.924c-.085-4.705-3.959-6.867-7.927-6.867a8.588,8.588,0,0,1-6.952-3.679,39.464,39.464,0,0,1-7.511-20.787.933.933,0,0,0-.161-.458h0a.933.933,0,0,0-1.611.127l-.11.229c-.653,9.987-2.874,16.108-5.087,20.6-1.229,2.484-2.543,5.646-5.3,6.087-3.917.627-7.4,3.391-6.782,8.028a3.713,3.713,0,0,0-6.545,1.984c-3.739-7.155-17.523-5.273-20.626,4.519-.907-6.723-10.249-5.087-10.216.2-1.84-7.944-7.359-13.352-15.006-6.689-3.1-7.316-15.15-13.395-23.017-6.206-.848-4.459-6.545-3.857-7.384-.526,2.594-10.309-17.354-9.554-12.632,1.568-1.348-3.179-7.1-2.874-7.215,1.7-8.91-5.858-19.846,2.043-21.754,9.758-6.782-4.239-11.089-1.263-12.869,4.2,8.554,2.162,17.371,3.662,25.628,6.079,14.175,4.154,24.857,12.157,35.242,20.931l167.383-13.276A51.816,51.816,0,0,0,295.551,285.522Z" transform="translate(-10.247 -35.505)"/><path class="l" d="M262.521,313.513a2.391,2.391,0,0,0-.721-.263A1.458,1.458,0,0,0,262.521,313.513Z" transform="translate(-39.841 -47.685)"/><path class="m" d="M284.83,358.56l.9.966A3.535,3.535,0,0,0,284.83,358.56Z" transform="translate(-43.347 -54.583)"/><path class="n" d="M168.752,90.3A18.023,18.023,0,0,1,180.96,76.124l.509-.153c8.181-2.34,25.433,0,30.96,23.365s9.054,78.563,9.054,78.563-9.639,11.971-35.047,10.224C186.428,188.148,163.335,121.463,168.752,90.3Z" transform="translate(-25.551 -11.455)"/><path class="o" d="M234.882,213.134c-.7,6.9,2.391,14.132,3.832,15.8l.687-2.238c.712,4,5.6,10.046,8.927,12.9l-5.087-28.392Z" transform="translate(-35.728 -32.151)"/><path class="o" d="M253.185,208.95c3,6.053,2.628,14.073,1.874,16.252l-1.4-1.8c.712,4-1.7,11.725-3.823,15.828l-5.087-28.392Z" transform="translate(-37.246 -31.807)"/><path class="p" d="M238.5,212.431c-.441,4.383,1.518,8.969,2.433,10.038l.432-1.424c.449,2.543,3.552,6.375,5.672,8.2l-3.2-18.032Z" transform="translate(-36.284 -32.151)"/><path class="p" d="M250.13,209.77c1.907,3.84,1.7,8.935,1.187,10.317l-.848-1.119c.449,2.543-1.094,7.443-2.425,10.046l-3.2-18.032Z" transform="translate(-37.26 -31.932)"/><path class="q" d="M253.594,196.308c1.145.254,4.086,6.129,2.916,7.3s-7.884,7.884-27.451,6.129c0,0,2.543-5.087,1.848-6.782S245.668,194.553,253.594,196.308Z" transform="translate(-34.857 -29.838)"/><path class="n" d="M200.442,90.3a18.024,18.024,0,0,1,12.216-14.149l.509-.153c8.181-2.34,25.433,0,30.96,23.364,4.7,19.77,7.927,62.345,8.808,74.968a7.4,7.4,0,0,1-2.984,6.485c-4.112,3.027-12.386,7.359-26.128,7.5a7.63,7.63,0,0,1-7.384-5.3C211.183,166.815,195.932,116.254,200.442,90.3Z" transform="translate(-30.375 -11.459)"/><path class="r" d="M229.757,159.481c10.809.288,2.916-24.534,1.17-27.129s3.5-2.34,3.5-2.34-1.458-1.755-3.8-7.884.288-22.195-10.809-28.909c-9.215-5.578-13.564-5.137-18.346-5.655a1.755,1.755,0,0,1-1.4-2.484,12.293,12.293,0,0,1,2.8-4.129c-6.511-4.163-11.14-2.238-14.412,1.865a6.782,6.782,0,0,1-11.691-1.8,5.306,5.306,0,0,1-.339-1.551c-2.484,58.572,43.236,109.074,43.372,109.269h1.272c16.455,0,8.367-17.8,8.367-17.8S224.984,159.329,229.757,159.481Z" transform="translate(-26.831 -11.968)"/><path class="s" d="M226.493,208.448Z" transform="translate(-33.494 -31.729)"/><path class="t" d="M173.076,75.773s1.348,9.325,3.23,14.022,3.23,20.736-5.646,23.653-16.955,1.755-17.752-7.3-1.128-11.521-1.128-11.521S163.394,66.142,173.076,75.773Z" transform="translate(-23.093 -11.231)"/><path class="c" d="M191.9,293.135s5.485,3.5,18.024,3.756,48.755,10.919,48.755,10.919,10.868-7.342,1.941-14c0,0-9.927-2.543-41.541-13.344-16.887-5.756-27.976-3.391-28.527-3.239C184.318,279.265,191.9,293.135,191.9,293.135Z" transform="translate(-28.62 -42.109)"/><path class="u" d="M172,287.705l77.266,19.024s8.113-5.366,2.492-17.4l-64.9-18.185Z" transform="translate(-26.171 -41.274)"/><path class="q" d="M264.22,308.7s3.391,1.009,5.527-3.069c1.272-2.391.576-5.6-1.153-7.952-1.339-1.814-1.865-2.781-2.62-3.306,0,0,5.553,1.145,7.223,1.475a11.021,11.021,0,0,1,7.825,6.324c1.331,3.391,5.019,13.742,4.985,21.389s-6.418,11.326-9.843,6.918c-1.831-2.357-3.8-9.936-6.519-16C267.281,309.2,264.22,308.7,264.22,308.7Z" transform="translate(-40.21 -44.811)"/><g class="v" transform="translate(223.996 248.211)"><path class="w" d="M277.09,296.282s3.281,1.492,5.833,9.266,4.8,16.777,2.679,21.839c-.949,2.28-4,.042-5.51,2.2-2.213,3.162,4.519,3.162,4.383,3.391s.848.314.848.314,3.578-3.73,3.73-4,2.34-23.738,2.374-24.585-8.155-10.911-8.6-11.275S277.09,296.282,277.09,296.282Z" transform="translate(-266.165 -292.874)"/></g><line class="x" y1="0.144" x2="5.409" transform="translate(228.8 264.226)"/><line class="x" y1="4.061" x2="4.213" transform="translate(229.402 262.267)"/><line class="x" y1="0.144" x2="5.409" transform="translate(229.928 267.507)"/><line class="x" y1="3.976" x2="4.273" transform="translate(230.699 265.582)"/><line class="x" y1="0.144" x2="5.409" transform="translate(231.682 270.881)"/><line class="x" y1="4.349" x2="3.985" transform="translate(232.234 268.761)"/><path class="y" d="M162.75,269.766s17.167,12.5,27.764,9.834c0,0,1.153-7.749.763-11.623S162.75,269.766,162.75,269.766Z" transform="translate(-24.763 -40.587)"/><path class="u" d="M200.822,286.432l-2.306-21.974-9.147,1.187-3.8-60.251s-35.606-10.224-33.911-2.043a94.455,94.455,0,0,1,2.543,15.768c.966,10.334,3.391,38.056,4.383,47.365h0s-.288,16.955,16.455,17.142l31.054,4.892Z" transform="translate(-23.066 -30.472)"/><path class="z" d="M196.632,285.553,194.327,263.6l-9.147,1.187-3.8-60.251s-8.757-2.348-15.921-3.832c2.7,7.494,8.351,28.468,2.323,50.518,0,0-5.087,17.091,2.425,31,.28,0,3.3,1.178,3.3,1.178l28.375,4.239Z" transform="translate(-25.175 -30.551)"/><path class="c" d="M189.01,257.195s3.713,17.8,6.5,26.281,21.966,22.661,26.476,8.478c2.043-6.426.517-55.953-1.17-61.887C217.614,218.638,184.7,230.32,189.01,257.195Z" transform="translate(-28.701 -34.357)"/><path class="aa" d="M190.7,272.154s14.285,13.564,32.58,9.122c0,0-.381-14.412-.381-14.819S190.7,272.154,190.7,272.154Z" transform="translate(-29.018 -40.558)"/><path class="c" d="M199.19,297.565s.755,6.045,11.267,15.1,52.273,50.23,52.273,50.23,12.852.585,9.927-11.394c0,0-11.462-7.07-27.747-33.589-10.224-16.65-24.212-26.34-24.823-26.578C213.382,288.722,199.19,297.565,199.19,297.565Z" transform="translate(-30.31 -44.275)"/><path class="ab" d="M217.5,194.108s1.094,4.086,2.187,18.651,3.01,56.953,3.01,56.953a31.181,31.181,0,0,1-19.685,8.757c-12.03.585-16.108-2.848-16.108-2.848s-4.9-49.722-6.265-52.35-3.823-1.17-4.917-16.955C175.108,199.17,211.995,190.022,217.5,194.108Z" transform="translate(-26.736 -29.394)"/><path class="n" d="M177.251,177.527c-.263.119-43.1,18.77-46.551,18.312-2.17-.288-13.937-1.823-13.9-3.128.068-2.611-1.611-10.021-1.458-10.512.263-.848,43.516-14.31,44.974-16.353s18.108-1.17,18.108,1.17S179.879,176.357,177.251,177.527Z" transform="translate(-17.544 -25.07)"/><path class="ac" d="M115.34,185.68s14.022,2.34,14.9,2.34c0,0,1.17,9.927.848,10.809-.382,1.136-14.522-2-14.6-2.916C115.9,189.478,115.34,185.68,115.34,185.68Z" transform="translate(-17.545 -28.265)"/><path class="ad" d="M177.539,166.2s-46.432,19.278-47.314,18.982c-1.238-.415-14.6-2.628-14.9-2.916s47.28-16.489,50.374-16.82S174.623,164.742,177.539,166.2Z" transform="translate(-17.544 -25.138)"/><path class="ab" d="M266.848,341.163l-38.15-46.9s-3.73-4.637-4.137-13.454l-35.742,7.63s-.585,9.054,14.022,22.491L254.5,356.88S268.73,359.254,266.848,341.163Z" transform="translate(-28.731 -42.746)"/><path class="ae" d="M231.67,280.772s-3.73-4.637-4.137-13.454c-.415-9.029-1.958-42.083-2.9-54.639-1.094-14.6-2.187-18.651-2.187-18.651-1.5-1.128-5.375-1.246-10.173-.687a81.936,81.936,0,0,1,.424,38.378c-1.823,7.867-4.832,15.7-4.154,23.738.772,9.1,6.2,17.142,12.335,23.9s13.2,12.716,18.456,20.194c5.561,7.91,8.91,17.21,14.565,25.052,3.815,5.29,9.249,9.97,15.26,11.945a21.128,21.128,0,0,0,.644-8.842Z" transform="translate(-31.719 -29.381)"/><path class="h" d="M175.927,93.586S173.74,109.8,163.66,116.95c0,0-7.3.848-10.512-9.054s-8.571-4.959-8.571-4.959-3.917,25.179,1.051,49.12c4.722,22.771,1.068,28.239,1.7,36.149.136,1.7,2.611,3.162,3.866,3.968a41.54,41.54,0,0,0,9.631,4.391,46.816,46.816,0,0,0,12.5,2.4c8.791.365,17.532-2.281,25.738-5.163,8.02-2.815,15.624-6.019,20.474-13.14a99.507,99.507,0,0,1-5.85-20.084c-2.043-11.394-7.63-32.775-7.376-45.33s2.416-13.081,2.416-13.081S182.65,90.084,175.927,93.586Z" transform="translate(-21.773 -14.148)"/><path class="q" d="M148.531,93.729a60.531,60.531,0,0,0-6.273,20.881,129.536,129.536,0,0,0-.348,15.752,77.643,77.643,0,0,0,.949,10.224h0s-7.426-6.138-7.63-25.993c-.161-16.108,5.409-21.194,5.409-21.194S145.954,92.441,148.531,93.729Z" transform="translate(-20.573 -14.164)"/><path class="af" d="M195.7,129.713s14.9,35.047-3.8,49.06S169.41,192.8,169.41,192.8s2.323,6.892,3.391,7.1,9.512,4.536,9.512,4.536L194,202.121c.424-.059,1.433-.449,1.857-.534,5.358-1.1,7.206-2.365,7.206-2.365s15.506-4.086,20.474-13.14a134.919,134.919,0,0,0-9.139-22.195c-5.621-10.343-7.63-35.047-7.63-35.047L194.5,131.18" transform="translate(-25.777 -19.612)"/><path class="ag" d="M173.21,112.09s8.52-4.612,16.235-.483c0,0,.11-14.556-5.137-18.007l-6,2.035S177.271,107.41,173.21,112.09Z" transform="translate(-26.355 -14.247)"/><path class="h" d="M178.783,88.19s6.867,1.026,8.613,10.071,1.458,11.682,1.458,11.682-3.391-4.527-13.564-1.314C175.282,108.63,179.656,97.829,178.783,88.19Z" transform="translate(-26.672 -13.423)"/><path class="ah" d="M155.918,113.5s-4.934-3.688-9.944-.348-3.493-.331-3.493-.331a62.739,62.739,0,0,1,5.7-13.836c3.849-6.68,4.1-2.8,4.1-2.8S151.79,107.54,155.918,113.5Z" transform="translate(-21.644 -14.47)"/><path class="h" d="M149.714,92.6s-4.951,2.764-7.774,20.389c0,0,4.061-5.782,12.36-3.535,0,0-2.136-10.029-1.7-14.972S149.714,92.6,149.714,92.6Z" transform="translate(-21.595 -13.952)"/><path class="q" d="M141.768,42.922a22.3,22.3,0,0,0-1.806,20.821s6.3,2.213,6.214-17.337C146.176,46.406,144.862,39.836,141.768,42.922Z" transform="translate(-21.024 -6.407)"/><path class="t" d="M167.69,45.555s-17.116-7.486-24.246,3.569-1.78,42.8,12.123,42.083S173.4,74.125,174.8,65.563,172.683,47.022,167.69,45.555Z" transform="translate(-21.344 -6.556)"/><path class="ai" d="M157.9,61.833s1.407-2.8,6.3-.254" transform="translate(-24.024 -9.21)"/><path class="ai" d="M142.74,63.242s1.009-2.492,5.316-.161" transform="translate(-21.717 -9.449)"/><path class="n" d="M227.941,185.094c-.263.119-38.4,17.99-46.432,18.982-2.17.271-14.022-2.543-14.022-2.849,0-2.611-1.263-10.817-1.119-11.309.263-.848,43.177-14.463,44.635-16.515s18.108-1.17,18.108,1.17S230.578,183.907,227.941,185.094Z" transform="translate(-25.312 -26.221)"/><path class="aj" d="M228.24,173.784s-46.407,19.168-47.314,18.982c-1.458-.288-14.268-2.475-14.556-2.764s42.973-16.879,46.068-17.2S225.324,172.3,228.24,173.784Z" transform="translate(-25.314 -26.27)"/><path class="c" d="M231.433,132.488s4.086,20.44,4.671,26.866-11.394,13.14-14.6,5.841-9.936-27.739-11.106-33.555S225.88,117.6,231.433,132.488Z" transform="translate(-32.008 -18.886)"/><path class="c" d="M222.7,155.37a125.315,125.315,0,0,0-16.065,8.164,131.794,131.794,0,0,1-19,9.063s-6.367,10,3.5,8.757c11.682-1.458,36.259-5.231,39.591-12.716S222.7,155.37,222.7,155.37Z" transform="translate(-28.244 -23.65)"/><path class="ak" d="M227.64,133.32s9.631,34.267.305,38.3c0,0,9.665-2.628,10.826-9.978.873-5.705-4.705-27.747-4.705-27.747Z" transform="translate(-34.641 -20.294)"/><path class="al" d="M212.32,138.663s18.252-3.145,21.194,3.832l-2.052-10.546S221.527,124.64,212.32,138.663Z" transform="translate(-32.309 -19.795)"/><path class="h" d="M221.731,105.039s6.426,2.34,7.825,14.039c1.7,13.929,3.077,16.955,3.077,16.955s-14.565-5.087-22.517,3.035a39.845,39.845,0,0,1-4.239-16.387C205.649,113.627,202.75,95.985,221.731,105.039Z" transform="translate(-31.284 -15.606)"/><path class="am" d="M222.383,133a32.851,32.851,0,0,1,6.384,1.365s-1.416-3.035-3.077-16.955c-1.4-11.7-7.825-14.039-7.825-14.039a35,35,0,0,0-3.5-1.458h0s-26.069-12.038-32.783-8.537a44.3,44.3,0,0,1-1.28,5.689c6.29.619,28.265,3.238,35.242,10.173C215.533,109.279,218.958,112.577,222.383,133Z" transform="translate(-27.434 -14.116)"/><path class="an" d="M168.2,176.231s-.136-.585,1.136-.644c1.848-.085,4.459-.526,4.832.356s0,4.671,0,4.671h-5.934Z" transform="translate(-25.592 -26.7)"/><path class="ao" d="M134.059,183.918s1.9.4,0,.848c-1.17.288-7.3.848-7.011-.585C127.286,182.96,128.345,183.587,134.059,183.918Z" transform="translate(-19.326 -27.927)"/><path class="an" d="M128.234,173.962a1.161,1.161,0,0,1,1.136-1.3c1.848-.178,4.569-.373,4.832.712.331,1.382.127,6.435,0,8.478,0,.517-.237.907-.492.907h-5.019c-.271,0-.492-.441-.492-.992Z" transform="translate(-19.503 -26.262)"/><path class="c" d="M187.244,173.85a6.231,6.231,0,0,1-3.391-.068c-1.458-.585-4.086-3.213-6.714-2.916s-7.011,1.755-8.478,1.458-1.458,2.916,2.628,2.628,4.383-.288,4.671.585c.67,2.018-2.916,3.213-5.553,2.916a2.823,2.823,0,0,1-2.442-1.365,1.823,1.823,0,0,0-1.755-.975c-.848.059-1.653.559-1.653,2.34,0,3.5-.288,6.714,2.043,10.224,0,0,2.043,1.755,8.478,1.458s7.3-6.426,14.607-6.646Z" transform="translate(-25.036 -26.006)"/><path class="q" d="M209.312,91.9s-7.884,9.325-6.714,21.61,5.841,19.567,5.841,19.567l2.348,5.29s-14.115-4.73-15.2-24.585c-.848-16.065,5.841-21.906,5.841-21.906S206.684,90.717,209.312,91.9Z" transform="translate(-29.75 -13.907)"/><path class="q" d="M270.36,369.748s2.34,2.628,6.426-.585a8.1,8.1,0,0,0,3.527-7.63c-.441-3.5-2.645-4.6-2.645-4.6a55.1,55.1,0,0,1,6.214,4.518c2.459,2.187,5.833,5.154,6.1,9.173s.729,16-1.814,23.975-10.419,9.724-12.547,3.993c-1.136-3.069-.7-11.623-1.56-18.846A21.024,21.024,0,0,0,270.36,369.748Z" transform="translate(-41.145 -54.334)"/><g class="ap" transform="translate(229.105 302.452)"><path class="w" d="M286.906,363.911s2.933,2.637,3.052,11.589-.5,19.1-4.366,23.687c-1.746,2.069-4.2-1.272-6.477.483-3.391,2.543,3.679,4.781,3.459,4.976s.848.619.848.619,4.959-2.721,5.205-2.95,10.233-23.992,10.563-24.924-4.934-14.073-5.273-14.6S286.906,363.911,286.906,363.911Z" transform="translate(-271.442 -357.662)"/></g><line class="x" x2="5.697" y2="1.628" transform="translate(233.997 320.009)"/><path class="aq" d="M283.08,383.93" transform="translate(-43.081 -58.445)"/><path class="aq" d="M276.36,382" transform="translate(-42.058 -58.151)"/><path class="aq" d="M283.49,388.62" transform="translate(-43.143 -59.158)"/><path class="aq" d="M276.78,386.7" transform="translate(-42.122 -58.866)"/><line class="x" y1="2.848" x2="5.731" transform="translate(233.98 319.398)"/><line class="x" x2="5.697" y2="1.628" transform="translate(233.819 323.798)"/><line class="x" y1="2.755" x2="5.773" transform="translate(234.268 323.298)"/><line class="x" x2="5.697" y2="1.628" transform="translate(234.658 327.825)"/><line class="x" y1="3.23" x2="5.587" transform="translate(234.709 327.028)"/><path class="ar" d="M212.48,212.9s1.17,7.63,11.1,3.5" transform="translate(-32.333 -32.408)"/><path class="as" d="M163.525,120.425c-.661-.848.585,11.682.585,11.682l1.06-8.478a2.713,2.713,0,0,1,.661-1.467l2.942-2.543S164.7,121.892,163.525,120.425Z" transform="translate(-24.851 -18.208)"/><path class="at" d="M172.448,112.3c-2.628,5.256-5.087,6.426-6.494,7.3s-7.231.288-9.275-7.011" transform="translate(-23.839 -17.094)"/><path class="au" d="M223.239,157.95A30.884,30.884,0,0,0,219,159.866" transform="translate(-33.326 -24.043)"/><path class="av" d="M165.11,177.93c0,1.111.3,3.586,1.458,4.146s5.994,1,5.994,1" transform="translate(-25.122 -27.085)"/><path class="av" d="M164.43,181.72s.288,2.34,1.17,3.1c1.331,1.17,6.129,1.034,7.011,1.128" transform="translate(-25.019 -27.662)"/><path class="av" d="M164.77,186.2a2.891,2.891,0,0,0,2.433,2.365c1.772.263,5.739.56,5.739.56" transform="translate(-25.07 -28.344)"/><path class="av" d="M165.46,189a3.23,3.23,0,0,0,2.348,2.043c2.035.288,5.536.585,5.536.585" transform="translate(-25.175 -28.77)"/><path class="ar" d="M221.78,228.4s2.043,30.664,3.213,32.122,0,4.51,0,4.51" transform="translate(-33.749 -34.768)"/><path class="q" d="M251.6,206.35l1.458,4.349s-9.325,5.867-19.278,3.628l-.288-4.476Z" transform="translate(-35.532 -31.411)"/><g transform="translate(199.238 66.603)"><path class="aw" d="M258.254,174.629s-.585-8.478-1.161-15.506-4.391-51.086-8.952-63.9S235,78.56,235,78.56c13.276,10.233,16.226,61.607,16.514,84.1a41.042,41.042,0,0,1-1.865,13.768,20.032,20.032,0,0,1-9.563,11.2h0l-.17.059h.144l-.254.136s8.961,0,14.963-4.086c.907-.568,1.17.288,2.043,1.755.644.483.848-.042.848-.585a4.568,4.568,0,0,0-.22-1.4l-1.246-3.035A7.028,7.028,0,0,0,258.254,174.629Z" transform="translate(-235 -78.56)"/><path class="ax" d="M240.719,207.27l-.339.093Z" transform="translate(-235.819 -98.154)"/></g><path class="q" d="M150.3,85.09l-2.916.288,3.026.263A1.694,1.694,0,0,1,150.3,85.09Z" transform="translate(-22.423 -12.951)"/><path class="t" d="M152.911,68.46A12.572,12.572,0,0,1,151.428,74s-.373,2.221,2.959,1.848" transform="translate(-23.037 -10.42)"/><path class="ay" d="M152.826,68.46a8.105,8.105,0,0,1-.068,2.959,8.843,8.843,0,0,1-1.06,2.806l.051-.136a1.39,1.39,0,0,0,.076.763,1.288,1.288,0,0,0,.551.576,2.951,2.951,0,0,0,.848.322c.322.068.661.1,1.009.153a3.391,3.391,0,0,1-2.136.068,1.8,1.8,0,0,1-.958-.755,1.925,1.925,0,0,1-.271-1.238v-.136A22.413,22.413,0,0,0,152.826,68.46Z" transform="translate(-22.952 -10.42)"/><ellipse class="q" cx="1.026" cy="1.17" rx="1.026" ry="1.17" transform="translate(122.1 56.141)"/><ellipse class="q" cx="1.026" cy="1.17" rx="1.026" ry="1.17" transform="translate(135.249 56.141)"/><path class="q" d="M175.821,43.315c-.348-1.814-.534-3.747-1.518-5.349a7.689,7.689,0,0,0-6.553-3.815h-.212l-.314-.136a.534.534,0,0,1-.144-.432c0-1.45-.848-2.62-2.653-3.391a22.474,22.474,0,0,0-3.391-1.009,23.026,23.026,0,0,1-5.214-1.585l-.848-.458-.246.059v1.984a2.543,2.543,0,0,1-.449-.17c-1.365-.848-2.755-1.755-4.086-2.662-.771-.534-.9-.585-1.8-.127a9.012,9.012,0,0,0-4.035,4.408,11.991,11.991,0,0,0-.585,1.433l-2.247-.9a11.513,11.513,0,0,0-2.9,3.213h0v.059a9.783,9.783,0,0,0-1.39,4.171V39.4a11.613,11.613,0,0,0,.1,1.882c.187,2.136.7,4.942,2.052,6.019l1.178-2.5a21.5,21.5,0,0,0,5.087,1.178c.712.085,1.382,0,2.1.068a49.611,49.611,0,0,0,13.013-1.865c4.637-1.534,8.325,4.349,7.376,12.064a25.153,25.153,0,0,0,.9,8.342c.432,1.534.661.712,1.848.314,1.857-.61,3.391-3.391,4.951-7.7a19.854,19.854,0,0,0,.975-7.087,39.482,39.482,0,0,0-.983-6.663Z" transform="translate(-20.879 -3.943)"/><path class="t" d="M176.229,68.149s3.027-6.782,6.112-2.2-1.619,13.463-4.595,10.351S175.305,69.845,176.229,68.149Z" transform="translate(-26.704 -9.795)"/><path class="q" d="M146.661,81.1a11.715,11.715,0,0,0,2.1-1.356,11.741,11.741,0,0,1,7.562-1.7c4.086.246,10.741,1.128,12.615-3.764.966-2.543.67-5.51.424-8.139,0,0,2.628,7.3,2.916,11.682S168.55,92.4,158.657,94.525c-10.606,2.28-14.844-9.283-16.447-14.938A3.62,3.62,0,0,0,146.661,81.1Z" transform="translate(-21.636 -10.068)"/><path class="b" d="M149.992,85.337c.127,0,2.2,5.561,6.7,3.883,3.484-1.306,3.154-5.57,3.154-5.57A48.788,48.788,0,0,1,149.95,85.4" transform="translate(-22.814 -12.732)"/><g class="az" transform="translate(127.136 70.918)"><path class="w" d="M151.278,85.118l.449,1.161s6.545.848,8.868-3.01l-9.665,1.085Z" transform="translate(-150.099 -83.592)"/></g><path class="t" d="M180.031,68.36a1.551,1.551,0,0,0-.5,1.594c.22.848,1.263,1.077,1.458,1.891a2.985,2.985,0,0,1-.848,2.264" transform="translate(-27.309 -10.405)"/><path class="ay" d="M179.983,68.36a1.7,1.7,0,0,0-.2,1.39c.127.39.509.61.983,1.026a1.823,1.823,0,0,1,.551.89,1.755,1.755,0,0,1-.1,1.009,3.391,3.391,0,0,1-1.094,1.382,13.283,13.283,0,0,0,.458-1.56,1.323,1.323,0,0,0,0-.627,1.119,1.119,0,0,0-.356-.475c-.17-.17-.407-.348-.619-.585a1.7,1.7,0,0,1-.432-.933A1.5,1.5,0,0,1,179.983,68.36Z" transform="translate(-27.262 -10.405)"/><path class="ba" d="M66.971,211.045v-.593a8.91,8.91,0,0,0-5.2-8.1,8.91,8.91,0,0,0-13.708-5.68,15.37,15.37,0,0,0-5-5.392h0a15.258,15.258,0,0,0-2.374-1.272h-.059l-.432-.178h-.11l-.39-.144-.144-.051-.365-.119-.17-.051-.348-.1-.187-.051-.339-.085-.195-.042-.331-.068h-.2l-.331-.059h-.212l-.331-.042H34.756A15.26,15.26,0,0,0,19.64,202.008a8.928,8.928,0,0,0-1.984-.22h-.865l-.424.051-.263-.119-.373.068-.263.068-.339.093-.271.085-.322.11-.263.1-.305.127-.263.127-.288.153-.254.144-.136.076h0a8.944,8.944,0,0,0-3.51,3.934A6.63,6.63,0,1,0,6.627,219.4H58.112a8.91,8.91,0,0,0,8.859-8.206Z" transform="translate(0.015 -28.773)"/><path class="n" d="M237.48,187.778a1.229,1.229,0,0,1,1.814.746l.653-2.374Z" transform="translate(-36.139 -28.336)"/><path class="ac" d="M180.919,196.212a.441.441,0,0,0-.382-.4c-2.026-.3-11.445-2.238-13.946-2.755a.449.449,0,0,0-.543.492c.17,1.577.67,5.934,1.348,10.724a.721.721,0,0,0,.415.483,135.46,135.46,0,0,0,13.937,2.484C182.021,207.25,181.114,198.153,180.919,196.212Z" transform="translate(-25.265 -29.386)"/></g></svg>