<svg xmlns="http://www.w3.org/2000/svg" xmlns:xlink="http://www.w3.org/1999/xlink" width="348.873" height="359.225" viewBox="0 0 348.873 359.225"><defs><style>.a{fill:#defaff;}.b{opacity:0.77;fill:url(#a);}.c{fill:#bbe1f2;opacity:0.3;}.d{fill:#efefef;}.e{fill:#00ccb1;}.f,.i{fill:#157efc;}.f{opacity:0.39;}.g,.h{fill:none;stroke:#d5fff9;fill-rule:evenodd;}.g{stroke-width:0.625px;}.h{stroke-width:0.96px;}.j{fill:#16c3f9;opacity:0.56;}.k{opacity:0.5;fill:url(#b);}.l{fill:#faba92;}.m{fill:url(#c);}.n{fill:#1b2246;}.o{fill:url(#d);}.p{fill:#1a2146;}.q{fill:#91293b;}.r{fill:#fff;}.s{fill:#ba5427;}.t{fill:#2b78f4;}.u{fill:url(#e);}.v{fill:url(#f);}.w{fill:url(#g);}.x{fill:url(#h);}.y{fill:url(#i);}.z{fill:url(#j);}.aa{fill:url(#k);}.ab{fill:url(#l);}.ac{fill:url(#m);}</style><radialGradient id="a" cx="0.334" cy="0.376" r="0.653" gradientTransform="translate(0.02 0) scale(0.939 1)" gradientUnits="objectBoundingBox"><stop offset="0.01" stop-color="#fff"/><stop offset="0.81" stop-color="#fff" stop-opacity="0"/></radialGradient><linearGradient id="b" y1="0.499" x2="1" y2="0.499" gradientUnits="objectBoundingBox"><stop offset="0.01" stop-color="#1b2246" stop-opacity="0.102"/><stop offset="1" stop-color="#1b2246" stop-opacity="0.2"/></linearGradient><linearGradient id="c" x1="0.489" y1="1.039" x2="0.501" y2="0.038" gradientUnits="objectBoundingBox"><stop offset="0.15" stop-color="#d9936c" stop-opacity="0"/><stop offset="0.99" stop-color="#a6515a"/></linearGradient><linearGradient id="d" x1="-0.435" y1="0.983" x2="-1.306" y2="1.121" gradientUnits="objectBoundingBox"><stop offset="0.07" stop-color="#d9936c" stop-opacity="0"/><stop offset="0.99" stop-color="#a6515a"/></linearGradient><linearGradient id="e" x1="0.003" y1="1.15" x2="0.735" y2="0.188" gradientUnits="objectBoundingBox"><stop offset="0.01" stop-color="#2b78f4" stop-opacity="0"/><stop offset="0.1" stop-color="#2671e4" stop-opacity="0.129"/><stop offset="0.38" stop-color="#185fb5" stop-opacity="0.502"/><stop offset="0.64" stop-color="#0e5193" stop-opacity="0.78"/><stop offset="0.85" stop-color="#08497e" stop-opacity="0.941"/><stop offset="1" stop-color="#064677"/></linearGradient><linearGradient id="f" x1="1.006" y1="0.777" x2="0.13" y2="0.308" gradientUnits="objectBoundingBox"><stop offset="0.22" stop-color="#d9936c" stop-opacity="0"/><stop offset="0.99" stop-color="#a6515a"/></linearGradient><linearGradient id="g" x1="-0.381" y1="0.679" x2="0.239" y2="0.459" xlink:href="#f"/><linearGradient id="h" x1="1.18" y1="0.609" x2="0.341" y2="0.443" xlink:href="#e"/><linearGradient id="i" x1="53.652" y1="-22.178" x2="54.642" y2="-21.87" xlink:href="#f"/><linearGradient id="j" x1="45.221" y1="-26.17" x2="46.456" y2="-25.764" xlink:href="#f"/><linearGradient id="k" x1="183.454" y1="-63.705" x2="184.54" y2="-63.489" xlink:href="#f"/><linearGradient id="l" x1="319.909" y1="-92.051" x2="321.819" y2="-91.737" xlink:href="#f"/><linearGradient id="m" x1="119.515" y1="-27.281" x2="121.613" y2="-27.005" xlink:href="#f"/></defs><path class="a" d="M353.635,177.126A174.4,174.4,0,0,1,179.184,351.577a177.682,177.682,0,0,1-40.378-4.718q-7.011-1.643-13.857-3.9-5.942-1.918-11.721-4.3A174.475,174.475,0,0,1,157.294,4.053a171.618,171.618,0,0,1,21.89-1.378A174.389,174.389,0,0,1,353.635,177.126Z" transform="translate(-4.762 -2.675)"/><path class="b" d="M12.733,103.119a144.2,144.2,0,0,0,123.1,169.82c1.676.224,3.365.422,5.054.571a132.87,132.87,0,0,0,13.422.658h.174a145.138,145.138,0,0,0,31.128-3.365,141.956,141.956,0,0,0,41.471-16.216,140.452,140.452,0,0,0,22.238-15.98,143.869,143.869,0,0,0,49.442-108.693V128.8a141.138,141.138,0,0,0-1.515-19.767,143.621,143.621,0,0,0-36.008-76.088A216.219,216.219,0,0,0,233.5,19.283,218.454,218.454,0,0,0,183.211,5.551c-2.223-.323-4.445-.608-6.692-.882a214.2,214.2,0,0,0-27.142-1.453.074.074,0,0,0-.074,0Z" transform="translate(3.33 -1.888)"/><path class="c" d="M171.948,18.925c14.229,14.291,15.024,36.765,14.9,56.929l-.223,41.061c0,9.188-.124,18.55-2.893,27.316-2.856,9.014-8.418,16.924-14.564,24.1a155.515,155.515,0,0,1-43.942,35.536c-11.038,5.985-23.194,10.927-31.277,20.537-6.879,8.269-9.983,18.9-12.491,29.377-1.018,4.222-1.949,8.791-.3,12.8,2.483,6.01,9.623,8.468,16.054,9.287a67.771,67.771,0,0,0,30.544-3.129,16.427,16.427,0,0,0,7.388-4.321c3.65-4.271,2.744-10.616,3.526-16.141,2.421-17.06,20.586-26.186,35.275-35.2a152.724,152.724,0,0,0,37.51-32.519c4.035-4.855,7.872-10.181,9.151-16.377,1.912-9.263-2.372-18.923-8.853-25.8s-14.9-11.485-23.281-15.968" transform="translate(107.219 21.429)"/><path class="c" d="M309.086,66.832a102.8,102.8,0,0,1-13.658,37.249A141.176,141.176,0,0,1,273.166,132.4c-11.535,11.46-24.609,21.22-36.827,31.96-16.787,14.776-31.861,31.351-46.537,48.225-6.3,7.214-12.59,14.788-18.352,22.71-7.8,10.691-14.577,22-18.923,33.934a78.025,78.025,0,0,0-4.967,30.706c.459,9.374,2.881,18.625,3.39,27.974A44.153,44.153,0,0,1,148.9,344.6,172.515,172.515,0,0,1,103.4,332.9L11.39,245.48a131.316,131.316,0,0,1,39.559-72.127c14.9-13.795,32.73-23.939,50.833-33.077a637.767,637.767,0,0,1,81.092-34.17c8.878-3.042,17.929-5.923,25.988-10.74,22.5-13.41,34.505-42.328,28.086-67.732a56.793,56.793,0,0,0-5.2-13.273,59.355,59.355,0,0,0-4.967-7.76,174.811,174.811,0,0,1,82.309,60.232Z" transform="translate(5.07 3.147)"/><path class="d" d="M88.21,40.34H225.573v88.119H88.21Z" transform="translate(119.016 53.193)"/><path class="e" d="M94.475,66.345h44.712V76.713H94.475Z" transform="translate(128.309 91.766)"/><path class="f" d="M94.475,46.6H197.507v3.241H94.475Zm0,10.368H197.507v3.241H94.475Zm0,10.368H197.507v3.241H94.475Zm0,10.368H197.507v3.241H94.475Z" transform="translate(128.309 62.479)"/><path class="g" d="M103.67,79.232a4.805,4.805,0,1,1,7.127,1.887M99.871,82.373a9.6,9.6,0,1,1,12.491,3.365" transform="translate(134.076 93.642)"/><path class="h" d="M99.97,90.108a14.8,14.8,0,1,1,16.253,4.085" transform="translate(130.972 90.538)"/><path class="i" d="M26.665,30.58H161.892v86.754H26.665Z" transform="translate(27.727 38.716)"/><path class="j" d="M31.97,83.089H78.234V95.245H31.97Zm0-48.374H138.59v3.8H31.97Zm0,12.156H138.59v3.8H31.97Zm0,12.156H138.59v3.8H31.97Zm0,12.156H138.59v3.8H31.97Z" transform="translate(35.596 44.85)"/><path class="k" d="M235.766,108.8a14.956,14.956,0,0,0,.348-1.5v-.36a6.062,6.062,0,0,0,0-1.142c-.062-1.713-.795-3.3-2.868-3.29-.944,0-1.664.906-2.185,1.937v-.075l.385-1.329v.112c.472-1.478.633-4.693-.422-5.116a2.036,2.036,0,0,0-1.142,0,4.482,4.482,0,0,0-2.856,2.011V99.5c.149-.435.3-.819.422-1.117.968-2.285,3.241-7.971,3.241-7.971s.137-.5.323-1.242c1.08-3.1,1.527-5.612.36-6.692.186-1.068-.521-1.13-.521-1.13-1.242-.074-2.732,2.645-3.241,3.725-4.184,6.308-10.628,21.009-11.783,28.347-1.341,8.53-1.316,9.076-.733,17.209l.286.385c-1.7,5.339-3.65,11.324-4.644,14.813-6.618,23.244-29.65,47.915-30.2,59.6l-.584-.422-.335-.335c-.894-8.207-1.713-17.1-2.781-24.833a82.121,82.121,0,0,0-3.315-15.545,60.84,60.84,0,0,0-9.076-15.011A65.471,65.471,0,0,0,152.216,137a141.088,141.088,0,0,0-2.756-20.264c1.068-8.083,2.831-19.494,3.638-24.659l1.242-2.2-.919.186.062-.41c5.6-2,9.7-4.681,10.057-8.307a24.1,24.1,0,0,0-1.055-7.922v-.075a1.9,1.9,0,0,0-.149-.546c-.124-.447-.248-.906-.4-1.366l-.286-.894-.137-.41c-.137-.447-.273-.882-.422-1.329s-.186-.6-.286-.894l-.683-1.949c-.795-2.111-1.676-4.3-2.62-6.481.981-.546,6.121-3.452,4.06-4.383-5.078-2.285-14.031-17.023-14.031-17.023l.546,1.242-.745-1.242L149,41.806c-1.54-2.968-2.893-5.463-3.849-7.226a10.429,10.429,0,0,0,2.781,1.85,12.69,12.69,0,0,0,6.345.31c2.694-.335,5.736-.857,7.251-3.117-3.129.509-6.072-1.85-7.636-4.606s-2.21-5.923-3.564-8.791a19.7,19.7,0,0,0-10.442-9.809v.534A45.531,45.531,0,0,0,137.093.31c-15.632,6.779-34.766,3.6-49.132,12.814C78.239,19.332,72.49,30.507,70.206,41.843s-1.49,23.032-.7,34.567c.31,4.569.621,9.263-.745,13.658-2.483,8.1-10.231,13.484-18.091,16.663s-16.34,4.793-23.889,8.692c-12.069,6.208-20.835,17.991-24.423,31.041s-2.2,27.316,2.732,39.882c4.2,10.728,10.877,20.475,13.832,31.6,2.285,8.567,2.285,17.718,5.463,25.988,4.408,11.436,14.738,20.04,26.4,23.8s24.46,3,36.181-.571c9.138-2.794,18.128-7.835,24.4-14.9l3,.894,1.813.5q2.485.682,4.967,1.242l.894.236a174.8,174.8,0,0,0,60.679,3.539c4.78-4.271,6.556-15.148,7.288-19.308a12.148,12.148,0,0,0,.3-1.465,5.226,5.226,0,0,0-.335-3.725,3.974,3.974,0,0,0-1.13-1.242c24.088-17.52,30.929-48.325,36.492-79.391l.087.2s.1-.857.261-2.123q.92-5.2,1.838-10.368a4.019,4.019,0,0,1,.3-.745c.286-.484.646-1.031,1.018-1.577a51.89,51.89,0,0,0,7.45-11.684,5.589,5.589,0,0,0,.372-.869,30.551,30.551,0,0,0,2.223-8.071,15.7,15.7,0,0,0,.236-3.29,11.7,11.7,0,0,1,0-1.577,31.419,31.419,0,0,0,.584-4.2c.261-2.521-2.049-3-3.936-.435ZM138.347,28.47l1.242,1.055a9.8,9.8,0,0,0-1.043-.186q-.118-.443-.2-.894v.025Zm.087-2.558-.186,2.049a31.223,31.223,0,0,0-1.105-4.073l1.291,2.024Z" transform="translate(19.735 86.94)"/><path class="l" d="M94.72,74.535s-4,25.205-4.805,33.611S55.77,81.476,55.77,81.476l24.162-4.135Z" transform="translate(70.899 103.914)"/><path class="m" d="M76.069,99.573,89.938,74.74,59.53,80.874S74.479,98.505,76.069,99.573Z" transform="translate(76.476 104.218)"/><path class="n" d="M66.884,42.71a19.7,19.7,0,0,1,10.442,9.809c1.353,2.868,1.987,6.047,3.564,8.791s4.52,5.1,7.636,4.607c-1.515,2.26-4.544,2.781-7.251,3.117a9.5,9.5,0,0,1-9.8-2.732L65.27,60.776" transform="translate(84.99 56.708)"/><path class="l" d="M84.644,52.7s21.207,37.249,20,49.666-46.015,13.869-46.015,13.869L55.825,76.358l18.8-25.205S81.44,48.706,84.644,52.7Z" transform="translate(70.98 68.132)"/><path class="l" d="M68.925,53.875S77.877,68.613,82.956,70.9c2.272,1.018-4.234,4.482-4.234,4.482Z" transform="translate(90.411 73.269)"/><path class="o" d="M69,53.875S77.952,68.613,83.031,70.9C85.3,71.916,78.8,75.38,78.8,75.38Z" transform="translate(90.522 73.269)"/><path class="p" d="M73.314,55.875s-8.53,3.849-7.872,12.528a15.309,15.309,0,0,1,8.927-11.3Z" transform="translate(85.191 76.236)"/><path class="q" d="M83.562,72.5a1.9,1.9,0,0,0-.149-.546c-.124-.447-.248-.906-.4-1.366-.261-.857-.534-1.738-.844-2.632-.1-.3-.186-.6-.286-.894L81.2,65.11l-.1.087-.683.521c-.291.223-.571.422-.844.6l-.5.348a1.79,1.79,0,0,0-.248.161,18,18,0,0,1-7.636,3.166,6.208,6.208,0,0,1-1.875.124s3.166,3.911,7.375,4.731a8.059,8.059,0,0,0,1.564.161h.807c.39-.057.8-.137,1.242-.236a8.408,8.408,0,0,0,1.838-.819l.435-.3a5.609,5.609,0,0,0,1.043-.956l-.062-.2Z" transform="translate(90.997 89.934)"/><path class="r" d="M81.908,67.074c-2.483,2.359-7.152,5.24-12.6,3.03a6.211,6.211,0,0,0,1.08,0,1.946,1.946,0,0,0,.795-.124,6.6,6.6,0,0,1,1.055-.223,21.269,21.269,0,0,0,6.581-2.943,1.786,1.786,0,0,1,.248-.161l.5-.348c.273-.181.554-.38.844-.6l.683-.521.1-.087Z" transform="translate(90.975 89.919)"/><path class="s" d="M72.265,71.584a7.449,7.449,0,0,0,1.589.075H74.7c.39-.057.8-.137,1.242-.236a8.394,8.394,0,0,0,1.838-.819l.435-.3a6.855,6.855,0,0,0,1.018-1.043,1.9,1.9,0,0,0-.149-.546c-.124-.447-.248-.906-.4-1.366-1.974,0-5.314.646-6.345,4.234h-.075Z" transform="translate(95.365 93.257)"/><ellipse class="p" cx="2.483" cy="2.508" rx="2.483" ry="2.508" transform="matrix(0.865, -0.503, 0.503, 0.865, 154.216, 140.483)"/><path class="t" d="M142.314,195.584c-.5,1.54-1.949,15.794-7.6,20.835a173.654,173.654,0,0,1-20.313,1.242A175.478,175.478,0,0,1,48.445,204.79l30.67-64.918,22.163-46.9c4.768,2.483,10.467,8.108,15.235,14.192a60.841,60.841,0,0,1,9.052,14.962,82.112,82.112,0,0,1,3.315,15.545c2.831,20.475,3.837,48.983,9.474,51.528a6.978,6.978,0,0,1,3.6,2.645,5.224,5.224,0,0,1,.36,3.737Z" transform="translate(60.033 131.266)"/><path class="l" d="M96.48,120.151c-.584-8.133-.6-8.692.733-17.209,1.5-9.573,12.019-31.687,14.763-31.339,5.575,1.664-6.419,18.861-5.736,25.851.236-3.725,1.242-9.176,4.967-9.933a2.036,2.036,0,0,1,1.142,0c1.18.484.832,4.445.248,5.563s-.733,2.682-1.329,3.824c.174,0,1.142-4.967,3.34-4.967,4.023,0,2.992,6,1.875,7.189,1.949-3.539,4.793-3.216,4.532-.459a31.48,31.48,0,0,1-.584,4.2c-.348,1.552,1.974,12.95-14.527,30" transform="translate(130.724 99.558)"/><path class="u" d="M62.716,119.666s5.7,26.906,24.609,33.909,33.214,6.494,33.214,6.494,2.1-5.4-1.006-7.6c-4-1.6-54.309-32.506-55.613-33.524s-1.2.72-1.2.72Z" transform="translate(81.199 169.314)"/><path class="l" d="M176.975,98.71c-7.686,40.08-11.175,84.928-46.686,104.981-22.412-6.109-39.161-25.106-54.756-42.328s-29.079-33.524-22.511-55.787c1.627-5.5,5.587-11.671,11.287-11.051,3.34.36,5.91,3.03,8.083,5.587,20.177,23.715,33.45,50.907,55.936,72.388.372-11.659,23.591-36.442,30.209-59.773,1.6-5.625,5.7-17.718,7.189-23.181s7.574-1.341,12.888,1.105" transform="translate(64.297 122.178)"/><path class="v" d="M80.58,107.481c.795-.248,1.44.646,1.788,1.391a15.31,15.31,0,0,1,1.85,7.686,14.44,14.44,0,0,1-2,5.525,41.222,41.222,0,0,1-10.926,12.764c-1.912,1.453-4.495,2.769-6.593,1.589a4.445,4.445,0,0,1-1.875-4.631,10.269,10.269,0,0,1,2.483-4.644,63.822,63.822,0,0,0,4.122-4.967c.919-1.341,1.639-2.819,2.483-4.246a44.251,44.251,0,0,1,9.511-11.734" transform="translate(81.214 150.905)"/><path class="w" d="M97.749,140.3c-.981,2.483.447,3.948-1.49,5.786s-4.967,2.744-7.313,1.391a9.028,9.028,0,0,1-2.67-2.868c-6.469-9.461-10.306-25.193-14.341-35.921,5.327,6.9,12.416,17.532,18.2,23.5,3.054,3.141,4.755,5.91,7.872,7.934" transform="translate(94.876 154.576)"/><path class="x" d="M71.127,139.468c.062,9.573,6.668,28.446,2.968,37.249a25.751,25.751,0,0,1-7.077,9.5q-7.011-1.643-13.857-3.9a24.932,24.932,0,0,0,3.6-3.477c7.45-8.9,5.985-21.927,8.133-33.338A50.622,50.622,0,0,1,79.57,118.41a94.1,94.1,0,0,0,7.735-7.45L71.127,139.468Z" transform="translate(67.027 157.943)"/><path class="y" d="M107.456,72.585s-2.968,6.519-4.4,10.405S99.1,93.072,100.428,95.518a57.98,57.98,0,0,1,2.558-9.089c.968-2.285,3.241-7.971,3.241-7.971s1.515-5.3,1.229-5.873Z" transform="translate(136.585 101.022)"/><path class="z" d="M101.992,112.063s-5.19-12.628-1.155-17.2,7.115-1.08,7.115-1.08a60.662,60.662,0,0,0-3.564,5.054c-1.08,1.838-2.4,13.223-2.4,13.223Z" transform="translate(135.468 130.579)"/><path class="aa" d="M104.206,78.965s-2.632,6.444-2.086,8.046c.348-.422,1.068-3.613,1.329-4.11a8.458,8.458,0,0,0,.757-3.936Z" transform="translate(139.538 110.485)"/><path class="ab" d="M105.15,80.72s-1.378,4.259-.733,5.575a10.244,10.244,0,0,0,.969-3.328,4.644,4.644,0,0,0-.236-2.247Z" transform="translate(142.802 113.088)"/><path class="ac" d="M108.058,82.23l-.074.149c-.31.683-1.527,3.5-1.329,4.967.223,1.651-1.242,12.069-1.9,13.509.075,0,3.34-8.182,2.732-12.739" transform="translate(143.557 115.328)"/><path class="s" d="M104.2,101.257c-.435-2.21,2.483-8,2.607-8.245l-.385,1.329a36.6,36.6,0,0,0-2.235,6.9Zm-3.986-3.415c-.435-2.21,2.111-8.791,2.223-9.039l-.074,1.068a33.676,33.676,0,0,0-1.788,6.208ZM109.6,102.7c.72-2.086,1.8-5.513,1.813-5.55A25.558,25.558,0,0,1,109.6,102.7Zm-3.377-31.376s1.13.074.223,2.086-3.34,3.352-3.638,1.987C102.8,75.294,104.722,71.234,106.224,71.321Z" transform="translate(136.749 99.144)"/><path class="p" d="M162.393,187.364c-.844-17.991-2.16-49.231-18.625-56.644C135.5,127,127.963,122.2,127.627,113.151a19.161,19.161,0,0,1,.075-5.836c.41-1.515,3.216-5.24,4.818-2.707,1.242,2.011,1.341,3.961,3.377,5.674a25.293,25.293,0,0,0,8.058,4.582c1.242.372,2.992-.074,3.961.286-5.811-2.136-9.933-13.894-7.09-22.461v-.137c.323-.36.646-.72.956-1.08,6.655-7.922,8.1-19.432,4.706-29.129l2.049,3.179a46.015,46.015,0,0,0-2.173-26.882c-15.508,6.779-34.716,3.6-49.032,12.814C87.609,57.662,81.86,68.837,79.576,80.173s-1.49,23.033-.7,34.567c.31,4.569.621,9.263-.745,13.658-2.483,8.1-10.231,13.484-18.091,16.663s-16.34,4.793-23.889,8.692c-12.069,6.208-20.835,17.991-24.423,31.041s-2.2,27.316,2.732,39.882c4.2,10.728,10.877,20.475,13.832,31.6,2.285,8.567,2.285,17.718,5.463,25.988,4.408,11.436,14.738,20.04,26.4,23.8s24.46,3,36.181-.571c14.577-4.457,28.769-14.614,32.171-29.477,2.26-9.846-.335-21.021,4.967-29.6,2.483-4.06,6.519-6.953,10.032-10.206,13.2-12.3,19.73-30.867,18.885-48.846Z" transform="translate(2.592 50.672)"/></svg>