<svg xmlns="http://www.w3.org/2000/svg" xmlns:xlink="http://www.w3.org/1999/xlink" width="411.754" height="313.744" viewBox="0 0 411.754 313.744"><defs><style>.a{fill:#4fbd9a;}.ap,.as,.b{fill:none;}.c{fill:#efeff1;}.an,.c,.d,.e{fill-rule:evenodd;}.d,.e,.f{opacity:0.25;}.d{fill:url(#a);}.e{fill:url(#b);}.f{fill:url(#c);}.g{fill:#c36a81;}.h{clip-path:url(#d);}.i{fill:url(#e);}.j{fill:#61dbbb;}.k{clip-path:url(#f);}.l{fill:url(#g);}.m{clip-path:url(#h);}.n{fill:url(#i);}.o{clip-path:url(#j);}.p{fill:url(#k);}.q{clip-path:url(#l);}.r{fill:url(#m);}.s{clip-path:url(#n);}.t{fill:url(#o);}.u{clip-path:url(#p);}.v{fill:url(#q);}.w{fill:#008484;}.x{fill:#5d5d5d;}.y{fill:#2b2b2b;}.z{fill:#949599;}.aa{fill:#fab514;}.ab{fill:#cbcaca;}.ac{fill:#4e4e4d;}.ad{fill:#242424;}.ae{fill:#fff;}.af{fill:#1f2347;}.ag{fill:#b8b8c2;}.ah{fill:#e1e1ed;}.ai{fill:#1d1e1b;}.aj{fill:#d69410;}.ak{fill:#15182c;}.al{fill:#f5e7c0;}.am{fill:#c1d3e6;}.an,.ao{fill:#4e273f;}.ap{stroke:#c36a81;}.ap,.as{stroke-miterlimit:10;}.aq{fill:#91293b;}.ar{fill:#c7cbcd;}.as{stroke:#fff;stroke-width:0.9px;}.at{fill:#43c59e;}.au{clip-path:url(#r);}.av{fill:url(#s);}.aw{clip-path:url(#t);}.ax{fill:url(#u);}.ay{clip-path:url(#v);}.az{fill:url(#w);}.ba{fill:#1b2246;}.bb{clip-path:url(#x);}.bc{opacity:0.6;fill:url(#y);}.bd{fill:#f7b389;}.be{fill:#213f90;}.bf{fill:#ec8c5c;}.bg{fill:#eeb08a;}.bh{fill:#ba5427;}.bi{fill:url(#z);}</style><linearGradient id="a" x1="-2.931" y1="8.733" x2="-2.198" y2="8.733" gradientUnits="objectBoundingBox"><stop offset="0" stop-color="#b6d4f7"/><stop offset="1" stop-color="#b6d4f7" stop-opacity="0"/></linearGradient><linearGradient id="b" x1="-4.982" y1="9.865" x2="-5.882" y2="9.538" xlink:href="#a"/><linearGradient id="c" x1="-1.982" y1="4.287" x2="-1.5" y2="5.351" xlink:href="#a"/><clipPath id="d"><path class="a" d="M353.1,203.05s-6.773,9.491-11.94,9.346-5.023,2.8-6.485,4.632-3.881,3.212-5.96,2.831-2.81,5.147-9.789,4.7-6.464.34-10.293,6.392l-.865-.844s2.429-3.634,10.932-11.323c8.677-7.864,15.625-12.743,23.994-13.484S353.1,203.05,353.1,203.05Z" transform="translate(-307.77 -203.05)"/></clipPath><linearGradient id="e" x1="27.076" y1="10.966" x2="26.778" y2="11.23" gradientUnits="objectBoundingBox"><stop offset="0.32" stop-color="#4fbd9a" stop-opacity="0"/><stop offset="0.39" stop-color="#4cb795" stop-opacity="0.18"/><stop offset="0.53" stop-color="#47ad8e" stop-opacity="0.471"/><stop offset="0.66" stop-color="#43a588" stop-opacity="0.698"/><stop offset="0.79" stop-color="#40a083" stop-opacity="0.871"/><stop offset="0.9" stop-color="#3f9c81" stop-opacity="0.969"/><stop offset="0.99" stop-color="#3e9b80"/></linearGradient><clipPath id="f"><path class="a" d="M352.585,178.07s-23.809,1.616-39.115,28.41S297,231.853,297,231.853l3.088,1.729A33.906,33.906,0,0,1,306,223.032c4.622-5.888,6.732-4.5,11.817-4.55s3.315-7.123,7.463-8.523,4.632,1.029,7.535-6.8,9.213-3.7,13.021-9.573S347.994,183.948,352.585,178.07Z" transform="translate(-297 -178.07)"/></clipPath><linearGradient id="g" x1="19.104" y1="4.036" x2="18.739" y2="4.181" xlink:href="#e"/><clipPath id="h"><path class="b" d="M370.614,112.35s-3.8,18.436-14.411,23-7.205,8.235-8.235,11.909a14.133,14.133,0,0,1-9.089,9.11c-4.591,1.41-1.029,7.854-14.843,15.028-8.235,4.262-12.352,2.954-13.742,14.256l-2.615-.278s.772-3.52,9.923-21.225c9.336-18.086,18.291-30.757,34.38-39.372S370.614,112.35,370.614,112.35Z" transform="translate(-307.68 -112.35)"/></clipPath><linearGradient id="i" x1="0.984" y1="0.083" x2="0.276" y2="0.524" xlink:href="#e"/><clipPath id="j"><path class="b" d="M368.047,151s-27.031-.412-47.525,26.5-20.752,24.54-20.752,24.54l3.2,2.131s1.2-4.035,7.1-9.841,8.122-4.117,13.865-3.747,4.581-7.205,9.419-8.327,5.147,1.5,9.264-6.516,10.829-3.088,15.831-8.935S362.138,156.754,368.047,151Z" transform="translate(-299.77 -151)"/></clipPath><linearGradient id="k" x1="5.257" y1="-3.161" x2="4.801" y2="-2.959" xlink:href="#e"/><clipPath id="l"><path class="b" d="M356.832,109.615S322.678,156.141,315,168.874c0,0-3.747,3.088-2.532,26.9l-1.626.124s-2.7-15.512,2.3-26.763c0,0-2.769-9.192-1.41-17.139s5.661-7.823,8.7-15.893,1.554-10.293,13.217-15.831,5.672-7.452,10.191-9.707S351.747,108.359,356.832,109.615Z" transform="translate(-310.113 -108.75)"/></clipPath><linearGradient id="m" x1="-19.951" y1="0.577" x2="-19.529" y2="0.378" gradientUnits="objectBoundingBox"><stop offset="0.32" stop-color="#43c59e" stop-opacity="0"/><stop offset="0.4" stop-color="#42bd98" stop-opacity="0.188"/><stop offset="0.53" stop-color="#41b190" stop-opacity="0.478"/><stop offset="0.67" stop-color="#3fa889" stop-opacity="0.698"/><stop offset="0.79" stop-color="#3fa184" stop-opacity="0.871"/><stop offset="0.9" stop-color="#3e9d81" stop-opacity="0.969"/><stop offset="0.99" stop-color="#3e9c80"/></linearGradient><clipPath id="n"><path class="a" d="M189.23,121.8s6.176,12.506,14.123,13.834,6.423,4.55,7.854,7.01a10.191,10.191,0,0,0,7.854,4.858c3.335.165,2.059,6.567,12.846,8.039s9.7,2.223,12.887,10.067l1.678-.69s-2.131-4.745-11.724-15.759c-9.8-11.24-18.261-18.672-30.664-21.884S189.23,121.8,189.23,121.8Z" transform="translate(-189.23 -121.8)"/></clipPath><linearGradient id="o" x1="15.426" y1="2.339" x2="15.208" y2="2.517" xlink:href="#e"/><clipPath id="p"><path class="a" d="M198.19,91.81s25.157,7.761,34.864,40.412,11.261,31.405,11.261,31.405l-3.685,1.122s-.216-5.332-3.685-12.815-6.094-6.536-11.549-7.885-1.75-8.482-5.847-11.024-5.25-.072-6.372-9.264-8.966-6.289-11.58-13.556S201.659,99.3,198.19,91.81Z" transform="translate(-198.19 -91.81)"/></clipPath><linearGradient id="q" x1="12.767" y1="1.217" x2="12.309" y2="1.339" xlink:href="#e"/><clipPath id="r"><path class="b" d="M47.448,129S29.455,141.177,29.64,169.289s0,52.5,0,52.5h3.191s-2.44-29.233-1.5-36.027,3.232-6.619,7.205-9-.659-7.113,1.966-10.118,4.117-1.307,2.81-8.811,5.569-7.113,5.878-13.484S46.48,135.763,47.448,129Z" transform="translate(-29.639 -129)"/></clipPath><linearGradient id="s" x1="71.82" y1="0.429" x2="71.075" y2="0.537" xlink:href="#m"/><clipPath id="t"><path class="b" d="M.08,140s-.412,13.855,5.929,18.713,3.5,6.979,3.613,9.8a10.108,10.108,0,0,0,4.622,7.916c2.841,1.7-1.287,6.7,7.5,13.031s5.929,24.55,5.075,32.888l1.791.175s1.873-23.2-1.4-37.324c-3.345-14.411-7.3-24.869-16.675-33.464S.08,140,.08,140Z" transform="translate(-0.075 -140)"/></clipPath><linearGradient id="u" x1="0.808" y1="0.409" x2="0.426" y2="0.526" xlink:href="#m"/><clipPath id="v"><path class="b" d="M60.859,166.825a1.74,1.74,0,0,1,2.337,2.244,9.89,9.89,0,0,0-.432,1.215c-.937,3.335-2.265,6.176-4.488,7.082-6.238,2.656-2.059,6.485-6.753,9.758-2.542,1.76-4.117,3.139-4.859,6.073-.906,3.726-1.76,4.91-4.859,6.608-.607.329-4.5-.638-6.392,3.088-2.6,5.147-3.273,15.574-3.242,17.139H30.74a69.5,69.5,0,0,1,5.064-24.8C40.828,183.479,50.277,171.652,60.859,166.825Z" transform="translate(-30.74 -166.664)"/></clipPath><linearGradient id="w" x1="0.541" y1="0.525" x2="0.388" y2="0.407" xlink:href="#m"/><clipPath id="x"><path class="b" d="M37.919,235.281H27.9a8.163,8.163,0,0,1-7.988-6.536L16.323,211a5.528,5.528,0,0,1,5.414-6.619H44.383a5.25,5.25,0,0,1,5.147,6.289l-3.664,18.075A8.142,8.142,0,0,1,37.919,235.281Z" transform="translate(-16.214 -204.38)"/></clipPath><linearGradient id="y" x1="0.165" y1="0.136" x2="0.915" y2="0.825" gradientUnits="objectBoundingBox"><stop offset="0.04" stop-color="#2fb5be" stop-opacity="0"/><stop offset="0.07" stop-color="#58348c" stop-opacity="0.11"/><stop offset="0.25" stop-color="#744ea7" stop-opacity="0.412"/><stop offset="0.41" stop-color="#8862bb" stop-opacity="0.631"/><stop offset="0.49" stop-color="#9069c3" stop-opacity="0.722"/><stop offset="0.63" stop-color="#9d75cf" stop-opacity="0.839"/><stop offset="0.77" stop-color="#a77ed8" stop-opacity="0.929"/><stop offset="0.9" stop-color="#ad84de" stop-opacity="0.98"/><stop offset="0.99" stop-color="#af86e0"/></linearGradient><radialGradient id="z" cx="16.883" cy="-16.326" r="1.215" gradientTransform="matrix(0.972, -0.236, 0.236, 0.972, 3.178, 2.674)" gradientUnits="objectBoundingBox"><stop offset="0" stop-color="#ec9981"/><stop offset="0.78" stop-color="#ec9981" stop-opacity="0"/></radialGradient></defs><g transform="translate(0)"><path class="c" d="M178.829,299.772c16.346-6.176,33.742-13.865,51.467-14.678,37.561-1.719,71.694,15.739,109.594,7.37a88.163,88.163,0,0,0,52.877-34.185c25.435-35.1,23.541-93.825-2.059-128.4-15.656-21.1-44.807-27.792-65.219-44.385C297.7,62.961,279.9,26.152,246.137,14.3c-30.386-10.654-68.2-1.575-86.125,25.167-14.648,21.843-19.413,48.9-35.636,69.9-13.2,17.015-34.72,24.931-52.219,36.5-16.809,11.076-30.623,24.838-36.778,44.468a88.668,88.668,0,0,0-3.6,32.116c1.843,27.236,13.824,54.246,34.73,72.126a77.479,77.479,0,0,0,26.135,14.545c9.892,3.016,21.925,4.848,32.291,4.189,17.067-1.029,33.649-6.032,49.707-11.92Z" transform="translate(0.849 0.292)"/><path class="d" d="M319,84.612C303.342,71.91,290.856,54.7,276.908,40a91.612,91.612,0,0,0,125.58,133.177c-2.944-16.346-9.068-31.776-18.23-44.138C368.561,107.937,339.41,101.153,319,84.612Z" transform="translate(7.289 1.174)"/><path class="e" d="M101.786,163.3a64.221,64.221,0,0,0-25.3-23.912c-1.431.875-2.851,1.76-4.241,2.676A118.371,118.371,0,0,0,55.177,155.51,41.874,41.874,0,1,1,34.59,236.622,109.11,109.11,0,0,0,43.4,260.884,64.488,64.488,0,0,0,101.806,163.3Z" transform="translate(0.938 4.09)"/><path class="f" d="M195.092,12.7a72.652,72.652,0,0,0-24.468,11.693c-18.261,94.6,12.043,169.955,101.123,220.28,34.359,19.393,52.373,36.593,61.678,48.379.916-.175,1.822-.36,2.738-.556a89.553,89.553,0,0,0,41.308-21.225c-21.946-40.824-87.679-36.12-148.411-104.715C183.276,114.79,188.021,48.274,195.092,12.7Z" transform="translate(4.781 0.373)"/><path class="g" d="M90.267,129.279A10.415,10.415,0,0,0,88.6,129a.381.381,0,0,1-.329-.412.371.371,0,0,1,.412-.329,10.346,10.346,0,0,1,1.781.309.371.371,0,1,1-.2.71Z" transform="translate(2.513 3.764)"/><path class="b" d="M305.712,292.73h-.062a.062.062,0,0,0,.062,0Z" transform="translate(8.892 8.59)"/><path class="a" d="M353.1,203.05s-6.773,9.491-11.94,9.346-5.023,2.8-6.485,4.632-3.881,3.212-5.96,2.831-2.81,5.147-9.789,4.7-6.464.34-10.293,6.392l-.865-.844s2.429-3.634,10.932-11.323c8.677-7.864,15.625-12.743,23.994-13.484S353.1,203.05,353.1,203.05Z" transform="translate(8.954 5.958)"/><g class="h" transform="translate(316.724 209.008)"><path class="i" d="M352.98,203.217s-4.725,4.581-8.6,5.383-5.579-1.307-8.327,1.6-3.14,4.56-6.825,4.745c-2.2.113-2.81,1.184-5.281,3.726s-8.348,2.81-11.652,6.392c-1.585,1.729,2-4.344,9.892-12.949,5.641-6.176,16.933-14.761,16.933-14.761l14.483,3.757-.36,1.843" transform="translate(-307.648 -203.217)"/></g><path class="j" d="M352.585,178.07s-23.809,1.616-39.115,28.41S297,231.853,297,231.853l3.088,1.729A33.906,33.906,0,0,1,306,223.032c4.622-5.888,6.732-4.5,11.817-4.55s3.315-7.123,7.463-8.523,4.632,1.029,7.535-6.8,9.213-3.7,13.021-9.573S347.994,183.948,352.585,178.07Z" transform="translate(8.638 5.225)"/><path class="a" d="M352.585,178.07s-23.809,1.616-39.115,28.41S297,231.853,297,231.853l3.088,1.729A33.906,33.906,0,0,1,306,223.032c4.622-5.888,6.732-4.5,11.817-4.55s3.315-7.123,7.463-8.523,4.632,1.029,7.535-6.8,9.213-3.7,13.021-9.573S347.994,183.948,352.585,178.07Z" transform="translate(8.638 5.225)"/><g class="k" transform="translate(305.638 183.295)"><path class="l" d="M352.349,178.247a20.989,20.989,0,0,0-11.2,9.316c-4.272,7.319-5.61,5.5-10.983,7.38s-4.282,3.242-7.875,8.883-10.88,7.03-14.781,13.207-2.059-4.014-2.059-4.014l31.076-40.669,12.908-.309Z" transform="translate(-296.765 -178.247)"/></g><path class="a" d="M370.614,112.35s-3.8,18.436-14.411,23-7.205,8.235-8.235,11.909a14.133,14.133,0,0,1-9.089,9.11c-4.591,1.41-.288,9.264-14.843,15.028s-12.352,2.954-13.742,14.256l-2.615-.278s.772-3.52,9.923-21.225c9.336-18.086,18.291-30.757,34.38-39.372S370.614,112.35,370.614,112.35Z" transform="translate(8.952 3.297)"/><g class="m" transform="translate(316.632 115.647)"><path class="n" d="M370.528,112.444s-4.766,10.232-11.745,14.823-12.6,3.428-15.121,9.686-1.606,8.739-8.842,12.352c-4.323,2.172-4.447,4.117-6.783,9.645s-13.937,11.282-16.85,18.93c-1.41,3.7-.484-7.432,6.516-25.734,4.992-13.1,18.827-34.545,18.827-34.545l33.093-8.441,1.174,2.7" transform="translate(-307.594 -112.444)"/></g><path class="a" d="M368.047,151s-27.031-.412-47.525,26.5-20.752,24.54-20.752,24.54l3.2,2.131s1.2-4.035,7.1-9.841,8.122-4.117,13.865-3.747,4.581-7.205,9.419-8.327,5.147,1.5,9.264-6.516,10.829-3.088,15.831-8.935S362.138,156.754,368.047,151Z" transform="translate(8.72 4.431)"/><g class="o" transform="translate(308.49 155.431)"><path class="p" d="M369.928,146.117a25.815,25.815,0,0,0-14.586,10.438c-6.042,8.688-7.411,6.269-14.081,8.05s-5.538,3.582-10.561,10.232-13.906,7.607-19.372,14.895-1.935-5.219-1.935-5.219L351.77,137.1l15.492.978Z" transform="translate(-299.521 -151.408)"/></g><path class="a" d="M356.832,109.615S322.678,156.141,315,168.874c0,0-3.747,3.088-2.532,26.9l-1.626.124s-2.7-15.512,2.3-26.763c0,0-2.769-9.192-1.41-17.139s5.661-7.823,8.7-15.893,1.554-10.293,13.217-15.831,5.672-7.452,10.191-9.707S351.747,108.359,356.832,109.615Z" transform="translate(9.023 3.191)"/><g class="q" transform="translate(319.137 111.941)"><path class="r" d="M357.37,109.18s-1.678,3.263-8.358,4.035-10.026,6.979-11.868,12.4A52.971,52.971,0,0,1,327.118,142.2c-4.344,4.961-14.04,18.919-10.87,28.369S329.629,156,329.629,156l26.763-38.292Z" transform="translate(-309.952 -108.738)"/></g><path class="a" d="M189.23,121.8s6.176,12.506,14.123,13.834,6.423,4.55,7.854,7.01a10.191,10.191,0,0,0,7.854,4.858c3.335.165,2.059,6.567,12.846,8.039s9.7,2.223,12.887,10.067l1.678-.69s-2.131-4.745-11.724-15.759c-9.8-11.24-18.261-18.672-30.664-21.884S189.23,121.8,189.23,121.8Z" transform="translate(5.476 3.574)"/><g class="s" transform="translate(194.706 125.374)"><path class="t" d="M189.239,121.875s5.2,6.454,10.757,8.461,9.048.134,11.961,4.117,2.81,5.97,8.338,7.205c3.3.762,3.767,2.12,6.423,5.661s11.477,5.517,14.946,10.458c1.678,2.388-1.153-5.414-9.429-17.252-5.919-8.471-19.372-21.3-19.372-21.3H189.187l-.257,2.141" transform="translate(-189.239 -121.875)"/></g><path class="j" d="M198.19,91.81s25.157,7.761,34.864,40.412,11.261,31.405,11.261,31.405l-3.685,1.122s-.216-5.332-3.685-12.815-6.094-6.536-11.549-7.885-1.75-8.482-5.847-11.024-5.25-.072-6.372-9.264-8.966-6.289-11.58-13.556S201.659,99.3,198.19,91.81Z" transform="translate(5.739 2.694)"/><path class="a" d="M198.19,91.81s25.157,7.761,34.864,40.412,11.261,31.405,11.261,31.405l-3.685,1.122s-.216-5.332-3.685-12.815-6.094-6.536-11.549-7.885-1.75-8.482-5.847-11.024-5.25-.072-6.372-9.264-8.966-6.289-11.58-13.556S201.659,99.3,198.19,91.81Z" transform="translate(5.739 2.694)"/><g class="u" transform="translate(203.929 94.504)"><path class="v" d="M198.19,91.979a23.191,23.191,0,0,1,9.666,12.836c2.728,8.945,4.632,7.329,9.923,10.705s3.788,4.57,6.228,11.529,9.892,10.293,12.527,17.921,3.222-3.788,3.222-3.788l-23.1-51.529-13.793-3.6Z" transform="translate(-198.19 -91.979)"/></g><path class="w" d="M313.467,194.5s-2.182-9.182-13.042-14.133-29.933-15.44-29.933-15.44-3.273,4.117,8.4,11.24,32.6,13.474,34.576,18.322Z" transform="translate(7.848 4.84)"/><path class="w" d="M307.3,172.4s-4.848,1.647-18.9-6.33-19.084-8.286-19.084-8.286.371-3,8.235-1.987,24.7,10.067,29.728,16.6Z" transform="translate(7.826 4.566)"/><path class="w" d="M300.012,162.873s10.016-16.15,7.308-26.763.607-15.08.607-15.08-9.47,7.885-8.235,17.859,2.388,20.659.288,24.015Z" transform="translate(8.714 3.552)"/><path class="w" d="M295.95,156.324c.453.432-9.717,1.523-20.371-5.044s-15.049-6.526-15.049-6.526-.082-2.728,5.878-3.6,24.015,9.913,29.542,15.173Z" transform="translate(7.568 4.14)"/><path class="x" d="M201.485,230.737v2.656L195,229.131l.288-2.131,6.2,3.737" transform="translate(5.645 6.661)"/><path class="x" d="M211.223,230.63v2.656H201.3V230.63h9.923" transform="translate(5.83 6.768)"/><path class="x" d="M220.863,230.63v2.656H210.94V230.63h9.923" transform="translate(6.113 6.768)"/><path class="x" d="M226.766,227l.288,2.131-6.475,4.262v-2.656L226.766,227" transform="translate(6.396 6.661)"/><path class="y" d="M211.4,213.467v17.715h-9.923l-6.176-3.736,5.085-1.544s2.172-.926,2.831-5.857.751-8.235.751-8.235.525,1.657,7.452,1.657" transform="translate(5.654 6.216)"/><path class="y" d="M227.049,227.446l-6.176,3.736H210.95V213.467c6.927,0,7.452-1.657,7.452-1.657s.093,3.294.751,8.235,2.82,5.857,2.82,5.857l5.085,1.544" transform="translate(6.113 6.216)"/><path class="x" d="M206.119,210.83s.576.968,5.034,1.029v1.657c-6.928,0-7.452-1.657-7.452-1.657A7.483,7.483,0,0,1,206.119,210.83Z" transform="translate(5.9 6.187)"/><path class="x" d="M210.94,211.839c4.457,0,5.034-1.029,5.034-1.029a7.482,7.482,0,0,1,2.419,1.029s-.525,1.657-7.452,1.657Z" transform="translate(6.113 6.186)"/><path class="z" d="M206.1,209.411h4.982v2.47c-4.457,0-5.034-1.029-5.034-1.029V209.39Z" transform="translate(5.969 6.144)"/><path class="z" d="M215.974,210.871s-.576.968-5.034,1.029v-2.47h4.982l.051,1.462Z" transform="translate(6.113 6.146)"/><path class="x" d="M216.763,206.59v2.9H205.44v-2.9h11.323Z" transform="translate(5.952 6.062)"/><path class="z" d="M214.985,204.79l.782,1.853H206.38l.772-1.853Z" transform="translate(5.979 6.009)"/><path class="z" d="M213.543,109.22h.978l1.493,2.831H206.43l1.482-2.831h5.63Z" transform="translate(5.981 3.205)"/><path class="x" d="M216.026,115.21,215,117.351h-7.833L206,115.21Z" transform="translate(5.968 3.381)"/><path class="z" d="M216.026,113.66v1.6H206v-1.6Z" transform="translate(5.968 3.335)"/><path class="aa" d="M210.208,12.4V36.744l-5.147.288L199.77,13.707A50.83,50.83,0,0,1,210.238,12.4Z" transform="translate(5.785 0.364)"/><path class="aa" d="M222.548,13.717l-5.291,23.315-5.147-.288V12.41a51.55,51.55,0,0,1,10.468,1.307Z" transform="translate(6.147 0.364)"/><path class="x" d="M210.235,36.744V12.4h1.122V38c-2.47,0-5,.144-6.32.237h-.916l-5.27-24.4H199l.772-.185,5.291,23.325,5.147-.288Z" transform="translate(5.758 0.364)"/><path class="x" d="M212.112,36.744l5.147.288,5.291-23.315.7.175h.257l-5.281,24.4h-.844c-1.287-.093-3.87-.237-6.382-.237V12.4h1.081V36.744Z" transform="translate(6.115 0.364)"/><path class="y" d="M211.183,44.927h-2.82s2.326-1.523.515-2.9-4.117-1.431-4.117-3.829c1.318-.093,3.85-.237,6.32-.237V12.4h.1Z" transform="translate(5.932 0.364)"/><path class="y" d="M213.326,41.336c-1.812,1.379.515,2.9.515,2.9H211V37.27c2.512,0,5.1.144,6.382.237.093,2.4-2.265,2.45-4.117,3.829Z" transform="translate(6.115 1.094)"/><path class="x" d="M213.992,44.04v3.376h-5.7V44.04h5.7Z" transform="translate(6.035 1.292)"/><path class="x" d="M216.044,111.97h.69v1.74H205.37v-1.74h10.674Z" transform="translate(5.95 3.286)"/><path class="y" d="M213.473,47.32v63.716H208.82V47.32Z" transform="translate(6.051 1.389)"/><path class="y" d="M214.963,117.29v90.068H207.13V117.29Z" transform="translate(6.001 3.442)"/><path class="y" d="M210.324,12.764a50.829,50.829,0,0,0-10.468,1.307l-.772.185H198.9a5.065,5.065,0,0,1-3.088-1.482c5.034-.3,6.094-3.438,8.811-7.205s4.766-4.539,4.766-4.539V0H213.4V1.029s2.059.751,4.745,4.529,3.778,6.917,8.811,7.205a5.054,5.054,0,0,1-2.985,1.472h-.257l-.7-.175a51.55,51.55,0,0,0-10.468-1.307h-2.234Z" transform="translate(5.669)"/><path class="ab" d="M302.029,225.411c6.413-.782,12.785-1.894,19.187-2.687l-31-7.525-60.834,10.849.257,1.935-6.475,4.251H203.315l-1.842-1.2-62.893,11.22a20.746,20.746,0,0,0-2.059.741c-2.254.957-5.322,2.738-3.15,4.714a9.986,9.986,0,0,0,3.263,1.729S188.925,269.3,211.982,269.3c1.029,0,2.059-.051,3.006-.134,11.323-1.091,57.437-10.551,97.541-19.063,8.121-1.719,5.631-8.719,6.7-11.086C322.74,231.464,303.882,226.821,302.029,225.411Z" transform="translate(3.815 6.315)"/><path class="ac" d="M201.353,231.72l-1.843.329,1.843,1.2V231.72" transform="translate(5.778 6.8)"/><path class="ac" d="M211.223,230.63H207.6l-6.3,1.122v1.534h9.923V230.63" transform="translate(5.83 6.768)"/><path class="ac" d="M220.863,230.63H210.94v2.656h9.923V230.63" transform="translate(6.113 6.768)"/><path class="ac" d="M226.8,227.2l-.525.093-5.692,3.438v2.656l6.475-4.261L226.8,227.2" transform="translate(6.396 6.667)"/><path class="ad" d="M211.043,230l-3.623.649h3.623V230" transform="translate(6.01 6.749)"/><path class="ad" d="M226.555,227.29l-15.615,2.79v.648h9.923l5.692-3.438" transform="translate(6.113 6.67)"/><path class="ae" d="M309.089,32.034c.319,8.132.782,206.991.782,206.991s-.154,7.35-7.967,6.567-63.006-8.132-63.006-8.132-5.322-.937-5.476-10.468,0-187.763,0-187.763-1.132-7.669,7.5-8.914l60.5-5s7.35-1.41,7.658,6.722" transform="translate(6.771 0.74)"/><path class="aa" d="M322.295,223.339l-38.971,6.567s.154-20.093-.823-30.572h0l-.093-1.194h0a82.238,82.238,0,0,0-3.551-16.634l-.247-.741-12.62,1.5,29.305-30.952s5.96-6.5,14.648-7.71,10.139-1.863,10.139-1.863,6.382-4.117-3.747-6a71.9,71.9,0,0,0-16.964-.957l.35,1.1-4.426.823-21.452-.35.185-.432c-1.894.144-15.78,1.318-25.054,3a53.394,53.394,0,0,0-10.19,3.294c.618,0,41.421-1.462,57.314.535l-37.355,34.833a2.45,2.45,0,0,1-.5.782c-.648.731-2.059,1.863-5.239,2.841-5.147,1.616-42.3,12.29-42.3,12.29s-13.937,3.273-16.068,7.8a2.924,2.924,0,0,0-.226.7v.1c11,.268,12.29.36,12.29.36s5.034-.607,3.829,2.717-3.829,10.293-3.829,10.293-.35,1.76-3.479,1.76-33.567-1.76-33.567-1.76a4.744,4.744,0,0,1-.648.7,4.622,4.622,0,0,1-3.459,1.029c.1,0,.206.144-6.464-.71-3.17-.412-8.029-1.235-12.723-2.059-6.423-1.184-12.527-2.44-13.536-2.79a2.81,2.81,0,0,1-1.143-.669,1.554,1.554,0,0,1-.494-1.132c-.391.2-1.143-.062-1.966-.515a7.493,7.493,0,0,1-2-2.244c-.247,1.029-.36,1.647-.36,1.647a26.542,26.542,0,0,0-3.623.906,3.8,3.8,0,0,0,.8.772c2.213,1.76,9.974,6.1,34.133,8.585,29.944,3.088,53.032,5.209,68.966,0,.463-.144.916-.3,1.349-.463,4.416-7.617,12.99-16.4,28.513-13.762,20.134,3.428,19.331,31.416,19.331,31.416l45.96-8.122Zm-52.023-29.1-2.542.124v-3.17h2.542a1.76,1.76,0,0,1,.875,1.585,1.472,1.472,0,0,1-.875,1.462Z" transform="translate(3.54 3.951)"/><path class="aa" d="M317.754,221.613l-38.971,6.567s.154-20.093-.824-30.572l7.988-.875.5,6.464,7.792-.916-.453-6.4,7.679-.834.412,6.341,7.483-.885-.381-6.269,7.37-.8.34,6.176.669,4.323Z" transform="translate(8.08 5.676)"/><path class="aa" d="M316.466,193.99l-.34-6.279-7.4.751.371,6.33-7.514.813-.422-6.392-7.72.772.463,6.454-7.844.854-.494-6.516-8.06.8.443,5.383A82.24,82.24,0,0,0,274.4,180.33l-.247-.741,3.242-.381.412,5.888a2.81,2.81,0,0,0,2.759,2.419c2.419,0,2.872-1.029,2.872-2.645v-6.413l10.345-1.029a5.28,5.28,0,0,0,1.482-.288l22.213-2.79Z" transform="translate(7.968 5.116)"/><path class="af" d="M318.237,142.261l-.381,33.011-22.234,2.748a3.541,3.541,0,0,0,2.512-3.407,20.135,20.135,0,0,0-.751-6.413s-.751-2.275-4.982-2.347-10.293,0-10.293,0-2.975,0-3.325,2.347l-1.276,8.605a1.307,1.307,0,0,0,.051.7l.175,2.625-3.242.381-12.62,1.5,29.305-30.952s5.96-6.5,14.648-7.71a87.943,87.943,0,0,1,12.352-1.112Z" transform="translate(7.608 4.174)"/><path class="y" d="M315.141,187.33l.34,6.279-7.37.8-.371-6.33,7.4-.751Z" transform="translate(8.954 5.497)"/><path class="y" d="M308.314,194.21l.381,6.269-7.483.885-.412-6.341,7.514-.813Z" transform="translate(8.75 5.699)"/><path class="y" d="M300.61,188.79l.422,6.392-7.679.834-.463-6.454,7.72-.772Z" transform="translate(8.518 5.54)"/><path class="y" d="M296.934,167.559a20.133,20.133,0,0,1,.752,6.413,3.541,3.541,0,0,1-2.522,3.4,5.065,5.065,0,0,1-1.472.3L283.336,178.7c-4.766.247-5.95-1.029-6.176-1.873v-.71l1.287-8.6c.34-2.326,3.325-2.347,3.325-2.347s6.032-.072,10.294,0,4.982,2.347,4.982,2.347Z" transform="translate(8.056 4.846)"/><path class="af" d="M269.705,135.913l.371-.875,20.69.3,4.262-.566h.021l.35,1.1-4.426.823-21.452-.35.185-.432Z" transform="translate(7.832 3.955)"/><path class="ag" d="M294.489,135.067l-4.262.566L287.86,124.64h3.479l2.717,10.448h.432Z" transform="translate(8.37 3.657)"/><path class="y" d="M293.563,195.81l.453,6.4-7.792.916-.494-6.464,7.833-.854Z" transform="translate(8.308 5.746)"/><path class="af" d="M294.226,142.54l-37.355,34.833a196.47,196.47,0,0,1-31.817,0c-18.024-1.4-32.116-2.059-39.064-5.733a163.659,163.659,0,0,1,20.443-13.9c8.729-5.054,20.71-11.7,30.469-15.739h0c.618,0,41.421-1.462,57.314.535Z" transform="translate(5.381 4.152)"/><path class="ah" d="M288.382,124.64l2.368,10.993-20.69-.3,2.419-10.118,15.9-.576Z" transform="translate(7.848 3.657)"/><path class="y" d="M285.469,190.31l.494,6.516-7.988.875a2.9,2.9,0,0,0-.082-.844v-.35h0l-.443-5.383,8.06-.8Z" transform="translate(8.065 5.585)"/><path class="x" d="M283.347,178.393v6.413c0,1.657-.453,2.645-2.872,2.645a2.81,2.81,0,0,1-2.759-2.419l-.412-5.888-.175-2.625c.268.854,1.441,2.12,6.176,1.873Z" transform="translate(8.055 5.18)"/><path class="ai" d="M278,197.524h0l-.093-1.194v.35c0,.278.062.556.082.844Z" transform="translate(8.078 5.761)"/><path class="aj" d="M266.152,189.58a1.76,1.76,0,0,1,.875,1.585,1.472,1.472,0,0,1-.875,1.462l-2.542.124v-3.17Z" transform="translate(7.659 5.563)"/><path class="aa" d="M165.26,216.142c.1,0,.206.144-6.464-.71-3.17-.412-8.029-1.235-12.723-2.059l.247-1.287a68.97,68.97,0,0,0,8.8,1.029c7.205.35,9.46-.247,11.879-3.325s7.092-9.614-1.41-10.067-15.358-.854-20.288-1.565a71.568,71.568,0,0,1-11.024-2.81,25.138,25.138,0,0,0-1.719,7.1l-.978-.072c.237-4.22.474-9.11.484-9.264h0a11.745,11.745,0,0,1,4.478-4.261c7.041-3.325,51.045-18.024,51.045-18.024,6.948,3.623,21.04,4.334,39.064,5.733a196.471,196.471,0,0,0,31.817,0,2.449,2.449,0,0,1-.5.782c-.648.731-2.059,1.863-5.239,2.851-5.147,1.606-42.3,12.28-42.3,12.28s-13.937,3.273-16.068,7.8a2.922,2.922,0,0,0-.227.7v.1l-4.323-.093c-15-.36-20.432,13.382-20.432,13.382a4.745,4.745,0,0,1-.648.7,4.622,4.622,0,0,1-3.459,1.029Z" transform="translate(3.784 5.013)"/><path class="aa" d="M227.169,216.848c.463-.144.916-.3,1.348-.463a42.391,42.391,0,0,0-2.9,6.176c-1.338,3.572-2.573,7.288-3.675,10.293,0,0-4.581.422-19.383,1.173s-30.057-1.513-51.652-5.589c-19.908-3.757-25.734-7.391-26.578-7.926l-.1-.072c-1.513-1.029-2.81-12.352-1.029-12.99a3.8,3.8,0,0,0,.8.772c2.213,1.76,9.974,6.1,34.133,8.585,29.944,3.088,53.032,5.208,68.966,0Z" transform="translate(3.513 6.087)"/><path class="aj" d="M221.881,232.491c-1.2,3.345-2.223,5.836-2.965,6.31a15.77,15.77,0,0,1-3.644,1.554c-3.613,1.112-9.995,2.254-20.319,1.668-3.366-.2-7.627-.515-12.352-1.029-11.076-1.194-24.941-3.417-36.912-7.391h0c-7.36-2.44-14-5.548-18.847-9.48,0,0-1.029-2.882-2.522-3.953.793.535,6.67,4.117,26.578,7.926,21.616,4.117,36.851,6.341,51.653,5.589s19.383-1.173,19.383-1.173Z" transform="translate(3.571 6.461)"/><path class="ag" d="M205.336,200.531s5.033-.607,3.829,2.717-3.829,10.293-3.829,10.293-.35,1.76-3.479,1.76-33.567-1.76-33.567-1.76,5.435-13.793,20.432-13.381l4.323.093c11,.268,12.29.36,12.29.36Z" transform="translate(4.861 5.873)"/><path class="y" d="M181.953,240.6h0s-5.435,4.6-18.724,3.994A21.287,21.287,0,0,1,145,233.21c11.971,3.973,25.837,6.176,36.912,7.391Z" transform="translate(4.178 6.843)"/><path class="af" d="M165.563,199.023c8.5.453,3.819,7,1.41,10.067s-4.684,3.675-11.879,3.325a68.969,68.969,0,0,1-8.8-1.029c-5.97-1.1-11.9-3.006-13.155-5.579a8.234,8.234,0,0,1-.607-4.014,25.137,25.137,0,0,1,1.719-7.1,71.562,71.562,0,0,0,11.024,2.81c4.931.71,11.786,1.112,20.288,1.565Z" transform="translate(3.811 5.713)"/><path class="aa" d="M146.34,211.146l-.247,1.287c-6.423-1.184-12.527-2.44-13.536-2.79a2.81,2.81,0,0,1-1.143-.669,1.554,1.554,0,0,1-.494-1.132.494.494,0,0,0,.206-.206c.113-.216.288-3.006.473-6.176l.978.072a8.235,8.235,0,0,0,.607,4.014c1.256,2.573,7.205,4.478,13.155,5.579Z" transform="translate(3.765 5.912)"/><path class="ag" d="M132.2,192.431c0,.206-.247,5.1-.484,9.264-.185,3.15-.36,5.939-.474,6.176a.494.494,0,0,1-.206.206c-.391.2-1.143-.062-1.966-.515a7.493,7.493,0,0,1-2-2.244c.679-2.831,2.316-8.688,5.147-12.918Z" transform="translate(3.652 5.646)"/><path class="aj" d="M123.8,208.454c2.3,1.822,10.1,6.176,34.287,8.657,16.84,1.729,31.508,3.16,43.984,3.16,9.717,0,18.106-.865,25.147-3.15l-.185-.576c-6.948,2.254-15.275,3.088-24.962,3.088-12.424,0-27.092-1.42-43.922-3.16-24.138-2.481-31.848-6.825-33.968-8.523l-.371.474Z" transform="translate(3.556 6.102)"/><path class="aj" d="M164.26,215.186a3.66,3.66,0,0,0,.5,0,4.91,4.91,0,0,0,3.2-1.173l-.4-.453a4.282,4.282,0,0,1-2.8,1.029h-.422Z" transform="translate(4.743 6.267)"/><path class="aj" d="M131.19,209.011a3.263,3.263,0,0,0,1.256.741h0c.278.093.844.237,1.668.422,2.46.566,7.1,1.493,11.92,2.378s9.552,1.688,12.733,2.059c2.44.309,3.973.494,4.931.6a15.192,15.192,0,0,0,1.523.134h.206l.093-.072a.319.319,0,0,0,.082-.206.277.277,0,0,0,0-.154.247.247,0,0,0-.093-.093h-.144l-.144.587h0l.072-.288-.1.278.062-.165-.082.154h0l.062-.165-.082.154.134-.237-.185.2h.051l.134-.237-.185.2.2-.216-.257.154.062.062.2-.216-.257.154.257-.154h-.329a.4.4,0,0,0,0,.154l.257-.154h0l-.216-.2a.268.268,0,0,0-.082.2h.3l-.216-.2.216.185-.093-.278a.371.371,0,0,0-.124.093l.216.185-.093-.278.062.185v-.185h0l.062.185v-.185h0a10.159,10.159,0,0,1-1.451-.134c-.947-.134-2.491-.288-4.931-.6-3.15-.412-8.008-1.235-12.692-2.059-3.212-.6-6.341-1.2-8.8-1.709l-3.088-.669c-.8-.185-1.379-.329-1.606-.4h0a2.553,2.553,0,0,1-1.029-.587l-.432.422Z" transform="translate(3.773 6.122)"/><path class="aj" d="M255.956,176.91c-.607.679-2,1.791-5.1,2.769-2.563.8-13.145,3.87-23.068,6.742l-13.382,3.839-4.282,1.235-1.606.453.082.3-.072-.3a70,70,0,0,0-7.267,2.213,35.939,35.939,0,0,0-5.476,2.5,8.523,8.523,0,0,0-3.52,3.253l.546.257a8.008,8.008,0,0,1,3.294-3,42.058,42.058,0,0,1,8.08-3.366c1.276-.412,2.4-.731,3.2-.947l.957-.247.34-.082h0s9.264-2.666,19.228-5.538,20.5-5.939,23.078-6.742c3.17-1.029,4.673-2.162,5.373-2.944l-.453-.4Z" transform="translate(5.565 5.191)"/><path class="y" d="M295.674,178.36l22.2-3.088.381-33.011h0s-3.747-.391-12.435.813a25.435,25.435,0,0,0-10.715,4.354,25.981,25.981,0,0,0-4.117,3.448l.226.206-.226-.216-29.851,31.57,13.443-1.606,3.253-.381-.072-.607-3.253.391-11.786,1.4,28.708-30.355h0c.329-.36,6.176-6.444,14.411-7.6,4.334-.6,8.893-1.029,12.352-1.41,1.74-.154-1.029.082,0,0,.515,0-2.532-.731-2.254-.751a17.434,17.434,0,0,1,2.254.751h0l-.381,33.011-22.275,2.47.072.6Z" transform="translate(7.586 4.153)"/><path class="aj" d="M277.56,196.362v.35h0a8.335,8.335,0,0,0,.082.844h0c.741,8.039.834,21.822.834,27.72v3.16l38.508-6.176v-.607l-38.209,6.176v.3h.309v-2.82c0-5.908-.093-19.681-.844-27.792h0a3.386,3.386,0,0,0-.072-.854h0v-.35l-.6.062Z" transform="translate(8.068 5.761)"/><path class="aj" d="M274.11,180.256a81.868,81.868,0,0,1,3.541,16.572l.6-.062a82.941,82.941,0,0,0-3.562-16.706l-.576.2Z" transform="translate(7.967 5.284)"/><path class="aj" d="M278.126,196.2l-.01-.01-.535.268.01.021" transform="translate(8.068 5.757)"/><path class="af" d="M316.153,65.991v30.8a1.8,1.8,0,1,1-3.6,0v-30.8a1.8,1.8,0,0,1,3.6,0Z" transform="translate(9.095 1.884)"/><path class="ag" d="M293.135,131.91l.772,2.965-.937.165.165-3.129Z" transform="translate(8.52 3.871)"/><path class="y" d="M275.67,133.111H274.64v-4.385h-1.07v-.906h3.17v.906h-1.07v4.385Z" transform="translate(7.951 3.751)"/><path class="y" d="M277.565,132l-.432,1.153H276l2.059-5.425h.8l2.007,5.425h-1.06l-.412-1.112Zm.885-2.769h0l-.576,1.925h1.215l-.669-1.925Z" transform="translate(8.022 3.748)"/><path class="y" d="M280.928,127.82h1.215l.844,1.647.772-1.647h1.225l-1.472,2.491,1.626,2.8h-1.194l-1.071-1.935-1.009,1.935h-1.2l1.688-2.8-1.421-2.491Z" transform="translate(8.159 3.751)"/><path class="y" d="M286.359,133.111H285.33V127.82h1.029v5.291Z" transform="translate(8.296 3.751)"/><path class="ak" d="M319.391,26.551c-.319-14.7-16.109-11.261-16.109-11.261l-13.639,1.77s-35.8,2.059-45.96,3.438a13.145,13.145,0,0,0-8.163,3.973c.3-.3,2.306-1.956,9.995-3.088,8.482-1.256,57.365-4.066,57.365-4.066s10.005-1.359,10.211,11.982-.206,214.608-.206,214.608-.1,11.045-10.633,10.417-58.889-7.205-58.889-7.205-4.591-.453-7-2.3h-.237a11.106,11.106,0,0,0,5.363,4.045s43,5.939,60.659,7.813,17.242-15.162,17.242-15.162S319.7,41.25,319.391,26.551Zm-.937,71.684a1.8,1.8,0,1,1-3.6,0v-30.8a1.8,1.8,0,1,1,3.6,0Z" transform="translate(6.834 0.438)"/><path class="af" d="M313.18,29.193c-.206-13.381-10.211-11.982-10.211-11.982s-48.884,2.81-57.365,4.066c-7.689,1.132-9.7,2.79-10.005,3.088h0a12.26,12.26,0,0,0-3.088,6.176V148.123a2.79,2.79,0,0,1,0,2.059v.175a2.778,2.778,0,0,1,.875,0c0-51.93.062-110.953.062-110.953s-1.132-7.669,7.5-8.914l60.5-5s7.35-1.41,7.658,6.722S309.9,239.2,309.9,239.2s-.155,7.35-7.967,6.567c-4.282-.432-22.79-2.831-38.652-4.91a2.46,2.46,0,0,1-1.287.473c-8.564.659-17,2.3-25.538,3.335,2.409,1.843,7,2.3,7,2.3s48.379,6.567,58.889,7.205,10.633-10.417,10.633-10.417.422-201.268.206-214.608" transform="translate(6.746 0.504)"/><path class="y" d="M254.379,202.775c20.134,3.428,19.331,31.416,19.331,31.416l-5.373-1.74c.947-14.349-5.631-26.619-17.612-27.936-12.5-1.379-24.272,10.232-25.939,25.373s4.529,29.12,17.036,30.51c-25.075,1.348-29.141-19.558-29.141-19.558a15.768,15.768,0,0,0,3.644-1.554c.741-.473,1.76-2.965,2.965-6.31,1.1-3.016,2.337-6.732,3.675-10.293a42.388,42.388,0,0,1,2.9-6.176c4.416-7.617,12.99-16.4,28.513-13.762Z" transform="translate(6.164 5.935)"/><path class="x" d="M250.387,204.453c11.982,1.318,18.528,13.587,17.612,27.936,0,.618-.1,1.246-.165,1.884-1.678,15.142-13.855,27.442-26.351,26.063s-18.7-15.378-17.036-30.51,13.443-26.763,25.939-25.373Zm13.495,29.11c.978-11.508-5.414-21.431-14.277-22.182s-16.83,7.957-17.8,19.465,5.414,21.431,14.267,22.182S262.914,245.061,263.882,233.563Z" transform="translate(6.502 5.996)"/><path class="ah" d="M249.39,211.181c8.863.751,15.255,10.674,14.277,22.182s-8.945,20.216-17.808,19.465-15.245-10.685-14.267-22.182S240.538,210.43,249.39,211.181Zm10.479,23.2a20.444,20.444,0,0,0,0-8.307s-3.088,3.582-4.632,5.435-.35,4.982-.35,4.982l1.606,6.176a45.381,45.381,0,0,0,3.376-8.307Zm-6.3-10.654L258.86,222c-3.4-8.76-10.571-7.7-10.571-7.7s1.657,6.413,2.182,8.379,3.088,1.029,3.088,1.029Zm.556,21.616-3.273-3.417a3.973,3.973,0,0,0-3.016-.762c-1.513.412-6.8,7.36-6.8,7.36s7.957,3.469,13.093-3.181Zm-3.582-13.762a3.366,3.366,0,1,0-3.325,3.891A3.644,3.644,0,0,0,250.543,231.583Zm-5.651-9.5a58.659,58.659,0,0,0,0-7.1s-7.648,2.213-10.87,12.26a37.184,37.184,0,0,0,6.176,0c1.318-.329,4.539-.124,4.735-5.147ZM238.345,246.9s3.829-6.794,3.222-9.923-8.1-5.682-8.1-5.682-1.451,10.582,4.848,15.574Z" transform="translate(6.716 6.196)"/><path class="af" d="M259.215,225.65a20.446,20.446,0,0,1,0,8.307,45.384,45.384,0,0,1-3.376,8.307l-1.606-6.176s-1.215-3.088.35-4.982,4.632-5.435,4.632-5.435Z" transform="translate(7.37 6.622)"/><path class="af" d="M258.381,221.91l-5.291,1.729s-2.563.906-3.088-1.029-2.182-8.379-2.182-8.379,7.205-1.029,10.571,7.7Z" transform="translate(7.195 6.285)"/><path class="af" d="M250.58,241.083l3.273,3.417c-5.147,6.65-13.093,3.181-13.093,3.181s5.291-6.948,6.8-7.36a3.973,3.973,0,0,1,3.016.762Z" transform="translate(6.988 7.051)"/><path class="af" d="M244.791,214.84a58.683,58.683,0,0,1,0,7.1c-.2,5.033-3.417,4.828-4.735,5.147a37.178,37.178,0,0,1-6.176,0c3.222-10.046,10.87-12.259,10.87-12.259Z" transform="translate(6.786 6.304)"/><path class="af" d="M241.485,236.372c.607,3.088-3.222,9.923-3.222,9.923-6.289-4.982-4.879-15.6-4.879-15.6S240.888,233.253,241.485,236.372Z" transform="translate(6.768 6.77)"/><path class="al" d="M301.324,52.909,240.51,58.581V51.952l60.814-5.672v6.629" transform="translate(6.981 1.358)"/><path class="al" d="M290.145,65.379,240.51,70.011V63.382l49.635-4.632v6.629" transform="translate(6.981 1.724)"/><path class="al" d="M273.984,78.3,240.52,81.428l-.01-6.639,33.474-3.119V78.3" transform="translate(6.981 2.103)"/><path class="am" d="M297,76.119,277.05,77.982V71.343L297,69.48v6.639" transform="translate(8.053 2.039)"/><path class="al" d="M285.77,88.689l-45.25,4.22V86.28l45.25-4.22v6.629" transform="translate(6.981 2.408)"/><path class="an" d="M62.514,83.921a.429.429,0,1,1-.772.288.5.5,0,0,1,.2-.659C62.153,83.468,62.411,83.643,62.514,83.921Z" transform="translate(1.733 2.451)"/><path class="an" d="M59.085,85.121a.432.432,0,1,1-.576-.381A.494.494,0,0,1,59.085,85.121Z" transform="translate(1.632 2.486)"/><path class="ao" d="M60.84,81.526a1.606,1.606,0,0,1,1.348-.916,1.626,1.626,0,0,1,.875.165,1.091,1.091,0,0,1,.556.669,8.871,8.871,0,0,0-1.348,0A7.74,7.74,0,0,1,60.84,81.526Z" transform="translate(1.708 2.365)"/><path class="ao" d="M56.77,83.67A1.647,1.647,0,0,1,57.5,82.2a1.678,1.678,0,0,1,.834-.278,1.153,1.153,0,0,1,.823.309,9.264,9.264,0,0,0-1.122.7A8.45,8.45,0,0,1,56.77,83.67Z" transform="translate(1.589 2.404)"/><path class="ap" d="M60.285,84.61a3.088,3.088,0,0,1,0,2.841c-.793,1.462,1.215,1.523,2.285,1.544" transform="translate(1.687 2.483)"/><path class="aq" d="M62.42,90.108A4.426,4.426,0,0,0,65,88.41s.679,1.843-.648,2.573c-1.029.566-1.853-.772-1.853-.772Z" transform="translate(1.755 2.594)"/><path class="ae" d="M62.44,90.235l.185.206a2.44,2.44,0,0,0,2.244-2.12A4.117,4.117,0,0,1,62.44,90.235Z" transform="translate(1.755 2.592)"/><ellipse class="ar" cx="26.856" cy="4.941" rx="26.856" ry="4.941" transform="translate(46.815 257.288) rotate(-1.33)"/><ellipse class="ar" cx="17.499" cy="3.222" rx="17.499" ry="3.222" transform="translate(16.651 237.891) rotate(-1.33)"/><path class="as" d="M79.42,183.06s-3.325-5.6-8.08-7.35" transform="translate(2.017 5.156)"/><path class="at" d="M60.859,166.825a1.74,1.74,0,0,1,2.337,2.244,9.89,9.89,0,0,0-.432,1.215c-.937,3.335-2.265,6.176-4.488,7.082-6.238,2.656-2.059,6.485-6.753,9.758-2.542,1.76-4.117,3.139-4.859,6.073-.906,3.726-1.76,4.91-4.859,6.608-.607.329-4.5-.638-6.392,3.088-2.6,5.147-3.273,15.574-3.242,17.139H30.74a69.5,69.5,0,0,1,5.064-24.8C40.828,183.479,50.277,171.652,60.859,166.825Z" transform="translate(0.825 4.891)"/><path class="at" d="M.08,140s-.412,13.855,5.929,18.713,3.5,6.979,3.613,9.8a10.108,10.108,0,0,0,4.622,7.916c2.841,1.7-1.287,6.7,7.5,13.031s5.929,24.55,5.075,32.888l1.791.175s1.873-23.2-1.4-37.324c-3.345-14.411-7.3-24.869-16.675-33.464S.08,140,.08,140Z" transform="translate(-0.075 4.108)"/><path class="at" d="M47.448,129S29.455,141.177,29.64,169.289s0,52.5,0,52.5h3.191s-2.44-29.233-1.5-36.027,3.232-6.619,7.205-9-.659-7.113,1.966-10.118,4.117-1.307,2.81-8.811,5.569-7.113,5.878-13.484S46.48,135.763,47.448,129Z" transform="translate(0.793 3.785)"/><g class="au" transform="translate(30.431 132.785)"><path class="av" d="M47.537,129.1a19.094,19.094,0,0,0-4.55,12.455c0,7.72-1.884,6.9-5.26,10.839s-1.884,4.5-2.131,10.674-5.342,10.51-5.589,17.159c-.206,5.775-2.645-.144-3.294-1.8a1.677,1.677,0,0,1-.093-.844L32.292,132.6a1.719,1.719,0,0,1,.813-1.266l9.264-5.723Z" transform="translate(-29.728 -129.099)"/></g><g class="aw" transform="translate(0 144.108)"><path class="ax" d="M.082,140.063s1.544,8.091,5.476,12.424,7.874,4.344,8.554,9.264-.329,6.536,3.932,10.221c2.532,2.2,2.306,3.613,2.985,7.957s7.494,10.18,8.235,16.13c.36,2.862,1.513-5.281-.226-19.558-1.091-9.007-5.764-23.737-6.825-27.02a1.76,1.76,0,0,0-.844-1.029L1.225,137.87,0,139.63" transform="translate(-0.077 -140.062)"/></g><g class="ay" transform="translate(31.565 171.555)"><path class="az" d="M66.083,165.481a14.761,14.761,0,0,0-10.87,9.264c-3.335,8.183-4.735,5.373-6.783,7.669s-2.059,7.113-6.825,9.768c-5.61,3.088-6.608,2.9-8.523,10.293l-.741,3.459a1.75,1.75,0,0,0,1.544,2.059l6.907.628a1.739,1.739,0,0,0,1.441-.556l25.023-27.494a1.657,1.657,0,0,0,.432-.916l1.945-13.289a1.74,1.74,0,0,0-2.645-1.719l-.679.422" transform="translate(-30.694 -166.731)"/></g><path class="ba" d="M37.915,235.28H27.9a8.163,8.163,0,0,1-7.988-6.536l-3.459-17.118a6.042,6.042,0,0,1,5.919-7.205H44.421a5.25,5.25,0,0,1,5.147,6.289L45.9,228.785A8.142,8.142,0,0,1,37.915,235.28Z" transform="translate(0.403 5.999)"/><g class="bb" transform="translate(16.613 210.377)"><path class="bc" d="M43.454,204.492c-.834,1.822-7.648,15.5-26.454,21.9l.6,7.524a8.142,8.142,0,0,0,4.364,6.588c3.407,1.76,7.844,4.025,8.472,4.117,1.029.206,21.225-4.786,21.616-5.414S56,217.369,56,216.741s0-12.28-.422-12.9c-.288-.443-6.176-2.193-9.666-3.212a1.74,1.74,0,0,0-2.151,1.966h0a1.739,1.739,0,0,1,0,.566l-.165.916a1.462,1.462,0,0,1-.144.412Z" transform="translate(-16.191 -204.492)"/></g><path class="bd" d="M47.179,105.233l-1.1,1.338H45.11c.072,2.5.237,6.423.484,7.772s.484,2.182.484,2.182,2.244,18.312,9.079,21h.154c.618-3.376,1.307-7.35,1.554-10.417l-.968-.062a28.9,28.9,0,0,0-2.141-3.778c-.247-.391-.494-.823-.721-1.266s-.4-.782-.6-1.184h0c-.947-2-1.616-3.942-1.616-3.942a5.394,5.394,0,0,1,.237-1.832,6.876,6.876,0,0,0,.062-2.131,5.472,5.472,0,0,0-.051-.926,2.059,2.059,0,0,1,.175-.865h0a3.767,3.767,0,0,1,.968-1.266s1.287-.731,2.254-1.441a7.2,7.2,0,0,0,.69-.576,1.75,1.75,0,0,0,.2-.2c.679-.823-.35-1.029-.5-1.112a.947.947,0,0,0,.268-.268h0a1.39,1.39,0,0,0,.226-1.029H52.768l-3.366.8-1.029-1.966-.474.237-.659.8-.093.124Z" transform="translate(1.247 3.054)"/><path class="bd" d="M45.255,103.238a15.718,15.718,0,0,0-.154,2.656v.844h.968l1.1-1.338.093-.124v-1.709l2-2.862.134-.2s.371-.587-.525-1.029a.515.515,0,0,0-.412,0c-1.029.34-3.026,2.923-3.026,2.923a5.248,5.248,0,0,0-.185.9Z" transform="translate(1.246 2.918)"/><path class="z" d="M42.67,99l2.656,4.21a5.251,5.251,0,0,1,.185-.9s1.945-2.584,3.026-2.923l-.381-.535Z" transform="translate(1.175 2.901)"/><path class="be" d="M50.9,111.846a5.72,5.72,0,0,0,.051.926,7.5,7.5,0,0,0,1.266,1.575,4.56,4.56,0,0,0,1.369.937l.134-.051c.144.453.319.937.525,1.42.854,2.059,2.625,4.807,2.532,8.749a10.5,10.5,0,0,1-.082,1.575c-.247,3.088-.937,7.041-1.554,10.417-.165.916-.329,1.781-.463,2.573-.772,4.261-.69,10.18-.937,12.9S53,166.051,53,166.051a7.082,7.082,0,0,0,.813,3.016,16.346,16.346,0,0,0,5.311,6.011s3.253-3.942,7.061-8.4c3.489-4.117,7.432-8.574,9.83-10.911,5.013-4.879,8.358-8.41,9.964-8.235a2.923,2.923,0,0,1,2.234,1.616,63.961,63.961,0,0,1-1.122-7.741c-.185-3.284-.885-9.388-.885-9.388a50.667,50.667,0,0,1-8.327-3.088A53.526,53.526,0,0,1,63.4,118.639s-.618-.247-2.059-.741l-.576-.185h0a6.279,6.279,0,0,1-1.4-.484,10.11,10.11,0,0,0-1.853-.432,4.045,4.045,0,0,1-1.987-2.542c-.093-.36-.2-.782-.288-1.2-.278-1.153-.5-2.316-.5-2.316v-.144l-3.582.453h0a2.059,2.059,0,0,0-.175.865Z" transform="translate(1.417 3.245)"/><path class="af" d="M54.807,73.836s-2.234,6.866-1.987,8.657,2.357,2.532,3.088,5.383-1.853,5.507-2.059,7.3,2.131,3.788,2.131,3.788-.371-3.829.618-5.25c.71-1.029,1.029-3.654,1.029-5.569a14.225,14.225,0,0,0-.062-1.8c-.185-1.359-1.729-3.026-1.853-5.311s-.875-4.581,2.223-5.013c0,0,1.729-1.029,3.716,2.347s2.841,3.839,6.866,4.581,5.445,1.987,5.445,1.987a14.781,14.781,0,0,0,.391,2.892,2.831,2.831,0,0,0,3.448-.669c1.606-1.74,1.729-4.117-1.029-5.826,0,0,1.853-3.459-.556-4.941,0,0,2.542-7.494-6.68-10.767,0,0-8.41-1.925-8.842,2.532,0,0-5.2,1.987-5.878,5.641Z" transform="translate(1.473 1.914)"/><path class="ah" d="M43.092,98.257l-.422.813,5.486-.185.4.576a.515.515,0,0,1,.412,0c.9.463.525,1.029.525,1.029l-.134.2h.062L50.8,103l.515-.268h.422L48.733,98l-5.641.268Z" transform="translate(1.175 2.876)"/><path class="z" d="M47.21,103.5v1.709l.659-.8.474-.237L50.648,103l-1.379-2.316-.062-.041-2,2.862Z" transform="translate(1.308 2.953)"/><path class="bd" d="M50.616,102.938l-2.306,1.173,1.029,1.966s2.779-1.3,3.953-1.884a.916.916,0,0,0,.329-1.523H51.13Z" transform="translate(1.341 3.013)"/><path class="be" d="M49.281,106.261l3.366-.8h2.584A1.39,1.39,0,0,1,55,106.488h0s5.383,2.059,6.176,2.419a28.143,28.143,0,0,1,3.253,4.56l.721-.329a27.3,27.3,0,0,1-1.925-12.98c.1-.978.237-1.709.319-2.12a2.789,2.789,0,0,1,.35-.937,40.226,40.226,0,0,0-6.258,1.575s-4.694,2.234-6.176,4.117h2.059a.916.916,0,0,1-.329,1.523c-1.173.587-3.953,1.884-3.953,1.884Z" transform="translate(1.368 2.849)"/><path class="z" d="M51.071,111.077l3.582-.453,1.029-.134-1.431-2.12c-.968.71-2.254,1.441-2.254,1.441a3.767,3.767,0,0,0-.968,1.266Z" transform="translate(1.421 3.18)"/><path class="bd" d="M52.181,114.24v6.33h0c.2.4.381.8.6,1.184s.474.875.721,1.266A28.9,28.9,0,0,1,55.64,126.8l.968.062c0-.566.072-1.091.082-1.575.093-3.942-1.678-6.66-2.532-8.749-.206-.484-.381-.968-.525-1.42l-.134.051a4.561,4.561,0,0,1-1.369-.937Z" transform="translate(1.453 3.352)"/><path class="x" d="M53.73,167.468s-.257,2.923,1.915,10.16,4.642,13.731,5.075,17.128c.062.535.1.947.144,1.307l1.235-.134a26.145,26.145,0,0,1,.721-7.905c1.112-4.962,3.284-22.944,3.284-22.944-3.809,4.457-7.061,8.4-7.061,8.4A16.346,16.346,0,0,1,53.73,167.468Z" transform="translate(1.499 4.844)"/><path class="ah" d="M54.2,108.356l1.431,2.12.432-.9-1.173-1.8A7.206,7.206,0,0,1,54.2,108.356Z" transform="translate(1.514 3.163)"/><path class="bd" d="M59.953,115.808a2.923,2.923,0,0,0,.648,2h0l.576.185c1.482.494,2.059.741,2.059.741A53.525,53.525,0,0,0,77.72,129.024a50.663,50.663,0,0,0,8.327,3.088,10.911,10.911,0,0,0,4.292.484c.865-.185,2.9-3.037,3.52-6.125s0-16.892,0-16.892-.185-4.117-2.059-4.21-7.205,3.088-7.916,4.889h0a33.485,33.485,0,0,0,.978,11.2c-1.256-.113-2.728-.2-4.509-.463-2.965-.422-4.7-1.41-8.235-2.841s-6.238-2.542-6.238-2.542-.679-1.029-1.534-2.388a28.142,28.142,0,0,0-3.294-4.529c-.741-.381-6.176-2.419-6.176-2.419h0a.947.947,0,0,1-.268.268c.154.1,1.184.288.5,1.112a1.749,1.749,0,0,1-.2.2l1.122,1.8-.432.9-1.029.134v.144s.226,1.163.5,2.316a22.047,22.047,0,0,0,2.059,2.419,8.749,8.749,0,0,0,2.79.247Z" transform="translate(1.525 3.092)"/><path class="bf" d="M55.06,112.92c.093.422.2.844.288,1.2a4.045,4.045,0,0,0,1.987,2.542,10.11,10.11,0,0,1,1.853.432,6.28,6.28,0,0,0,1.4.484,2.923,2.923,0,0,1-.648-2,8.749,8.749,0,0,1-2.79-.247,22.046,22.046,0,0,1-2.059-2.419Z" transform="translate(1.539 3.314)"/><path class="bd" d="M74.3,87.562a14.781,14.781,0,0,1-.391-2.892s-1.42-1.246-5.445-1.987-4.889-1.173-6.866-4.611-3.716-2.347-3.716-2.347c-3.088.432-2.347,2.717-2.223,5.013s1.668,3.953,1.853,5.311a14.225,14.225,0,0,1,.062,1.8,15.161,15.161,0,0,0,1.925,1.976c.854.679.854.618,1.544,2.3s2.47,3.335,4.509,2.223c0,0,3.778-2.223,4.581-3.531,0,0,.34,8.132-7.061,9.974a27.3,27.3,0,0,0,1.925,12.98S77.343,95.4,77.744,93.419c0,0-1.678-2.47-2.728-4.117a6.113,6.113,0,0,1-.721-1.8Z" transform="translate(1.551 2.217)"/><path class="aj" d="M61.233,249.8c-1.493,1.41-2.8,2.985-1.915,3.973,1.143,1.246,5.085,1.3,7.205.576.144-.9,1.194-2.162,2.337-3.737a2.829,2.829,0,0,0,.2-.288c1.534-2.388,2.172-7,2.728-11.148.082-.669.154-1.379.216-2.059-.154.165-1.688,1.935-2.944,6.238-1.307,4.519-1.987,6.372-3.345,7.205s-4.416.71-4.467-.7Z" transform="translate(1.655 6.958)"/><path class="x" d="M61.9,195.051l-1.235.134c.175,1.9,0,2.131.721,10.293.865,9.707.443,23.068.443,23.068s.607.123,1.585.257a34.36,34.36,0,0,0,8.317.237c-1.2-4.282-8.235-29.244-9.11-31.055a8.338,8.338,0,0,1-.721-2.975Z" transform="translate(1.703 5.722)"/><path class="z" d="M62.582,188.57a26.145,26.145,0,0,0-.721,7.905,8.337,8.337,0,0,0,.721,2.975c.906,1.812,7.905,26.763,9.11,31.055.113.4.165.628.165.628l.371.175a9.357,9.357,0,0,0,7.535,0l.391-.185s.741-10.026.618-16.336-3.592-19.177-3.716-21.287.875-8.914,6.176-20.659,4.642-24.7,4.642-24.7a2.923,2.923,0,0,0-2.193-1.647c-1.606-.185-4.951,3.345-9.964,8.235-2.4,2.337-6.341,6.845-9.83,10.911,0,0-2.172,17.983-3.284,22.944Z" transform="translate(1.737 4.298)"/><path class="bf" d="M62.6,248.786c-.453.391-.957.834-1.431,1.287,0,1.41,3.088,1.493,4.467.7s2.059-2.666,3.345-7.205c1.256-4.3,2.79-6.073,2.944-6.238h0c.34-3.984.319-8.41.319-8.41h0l-.371-.175a1.859,1.859,0,0,0-.165-.628,34.358,34.358,0,0,1-8.317-.237,36.3,36.3,0,0,1,.813,8.1C64.207,240.86,64.464,247.17,62.6,248.786Z" transform="translate(1.718 6.687)"/><path class="bf" d="M63.169,98.224c-.082.412-.216,1.143-.319,2.12,7.4-1.843,7.061-9.974,7.061-9.974-.8,1.307-4.581,3.531-4.581,3.531s.556,1.585-.268,2.265c-.587.453-1.173.566-1.565,1.215a2.79,2.79,0,0,0-.35.937Z" transform="translate(1.767 2.652)"/><path class="be" d="M83.609,110.7h0c.679-1.8,5.991-5.013,7.916-4.889s2.059,4.21,2.059,4.21c.185-3.9-1.42-8.544-2.9-12.126s-2.717-3.592-4.642-3.716-3.088.432-5.631,0-2.964-1.235-2.964-1.235c-.432,1.976-12.754,20.35-12.754,20.35l-.69.3c.854,1.307,1.534,2.388,1.534,2.388s2.717,1.122,6.238,2.542,5.27,2.419,8.235,2.841c1.781.268,3.253.35,4.509.463a33.485,33.485,0,0,1-.926-11.158Z" transform="translate(1.801 2.727)"/><path class="aa" d="M66.3,254.451a.875.875,0,0,0,.484.968c1.3.741,4.57.741,7.669.494s4.642-1.112,4.889-3.644.618-4.828.618-4.828l.309,4.014h1.42a55.013,55.013,0,0,1,0-7.205c.319-1.606,1.431-3.953,1.173-5.147s-2.172-2.862-2.7-5.394c.124.566.648,3.4-.515,4.838-1.3,1.606-1.853.185-2.059,4.828s-.9,8.235-3.016,8.471-5.754.587-5.764-1.338a2.834,2.834,0,0,1-.2.288c-1.143,1.575-2.193,2.841-2.337,3.737Z" transform="translate(1.868 6.858)"/><path class="bd" d="M71.488,239.42c-.556,4.117-1.194,8.76-2.728,11.148,0,1.925,3.634,1.534,5.764,1.338s2.831-3.829,3.016-8.472.741-3.222,2.059-4.828c1.163-1.441.638-4.272.515-4.838a.665.665,0,0,0,0-.1A30.07,30.07,0,0,1,79.6,228.9a9.357,9.357,0,0,1-7.535,0h0s0,4.426-.319,8.41h0c-.062.721-.134,1.431-.216,2.059Z" transform="translate(1.941 6.717)"/><path class="af" d="M84.846,101.674v.134a47.477,47.477,0,0,0-1.215,6.773.372.372,0,1,1-.741-.072,47.153,47.153,0,0,1,1.276-7.041.375.375,0,0,1,.721.206Z" transform="translate(2.355 2.97)"/><path class="bf" d="M57.891,111.279l-1.873,1.451a.381.381,0,0,1-.525-.072.36.36,0,0,1,.072-.515l1.894-1.462a.375.375,0,1,1,.453.6" transform="translate(1.549 3.246)"/><path class="bf" d="M49.372,106.526l-1.544,1.915a.371.371,0,0,1-.576-.463l1.544-1.925a.381.381,0,0,1,.525,0,.36.36,0,0,1,.051.525" transform="translate(1.308 3.109)"/><path class="bf" d="M45.772,106.322l1.1-1.318a.371.371,0,1,1,.566.473l-1.091,1.338a.371.371,0,0,1-.525,0,.36.36,0,0,1,0-.515" transform="translate(1.265 3.077)"/><path class="bf" d="M54.664,107.019a3.17,3.17,0,0,1-1.359.247V106.9l.124.35-2.059.71-1.781,2.378a.381.381,0,0,1-.525.072.36.36,0,0,1-.072-.515l1.853-2.47a.391.391,0,0,1,.185-.134l2.151-.741h.124a2.46,2.46,0,0,0,1.029-.175.371.371,0,0,1,.494.175.381.381,0,0,1-.175.494Z" transform="translate(1.358 3.12)"/><path class="bf" d="M53.149,121.385a10.8,10.8,0,0,0,.71,1.235h0a30.222,30.222,0,0,1,2.162,3.839.36.36,0,0,1-.2.484.371.371,0,0,1-.484-.2h0a29.226,29.226,0,0,0-2.059-3.716h0c-.247-.391-.5-.834-.741-1.287a.36.36,0,0,1,.154-.5.381.381,0,0,1,.5.154Z" transform="translate(1.463 3.557)"/><path class="af" d="M53.322,112.439a1.162,1.162,0,0,1,0,.124,9.774,9.774,0,0,0,.412,1.647.371.371,0,0,1-.257.453.381.381,0,0,1-.463-.257c-.3-1.029-.443-1.822-.443-1.822a.371.371,0,0,1,.3-.443.391.391,0,0,1,.432.3Z" transform="translate(1.465 3.291)"/><path class="an" d="M61.866,83.644a.525.525,0,0,1-.288.679c-.247.062-.5-.154-.576-.473a.525.525,0,0,1,.288-.679C61.536,83.109,61.794,83.325,61.866,83.644Z" transform="translate(1.712 2.44)"/><path class="an" d="M58.025,84.534a.525.525,0,0,1-.288.679c-.237.062-.494-.154-.576-.473s0-.628.3-.679S57.964,84.215,58.025,84.534Z" transform="translate(1.6 2.467)"/><path class="ao" d="M60.34,80.873a1.822,1.822,0,0,1,1.565-.8,1.75,1.75,0,0,1,.9.268,1.184,1.184,0,0,1,.535.762,7.38,7.38,0,0,0-1.451-.144A10.859,10.859,0,0,1,60.34,80.873Z" transform="translate(1.694 2.35)"/><path class="ao" d="M55.73,82.7a1.812,1.812,0,0,1,.968-1.462,1.76,1.76,0,0,1,.916-.206,1.235,1.235,0,0,1,.844.4,7.34,7.34,0,0,0-1.338.587,12.6,12.6,0,0,1-1.39.679Z" transform="translate(1.558 2.378)"/><path class="bg" d="M59.28,84a3.345,3.345,0,0,1-.71,2.985c-1.194,1.348.906,1.9,2.059,2.182" transform="translate(1.631 2.465)"/><path class="bh" d="M59.291,84a2.728,2.728,0,0,1,.288,1.812,2.964,2.964,0,0,1-.329.916,8.635,8.635,0,0,1-.515.721c-.124.2-.144.309-.1.432a1.462,1.462,0,0,0,.474.473c.443.288,1.029.535,1.513.813a4.7,4.7,0,0,1-1.791-.288,1.616,1.616,0,0,1-.844-.648,1.153,1.153,0,0,1,.082-1.215c.216-.329.391-.453.525-.69a3.087,3.087,0,0,0,.36-.679A5.146,5.146,0,0,0,59.291,84Z" transform="translate(1.621 2.465)"/><path class="aq" d="M61.06,90.4a4.766,4.766,0,0,0,2.831-1.77s.69,2.059-.762,2.759c-1.143.6-1.976-.875-1.976-.875A.845.845,0,0,1,61.06,90.4Z" transform="translate(1.715 2.601)"/><path class="ae" d="M61.06,90.4s.1.134.175.247a2.656,2.656,0,0,0,2.656-2.059A4.416,4.416,0,0,1,61.06,90.4Z" transform="translate(1.715 2.6)"/><path class="bh" d="M62.22,91.439s.535-1.318,1.678-.968A1.565,1.565,0,0,1,62.22,91.439Z" transform="translate(1.749 2.653)"/><path class="bi" d="M66.736,86.561a2.059,2.059,0,1,0-2.388,1.606A2.059,2.059,0,0,0,66.736,86.561Z" transform="translate(1.762 2.467)"/></g></svg>