<svg xmlns="http://www.w3.org/2000/svg" xmlns:xlink="http://www.w3.org/1999/xlink" width="408.787" height="283.68" viewBox="0 0 408.787 283.68"><defs><style>.a,.ad{fill:none;}.b{fill:#faba92;}.c{fill:url(#a);}.d{fill:#800b2f;}.e{fill:#760a30;}.f{opacity:0.07;}.ar,.g,.m{fill:#00003f;}.h{fill:#003;}.i{fill:url(#b);}.j{fill:#ed9e77;}.k{opacity:0.33;fill:url(#c);}.l{fill:#aab4ff;}.m{opacity:0.1;}.af,.n{opacity:0.9;}.n{fill:url(#d);}.o{fill:#040442;}.p{fill:#d3cdcd;}.q{fill:#020223;}.r{fill:#eee;}.s{fill:#e0e0e0;}.t{fill:#011615;}.u{fill:#022321;}.v{fill:#ccb1b0;opacity:0.18;}.w{fill:url(#e);}.x{fill:url(#f);}.y{clip-path:url(#g);}.z{fill:#91293c;}.aa{fill:#fffeff;}.ab{fill:#b22442;}.ac{fill:#b85326;}.ad{stroke:#b85326;}.ad,.br{stroke-miterlimit:10;}.ae{fill:#ed8b0a;}.af{fill:url(#h);}.ag{fill:#006;}.ah{fill:#0f3c72;}.ai,.al{fill:#c0706a;}.ai,.ax{opacity:0.44;}.aj{fill:#0e8b21;}.ak{opacity:0.25;}.am,.at{opacity:0.43;}.an{fill:#ba5427;}.ao{fill:#4f2743;}.ap{fill:#1c003f;}.aq{fill:#4b2d1a;}.ar{opacity:0.64;}.as{opacity:0.29;fill:url(#i);}.at{fill:#ff5c50;}.au{opacity:0.31;fill:url(#j);}.av{fill:#f4a77d;}.aw{fill:url(#k);}.ax{fill:url(#l);}.ay{clip-path:url(#m);}.az{clip-path:url(#n);}.ba{fill:url(#o);}.bb{fill:#dd7f5b;}.bc{fill:url(#p);}.bd{fill:#43c59e;}.be{clip-path:url(#q);}.bf{fill:url(#r);}.bg{clip-path:url(#s);}.bh{fill:url(#t);}.bi{clip-path:url(#u);}.bj{fill:url(#v);}.bk{clip-path:url(#w);}.bl{fill:url(#x);}.bm{clip-path:url(#y);}.bn{fill:url(#z);}.bo{fill:#1b2246;}.bp{clip-path:url(#aa);}.bq{opacity:0.6;fill:url(#ab);}.br{fill:#daeaea;stroke:#1b2246;stroke-width:2.67px;}.bs{fill:url(#ac);}.bt{fill:#e91f63;}.bu{fill:url(#ad);}.bv{fill:url(#ae);}</style><radialGradient id="a" cx="-0.264" cy="-8.007" r="3.938" gradientTransform="translate(-0.053 0) scale(0.212 1)" gradientUnits="objectBoundingBox"><stop offset="0" stop-color="#38447a" stop-opacity="0.302"/><stop offset="1" stop-color="#fff" stop-opacity="0.102"/></radialGradient><radialGradient id="b" cx="0.5" cy="-9.999" r="1.045" gradientTransform="translate(0.32 0) scale(0.36 1)" xlink:href="#a"/><linearGradient id="c" x1="16.956" y1="-1.882" x2="17.812" y2="-1.882" gradientUnits="objectBoundingBox"><stop offset="0.22" stop-color="#d9936c" stop-opacity="0"/><stop offset="0.99" stop-color="#a6515a"/></linearGradient><linearGradient id="d" x1="0.001" y1="0.5" x2="1.001" y2="0.5" xlink:href="#c"/><linearGradient id="e" x1="7.74" y1="4.86" x2="8.531" y2="4.355" gradientUnits="objectBoundingBox"><stop offset="0.22" stop-color="#da946c" stop-opacity="0"/><stop offset="0.99" stop-color="#a65059"/></linearGradient><radialGradient id="f" cx="241.467" cy="13.11" r="1.104" gradientTransform="translate(-188.378 0) scale(2.07 1)" gradientUnits="objectBoundingBox"><stop offset="0" stop-color="#ec9981"/><stop offset="0.78" stop-color="#ec9981" stop-opacity="0"/></radialGradient><clipPath id="g"><path class="a" d="M275.062,41.57s2.182,2.4,10.06,3.47c0,0-1.353,5.826-6.546,4.681S273.97,43.545,275.062,41.57Z" transform="translate(-274.324 -41.57)"/></clipPath><linearGradient id="h" x1="5.508" y1="2.683" x2="6.123" y2="2.363" xlink:href="#c"/><linearGradient id="i" x1="-18.559" y1="72.151" x2="-17.539" y2="72.151" xlink:href="#c"/><radialGradient id="j" cx="19.311" cy="2.339" r="0.476" gradientTransform="translate(-4.644 0) scale(1.324 1)" gradientUnits="objectBoundingBox"><stop offset="0" stop-color="#fff"/><stop offset="0.78" stop-color="#ec9981" stop-opacity="0"/></radialGradient><radialGradient id="k" cx="0.963" cy="0.363" r="1.239" gradientTransform="matrix(0.412, 0.901, -0.882, 0.45, 0.887, -0.668)" xlink:href="#f"/><radialGradient id="l" cx="5.267" cy="-2.564" fx="4.713379383087158" r="0.446" gradientTransform="matrix(1.178, -0.262, 0.326, 0.981, -0.128, 1.023)" gradientUnits="objectBoundingBox"><stop offset="0" stop-color="#fff"/><stop offset="0.95" stop-color="#03002a" stop-opacity="0"/></radialGradient><clipPath id="m"><path class="b" d="M226.968,123.078s-.546-2.88-.927-6.9c-.7-7.474-8.674-6.274-11.6-5.292s-2.182,2.182-1.091,2.859c0,0-4.168,1.157-1.091,3.7,0,0-3.491,1.451-.753,3.513,0,0-2.99,1.331-.622,3.208,2.182-.316,2.771.938,2.771.938a4.266,4.266,0,0,0,1.407,3.633,6.874,6.874,0,0,0,4.211,1.56S226.641,128.773,226.968,123.078Z" transform="translate(-209.974 -110.16)"/></clipPath><clipPath id="n"><path class="a" d="M227.141,122.741a50.056,50.056,0,0,0-.938-7.539c-1.3-6.383-8.521-5.292-11.445-4.3s-2.182,2.182-1.091,2.859c0,0-4.168,1.157-1.091,3.7,0,0-3.491,1.451-.753,3.513,0,0-11.238.4-.622,3.208,2.182-.316,2.771.938,2.771.938a4.266,4.266,0,0,0,1.407,3.633,6.874,6.874,0,0,0,4.211,1.56S226.814,128.426,227.141,122.741Z" transform="translate(-206.639 -110.144)"/></clipPath><linearGradient id="o" x1="8.73" y1="23.076" x2="7.571" y2="22.468" gradientUnits="objectBoundingBox"><stop offset="0.22" stop-color="#d9936c" stop-opacity="0"/><stop offset="0.98" stop-color="#975a40"/></linearGradient><radialGradient id="p" cx="-4.236" cy="-66.591" r="6.732" gradientTransform="translate(-2.798 19.073) scale(0.081 1.389)" xlink:href="#a"/><clipPath id="q"><path class="a" d="M302.75,194.711s22.094,16.824,27.484,21.6c0,0,2.117.906,5.335,12.209l.72-.175s-1.276-7.637-5.215-12.187a23.37,23.37,0,0,0-2.084-8.227c-1.833-3.513-3.688-2.826-6.274-6.164s-2.3-4.6-8.227-5.455-3.633-2.651-5.946-3.044a7.146,7.146,0,0,0-5.793,1.44Z" transform="translate(-302.75 -193.146)"/></clipPath><linearGradient id="r" x1="-51.973" y1="-11.84" x2="-51.634" y2="-12.118" gradientUnits="objectBoundingBox"><stop offset="0.32" stop-color="#43c59e" stop-opacity="0"/><stop offset="0.4" stop-color="#42bd98" stop-opacity="0.188"/><stop offset="0.53" stop-color="#41b190" stop-opacity="0.478"/><stop offset="0.67" stop-color="#3fa889" stop-opacity="0.698"/><stop offset="0.79" stop-color="#3fa184" stop-opacity="0.871"/><stop offset="0.9" stop-color="#3e9d81" stop-opacity="0.969"/><stop offset="0.99" stop-color="#3e9c80"/></linearGradient><clipPath id="s"><path class="a" d="M303.729,210.862c4.506-.207,12.9.8,15.591,2.084s6.426,5.608,7.877,6.35,5.455,2.455,6.743,4.07a24.089,24.089,0,0,1,2.422,4.593l-.589.065a14.773,14.773,0,0,0-2.673-4.484,8.554,8.554,0,0,0-6.23-2.619c-1.92.065-6.252,1.495-9.3,1.091s-20.4-6.1-20.4-6.1-2.728-.393-3.328-1.44S299.233,211.081,303.729,210.862Z" transform="translate(-293.802 -210.835)"/></clipPath><linearGradient id="t" x1="-26.328" y1="-5.219" x2="-25.834" y2="-7.2" xlink:href="#r"/><clipPath id="u"><path class="a" d="M356.912,142.75S336.793,156.366,337,187.756s0,58.688,0,58.688h3.568s-2.728-32.732-1.68-40.238,3.611-7.408,8.074-10.059-.731-7.965,2.182-11.314,4.615-1.473,3.142-9.819,6.219-7.965,6.546-15.089S355.865,150.289,356.912,142.75Z" transform="translate(-336.999 -142.75)"/></clipPath><linearGradient id="v" x1="228.319" y1="0.429" x2="227.569" y2="0.538" xlink:href="#r"/><clipPath id="w"><path class="a" d="M305.82,154.37s-.458,15.482,6.623,20.915,3.917,7.8,4.048,10.965a11.292,11.292,0,0,0,5.161,8.848c3.175,1.9-1.44,7.5,8.4,14.576s6.634,27.429,5.674,36.768l2,.207s2.095-25.956-1.571-41.744c-3.742-16.115-8.161-27.811-18.646-37.423S305.82,154.37,305.82,154.37Z" transform="translate(-305.814 -154.37)"/></clipPath><linearGradient id="x" x1="0.812" y1="0.409" x2="0.426" y2="0.526" xlink:href="#r"/><clipPath id="y"><path class="a" d="M378,180.77a11.434,11.434,0,0,0-4.015,5.9c-1.091,3.731-2.531,6.863-5.019,7.921-6.983,2.968-2.269,7.245-7.55,10.911-2.848,1.964-4.659,3.524-5.455,6.8-1,4.157-1.964,5.455-5.455,7.386-.676.371-5.03-.709-7.146,3.5-2.9,5.772-3.666,17.457-3.633,19.17H338.13a77.878,77.878,0,0,1,5.663-27.735C350.393,199.143,363.737,183.727,378,180.77Z" transform="translate(-338.13 -180.77)"/></clipPath><linearGradient id="z" x1="0.552" y1="0.529" x2="0.402" y2="0.416" xlink:href="#r"/><clipPath id="aa"><path class="a" d="M347.153,256.814H335.948a9.11,9.11,0,0,1-8.936-7.3l-4.5-22.181a4.233,4.233,0,0,1,4.146-5.073h30.124a3.928,3.928,0,0,1,3.851,4.713l-4.561,22.541a9.11,9.11,0,0,1-8.925,7.3Z" transform="translate(-322.433 -222.26)"/></clipPath><linearGradient id="ab" x1="0.146" y1="0.131" x2="0.914" y2="0.827" gradientUnits="objectBoundingBox"><stop offset="0.04" stop-color="#2fb5be" stop-opacity="0"/><stop offset="0.07" stop-color="#58348c" stop-opacity="0.11"/><stop offset="0.25" stop-color="#744ea7" stop-opacity="0.412"/><stop offset="0.41" stop-color="#8862bb" stop-opacity="0.631"/><stop offset="0.49" stop-color="#9069c3" stop-opacity="0.722"/><stop offset="0.63" stop-color="#9d75cf" stop-opacity="0.839"/><stop offset="0.77" stop-color="#a77ed8" stop-opacity="0.929"/><stop offset="0.9" stop-color="#ad84de" stop-opacity="0.98"/><stop offset="0.99" stop-color="#af86e0"/></linearGradient><linearGradient id="ac" x1="0.616" y1="-0.216" x2="0.489" y2="0.621" gradientUnits="objectBoundingBox"><stop offset="0.22" stop-color="#fff" stop-opacity="0"/><stop offset="0.99" stop-color="#fff"/></linearGradient><linearGradient id="ad" x1="0.856" y1="0.663" x2="0.273" y2="0.391" gradientTransform="matrix(1, 0, 0, 1, 0, 0)" xlink:href="#a"/><linearGradient id="ae" x1="0.61" y1="0.678" x2="0.362" y2="0.329" gradientUnits="objectBoundingBox"><stop offset="0.19" stop-color="#d8916b" stop-opacity="0"/><stop offset="0.99" stop-color="#a6515a" stop-opacity="0.502"/></linearGradient></defs><g transform="translate(0 0)"><path class="c" d="M384.938,233.175c11.892-10.518,5.052-28.291-7.125-35.088-11.271-6.3-25.651-8.2-38.394-7.43h0c-7.245.458-14.249,2.5-21.177,4.539-64.634,19.039-92.15,20.174-159.763,24.974-10.223.731-32.2-31.717-41.722-35.252-12.383-4.593-27.429,19.541-38.187,23.589,18.188-6.874,17.861,11.041,27.211,20.392,6.415,5.172,14.751,7.725,22.912,9.819,53.352,13.933,98.315,14.053,163.429,8.183,16.475-1.484,33.048-2.062,49.49-3.841,7.725-.829,15.275-2.258,22.978-3.524,6.339-1.091,13.8-1.353,19.1-5.455A7.986,7.986,0,0,0,384.938,233.175Z" transform="translate(7.156 16.784)"/><path class="d" d="M398.426,108.373a238.1,238.1,0,0,1-20.381,74.464c-4.866,10.507-6.284,21.374-13.322,30.549-19.082,24.952-43.282,39.387-74.464,43.118-28.269,3.382-55.644,4.026-84.131-.491a79.875,79.875,0,0,1-8.663-1.866c-24.112-6.655-54.138-7.026-71.595-24.952s-25.683-46.981-13.093-68.616c7.725-13.322,21.6-21.646,34.914-29.458l34.619-20.163c10.3-6.012,20.73-12.1,29.382-20.283,20.883-19.639,30.178-49.883,52.829-67.5A67.918,67.918,0,0,1,317.8,10.168l9.819,1.549c18.548.207,28.444,3.273,37.554,12.962a96.737,96.737,0,0,1,11.347,15.5C390.2,62.364,401.306,82.45,398.426,108.373Z" transform="translate(9.718 0.829)"/><path class="e" d="M326.657,27.19c-.818,7.212-1.582,14.816,1.277,21.483,2.662,6.219,8.1,10.725,12.34,15.995a48.323,48.323,0,0,1,10.343,35.241,46.97,46.97,0,0,1-18.079,31.9,91.507,91.507,0,0,1-11.882,7.2L291.918,154.5c-1.615-1.746-1.091-4.506-.338-6.775a150.754,150.754,0,0,1,14.707-32.59c3.448-5.717,7.321-11.292,9.339-17.653,1.909-6.034,2.04-12.471,2.018-18.8q0-12-.753-24c-.284-4.79-.644-9.667.48-14.336s4-9.187,8.467-10.976" transform="translate(26.486 2.475)"/><g class="f" transform="translate(161.958 25.737)"><path class="g" d="M393,107.3a238.1,238.1,0,0,1-20.381,74.464c-4.866,10.507-6.284,21.374-13.322,30.549-19.083,24.952-43.282,39.387-74.464,43.118a282.136,282.136,0,0,1-81.523-1.571c-20.174-5.87-37.347-2.4-54.869-14.107,12.918.2,16.824-2.793,29.666-1.429,64.634,6.852,130.577-22.192,174.241-70.351,6.492-7.168,12.591-14.795,16.944-23.414,14.271-28.247,7.986-62.048,1.386-93-1.877-8.728-8.488-19.006-10.911-27.964a96.734,96.734,0,0,1,11.325,15.493C384.784,61.275,395.891,81.361,393,107.3Z" transform="translate(-148.44 -23.59)"/></g><path class="h" d="M324.474,36.77c-7.037,14.664-3.655,24.265,0,30.146,4.877,7.954,12.645,13.987,16.65,22.421a28.531,28.531,0,0,1,1.309,21.3,26.6,26.6,0,0,1-14.38,15.646c-3.764,1.615-7.888,2.313-11.62,4.026s-6.71,4.211-10.332,5.8a21.93,21.93,0,0,1-8.652,1.877c-1.091-4.779-.142-9.819,1.527-14.424s4.015-8.947,5.8-13.507A60.009,60.009,0,0,0,308.84,91.41c.5-9.219-1.091-18.624.971-27.615a14.184,14.184,0,0,1,3.437-7.048c2.018-2,3.273-5.63,5.968-6.47" transform="translate(27.043 3.347)"/><path class="i" d="M94.573,201.37c-12.482,5.1-26.065,6.645-39.278,9.1A287.23,287.23,0,0,0,6.918,223.878c-2.182.8-4.364,1.713-5.75,3.535-3,4.026.2,10.147,4.768,12.209s9.819,1.473,14.838,1.473c12,0,23.774,3.633,35.666,5.586a216.8,216.8,0,0,0,31.477,2.291c5.455.1,11.085.109,16.366-1.538a53.088,53.088,0,0,0,10.758-5.281l14.3-8.456a6.547,6.547,0,0,0,2.826-2.531,5.128,5.128,0,0,0-.524-4.517c-3.131-5.783-10.3-7.714-16.453-10.027A66.554,66.554,0,0,1,92.74,202.548" transform="translate(0.002 18.334)"/><path class="h" d="M280.96,10.063a40.511,40.511,0,0,0-19.246,22.17c-5.913,16.169,5.084,33.223,7.9,38.492s10.911,6.754,12.82-4.517S294.5,2.426,280.96,10.063Z" transform="translate(23.675 0.846)"/><path class="j" d="M241.989,99.406s-9.089,2.673-18.482,6.546-17.893,2.913-22.334-3.4c-3.993-5.684,7.812-17.839,37.609-26.425C238.782,76.1,273,71.65,241.989,99.406Z" transform="translate(18.251 6.905)"/><path class="k" d="M232.658,86.5,212.79,104.437l1.178,2.826s18.319-5.455,20.566-6.372S232.658,86.5,232.658,86.5Z" transform="translate(19.378 7.875)"/><path class="l" d="M279.685,63.439s-3.851-1.331-11.576-1.015-42.4,21.123-42.4,21.123,8.227-.807,7.9,20.283l23.261-8.859c13.245-7.637,21.821-12.918,22.716-22.628C279.925,68.512,281.67,68.054,279.685,63.439Z" transform="translate(20.554 5.679)"/><path class="m" d="M253.5,75.89s-12,9.623-21.254,15.515c0,0,.644,4.855.775,11.194l10.343-4.048s10.376-16.617,10.78-17.806.229-2.837-1.669-1.538C252.478,79.218,255.882,75.727,253.5,75.89Z" transform="translate(21.149 6.909)"/><path class="j" d="M280.63,54.763s.469,3.273-2.575,10.54c0,0-10.91-.284-15.275.513s-8.314,31.248,24.614,27.713,15.275-19.552,15.275-19.552l7.354-26.436S295.861,59.367,280.63,54.763Z" transform="translate(23.667 4.328)"/><path class="l" d="M283.145,63.907s-5.608,7.07,1.473,12c9.819,6.9,19.639.589,18.613-4.037,0,0,22.683,8.652,24.123,14.064.949,3.579-8.063,45.562-52.654,92.292q-1.266,1.32-2.433,2.728a131.682,131.682,0,0,1-15.2,15.013L204,144.9s20.73-4.964,34.2-29.524a13.322,13.322,0,0,0,1.964-6.645c.24-5.455,1.724-19.224,8.99-24.112,11.652-7.834,10.332-5.946,13.093-11.892s1.877-7.288,5.586-8.488C276.741,61.354,283.145,63.907,283.145,63.907Z" transform="translate(18.577 5.723)"/><path class="j" d="M274.545,48.972c.12-1.255-.055-15.2-.709-16.017a4.364,4.364,0,0,0-1.757-1.211c-1.789-.622-4.572.655-6.132,1.331-4.5,1.931-9.47,3.153-12.493,7.135-2.749,3.644-2.815,9.449-5.9,12.864a41.941,41.941,0,0,1-9.972,8.8,207.035,207.035,0,0,0-19.944,14.664c-20.086,16.65-17.239,28.6-15.1,30.6s10.66,1.015,20.806-6a50.821,50.821,0,0,0,10.671-10.452c1.582-1.986,3.077-4.048,4.55-6.11,3.142-4.364,5.172-9.4,8.194-13.845,2.5-3.666,7.637-9.732,12.154-10.55h.273q.622-.1,1.255-.142c2.422-.185,4.931-1.713,7.114-2.913C268.969,56.391,274.37,50.783,274.545,48.972Z" transform="translate(18.307 2.874)"/><path class="n" d="M259.228,57.763s-1.44-.6-4.692,1.178a25.247,25.247,0,0,0-9.383,8.8s-8.216,15.275-11.129,18.122c-1.538,1.517-6.808,8.194-7.572,9.034s-8.728,1.386-4.844-4.484,13.169-12,19.639-19.977S251.285,56.082,259.228,57.763Z" transform="translate(20.084 5.234)"/><path class="o" d="M220.917,134.8l22.345-11.063v1.8c0,1.8-19.563,11.816-22.083,12.165-9.819,1.364-54.847,5.324-76.526,6.666-1.4.087-1.462-2.117-1.462-2.117l72.62-6.044A14.075,14.075,0,0,0,220.917,134.8Z" transform="translate(13.04 11.266)"/><path class="p" d="M241.368,123.74l-55.218,4.1-4.2.12S165.092,139.3,164,139.3s55.218-4.462,55.218-4.462Z" transform="translate(14.934 11.266)"/><path class="q" d="M215.4,139.48s.055,2.182-4.55.131c-4.364-1.931-4.539-65.91-4.539-65.91s.578-2.357.873-.131" transform="translate(18.787 6.611)"/><path class="r" d="M137.406,87.807c-.818-.513,75.883-15.187,75.883-15.187l7.474,67.885-76.886,6.4L136.14,88.157Z" transform="translate(12.398 6.611)"/><path class="s" d="M178.979,107.964a4.724,4.724,0,1,1-4.855-4.724A4.812,4.812,0,0,1,178.979,107.964Z" transform="translate(15.439 9.399)"/><path class="t" d="M276.746,26.121s-2.084-1.026-3.47.327-20.937,14.718-22.192,16.442a5.531,5.531,0,0,0-.6,5.281c.622,1.735,4.571,7.517,4.571,7.517s2.52,3.273,6.928.262,8.445-5.455,8.445-5.455Z" transform="translate(22.772 2.343)"/><path class="u" d="M276.31,27.716a2.9,2.9,0,0,0-3.11.305c-1.244,1.233-18.842,13.4-19.934,14.958a5.052,5.052,0,0,0-.556,4.779c.546,1.571,3.83,7.125,3.83,7.125s1.833,3.393,5.8.622,8.259-5.717,8.259-5.717Z" transform="translate(22.979 2.494)"/><path class="h" d="M275.877,28.868s-1.833-.895-3.033.251S254.6,41.589,253.554,43.051a4.626,4.626,0,0,0-.524,4.539c.556,1.495,3.819,6.8,3.819,6.8s1.833,3.273,5.673.655,8-5.313,8-5.313Z" transform="translate(23.008 2.597)"/><path class="v" d="M264.142,48.689,260.6,43.048a3.382,3.382,0,0,1,1.266-4.593l9.59-6.863c1.615-.916.895,2.662,1.811,4.277l2.64,4.648a3.382,3.382,0,0,1-1.277,4.626l-6.8,3.862C266.215,49.889,265.048,50.3,264.142,48.689Z" transform="translate(23.691 2.862)"/><path class="w" d="M305.663,46.69s3.906,5,1.877,9.918S296.5,73.323,296.5,73.323s-2.8-5.455-17.948-15.329Z" transform="translate(25.365 4.25)"/><path class="j" d="M316.48,51.22a5.564,5.564,0,0,1-8.325,1.091,26.371,26.371,0,0,1-23.174,9.558c-2.771-.415-16.158-1.626-15.58-18.221v-.076a35.362,35.362,0,0,1,1.888-10.1,45.715,45.715,0,0,1,11.489-17.893C300.748-.572,311.385,32.913,316.6,35.389S319.863,46.933,316.48,51.22Z" transform="translate(24.53 1.018)"/><path class="x" d="M274.19,37.493a5.237,5.237,0,0,1-4.79,4.277v-.076a35.363,35.363,0,0,1,1.888-10.1A5.248,5.248,0,0,1,274.19,37.493Z" transform="translate(24.532 2.875)"/><g class="y" transform="translate(299.304 45.354)"><path class="z" d="M275.062,41.57s2.182,2.4,10.06,3.47c0,0-1.353,5.826-6.546,4.681S273.97,43.545,275.062,41.57Z" transform="translate(-274.324 -41.57)"/><path class="aa" d="M274.48,42.754s1.8,3.022,7.932,3.48c0,0,2.629-.436,3.688-2.04l-11.522-4S273.891,41.827,274.48,42.754Z" transform="translate(-274.332 -41.696)"/><path class="ab" d="M274.494,45.784a10.8,10.8,0,0,1,6.426,1.407c3.644,1.92,1.451,3.48,1.451,3.48s-5.75.338-7.4-2.553S274.494,45.784,274.494,45.784Z" transform="translate(-274.345 -41.191)"/></g><path class="ac" d="M282.726,32.85a8.041,8.041,0,0,1-1.768,2.488,7.515,7.515,0,0,1-1.266.971c-.109.076-.24.131-.349.2l-.262.153a2.073,2.073,0,0,0-.436.371,1.953,1.953,0,0,0-.415,2.04,6.732,6.732,0,0,0,1.527,2.357,4.081,4.081,0,0,1-2.564-1.866,3.1,3.1,0,0,1-.4-1.778,2.968,2.968,0,0,1,.807-1.735,3.5,3.5,0,0,1,.731-.567l.393-.218.316-.142a13.564,13.564,0,0,0,1.233-.666C281.068,33.974,281.875,33.308,282.726,32.85Z" transform="translate(25.204 2.99)"/><path class="ad" d="M310.607,40.14s-2.095,1.266-1.909,2.651.469,2.477-.927,3.655" transform="translate(28.026 3.654)"/><path class="m" d="M278.56,195.824c2.182-9.994,11.521-15.056,26.883-72.239,7.637-28.367-17.119-17.391-17.119-17.391s-5.455,23.665-25.662,18.21c0,0-4.931,7.485,13.987,10.627,0,0-3.142,29.993-20.73,39.452C255.953,174.483,256.007,199.108,278.56,195.824Z" transform="translate(23.304 9.478)"/><path class="j" d="M226.283,121.74c3.033,2.782,21.286,17.817,37.1,23.414,6.066,2.182,14.991,2.335,16.18,8.619a7.144,7.144,0,0,1,.12,1.037c.36,8.838-10.681,15.984-20.512,10.289s-31.51-27.113-31.51-27.113-15.438-7.452-9.929-11.882a36.494,36.494,0,0,1,7.637-4.211" transform="translate(19.719 11.084)"/><path class="ae" d="M298.012,130.748a1.647,1.647,0,0,1-2.3.644l1.309-2.662S298.448,129.865,298.012,130.748Z" transform="translate(26.928 11.72)"/><path class="j" d="M302.133,134.278s-17,30.549-23.348,35.285c-7.987,5.935-24.712.884-12.525-18.9s20.315-39.1,22.039-42.038S302.133,134.278,302.133,134.278Z" transform="translate(23.854 9.871)"/><path class="af" d="M303.054,130.592s-15.275,26.687-23.119,35.241l-.458.513a12.853,12.853,0,0,1-4.615,3.131,10.158,10.158,0,0,1-7.441,0s11.751-1.975,13.725-9.459c4.659-17.675-3.961-32.568-3.961-32.568Z" transform="translate(24.352 11.604)"/><path class="l" d="M302.876,76.42s13.529,7.2,17.7,19.017c3.273,9.427-3.819,20.534-18.111,41.766-1.637,2.433-3.022,4.921-4.932,7.572,0,0-1.146,2.749-1.407,2.182-4.091-9.35-19.77-6.208-19.563-15.7L290.22,105.8Z" transform="translate(25.184 6.957)"/><path class="m" d="M292.09,140.943s20.926-30.855,22.345-45.268c0,0,.655-8.052,2.073-6.9,1.091.895,5.455,3.48,3.219,14.075-1.156,5.521-4.582,11.62-8.107,17.02-3.328,5.117-8.859,14.184-16.911,25.956C294.708,145.765,293.083,142.9,292.09,140.943Z" transform="translate(26.598 8.072)"/><path class="h" d="M232.464,32.8a7.834,7.834,0,0,0-3.688-6.546c-3.9-2.346-13.715-1.462-19.017-8.248-.258-.331-7.114,16.9-7.114,16.9a83.385,83.385,0,0,0-2.851,9.325c-.713,3.533,0,4.808,0,4.808s-.926-1.444-.613-4.808a59.594,59.594,0,0,1,1.865-8.65S207.318,14,207.134,13.516c-1.8-4.693-.072-8.519,3.39-11.149,4.5-3.415,11.412-3.35,20.959,1.615s32.612,14.9,21.188,46.064,7.441,26.414,1.626,50.9c-5.564,23.469-30.833,19.453-29.131,5.521a8.6,8.6,0,0,1,.938-2.9c1.789-3.437,7-14.489,2.728-19.028-5.084-5.455-3.939-12-1.9-16.551,2.946-6.6,5.837-9.241,9.176-15.046,0,0,5.2,4.113,8.728-3.273s2.586-10.365-.175-10.987-6.786,5.27-7.8,7.245S231.515,47.046,232.464,32.8Z" transform="translate(95.89 -0.001)"/><path class="ag" d="M185.45,148.369a48.781,48.781,0,0,1,7.746,43.369l34.117,2.793s21.014,1.855,26.185-7.31c8.292-14.675,3.742-28.236-13.093-36.812S185.45,148.369,185.45,148.369Z" transform="translate(16.888 13.292)"/><path class="ah" d="M150,202.991c7.877-7.976,15.951-15.962,25.651-21.581s21.33-8.728,32.241-6.164c11.358,2.662,20.425,10.911,28.946,18.886a57.2,57.2,0,0,1-15.809,5.968,114.3,114.3,0,0,1-18.919,1.92L150,204.377" transform="translate(13.66 15.873)"/><path class="g" d="M211.29,175.246v.589A16.006,16.006,0,0,1,207.122,159l12.591,3.48s1.211,7.376-8.423,12.765C210.526,175.671,212.152,175.366,211.29,175.246Z" transform="translate(18.783 14.476)"/><path class="ai" d="M190.8,158.087s14.664,11.151,25.2,20.49c5.684,5.052,16.846,20.49,39.933,17.577,0,0,8.445-1.386,12.973-6,0,0-14.085,9.307-50.188-17.981S180.362,147.46,180,148.027,184.235,150.548,190.8,158.087Z" transform="translate(16.39 13.447)"/><path class="j" d="M200.328,136.641c-4.746-7.256-26.371-14.718-39.583-4.866C96.209,179.879,67,203.784,67,203.784a55.833,55.833,0,0,0-.72,7.212c-.327,5.455,3.808,9.82,7.637,8.216,17.6-7.637,78.032-42.824,78.032-42.824s24.6-8.87,34.652-10.19C186.6,166.165,211.01,152.952,200.328,136.641Z" transform="translate(6.036 11.566)"/><path class="ai" d="M189.475,157.668s-3.1-3.022-30.309,6.6c-26.873,9.5-78.272,45.944-80.411,47.024a25.958,25.958,0,0,0-7.485,4.124c-4.473,3.371-8,3.371-10.55,4.943L79.693,214.1a55.9,55.9,0,0,0,11.74-5.837c18.777-11.729,63.979-34.652,63.979-34.652C182.132,165.894,189.475,157.668,189.475,157.668Z" transform="translate(5.531 14.314)"/><path class="aj" d="M29.257,214.436s-4.975,2.651-4.877,6.546,6.132,9.776,19.453,7.026c10.474-2.182,10.387-5.052,19.693-6.852,12.263-2.368,16.028-4.364,15.275-9.645-.655-4.441-8.968-9.514-16.628-6.83S29.257,214.436,29.257,214.436Z" transform="translate(2.222 18.568)"/><path class="j" d="M71.541,197.485c-19.344,9.263-35.6,14.566-39.452,16.224-8.4,3.7-7.637,9.939-1.549,12a29.709,29.709,0,0,0,26.022-3.721c6.448-4.364,16.366-4.364,19.835-6.546,2.531-1.549,3.971-6.034.273-10.31,2.9-8.27,12.165-4.9,12.165-4.9S94.486,186.52,71.541,197.485Z" transform="translate(2.359 17.593)"/><path class="aj" d="M35.74,222.563s.578-13.922,18.548-18.733a33.069,33.069,0,0,0-9.819,6.546C39.951,214.621,39.3,222.16,35.74,222.563Z" transform="translate(3.257 18.558)"/><g class="ak" transform="translate(65.924 223.01)"><path class="al" d="M72.563,204.477a13.671,13.671,0,0,0,2.018,2.76,3.655,3.655,0,0,1,.938,3.131,4.429,4.429,0,0,1-1.429,1.887l-3.4,3.11c-.36.327-.84,0-1.266.2a4.135,4.135,0,0,1-1.822.4c-1.888.087-3.764,1.015-7.179,2.073,2.684-3.273,7.288-4.288,10.692-6.852a6.339,6.339,0,0,0,2.466-3.208,3.131,3.131,0,0,0-1.3-3.579" transform="translate(-60.42 -204.4)"/></g><path class="aj" d="M35.74,221.6s2.586-4.746,13.507-6.546c9.558-1.538,21.821.087,21.821.087s-4.91.971-5.99,1.255a68.078,68.078,0,0,0-14.816,1.091A62.113,62.113,0,0,0,35.74,221.6Z" transform="translate(3.257 19.52)"/><g class="am" transform="translate(28.446 233.917)"><path class="an" d="M26.07,217.423a5.161,5.161,0,0,1,1.68-1.669,8.728,8.728,0,0,1,6.808-1.091c-.753.251-1.495.415-2.182.6s-1.429.371-2.182.589a26.074,26.074,0,0,0-4.124,1.571Z" transform="translate(-26.07 -214.397)"/></g><g class="am" transform="translate(28.25 236.168)"><path class="an" d="M25.89,219.58a7.418,7.418,0,0,1,1.767-1.538,10.483,10.483,0,0,1,2.095-1.091,8.958,8.958,0,0,1,2.324-.48,5.455,5.455,0,0,1,2.335.36c-.786.153-1.495.295-2.182.48s-1.4.415-2.084.666C28.727,218.5,27.385,219.079,25.89,219.58Z" transform="translate(-25.89 -216.459)"/></g><g class="am" transform="translate(29.81 238.825)"><path class="an" d="M27.32,221.847a5.456,5.456,0,0,1,1.429-1.473,7.942,7.942,0,0,1,1.8-.982A6.339,6.339,0,0,1,34.6,219.1c-.655.262-1.266.426-1.877.644s-1.2.415-1.778.655C29.753,220.854,28.607,221.366,27.32,221.847Z" transform="translate(-27.32 -218.895)"/></g><g class="am" transform="translate(33.934 240.873)"><path class="an" d="M31.1,223.465a6.2,6.2,0,0,1,2.4-2.062,6.4,6.4,0,0,1,1.506-.535,3.545,3.545,0,0,1,1.637,0A29.818,29.818,0,0,1,34,222.4a12,12,0,0,1-2.9,1.069Z" transform="translate(-31.1 -220.772)"/></g><path class="j" d="M187.719,109.109c-6.175-1.036-13.824-.666-23.272,13.955-9.667,14.947-51.945,90.557-51.945,90.557s-.469,2.575,2.749,7.048,6.3,4.364,6.3,4.364,40.98-46.73,56.233-61.394c5.75-5.532,17.7-14.456,21.276-24C199.066,139.746,204.565,111.935,187.719,109.109Z" transform="translate(10.244 9.902)"/><path class="ao" d="M289.991,26.87a8.947,8.947,0,0,1,2.117,1.233,7.332,7.332,0,0,1,1.658,1.691,4.6,4.6,0,0,1,.786,2.182,4.8,4.8,0,0,1-.349,2.117,4.364,4.364,0,0,0-.36-1.942,3.514,3.514,0,0,0-1.146-1.375,5.565,5.565,0,0,0-1.615-.753,6.36,6.36,0,0,0-1.7-.273Z" transform="translate(26.351 2.446)"/><path class="ao" d="M280.392,26.548c0-.076-.207-.284-.349-.426a3.414,3.414,0,0,0-.546-.4,3.579,3.579,0,0,0-1.375-.458,4.812,4.812,0,0,0-1.615.131,8.084,8.084,0,0,0-.829.262l-.818.382a8.152,8.152,0,0,1,1.32-1.3,5.936,5.936,0,0,1,1.757-.927,5.455,5.455,0,0,1,2.182-.2,5.8,5.8,0,0,1,1.091.229,4.364,4.364,0,0,1,1.146.535Z" transform="translate(25.029 2.146)"/><ellipse class="ao" cx="1.724" cy="1.331" rx="1.724" ry="1.331" transform="translate(313.131 37.977) rotate(-70.95)"/><ellipse class="ao" cx="1.724" cy="1.331" rx="1.724" ry="1.331" transform="translate(300.22 33.186) rotate(-70.95)"/><path class="b" d="M305.93,39.37" transform="translate(27.858 3.584)"/><path class="ap" d="M276.751,128.409a1.392,1.392,0,0,1-.142.393c-.033.1,0-.065,0-.142l.109-.2.415-.786.786-1.582,1.6-3.153,3.219-6.3c2.182-4.179,4.288-8.379,6.546-12.547a77.245,77.245,0,0,1-5.455,13.093c-1.091,2.095-2.237,4.179-3.48,6.2-.611,1.015-1.255,2.008-1.92,2.989l-1.036,1.451-.535.709-.142.175-.076.087s-.164.12-.142,0a2.544,2.544,0,0,1,.251-.393Z" transform="translate(25.178 9.478)"/><path class="ap" d="M286.94,100.32c.087,1.255.087,2.335.186,3.437a14.225,14.225,0,0,0,.153,1.647c.065.556.153,1.091.175,1.778a4.812,4.812,0,0,1-1.571-3.328,5.455,5.455,0,0,1,.186-1.866,3.841,3.841,0,0,1,.873-1.669Z" transform="translate(26.031 9.133)"/><path class="ap" d="M255.912,76.65c-1.342.982-2.695,1.931-4,2.957s-2.629,2.008-3.9,3.055-2.5,2.182-3.644,3.273a14.422,14.422,0,0,0-2.859,3.753,37.266,37.266,0,0,0-1.484,4.637c-.447,1.582-.8,3.2-1.156,4.8s-.655,3.273-.916,4.866-.524,3.273-.753,4.921a58.44,58.44,0,0,1,.709-9.961c.229-1.658.567-3.273.96-4.921a35.476,35.476,0,0,1,1.484-4.855,15.035,15.035,0,0,1,3.175-4.048,41.027,41.027,0,0,1,3.884-3.208q2.029-1.473,4.146-2.8C253,78.243,254.439,77.392,255.912,76.65Z" transform="translate(21.6 6.978)"/><path class="aq" d="M300.86,47.52" transform="translate(27.397 4.326)"/><path class="j" d="M188.742,129.47S172.2,152.5,160.92,165.747l51.607,16.3s9.143-10.681,13.649-46.73Z" transform="translate(14.655 11.788)"/><path d="M214.339,133.88s2.968.426,2.968,7.91c0,7.179-2.88,11.314-5.1,18-5.914,17.839-3.677,16.442-3.677,16.442s35.11,41.024,76.3,14.947c0,0-.251.589,1.495-4.55,1.92-5.641-10.2-16.366-13.365-19.639-13.682-14.02-30.626-26.894-49.785-31.815a34.979,34.979,0,0,0-8.838-1.3Z" transform="translate(18.952 12.189)"/><path class="ar" d="M210.332,174.869S233.8,202.44,254.89,194.235c0,0,12.383-1.626,18.69-15.624,0,0,.316-.458-.338.1a1.146,1.146,0,0,0,0-.142l-.109.207c-4.724,8.979-15.678,9.438-24.494,7.637C236.943,184,226.676,177.6,217,170.876c-.84-.578-1.178-.655-2-1.266-3.524,6.459-4.692,5.281-4.692,5.281" transform="translate(19.152 15.442)"/><path class="as" d="M266.7,145.858s8.292,2.717,9.165,4.168C275.876,150.037,273.8,142.291,266.7,145.858Z" transform="translate(24.286 13.194)"/><path class="ap" d="M266.83,145.3a8.37,8.37,0,0,1,2.608,0,10.715,10.715,0,0,1,2.531.687,8.183,8.183,0,0,1,2.269,1.386,4.6,4.6,0,0,1,1.473,2.182,12.068,12.068,0,0,0-2.04-1.418,20.538,20.538,0,0,0-2.182-1.026C269.994,146.531,268.434,146.073,266.83,145.3Z" transform="translate(24.298 13.22)"/><circle class="at" cx="2.16" cy="2.16" r="2.16" transform="translate(280.141 48.856)"/><path class="au" d="M269.176,31.88,256.541,54.017l-3.731-6.612s-1.44-3.851,1.44-5.532S269.176,31.88,269.176,31.88Z" transform="translate(22.989 2.902)"/><path class="aj" d="M82.907,221.011s-4.964,2.662-4.877,6.546,6.132,9.732,19.475,6.994c10.463-2.182,10.376-5.062,19.639-6.874,12.263-2.389,16.028-4.364,15.275-9.667-.655-4.441-8.979-9.5-16.639-6.808S82.907,221.011,82.907,221.011Z" transform="translate(7.107 19.161)"/><path class="j" d="M129.282,182.41c-12,31.924-35.143,35.786-43.544,39.5s-7.637,9.95-1.527,12a29.709,29.709,0,0,0,25.967-3.83c6.448-4.364,16.366-4.364,19.824-6.546,2.531-1.549,4.222-6.077.513-10.343h0Z" transform="translate(7.244 16.608)"/><g class="ak" transform="translate(124.557 229.993)"><path class="al" d="M126.216,210.8c.687,1.549,2.684,1.855,3.2,3.568.764,2.542-.938,5.237-2.957,6.645-3.491,2.433-8.172,2.99-12.3,3.47.338,0,1.386-1.375,1.724-1.637a18.755,18.755,0,0,1,2.182-1.451c1.637-.938,3.382-1.691,4.975-2.717,2.291-1.473,6.994-5.6,2.826-7.768" transform="translate(-114.16 -210.8)"/></g><path class="a" d="M94.61,228.92" transform="translate(8.617 20.843)"/><g class="am" transform="translate(87.287 243.662)"><path class="an" d="M80,226.625a5.859,5.859,0,0,1,1.495-1.473,10.658,10.658,0,0,1,1.844-1,9.819,9.819,0,0,1,4.1-.818,13.992,13.992,0,0,1-1.833,1c-.611.305-1.233.556-1.844.818C82.52,225.676,81.3,226.156,80,226.625Z" transform="translate(-80 -223.328)"/></g><g class="am" transform="translate(89.72 246.39)"><path class="an" d="M82.23,229.213a7.352,7.352,0,0,1,1.637-1.582,10.689,10.689,0,0,1,1.964-1.091,7.321,7.321,0,0,1,4.473-.589l-2.073.764c-.666.273-1.32.524-1.975.818C84.947,228.067,83.659,228.689,82.23,229.213Z" transform="translate(-82.23 -225.829)"/></g><g class="am" transform="translate(93.898 248.087)"><path class="an" d="M86.06,230.653a3.579,3.579,0,0,1,.916-1.506,5.828,5.828,0,0,1,1.407-1.091,5.39,5.39,0,0,1,3.415-.611,15.817,15.817,0,0,1-1.484.829l-1.418.742C87.958,229.529,87.086,230.042,86.06,230.653Z" transform="translate(-86.06 -227.384)"/></g><g class="am" transform="translate(97.444 249.565)"><path class="an" d="M89.31,230.955a6.208,6.208,0,0,1,2.608-1.8,6.4,6.4,0,0,1,1.549-.382,3.557,3.557,0,0,1,1.626.153,29.8,29.8,0,0,1-2.793,1.244,12,12,0,0,1-2.989.786Z" transform="translate(-89.31 -228.739)"/></g><path class="aj" d="M85.23,225.21s8.728-7.517,19.083-7.179a19.181,19.181,0,0,1,13.8,6.623,28.934,28.934,0,0,0-3.273.491,15.493,15.493,0,0,0-13.965-4.135C91.918,222.537,88.754,225.8,85.23,225.21Z" transform="translate(7.763 19.85)"/><path class="aj" d="M84.86,218.747c3.175-8.423,13.45-13.58,21.094-16.044,0,0-4.487,2.363-10.893,6.29C90.206,212.877,88.471,218.376,84.86,218.747Z" transform="translate(7.729 26.652)"/><path class="av" d="M254.129,37.09a8.565,8.565,0,0,1,3.459.611,2.924,2.924,0,0,1,1.778,2.793.654.654,0,0,1-.131.36.687.687,0,0,1-.447.185,8.456,8.456,0,0,1-2.3-.251,21.462,21.462,0,0,0-3.95-.164H249.71a4.833,4.833,0,0,1,4.266-3.415" transform="translate(22.739 3.376)"/><path class="av" d="M258.535,34.623a17.871,17.871,0,0,1,4.692,0c.731.164.916,1.277,1.091,2.008a.72.72,0,0,1-.109.622,1.091,1.091,0,0,1-.818.262h-2.368l-6.623-.2a14.949,14.949,0,0,1,3.4-2.269" transform="translate(23.166 3.137)"/><path class="av" d="M257.39,34.989a17.271,17.271,0,0,0,2.455-1.9,11.456,11.456,0,0,1,3.47-1.757,7.637,7.637,0,0,1,5.281.786.2.2,0,0,1,.175.207.229.229,0,0,1-.066.12c-1,1.146-2.684,1.091-4.08,1.222-1.571.12-2.488,1.637-4,1.844-.862.12-1.091-.524-1.757,0" transform="translate(23.439 2.837)"/><ellipse class="aw" cx="5.313" cy="5.03" rx="5.313" ry="5.03" transform="matrix(0.2, -0.98, 0.98, 0.2, 311.33, 52.199)"/><path class="ax" d="M171.46,81.078l43.969,46.272-5.673-53.68Z" transform="translate(15.614 6.707)"/><path class="d" d="M211.744,205.45c-6.274-3.131,61.1-45.759,96.645-47.766,4.157-.24,9,.295,11.38,5.368s.807,12.765-2.4,16.9-7.517,5.7-11.652,7.114l-59.833,20.555c-11.4,3.917-24.221,7.506-34.1-1.811" transform="translate(19.245 14.352)"/><path class="e" d="M217.51,204c-5.455-5.455,26.262-37.314,96.645-47.766,4.113-.611,9,.295,11.38,5.368s.807,12.765-2.4,16.9-7.517,5.7-11.652,7.114l-59.877,20.566c-11.4,3.917-24.221,7.506-34.1-1.811Z" transform="translate(19.752 14.209)"/><path class="d" d="M265.29,174.486c7.3-13.5,17.184-21.221,27.113-21.166,5.063,0,10.059,1.986,15.024,3.939a.677.677,0,0,1,.436.382,1.844,1.844,0,0,1-.655,1.931,32.3,32.3,0,0,1-5.575,3.033c-6.2,2.859-12.46,7.965-18.777,9.525-6.546,1.626-10.758.807-17.25,3.131" transform="translate(24.158 13.959)"/><path class="d" d="M296.41,141.9a283.012,283.012,0,0,1,24.854-15.177c11.478-6.219,24.439-11.794,37.227-9.165a41.569,41.569,0,0,0-24.341-2.9" transform="translate(26.991 10.377)"/><path d="M159.369,128.65c-3.273,6.121-6.688,12.187-10.092,18.231s-6.9,12.056-10.343,18.09-7,12-10.561,17.959l-5.357,8.936c-1.822,2.957-3.611,5.935-5.455,8.881,1.637-3.066,3.328-6.1,5-9.143l5.1-9.088c3.4-6.055,6.9-12.056,10.343-18.09s7-12,10.561-17.959S155.692,134.542,159.369,128.65Z" transform="translate(10.707 11.713)"/><path class="b" d="M226.968,123.078s-.546-2.88-.927-6.9c-.7-7.474-8.674-6.274-11.6-5.292s-2.182,2.182-1.091,2.859c0,0-4.168,1.157-1.091,3.7,0,0-3.491,1.451-.753,3.513,0,0-2.99,1.331-.622,3.208,2.182-.316,2.771.938,2.771.938a4.266,4.266,0,0,0,1.407,3.633,6.874,6.874,0,0,0,4.211,1.56S226.641,128.773,226.968,123.078Z" transform="translate(19.121 10.029)"/><g class="ay" transform="translate(229.095 120.19)"><path class="j" d="M224.743,112.05s-1.975,9.983-8.008,13.889a4.266,4.266,0,0,1-3.208-.993c-1.811-1.713-1.877,7.245-1.877,7.245s6.11.829,6.361.818a60.608,60.608,0,0,0,7.135-3.164c.087-.305,4.539-6.655,4.561-6.983s1.364-5.706.971-6.317-3.939-4.8-4.2-5.052S224.743,112.05,224.743,112.05Z" transform="translate(-209.821 -110.043)"/></g><g class="az" transform="translate(225.456 120.172)"><path class="ba" d="M224.933,112.12s-1.975,9.983-8.008,13.889a4.266,4.266,0,0,1-3.208-.993c-1.811-1.713-1.877,7.245-1.877,7.245s6.11.829,6.361.818a60.616,60.616,0,0,0,7.135-3.164c.087-.305,4.539-6.655,4.561-6.983s1.364-5.706.971-6.317-3.939-4.8-4.2-5.052S224.933,112.12,224.933,112.12Z" transform="translate(-206.165 -110.019)"/></g><path class="j" d="M224.7,112.117a18.548,18.548,0,0,0-8.357-3.273c-2.957-.469-11.565,2.815-10.78,3.873.993,1.331,7.888.458,9.209.262a27.812,27.812,0,0,1,3.819-.109Z" transform="translate(18.715 9.905)"/><path class="j" d="M211.793,124.077s2.826,2.182,4.964,2.073c0,0,5.761-2.706,8.085-13.256,0,0-.349-1.56-3.971-2.706s-.546-.218-.546-.218l-6.4.24-2.52,12Z" transform="translate(19.251 9.98)"/><path class="j" d="M220.061,113.513a61.934,61.934,0,0,0-6.383-.753c-2.99.153-10.212,1.724-9.656,2.913.906,1.909,6.164,1.091,7.474.916s5.553-.753,5.553-.753Z" transform="translate(18.576 10.266)"/><path class="j" d="M220.126,116.792s-7.157-.927-8.477-.862c-2.989.153-8.347,1.975-7.572,3.022.993,1.331,6.721,1.986,8.041,1.789a40.538,40.538,0,0,0,4.986-1.637Z" transform="translate(18.577 10.554)"/><path class="bb" d="M205.49,112.23a2.04,2.04,0,0,0,1.342.709,7.8,7.8,0,0,0,1.549.131,20.246,20.246,0,0,0,3.12-.284c.513-.076,1.037-.175,1.549-.273a10.908,10.908,0,0,1,1.615-.273,3.12,3.12,0,0,1,1.724.327,15.574,15.574,0,0,1,1.375.862,5.336,5.336,0,0,1-1.626-.186,4.245,4.245,0,0,0-1.407-.055c-.982.076-2.073.262-3.142.36a16.058,16.058,0,0,1-3.273,0,7.463,7.463,0,0,1-1.593-.36,2.029,2.029,0,0,1-1.233-.96Z" transform="translate(18.713 10.217)"/><path class="bb" d="M204.12,115.59a6.481,6.481,0,0,0,3.273.7c1.091,0,2.259-.12,3.415-.2a31.053,31.053,0,0,1,3.491-.076,8.2,8.2,0,0,1,3.448.753,16.946,16.946,0,0,0-3.437,0c-1.091.087-2.291.2-3.448.273a18.821,18.821,0,0,1-3.535,0A5.008,5.008,0,0,1,204.12,115.59Z" transform="translate(18.588 10.524)"/><path class="j" d="M220.744,120.275s-5.161,0-6.459-.142c-5.226-.775-8.259,1.4-7.485,2.444.993,1.331,6.808,1.407,8.128,1.211s4.364-.927,4.364-.927Z" transform="translate(18.821 10.923)"/><path class="bb" d="M204.07,118.68a4.735,4.735,0,0,0,1.527.622c.535.153,1.091.273,1.615.382,1.091.207,2.182.436,3.273.567a26.666,26.666,0,0,0,3.273.164,23.819,23.819,0,0,1,3.382.12c-1.091.175-2.182.447-3.339.556a14.841,14.841,0,0,1-3.437,0,18.546,18.546,0,0,1-3.339-.764,6.546,6.546,0,0,1-2.957-1.647Z" transform="translate(18.583 10.805)"/><path class="bb" d="M206.64,122.23a10.912,10.912,0,0,0,2.248.655c.753.153,1.538.218,2.3.349l1.146.218a5.018,5.018,0,0,0,1.091.164,13.516,13.516,0,0,1,2.389.131,23.563,23.563,0,0,1-2.357.546,8.97,8.97,0,0,1-2.433-.186,13.028,13.028,0,0,1-2.357-.556,5.084,5.084,0,0,1-2.029-1.32Z" transform="translate(18.817 11.128)"/><path class="e" d="M145.82,202.292c8.554-7.976,18.155-24.887,28.684-30.549s30.211-10.769,42.071-8.216c12.34,2.662,40.456,16.682,49.719,24.636-5.357,2.76-26.327,8.619-32.328,9.819-6.743,1.342-14.86,7.157-21.745,7.441-18.886.8-42.955-.8-61.841,0" transform="translate(13.28 14.827)"/><path class="bc" d="M221.13,252.787s29.142,7.245,72.653,8.194,89.848-4.735,86.521-6.623-23.829-4.659-23.829-4.659S244.413,244.648,221.13,252.787Z" transform="translate(20.137 22.594)"/><path class="bd" d="M302.75,194.711s22.094,16.824,27.484,21.6c0,0,2.117.906,5.335,12.209l.72-.175s-1.276-7.637-5.215-12.187a23.37,23.37,0,0,0-2.084-8.227c-1.833-3.513-3.688-2.826-6.274-6.164s-2.3-4.6-8.227-5.455-3.633-2.651-5.946-3.044a7.146,7.146,0,0,0-5.793,1.44Z" transform="translate(27.569 17.585)"/><g class="be" transform="translate(330.319 210.731)"><path class="bf" d="M302.42,194.5s1.233,1.277,4.255.666,5.455,1.8,7.1,4.07a26.546,26.546,0,0,0,6.961,6.3c2.662,1.68,9.067,6.8,9.176,11.674s-8.1-4.855-8.1-4.855l-17.675-14.031Z" transform="translate(-302.78 -193.022)"/></g><path class="bd" d="M303.729,210.862c4.506-.207,12.9.8,15.591,2.084s6.426,5.608,7.877,6.35,5.455,2.455,6.743,4.07a24.089,24.089,0,0,1,2.422,4.593l-.589.065a14.773,14.773,0,0,0-2.673-4.484,8.554,8.554,0,0,0-6.23-2.619c-1.92.065-6.252,1.495-9.3,1.091s-20.4-6.1-20.4-6.1-2.728-.393-3.328-1.44S299.233,211.081,303.729,210.862Z" transform="translate(26.754 19.196)"/><g class="bg" transform="translate(320.556 230.031)"><path class="bh" d="M294.591,214.383s7.321-1.8,11.227-.229,9.383,6.885,9.383,6.885l-6.4,1.735-15.569-5.226S292.648,214.874,294.591,214.383Z" transform="translate(-293.861 -210.591)"/></g><path class="bd" d="M378,180.77a11.434,11.434,0,0,0-4.015,5.9c-1.091,3.731-2.531,6.863-5.019,7.921-6.983,2.968-2.269,7.245-7.55,10.911-2.848,1.964-4.659,3.524-5.455,6.8-1,4.157-1.964,5.455-5.455,7.386-.676.371-5.03-.709-7.146,3.5-2.9,5.772-3.666,17.457-3.633,19.17H338.13a77.878,77.878,0,0,1,5.663-27.735C350.393,199.143,363.737,183.727,378,180.77Z" transform="translate(30.79 16.459)"/><path class="bd" d="M305.82,154.37s-.458,15.482,6.623,20.915,3.917,7.8,4.048,10.965a11.292,11.292,0,0,0,5.161,8.848c3.175,1.9-1.44,7.5,8.4,14.576s6.634,27.429,5.674,36.768l2,.207s2.095-25.956-1.571-41.744c-3.742-16.115-8.161-27.811-18.646-37.423S305.82,154.37,305.82,154.37Z" transform="translate(27.848 14.055)"/><path class="bd" d="M356.912,142.75S336.793,156.366,337,187.756s0,58.688,0,58.688h3.568s-2.728-32.732-1.68-40.238,3.611-7.408,8.074-10.059-.731-7.965,2.182-11.314,4.615-1.473,3.142-9.819,6.219-7.965,6.546-15.089S355.865,150.289,356.912,142.75Z" transform="translate(30.687 12.997)"/><g class="bi" transform="translate(367.686 155.747)"><path class="bj" d="M357.208,143.082a21.385,21.385,0,0,0-5.084,13.933c0,8.63-2.117,7.714-5.881,12.122s-2.117,5.052-2.389,11.849-5.968,11.762-6.241,19.192-3.862-2.477-3.862-2.477l6.546-51.716L351.48,139.1Z" transform="translate(-337.294 -143.082)"/></g><g class="bk" transform="translate(333.662 168.425)"><path class="bl" d="M305.826,154.578s1.724,9.034,6.132,13.9,8.8,4.855,9.558,10.321-.36,7.31,4.364,11.434c2.837,2.466,2.586,4.037,3.339,8.892s8.379,11.38,9.2,18.035c.393,3.208,1.691-5.9-.251-21.821-1.386-11.391-7.888-30.953-7.888-30.953l-23.163-12.3-1.364,1.975" transform="translate(-305.82 -154.578)"/></g><g class="bm" transform="translate(368.92 197.229)"><path class="bn" d="M377.628,181.456a16.529,16.529,0,0,0-12.154,10.3c-3.72,9.154-5.292,6.012-7.583,8.587s-2.324,7.954-7.637,10.911c-6.284,3.513-7.386,3.273-9.536,11.543l-1.287,6.012,10.91,1,28.989-31.9,2.858-19.639-4.364,2.695" transform="translate(-338.012 -180.998)"/></g><path class="bo" d="M347.143,256.814H335.938a9.11,9.11,0,0,1-8.936-7.3l-4.364-21.483a4.812,4.812,0,0,1,4.713-5.772H356.81a3.928,3.928,0,0,1,3.851,4.713L356.1,249.514a9.11,9.11,0,0,1-8.958,7.3Z" transform="translate(29.371 20.236)"/><g class="bp" transform="translate(351.794 242.496)"><path class="bq" d="M353.358,222.454s-7.125,17.042-29.688,24.723l.666,8.423a9.11,9.11,0,0,0,4.9,7.365c3.808,1.975,8.728,4.5,9.47,4.637,1.167.229,23.741-5.357,24.2-6.055s4.419-24.429,4.419-25.094,0-13.725-.469-14.424-13.725-4.419-13.725-4.419l.513,3.273Z" transform="translate(-322.32 -222.683)"/></g><path class="br" d="M303.8,254.254H245.27a7.834,7.834,0,0,1,7.834-7.834h50.188" transform="translate(22.335 22.436)"/><path class="br" d="M298.775,246.354H240.24a7.834,7.834,0,0,1,7.834-7.834h50.188" transform="translate(21.877 21.717)"/><path class="bs" d="M261.03,220.509s-6.841-8.467-.982-12S276,210.788,276,205.234s-10.092-4.233-7.157-8.794,11.718-4.561,11.718-4.561-8.794,1.953-7.485,5.2,7.812,1.626,9.438,5.2-1.3,7.812-8.139,8.467-10.747,1.3-9.121,6.841,1.3,4.561,1.3,4.561Z" transform="translate(23.464 17.47)"/><path class="bt" d="M270.607,239.462l1.953-23.119s-19.53-.327-19.857,0,1.626,23.119,1.626,23.119Z" transform="translate(23.008 19.684)"/><path class="bt" d="M271.688,218.12c-3.142,0-5.706,4.048-5.848,9.132.142-4.364,2.346-7.506,5.041-7.506s4.07,3.273,4.07,7.812-1.287,8.074-4.07,8.074-5.041-3.371-5.041-7.932h0c0,5.3,2.618,9.6,5.859,9.6s5.859-4.3,5.859-9.6S274.929,218.12,271.688,218.12Z" transform="translate(24.208 19.86)"/><path class="bu" d="M266.926,216.26a17.392,17.392,0,0,0-5.859,6.263c-1.953,3.906-1.855,8.008-7.277,11.652l.436,5.27h7.157s7.485-3.579,10.016-11.38l1.091-11.729Z" transform="translate(23.111 19.69)"/><path class="j" d="M179.94,109s17.151-.415,38.34,28.16l-30.048-.884Z" transform="translate(16.386 9.924)"/><path class="bv" d="M218.785,134.073s-12.471-3.5-17.926-1.888c0,0-5.575,1.429-6.481,4.233L166.6,167.9l7.234,1.888c2.182-2.182,4.244-4.244,6.481-6.361,4.637-4.364,9.819-8.816,14.686-12.907a64.579,64.579,0,0,1,14.031-8.99c2.313-1.091,3.982-.622,6.448-1.244a9.579,9.579,0,0,0,4.681-4.07Z" transform="translate(15.172 11.996)"/><path d="M167.35,167.093c3.273-4.07,6.655-8.063,10.049-12s6.841-7.91,10.256-11.86l5.2-5.87,1.3-1.462a11.413,11.413,0,0,1,1.429-1.44,13.4,13.4,0,0,1,3.47-2.084,14.718,14.718,0,0,1,7.91-.818c2.6.5,5.128,1.091,7.637,1.615-1.3-.142-2.6-.305-3.9-.469s-2.608-.338-3.873-.535a13.955,13.955,0,0,0-7.463,1.091,13.18,13.18,0,0,0-3.2,1.986,10.343,10.343,0,0,0-1.309,1.353l-1.287,1.484L188.429,144c-3.491,3.9-6.928,7.834-10.452,11.7S170.961,163.318,167.35,167.093Z" transform="translate(15.24 11.958)"/></g></svg>