<svg xmlns="http://www.w3.org/2000/svg" xmlns:xlink="http://www.w3.org/1999/xlink" width="325.734" height="332.127" viewBox="0 0 325.734 332.127"><defs><style>.a{fill:#defaff;}.b{opacity:0.77;fill:url(#a);}.c{fill:#c5f1ff;}.d,.e,.f,.h,.i,.m{fill:#1b2246;}.d{opacity:0.44;}.e{opacity:0.03;}.f{opacity:0.07;}.g{fill:#157efc;}.h{opacity:0.15;}.i{opacity:0.11;}.j{fill:#16c3f9;}.k{fill:#14a3c4;opacity:0.74;}.l{opacity:0.7;fill:url(#b);}.n{fill:#faba92;}.o{fill:#1a2146;}.p{fill:#91293b;}.q{fill:#fff;}.r{fill:#ba5427;}.s{fill:url(#c);}.t{fill:url(#d);}.u{fill:#d55e40;}.v{fill:url(#e);}.w{fill:url(#f);}.x{fill:#2b78f4;}.y{fill:url(#g);}.ad,.ai,.z{fill:none;fill-rule:evenodd;}.ai,.z{stroke:#19054a;}.ad,.z{stroke-width:0.5px;}.aa{fill:url(#h);}.ab{fill:url(#i);}.ac{opacity:0.9;fill:url(#j);}.ad{stroke:#ba5427;}.ae{fill:#19054a;}.af{fill:#e02d36;opacity:0.47;}.ag{fill:#d83269;}.ah{fill:url(#k);}.ai{stroke-width:0.54px;}.aj{opacity:0.29;fill:url(#l);}</style><radialGradient id="a" cx="0.331" cy="0.374" r="0.629" gradientUnits="objectBoundingBox"><stop offset="0.01" stop-color="#fff"/><stop offset="0.81" stop-color="#fff" stop-opacity="0"/></radialGradient><linearGradient id="b" y1="0.5" x2="1" y2="0.5" gradientUnits="objectBoundingBox"><stop offset="0.01" stop-color="#1b2246" stop-opacity="0.102"/><stop offset="1" stop-color="#1b2246" stop-opacity="0.2"/></linearGradient><radialGradient id="c" cx="1.133" cy="0.162" r="1.238" gradientTransform="matrix(0.419, 0.897, -0.849, 0.443, 0.795, -0.926)" gradientUnits="objectBoundingBox"><stop offset="0" stop-color="#ec9981"/><stop offset="0.78" stop-color="#ec9981" stop-opacity="0"/></radialGradient><radialGradient id="d" cx="1.146" cy="0.149" r="1.238" gradientTransform="matrix(0.419, 0.897, -0.849, 0.443, 0.791, -0.944)" xlink:href="#c"/><linearGradient id="e" x1="0.996" y1="1.209" x2="0.407" y2="-0.101" gradientUnits="objectBoundingBox"><stop offset="0.22" stop-color="#d9936c" stop-opacity="0"/><stop offset="0.99" stop-color="#a6515a"/></linearGradient><linearGradient id="f" x1="0.87" y1="-0.099" x2="0.12" y2="1.126" xlink:href="#e"/><linearGradient id="g" x1="0.674" y1="0.158" x2="0.458" y2="0.775" gradientUnits="objectBoundingBox"><stop offset="0.01" stop-color="#2b78f4" stop-opacity="0"/><stop offset="0.1" stop-color="#2671e4" stop-opacity="0.129"/><stop offset="0.38" stop-color="#185fb5" stop-opacity="0.502"/><stop offset="0.64" stop-color="#0e5193" stop-opacity="0.78"/><stop offset="0.85" stop-color="#08497e" stop-opacity="0.941"/><stop offset="1" stop-color="#064677"/></linearGradient><linearGradient id="h" x1="0.733" y1="0.722" x2="0.369" y2="0.28" xlink:href="#g"/><linearGradient id="i" x1="0.933" y1="1.074" x2="0.067" y2="-0.074" gradientUnits="objectBoundingBox"><stop offset="0" stop-color="#f95a5a"/><stop offset="1" stop-color="#ff8080"/></linearGradient><linearGradient id="j" x1="0.476" y1="0.423" x2="0.807" y2="0.909" gradientUnits="objectBoundingBox"><stop offset="0" stop-color="#fff" stop-opacity="0.302"/><stop offset="0.17" stop-color="#d9b4d2" stop-opacity="0.29"/><stop offset="0.44" stop-color="#a44d93" stop-opacity="0.278"/><stop offset="0.46" stop-color="#a44d93" stop-opacity="0.302"/><stop offset="0.67" stop-color="#a44d93" stop-opacity="0.459"/><stop offset="0.85" stop-color="#a44d93" stop-opacity="0.561"/><stop offset="0.98" stop-color="#a44d93" stop-opacity="0.6"/></linearGradient><linearGradient id="k" x1="1.514" y1="0.672" x2="-1.511" y2="0.24" xlink:href="#g"/><linearGradient id="l" x1="0.393" y1="0.383" x2="1.042" y2="1.422" gradientUnits="objectBoundingBox"><stop offset="0" stop-color="#fff" stop-opacity="0"/><stop offset="0.17" stop-color="#fff" stop-opacity="0.149"/><stop offset="0.32" stop-color="#fff" stop-opacity="0.278"/><stop offset="0.5" stop-color="#fff" stop-opacity="0.412"/><stop offset="0.69" stop-color="#fff" stop-opacity="0.51"/><stop offset="0.86" stop-color="#fff" stop-opacity="0.58"/><stop offset="0.98" stop-color="#fff" stop-opacity="0.6"/></linearGradient></defs><circle class="a" cx="156.083" cy="156.083" r="156.083" transform="translate(13.568 0)"/><ellipse class="b" cx="72.235" cy="72.235" rx="72.235" ry="72.235" transform="translate(80.934 8.492)"/><rect class="c" width="39.327" height="23.659" rx="0.65" transform="translate(225.94 140.258)"/><circle class="d" cx="2.374" cy="2.374" r="2.374" transform="translate(249.442 154.712)"/><circle class="d" cx="2.374" cy="2.374" r="2.374" transform="translate(252.708 154.712)"/><path class="e" d="M103.3,68.735s7.8,1.2,10.163,7.377,11.066-.992,11.066-.992,8.035-5.472,14.677-2.173c3.421,1.705,3.421,3.343,3.421,3.343v2.786a1.438,1.438,0,0,1-1.449,1.449h-36.43a1.46,1.46,0,0,1-1.449-1.449V68.735Z" transform="translate(122.64 83.347)"/><path class="f" d="M142.627,70.924v4.993s.312,2.686-1.449,2.686H105.462s-2.162.379-2.162-1.449V71.816s5.94-3.4,15.668,4.77C124.708,81.366,134.659,67.358,142.627,70.924Z" transform="translate(122.64 85.315)"/><rect class="c" width="39.327" height="23.659" rx="0.65" transform="translate(59.515 130.942)"/><circle class="d" cx="2.374" cy="2.374" r="2.374" transform="translate(83.018 145.396)"/><circle class="d" cx="2.374" cy="2.374" r="2.374" transform="translate(86.283 145.396)"/><path class="e" d="M28.636,64.56s7.8,1.2,10.163,7.377,11.066-.992,11.066-.992,8.035-5.472,14.677-2.173c3.421,1.705,3.421,3.343,3.421,3.343V74.9a1.438,1.438,0,0,1-1.449,1.449H30.074A1.46,1.46,0,0,1,28.625,74.9l.011-10.342Z" transform="translate(30.879 78.217)"/><path class="f" d="M67.946,66.743v4.993s.312,2.686-1.449,2.686H30.792s-2.162.379-2.162-1.449V67.59s5.94-3.4,15.668,4.77c5.739,4.825,15.68-9.171,23.648-5.617Z" transform="translate(30.885 80.18)"/><rect class="g" width="53.057" height="31.916" rx="0.875" transform="translate(32.446 91.459)"/><circle class="d" cx="3.209" cy="3.209" r="3.209" transform="translate(64.151 110.95)"/><circle class="d" cx="3.209" cy="3.209" r="3.209" transform="translate(68.553 110.95)"/><path class="h" d="M16.5,48.695s10.565,1.616,13.718,9.952S45.14,57.3,45.14,57.3s10.843-7.388,19.8-2.92c4.625,2.307,4.625,4.58,4.625,4.58v3.789a1.939,1.939,0,0,1-1.95,1.95h-49.2a1.973,1.973,0,0,1-1.917-1.95Z" transform="translate(15.98 58.722)"/><path class="h" d="M69.523,51.646v6.686s.412,3.622-1.95,3.622H19.386s-2.886.568-2.886-1.861V52.828s8.013-4.591,21.174,6.43C45.363,65.732,58.769,46.843,69.523,51.646Z" transform="translate(15.98 61.376)"/><rect class="g" width="53.057" height="31.916" rx="0.875" transform="translate(245.308 100.998)"/><circle class="d" cx="3.209" cy="3.209" r="3.209" transform="translate(277.013 120.489)"/><circle class="d" cx="3.209" cy="3.209" r="3.209" transform="translate(281.415 120.489)"/><path class="h" d="M112.012,52.975s10.565,1.616,13.718,9.952,14.922-1.348,14.922-1.348,10.843-7.388,19.8-2.92c4.625,2.307,4.625,4.58,4.625,4.58v3.756a1.939,1.939,0,0,1-1.95,1.95H113.94a1.973,1.973,0,0,1-1.95-1.95Z" transform="translate(133.318 63.981)"/><path class="h" d="M165.047,55.941v6.686s.412,3.622-1.95,3.622H114.91s-2.92.513-2.92-1.961V57.055s8.013-4.591,21.174,6.43C140.875,69.993,154.293,51.115,165.047,55.941Z" transform="translate(133.318 66.644)"/><path class="i" d="M114.445,49.045h11.044v2.507H114.445Zm0,3.443h11.044v2.229H114.445Z" transform="translate(136.335 59.152)"/><rect class="j" width="53.057" height="31.916" rx="0.875" transform="translate(225.282 60.456)"/><circle class="k" cx="3.209" cy="3.209" r="3.209" transform="translate(256.987 79.958)"/><circle class="d" cx="3.209" cy="3.209" r="3.209" transform="translate(261.389 79.958)"/><path class="h" d="M103,45.519s1.672-14.487,13.718-8.057c7.8,4.2,11.144,5.683,14.922,4.658,4.825-1.315,10.843-7.388,19.8-2.92,4.625,2.307,4.625,4.58,4.625,4.58v3.756a1.939,1.939,0,0,1-1.95,1.95H104.961A1.972,1.972,0,0,1,103,47.525Z" transform="translate(122.271 42.897)"/><path class="h" d="M156.062,34.952V47.689s.412,3.622-1.95,3.622H105.925S103,51.824,103,49.35V45.695s8.013-8.191,21.174,2.831C131.9,55.033,145.341,30.149,156.062,34.952Z" transform="translate(122.277 41.073)"/><path class="i" d="M105.46,30.855H116.5v2.507H105.46Zm0,3.455H116.5v2.229H105.46Z" transform="translate(125.294 36.8)"/><path class="l" d="M245.379,219.791c-.747-15.022-2.429-29.966-4.257-44.888-1.4-11.411-1.114-26.244-9.406-34.992-4.157-4.368-10.2-6.085-15.992-7.154-.646-.123-1.527-.379-2.418-.579a39.467,39.467,0,0,0,1.282-13.15c-1.215-14.487-11.567-26.01-17.83-39a32.452,32.452,0,0,1-3.5-11.567c-.7-9.751,5.293-18.822,5.572-28.6.245-10.219-6.062-19.714-14.264-25.286-6.107-4.146-13.128-6.43-20.316-7.8-2.6-4.6-8.759-6.352-14.108-6.308C119.463.7,97.9,29.585,97.542,57.166c-.256,17.986,13.919,59.253-8.469,66.719-9.149,3.053-27.381,7.745-28.462,20.215-.958,11.144,8.258,18.209,1.048,29.587-3.722,5.828-9.807,9.617-16.248,11.579-11.679,3.644-24.862,1.114-34.959,9.673-5.706,4.825-8.559,12.526-9.573,20.126-3.065,22.711,9.74,46.76,29.8,55.988,10.03,4.625,21.3,5.728,32.318,5.3q2.439-.09,4.87-.312a10.286,10.286,0,0,0,8.458,7.11,39.985,39.985,0,0,0,18.733-1.727c9.082-3.187,17.83-10.03,23.859-16.905a51.168,51.168,0,0,0,4.235-5.806l.758-.914a146.421,146.421,0,0,0,120.255-18.711c.1-.334.2-.657.279-1C245.835,232.149,245.7,225.92,245.379,219.791Z" transform="translate(-0.427 41.804)"/><path class="m" d="M171.888,32.829c-1.894-5.862-9.138-8.024-15.3-7.968-31.471.267-53.6,28.607-54,55.72-.256,17.652,14.3,58.127-8.7,65.449-9.394,3-28.116,7.589-29.22,19.836-.981,10.9,8.469,17.83,1.114,28.974-3.789,5.717-10.03,9.394-16.649,11.356-11.991,3.577-25.52,1.114-35.884,9.495-5.862,4.736-8.781,12.258-9.829,19.747-3.131,22.288,10.03,45.869,30.6,54.929,10.319,4.536,21.853,5.572,33.12,5.2,12.258-.446,25.141-2.875,34.48-10.865,5.082-4.346,8.781-10.03,11.991-15.925a70.454,70.454,0,0,0,7.422-18.5,47.217,47.217,0,0,0-2.073-26.946c-3.889-10.085-11.356-20.728-7.021-30.635,3.176-7.266,11.445-10.542,18.789-13.529,9.517-3.856,19.09-8.614,25.542-16.593s8.915-19.959,3.466-28.629c-6.073-9.573-20.494-13.885-21.742-25.152-.423-3.834.914-7.7.49-11.534-.334-2.975-1.716-5.728-2.574-8.592a25.81,25.81,0,0,1,9.8-27.838c5.695-3.956,12.827-5.416,18.51-9.383S173.7,39,169.236,33.7" transform="translate(-0.666 29.433)"/><path class="n" d="M103.245,70.215a33.722,33.722,0,0,0,1.894,28.25A37.968,37.968,0,0,1,73.4,98.186c-1.95-.936-4.056-2.4-4.157-4.558a7.662,7.662,0,0,1,.691-2.9,24.209,24.209,0,0,0-.123-16.538A31.326,31.326,0,0,0,102.6,70.572" transform="translate(80.793 85.166)"/><path class="n" d="M68.537,95.687s10.1,29.922,33.432,28.618c21.3-1.192,24.015-34.959,24.015-34.959s5.316,3.878,6.207-7.31-4.747-12.927-8.626-8.358c1.036-1.215.7-6.307.78-7.935a41.911,41.911,0,0,0-.223-7.734c-.613-4.558-3.912-10.542-6.686-14.164a20.126,20.126,0,0,0-10.91-7.221A35.148,35.148,0,0,0,80.1,40.2c-3.956,2.407-8.6,6.241-11.144,10.163a34.48,34.48,0,0,0-5.906,21.92c.078.814.089,4.87.713,5.3,0,0-4.87-3.343-5.449,3.455s2.5,22.177,10.219,14.643Z" transform="translate(67.281 42.498)"/><path class="o" d="M74.017,56.374a2.229,2.229,0,1,1-1.772-2.8A2.351,2.351,0,0,1,74.017,56.374Zm26.389-.412a2.229,2.229,0,1,1-1.761-2.808A2.363,2.363,0,0,1,100.406,55.962Z" transform="translate(81.28 64.16)"/><path class="p" d="M91.208,65.609c-4.781,1.114-12.537,2.229-18.2-1.2,0,0,1.872,11.445,10.821,11.322,6.987-.1,7.232-9.339,7.232-9.339a6.588,6.588,0,0,0,.145-.78Z" transform="translate(85.419 78.027)"/><path class="q" d="M91.208,65.615s-.145.947-.223,1.672S79.474,72.591,73.01,64.4C72.988,64.411,79.017,68.468,91.208,65.615Z" transform="translate(85.419 78.02)"/><path class="r" d="M85.673,69.973S79.722,65.013,75.12,69.6C75.12,69.6,80.536,74.14,85.673,69.973Z" transform="translate(88.012 82.021)"/><ellipse class="s" cx="7.556" cy="7.154" rx="7.556" ry="7.154" transform="matrix(0.2, -0.98, 0.98, 0.2, 142.066, 140.513)"/><ellipse class="t" cx="7.556" cy="7.154" rx="7.556" ry="7.154" transform="matrix(0.2, -0.98, 0.98, 0.2, 175.517, 140.937)"/><path class="o" d="M95.456,47.732s10.877-3.143,17.084,5.383A18.521,18.521,0,0,0,95.456,49.7Zm-13.6.847S70.616,47.242,65.88,56.647a18.521,18.521,0,0,1,16.3-6.129Z" transform="translate(76.658 56.843)"/><path class="n" d="M76.429,53.619c-.312-3.343.936,6.954,7.065,10.03,6.441,3.221-.513,8.38-4.29,11.144" transform="translate(89.567 63.962)"/><path class="u" d="M76.448,53.6l-.078-.446v-.178h.123a1.271,1.271,0,0,1,.111.223l.334.847c.223.557.457,1.114.713,1.66a21.993,21.993,0,0,0,1.672,3.154,15.073,15.073,0,0,0,2.229,2.73A9.363,9.363,0,0,0,82.878,62.7c.468.323.97.546,1.549.88a5.9,5.9,0,0,1,1.516,1.293,3.212,3.212,0,0,1,.747,1.972,5.461,5.461,0,0,1-1.616,3.533,24.64,24.64,0,0,1-5.795,4.458c.914-.8,1.85-1.571,2.719-2.407a19.357,19.357,0,0,0,2.452-2.585,4.993,4.993,0,0,0,1.237-2.975A3.154,3.154,0,0,0,83.881,64.5a17.084,17.084,0,0,1-1.594-.925,10.23,10.23,0,0,1-1.46-1.226A13.518,13.518,0,0,1,78.6,59.316a22.575,22.575,0,0,1-1.449-3.343c-.178-.579-.345-1.17-.49-1.761l-.212-.88v-.189h0V53.6Z" transform="translate(89.548 63.981)"/><path class="m" d="M101.574,31.5c1.449,5.728-1.192,11.857-5.2,16.181s-9.283,7.255-14.342,10.308S71.9,64.431,68.655,69.345c-2.229,3.243-3.455,7.533-1.783,11.066,1.493,3.143,4.959,4.959,6.519,8.068,1.438,2.842,1.014,6.319-.223,9.261a19.959,19.959,0,0,0-5.739-9.149c-1.549-1.393-3.343-2.552-4.747-4.068C57.444,78.951,58,70.17,60.018,62.815a27.414,27.414,0,0,1,3.042-7.5c8.336-13.15,2.084-4.58,12.325-9.684C79.843,43.4,84.535,36.994,89.3,35.367c4.547-1.549,9.952.847,10.888-3.867" transform="translate(67.676 37.593)"/><path class="n" d="M86.508,74.429c.4,11-5.661,13.841-10.23,15.368A71.121,71.121,0,0,1,56.72,93.3a16.36,16.36,0,0,0,1.95,6.475c9.394,16.928,29.353,27.091,48.644,25.575s37.1-14.253,45.568-31.649q-14.13-1.616-28.094-4.38c-3.878-.769-7.9-1.672-10.977-4.157a28.87,28.87,0,0,0-2.619-2.129,12.336,12.336,0,0,0-4.034-1.415c-7.422-1.594-13.105-7.946-20.65-7.188" transform="translate(65.402 90.268)"/><path class="v" d="M69.506,72.43c.769.6,1.181,2.585,1.493,6.263.39,4.458,3.343,8.469,5.728,11.868a29.932,29.932,0,0,0,14.3,11.3,145.419,145.419,0,0,1,10.252-28.451,17.083,17.083,0,0,1-10.286,4.168,40.808,40.808,0,0,1-11.233-.992c-3.065-.6-7.333-1.66-10.264-4.146" transform="translate(81.1 87.888)"/><path class="w" d="M59.4,82.878H62a1.928,1.928,0,0,1,.8.111,2,2,0,0,1,.713.68A28.685,28.685,0,0,0,86.239,94.813a2.777,2.777,0,0,1,1.114.145,2.675,2.675,0,0,1,1.114,1.114,90.935,90.935,0,0,0,13.841,17.173c-3.544-.2-7.678-3.042-10.386-5.349a16.493,16.493,0,0,1-5.371-8.982c-7.868,1-16.17.189-23.1-3.644a17.273,17.273,0,0,1-6.185-5.338c-1.527-2.285-2.429-4.368-1.66-7.01" transform="translate(63.687 100.72)"/><path class="x" d="M214.778,186.939c-.089.334-.178.657-.29.981A156.1,156.1,0,0,1,34.345,177.511q1.638-12.4,4.335-24.65A300.887,300.887,0,0,1,55.864,99.514c4.58-10.7,17.83-18.421,29.331-16.526,3,10.2,13.785,17.608,27.86,14.8,6.686,15.3,16.359,18.354,27.715,15.479,15.056-3.811,28.094-13.93,37.165-26.545.847-1.192.691-3.154,2.028-3.733s3.912.345,5.338.6c5.951,1.059,12.147,2.73,16.415,7.021,8.559,8.581,8.224,23.135,9.662,34.335,1.872,14.643,3.6,29.3,4.368,44.041C216.126,174.993,216.271,181.111,214.778,186.939Z" transform="translate(37.908 100.509)"/><path class="m" d="M75.421,27.1c9.952,1.237,20.059,3.421,28.484,8.915S118.794,50.8,118.548,60.827c-.245,9.595-6.4,18.488-5.672,28.061a30.8,30.8,0,0,0,3.588,11.345c6.408,12.738,17.039,24.049,18.287,38.257.713,8.091-1.816,16.159-5.327,23.48-2.229,4.725-5.015,9.506-4.97,14.743s4.357,10.865,9.517,10.03c-1.493,3.834-5.572,6.207-9.706,6.564s-7.8-3.421-11.835-2.9C73.794,195.346,83.545,155.228,91.4,135.09c3.343-8.67,9.484-16.192,12.08-25.13,2.875-9.862,1.2-20.438-1.025-30.457-1.571-7.065-3.722-14.554-9.294-19.168-4.1-3.4-9.562-4.781-13.785-8.035s-6.742-10.03-2.886-13.763" transform="translate(87.354 32.192)"/><path class="y" d="M70.048,106c-3.076,18.945-1.237,27.994-26.968,49.2,5.483-5.16,20.917-10.442,26.4-15.6,1.594-1.5,8.18-.735,9.595-2.4,7.422-8.681,19.079-11.144,14.4-21.6" transform="translate(48.641 129.139)"/><path class="z" d="M57.275,106a145.608,145.608,0,0,1-3.8,35.115" transform="translate(61.415 129.139)"/><path class="aa" d="M167.728,92.912c0,.123-5.572,10.531-10.353,14.933-8.469,7.868-25.854,13.484-28.841,25.888a27.191,27.191,0,0,1-15.379,17.83c-3.923,1.75-8.247,2.585-12,4.68-3.343,1.872-5.416,5.483-8.637,7.589-25.932,16.972,7.868,35.661.2,35.081C41.343,195.2,57.19,177.394,59.486,161.637c.368-2.563,9.517-5.851,12.258-7.411a113.662,113.662,0,0,0,13.8-9.328c1.783-1.4,3.633-2.92,5.862-3.343.8-.145,11.289-15.992,13.629-23.4.791-2.5,1.594-5.215,3.678-6.809a12.025,12.025,0,0,1,3.934-1.716l16.538-4.859a5.1,5.1,0,0,1,3.254-.234,4.541,4.541,0,0,1,2.1,2.151c1.5,2.675,33.009-16.85,33.2-13.774Z" transform="translate(63.773 112.651)"/><rect class="ab" width="52.711" height="31.192" rx="1.5" transform="matrix(-0.787, 0.617, -0.617, -0.787, 234.132, 203.507)"/><path class="ac" d="M84.76,116.831c.323-.379,4.146-6.82,15.6-4.647,9.673.078,14.253-2.474,16.047-5.249s3.9-14.81,7.723-17.028,4.747-1.048,4.747-1.048l3.343,4.313a3.2,3.2,0,0,1-.568,4.692L95.436,126.326a3.143,3.143,0,0,1-4.692-.568l-5.984-8.926Z" transform="translate(99.858 107.698)"/><path class="n" d="M131.52,107.462v.368a4.036,4.036,0,0,1-.7,2.886c-.479.546-1.215.836-1.638,1.415-.97,1.326.111,3.276-.457,4.814s-2.117,1.939-3.2,2.92c-1.616,1.46-2.028,3.778-2.608,5.873a28.049,28.049,0,0,1-15.379,17.83c-3.923,1.75-8.247,2.585-12,4.68a33.321,33.321,0,0,0-8.637,7.589A196.712,196.712,0,0,0,73.27,174.4c-1.025,1.516-21.653-4.959-19.357-20.717.368-2.563,9.517-5.851,12.258-7.411a113.662,113.662,0,0,0,13.785-9.316c1.783-1.4,3.633-2.92,5.862-3.343.8-.145,11.289-15.992,13.629-23.4.791-2.5,1.594-5.215,3.678-6.809a12.024,12.024,0,0,1,3.934-1.716l16.493-4.97a5.1,5.1,0,0,1,3.254-.234,4.541,4.541,0,0,1,2.1,2.151,20.215,20.215,0,0,1,2.619,8.826Z" transform="translate(61.734 117.246)"/><path class="ad" d="M78.11,100.034a84.07,84.07,0,0,1,16.092-.39,1.493,1.493,0,0,1,1.594,1.638,62.085,62.085,0,0,1,1,9.673,6.363,6.363,0,0,1-.936,4.2c-1.326,1.649-3.778,1.66-5.761,2.418" transform="translate(91.686 121.063)"/><path class="ad" d="M89.415,105.283q6.362.077,12.715.479a1.449,1.449,0,0,1,.9.267,1.4,1.4,0,0,1,.334.958,41.235,41.235,0,0,1-.189,6.686,7.924,7.924,0,0,1-.847,3.522c-1.114,1.861-3.544,2.452-5.717,2.6a7.923,7.923,0,0,1-2.808-.189,3.343,3.343,0,0,1-2.14-1.716c-.535-1.192,3.176-3.878,6.073-3.633m-8.391,2.663s5.16,12.983-5.951,21.374-13.852-5.238-13.852-5.238M97.093,98.608c3.889-.947,10.252.267,10.654.39.992.29,1.36,1.471,1.527,2.5a38.87,38.87,0,0,1,.524,7.879" transform="translate(81.162 119.614)"/><path class="x" d="M35.808,129.55c.1-.769,8.993,3.956,9.495,3.343,2.875-3.722,3.12,8.135,3.9,8.581C60.347,134.064,80.919,122.853,83.749,120c-1.114,4.368,14.264,14.621,21.6,15.6-.646,2.229-11.144,23.625-18.287,31.493-6.129,6.686-15.167,13.451-24.517,16.582a42.86,42.86,0,0,1-19.223,1.694c-8.3-1.3-10.163-8.715-9.851-16.025.568-13.273.5-26.679,2.34-39.8Z" transform="translate(36.79 146.342)"/><path class="ae" d="M36.516,151.957l-.936-.357c2.229-5.661,19.056-15.813,32.618-23.971,5.115-3.076,10.42-5.917,12.849-7.645v1.148c-2.463,1.75-7.21,4.224-12.336,7.31-12.671,7.689-30.1,18.176-32.2,23.514ZM73.893,175.17l1.27-1.192a83.1,83.1,0,0,0,17.073-18.833,73.081,73.081,0,0,0,6.1-11.2c.212-.5.423-1.014.624-1.527,1.192-2.931,1.282-4.458,3.678-6.854-1.2,2.4-1.616,4.458-2.741,7.233q-.318.786-.635,1.538a74.263,74.263,0,0,1-6.129,11.345C88.469,162.789,80.735,169.609,73.893,175.17Z" transform="translate(39.425 146.323)"/><circle class="af" cx="3.9" cy="3.9" r="3.9" transform="translate(208.979 204.876) rotate(-23.3)"/><circle class="ag" cx="3.9" cy="3.9" r="3.9" transform="translate(214.417 199.701)"/><path class="ah" d="M104.241,105.85s6.307,19.5,3.466,31.493-5.26,21.753-6.085,30.3-1.549,17.106-1.549,17.106-1.371.29-1.438-.925,5.071-52.778,1.794-65.081c-.022-.078,3.811,0,3.811-12.894Z" transform="translate(116.907 128.954)"/><path class="ae" d="M98.605,175.335a255.876,255.876,0,0,0,.5-68.5l1-.123a256.856,256.856,0,0,1-.435,68.324l-1.07.3Z" transform="translate(116.871 130.011)"/><path class="ai" d="M103.251,103.57c-.457,4.19-.212,16.772-3.811,17.975" transform="translate(117.897 126.153)"/><path class="q" d="M63.637,69.639c4.636,0,4.636-7.2,0-7.2S59,69.639,63.637,69.639Z" transform="translate(69.629 75.612)"/><path class="n" d="M60.71,57.455a10.375,10.375,0,0,0,.713,6.887" transform="translate(69.949 69.486)"/><path class="u" d="M60.86,57.455a22.29,22.29,0,0,0,.067,3.477,9.289,9.289,0,0,0,.256,1.705c.111.591.256,1.114.4,1.716a5.949,5.949,0,0,1-.836-1.594,7.311,7.311,0,0,1-.4-1.761A6.853,6.853,0,0,1,60.86,57.455Z" transform="translate(69.798 69.486)"/><path class="aj" d="M117.111,81.72s7,8.659-2.028,15.134c-7.065,5.071-11.278-3.076-16.928,3.544s-17.24,9.74-17.24,9.74l36.2-28.417Z" transform="translate(95.133 99.303)"/><path class="n" d="M65.74,60.8c-.256-.39-2.351-5.817-5.015-6.686a1.426,1.426,0,0,0-1.5.279,1.85,1.85,0,0,0-.5,1.449,3.526,3.526,0,0,0,.29,1.594,1.727,1.727,0,0,0,1.237.981,1.761,1.761,0,0,0,1.449-.546c.379-.379,2.039,2.719,2.229,2.229" transform="translate(67.849 65.251)"/></svg>