<svg xmlns="http://www.w3.org/2000/svg" xmlns:xlink="http://www.w3.org/1999/xlink" width="352.278" height="317.862" viewBox="0 0 352.278 317.862"><defs><style>.a{fill:#ba5320;}.ao,.ap,.aq,.ay,.b,.k,.n,.u{fill:none;}.c{fill:#d3d3d3;opacity:0.36;}.ab,.ac,.c,.x{fill-rule:evenodd;}.ad,.d,.f{opacity:0.44;}.d{fill:url(#a);}.e,.t{fill:#fff;}.e{opacity:0.41;}.f{fill:url(#b);}.g{fill:#1b2246;}.h{fill:#2a2c7b;}.i{fill:url(#c);}.j{fill:#ffb692;}.k{stroke:#1b2246;}.ap,.k,.n,.u{stroke-miterlimit:10;}.k,.n{stroke-width:0.5px;}.l{fill:url(#d);}.m{fill:url(#e);}.n{stroke:#ba5320;}.ac,.o{fill:#ff5871;}.p{fill:url(#f);}.q{fill:url(#g);}.r,.x{fill:#f3c0a4;}.s{clip-path:url(#h);}.u{stroke:#ecaf93;}.v{fill:url(#i);}.w{fill:#efaa8b;}.y{fill:url(#j);}.z{fill:url(#k);}.aa{fill:url(#l);}.ab{fill:url(#m);}.ad{fill:url(#n);}.ae{clip-path:url(#o);}.af{opacity:0.8;}.ag{fill:#cae5ff;}.ah{fill:#76c1ff;}.ai{fill:#2b78f4;}.aj{fill:#383f82;}.ak{fill:url(#p);}.al{opacity:0.9;}.am{fill:#38447a;}.an{fill:#73a4f4;}.ao,.ap{stroke:#fff;stroke-width:0.26px;}.ao,.aq,.ay{stroke-linecap:round;stroke-linejoin:round;}.aq,.ay{stroke:#76c1ff;}.aq{stroke-width:1.47px;}.ar{fill:url(#r);}.as{fill:url(#s);}.at{fill:url(#t);}.au{fill:url(#u);}.av{fill:url(#v);}.aw{fill:url(#w);}.ax{fill:url(#x);}.az{fill:#ae246c;}.ba{fill:#ea7dc5;}.bb{fill:#ffb0b1;}</style><linearGradient id="a" x1="0.843" y1="1.1" x2="0.157" y2="-0.027" gradientUnits="objectBoundingBox"><stop offset="0" stop-color="#76c1ff" stop-opacity="0.8"/><stop offset="0.01" stop-color="#76c1ff" stop-opacity="0.788"/><stop offset="0.21" stop-color="#76c1ff" stop-opacity="0.549"/><stop offset="0.4" stop-color="#76c1ff" stop-opacity="0.361"/><stop offset="0.58" stop-color="#76c1ff" stop-opacity="0.2"/><stop offset="0.75" stop-color="#76c1ff" stop-opacity="0.09"/><stop offset="0.89" stop-color="#76c1ff" stop-opacity="0.02"/><stop offset="1" stop-color="#76c1ff" stop-opacity="0"/></linearGradient><linearGradient id="b" y1="0.5" x2="1" y2="0.5" gradientUnits="objectBoundingBox"><stop offset="0.37" stop-color="#76c1ff" stop-opacity="0"/><stop offset="0.44" stop-color="#76c1ff" stop-opacity="0.051"/><stop offset="0.57" stop-color="#76c1ff" stop-opacity="0.2"/><stop offset="0.75" stop-color="#76c1ff" stop-opacity="0.431"/><stop offset="0.97" stop-color="#76c1ff" stop-opacity="0.749"/><stop offset="1" stop-color="#76c1ff" stop-opacity="0.8"/></linearGradient><linearGradient id="c" x1="17.382" y1="-0.642" x2="20.598" y2="1.031" gradientUnits="objectBoundingBox"><stop offset="0.55" stop-color="#fff" stop-opacity="0"/><stop offset="1" stop-opacity="0.8"/></linearGradient><linearGradient id="d" x1="8.782" y1="2.027" x2="8.398" y2="0.379" xlink:href="#c"/><linearGradient id="e" x1="18.124" y1="-0.878" x2="20.007" y2="1.529" xlink:href="#c"/><linearGradient id="f" x1="2.367" y1="12.838" x2="1.693" y2="12.571" gradientUnits="objectBoundingBox"><stop offset="0" stop-color="#ef3d59" stop-opacity="0"/><stop offset="0.15" stop-color="#df334e" stop-opacity="0.169"/><stop offset="0.42" stop-color="#c5233d" stop-opacity="0.439"/><stop offset="0.66" stop-color="#b31730" stop-opacity="0.639"/><stop offset="0.86" stop-color="#a71028" stop-opacity="0.761"/><stop offset="1" stop-color="#a30d25" stop-opacity="0.8"/></linearGradient><linearGradient id="g" x1="2.251" y1="22.526" x2="5.283" y2="22.117" gradientUnits="objectBoundingBox"><stop offset="0.56" stop-color="#ef3d59" stop-opacity="0"/><stop offset="0.62" stop-color="#df334e" stop-opacity="0.169"/><stop offset="0.74" stop-color="#c5233d" stop-opacity="0.439"/><stop offset="0.85" stop-color="#b31730" stop-opacity="0.639"/><stop offset="0.94" stop-color="#a71028" stop-opacity="0.761"/><stop offset="1" stop-color="#a30d25" stop-opacity="0.8"/></linearGradient><clipPath id="h"><path class="a" d="M135.88,70.937c.434.485.766-.077,1.367.767,0,0,1.086,3.59,2.862,2.555a4.369,4.369,0,0,0,2.427-3.4A19.533,19.533,0,0,1,135.88,70.937Z" transform="translate(-135.88 -70.86)"/></clipPath><linearGradient id="i" x1="-72.304" y1="145.531" x2="-72.69" y2="144.401" gradientUnits="objectBoundingBox"><stop offset="0.55" stop-color="#ba5320" stop-opacity="0"/><stop offset="0.61" stop-color="#ba5320" stop-opacity="0.141"/><stop offset="0.73" stop-color="#ba5320" stop-opacity="0.38"/><stop offset="0.84" stop-color="#ba5320" stop-opacity="0.561"/><stop offset="0.93" stop-color="#ba5320" stop-opacity="0.659"/><stop offset="0.99" stop-color="#ba5320" stop-opacity="0.698"/></linearGradient><linearGradient id="j" x1="56.586" y1="-0.153" x2="55.134" y2="0.983" xlink:href="#i"/><linearGradient id="k" x1="-40.986" y1="377.035" x2="-41.803" y2="375.92" xlink:href="#f"/><linearGradient id="l" x1="6.298" y1="54.441" x2="7.76" y2="54.701" xlink:href="#g"/><linearGradient id="m" x1="15.278" y1="41.976" x2="14.971" y2="43.122" xlink:href="#f"/><linearGradient id="n" x1="0.5" y1="0" x2="0.5" y2="1" xlink:href="#b"/><clipPath id="o"><path class="b" d="M60.22,109.65,50,155.64s50.679,15.458,75.373,20.082l10.82-47.268S95.1,119.538,60.22,109.65Z" transform="translate(-50 -109.65)"/></clipPath><linearGradient id="p" x1="0.199" y1="0.743" x2="1.609" y2="-0.152" gradientUnits="objectBoundingBox"><stop offset="0.01" stop-color="#fff" stop-opacity="0"/><stop offset="0.37" stop-color="#8e92a3" stop-opacity="0.102"/><stop offset="1" stop-color="#1b2246" stop-opacity="0.2"/></linearGradient><linearGradient id="r" x1="440.113" y1="-544.783" x2="440.717" y2="-544.783" gradientUnits="objectBoundingBox"><stop offset="0" stop-color="#7687d6" stop-opacity="0"/><stop offset="0.34" stop-color="#5a69ac" stop-opacity="0.18"/><stop offset="0.73" stop-color="#414e87" stop-opacity="0.341"/><stop offset="1" stop-color="#38447a" stop-opacity="0.4"/></linearGradient><linearGradient id="s" x1="658.655" y1="-490.599" x2="660.02" y2="-490.599" xlink:href="#r"/><linearGradient id="t" x1="311.897" y1="-314.472" x2="312.877" y2="-314.472" xlink:href="#r"/><linearGradient id="u" x1="153.999" y1="-243.163" x2="155.078" y2="-243.163" xlink:href="#r"/><linearGradient id="v" x1="592.702" y1="-304.11" x2="594.714" y2="-304.11" xlink:href="#r"/><linearGradient id="w" x1="299.298" y1="-1493.177" x2="299.941" y2="-1493.177" xlink:href="#r"/><linearGradient id="x" x1="229.78" y1="-694.964" x2="230.281" y2="-694.964" xlink:href="#r"/></defs><g transform="translate(0 0)"><path class="c" d="M267.009,182.6a64.937,64.937,0,0,0-7.269-17.016h0c-6.656-14.231-16.991-30.379-28.578-40.816l-2.21-2.006.115-.153a1.8,1.8,0,0,0,0-2.312l-4.254-4.829a1.686,1.686,0,0,0-2.555,0l-.779.907a149.328,149.328,0,0,0-20.785-14.231h0l.128-.141a40.648,40.648,0,0,0-3.922-1.942h0l-1.61-.843a21.566,21.566,0,0,0-3.385-1.188h-.2c-1.341-.383-2.734-.728-3.692-.945h0c-3.143-.754-6.285-1.482-9.466-1.98.179-2.363.064-3.309.319-6.017.077-.8.141-1.648.192-2.555a79.657,79.657,0,0,1,3.551-7.665c3.04-7.384,5.685-15.33.4-22.5a21.424,21.424,0,0,0-21.373-8.789c-8.278,1.392-8.8,1.852-9.326,1.75-.294,3.232,0,6.886,3.475,8.2V57.6c-4.407,4.28-3.909,11.766-3.436,17.527s.869,13.8,7.972,15.164a5.347,5.347,0,0,1-.128.907c-.051.294-.141.69-.217,1.035l-.217.869h0c-2.274-.166-4.51-.294-6.8-.294a.4.4,0,0,0,0-.1c-4.165.2-8.023.677-11.715,2.772a28.22,28.22,0,0,0-6.822,6.388c-.6.677-1.214,1.418-1.8,2.082h0l-1,1.048q-3.692,3.96-7.5,7.806h0c-.613.626-1.277,1.278-1.852,1.916-.268-.358-.537-.728-.83-1.086a1.354,1.354,0,0,0-2.082,0l-5.033,5.838a1.993,1.993,0,0,0-.281,2.172l.128.281h0c-.332.2-3.526,2.006-3.73,1.712a70.479,70.479,0,0,0-4.356-5.979c-2.8-3.245-6.388-5.506-18.4-21.718a14.523,14.523,0,0,1-1.814-2.657c-.971-2.21.179-4.765.434-7.039a20.9,20.9,0,0,0,0-3.436c0-.46-.179-1-.192-1.533s.447-1.865-.473-1.967c-1.277-.141-1.584,1.942-1.584,2.913,0,.652.2,1.482-.5,1.737-1.073.37-1.661-1.048-2.006-1.776a41.636,41.636,0,0,1-1.584-3.909c-.281-.8-.485-1.686-.715-2.427a5.365,5.365,0,0,0-.856-2.082c-.473-.537-.984.115-1.111.562a4.7,4.7,0,0,0,0,2.185,17.206,17.206,0,0,0,.626,2.363,12.531,12.531,0,0,1,.626,1.967c0,.166,0,.5-.179.537s-.409-.281-.511-.409a10.847,10.847,0,0,1-1.124-1.8,17.08,17.08,0,0,1-.881-1.865c-.217-.588-.383-1.15-.575-1.648a2.338,2.338,0,0,0-.664-1.278c-.4-.307-.843,0-1,.473a2.926,2.926,0,0,0,0,1.405,17.386,17.386,0,0,0,1.124,3.833c.243.613.575,1.278.818,1.814a3.257,3.257,0,0,1,.537,1.52c-.115,1.009-1.009.153-1.405-.255a9.572,9.572,0,0,1-1.137-1.278,9.159,9.159,0,0,1-.882-1.622c-.2-.422-1.277-3.36-2.21-2.389-.345.4-.1,1.1,0,1.6a13.337,13.337,0,0,0,1.6,3.833c.243.4.537.651.818,1.124a4.752,4.752,0,0,1,.869,1.686c0,.294,0,.664-.358.83s-1.009-.23-1.354-.613-.818-1.035-1.111-1.418-.537-.69-.792-1.009-.268-.473-.652-.588a.537.537,0,0,0-.664.588,1.928,1.928,0,0,0,.307.69,25.552,25.552,0,0,0,2.555,4.05,43.007,43.007,0,0,0,2.964,3.219,22.477,22.477,0,0,1,2.7,2.938c.8,1.188,8.789,22.522,14.244,31.312,3.654,5.889,7.857,12.021,13.158,16.608,2.67,2.3,9.543.473,12.468-.473a2.27,2.27,0,0,1-.1.741h0s4.484-1.993,7.882-3.245a12.435,12.435,0,0,0,.907-1.712c2.082-1.15,4-2.248,5.225-2.887,2.644-1.38,1.559-.907,3.334-1.814a51.817,51.817,0,0,1-3.436,12.775c-.2.473-.358.843-.562,1.278-2.836,6.03-10.795,10.028-14.423,15.624l-.089-.077-6.043,2.811c-8.687,3.539-51.317,21.488-55.508,24.771a12.4,12.4,0,0,0-2.849,3.015l.524-.549c-.166.217-.319.422-.473.651h0c-2.555,3.833-3.322,10.476,2.248,23.838,2.555,6.043,6.234,15.33,10.028,25.026h0c4.114,10.437,8.317,21.245,11.229,28.744-2.07,16.608-3.488,32.7-4.139,35.77-.83,3.832,7.295,2.823,14.053-2.4L83.6,307.7a24.693,24.693,0,0,0-1.086,2.223c-1.277,1.814-5.749,7.857-12.226,17.182-4.458,6.388-6.566,11.957,5.621,8.368a18.5,18.5,0,0,0,13.375-14.934l.485,2.938s8.061-3.437,8.112-6.477c0-2.287-1.073-8.943-1.737-14.27v-.115h0v-.128a2.558,2.558,0,0,0-.1-.332l-1.188-3.833L93.2,293.1v-.166l.268-1.367a19.33,19.33,0,0,0,.575-2.913l.281-1.405.754,2.3s7.435-4.625,7.026-7.665a133.279,133.279,0,0,0-3.833-14.9c1.469-7.384,2.849-14.193,3.488-17.016,1.686-7.473,8.943-13.759,18.549-19.789,13.605-8.572,28.6-16.071,37.559-30.009a72.431,72.431,0,0,0,4.42-8.278l1.507-3.155a6.95,6.95,0,0,0,7.793-3.935c2.21-4.931,3.04-9.019,6.387-14.053l.179-.255c4.292-6.388,7.563-13.427,11.14-20.261,1.967-4.727,3.832-9.556,5.493-14.564.128-.383.256-.779.383-1.163.37-1.354.677-2.555.907-3.692.217-.843.447-1.7.677-2.555a76.661,76.661,0,0,1,9.1,2.683q2.836,1.086,5.621,2.274v.013l.281.115a2.606,2.606,0,0,1-.128.524l8.674,4.139s.243-.562.664-1.495c1.942,1.073,3.833,2.21,5.71,3.449,8.087,10.527,17.885,20.53,26.393,30.66.588.83,1.175,1.674,1.8,2.555a2.547,2.547,0,0,0-.2.434,7.665,7.665,0,0,0-.907,3.833c-.1,2.376,1.111,5.864-.179,8.943-.639,1.52,2.248.562,2.926-.818.294-.6.677-1.507,1.163-2.351a5.916,5.916,0,0,1,.933,3.526,50.514,50.514,0,0,1-1.354,5.557c-.434,1.9.728,2.81,2.555,1.955s4.114-1.661,5.391-3.6S266.638,185.147,267.009,182.6ZM98.11,206.7c-5.57,8.866-11.293,18.307-14.487,24.49-3.13-8.661-5.583-16.378-5.979-20.236C77.644,210.952,86.894,209.177,98.11,206.7Z" transform="translate(13.808 -18.737)"/><path class="d" d="M115.857,89.282l-5.544,30.532-5.57,30.66a514.459,514.459,0,0,0-62.789-6.95C5.659,141.609,0,146.425,0,146.425L12.954,83.763C14.346,77.018,56.491,79.7,115.857,89.282Z" transform="translate(0.034 -9.64)"/><path class="e" d="M12.005,86.85S34.822,82.162,63.9,88.128L53.588,135.012s-38.134-8.444-52.518,3.13Z" transform="translate(0.331 -8.231)"/><path class="f" d="M301.416,145.474l-12.954,62.674s-.626-16.735-105.432-38.721l6.043-31.031,6.081-31.2C258.671,122.849,302.9,138.358,301.416,145.474Z" transform="translate(50.825 -2.097)"/><path class="e" d="M287.443,145.478S268.485,131.949,239.5,125.6l-9.569,47.05s38.325,7.742,46.744,24.132Z" transform="translate(63.841 3.009)"/><path class="g" d="M92.073,224.657s-5.851,12.775-10.22,19.163-4.19,13.158,7.307,7.729a18.5,18.5,0,0,0,10.923-16.812l.933,2.823s7.435-4.625,7.026-7.665-3.475-15.049-5.11-18.434Z" transform="translate(22.016 26.835)"/><path class="h" d="M141.564,167.923c-13.3,6.388-56.031,14.423-56.031,14.423.409,4.037,3.066,12.264,6.387,21.4,6.515,17.885,15.624,39.168,15.624,39.168-2.082,7.665-20.785,9.569-20.785,9.569s-7.665-19.84-15-38.466h0c-3.833-9.7-7.563-19.073-10.08-25.129-5.544-13.363-4.816-19.98-2.261-23.838h0a12.418,12.418,0,0,1,2.9-3.04c4.2-3.283,46.821-21.232,55.508-24.771l6.106-2.887L136.2,144.481l1.367.7,13.771,7.141Z" transform="translate(15.986 5.437)"/><path class="i" d="M104.413,227.748c-2.082,7.665-20.785,9.568-20.785,9.568s-7.665-19.84-15-38.466a57.7,57.7,0,0,0,8.674,3.513c4.625,1.495,10.067-10.475,11.5-13.784C95.3,206.44,104.413,227.748,104.413,227.748Z" transform="translate(19.079 20.486)"/><path class="g" d="M87.121,251.481s-4.829,6.464-12.66,17.77c-4.458,6.387-6.566,11.957,5.621,8.368a18.5,18.5,0,0,0,13.375-14.934l.549,2.849s8.061-3.436,8.112-6.477-1.942-13.81-2.2-19Z" transform="translate(19.725 34.772)"/><path class="j" d="M97.052,245.444a5.52,5.52,0,0,1-.319.588c-1.06,1.712-6,8.3-11.421,10.642s-.792-6.107-.792-6.107l4.51-9.9,6.477-3.436,1.1,3.028Z" transform="translate(22.978 33.986)"/><path class="h" d="M165.763,158.961c-.818,2.159-1.814,4.024-2.555,5.647-7.4,15.19-23.723,28.309-36.1,36.575-9.39,6.273-16.863,12.3-18.549,19.776s-8.6,42.95-8.6,42.95C96.012,278.382,76.338,283.99,77.6,278.05s5.353-60.337,11.5-73.533,30.66-50.206,30.66-50.206l9.811-15.471L165.048,152.8l.409,3.73S166.415,157.236,165.763,158.961Z" transform="translate(21.553 6.683)"/><path class="k" d="M99.78,171.419s9.888-15.739,11.574-17.489" transform="translate(27.723 10.87)"/><path class="l" d="M143.124,153.647A176.861,176.861,0,0,1,122.4,143.8c-8.176-4.88-30.66,8.687-42.962,12.545s-16.825,4.6-20.44,8.61a12.429,12.429,0,0,1,2.849-3.015c4.2-3.283,46.821-21.232,55.508-24.771l6.107-2.887,12.264,10.131,1.367.7Z" transform="translate(16.407 5.417)"/><path class="m" d="M115.152,155.77S92.323,169.414,79.28,173.949a4.6,4.6,0,0,1,.358,2.312c5.429-1.035,17.17-3.59,19.865-4.126,4.1-.869,6.119-1.431,6.119-1.431S111.984,160.676,115.152,155.77Z" transform="translate(22.034 11.381)"/><path class="k" d="M78.887,167.017a21.077,21.077,0,0,1,1.469,6.2A13.426,13.426,0,0,0,76,166.94" transform="translate(21.124 14.481)"/><path class="k" d="M135.3,158s-6.158,10.488,1.789,15.164" transform="translate(36.95 12)"/><path class="j" d="M219.16,137.682c2.376,3.04,6.694,12.635,7.78,17.719-.383,2.555-.5,6.094-1.776,8.035s-3.6,2.759-5.391,3.6-2.951,0-2.555-1.955a50.456,50.456,0,0,0,1.354-5.557c.294-2.223-1.6-4.676-3.219-6.937-.7-.984-1.559-4.918-.524-6.63-1.048-1.533-1.993-2.849-2.989-4.292,1.482-2.133,3.117-4.05,4.5-6.388C218.049,137.3,216.771,134.641,219.16,137.682Z" transform="translate(58.82 5.695)"/><path class="j" d="M215.647,142.54a7.665,7.665,0,0,0-2.248,5.672c-.1,2.376,1.111,5.864-.179,8.943-.639,1.52,2.248.562,2.925-.818s1.6-3.833,3.117-4.433,1.559-2.862,1.8-4.241C219.237,145.938,217.461,144.329,215.647,142.54Z" transform="translate(59.178 7.71)"/><path class="n" d="M219.222,155a18.55,18.55,0,0,1-1.418,4.637c-.575,1.06-.7,1.086-1.214,1.98" transform="translate(60.139 11.167)"/><path class="n" d="M221.1,154a19.559,19.559,0,0,1-1.444,5.251,22.169,22.169,0,0,1-1.942,2.721" transform="translate(60.449 10.89)"/><path class="n" d="M223.149,152.75c-.37,1.277-.613,2.913-1,4.19a11.307,11.307,0,0,1-2.913,4.5" transform="translate(60.874 10.543)"/><path class="o" d="M190.163,90.029c-2.555,3.1-6.835,4.88-6.017,10.016,1.124,7.116,2.657,9.965,2.006,15.649v.37c-.1.8-.243,1.674-.434,2.555s-.524,2.338-.907,3.692c-.128.383-.243.779-.383,1.163-1.648,5.008-3.526,9.824-5.493,14.564-3.577,6.835-6.847,13.848-11.14,20.261l-.179.255c-4.51,6.758-1.955,13.35-6.477,20.811-7.6-5.11-24.758-6.72-30-8.559-7.78-2.734-18.1-6.119-23.327-13.273a10.771,10.771,0,0,1-.7-1l-.345-.549c-.064-.1-.128-.2-.179-.307-.255-.434-.485-.869-.7-1.278a5.562,5.562,0,0,1-.383-.933v-.089a6.183,6.183,0,0,1-.243-1.546h0c0-.256.179-.294.307-.473l.933-1.354c3.526-5.174,11.114-8.879,13.695-14.576.179-.4.358-.779.562-1.278a52.519,52.519,0,0,0,3.513-13.018l-.166.077c-1.776.907-.69.434-3.334,1.814s-8.163,4.676-11.957,6.388v-.166l-.639.332.728-.882c.473-2.926,1-6.388,1.495-10.143a18.089,18.089,0,0,0-2.363-12.009c1.967-1.814,3.833-3.833,5.621-5.7q3.832-3.832,7.5-7.806l1-1.048h0c.779-.818,1.559-1.622,2.363-2.414a41.854,41.854,0,0,1,3.577-3.7,16.748,16.748,0,0,1,6.771-3.743,20.44,20.44,0,0,1,7.665-1.1,57.49,57.49,0,0,1,6.566.319l.613.089a16.736,16.736,0,0,0,1.712.153,15.772,15.772,0,0,1,1.75.115h.345l1.405.115,1.278.115h0c3.832.358,7.665.766,11.5,1.341,3.232.5,6.477,1.1,9.735,1.891h.166c.741.179,1.495.383,2.261.6h0a52.237,52.237,0,0,1,6.388,2.274,40.672,40.672,0,0,1,4.037,1.891Z" transform="translate(29.244 -9.365)"/><path class="p" d="M153.513,81.308l-.294.307c-3.245,3.232-3.3.46-6.95,4.28l-.077.077c-.294.307-.626.664-.971,1.073-4.855,5.647-9.735,11.217-10.539,24.681-.677,11.165-2.338,24.273-12.456,38.044-2.082,2.849-6.886,9.671-10.9,11.229a17.681,17.681,0,0,1-3.539-3.424,10.785,10.785,0,0,1-.7-1l-.345-.549c-.064-.1-.128-.2-.179-.307-.255-.434-.485-.869-.7-1.277a8.036,8.036,0,0,1-.473-1.111v-.089a3.577,3.577,0,0,1-.268-1.546.319.319,0,0,1,0-.1h0c0-.256.192-.281.307-.473,3.552-5.736,11.715-9.76,14.6-15.892.2-.422.358-.792.562-1.278a51.8,51.8,0,0,0,3.437-12.775v-.243c-1.942,1.035-.83.447-3.475,1.9s-8.291,4.548-11.83,6.388h0l-.639.332.728-.881c5.659-6.847,11.357-13.733,13.171-22.663C124.054,95.872,119.237,95,119.237,95c.754-.792,1.444-1.52,2.236-2.363l.6-.664h0c.588-.664,1.2-1.405,1.8-2.082a28.234,28.234,0,0,1,6.784-6.311c3.692-2.1,7.537-2.555,11.715-2.772a.385.385,0,0,1,0,.1c2.287,0,4.535.128,6.8.294h0l3.117.243A1.533,1.533,0,0,0,153.513,81.308Z" transform="translate(29.204 -9.421)"/><path class="q" d="M172.952,108.706l-.089.319c-.23.856-.46,1.712-.677,2.555-.447,1.635-.869,3.258-1.278,4.855-1.648,5.008-3.526,9.824-5.493,14.564-3.577,6.835-6.847,13.848-11.14,20.261l-.179.255c4.51-14.742,6.822-29.383-.255-44.163a18.193,18.193,0,0,0,5.4-.792c1.763.192,3.436.524,5.212.639a13.463,13.463,0,0,1,1.788.179c1.111.128,2.2.307,3.424.549a30.214,30.214,0,0,1,3.015.652Z" transform="translate(42.725 -2.275)"/><path class="r" d="M162.187,74.808c-1.278,4.024-1.278,8.24-1.674,11.779-.255,2.721-.153,3.666-.319,6.03-1.456.8-1.354.741-3.194,1.725-4.331,2.3-11.05,5.353-16.109,4.969-1.559-.115-2.223-.639-2.478-1.431-.945-2.9,1.418-5.174,3-7.231a18.252,18.252,0,0,0,.562-2.811c-7.1-1.367-7.5-9.4-7.972-15.164s-.971-13.261,3.437-17.527c-.7-10.016,14.512-10.782,22.088-5.915S164.806,66.76,162.187,74.808Z" transform="translate(37.138 -18.991)"/><path class="g" d="M132.856,47.339c-.307,3.27-.268,7.1,3.181,8.674,6.579,3,13.823-.562,16.148,1.98s-.511,6.388,1.073,7.946,1.789-2.21,3.194-.933c2.964,2.683-.422,9.939.141,13.976.243,1.7,1.916,5.008,4.241,5.468a79.826,79.826,0,0,1,3.654-7.959c3.04-7.384,5.685-15.33.4-22.5s-12.009-9.006-20.312-7.933C138.055,46.879,133.38,47.467,132.856,47.339Z" transform="translate(36.869 -19.142)"/><path class="g" d="M142.755,62.378c0,.358-.2.779-.613.766s-.575-.46-.562-.818.2-.779.613-.766S142.768,62.02,142.755,62.378Z" transform="translate(39.323 -14.763)"/><path class="g" d="M136.926,61.638c0,.358-.2.779-.613.766s-.575-.46-.562-.818.2-.779.613-.766S136.938,61.28,136.926,61.638Z" transform="translate(37.705 -14.968)"/><path class="g" d="M141.43,59.111a3.181,3.181,0,0,1,2.21-.473,3.219,3.219,0,0,1,2.018,1.022,17.382,17.382,0,0,1-2.121-.23A11.557,11.557,0,0,1,141.43,59.111Z" transform="translate(39.281 -15.584)"/><path class="g" d="M137.4,58.819a11.5,11.5,0,0,1-1.277,0H134.84a1.341,1.341,0,0,1,1.277-.728A1.405,1.405,0,0,1,137.4,58.819Z" transform="translate(37.453 -15.726)"/><path class="a" d="M135.88,70.937c.434.485.766-.077,1.367.767,0,0,1.086,3.59,2.862,2.555a4.369,4.369,0,0,0,2.427-3.4A19.533,19.533,0,0,1,135.88,70.937Z" transform="translate(37.741 -12.182)"/><g class="s" transform="translate(173.621 58.678)"><path class="t" d="M137.418,71.173a3.875,3.875,0,0,0,.153.7,4.854,4.854,0,0,0,4.918-1.086l-5.2-.089A4.189,4.189,0,0,1,137.418,71.173Z" transform="translate(-135.489 -70.904)"/></g><path class="u" d="M139.157,62.85c-.856,1.048-2.044,2.9-2.7,3.9s-1.418,2.683-.345,3.028,1.686-.077,2.632,0" transform="translate(37.658 -14.405)"/><path class="v" d="M149.1,83.142c-2.414,1.559-7.972,1.674-10,3.679-1.469,1.444-1.277,1.942-1.852,3.513-.422-2.862,1.354-5.187,3.168-7.218a26.6,26.6,0,0,0,.562-2.785,17.259,17.259,0,0,0,12.775-7.052C153.417,77.253,152.778,80.8,149.1,83.142Z" transform="translate(38.102 -11.51)"/><path class="w" d="M153.938,65.167c0,1.507-.613,4.331-2.555,4.229s-2.236-2.989-2.172-4.5.613-4.331,2.555-4.229S154.053,63.647,153.938,65.167Z" transform="translate(41.439 -15.01)"/><path class="k" d="M125.263,93.21c-3.475,7.665-4.791,15.879-5.493,24.145" transform="translate(33.271 -5.98)"/><path class="k" d="M154.06,105.39a24.5,24.5,0,0,0,8.265,1.942c2.772.345,6.311.754,9.16,1.354" transform="translate(42.786 -2.6)"/><path class="k" d="M159.584,106.58c-2.21.5-4.727,1.163-7.013.613" transform="translate(42.373 -2.269)"/><path class="x" d="M117.237,134.191c-2.747.92-10,2.951-12.775.575-5.289-4.561-9.5-10.693-13.158-16.608-5.429-8.751-13.427-30.1-14.219-31.286a22.5,22.5,0,0,0-2.708-2.9,43.2,43.2,0,0,1-2.964-3.219,25.549,25.549,0,0,1-2.555-4.05,1.929,1.929,0,0,1-.307-.69.537.537,0,0,1,.664-.588c.383.115.409.281.652.588s.5.613.792,1.009.767,1.035,1.111,1.418.933.766,1.354.613.383-.537.358-.83a4.753,4.753,0,0,0-.869-1.686c-.281-.46-.575-.715-.818-1.124a13.339,13.339,0,0,1-1.6-3.833c-.128-.485-.37-1.2,0-1.6.869-.971,2.018,1.967,2.21,2.389a9.122,9.122,0,0,0,.881,1.622,9.467,9.467,0,0,0,1.137,1.277c.4.409,1.278,1.277,1.405.256a3.258,3.258,0,0,0-.537-1.52c-.23-.537-.562-1.2-.818-1.814a17.387,17.387,0,0,1-1.124-3.832,2.913,2.913,0,0,1,0-1.405c.153-.422.588-.779,1-.473a2.338,2.338,0,0,1,.664,1.277c.192.511.358,1.06.575,1.648a17.08,17.08,0,0,0,.8,1.789A10.794,10.794,0,0,0,77.519,73c.1.115.307.434.511.409s.2-.37.179-.537a12.631,12.631,0,0,0-.626-1.967,17.212,17.212,0,0,1-.575-2.261,4.675,4.675,0,0,1,0-2.185c.128-.447.639-1.111,1.111-.562a5.378,5.378,0,0,1,.843,2.018c.23.741.434,1.635.715,2.427a41.655,41.655,0,0,0,1.584,3.909c.345.728.933,2.159,2.006,1.776.69-.255.485-1.086.5-1.737,0-.984.255-3.066,1.584-2.913.933.1.473,1.431.473,1.967s.153,1.073.192,1.533a20.9,20.9,0,0,1,0,3.437c-.243,2.274-1.405,4.816-.434,7.039a14.524,14.524,0,0,0,1.737,2.683c11.957,16.25,15.6,18.511,18.4,21.718a70.32,70.32,0,0,1,4.356,5.979c.2.294,3.4-1.507,3.73-1.712a25.207,25.207,0,0,0,3.833-2.887,47.714,47.714,0,0,1,1.277,14.691,48.549,48.549,0,0,1-1.674,8.368Z" transform="translate(19.056 -13.617)"/><path class="y" d="M107.516,124.956s2.018-11.5-5.366-19.661a17.656,17.656,0,0,0,4.522-3.028c1.367-1.546,7.55,11.5,7.55,11.5S109.176,123.117,107.516,124.956Z" transform="translate(28.381 -3.502)"/><path class="z" d="M142.34,89.094a11.931,11.931,0,0,0,1.776-.255c3.832-.741,10.22-1.967,13.848-2.555,4.957-.779,8.559-1.712,13.171-.8-4.5-1.06-8.943-2.236-13.414-2.938A72.231,72.231,0,0,1,145.227,88.3C144.729,88.506,143.094,88.9,142.34,89.094Z" transform="translate(39.534 -8.941)"/><path class="o" d="M108.208,118.25a1.186,1.186,0,0,1-.089.549h0l-.639.332Z" transform="translate(29.86 0.969)"/><path class="r" d="M227.363,147.206c-2.121,2.185-4.28,3.1-6.388,5.251-8.534-10.143-18.447-20.21-26.6-30.826a81.218,81.218,0,0,0-10.118-5.736c1.622-4.867,7.5-9.492,11.191-12.494q1.674,1.456,3.373,2.989C210.347,116.839,220.694,132.974,227.363,147.206Z" transform="translate(51.167 -3.152)"/><path class="o" d="M191.229,122.587c1.278-2.555,2.555-4.957,2.951-6.03.588-1.533,4.433-5.251,7.665-8.214a154.387,154.387,0,0,0-32.116-22.1,41.06,41.06,0,0,0-7.167-2.172c-2.031,3.334-1.725,7.806-.613,10.9,2.351,6.579.166,11.5-2.849,17,6.86,2.414,14.525,3.385,21.347,5.991,3.462,1.278,6.873,2.747,10.22,4.356Z" transform="translate(44.185 -8.516)"/><path class="aa" d="M180.23,116.385s3.117-12.647,8.444-17.974l2.274,1.84S180.83,111.939,180.23,116.385Z" transform="translate(50.048 -4.537)"/><path class="o" d="M180.37,117.016l8.674,4.139s3.986-9.428,8.7-15.407a1.8,1.8,0,0,0,0-2.312l-4.254-4.829a1.686,1.686,0,0,0-2.555,0C188.163,101.75,182.005,109.492,180.37,117.016Z" transform="translate(50.087 -4.644)"/><path class="ab" d="M110.07,98.708l2.185-2.248s6.324,15.253.779,23.327C113.034,119.787,112.4,102.567,110.07,98.708Z" transform="translate(30.579 -5.078)"/><path class="ac" d="M103.918,105.175c1.6,3.283,5.71,12.992,3.168,21.245,0,0,4.484-1.993,7.882-3.245,0,0,7.844-11.5-3.628-25.959a1.354,1.354,0,0,0-2.082,0l-5.033,5.838a1.993,1.993,0,0,0-.307,2.121Z" transform="translate(28.823 -5.004)"/><path class="ad" d="M352.075,152.967l-12.954,62.674c-1.9,9.2-79.346.894-172.987-18.524S-1.845,154.5.007,145.314l13-62.674c-1.9,9.2,72.447,32.385,166.076,51.8S350.172,162.165,352.075,152.967Z" transform="translate(0.026 -8.913)"/><path class="e" d="M60.22,109.65,50,155.64s50.679,15.458,75.373,20.082l10.82-47.268S95.1,119.538,60.22,109.65Z" transform="translate(13.909 -1.418)"/><path class="e" d="M126.263,126.49l-9.913,46.974s53.106,12.43,79.295,15.573l9.083-47.268S161.8,135.42,126.263,126.49Z" transform="translate(32.322 3.256)"/><g class="ae" transform="translate(63.909 108.232)"><g class="af" transform="translate(-32.853 -140.111)"><path class="ag" d="M55.859,30.778l-7.512-4.471-7.4-2.057H32.212a2.874,2.874,0,0,0-2.785,2.108l-5.11,18.217a.958.958,0,0,0,.664,1.175l26.828,7.461,5.327-19.163A2.874,2.874,0,0,0,55.859,30.778Z" transform="translate(-24.283 6.763)"/><rect class="ah" width="7.678" height="9.594" transform="matrix(0.268, -0.963, 0.963, 0.268, 14.779, 34.451)"/><path class="ai" d="M36.9,23.715a10.488,10.488,0,0,0,9.249,2.555l.715-2.555L37.615,21.16Z" transform="translate(-20.782 5.905)"/><path class="ah" d="M53.955,18.22l1.52-5.544L38.868,8l-1.546,5.544A1.945,1.945,0,1,0,36.313,17.3,8.636,8.636,0,1,0,52.92,21.925a1.923,1.923,0,1,0,1.035-3.7Z" transform="translate(-21.345 2.253)"/><path class="ai" d="M40.912,18.578l2.555-9.249L38.868,8l-1.546,5.544A1.945,1.945,0,1,0,36.313,17.3a8.623,8.623,0,0,0,8.406,10.948A8.636,8.636,0,0,1,40.912,18.578Z" transform="translate(-21.345 2.253)"/><path class="g" d="M41.977,21.432a3.437,3.437,0,0,1-2.21-1.98.961.961,0,1,1,1.763-.766,1.469,1.469,0,0,0,2.261.562A.958.958,0,1,1,44.9,20.806,3.437,3.437,0,0,1,41.977,21.432Z" transform="translate(-20.008 5.058)"/><path class="g" d="M39.752,16.888a.958.958,0,0,1-.664-1.175l.256-.92A.961.961,0,1,1,41.2,15.3l-.255.92a.958.958,0,0,1-1.188.664Z" transform="translate(-20.184 3.942)"/><path class="g" d="M45.542,18.5a.958.958,0,0,1-.664-1.175l.255-.92a.961.961,0,1,1,1.852.511l-.255.92a.958.958,0,0,1-1.188.664Z" transform="translate(-18.578 4.389)"/><path class="aj" d="M51.79,17.675a1.622,1.622,0,0,0,1.533,1.405h.319a1.891,1.891,0,0,1,.856.511l1.61-5.8a3.833,3.833,0,0,0-.945-3.679A2.874,2.874,0,0,0,53.08,7.021L45.632,4.964A6.72,6.72,0,0,0,37.354,9.64L36,14.507a1.891,1.891,0,0,1,1,0,1.865,1.865,0,0,1,.332.128,1.776,1.776,0,0,0,2.376-.613h0l.933-2.3a.958.958,0,0,1,1.278-.485,20.44,20.44,0,0,0,9.134,2.555.958.958,0,0,1,.92,1.06l-.243,2.3A2.811,2.811,0,0,0,51.79,17.675Z" transform="translate(-21.032 1.342)"/><path class="ai" d="M29.477,26.221l-5.11,18.217a.958.958,0,0,0,.664,1.175l4.625,1.278,3.7-13.2a4.791,4.791,0,0,0-.179-3.1L30.7,24.56A2.862,2.862,0,0,0,29.477,26.221Z" transform="translate(-24.269 6.849)"/><path class="ai" d="M52.432,32.33,47.1,51.493,41.56,49.947l3.679-13.209A4.8,4.8,0,0,1,47,34.183l5.225-3.833A2.862,2.862,0,0,1,52.432,32.33Z" transform="translate(-19.489 8.455)"/><path class="g" d="M45.632,4.963a6.72,6.72,0,0,0-8.265,4.676L36,14.506a1.9,1.9,0,0,1,1,0l.332.128a1.776,1.776,0,0,0,2.376-.613l.933-2.3a.958.958,0,0,1,1.278-.485l.8.422.447-1.469a5.762,5.762,0,0,1,7.09-4Z" transform="translate(-21.032 1.342)"/><path class="t" d="M35.443,34.99a.961.961,0,0,1,.511-1.852h0a.961.961,0,1,1-.511,1.852Z" transform="translate(-21.382 9.219)"/><path class="t" d="M33.833,40.78a.961.961,0,1,1,.511-1.852h0a.961.961,0,1,1-.511,1.852Z" transform="translate(-21.829 10.826)"/><path class="t" d="M34.643,37.88a.961.961,0,0,1,.511-1.852h0a.961.961,0,1,1-.511,1.852Z" transform="translate(-21.604 10.021)"/><rect class="ah" width="21.104" height="1.916" transform="translate(12.811 55.805) rotate(-74.46)"/><path class="aj" d="M70.791,16.74a3.117,3.117,0,0,0,.485-.971c.562-2.044-1.035-4.28-3.59-4.982s-5.11.37-5.647,2.414a3.1,3.1,0,0,0-.089,1.073,10.552,10.552,0,0,0-8.291,7.55h0a8.636,8.636,0,0,0,6,10.642L63.356,33.5A8.636,8.636,0,0,0,74,27.5h0A10.552,10.552,0,0,0,70.791,16.74Z" transform="translate(-16.22 2.967)"/><path class="g" d="M61.116,19.929a6.72,6.72,0,0,1,6.975-4.893,9.671,9.671,0,0,0-3.155-.856,3.015,3.015,0,0,1,.089-1.124,3.552,3.552,0,0,1,2.325-2.325c-2.453-.549-4.8.511-5.353,2.466a3.1,3.1,0,0,0-.077,1.073,10.552,10.552,0,0,0-8.291,7.55h0a8.636,8.636,0,0,0,6,10.642l1.852.511,1.546-5.544L60.362,22.7l.766-2.772Z" transform="translate(-16.228 2.971)"/><path class="ah" d="M71.932,41.966,66.3,37.61a1.916,1.916,0,0,1-.69-2.044l.933-3.373L59.157,30.2l-.933,3.373A1.916,1.916,0,0,1,56.6,34.965l-7.039.767a2.874,2.874,0,0,0-2.466,2.1L46.05,41.442a.958.958,0,0,0,.664,1.188h0l-2.057,7.4a.958.958,0,0,0,.664,1.175l22.19,6.17a.958.958,0,0,0,1.175-.664l2.057-7.4h0a.958.958,0,0,0,1.175-.664l1.022-3.666A2.874,2.874,0,0,0,71.932,41.966Z" transform="translate(-18.639 8.414)"/><path class="ah" d="M46.627,39.24l-.767,2.772.92.256a.958.958,0,0,1,.664,1.175L45.911,49l2.772.766,2.555-9.249Z" transform="translate(-18.296 10.922)"/><path class="ah" d="M66.851,44.752l-.767,2.772-.92-.256a.958.958,0,0,0-1.226.7l-1.546,5.544-2.772-.766L62.175,43.5Z" transform="translate(-14.477 12.105)"/><path class="ag" d="M71.63,40.911l-4.663-3.564a16.339,16.339,0,0,1-7.5,3.922A16.339,16.339,0,0,1,55.023,34l-5.838.639a2.874,2.874,0,0,0-2.466,2.1l-.971,3.654a.958.958,0,0,0,.664,1.188L50.1,42.61l-2.312,8.317L64.4,55.552l2.312-8.317L70.4,48.27a.958.958,0,0,0,1.175-.664L72.6,43.939A2.874,2.874,0,0,0,71.63,40.911Z" transform="translate(-18.337 9.468)"/><path class="ai" d="M55.34,33.189a10.412,10.412,0,0,0,7.4,2.057l.83-2.989L56.183,30.2l-.83,2.989Z" transform="translate(-15.665 8.414)"/><path class="ah" d="M70.717,29.981c1.712-6.068-5.506-5.813-9.339-9.977a.958.958,0,0,0-1.277-.089c-1.009.881-2.964,2.248-4.88,1.75a1.942,1.942,0,0,0-2.414,1.278h0a1.916,1.916,0,0,0,1.278,2.363A8.636,8.636,0,1,0,70.692,29.93Z" transform="translate(-16.389 5.503)"/><path class="ai" d="M58.707,26.647l1.929-6.937a.92.92,0,0,0-.575.217c-1.009.881-2.964,2.248-4.88,1.75a1.942,1.942,0,0,0-2.414,1.278h0a1.916,1.916,0,0,0,1.278,2.363A8.623,8.623,0,0,0,62.45,36.266a8.636,8.636,0,0,1-3.743-9.62Z" transform="translate(-16.4 5.503)"/><path class="g" d="M59.787,30.285a3.436,3.436,0,0,1-2.21-1.993.961.961,0,0,1,1.763-.767,1.469,1.469,0,0,0,2.261.626.958.958,0,1,1,1.111,1.559A3.436,3.436,0,0,1,59.787,30.285Z" transform="translate(-15.066 7.511)"/><path class="g" d="M63.342,27.358a.958.958,0,0,1-.664-1.175l.256-.92a.961.961,0,1,1,1.852.511l-.255.92a.958.958,0,0,1-1.188.664Z" transform="translate(-13.638 6.848)"/><path class="g" d="M57.552,25.751a.958.958,0,0,1-.664-1.188l.255-.92A.961.961,0,1,1,59,24.154l-.255.92a.958.958,0,0,1-1.188.677Z" transform="translate(-15.246 6.398)"/><path class="ag" d="M50.411,41.252a1.916,1.916,0,0,0-.179-1.456L47.588,35.12a2.861,2.861,0,0,0-.83,1.278l-1.009,3.679a.958.958,0,0,0,.664,1.188L50.1,42.3Z" transform="translate(-18.337 9.779)"/><path class="ag" d="M62.484,44.377a1.916,1.916,0,0,1,.907-1.163l4.676-2.644a2.874,2.874,0,0,1,0,1.571l-1.009,3.679a.958.958,0,0,1-1.175.664L62.19,45.45Z" transform="translate(-13.764 11.291)"/><path class="ai" d="M37.268,23.888l3.654,5.289-3.6,1.354a.958.958,0,0,1-1.278-.524L34.317,25.92a.958.958,0,0,1,.255-1.1l1.278-1.1a.958.958,0,0,1,1.418.166Z" transform="translate(-21.52 6.549)"/><path class="ai" d="M45.334,25.894,39.47,28.539,41.833,31.6a.958.958,0,0,0,1.278.192l3.654-2.644a.958.958,0,0,0,.345-1.073l-.524-1.61a.958.958,0,0,0-1.252-.575Z" transform="translate(-20.069 7.201)"/><path class="ai" d="M59.011,7.953a2.415,2.415,0,0,0-1.737.089,2.427,2.427,0,0,0-4.407.473,4.2,4.2,0,0,0,.881,3.73,9.3,9.3,0,0,0,1.495,1.635l.115.064H55.5a9.224,9.224,0,0,0,2.172-.434,4.2,4.2,0,0,0,2.9-2.555A2.427,2.427,0,0,0,59.011,7.953Z" transform="translate(-16.385 1.93)"/><path class="ai" d="M52.687,2.833a1.392,1.392,0,0,0-1,0,1.405,1.405,0,0,0-2.555.268,2.44,2.44,0,0,0,.511,2.159,5.354,5.354,0,0,0,.869.945h.141a5.327,5.327,0,0,0,1.278-.256,2.44,2.44,0,0,0,1.686-1.444A1.405,1.405,0,0,0,52.687,2.833Z" transform="translate(-17.406 0.624)"/><path class="ai" d="M57.9,3.74a1.086,1.086,0,0,0-.779,0,1.086,1.086,0,0,0-.613-.5,1.1,1.1,0,0,0-1.392.7,1.9,1.9,0,0,0,.4,1.686,4.228,4.228,0,0,0,.677.741h0a4.2,4.2,0,0,0,.984-.2,1.9,1.9,0,0,0,1.277-1.137A1.1,1.1,0,0,0,57.9,3.74Z" transform="translate(-15.743 0.917)"/><path class="ai" d="M48.629.339a.715.715,0,0,0-.511,0,.7.7,0,0,0-.4-.332.715.715,0,0,0-.894.46,1.278,1.278,0,0,0,.255,1.1,2.8,2.8,0,0,0,.434.485h0a2.721,2.721,0,0,0,.639-.128,1.277,1.277,0,0,0,.933-.639.715.715,0,0,0-.46-.945Z" transform="translate(-18.036 0.026)"/></g></g><path class="e" d="M264.513,148.716l-9.173,44.713s11.957.37,14.193-1.469l9.645-46.54S274.912,147.438,264.513,148.716Z" transform="translate(70.892 8.509)"/><path class="ak" d="M145.8,216.78l8.917,22.024-10.22,7.243-13.478-19Z" transform="translate(36.393 28.312)"/><g class="al" transform="translate(166.927 231.397)"><path class="am" d="M130.64,222.678a13.465,13.465,0,0,0,2.466,4.5L145.152,244.1l.958.37L131.228,222.64Z" transform="translate(-130.64 -201.459)"/><path class="an" d="M176.919,226.462l-30.813,22.6L130.66,227.254l31.733-21.194Z" transform="translate(-130.634 -206.06)"/><path class="t" d="M174,225.646l-28,20.542L132.53,227.2l28.833-19.265Z" transform="translate(-130.116 -205.538)"/><path class="am" d="M145.624,246.563l21.36-1.648,28.322-22.344s1.277-1.661.434-2.632L142.75,245.158a4,4,0,0,0,1.022,1A3,3,0,0,0,145.624,246.563Z" transform="translate(-127.279 -202.208)"/><path class="an" d="M195.719,219.96l-29.549,23.417-23.711,1.84L173.273,222.6Z" transform="translate(-127.36 -202.203)"/><path class="t" d="M177.86,226.14l-8.444,6.681-6.426.383,8.035-6.247Z" transform="translate(-121.663 -200.488)"/><line class="ao" y1="22.599" x2="30.813" transform="translate(15.471 20.402)"/><line class="ap" y1="17.911" x2="22.867" transform="translate(28.424 21.322)"/><line class="ap" y1="17.987" x2="23.187" transform="translate(25.41 21.692)"/><path class="ao" d="M156.852,240.389l23.072-17.949-8.061,1.086L148.05,241.577Z" transform="translate(-125.809 -201.515)"/><line class="ap" y1="1.175" x2="8.355" transform="translate(44.278 22.19)"/><line class="ao" y1="1.175" x2="8.393" transform="translate(42.081 23.851)"/><line class="ao" y1="1.188" x2="8.419" transform="translate(39.896 25.499)"/><line class="ao" y1="1.188" x2="8.457" transform="translate(37.699 27.16)"/><line class="ao" y1="1.188" x2="8.483" transform="translate(35.515 28.821)"/><line class="ao" y1="1.201" x2="8.521" transform="translate(33.317 30.469)"/><line class="ao" y1="1.201" x2="8.547" transform="translate(31.133 32.129)"/><line class="ao" y1="1.201" x2="8.585" transform="translate(28.935 33.79)"/><line class="ao" y1="1.214" x2="8.61" transform="translate(26.751 35.438)"/><line class="ao" y1="1.214" x2="8.649" transform="translate(24.554 37.099)"/><path class="an" d="M158.33,234.763l12.123-9.5,2.248-.268-12.175,9.454Z" transform="translate(-122.956 -200.807)"/></g><path class="ak" d="M145.8,216.78l8.917,22.024-10.22,7.243-13.478-19Z" transform="translate(36.393 28.312)"/><path class="ag" d="M9.638,171.465,25.7,168.82s.217,12.1,7.039,17.157a25.87,25.87,0,0,0,13.209,5.289s-10.118,7.921-21.117,7.921C24.827,199.186,7.006,190.768,9.638,171.465Z" transform="translate(2.635 15.002)"/><line class="aq" y1="1.507" x2="9.773" transform="translate(15.939 187.847)"/><line class="aq" y1="0.856" x2="4.088" transform="translate(15.543 192.101)"/><line class="aq" y1="2.938" x2="7.499" transform="translate(18.417 198.143)"/><path class="ah" d="M28.885,184.54l-6.055,2.248a48.232,48.232,0,0,0,7.295,3.833,29.382,29.382,0,0,0,5.11-2.644A22.229,22.229,0,0,1,28.885,184.54Z" transform="translate(6.369 19.365)"/><g class="af" transform="translate(276.358 188.083)"><path class="ah" d="M240.52,187.784l8.828,6.388s4.011-10.808,3.577-12.443a7.37,7.37,0,0,0-3.667-3.181c-1.456-.319-1.38,1.648-1.38,1.648l-7.295,7.537" transform="translate(-209.579 -170.391)"/><path class="ar" d="M248.551,178.954a6.068,6.068,0,0,1,1.827.664,4.727,4.727,0,0,0-1.827-1.06c-1.456-.319-1.38,1.648-1.38,1.648l-4.1,4.229h0s3.667-3.36,4.535-3.309a14.774,14.774,0,0,1,3.1,1.086,30.758,30.758,0,0,1-2.8-1.814A.853.853,0,0,1,248.551,178.954Z" transform="translate(-208.871 -170.388)"/><path class="ai" d="M227.33,178.7l2.2-2.836a1.01,1.01,0,0,1,.383-.818.37.37,0,0,1,.383,0,5.542,5.542,0,0,1,2.082,1.495.37.37,0,0,1,.1.255v5.647a11.37,11.37,0,0,1-5.148-3.743Z" transform="translate(-213.239 -171.369)"/><path class="as" d="M229.53,175.66l-2.21,2.836a11.394,11.394,0,0,0,5.11,3.692v-.434c-1.827-1.111-3.156-5.174-2.555-5.11a8.191,8.191,0,0,1,1.827.5c-1.06-.537-2.133-1.073-2.185-1.418Z" transform="translate(-213.242 -171.183)"/><path class="ah" d="M262.066,199.228c-1.482-2.325.153-2.44-10.335-8.751a128.592,128.592,0,0,0-20.926-10.693c-6.388-2.657-8.214-1.022-7.665,1.584s4.446,6.873,7.537,9.913a150.735,150.735,0,0,0,19.546,14.7c6.2,3.718,9.645,3.986,12.06,3.743h.153a3.3,3.3,0,0,0,2.8-3.462A10.45,10.45,0,0,0,262.066,199.228Z" transform="translate(-214.427 -170.414)"/><path class="at" d="M255.252,194.71a3.641,3.641,0,0,1-1.891,2.874c-1.98,1.393-5.762.843-5.762.843s.83,1.278,3.513,1.022,1.277,1.1.141,1.495-1.559,4.727,5.276,3.96a3.334,3.334,0,0,0,1.891-3.194A10.45,10.45,0,0,0,255.252,194.71Z" transform="translate(-207.614 -165.896)"/><path class="au" d="M233.4,181.775c5.11,2.555,19.6,12.366,19.7,12.443,1.584,1.137,2.2-.115,0-1.852-.741-.626-2.21-1.278-4.484-2.977s-13.593-7.806-15.956-7.959Z" transform="translate(-211.76 -169.581)"/><path class="ah" d="M228.232,174.755A1.942,1.942,0,0,0,227.7,174l-2.019-1.737a.422.422,0,0,0-.7.281l-.664,7.665a19.762,19.762,0,0,1,5.9,2.44l1.035-.511Z" transform="translate(-214.077 -172.155)"/><path class="av" d="M227.6,174.735l2.338,7.959,1.035-.511-3.015-7.448a1.966,1.966,0,0,0-.537-.754l-2.018-1.737-.1-.064h0l2.108,2.185A.9.9,0,0,1,227.6,174.735Z" transform="translate(-213.802 -172.148)"/><path class="am" d="M223.537,181h-.307c.843,2.632,4.484,6.63,7.422,9.517a150.677,150.677,0,0,0,19.52,14.755c6.2,3.718,9.645,3.986,12.06,3.743h.153a3.219,3.219,0,0,0,2.555-1.955,5.11,5.11,0,0,1-4.05.767c-4.765-.524-11.5-4.484-16.02-7.665s-16.224-12.328-16.224-12.328l-1.61-3.117a7.015,7.015,0,0,1-3.475-3.615Z" transform="translate(-214.377 -169.701)"/><path class="am" d="M253.692,195.334a3,3,0,0,1-.984,1.7,7.293,7.293,0,0,0-1.418-3.155,1.278,1.278,0,0,0,.69-1.278S253.756,194.389,253.692,195.334Z" transform="translate(-206.59 -166.482)"/><path class="am" d="M248,197.509a13.189,13.189,0,0,0,0-2.887,8.1,8.1,0,0,0,3.347-.562,9.964,9.964,0,0,1,1.278,3.13A9.046,9.046,0,0,1,248,197.509Z" transform="translate(-207.503 -166.076)"/><path class="ah" d="M218.7,182.672a1.278,1.278,0,0,1-.6-.332l-1.6-1.571a.69.69,0,0,1-.2-.485h0a.69.69,0,0,1,.677-.7h0a.69.69,0,0,1,.473.179l.255.243,7.946.358s3.015,3.219,3.411,3.833a1.8,1.8,0,0,1,.217,1.278Z" transform="translate(-216.3 -170.095)"/><path class="aw" d="M217.985,180.623a8.649,8.649,0,0,1,1.533,1.7,4.5,4.5,0,0,0-1.162-1.789l7.346.217-7.946-.537-.255-.243a.69.69,0,0,0-.473-.192h0a.69.69,0,0,0-.677.536C216.772,179.639,217.18,180.061,217.985,180.623Z" transform="translate(-216.286 -170.039)"/><path class="ah" d="M237.087,188.61l-2.274,1.622a5.2,5.2,0,0,1-2.274.92l-11.625,1.7a1.776,1.776,0,0,0-2.006-.524c-1.392.383-1.06,2.018-1.06,2.018l3.909,2.964a1.916,1.916,0,0,0,1.188.383l22.752-.37Z" transform="translate(-215.88 -167.589)"/><path class="ax" d="M217.847,193.794c-.2-1.674,1.278-1.865,2.21-1.405a17.118,17.118,0,0,1,2.977,2.823,7.141,7.141,0,0,0-1.571-2.236l11.089-2.376-11.625,1.7a1.776,1.776,0,0,0-2.006-.524C217.528,192.146,217.847,193.794,217.847,193.794Z" transform="translate(-215.879 -167.037)"/></g><path class="ag" d="M261.813,93.467S229.352,102.18,213,103.176h0c.639-.37,11.676-7.4,13.018-54.23v-.319c0-.1,5.263-1.852,11.625-4.011,9.185-3.117,20.67-6.886,21.845-6.694C261.545,38.254,264.828,90.4,261.813,93.467Z" transform="translate(59.142 -21.324)"/><path class="ai" d="M261.813,83.712S229.352,92.424,213,93.421h0c1-.243,33.1-8.048,37.737-20.351C250.725,73.07,250.444,84.964,261.813,83.712Z" transform="translate(59.142 -11.569)"/><path class="ay" d="M226.44,54.684s17.987-5.429,23.723-8.214" transform="translate(62.872 -18.95)"/><path class="ay" d="M226.44,58.084s17.987-5.429,23.723-8.214" transform="translate(62.872 -18.007)"/><path class="ay" d="M226.2,61.314s17.987-5.429,23.723-8.214" transform="translate(62.805 -17.11)"/><path class="ay" d="M225.55,65.433s18.064-5.455,23.825-8.253" transform="translate(62.625 -15.978)"/><path class="ay" d="M225.27,69.393s18.064-5.455,23.825-8.253" transform="translate(62.547 -14.879)"/><path class="g" d="M244.266,48.236,237.61,38.144l1.277-.754Z" transform="translate(65.972 -21.47)"/><path class="az" d="M245.5,36.357a.959.959,0,0,0-.383-.358,8.521,8.521,0,0,0-2.427-1.559,13.746,13.746,0,0,1-6.247-5.71l-4.816,2.81a13.759,13.759,0,0,1,1.9,8.253,8.075,8.075,0,0,0,.217,3.092.921.921,0,0,0,.077.23h0c.664,1.137,3.833.537,7.026-1.354S246.155,37.494,245.5,36.357Z" transform="translate(64.312 -23.873)"/><path class="ba" d="M234.962,31.421c-2.172,1.278-4.331,1.622-4.816.792l-.8-1.38c-.485-.83.894-2.555,3.053-3.833s4.331-1.622,4.816-.8l.8,1.392C238.5,28.444,237.121,30.143,234.962,31.421Z" transform="translate(63.65 -24.699)"/><ellipse class="az" cx="4.561" cy="1.737" rx="4.561" ry="1.737" transform="translate(292.112 4.599) rotate(-30.28)"/><path class="g" d="M244.266,48.236,237.61,38.144l1.277-.754Z" transform="translate(65.972 -21.47)"/><path class="o" d="M245.5,36.357a.959.959,0,0,0-.383-.358,8.521,8.521,0,0,0-2.427-1.559,13.746,13.746,0,0,1-6.247-5.71l-4.816,2.81a13.759,13.759,0,0,1,1.9,8.253,8.075,8.075,0,0,0,.217,3.092.921.921,0,0,0,.077.23h0c.664,1.137,3.833.537,7.026-1.354S246.155,37.494,245.5,36.357Z" transform="translate(64.312 -23.873)"/><path class="bb" d="M234.962,31.421c-2.172,1.278-4.331,1.622-4.816.792l-.8-1.38c-.485-.83.894-2.555,3.053-3.833s4.331-1.622,4.816-.8l.8,1.392C238.5,28.444,237.121,30.143,234.962,31.421Z" transform="translate(63.65 -24.699)"/><ellipse class="o" cx="4.561" cy="1.737" rx="4.561" ry="1.737" transform="translate(292.112 4.599) rotate(-30.28)"/><path class="ah" d="M248.5,47.05l-9.556-.422c-2.759,1.993-5.749,3.488-6.86,3.4h-.166a2.683,2.683,0,0,1-1.443-1.009c-.767-1.111-2.555-1.814-5.174-2.044a8.752,8.752,0,0,1-2.133.881v-.319c0-.1,5.263-1.852,11.625-4.011a35.27,35.27,0,0,0,3.833-.7,24.468,24.468,0,0,1,3.322-.588,2.147,2.147,0,0,1,.575,0c1.111.089-.064,1.737-2.632,3.769Z" transform="translate(61.965 -20.131)"/><path class="ah" d="M93.3,36.581v-.013l2.8-5.238L76.159,30.36,66.22,48.271l3.7.115,3.143.1V48.5l13.4.038Z" transform="translate(18.41 -23.421)"/><path class="ah" d="M72.32,48.425l3.59,6.388s4.446,7.269,14.41,1.61c9.1-5.11,6.017-13.2,6.017-13.2L92.5,36.57,85.67,48.527Z" transform="translate(20.103 -21.698)"/><path class="ah" d="M96.54,43.531a1.482,1.482,0,0,1-.588,1.993,1.456,1.456,0,0,1-1.929-.562l-.588-2.708h0A.7.7,0,0,1,93,41.921a.754.754,0,0,1,.128-.869L88.3,32.519l.332-.639,5.046,8.943a.779.779,0,0,1,.869.319.7.7,0,0,1,0,.652Z" transform="translate(24.538 -22.999)"/></g></svg>