<svg xmlns="http://www.w3.org/2000/svg" xmlns:xlink="http://www.w3.org/1999/xlink" width="316.545" height="349.131" viewBox="0 0 316.545 349.131"><defs><style>.a{fill:url(#a);}.b{opacity:0.39;fill:url(#b);}.c{fill:#fff;}.d{fill:url(#c);}.e{fill:#ae246c;}.f{fill:url(#d);}.g{fill:#383f82;}.h{fill:#1b2246;}</style><linearGradient id="a" y1="0.5" x2="1" y2="0.5" gradientUnits="objectBoundingBox"><stop offset="0" stop-color="#ffe6fa" stop-opacity="0.502"/><stop offset="1" stop-color="#ea7dc5" stop-opacity="0.2"/></linearGradient><linearGradient id="b" y1="0.5" x2="1" y2="0.5" gradientUnits="objectBoundingBox"><stop offset="0" stop-color="#ae246c" stop-opacity="0.6"/><stop offset="0.93" stop-color="#ae246c" stop-opacity="0.102"/></linearGradient><linearGradient id="c" x1="1.192" y1="0.728" x2="0.101" y2="0.209" gradientUnits="objectBoundingBox"><stop offset="0.01" stop-color="#1b2246" stop-opacity="0"/><stop offset="0.53" stop-color="#1b2246" stop-opacity="0.2"/><stop offset="1" stop-color="#1b2246" stop-opacity="0.302"/></linearGradient><linearGradient id="d" x1="0" y1="0.5" x2="1" y2="0.5" xlink:href="#c"/></defs><circle class="a" cx="158.273" cy="158.273" r="158.273" transform="translate(0 32.586)"/><path class="b" d="M183.293,131.3c-18.62-13.453-39.754-23.275-56.513-39.522A152.92,152.92,0,0,1,89.959,36.24a177.591,177.591,0,0,1-7.588-25.51A158.273,158.273,0,0,0,1,117.238a87.028,87.028,0,0,0,6.936,9.869,99.712,99.712,0,0,0,35.658,27.046A149.893,149.893,0,0,0,82.417,165.6c17.643,2.933,35.518.931,52.928,5.4,38.172,9.822,60.516,41.9,67.592,79.136a368.219,368.219,0,0,1,3.91,50.461,157.387,157.387,0,0,0,26.022-11.591,138.442,138.442,0,0,0-8.053-105.95c-10.008-19.458-23.648-38.823-41.523-51.765Z" transform="translate(3.655 39.219)"/><path class="c" d="M37.583,36.08a16.712,16.712,0,0,0,0,33.33H156.846V36.08Z" transform="translate(80.842 131.875)"/><path class="d" d="M34.045,52.745A16.107,16.107,0,0,1,49.5,36.08H37.583a16.712,16.712,0,0,0,0,33.33H49.5A16.107,16.107,0,0,1,34.045,52.745Z" transform="translate(80.842 131.875)"/><path class="e" d="M48.187,201.286a16.712,16.712,0,0,1,0-33.33H168.754a6.983,6.983,0,0,0,6.7-7.215V7.122A6.983,6.983,0,0,0,168.707,0H46.139A27.93,27.93,0,0,0,19.233,28.861V186.808A27.93,27.93,0,0,0,46.139,215.67H168.707a7.215,7.215,0,0,0,0-14.384Z" transform="translate(70.238)"/><path class="e" d="M168.707,201.286H48.187a16.712,16.712,0,0,1,0-33.33h7.821V0H46.139A27.93,27.93,0,0,0,19.233,28.861V186.808A27.93,27.93,0,0,0,46.139,215.67H168.707a7.215,7.215,0,0,0,0-14.384Z" transform="translate(70.238)"/><rect class="c" width="80.673" height="27.232" rx="0.78" transform="translate(131.366 27.418)"/><path class="f" d="M126,128.794V8.74C113.1,58.549,52.309,61.156,37.226,109.8c-.512,1.583-6.238,25.743-3.957,26.208H119.3a6.983,6.983,0,0,0,6.7-7.215Z" transform="translate(119.65 31.945)"/><path class="g" d="M118.437,39.81H18.26V89.9c0,13.034,22.437,23.555,50.089,23.555s50.089-10.567,50.089-23.555Z" transform="translate(66.742 145.509)"/><path class="h" d="M86.208,108.718,15.638,73.433a5.353,5.353,0,0,1,0-9.543L86.208,28.418a5.353,5.353,0,0,1,4.655,0L161.435,63.7a5.353,5.353,0,0,1,0,9.543L91,108.718a5.353,5.353,0,0,1-4.795,0ZM38.54,118.727v14.71c0,13.034,22.437,23.555,50.089,23.555s50.089-10.567,50.089-23.555v-14.71c0,13.034-22.437,23.555-50.089,23.555S38.54,131.761,38.54,118.727Z" transform="translate(46.461 101.924)"/><path class="e" d="M13.19,45.293a2.933,2.933,0,0,1,2.653-2.933L80.549,35.89l.605,5.865L19.1,47.947V95.382H13.19V45.293Z" transform="translate(48.21 131.181)"/><ellipse class="c" cx="11.777" cy="5.912" rx="11.777" ry="5.912" transform="translate(123.313 164.65)"/><path class="e" d="M19.393,49.8a3.631,3.631,0,0,0-3.352,2.281l-3.491,8.8A3.631,3.631,0,0,0,15.9,65.814h7.029a3.631,3.631,0,0,0,3.352-4.934l-3.491-8.8a3.631,3.631,0,0,0-3.4-2.281Z" transform="translate(44.987 182.023)"/><circle class="h" cx="5.912" cy="5.912" r="5.912" transform="translate(58.468 223.583)"/></svg>