<svg xmlns="http://www.w3.org/2000/svg" xmlns:xlink="http://www.w3.org/1999/xlink" width="329.861" height="317.367" viewBox="0 0 329.861 317.367"><defs><style>.a,.aj,.am,.ao,.bc,.r,.u,.w,.z{fill:none;}.b{opacity:0.3;}.c{fill:#ffd0c0;}.d{fill:#ff8547;}.e{fill:#f9b298;}.f{fill:#8e4123;}.g{fill:#f2f2f2;}.h{fill:#5ed4ef;}.i{fill:#3ac6dd;}.j{fill:#d67447;}.k{fill:#b35529;}.l{fill:#7a3a1c;}.l,.m{opacity:0.32;}.ak,.m,.n{fill:#ffb692;}.n{opacity:0.11;}.at,.o{fill:#fff;}.p{fill:url(#a);}.q{fill:url(#b);}.r,.w{stroke:#ffb692;}.aj,.ao,.bc,.r,.u,.w,.z{stroke-miterlimit:10;}.r{stroke-width:0.25px;opacity:0.29;}.s{fill:#ffd5bf;}.t{fill:#8a5239;}.u{stroke:#f2f2f2;stroke-width:3px;}.v{opacity:0.39;fill:url(#c);}.w{stroke-width:2px;}.x{fill:url(#d);}.y{opacity:0.5;}.z{stroke:#fff;}.aj,.ao,.bc,.z{stroke-width:0.5px;}.aa{fill:url(#e);}.ab{fill:#1c1b1c;opacity:0.1;}.ac{fill:#231f20;}.ad{fill:#1b2246;}.ae{fill:#005894;}.af{fill:url(#f);}.ag{fill:url(#g);}.ah{fill:#0079c9;}.ai{fill:#ff585b;}.aj{stroke:#053e4f;}.al{fill:#fefefe;}.am,.ao{stroke:#ba5320;}.am{stroke-linecap:round;stroke-linejoin:round;stroke-width:0.62px;}.an{fill:url(#h);}.ap{fill:#ef9e11;}.aq{fill:#fec813;}.ar{fill:url(#i);}.as{fill:#da946c;}.at{fill-rule:evenodd;}.au{fill:#1a2146;}.av{fill:#ba5427;}.aw{fill:url(#j);}.ax{fill:url(#k);}.ay{fill:url(#l);}.az{fill:url(#m);}.ba{fill:url(#n);}.bb{fill:url(#o);}.bc{stroke:#ae246c;}.bd{fill:#43c59e;}.be{clip-path:url(#p);}.bf{fill:url(#q);}.bg{clip-path:url(#r);}.bh{fill:url(#s);}.bi{clip-path:url(#t);}.bj{fill:url(#u);}.bk{clip-path:url(#v);}.bl{opacity:0.6;fill:url(#w);}</style><linearGradient id="a" x1="-1.333" y1="1.614" x2="1.905" y2="-0.354" gradientUnits="objectBoundingBox"><stop offset="0.56" stop-color="#ffb692" stop-opacity="0"/><stop offset="0.63" stop-color="#ffb692" stop-opacity="0.169"/><stop offset="0.72" stop-color="#ffb692" stop-opacity="0.388"/><stop offset="0.81" stop-color="#ffb692" stop-opacity="0.569"/><stop offset="0.89" stop-color="#ffb692" stop-opacity="0.698"/><stop offset="0.95" stop-color="#ffb692" stop-opacity="0.769"/><stop offset="1" stop-color="#ffb692" stop-opacity="0.8"/></linearGradient><linearGradient id="b" x1="-1.365" y1="1.577" x2="1.781" y2="-0.24" xlink:href="#a"/><linearGradient id="c" x1="0.979" y1="0.269" x2="-1.131" y2="1.313" gradientUnits="objectBoundingBox"><stop offset="0" stop-color="#ae246c" stop-opacity="0"/><stop offset="0.18" stop-color="#ae246c" stop-opacity="0.212"/><stop offset="0.44" stop-color="#ae246c" stop-opacity="0.459"/><stop offset="0.67" stop-color="#ae246c" stop-opacity="0.651"/><stop offset="0.87" stop-color="#ae246c" stop-opacity="0.761"/><stop offset="1" stop-color="#ae246c" stop-opacity="0.8"/></linearGradient><linearGradient id="d" x1="1.185" y1="0.402" x2="0.047" y2="0.566" gradientUnits="objectBoundingBox"><stop offset="0.01" stop-color="#9e9e9e"/><stop offset="0.1" stop-color="#9e9e9e" stop-opacity="0.969"/><stop offset="0.21" stop-color="#9d9d9d" stop-opacity="0.871"/><stop offset="0.33" stop-color="#9b9b9b" stop-opacity="0.71"/><stop offset="0.46" stop-color="#999" stop-opacity="0.478"/><stop offset="0.6" stop-color="#969696" stop-opacity="0.2"/><stop offset="0.68" stop-color="#949494" stop-opacity="0"/></linearGradient><linearGradient id="e" x1="-0.074" y1="0.472" x2="1.943" y2="0.559" xlink:href="#d"/><linearGradient id="f" y1="0.5" x2="1" y2="0.5" gradientUnits="objectBoundingBox"><stop offset="0" stop-color="#231f20" stop-opacity="0"/><stop offset="0.03" stop-color="#231f20" stop-opacity="0.039"/><stop offset="0.61" stop-color="#231f20" stop-opacity="0.6"/><stop offset="1" stop-color="#231f20" stop-opacity="0.8"/></linearGradient><linearGradient id="g" x1="0.441" y1="1.101" x2="0.638" y2="-0.844" xlink:href="#f"/><linearGradient id="h" x1="-8.416" y1="0.543" x2="3.114" y2="0.488" gradientUnits="objectBoundingBox"><stop offset="0.56" stop-color="#88898a" stop-opacity="0"/><stop offset="0.58" stop-color="#88898a" stop-opacity="0.051"/><stop offset="0.71" stop-color="#88898a" stop-opacity="0.369"/><stop offset="0.83" stop-color="#88898a" stop-opacity="0.612"/><stop offset="0.93" stop-color="#88898a" stop-opacity="0.749"/><stop offset="1" stop-color="#88898a" stop-opacity="0.8"/></linearGradient><linearGradient id="i" x1="0.309" y1="1.204" x2="1.073" y2="-1.845" xlink:href="#f"/><linearGradient id="j" x1="2.128" y1="0.451" x2="-0.194" y2="0.544" gradientUnits="objectBoundingBox"><stop offset="0.18" stop-color="#0079c9" stop-opacity="0"/><stop offset="0.38" stop-color="#0669aa" stop-opacity="0.278"/><stop offset="0.64" stop-color="#0b588b" stop-opacity="0.561"/><stop offset="0.85" stop-color="#0f4e77" stop-opacity="0.741"/><stop offset="1" stop-color="#104a70" stop-opacity="0.8"/></linearGradient><linearGradient id="k" x1="2.267" y1="0.381" x2="-0.014" y2="0.526" xlink:href="#j"/><linearGradient id="l" x1="1.318" y1="0.821" x2="-0.217" y2="0.196" gradientUnits="objectBoundingBox"><stop offset="0.56" stop-color="#07566e" stop-opacity="0"/><stop offset="0.61" stop-color="#07536a" stop-opacity="0.141"/><stop offset="0.77" stop-color="#084c61" stop-opacity="0.502"/><stop offset="0.91" stop-color="#08485b" stop-opacity="0.722"/><stop offset="1" stop-color="#084659" stop-opacity="0.8"/></linearGradient><linearGradient id="m" x1="-0.124" y1="0.722" x2="0.558" y2="0.48" xlink:href="#j"/><linearGradient id="n" x1="2.909" y1="1.497" x2="-0.314" y2="0.138" xlink:href="#j"/><linearGradient id="o" x1="2.005" y1="0.65" x2="0.001" y2="0.46" xlink:href="#j"/><clipPath id="p"><path class="a" d="M149.137,137.13s27.871,18.892,27.582,62.418,0,81.3,0,81.3h-4.937S175.56,235.5,174.1,225.1s-5.038-10.252-11.184-13.942,1.02-11.033-3.048-15.68-6.385-2.028-4.358-13.652-8.615-11.033-9.093-20.907S150.586,147.583,149.137,137.13Z" transform="translate(-146.382 -137.13)"/></clipPath><linearGradient id="q" x1="544.942" y1="0.43" x2="544.191" y2="0.538" gradientUnits="objectBoundingBox"><stop offset="0.32" stop-color="#43c59e" stop-opacity="0"/><stop offset="0.4" stop-color="#42bd98" stop-opacity="0.188"/><stop offset="0.53" stop-color="#41b190" stop-opacity="0.478"/><stop offset="0.67" stop-color="#3fa889" stop-opacity="0.698"/><stop offset="0.79" stop-color="#3fa184" stop-opacity="0.871"/><stop offset="0.9" stop-color="#3e9d81" stop-opacity="0.969"/><stop offset="0.99" stop-color="#3e9c80"/></linearGradient><clipPath id="r"><path class="a" d="M207.024,157.53s.491,16.662-7.128,22.506-4.219,8.4-4.358,11.8a12.154,12.154,0,0,1-5.554,9.509c-3.413,2.04,1.549,8.06-9.03,15.68s-7.141,29.509-6.108,39.546l-2.154.227s-2.254-27.922,1.688-44.9c4.03-17.342,8.816-29.912,20.05-40.3S207.024,157.53,207.024,157.53Z" transform="translate(-172.05 -157.53)"/></clipPath><linearGradient id="s" x1="-377.286" y1="0.408" x2="-377.671" y2="0.526" xlink:href="#q"/><clipPath id="t"><path class="a" d="M129.63,176a13.728,13.728,0,0,1,4.824,7.091c1.259,4.471,3.035,8.237,6.02,9.509,8.375,3.564,2.72,8.69,9.068,13.086,3.413,2.368,5.579,4.232,6.536,8.161,1.259,5.038,2.355,6.6,6.511,8.816.819.441,6.033-.856,8.577,4.207,3.489,6.927,4.4,20.907,4.358,23h1.914a93.463,93.463,0,0,0-6.8-33.287C162.753,198.116,146.746,179.6,129.63,176Z" transform="translate(-129.63 -176)"/></clipPath><linearGradient id="u" x1="-263.028" y1="0.528" x2="-263.178" y2="0.415" xlink:href="#q"/><clipPath id="v"><path class="a" d="M168.727,258.836H180.78a9.8,9.8,0,0,0,9.609-7.859l4.824-23.854a4.559,4.559,0,0,0-4.458-5.453H158.349a4.232,4.232,0,0,0-4.144,5.038l4.912,24.257a9.8,9.8,0,0,0,9.609,7.871Z" transform="translate(-154.128 -221.67)"/></clipPath><linearGradient id="w" x1="-289.172" y1="0.131" x2="-288.404" y2="0.826" gradientUnits="objectBoundingBox"><stop offset="0.04" stop-color="#2fb5be" stop-opacity="0"/><stop offset="0.07" stop-color="#58348c" stop-opacity="0.11"/><stop offset="0.25" stop-color="#744ea7" stop-opacity="0.412"/><stop offset="0.41" stop-color="#8862bb" stop-opacity="0.631"/><stop offset="0.49" stop-color="#9069c3" stop-opacity="0.722"/><stop offset="0.63" stop-color="#9d75cf" stop-opacity="0.839"/><stop offset="0.77" stop-color="#a77ed8" stop-opacity="0.929"/><stop offset="0.9" stop-color="#ad84de" stop-opacity="0.98"/><stop offset="0.99" stop-color="#af86e0"/></linearGradient></defs><g class="b" transform="translate(50.629)"><path class="c" d="M217.661,198.142H46.68V81.505L118.833,8.03,193.48,81.493l24.181.013Z" transform="translate(-38.519 2.083)"/><path class="d" d="M217.661,82.478,187.5,82.466,116.83,8.209,46.68,82.478l6.3-78.2H211.351Z" transform="translate(-38.519 1.11)"/><path class="e" d="M100.35,15.549,157.944,78.7l9.345.088-62.543-67.8Z" transform="translate(-24.595 2.851)"/><rect class="f" width="184.62" height="9.748" transform="translate(2.607 200.225)"/><path class="g" d="M40.2,83.841,120.237,0l80.616,83.689H184.9L120.35,13.841,53.928,83.689Z" transform="translate(-40.2)"/><path class="g" d="M120.082,43.941a12.475,12.475,0,1,1,0-.013Z" transform="translate(-25.952 8.162)"/><path class="h" d="M117.925,43.57a10.693,10.693,0,0,1-9.181,10.592,10.817,10.817,0,0,1-1.524.113A10.693,10.693,0,1,1,117.925,43.57Z" transform="translate(-25.583 8.533)"/><path class="i" d="M116.708,43.569a10.693,10.693,0,0,1-9.181,10.592,10.705,10.705,0,0,0-6.3-20.151A10.705,10.705,0,0,1,116.7,43.582Z" transform="translate(-24.367 8.534)"/><rect class="e" width="5.076" height="81.624" transform="translate(53.79 118.626)"/><rect class="e" width="10.63" height="7.72" transform="translate(49.357 116.825)"/><rect class="g" width="59.596" height="7.72" transform="translate(51.221 115.251)"/><rect class="g" width="5.076" height="81.624" transform="translate(56.738 118.626)"/><path class="j" d="M109.333,4.293,50.089,39.607,47.23,73.3,113.262,4.28Z" transform="translate(-38.376 1.11)"/><rect class="k" width="41.763" height="77.606" transform="translate(61.763 122.656)"/><path class="l" d="M95.6,129.758l-1.977,1.574V100.3l1.977,1.688Z" transform="translate(-26.341 26.021)"/><path class="m" d="M95.547,101.988,93.67,100.3H124.7l-1.889,1.839Z" transform="translate(-26.328 26.021)"/><path class="n" d="M123.128,152.05l1.574,1.977H93.67l1.9-1.839Z" transform="translate(-26.328 39.447)"/><path class="l" d="M95.6,158.471,93.62,160.1V128.61l1.977,1.738Z" transform="translate(-26.341 33.366)"/><rect class="o" width="5.076" height="81.448" transform="translate(100.654 118.462)"/><rect class="p" width="29.017" height="28.237" transform="translate(69.256 163.714)"/><rect class="q" width="29.017" height="27.783" transform="translate(69.256 128.16)"/><line class="r" x2="29.383" transform="translate(64.798 159.432)"/><path class="s" d="M152.836,6.82v5.441a1.184,1.184,0,0,1-1.184,1.184H147.32l3.489-.642a1.65,1.65,0,0,0,1.335-1.373Z" transform="translate(-12.409 1.769)"/><path class="s" d="M158.266,6.82v5.441a1.184,1.184,0,0,1-1.184,1.184H152.75l3.489-.642a1.65,1.65,0,0,0,1.335-1.373Z" transform="translate(-11.001 1.769)"/><path class="s" d="M163.541,6.82v5.441a1.184,1.184,0,0,1-1.184,1.184H158l3.489-.642a1.65,1.65,0,0,0,1.335-1.373Z" transform="translate(-9.639 1.769)"/><path class="s" d="M168.746,6.91v5.441a1.184,1.184,0,0,1-1.184,1.184H163.23l3.489-.642a1.65,1.65,0,0,0,1.335-1.373Z" transform="translate(-8.282 1.793)"/><path class="s" d="M147.136,6.82v5.441a1.184,1.184,0,0,1-1.184,1.184H141.62l3.489-.642a1.65,1.65,0,0,0,1.335-1.373Z" transform="translate(-13.888 1.769)"/><path class="s" d="M141.676,6.82v5.441a1.184,1.184,0,0,1-1.184,1.184H136.16l3.489-.642A1.65,1.65,0,0,0,141,11.417Z" transform="translate(-15.305 1.769)"/><path class="s" d="M136.606,6.82v5.441a1.184,1.184,0,0,1-1.184,1.184H131.09l3.489-.642a1.65,1.65,0,0,0,1.335-1.373Z" transform="translate(-16.62 1.769)"/><path class="s" d="M130.946,6.82v5.441a1.184,1.184,0,0,1-1.184,1.184H125.43l3.489-.642a1.65,1.65,0,0,0,1.335-1.373Z" transform="translate(-18.088 1.769)"/><path class="s" d="M164.976,12.94v5.441a1.184,1.184,0,0,1-1.184,1.184H159.46l3.489-.642a1.65,1.65,0,0,0,1.335-1.373Z" transform="translate(-9.26 3.357)"/><path class="s" d="M160.136,12.94v5.441a1.184,1.184,0,0,1-1.184,1.184H154.62l3.489-.642a1.65,1.65,0,0,0,1.335-1.373Z" transform="translate(-10.516 3.357)"/><path class="s" d="M155.336,12.94v5.441a1.184,1.184,0,0,1-1.184,1.184H149.82l3.489-.642a1.65,1.65,0,0,0,1.335-1.373Z" transform="translate(-11.761 3.357)"/><path class="s" d="M150.266,12.94v5.441a1.184,1.184,0,0,1-1.184,1.184H144.75l3.489-.642a1.65,1.65,0,0,0,1.335-1.373Z" transform="translate(-13.076 3.357)"/><path class="s" d="M145.226,12.94v5.441a1.184,1.184,0,0,1-1.184,1.184H139.71l3.489-.642a1.65,1.65,0,0,0,1.335-1.373Z" transform="translate(-14.384 3.357)"/><path class="s" d="M160.9,19.65v5.479a1.184,1.184,0,0,1-1.184,1.184H155.38l3.489-.642A1.65,1.65,0,0,0,160.2,24.3Z" transform="translate(-10.318 5.098)"/><path class="s" d="M166.326,19.65v5.479a1.184,1.184,0,0,1-1.184,1.184H160.81l3.489-.642a1.65,1.65,0,0,0,1.335-1.373Z" transform="translate(-8.91 5.098)"/><path class="s" d="M171.6,19.65v5.479a1.184,1.184,0,0,1-1.184,1.184H166.08l3.489-.642A1.65,1.65,0,0,0,170.9,24.3Z" transform="translate(-7.542 5.098)"/><path class="s" d="M155.136,19.65v5.479a1.184,1.184,0,0,1-1.184,1.184H149.62l3.489-.642a1.65,1.65,0,0,0,1.335-1.373Z" transform="translate(-11.813 5.098)"/><path class="s" d="M149.736,19.65v5.479a1.184,1.184,0,0,1-1.184,1.184H144.22l3.489-.642a1.65,1.65,0,0,0,1.272-1.423Z" transform="translate(-13.214 5.098)"/><path class="s" d="M144.666,19.65v5.479a1.184,1.184,0,0,1-1.184,1.184H139.15l3.489-.642A1.65,1.65,0,0,0,144,24.247Z" transform="translate(-14.529 5.098)"/><path class="s" d="M139.006,19.65v5.479a1.184,1.184,0,0,1-1.184,1.184H133.49l3.489-.642a1.65,1.65,0,0,0,1.335-1.373Z" transform="translate(-15.997 5.098)"/><path class="s" d="M168.136,32v5.441a1.184,1.184,0,0,1-1.184,1.184H162.62l3.489-.642a1.65,1.65,0,0,0,1.335-1.373Z" transform="translate(-8.44 8.302)"/><path class="s" d="M162.416,32v5.441a1.184,1.184,0,0,1-1.184,1.184H156.9l3.489-.642a1.65,1.65,0,0,0,1.335-1.373Z" transform="translate(-9.924 8.302)"/><path class="s" d="M156.986,32v5.441a1.184,1.184,0,0,1-1.184,1.184H151.47l3.489-.642a1.65,1.65,0,0,0,1.335-1.373Z" transform="translate(-11.333 8.302)"/><path class="s" d="M151.916,32v5.441a1.184,1.184,0,0,1-1.184,1.184H146.4l3.489-.642a1.65,1.65,0,0,0,1.335-1.373Z" transform="translate(-12.648 8.302)"/><path class="s" d="M146.256,32v5.441a1.184,1.184,0,0,1-1.184,1.184H140.74l3.489-.642a1.65,1.65,0,0,0,1.335-1.373Z" transform="translate(-14.116 8.302)"/><path class="s" d="M173.026,25.77v5.441a1.184,1.184,0,0,1-1.134,1.146H167.56l3.489-.642a1.65,1.65,0,0,0,1.335-1.373Z" transform="translate(-7.158 6.686)"/><path class="s" d="M168.2,25.77v5.441a1.184,1.184,0,0,1-1.184,1.184H162.68l3.489-.642A1.65,1.65,0,0,0,167.5,30.38Z" transform="translate(-8.424 6.686)"/><path class="s" d="M163.386,25.77v5.441a1.184,1.184,0,0,1-1.184,1.184H157.87l3.489-.642a1.65,1.65,0,0,0,1.335-1.373Z" transform="translate(-9.672 6.686)"/><path class="s" d="M158.316,25.77v5.441a1.184,1.184,0,0,1-1.184,1.184H152.8l3.489-.642a1.65,1.65,0,0,0,1.335-1.373Z" transform="translate(-10.988 6.686)"/><path class="s" d="M153.286,25.77v5.441a1.184,1.184,0,0,1-1.184,1.184H147.77l3.489-.642a1.65,1.65,0,0,0,1.335-1.373Z" transform="translate(-12.293 6.686)"/><path class="s" d="M60.056,4.83v5.441a1.184,1.184,0,0,1-1.184,1.184H54.54l3.489-.642A1.65,1.65,0,0,0,59.364,9.44Z" transform="translate(-36.48 1.253)"/><path class="s" d="M65.479,4.83v5.441a1.184,1.184,0,0,1-1.184,1.184H60l3.489-.642a1.65,1.65,0,0,0,1.3-1.385Z" transform="translate(-35.063 1.253)"/><path class="s" d="M70.769,4.83v5.441a1.184,1.184,0,0,1-1.184,1.184H65.24l3.476-.655a1.65,1.65,0,0,0,1.335-1.373Z" transform="translate(-33.704 1.253)"/><path class="s" d="M75.966,4.91v5.441a1.184,1.184,0,0,1-1.184,1.184H70.45l3.489-.642A1.65,1.65,0,0,0,75.274,9.52Z" transform="translate(-32.352 1.274)"/><path class="s" d="M81.256,4.91v5.441a1.184,1.184,0,0,1-1.184,1.184H75.74l3.489-.642A1.65,1.65,0,0,0,80.564,9.52Z" transform="translate(-30.98 1.274)"/><path class="s" d="M72.209,10.95v5.441a1.184,1.184,0,0,1-1.184,1.184H66.68l3.489-.642A1.65,1.65,0,0,0,71.5,15.56Z" transform="translate(-33.33 2.841)"/><path class="s" d="M77.039,10.95v5.441a1.184,1.184,0,0,1-1.184,1.184H71.51L75,16.932a1.65,1.65,0,0,0,1.335-1.373Z" transform="translate(-32.077 2.841)"/><path class="s" d="M67.369,10.95v5.441a1.184,1.184,0,0,1-1.184,1.184H61.84l3.489-.642a1.65,1.65,0,0,0,1.335-1.373Z" transform="translate(-34.586 2.841)"/><path class="s" d="M62.567,10.95v5.441a1.184,1.184,0,0,1-1.184,1.184H57l3.489-.642a1.65,1.65,0,0,0,1.335-1.373Z" transform="translate(-35.841 2.841)"/><path class="s" d="M57.479,10.95v5.441a1.184,1.184,0,0,1-1.184,1.184H52l3.489-.642a1.65,1.65,0,0,0,1.3-1.385Z" transform="translate(-37.139 2.841)"/><path class="s" d="M67.659,17.66v5.466a1.184,1.184,0,0,1-1.184,1.184H62.13l3.489-.642A1.65,1.65,0,0,0,67,22.257Z" transform="translate(-34.511 4.582)"/><path class="s" d="M62.386,17.66v5.466A1.184,1.184,0,0,1,61.2,24.31H56.87l3.489-.642a1.65,1.65,0,0,0,1.335-1.373Z" transform="translate(-35.875 4.582)"/><path class="s" d="M56.956,17.66v5.466a1.184,1.184,0,0,1-1.184,1.184H51.44l3.489-.642a1.65,1.65,0,0,0,1.335-1.373Z" transform="translate(-37.284 4.582)"/><path class="s" d="M54.279,24.08v5.441A1.184,1.184,0,0,1,53.1,30.7H48.75l3.489-.642a1.65,1.65,0,0,0,1.335-1.373Z" transform="translate(-37.982 6.247)"/><path class="s" d="M59.466,24.16V29.6a1.184,1.184,0,0,1-1.184,1.184H54l3.489-.642a1.65,1.65,0,0,0,1.335-1.373Z" transform="translate(-36.62 6.268)"/><path class="t" d="M72.266,17.9v5.441a1.184,1.184,0,0,1-1.184,1.184H66.75l3.489-.642a1.65,1.65,0,0,0,1.335-1.373Z" transform="translate(-33.312 4.644)"/><path class="t" d="M77.709,17.9v5.441a1.184,1.184,0,0,1-1.184,1.184H72.18l3.552-.642a1.65,1.65,0,0,0,1.259-1.373Z" transform="translate(-31.903 4.644)"/><path class="t" d="M82.976,17.9v5.441a1.184,1.184,0,0,1-1.184,1.184H77.46l3.489-.642a1.65,1.65,0,0,0,1.335-1.373Z" transform="translate(-30.533 4.644)"/><path class="t" d="M74.766,24v5.441a1.184,1.184,0,0,1-1.184,1.184H69.25l3.463-.617a1.65,1.65,0,0,0,1.335-1.373Z" transform="translate(-32.663 6.226)"/><path class="t" d="M69.7,24v5.441a1.184,1.184,0,0,1-1.184,1.184H64.18l3.552-.617a1.65,1.65,0,0,0,1.259-1.373Z" transform="translate(-33.979 6.226)"/><path class="t" d="M64.766,24.16V29.6a1.184,1.184,0,0,1-1.184,1.184H59.25l3.463-.642a1.65,1.65,0,0,0,1.335-1.373Z" transform="translate(-35.258 6.268)"/><path class="t" d="M55.719,30.2v5.441a1.184,1.184,0,0,1-1.184,1.184H50.19l3.539-.655A1.65,1.65,0,0,0,54.988,34.8Z" transform="translate(-37.608 7.835)"/><path class="t" d="M60.554,30.2v5.441a1.184,1.184,0,0,1-1.184,1.184H55l3.489-.642a1.65,1.65,0,0,0,1.335-1.373Z" transform="translate(-36.36 7.835)"/><path class="t" d="M65.916,30.51v5.441a1.184,1.184,0,0,1-1.184,1.184H60.4l3.489-.642a1.65,1.65,0,0,0,1.335-1.373Z" transform="translate(-34.959 7.915)"/><path class="t" d="M56.816,36.63v5.5a1.184,1.184,0,0,1-1.184,1.184H51.3l3.489-.642A1.65,1.65,0,0,0,56.124,41.3Z" transform="translate(-37.32 9.503)"/><path class="t" d="M62.2,36.94v5.441a1.184,1.184,0,0,1-1.184,1.184H56.68l3.489-.642A1.65,1.65,0,0,0,61.5,41.55Z" transform="translate(-35.924 9.584)"/><path class="t" d="M70.567,30.73v5.441a1.184,1.184,0,0,1-1.184,1.184H65l3.489-.642a1.65,1.65,0,0,0,1.335-1.373Z" transform="translate(-33.766 7.972)"/><line class="u" y2="21.373" transform="translate(81.649 42.216)"/><line class="u" x2="20.466" y2="0.013" transform="translate(70.377 52.355)"/><path class="m" d="M95.56,130.3l-1.94-1.688h31.1l-1.788,1.738Z" transform="translate(-26.341 33.366)"/></g><path class="v" d="M196.593,137.13s5.907,35.843,8.9,42.456,6.814,14.824,6.814,14.824-8.564-11.335-9.773-13.589l-7.708-43Z" transform="translate(50.546 35.576)"/><line class="w" x2="219.948" transform="translate(0 305.841)"/><rect class="d" width="67.707" height="186.711" transform="translate(142.581 119.621)"/><path class="x" d="M174.326,97.22v87.216c-3-11.335-7.405-36.133-7.405-36.133a15.315,15.315,0,0,1-7.406-3.35c2.443-6.133,3.5-15.97,3.9-25.189-.617,1.259-1.335,1.9-2.091,1.65-5.176-1.725-.239-6.877-7.557-11.486-1.851-1.184-2.519-3.892-2.783-6.184a6.436,6.436,0,0,0-4.043-5.3l-8.816-3.5,17.632.3a26.094,26.094,0,0,1,7.758,6.851c-.076-3.073-.176-5.038-.176-5.038Z" transform="translate(35.836 24.631)"/><g class="y" transform="translate(156.371 197.744)"><line class="z" x2="23.539" transform="translate(0 7.065)"/><line class="z" x2="31.612" transform="translate(0 14.131)"/><line class="z" y1="6.889" transform="translate(3.186)"/><line class="z" y1="6.889" transform="translate(3.363 14.635)"/><line class="z" y1="6.902" transform="translate(22.531 14.295)"/><line class="z" y2="6.889" transform="translate(14.118 7.065)"/></g><g class="y" transform="translate(154.054 154.369)"><line class="z" y1="6.675" transform="translate(29.131 7.166)"/><line class="z" y1="6.675" transform="translate(16.599 14.32)"/><line class="z" y1="6.675" transform="translate(16.927)"/><line class="z" x2="38.728" transform="translate(0 13.841)"/><line class="z" x2="42.72" transform="translate(10.416 6.751)"/></g><g class="y" transform="translate(158.953 139.407)"><line class="z" x2="32.468" transform="translate(0 7.179)"/><line class="z" x2="40.68" transform="translate(0 14.358)"/><line class="z" y1="7.015" transform="translate(11.788)"/><line class="z" y1="7.002" transform="translate(11.965 14.874)"/><line class="z" y1="7.002" transform="translate(31.448 14.534)"/><line class="z" y2="7.015" transform="translate(22.897 7.179)"/></g><path class="aa" d="M177.427,193.265v75.566H160.374l-2.62-12.871a4.232,4.232,0,0,1,4.144-5.038h8.7a31.375,31.375,0,0,0-2.242-6.549c-2.519-5.038-7.758-3.778-8.589-4.207-4.156-2.267-5.3-3.866-6.511-8.816-.945-3.942-3.123-5.793-6.536-8.161-6.3-4.4-.68-9.534-9.068-13.1-2.972-1.259-4.761-5.038-6.02-9.5a13.728,13.728,0,0,0-4.824-7.091c17.116,3.552,33.123,22.053,41.007,40.629a85.119,85.119,0,0,1,5.038,16.839h2.7c.239-4.081.39-8.073.4-11.473a57.938,57.938,0,0,0-.34-7.015c-1.448-10.453-5.038-10.252-11.171-13.942s1.02-11.033-3.048-15.68-6.4-2.028-4.358-13.652-8.627-11.033-9.106-20.907,4.169-13.35,2.708-23.8C150.676,144.424,172.7,159.336,177.427,193.265Z" transform="translate(32.899 37.488)"/><path class="ab" d="M290.286,63.383c1.637-2.67,2.317-7.091,1.335-8.929,0,0-.856-1.927-2.519-1.259h0s-1.033-2.3-3.023-1.486l-.353.176a3.526,3.526,0,0,0-.957-1.184l-.3-.2c.076-.781.264-2.33.567-3.929,1.259-.416,1.536-1.184.705-1.99l-.189-.164.3-1.045h0c.554-2.141-.176-2.078-.176-2.078a3.224,3.224,0,0,0-1.562,1.259h0a4.555,4.555,0,0,0-.416.6l-.139.239a13.5,13.5,0,0,0-2.809-.655,11.776,11.776,0,0,0-2.746,0,3.413,3.413,0,0,0-6.033-1.914h0l-.642-.214a.428.428,0,0,0-.542.277l-.063.2-6.3-2.04a.659.659,0,1,0-.39,1.259l.39.126-.479,1.285a.441.441,0,0,0,.227.554.428.428,0,0,0,.579-.264l.126-.4a.214.214,0,0,1,.264-.139l.4.126a.214.214,0,0,1,.139.264l-.126.378a.441.441,0,0,0,.227.554.428.428,0,0,0,.579-.264l.466-1.423,3.463,1.121-.063.2a.428.428,0,0,0,.277.542l.642.214h0a3.413,3.413,0,0,0,.29,1.121h-.34a.428.428,0,0,0-.416.441v.214l-6.6.176a.655.655,0,0,0-.453.2.642.642,0,0,0,.491,1.083h.4v1.474a.441.441,0,0,0,.4.441.428.428,0,0,0,.453-.441v-.428a.214.214,0,0,1,.2-.214h.428a.214.214,0,0,1,.214.214v.4a.441.441,0,0,0,.4.441.428.428,0,0,0,.453-.441v-1.5l3.627-.1v.214a.428.428,0,0,0,.441.416h.68a3.413,3.413,0,0,0,6.486-.705l.718.227a14.132,14.132,0,0,0,2.96.491,49.1,49.1,0,0,0-1.461,5.353,5.448,5.448,0,0,0-.479.982c-.428-.919-1.259-2.229-2.254-1.259-.743.743.365,1.184-.97,3.64a10.214,10.214,0,0,0,.076,10.075c-2.355.2-2.859.844-2.859.844h0l-8.64,27.632h0S240.627,70.02,235.085,65.335s-17.468-4.144-21.738-4.887-7.128-2.028-7.67-3.3h0a4.155,4.155,0,0,1-.214-.919l.567-.214c5.667-2.217,5.6-8.048,5.39-15.478,0-.919-.076-1.839-.113-2.783-.29-6.3-1.738-12.015-4.509-15.982,3.438-1.259,4.534-2.821,4.673-3.35.277-1.045.1-4.383-11.813-4.471s-17.531,4.093-18.677,8.186c-.768,2.771,0,9.975.894,15.441A5.718,5.718,0,0,0,181.7,40.6a6.411,6.411,0,0,0,1.423,2.783v.176a5.39,5.39,0,0,0,3.073,3.5l.29.768.3.68v.1c.264,3.476.428,7.821-.164,9.106h0c-1.045,2.217-8.1,1.045-13.589-1.045s-13.2-4.307-17.128.793-24.332,39.672-26.662,52.267c-1.146,6.3,6.889,6.083,14.421,6.788,6.6.6,11.335,1.259,11.436,1.259a2.016,2.016,0,0,0,.479.239l3.715,1.965c.063,2.254.68,5.378,3.111,7.191a38.224,38.224,0,0,1,5.6,6.234s.151,1.058.277,2.746a.229.229,0,0,0,0,.076h0c.3,18.892-1.549,27.393-1.574,27.493h0s3.6.894,9.118,1.877c1.549,6.2,3.426,13.438,3.426,13.438v-.1c4.66,17.519,12.065,42.632,18.035,49.987,2.519,3.086,6.914,8.426,12.154,14.773l-.466,20.63c-.441,16.133-.793,32.166-.793,32.166.567.252,1.121.479,1.675.693-.189,3.778-.642,8.413-.453,9.912.252,2,7.116,2.053,7.116,2.053l.2-2.078a19.887,19.887,0,0,0,16.373,6.5c10.264-.97,7.783-4.685,3.224-6.965-7.557-3.778-9.975-6.1-10.756-7.292a22.156,22.156,0,0,0,3.665-.655s.806-12.519,1.725-26.776l.277-1.738c8.564,10.441,15.97,19.6,18.589,23.174a46.9,46.9,0,0,0,4.358-2.834c0,1.637,0,6.222,0,15.667-3.678,3.652-1.814,6.952,1.612,6.751a7.557,7.557,0,0,0,6.07-3.337c6.5-9.27,3.514-13.791,3.514-13.791l1.99,1.008s3.262-6.725,1.738-9c-.869-1.259-3.577-4.207-6.3-7.116a7.746,7.746,0,0,0,.491-2.607S242.466,250.2,235.69,241.24L233.1,237.79l.176-2.607c.806-12.04,0-53.853-.378-67.833.869-.227,1.259-.5,1.184-.869h0c-2.519-19.483-5.113-32.846-5.453-44.08a126.95,126.95,0,0,1,2.519-29.471s30.138,20.151,34.723,22.116,6.927.642,12.683-9.484c5.176-9.106,7.846-32.645,8.337-37.241v-.441a1.484,1.484,0,0,0,0-.34h0A27.819,27.819,0,0,0,290.286,63.383ZM176.522,135.3c-.466,1.612-4.635,5.793-4.635,5.793s-2.632,1.851-3.287-.164c.655,2.015,3.287.151,3.287.151s4.169-4.169,4.635-5.793-.869-9.345-.869-9.358h0S176.988,133.66,176.522,135.3ZM164.23,112a2.141,2.141,0,0,0-.189-2.28h.139a36.525,36.525,0,0,0-6.3-3.955,51.537,51.537,0,0,0-6.839-3.048A87.946,87.946,0,0,1,162.819,87.06l.68,3.287c.264,1.537,1.461,7.771,2.909,19.521.2,1.587.39,3.212.567,4.861h0C165.867,113.509,164.922,112.64,164.23,112ZM285.274,45.688l.076-.39v-.176a.416.416,0,0,1-.126.554Zm-8.148.214a2.121,2.121,0,0,1-.088.34h0a2.155,2.155,0,0,1-.151.315l-.063.1-.164.214-.088.088a2.083,2.083,0,0,1-.264.227h0l-.29.164H275.9l-.252.088h-.113a1.94,1.94,0,0,1-.756,0h-.113l-.252-.076H274.3l-.3-.151h0a2.085,2.085,0,0,1-.277-.214l-.088-.088-.176-.2-.076-.1a2.113,2.113,0,0,1-.176-.3h0a2.052,2.052,0,0,1-.113-.34V45.89a3.388,3.388,0,0,0,3.955-.453l.252.139v.164Zm-4.458-3.778.063-.139.088-.139.088-.126.1-.126.1-.113.113-.113.113-.1.126-.088.139-.088.139-.063.151-.063h1.536l.139.063.139.076.126.088.139.1.113.1.113.113.1.113.1.126.088.139.076.139.063.151v.29h0a3.375,3.375,0,0,0-4.206.667v-.076a2.129,2.129,0,0,1,0-.353V42.59a2.125,2.125,0,0,1,0-.277V42.2Zm2.985,2.72h-.113l-.315.126h-.831a1.94,1.94,0,0,1-.718-.227h-.1l-.214-.151-.1-.076h0l.088-.139.088-.113.113-.139.1-.1.126-.113.126-.088.139-.088.139-.076.139-.063h1.625a.869.869,0,0,0,0,1.121h0Zm3.942.995c-.39-.113-.781-.227-1.146-.353h0a3.375,3.375,0,0,0-.516-1.688,3.42,3.42,0,0,0,.088-.5,11.725,11.725,0,0,1,2.72.076,13.025,13.025,0,0,1,2.519.567,19.079,19.079,0,0,0-.844,1.9h0l-.063.189-.1.29a17.431,17.431,0,0,1-2.708-.516Z" transform="translate(33.502 3.619)"/><path class="ac" d="M212.188,240.756s-.73,2.355,11.1,8.274c4.559,2.28,7.04,5.982-3.224,6.965a19.886,19.886,0,0,1-16.373-6.5l-.2,2.078s-6.864,0-7.116-2.053.655-9.7.516-13.211Z" transform="translate(50.934 61.307)"/><path class="ac" d="M232.324,236.079s.063,4.03,0,16.373c-3.678,3.652-1.814,6.952,1.612,6.751a7.557,7.557,0,0,0,6.07-3.337c6.5-9.269,3.514-13.791,3.514-13.791l1.99,1.008s3.262-6.725,1.738-9-8.489-9.232-11.335-12.947Z" transform="translate(59.751 57.369)"/><path class="ad" d="M162.4,136.585a174.208,174.208,0,0,0,37.783,4.584c18.8-.151,30.226,0,29.723-1.788s-14.358-16.713-14.358-16.713l-33.274-3.778-11.9,10.214Z" transform="translate(42.132 30.844)"/><path class="ae" d="M221.486,135.828s1.448,57.934.479,72.417-4.118,63.463-4.118,63.463a32.745,32.745,0,0,1-21.07-2.179s.97-44.08,1.7-59.584S190,121.054,190,121.054s11.335-4.358,16.222-2.179S221.486,135.828,221.486,135.828Z" transform="translate(49.293 30.682)"/><path class="ae" d="M168.84,132.383s13.086,56.2,22.531,67.821,46.02,55.415,52.556,64.433c0,0,13.564-7.557,13.564-15.264,0,0-20.831-27.859-27.607-36.813s-16.234-21.8-20.541-28.577c0,0-8-45.541-9.446-55.415S168.84,132.383,168.84,132.383Z" transform="translate(43.803 32.426)"/><path class="af" d="M192.85,125c1.448,9.924,10.2,59.017,10.2,59.017,3.778,5.945,11.549,16.536,17.96,25.088,0,0-9.257-18.4-13-22.934S195.759,133,195.759,133l-2.909-8" transform="translate(50.032 32.429)"/><path class="ag" d="M228.435,139.835s-11.814-3.388-26.133,3.174l-1.4-3.98s-21.41-.932-27.456,13.325c0,0-5.038-19.295-5.378-21.813s32.153-13.4,32.153-13.4l20.655,10.252Z" transform="translate(43.603 30.39)"/><path class="ad" d="M162.206,90.128c1.259,1.259-.353,4.043-2.708,6.3s-5.239,2.909-6.448,1.612-.29-4.131,2.065-6.3S161,88.869,162.206,90.128Z" transform="translate(39.568 23.221)"/><path class="ah" d="M290.551,59.333a6.13,6.13,0,0,1-.076.793c-.491,4.6-3.161,28.123-8.337,37.241-5.756,10.076-8.1,11.4-12.683,9.484s-34.723-22.116-34.723-22.116a126.923,126.923,0,0,0-2.519,29.471c.34,11.247,2.9,24.609,5.453,44.08a103.486,103.486,0,0,0-23.274-6.675,98.542,98.542,0,0,1-3.136-13.5s-2.972,4.484-4.018,12.884a110,110,0,0,0-35.138,3.892h0c-.667.176-1.259.39-1.965.592,0,0,1.877-8.463,1.574-27.519.063.995.113,2.229.113,3.589,0,3.7,3.438,1.259,3.438,1.259s4.169-4.169,4.635-5.793-.869-9.358-.869-9.358a80.346,80.346,0,0,0-4.761-6.7c-1.486-1.877-2.758-3.338-3.9-4.547-.176-1.65-.365-3.287-.567-4.861-1.411-11.725-2.67-17.96-2.9-19.5l-.68-3.312a87.935,87.935,0,0,0-11.851,15.718,51.524,51.524,0,0,1,6.839,3.048,36.522,36.522,0,0,1,6.3,3.955,6.813,6.813,0,0,0-6.108,1.259,7.884,7.884,0,0,0-1.6,1.877c-1.725,2.758.957.831.894,2.343s-2.191,2.519-2.191,2.519-4.8-.668-11.436-1.259c-7.557-.705-15.579-.554-14.421-6.788,2.343-12.594,22.871-47.178,26.788-52.279s11.637-2.872,17.128-.793,12.594,3.262,13.589,1.045h16.939l2-.617c.542,1.259,3.413,2.519,7.67,3.3s16.184.214,21.738,4.9,30.327,28.841,30.327,28.841l8.64-27.632s.73-.932,4.547-.894c6.033,0,8.426,1.814,8.564,1.927Z" transform="translate(34.383 11.938)"/><path class="ai" d="M172.121,114.589c-.466,1.612-4.635,5.793-4.635,5.793s-3.438,2.431-3.438-1.259a34.026,34.026,0,0,0-.113-3.577.2.2,0,0,1,0-.076c0-1.839-.076-3.778-.151-5.806-.189-5.2-.63-10.554-1.184-15.655a75.077,75.077,0,0,1,8.665,11.247S172.587,112.977,172.121,114.589Z" transform="translate(42.184 24.389)"/><path class="aj" d="M173.9,49.68a68.135,68.135,0,0,1,2.33,17.481,36.952,36.952,0,0,1,6.826.327s-4.5,3.992-4.824,5.038c0,0,13.854,9.824,18.98,32.468" transform="translate(45.116 12.889)"/><path class="aj" d="M200.17,50.91s4.748,9.71,6.3,14a19.258,19.258,0,0,0-4.975,1.8s4.068,1.587,4.748,3.161c0,0-9.03,14.458-11.751,27.556" transform="translate(50.457 13.208)"/><path class="ak" d="M195.818,88.588c-4.824-17.191-11.5-28.488-15.05-33.69-1.5-2.191-2.443-3.312-2.443-3.312,1.045-2.217-.264-13.766-.264-13.766l18.816,6.725s-.139,5.189.39,6.474c.189,1.8.327,3.6.428,5.365A150.24,150.24,0,0,1,195.818,88.588Z" transform="translate(46.195 9.812)"/><path class="ak" d="M197.838,54.673c-6.045.919-11.045,3.678-16.688-3.161a15.377,15.377,0,0,1-2.116-3.564c-.2-.466-.4-.945-.592-1.448-3.186-8.564-3.388-21.876-.831-25.075s13.01-7.229,18-3.69a13.969,13.969,0,0,1,3.375,3.463c2.771,3.967,4.219,9.647,4.509,15.982,0,.932.076,1.864.113,2.783C203.745,47.393,203.216,53.854,197.838,54.673Z" transform="translate(45.623 4.243)"/><path class="ad" d="M182.35,22.768s-4,4.761-3.426,8.816,2,12.481,4.672,13.526,8-3.438,12.859-3.778,6.7,1.36,7.758-.743c.214,7.431.29,13.262-5.39,15.478-4.647,1.814-11.41,2.9-17.065-3.929a15.354,15.354,0,0,1-2.116-3.564l-.3-.68-.29-.768a5.39,5.39,0,0,1-3.073-3.5c-1.146-3.526-3.337-17.342-2.191-21.41s6.763-8.287,18.677-8.186,12.191-.957,11.9.088c-.151.529-1.335,6.536-4.773,7.733S190.978,23.65,182.35,22.768Z" transform="translate(45.003 3.541)"/><path class="ak" d="M178.271,35.395c.567,2.657,1.259,4.937.126,5.176s-3.5-1.675-4.081-4.32.919-5.038,2-5.277S177.73,32.737,178.271,35.395Z" transform="translate(45.19 8.031)"/><path class="al" d="M195.26,85.07c-4.824-17.191-11.5-28.488-15.05-33.69,4.446,2.191,12.242,5.113,16.939,1.486A150.234,150.234,0,0,1,195.26,85.07Z" transform="translate(46.753 13.33)"/><path class="aj" d="M192.16,78.13s1.008,6.788,1.259,11.788c.529,11.738,1.549,29.42,2.406,39.861" transform="translate(49.853 20.27)"/><path class="ak" d="M174.587,115.445c-.466,1.612-4.635,5.793-4.635,5.793s-3.438,2.431-3.438-1.259a34.027,34.027,0,0,0-.113-3.577.2.2,0,0,1,0-.076c-.113-1.688-.277-2.746-.277-2.746a38.224,38.224,0,0,0-5.642-6.2c-2.431-1.814-3.048-4.95-3.111-7.191l-4.181-2.217a6.171,6.171,0,0,1,2.519-6.1,4.622,4.622,0,0,1,6.045-.088l-.139-.126a41.875,41.875,0,0,1,3.4,3.2,75.073,75.073,0,0,1,8.665,11.247S175.053,113.833,174.587,115.445Z" transform="translate(39.719 23.534)"/><path class="am" d="M165.434,109a23.531,23.531,0,0,1,0,5.667l-.6,2.393" transform="translate(42.763 28.278)"/><path class="am" d="M167.017,107.28s.668,4.672.252,6.3a33.069,33.069,0,0,1-1.159,3.489" transform="translate(43.095 27.832)"/><path class="am" d="M168.769,105.23s.265,3.212.4,4.9c.2,2.431-1.612,5.856-1.612,5.856" transform="translate(43.471 27.3)"/><path class="ad" d="M260.57,57.743c-.353.718-1.562,1.612-6.058,1.1-7.154-.819-6.9-2.884-6.9-2.884s.73-.932,4.547-.894c6.033,0,8.426,1.814,8.564,1.927h0A1.512,1.512,0,0,1,260.57,57.743Z" transform="translate(64.238 14.284)"/><path class="an" d="M194.129,48.3s-.151,18.06-3.929,29.723c0,0,2.015,6.826,2.519,7.846,0,0,.567-3.086,1.108-7.758C194.7,70.126,195.641,57.595,194.129,48.3Z" transform="translate(49.344 12.531)"/><path class="aj" d="M159.28,73.541s4.723-5.176,6.675-7.481" transform="translate(41.323 17.138)"/><path class="aj" d="M143.5,82.44s6.108.945,8.451,2.594c0,0-5.529-1.6-10.075-.365" transform="translate(36.809 21.388)"/><path class="aj" d="M239.805,83.105a40.611,40.611,0,0,1,1.713-5.365A15.958,15.958,0,0,0,237.74,83.8" transform="translate(61.678 20.168)"/><circle class="al" cx="0.831" cy="0.831" r="0.831" transform="translate(245.212 116.132)"/><circle class="al" cx="0.831" cy="0.831" r="0.831" transform="translate(246.673 131.8)"/><circle class="al" cx="0.831" cy="0.831" r="0.831" transform="translate(247.051 145.767)"/><path class="ak" d="M256.661,45.448a40.465,40.465,0,0,1,1.259-7.028c.882-2.809,0-2.72,0-2.72-3.337.97-5.34,12.229-5.34,12.229l.34,1.385,1.952-.365,1.826-3.514" transform="translate(65.528 9.262)"/><path class="ak" d="M258.164,44.492s-1.02-2.3-3.023-1.486a5.038,5.038,0,0,0-3.023,4.106c-.416,1.8-.2,4.559,1.259,4.257s.919-1.8,1.9-3.854A7.129,7.129,0,0,1,258.164,44.492Z" transform="translate(65.36 11.112)"/><path class="ak" d="M260.824,45.492s-1.02-2.3-3.023-1.486a5.038,5.038,0,0,0-3.023,4.106c-.416,1.8-.2,4.559,1.259,4.257s.919-1.8,1.9-3.841A7.128,7.128,0,0,1,260.824,45.492Z" transform="translate(66.05 11.371)"/><path class="ak" d="M262.62,46.45s-.869-1.952-2.519-1.259a4.232,4.232,0,0,0-2.519,3.463c-.34,1.511-.176,3.854,1.033,3.589s.781-1.511,1.6-3.249A6.008,6.008,0,0,1,262.62,46.45Z" transform="translate(66.785 11.685)"/><path class="ak" d="M251.059,44.245c-.743.743.365,1.184-.97,3.64s-2.355,6.3.642,11.146a9.077,9.077,0,0,1-.226,2.014,26.916,26.916,0,0,0,5.277.858,6.448,6.448,0,0,0,3.942-.617,1.738,1.738,0,0,0,.705-1.4,27.7,27.7,0,0,0,3.1-4.207c1.637-2.67,2.317-7.091,1.335-8.929s-9.509-1.587-9.509-1.587l-1.688,1.083S252.495,42.771,251.059,44.245Z" transform="translate(64.543 11.384)"/><path class="ao" d="M258.025,44.381s-.894-2.2-2.884-1.373a5.038,5.038,0,0,0-3.023,4.106c-.416,1.8-.2,4.559,1.259,4.257s.919-1.8,1.9-3.854a4.938,4.938,0,0,1,1.373-1.952" transform="translate(65.36 11.109)"/><path class="ao" d="M260.824,45.492s-1.02-2.3-3.023-1.486a5.038,5.038,0,0,0-3.023,4.106c-.416,1.8-.2,4.559,1.259,4.257s.919-1.8,1.9-3.841a10.078,10.078,0,0,1,1.259-1.814" transform="translate(66.05 11.371)"/><path class="ao" d="M262.62,46.45s-.869-1.952-2.519-1.259a4.232,4.232,0,0,0-2.519,3.463c-.34,1.511-.176,3.854,1.033,3.589s.781-1.511,1.6-3.249" transform="translate(66.785 11.685)"/><path class="ao" d="M259.843,47.021s-.126,1.008-.252,1.511,1.373-.856,1.373-1.612" transform="translate(67.345 12.173)"/><path class="ao" d="M252.73,49.55s2.229,1.486,2.406,3.174" transform="translate(65.567 12.855)"/><path class="ap" d="M241.218,36.952l.126-.378a.214.214,0,0,0-.139-.264l-.4-.126a.214.214,0,0,0-.264.139l-.126.4a.428.428,0,0,1-.579.264.441.441,0,0,1-.227-.554l.579-1.776,2.443.793-.579,1.8a.428.428,0,0,1-.579.264A.441.441,0,0,1,241.218,36.952Z" transform="translate(62.155 8.992)"/><path class="aq" d="M239.345,34.784a.642.642,0,0,1,.781-.907l6.511,2.116-.39,1.259-6.511-2.116A.655.655,0,0,1,239.345,34.784Z" transform="translate(62.075 8.779)"/><path class="ap" d="M245.494,37.772l-.642-.214a.428.428,0,0,1-.277-.542l.529-1.625a.428.428,0,0,1,.542-.277l.642.214Z" transform="translate(63.446 9.104)"/><path class="aq" d="M245.666,39.284a3.426,3.426,0,1,0-.2-2.607,3.426,3.426,0,0,0,.2,2.607Zm4.018.353a2.141,2.141,0,1,1,1.058-1.259A2.141,2.141,0,0,1,249.684,39.637Z" transform="translate(63.638 8.901)"/><path class="aq" d="M246.248,38.758a2.519,2.519,0,1,0-.151-1.965A2.519,2.519,0,0,0,246.248,38.758Zm.39-.2a1.1,1.1,0,1,0,0-.05Z" transform="translate(63.812 9.101)"/><path class="ap" d="M241.783,41.3v-.4a.214.214,0,0,0-.214-.214h-.428a.214.214,0,0,0-.214.214v.428a.428.428,0,0,1-.453.441.441.441,0,0,1-.4-.441V39.463l2.519-.063v1.889a.428.428,0,0,1-.453.441A.441.441,0,0,1,241.783,41.3Z" transform="translate(62.282 10.222)"/><path class="aq" d="M239.384,39.915a.633.633,0,0,1,.428-1.108l6.839-.176v1.259l-6.851.189A.655.655,0,0,1,239.384,39.915Z" transform="translate(62.049 10.022)"/><path class="ap" d="M246.081,40.659h-.68a.428.428,0,0,1-.441-.416V38.531a.428.428,0,0,1,.416-.441h.68Z" transform="translate(63.551 9.882)"/><path class="aq" d="M246.691,42.218a3.426,3.426,0,1,0-1.071-2.393,3.426,3.426,0,0,0,1.071,2.393Zm3.9-1.008a2.4,2.4,0,1,1,0,.013Z" transform="translate(63.722 9.418)"/><path class="aq" d="M247.1,41.429a2.519,2.519,0,1,0-.806-1.8A2.519,2.519,0,0,0,247.1,41.429Zm.3-.315a2.141,2.141,0,1,1,1.524.579,2.141,2.141,0,0,1-1.524-.579Z" transform="translate(63.896 9.615)"/><path class="aq" d="M249.319,39.062a7.242,7.242,0,0,0,2.96,1.448,11.939,11.939,0,0,0,5.73.277c1.461-.39,1.839-1.259.945-2.065a9.559,9.559,0,0,0-5.038-1.851c-2.141-.264-4.018,0-4.773.642C248.689,37.941,248.739,38.5,249.319,39.062Zm.806-.227c-.479-.466-.516-.73-.1-1.083a6.3,6.3,0,0,1,3.9-.3,9.194,9.194,0,0,1,4.257,1.411c.806.63.529,1.071-.693,1.4a10.831,10.831,0,0,1-4.71-.3,7.066,7.066,0,0,1-2.657-1.133Z" transform="translate(64.557 9.539)"/><path class="aj" d="M215.687,68.34a106.647,106.647,0,0,1-1.977,10.592" transform="translate(55.444 17.73)"/><path class="ar" d="M218.422,222.488,196.533,196.43l-.793,35.264s7.758-8.955,22.078-5.378Z" transform="translate(50.782 50.961)"/><path class="ak" d="M254.69,38.6a11.087,11.087,0,0,1,1.1-1.9c.29-.327,1.751.844,1.751.844l-.579,2.065Z" transform="translate(66.075 9.507)"/><path class="as" d="M257.191,38.73s0,.6-2.922.667l-.189.554s2.242.164,2.884-.453h.1Z" transform="translate(65.917 10.048)"/><path class="at" d="M195.688,38.27c.491.264.479,1.562,0,2.355a2.846,2.846,0,0,1-4.005.68,3.262,3.262,0,0,1-1.423-2.594c0-.126.1-.126.844,0a6.045,6.045,0,0,0,2.8-.214C194.517,38.371,194.97,37.88,195.688,38.27Z" transform="translate(49.36 9.89)"/><ellipse class="au" cx="0.781" cy="0.907" rx="0.781" ry="0.907" transform="translate(242.013 35.34) rotate(-15.22)"/><ellipse class="au" cx="0.781" cy="0.907" rx="0.781" ry="0.907" transform="translate(233.016 36.711) rotate(-15.22)"/><path class="au" d="M183.39,29.547a4.006,4.006,0,0,1,.756-2.015,4.785,4.785,0,0,1,1.662-1.423,4.383,4.383,0,0,1,2.166-.529,4.018,4.018,0,0,1,2.078.567c-.718.151-1.36.227-1.965.4a7.1,7.1,0,0,0-1.688.667A12.959,12.959,0,0,0,183.39,29.547Z" transform="translate(47.578 6.636)"/><path class="au" d="M191.2,25.61a3.7,3.7,0,0,1,1.587-.945,4.71,4.71,0,0,1,1.877-.2,4.131,4.131,0,0,1,1.8.6,3.464,3.464,0,0,1,1.259,1.335c-.6-.189-1.108-.416-1.637-.542a7.973,7.973,0,0,0-1.562-.29,18.892,18.892,0,0,0-3.325.038Z" transform="translate(49.604 6.341)"/><path class="av" d="M190.47,28.78q.919.945,1.725,1.952c.567.68,1.045,1.259,1.662,1.977a2.519,2.519,0,0,1,.5,1.461,2.607,2.607,0,0,1-.453,1.423,5.517,5.517,0,0,1-2.028,1.751,12.065,12.065,0,0,0,1.385-2.1,1.814,1.814,0,0,0-.176-1.977c-.189-.264-.567-.667-.793-1.008s-.491-.73-.705-1.108a14.469,14.469,0,0,1-1.121-2.368Z" transform="translate(49.415 7.467)"/><path class="aw" d="M163.449,101.53c-.176-1.65-.365-3.287-.567-4.861-1.436-11.763-2.7-18-2.922-19.534l-.68-3.312s6.3-7.3,8.98-8.816c2-1.121.164,27.43-.907,40.995C165.9,104.225,164.582,102.727,163.449,101.53Z" transform="translate(41.323 16.857)"/><path class="ax" d="M173.571,115.013a23.565,23.565,0,0,1-5.2,10.075s-3.073,12.859-4,15.05h0c-.667.176-1.259.39-1.965.592,0,0,1.877-8.463,1.574-27.519.063.995.113,2.229.113,3.589,0,3.7,3.438,1.259,3.438,1.259s4.169-4.169,4.635-5.793-.869-9.358-.869-9.358S174.692,110.454,173.571,115.013Z" transform="translate(42.132 26.698)"/><path class="ay" d="M213.83,78.574l1.6-8.564s15.856,20.34,25.315,26.133Z" transform="translate(55.475 18.163)"/><path class="az" d="M173.89,50.14s.592,12.191.113,17.468a18.626,18.626,0,0,1,4.572,1.259s-2.934,3.514-2.519,5.39c0,0,15.113,13.249,20.151,27.2,0,0-5.038-20.012-17.934-29.118,0,0,3.678-3.7,4.824-5.038,0,0-4.61-.894-6.826-.327C176.232,67.042,176.547,55.417,173.89,50.14Z" transform="translate(45.113 13.008)"/><path class="ba" d="M202.012,64.716a11.838,11.838,0,0,1,3.35-1.083l-1.474-1.373L200.11,63.8Z" transform="translate(51.915 16.152)"/><path class="bb" d="M204.8,68a11.688,11.688,0,0,1,1.373,1.675s-8.816,12.9-11.121,21.562C195.05,91.274,198.891,77.987,204.8,68Z" transform="translate(50.603 17.642)"/><rect class="k" width="5.466" height="126.044" transform="translate(101.397 180.301)"/><rect class="k" width="5.466" height="126.044" transform="translate(89.898 180.301)"/><rect class="k" width="5.453" height="126.044" transform="translate(67.04 180.301)"/><rect class="k" width="5.453" height="126.044" transform="translate(55.604 180.301)"/><rect class="k" width="5.453" height="126.044" transform="translate(78.488 180.301)"/><rect class="k" width="5.453" height="126.044" transform="translate(44.168 180.301)"/><rect class="k" width="5.466" height="126.044" transform="translate(32.745 180.301)"/><rect class="k" width="5.453" height="126.044" transform="translate(21.272 180.301)"/><rect class="k" width="5.466" height="126.044" transform="translate(112.757 180.301)"/><rect class="k" width="5.466" height="126.044" transform="translate(135.88 180.301)"/><rect class="d" width="5.453" height="126.044" transform="translate(137.115 180.301)"/><rect class="k" width="2.733" height="126.044" transform="translate(139.848 180.301)"/><rect class="k" width="5.466" height="126.044" transform="translate(124.18 180.301)"/><rect class="d" width="5.466" height="126.044" transform="translate(125.692 180.301)"/><rect class="d" width="5.453" height="126.044" transform="translate(114.256 180.301)"/><rect class="d" width="5.466" height="126.044" transform="translate(102.833 180.301)"/><rect class="d" width="5.453" height="126.044" transform="translate(91.397 180.301)"/><rect class="d" width="5.466" height="126.044" transform="translate(79.961 180.301)"/><rect class="d" width="5.466" height="126.044" transform="translate(68.538 180.301)"/><rect class="d" width="5.466" height="126.044" transform="translate(57.103 180.301)"/><rect class="d" width="5.453" height="126.044" transform="translate(45.68 180.301)"/><rect class="d" width="5.466" height="126.044" transform="translate(34.244 180.301)"/><rect class="d" width="5.453" height="126.044" transform="translate(22.808 180.301)"/><rect class="d" width="130.603" height="5.542" transform="translate(12.544 207.593)"/><rect class="d" width="130.603" height="5.542" transform="translate(12.544 180.301)"/><rect class="k" width="5.453" height="1.36" transform="translate(68.576 213.147)"/><path class="k" d="M105.253,170.6,99.8,172.174V169.24h5.453Z" transform="translate(25.892 43.907)"/><path class="k" d="M114.263,170.6l-5.453,1.486V169.24h5.453Z" transform="translate(28.229 43.907)"/><rect class="k" width="5.453" height="1.36" transform="translate(68.564 185.855)"/><path class="k" d="M105.253,148.93,99.8,150.378V147.57h5.453Z" transform="translate(25.892 38.285)"/><path class="k" d="M114.333,148.93l-5.453,1.448V147.57h5.453Z" transform="translate(28.247 38.285)"/><path class="k" d="M96.186,170.6l-5.466,1.574V169.24h5.466Z" transform="translate(23.536 43.907)"/><path class="k" d="M96.186,148.93l-5.466,1.448V147.57h5.466Z" transform="translate(23.536 38.285)"/><path class="k" d="M87.166,170.6,81.7,172.174V169.24h5.466Z" transform="translate(21.196 43.907)"/><path class="k" d="M87.163,148.93l-5.453,1.448V147.57h5.453Z" transform="translate(21.198 38.285)"/><path class="k" d="M78.036,170.6l-5.466,1.574V169.24h5.466Z" transform="translate(18.827 43.907)"/><path class="k" d="M78.023,148.93l-5.453,1.448V147.57h5.453Z" transform="translate(18.827 38.285)"/><path class="k" d="M68.956,170.6l-5.466,1.574V169.24h5.466Z" transform="translate(16.472 43.907)"/><path class="k" d="M68.953,148.93,63.5,150.378V147.57h5.453Z" transform="translate(16.474 38.285)"/><path class="k" d="M59.9,170.6l-5.466,1.574V169.24H59.9Z" transform="translate(14.121 43.907)"/><path class="k" d="M59.883,148.93l-5.453,1.448V147.57h5.453Z" transform="translate(14.121 38.285)"/><path class="k" d="M50.806,170.6l-5.466,1.574V169.24h5.466Z" transform="translate(11.763 43.907)"/><path class="k" d="M50.793,148.93l-5.453,1.448V147.57h5.453Z" transform="translate(11.763 38.285)"/><path class="k" d="M41.726,170.6l-5.466,1.574V169.24h5.466Z" transform="translate(9.407 43.907)"/><path class="k" d="M41.723,148.93l-5.453,1.448V147.57h5.453Z" transform="translate(9.41 38.285)"/><path class="k" d="M32.653,170.6,27.2,172.174V169.24h5.453Z" transform="translate(7.057 43.907)"/><path class="k" d="M32.653,148.93,27.2,150.378V147.57h5.453Z" transform="translate(7.057 38.285)"/><path class="k" d="M23.573,170.6l-5.453,1.574V169.24h5.453Z" transform="translate(4.701 43.907)"/><path class="k" d="M23.533,148.93l-5.453,1.448V147.57h5.453Z" transform="translate(4.691 38.285)"/><path class="ad" d="M196.66,238.86a37.228,37.228,0,0,0,15.718,2.217" transform="translate(51.02 61.969)"/><path class="bc" d="M226,103.36" transform="translate(58.632 26.815)"/><path class="bd" d="M129.63,176a13.728,13.728,0,0,1,4.824,7.091c1.259,4.471,3.035,8.237,6.02,9.509,8.375,3.564,2.72,8.69,9.068,13.086,3.413,2.368,5.579,4.232,6.536,8.161,1.259,5.038,2.355,6.6,6.511,8.816.819.441,6.033-.856,8.577,4.207,3.489,6.927,4.4,20.907,4.358,23h1.914a93.463,93.463,0,0,0-6.8-33.287C162.753,198.116,146.746,179.6,129.63,176Z" transform="translate(33.63 45.661)"/><path class="bd" d="M207.024,157.53s.491,16.662-7.128,22.506-4.219,8.4-4.358,11.8a12.154,12.154,0,0,1-5.554,9.509c-3.413,2.04,1.549,8.06-9.03,15.68s-7.141,29.509-6.108,39.546l-2.154.227s-2.254-27.922,1.688-44.9c4.03-17.342,8.816-29.912,20.05-40.3S207.024,157.53,207.024,157.53Z" transform="translate(44.636 40.869)"/><path class="bd" d="M149.137,137.13s27.871,18.892,27.582,62.418,0,70.7,0,70.7h-4.937s3.778-34.71,2.317-45.163-5.038-10.252-11.184-13.942,1.02-11.033-3.048-15.68-6.385-2.028-4.358-13.652-8.615-11.033-9.093-20.907S150.586,147.583,149.137,137.13Z" transform="translate(37.977 35.576)"/><g class="be" transform="translate(184.359 172.706)"><path class="bf" d="M148.57,138.274a29.622,29.622,0,0,1,7.053,19.307c0,11.965,2.922,10.693,8.136,16.8s2.922,7,3.312,16.373,8.275,16.284,8.652,26.587,5.34-3.438,5.34-3.438l-9.03-71.637L156.5,132.72Z" transform="translate(-145.815 -138.274)"/></g><g class="bg" transform="translate(216.686 198.399)"><path class="bh" d="M207.212,158.077s-1.864,9.723-6.587,14.949-9.471,5.227-10.29,11.1.39,7.859-4.723,12.3c-3.048,2.645-2.783,4.345-3.6,9.572s-9.018,12.242-9.836,19.42c-.428,3.451-1.814-6.3.264-23.476,1.5-12.254,8.489-33.3,8.489-33.3L205.9,155.42l1.474,2.128" transform="translate(-172.239 -158.077)"/></g><g class="bi" transform="translate(163.26 221.66)"><path class="bj" d="M131.011,177.248a19.836,19.836,0,0,1,14.6,12.355c4.458,10.982,6.3,7.217,9.093,10.3s2.8,9.546,9.156,13.1c7.557,4.206,8.816,3.892,11.448,13.854l1.549,7.2-13.048,1.259-34.849-38.287L125.52,173.52l5.189,3.224" transform="translate(-130.696 -176.643)"/></g><path class="ad" d="M168.727,258.838H180.78a9.8,9.8,0,0,0,9.609-7.859l4.685-23.111a5.176,5.176,0,0,0-5.038-6.209H158.349a4.232,4.232,0,0,0-4.144,5.038l4.912,24.257A9.8,9.8,0,0,0,168.727,258.838Z" transform="translate(39.986 57.506)"/><g class="bk" transform="translate(194.115 279.179)"><path class="bl" d="M163.412,222.552s7.657,18.337,31.939,26.587l-.718,9.055a9.8,9.8,0,0,1-5.264,7.922c-4.093,2.128-9.433,4.836-10.189,5.038-1.259.252-25.529-5.756-26.033-6.511s-4.748-26.31-4.748-27.065,0-14.773.5-15.516,14.773-4.761,14.773-4.761l-.554,3.564Z" transform="translate(-155.615 -222.804)"/></g></svg>