<svg xmlns="http://www.w3.org/2000/svg" xmlns:xlink="http://www.w3.org/1999/xlink" width="385.867" height="313.542" viewBox="0 0 385.867 313.542"><defs><style>.a,.au,.bl,.c{fill:none;}.a,.bg,.br{opacity:0.5;}.b{fill:#77c88a;}.d{fill:#91553d;}.e{fill:#d9dfff;}.e,.h,.i{fill-rule:evenodd;}.f{clip-path:url(#a);}.g{opacity:0.65;}.h,.i,.j,.l,.p{opacity:0.4;}.h{fill:url(#b);}.i{fill:url(#c);}.j{fill:url(#d);}.k{fill:#8c99e5;}.l,.m{fill:#adbcf7;}.bh,.m{opacity:0.2;}.n{fill:#eaeaf9;}.o{fill:#d7d7f4;}.p{fill:#fdfffe;}.q{fill:#4e44b7;}.aj,.ak,.q{opacity:0.3;}.r{fill:url(#e);}.s{fill:#fab991;}.t{fill:#2b295d;}.u{fill:#efeff9;}.v{fill:#09280a;}.w{fill:#fff;}.x{fill:#35426d;}.y{fill:#f2f2f2;}.z{fill:#e6e6e6;}.aa{fill:url(#f);}.ab{fill:url(#g);}.ac{fill:#3f429a;}.ad{fill:url(#h);}.ae{fill:url(#i);}.af{fill:#f48a3b;}.ag{fill:url(#j);}.ah{fill:#b8b1f1;}.ai{fill:url(#k);}.aj{fill:url(#l);}.ak{fill:url(#m);}.al{opacity:0.05;}.am{clip-path:url(#n);}.an,.au{stroke:#27735b;stroke-width:0.65px;}.an,.au,.bl{stroke-miterlimit:10;}.ao{clip-path:url(#o);}.ap{clip-path:url(#p);}.aq{fill:url(#q);}.ar{fill:#43c59e;}.as{clip-path:url(#r);}.at{fill:url(#s);}.av{fill:#4fbd9a;}.aw{clip-path:url(#t);}.ax{fill:url(#u);}.ay{clip-path:url(#v);}.az{fill:url(#w);}.ba{fill:#de6300;}.bb{fill:url(#x);}.bc{fill:url(#y);}.bd,.be{opacity:0.7;}.bd{fill:url(#z);}.be{fill:url(#aa);}.bf{fill:#2a2d36;}.bi{opacity:0.1;}.bj{fill:url(#ab);}.bk{fill:#192146;}.bl{stroke:#d05e86;stroke-width:2px;}.bm{fill:#faba92;}.bn{fill:#d55e40;}.bo{clip-path:url(#ac);}.bp{fill:#1b2246;}.bq{fill:#1a2146;}.br{fill:url(#ad);}</style><clipPath id="a"><path class="a" d="M160.953,297.084c16.394-6.946,33.792-15.583,51.814-17.142,38.179-3.343,73.709,12.985,111.966,2.852,21.427-5.672,40.088-18.462,52.422-37.069,24.415-36.843,20-96.577-7.6-130.717-16.842-20.835-46.84-26.468-68.337-42.453C271.934,50.782,252.256,14.025,217.349,3.4c-31.4-9.56-69.556,1.293-86.67,29.3-13.99,22.876-17.7,50.646-33.333,72.727-12.665,17.9-34.283,26.881-51.635,39.348-16.655,12-30.142,26.6-35.584,46.871A90.358,90.358,0,0,0,7.817,224.5c3.043,27.68,16.394,54.682,38.444,72A78.967,78.967,0,0,0,73.5,310.216c10.211,2.657,22.545,4.013,33.079,2.9,17.336-1.819,34.022-7.577,50.128-14.255Q158.834,297.984,160.953,297.084Z" transform="translate(-7.253 0)"/></clipPath><linearGradient id="b" x1="-0.23" y1="1.493" x2="0.638" y2="0.292" gradientUnits="objectBoundingBox"><stop offset="0" stop-color="#d9dfff"/><stop offset="1" stop-color="#b6bdf2"/></linearGradient><linearGradient id="c" x1="-0.12" y1="-0.098" x2="0.796" y2="1.114" xlink:href="#b"/><linearGradient id="d" x1="1.678" y1="0.483" x2="-0.031" y2="0.507" xlink:href="#b"/><linearGradient id="e" x1="-14.297" y1="-1202.932" x2="-14.297" y2="-1200.401" gradientUnits="objectBoundingBox"><stop offset="0" stop-color="#3f429a"/><stop offset="1" stop-color="#2b295d"/></linearGradient><linearGradient id="f" x1="-1503847.375" y1="119.829" x2="-1491011.875" y2="-34.942" xlink:href="#e"/><linearGradient id="g" x1="-9889.343" y1="119.729" x2="2938.131" y2="-34.909" xlink:href="#e"/><linearGradient id="h" x1="-2371.476" y1="145.002" x2="-2372.408" y2="145.002" xlink:href="#e"/><linearGradient id="i" x1="0.5" y1="1.022" x2="0.487" y2="-2.816" gradientUnits="objectBoundingBox"><stop offset="0" stop-color="#fff"/><stop offset="1" stop-color="#b8b1f1"/></linearGradient><linearGradient id="j" x1="0.029" y1="0.5" x2="2.904" y2="0.5" gradientUnits="objectBoundingBox"><stop offset="0" stop-color="#fab991"/><stop offset="0.09" stop-color="#eeb08a"/><stop offset="0.25" stop-color="#cd9877"/><stop offset="0.47" stop-color="#987058"/><stop offset="0.74" stop-color="#4f3b2e"/><stop offset="1"/></linearGradient><linearGradient id="k" x1="1.02" y1="0.498" x2="-0.682" y2="0.498" xlink:href="#i"/><linearGradient id="l" y1="0.5" x2="0.997" y2="0.5" gradientUnits="objectBoundingBox"><stop offset="0" stop-color="#fff"/><stop offset="1"/></linearGradient><linearGradient id="m" x1="-0.001" y1="0.5" x2="1.001" y2="0.5" xlink:href="#l"/><clipPath id="n"><path d="M768.616,638.1c3.9,1.636,10.6,5.871,12.361,8.045s3.183,7.336,4.114,8.571,3.67,4.286,4.067,6.167a22.576,22.576,0,0,1,.2,4.858l-.518-.183a13.853,13.853,0,0,0-.456-4.866,8.01,8.01,0,0,0-4.219-4.722c-1.652-.721-5.894-1.251-8.294-2.852s-14.828-13.382-14.828-13.382-2.154-1.434-2.244-2.556S764.72,636.466,768.616,638.1Z" transform="translate(-758.797 -636.546)"/></clipPath><clipPath id="o"><path d="M853.143,524.77s-14.617,9.9-14.465,32.725,0,42.636,0,42.636h2.591s-1.979-23.764-1.219-29.219,2.626-5.376,5.844-7.309-.534-5.785,1.6-8.22,3.35-1.067,2.287-7.157,4.515-5.789,4.769-10.963S852.384,530.252,853.143,524.77Z" transform="translate(-838.677 -524.77)"/></clipPath><clipPath id="p"><path d="M775.223,548.42s-.335,11.251,4.811,15.194,2.848,5.672,2.941,7.967a8.185,8.185,0,0,0,3.752,6.428c2.31,1.364-1.048,5.454,6.1,10.585s4.819,19.923,4.122,26.71l1.453.148s1.527-18.852-1.138-30.325c-2.727-11.687-5.933-20.2-13.546-27.185S775.223,548.42,775.223,548.42Z" transform="translate(-775.218 -548.42)"/></clipPath><linearGradient id="q" x1="-13.847" y1="4.267" x2="-14.763" y2="5.064" gradientUnits="objectBoundingBox"><stop offset="0.32" stop-color="#43c59e" stop-opacity="0"/><stop offset="0.44" stop-color="#3dad8b" stop-opacity="0.29"/><stop offset="0.6" stop-color="#369478" stop-opacity="0.6"/><stop offset="0.75" stop-color="#32826a" stop-opacity="0.82"/><stop offset="0.88" stop-color="#2f7761" stop-opacity="0.949"/><stop offset="0.99" stop-color="#2e735e"/></linearGradient><clipPath id="r"><path class="b" d="M760.616,638.1c3.9,1.636,10.6,5.871,12.361,8.045s3.183,7.336,4.114,8.571,3.67,4.286,4.067,6.167a22.576,22.576,0,0,1,.2,4.858l-.518-.183a13.858,13.858,0,0,0-.456-4.866,8.01,8.01,0,0,0-4.219-4.722c-1.652-.721-5.894-1.251-8.294-2.852s-14.828-13.382-14.828-13.382-2.154-1.434-2.244-2.556S756.72,636.466,760.616,638.1Z" transform="translate(-750.797 -636.546)"/></clipPath><linearGradient id="s" x1="40.391" y1="-38.663" x2="40.985" y2="-39.894" xlink:href="#q"/><clipPath id="t"><path class="c" d="M845.143,524.77s-14.617,9.9-14.465,32.725,0,42.636,0,42.636h2.591s-1.979-23.764-1.219-29.219,2.626-5.376,5.844-7.309-.534-5.785,1.6-8.22,3.35-1.067,2.287-7.157,4.515-5.789,4.769-10.963S844.383,530.252,845.143,524.77Z" transform="translate(-830.677 -524.77)"/></clipPath><linearGradient id="u" x1="-148.117" y1="0.429" x2="-148.867" y2="0.538" gradientUnits="objectBoundingBox"><stop offset="0.32" stop-color="#4fbd9a" stop-opacity="0"/><stop offset="0.39" stop-color="#4cb795" stop-opacity="0.18"/><stop offset="0.53" stop-color="#46ad8e" stop-opacity="0.471"/><stop offset="0.66" stop-color="#42a588" stop-opacity="0.698"/><stop offset="0.79" stop-color="#3fa083" stop-opacity="0.871"/><stop offset="0.9" stop-color="#3e9c81" stop-opacity="0.969"/><stop offset="0.99" stop-color="#3d9b80"/></linearGradient><clipPath id="v"><path class="b" d="M767.223,548.42s-.335,11.251,4.811,15.194,2.848,5.672,2.941,7.967a8.187,8.187,0,0,0,3.752,6.428c2.31,1.364-1.048,5.454,6.1,10.585s4.819,19.923,4.122,26.71l1.453.148s1.527-18.852-1.137-30.325c-2.727-11.687-5.933-20.2-13.546-27.185S767.223,548.42,767.223,548.42Z" transform="translate(-767.218 -548.42)"/></clipPath><linearGradient id="w" x1="0.811" y1="0.409" x2="0.426" y2="0.526" xlink:href="#u"/><linearGradient id="x" x1="1.1" y1="0.589" x2="-0.296" y2="0.283" gradientUnits="objectBoundingBox"><stop offset="0.01" stop-color="#dd6c91" stop-opacity="0"/><stop offset="0.99" stop-color="#fadfe7"/></linearGradient><linearGradient id="y" x1="1.319" y1="0.654" x2="0.325" y2="0.467" xlink:href="#x"/><linearGradient id="z" y1="0.5" x2="1" y2="0.5" gradientUnits="objectBoundingBox"><stop offset="0" stop-color="#d7916b" stop-opacity="0"/><stop offset="0.99" stop-color="#a5525b"/></linearGradient><linearGradient id="aa" x1="0" y1="0.5" x2="1" y2="0.5" xlink:href="#z"/><radialGradient id="ab" cx="130.087" cy="-114.685" r="1.242" gradientTransform="matrix(0.95, -0.308, 0.317, 0.979, 33.398, 29.814)" gradientUnits="objectBoundingBox"><stop offset="0" stop-color="#ec9980"/><stop offset="0.78" stop-color="#ec9980" stop-opacity="0"/></radialGradient><clipPath id="ac"><path class="d" d="M494.572,308.557s-.873-.125,0,.16c.054.019.047,2.384,2.147,1.948,1.629-.327.366-1.278.366-1.278A16.889,16.889,0,0,0,494.572,308.557Z" transform="translate(-494.184 -308.53)"/></clipPath><linearGradient id="ad" x1="0.001" y1="0.5" x2="1" y2="0.5" xlink:href="#z"/></defs><g transform="translate(0 0)"><path class="e" d="M160.953,297.2c16.394-6.946,33.792-15.583,51.814-17.142,38.179-3.343,73.709,12.985,111.966,2.852,21.427-5.672,40.088-18.462,52.422-37.069,24.415-36.839,20-96.577-7.6-130.717-16.842-20.835-46.84-26.468-68.337-42.453-29.285-21.774-48.963-58.519-83.869-69.151-31.4-9.564-69.556,1.29-86.67,29.277-13.99,22.876-17.7,50.646-33.333,72.731-12.665,17.894-34.283,26.881-51.635,39.348-16.655,12.007-30.142,26.612-35.584,46.871a90.4,90.4,0,0,0-2.31,32.865c3.043,27.66,16.394,54.678,38.444,72A78.922,78.922,0,0,0,73.5,310.317c10.211,2.661,22.545,4.013,33.079,2.906,17.336-1.823,34.022-7.581,50.128-14.259Q158.834,298.1,160.953,297.2Z" transform="translate(-7.253 -0.069)"/><g class="f"><g class="g" transform="translate(-2.826 0.865)"><path class="h" d="M35.495,569.113A68.478,68.478,0,0,0,0,580.064c.062,1.792.144,3.576.265,5.345a125.735,125.735,0,0,0,3.506,22.915,44.693,44.693,0,1,1,64.562,61.737A116.367,116.367,0,0,0,95.5,674.608a68.812,68.812,0,0,0-60-105.495Z" transform="translate(0 -348.247)"/><path class="i" d="M229.074,48.524a4.676,4.676,0,0,1-1.293-.3,64.722,64.722,0,0,0-9.63,14.535c-12.171,25.284-13.133,54.6-27.1,79.225A67.715,67.715,0,0,1,183.61,152.5c2.879,79.288,71.122,107.232,63.225,197.269a262.092,262.092,0,0,0,26.277-12.537q2.116-1.141,4.231-2.295c16.362-8.96,33.566-19.752,52.149-23.277,11.82-2.24,29.308,5.485,41.019,5.668-12.587-17.375-34.572-42.464-55.566-56.63C229.024,202.674,198.243,123.222,229.074,48.524Z" transform="translate(-112.079 -30.299)"/><path class="j" d="M361.043,2.22a77.364,77.364,0,0,0-24.084,16.043c-5.026,102.694,38.347,177.743,140.055,217.418,39.215,15.3,60.837,30.777,72.462,41.779.935-.319,1.87-.647,2.805-1a95.575,95.575,0,0,0,40.443-28.65c-29.339-39.823-98.077-24.933-172.585-88.244C363.957,111.86,358.943,40.874,361.043,2.22Z" transform="translate(-205.448 -2.22)"/></g></g><ellipse class="k" cx="70.655" cy="70.655" rx="70.655" ry="70.655" transform="translate(238.961 49.002)"/><rect class="l" width="34.72" height="2.848" rx="1.42" transform="translate(233.09 1.293)"/><rect class="l" width="16.659" height="2.848" rx="1.42" transform="translate(233.09 6.646)"/><rect class="m" width="44.475" height="2.848" rx="1.42" transform="translate(252.098 6.646)"/><rect class="m" width="34.72" height="2.848" rx="1.42" transform="translate(233.09 11.999)"/><rect class="m" width="13.047" height="2.848" rx="1.42" transform="translate(283.525 11.999)"/><rect class="m" width="45.558" height="2.848" rx="1.42" transform="translate(233.09 17.352)"/><rect class="l" width="34.72" height="2.848" rx="1.42" transform="translate(233.09 22.705)"/><rect class="l" width="13.047" height="2.848" rx="1.42" transform="translate(282.96 33.407)"/><rect class="m" width="29.304" height="2.848" rx="1.42" transform="translate(299.401 33.407)"/><rect class="l" width="23.885" height="2.848" rx="1.42" transform="translate(272.983 1.293)"/><path class="k" d="M797.535,238.41a.343.343,0,0,0-.062-.187.39.39,0,0,0-.339-.168.5.5,0,0,0-.479.39,2.44,2.44,0,0,0-.105.616.778.778,0,0,1,.3-.222,1.091,1.091,0,0,1,1.169.245,1.13,1.13,0,0,1,.3.814,1.362,1.362,0,0,1-.292.865,1.087,1.087,0,0,1-.912.39,1.048,1.048,0,0,1-.978-.553,2.25,2.25,0,0,1-.245-1.118,4.927,4.927,0,0,1,.035-.655,2.044,2.044,0,0,1,.234-.744,1.2,1.2,0,0,1,.39-.409,1.057,1.057,0,0,1,.584-.156,1.168,1.168,0,0,1,.779.249.945.945,0,0,1,.327.67Zm-.818,1.975a.487.487,0,0,0,.39.179.44.44,0,0,0,.362-.171.739.739,0,0,0,.132-.452.662.662,0,0,0-.152-.468.479.479,0,0,0-.366-.164.506.506,0,0,0-.316.105.612.612,0,0,0-.2.51.682.682,0,0,0,.144.46Z" transform="translate(-488.648 -144.984)"/><path class="k" d="M802.91,238.627v-.467a3.3,3.3,0,0,0,.456-.043.662.662,0,0,0,.339-.187.563.563,0,0,0,.133-.249.5.5,0,0,0,.027-.14h.577v3.506h-.717v-2.423Z" transform="translate(-492.936 -144.999)"/><path class="k" d="M811.406,238.188a5.629,5.629,0,0,0-.892,1.352,4.759,4.759,0,0,0-.269.8,3.359,3.359,0,0,0-.117.779h-.717a4.176,4.176,0,0,1,.62-1.948,4.514,4.514,0,0,1,.639-.88H808.92v-.619H811.4Z" transform="translate(-496.605 -145.078)"/><path class="k" d="M816.216,240.166a.67.67,0,0,0,.16.347.428.428,0,0,0,.335.121.452.452,0,0,0,.39-.179.746.746,0,0,0,.136-.456.8.8,0,0,0-.125-.452.44.44,0,0,0-.39-.187.744.744,0,0,0-.218.031.441.441,0,0,0-.241.218l-.62-.031.246-1.948h1.948v.584H816.4l-.125.779a1.356,1.356,0,0,1,.249-.14,1.075,1.075,0,0,1,1.445,1.091,1.321,1.321,0,0,1-.312.869,1.122,1.122,0,0,1-.931.39,1.235,1.235,0,0,1-.822-.269,1.04,1.04,0,0,1-.358-.779Z" transform="translate(-500.652 -145.053)"/><path class="k" d="M822.738,239.939a.78.78,0,0,0,.07.351.46.46,0,0,0,.456.253.5.5,0,0,0,.354-.14.518.518,0,0,0,.152-.389.448.448,0,0,0-.281-.46,1.352,1.352,0,0,0-.5-.066v-.495a1.259,1.259,0,0,0,.467-.066.39.39,0,0,0,.23-.409.456.456,0,0,0-.117-.327.5.5,0,0,0-.69.027.654.654,0,0,0-.109.417h-.643a1.618,1.618,0,0,1,.09-.5,1.057,1.057,0,0,1,.265-.39.883.883,0,0,1,.319-.191,1.417,1.417,0,0,1,.46-.066,1.227,1.227,0,0,1,.81.261.868.868,0,0,1,.3.717.778.778,0,0,1-.183.526.66.66,0,0,1-.241.179.49.49,0,0,1,.269.164.853.853,0,0,1,.265.666,1.109,1.109,0,0,1-.308.779,1.168,1.168,0,0,1-.911.339,1.107,1.107,0,0,1-1.036-.487,1.4,1.4,0,0,1-.167-.678Z" transform="translate(-504.626 -144.966)"/><path class="k" d="M828.78,239.513a.836.836,0,0,1,.39-.362.8.8,0,0,1-.331-.366,1.042,1.042,0,0,1-.078-.37.864.864,0,0,1,.288-.651,1.36,1.36,0,0,1,1.632,0,.865.865,0,0,1,.288.651,1.039,1.039,0,0,1-.078.37.7.7,0,0,1-.331.343.962.962,0,0,1,.389.39,1.108,1.108,0,0,1,.133.534.985.985,0,0,1-.331.752,1.262,1.262,0,0,1-.915.312,1.169,1.169,0,0,1-.892-.312,1.033,1.033,0,0,1-.3-.752A1.068,1.068,0,0,1,828.78,239.513Zm.717.888a.479.479,0,0,0,.37.144.467.467,0,0,0,.389-.144.545.545,0,0,0,.136-.39.51.51,0,1,0-1.013,0,.561.561,0,0,0,.109.405Zm.043-1.6a.5.5,0,0,0,.654,0,.443.443,0,0,0,.113-.312.455.455,0,0,0-.113-.327.444.444,0,0,0-.779.327.429.429,0,0,0,.117.312Z" transform="translate(-508.642 -144.969)"/><path class="k" d="M835.878,239.939a.778.778,0,0,0,.07.351.46.46,0,0,0,.456.253.494.494,0,0,0,.351-.14.517.517,0,0,0,.152-.389.448.448,0,0,0-.28-.46,1.33,1.33,0,0,0-.5-.066v-.495a1.259,1.259,0,0,0,.468-.066.39.39,0,0,0,.23-.409.456.456,0,0,0-.121-.327.5.5,0,0,0-.686.027.653.653,0,0,0-.109.417h-.647a1.882,1.882,0,0,1,.089-.5,1.077,1.077,0,0,1,.269-.39.855.855,0,0,1,.32-.191,1.406,1.406,0,0,1,.456-.066,1.24,1.24,0,0,1,.814.261.881.881,0,0,1,.308.7.779.779,0,0,1-.183.526.638.638,0,0,1-.245.179.489.489,0,0,1,.273.164.87.87,0,0,1,.265.666,1.13,1.13,0,0,1-.308.779,1.169,1.169,0,0,1-.916.339,1.1,1.1,0,0,1-1.032-.487,1.446,1.446,0,0,1-.171-.678Z" transform="translate(-512.646 -144.966)"/><path class="k" d="M844.237,238.188a4.1,4.1,0,0,0-.432.545,4.527,4.527,0,0,0-.464.806,4.792,4.792,0,0,0-.269.8,3.365,3.365,0,0,0-.117.779h-.725a4.179,4.179,0,0,1,.62-1.948,4.515,4.515,0,0,1,.639-.88H841.74v-.619h2.482Z" transform="translate(-516.639 -145.078)"/><path class="k" d="M796.5,254.146a.754.754,0,0,0,.07.347.456.456,0,0,0,.456.253.491.491,0,0,0,.5-.538.456.456,0,0,0-.28-.464,1.412,1.412,0,0,0-.5-.066v-.491a1.347,1.347,0,0,0,.468-.066.409.409,0,0,0,.23-.413.467.467,0,0,0-.117-.327.44.44,0,0,0-.331-.125.413.413,0,0,0-.358.156.643.643,0,0,0-.109.413H795.9a1.86,1.86,0,0,1,.09-.495,1.139,1.139,0,0,1,.269-.39.9.9,0,0,1,.32-.187,1.313,1.313,0,0,1,.459-.066,1.207,1.207,0,0,1,.81.261.857.857,0,0,1,.308.7.781.781,0,0,1-.183.522.674.674,0,0,1-.242.183.5.5,0,0,1,.269.16.873.873,0,0,1,.265.67,1.142,1.142,0,0,1-.308.779,1.168,1.168,0,0,1-.916.339,1.1,1.1,0,0,1-1.032-.487,1.469,1.469,0,0,1-.172-.678Z" transform="translate(-488.62 -153.634)"/><path class="k" d="M804.834,254.541h-.39v.756h-.674v-.756H802.38v-.6l1.289-2.131h.779V254h.39ZM803.763,254v-1.512L802.886,254Z" transform="translate(-492.613 -153.709)"/><path class="k" d="M810.675,252.606a.38.38,0,0,0-.4-.351.5.5,0,0,0-.479.39,2.34,2.34,0,0,0-.109.616.776.776,0,0,1,.3-.226,1.11,1.11,0,0,1,1.169.249,1.13,1.13,0,0,1,.3.81,1.382,1.382,0,0,1-.292.869,1.091,1.091,0,0,1-.912.39,1.052,1.052,0,0,1-.978-.553,2.27,2.27,0,0,1-.245-1.122,4.889,4.889,0,0,1,.035-.651,1.965,1.965,0,0,1,.234-.748,1.233,1.233,0,0,1,.39-.409,1.087,1.087,0,0,1,.584-.152,1.17,1.17,0,0,1,.779.249.958.958,0,0,1,.3.639Zm-.818,1.979a.492.492,0,0,0,.39.179.425.425,0,0,0,.362-.175.705.705,0,0,0,.132-.448.682.682,0,0,0-.148-.471.486.486,0,0,0-.37-.164.5.5,0,0,0-.312.105.6.6,0,0,0-.2.51.7.7,0,0,0,.148.471Z" transform="translate(-496.669 -153.652)"/><path class="k" d="M815.638,253.716a.857.857,0,0,1,.39-.362.827.827,0,0,1-.327-.374,1.008,1.008,0,0,1-.074-.366.854.854,0,0,1,.288-.655,1.368,1.368,0,0,1,1.629,0,.853.853,0,0,1,.288.654,1,1,0,0,1-.074.366.713.713,0,0,1-.331.343.978.978,0,0,1,.39.39,1.076,1.076,0,0,1,.133.534,1,1,0,0,1-.327.756,1.289,1.289,0,0,1-.919.312,1.168,1.168,0,0,1-.888-.312,1.04,1.04,0,0,1-.3-.756A1.075,1.075,0,0,1,815.638,253.716Zm.717.892a.507.507,0,0,0,.876-.39.506.506,0,1,0-1.009,0A.566.566,0,0,0,816.355,254.608Zm.043-1.6a.456.456,0,0,0,.327.121.444.444,0,0,0,.327-.121.436.436,0,0,0-.327-.756.455.455,0,0,0-.327.117.494.494,0,0,0,0,.639Z" transform="translate(-500.627 -153.636)"/><path class="k" d="M824.534,254.541h-.39v.756h-.678v-.756H822.08v-.6l1.29-2.131h.779V254h.39ZM823.463,254v-1.512L822.586,254Z" transform="translate(-504.638 -153.709)"/><path class="k" d="M830.421,252.606a.366.366,0,0,0-.062-.187.39.39,0,0,0-.339-.164.5.5,0,0,0-.479.39,2.373,2.373,0,0,0-.1.616.779.779,0,0,1,.3-.226,1.072,1.072,0,0,1,1.469,1.06,1.384,1.384,0,0,1-.292.869,1.087,1.087,0,0,1-.911.39,1.056,1.056,0,0,1-.978-.553,2.269,2.269,0,0,1-.241-1.122,4.972,4.972,0,0,1,.031-.651,2.112,2.112,0,0,1,.234-.748,1.271,1.271,0,0,1,.39-.409,1.086,1.086,0,0,1,.584-.152,1.169,1.169,0,0,1,.779.249.947.947,0,0,1,.327.666Zm-.818,1.979a.507.507,0,0,0,.39.179.432.432,0,0,0,.362-.175.729.729,0,0,0,.133-.448.667.667,0,0,0-.152-.471.479.479,0,0,0-.366-.164.505.505,0,0,0-.315.105.616.616,0,0,0-.2.51.7.7,0,0,0,.136.471Z" transform="translate(-508.724 -153.652)"/><path class="k" d="M836.945,252.606a.368.368,0,0,0-.062-.187.39.39,0,0,0-.339-.164.5.5,0,0,0-.479.39,2.363,2.363,0,0,0-.105.616.779.779,0,0,1,.3-.226,1.11,1.11,0,0,1,1.169.249,1.13,1.13,0,0,1,.3.81,1.382,1.382,0,0,1-.292.869,1.087,1.087,0,0,1-.912.39,1.056,1.056,0,0,1-.978-.553,2.267,2.267,0,0,1-.245-1.122,4.869,4.869,0,0,1,.035-.651,2.038,2.038,0,0,1,.234-.748,1.273,1.273,0,0,1,.39-.409,1.086,1.086,0,0,1,.584-.152,1.169,1.169,0,0,1,.779.249.947.947,0,0,1,.327.666Zm-.818,1.979a.5.5,0,0,0,.39.179.432.432,0,0,0,.362-.175.729.729,0,0,0,.129-.448.666.666,0,0,0-.148-.471.483.483,0,0,0-.37-.164.494.494,0,0,0-.311.105.6.6,0,0,0-.2.51.7.7,0,0,0,.152.471Z" transform="translate(-512.704 -153.652)"/><path class="k" d="M841.994,254.525a1.947,1.947,0,0,1,.7-.744,5.244,5.244,0,0,0,.615-.487.732.732,0,0,0,.218-.5.569.569,0,0,0-.125-.39.44.44,0,0,0-.354-.144.432.432,0,0,0-.428.234,1.169,1.169,0,0,0-.078.432h-.67a1.686,1.686,0,0,1,.164-.724,1.009,1.009,0,0,1,.982-.526,1.235,1.235,0,0,1,.884.308,1.063,1.063,0,0,1,.331.818,1.109,1.109,0,0,1-.234.693,2.291,2.291,0,0,1-.5.444l-.277.2c-.171.121-.288.21-.354.265a.831.831,0,0,0-.16.191h1.531v.608h-2.4A1.7,1.7,0,0,1,841.994,254.525Z" transform="translate(-516.693 -153.623)"/><path class="k" d="M850.814,254.541h-.39v.756h-.674v-.756H848.36v-.6l1.29-2.131h.779V254h.39ZM849.743,254v-1.512L848.866,254Z" transform="translate(-520.679 -153.709)"/><path class="k" d="M855.042,253.728a.859.859,0,0,1,.39-.362A.827.827,0,0,1,855.1,253a1.008,1.008,0,0,1-.074-.366.853.853,0,0,1,.288-.654,1.367,1.367,0,0,1,1.628,0,.853.853,0,0,1,.288.654,1.008,1.008,0,0,1-.074.366.715.715,0,0,1-.331.343.977.977,0,0,1,.39.39,1.077,1.077,0,0,1,.132.534,1,1,0,0,1-.327.756,1.289,1.289,0,0,1-.919.312,1.2,1.2,0,0,1-.892-.312,1.053,1.053,0,0,1-.3-.756A1.078,1.078,0,0,1,855.042,253.728Zm.717.892a.507.507,0,0,0,.877-.39.506.506,0,1,0-1.009,0A.57.57,0,0,0,855.759,254.62Zm.043-1.6a.452.452,0,0,0,.327.121.444.444,0,0,0,.327-.121.436.436,0,0,0-.327-.756.448.448,0,0,0-.327.117A.5.5,0,0,0,855.8,253.023Z" transform="translate(-524.677 -153.648)"/><path class="k" d="M796.5,268.369a.78.78,0,0,0,.07.351.46.46,0,0,0,.456.253.51.51,0,0,0,.354-.14.53.53,0,0,0,.148-.39.444.444,0,0,0-.281-.46,1.328,1.328,0,0,0-.5-.066v-.495a1.255,1.255,0,0,0,.467-.066.389.389,0,0,0,.23-.409.456.456,0,0,0-.117-.327.429.429,0,0,0-.331-.128.421.421,0,0,0-.358.156.646.646,0,0,0-.109.413H795.9a1.88,1.88,0,0,1,.09-.495,1.126,1.126,0,0,1,.269-.39.856.856,0,0,1,.319-.191,1.423,1.423,0,0,1,.46-.066,1.227,1.227,0,0,1,.81.261.865.865,0,0,1,.308.7.779.779,0,0,1-.183.526.658.658,0,0,1-.241.179.49.49,0,0,1,.269.164.869.869,0,0,1,.265.666,1.142,1.142,0,0,1-.308.779,1.168,1.168,0,0,1-.915.339,1.1,1.1,0,0,1-1.032-.487,1.442,1.442,0,0,1-.171-.678Z" transform="translate(-488.62 -162.321)"/><path class="k" d="M804.834,268.715h-.39v.779h-.674v-.779H802.38v-.6l1.289-2.131h.779v2.193h.39Zm-1.071-.542v-1.511l-.877,1.511Z" transform="translate(-492.613 -162.359)"/><path class="k" d="M810.675,266.836a.35.35,0,0,0-.066-.183.389.389,0,0,0-.335-.167.5.5,0,0,0-.479.39,2.376,2.376,0,0,0-.109.616.778.778,0,0,1,.3-.222,1.09,1.09,0,0,1,1.169.245,1.145,1.145,0,0,1,.3.81,1.366,1.366,0,0,1-.292.869,1.091,1.091,0,0,1-.912.39,1.044,1.044,0,0,1-.978-.553,2.255,2.255,0,0,1-.245-1.118,4.927,4.927,0,0,1,.035-.654,1.946,1.946,0,0,1,.234-.744,1.169,1.169,0,0,1,.39-.409,1.056,1.056,0,0,1,.584-.156,1.17,1.17,0,0,1,.779.249.958.958,0,0,1,.323.666Zm-.818,1.979a.48.48,0,0,0,.39.179.429.429,0,0,0,.362-.171.718.718,0,0,0,.133-.452.69.69,0,0,0-.168-.456.5.5,0,0,0-.682-.055.6.6,0,0,0-.2.506A.694.694,0,0,0,809.857,268.815Z" transform="translate(-496.669 -162.338)"/><path class="k" d="M817.962,268.715h-.39v.779h-.678v-.779H815.5v-.6l1.289-2.131h.779v2.193h.39Zm-1.075-.542v-1.511l-.873,1.511Z" transform="translate(-500.621 -162.359)"/><path class="k" d="M822.2,267.939a.849.849,0,0,1,.39-.358.8.8,0,0,1-.331-.366,1.053,1.053,0,0,1-.078-.37.864.864,0,0,1,.288-.651,1.36,1.36,0,0,1,1.632,0,.865.865,0,0,1,.288.651,1.053,1.053,0,0,1-.078.37.706.706,0,0,1-.327.343.966.966,0,0,1,.39.39,1.079,1.079,0,0,1,.132.538.993.993,0,0,1-.327.752,1.278,1.278,0,0,1-.919.312,1.169,1.169,0,0,1-.892-.312,1.028,1.028,0,0,1-.3-.752A1.078,1.078,0,0,1,822.2,267.939Zm.717.892a.554.554,0,0,0,.744,0,.562.562,0,0,0,.132-.39.568.568,0,0,0-.136-.409.487.487,0,0,0-.37-.136.5.5,0,0,0-.39.136.568.568,0,0,0-.136.409A.561.561,0,0,0,822.919,268.831Zm.043-1.6a.521.521,0,1,0-.105-.312A.429.429,0,0,0,822.961,267.234Z" transform="translate(-504.631 -162.323)"/><path class="k" d="M798,181.254a3.476,3.476,0,0,1,0,2.68,1,1,0,0,1-.943.467.99.99,0,0,1-.939-.467,3.428,3.428,0,0,1,0-2.68.986.986,0,0,1,.939-.471A1,1,0,0,1,798,181.254Zm-1.348,2.267a.417.417,0,0,0,.81,0,3.5,3.5,0,0,0,.094-.927,3.456,3.456,0,0,0-.094-.951.421.421,0,0,0-.81,0,4.383,4.383,0,0,0,0,1.874Z" transform="translate(-488.626 -110.35)"/><path class="k" d="M804.57,181.259a3.43,3.43,0,0,1,0,2.68,1.169,1.169,0,0,1-1.878,0,3.429,3.429,0,0,1,0-2.68,1.169,1.169,0,0,1,1.878,0Zm-1.344,2.267a.4.4,0,0,0,.779,0,4.512,4.512,0,0,0,0-1.866.4.4,0,0,0-.779,0,3.25,3.25,0,0,0-.1.939,3.292,3.292,0,0,0,.1.923Z" transform="translate(-492.637 -110.355)"/><path class="k" d="M811.14,181.254a3.428,3.428,0,0,1,0,2.68.989.989,0,0,1-.939.467,1,1,0,0,1-.943-.467,3.474,3.474,0,0,1,0-2.68,1,1,0,0,1,.943-.471A.985.985,0,0,1,811.14,181.254Zm-1.348,2.267a.409.409,0,0,0,.8,0,3.313,3.313,0,0,0,.1-.927,3.278,3.278,0,0,0-.1-.939.414.414,0,0,0-.8,0,3.287,3.287,0,0,0-.1.939,3.322,3.322,0,0,0,.1.923Z" transform="translate(-496.647 -110.35)"/><path class="k" d="M817.71,181.255a3.473,3.473,0,0,1,0,2.68,1.168,1.168,0,0,1-1.881,0,3.473,3.473,0,0,1,0-2.68,1.168,1.168,0,0,1,1.881,0Zm-1.348,2.267a.4.4,0,0,0,.779,0,3.482,3.482,0,0,0,.1-.927,3.43,3.43,0,0,0-.1-.939.4.4,0,0,0-.779,0,3.279,3.279,0,0,0-.1.939,3.318,3.318,0,0,0,.1.923Z" transform="translate(-500.658 -110.351)"/><path class="k" d="M824.281,181.255a3.476,3.476,0,0,1,0,2.68,1.169,1.169,0,0,1-1.882,0,3.474,3.474,0,0,1,0-2.68,1.169,1.169,0,0,1,1.882,0Zm-1.348,2.267a.417.417,0,0,0,.811,0,3.516,3.516,0,0,0,.094-.927,3.467,3.467,0,0,0-.094-.939.421.421,0,0,0-.811,0,3.287,3.287,0,0,0-.1.939,3.327,3.327,0,0,0,.1.923Z" transform="translate(-504.668 -110.351)"/><path class="k" d="M798,195.462a3.466,3.466,0,0,1,0,2.676,1,1,0,0,1-.943.471.986.986,0,0,1-.939-.471,3.421,3.421,0,0,1,0-2.676,1.174,1.174,0,0,1,1.882,0Zm-1.348,2.256a.417.417,0,0,0,.811,0,4.675,4.675,0,0,0,0-1.862.421.421,0,0,0-.811,0A4.332,4.332,0,0,0,796.656,197.718Z" transform="translate(-488.627 -119.022)"/><path class="k" d="M804.571,195.469a3.423,3.423,0,0,1,0,2.676,1.169,1.169,0,0,1-1.878,0,3.42,3.42,0,0,1,0-2.676,1.169,1.169,0,0,1,1.878,0Zm-1.344,2.256a.4.4,0,0,0,.779,0,4.5,4.5,0,0,0,0-1.862.4.4,0,0,0-.779,0A4.332,4.332,0,0,0,803.226,197.725Z" transform="translate(-492.637 -119.029)"/><path class="k" d="M811.141,195.464a3.42,3.42,0,0,1,0,2.676.986.986,0,0,1-.939.471,1,1,0,0,1-.943-.471,3.466,3.466,0,0,1,0-2.676,1.174,1.174,0,0,1,1.882,0Zm-1.348,2.256a.408.408,0,0,0,.8,0,4.5,4.5,0,0,0,0-1.862.413.413,0,0,0-.8,0,4.5,4.5,0,0,0,0,1.862Z" transform="translate(-496.648 -119.024)"/><path class="k" d="M817.711,195.465a3.468,3.468,0,0,1,0,2.676,1.169,1.169,0,0,1-1.882,0,3.467,3.467,0,0,1,0-2.676,1.169,1.169,0,0,1,1.882,0Zm-1.348,2.256a.4.4,0,0,0,.779,0,4.5,4.5,0,0,0,0-1.862.4.4,0,0,0-.779,0A4.5,4.5,0,0,0,816.363,197.721Z" transform="translate(-500.658 -119.025)"/><path class="k" d="M824.281,195.465a3.468,3.468,0,0,1,0,2.676,1.169,1.169,0,0,1-1.882,0,3.467,3.467,0,0,1,0-2.676,1.169,1.169,0,0,1,1.882,0Zm-1.348,2.256a.417.417,0,0,0,.81,0,4.673,4.673,0,0,0,0-1.862.421.421,0,0,0-.811,0A4.5,4.5,0,0,0,822.933,197.721Z" transform="translate(-504.669 -119.025)"/><path class="k" d="M830.851,195.465a3.469,3.469,0,0,1,0,2.676,1.169,1.169,0,0,1-1.882,0,3.468,3.468,0,0,1,0-2.676,1.169,1.169,0,0,1,1.882,0Zm-1.348,2.256a.417.417,0,0,0,.81,0,4.675,4.675,0,0,0,0-1.862.421.421,0,0,0-.81,0A4.32,4.32,0,0,0,829.5,197.721Z" transform="translate(-508.679 -119.025)"/><path class="k" d="M837.411,195.469a3.421,3.421,0,0,1,0,2.676,1.169,1.169,0,0,1-1.878,0,3.421,3.421,0,0,1,0-2.676,1.169,1.169,0,0,1,1.878,0Zm-1.344,2.256a.417.417,0,0,0,.81,0,4.668,4.668,0,0,0,0-1.862.421.421,0,0,0-.81,0A4.332,4.332,0,0,0,836.066,197.725Z" transform="translate(-512.683 -119.029)"/><path class="k" d="M843.98,195.469a3.42,3.42,0,0,1,0,2.676,1.169,1.169,0,0,1-1.878,0,3.42,3.42,0,0,1,0-2.676,1.169,1.169,0,0,1,1.878,0Zm-1.344,2.256a.413.413,0,0,0,.807,0,4.507,4.507,0,0,0,0-1.862.417.417,0,0,0-.807,0A4.332,4.332,0,0,0,842.636,197.725Z" transform="translate(-516.693 -119.029)"/><path class="k" d="M798,209.674a3.474,3.474,0,0,1,0,2.68,1,1,0,0,1-.943.467.989.989,0,0,1-.939-.467,3.428,3.428,0,0,1,0-2.68.985.985,0,0,1,.939-.471A1,1,0,0,1,798,209.674Zm-1.348,2.267a.417.417,0,0,0,.81,0,4.708,4.708,0,0,0,0-1.866.421.421,0,0,0-.81,0,3.249,3.249,0,0,0-.1.939A3.3,3.3,0,0,0,796.656,211.941Z" transform="translate(-488.626 -127.698)"/><path class="k" d="M804.57,209.679a3.43,3.43,0,0,1,0,2.68,1.169,1.169,0,0,1-1.878,0,3.429,3.429,0,0,1,0-2.68,1.169,1.169,0,0,1,1.878,0Zm-1.344,2.267a.4.4,0,0,0,.779,0,4.517,4.517,0,0,0,0-1.866.4.4,0,0,0-.779,0,3.25,3.25,0,0,0-.1.939A3.292,3.292,0,0,0,803.226,211.947Z" transform="translate(-492.637 -127.703)"/><path class="k" d="M811.14,209.674a3.429,3.429,0,0,1,0,2.68.99.99,0,0,1-.939.468,1,1,0,0,1-.943-.468,3.474,3.474,0,0,1,0-2.68,1,1,0,0,1,.943-.471A.985.985,0,0,1,811.14,209.674Zm-1.348,2.267a.409.409,0,0,0,.8,0,3.314,3.314,0,0,0,.1-.927,3.279,3.279,0,0,0-.1-.939.414.414,0,0,0-.8,0,4.528,4.528,0,0,0,0,1.866Z" transform="translate(-496.647 -127.698)"/><path class="k" d="M817.71,209.675a3.473,3.473,0,0,1,0,2.68,1.168,1.168,0,0,1-1.881,0,3.473,3.473,0,0,1,0-2.68,1.168,1.168,0,0,1,1.881,0Zm-1.348,2.267a.4.4,0,0,0,.779,0,3.482,3.482,0,0,0,.1-.927,3.43,3.43,0,0,0-.1-.939.4.4,0,0,0-.779,0,3.279,3.279,0,0,0-.1.939A3.322,3.322,0,0,0,816.362,211.943Z" transform="translate(-500.658 -127.699)"/><path class="k" d="M798,223.885a3.474,3.474,0,0,1,0,2.68,1,1,0,0,1-.943.471.986.986,0,0,1-.939-.471,3.431,3.431,0,0,1,0-2.68,1.175,1.175,0,0,1,1.881,0Zm-1.348,2.267a.417.417,0,0,0,.81,0,3.508,3.508,0,0,0,.094-.923,3.457,3.457,0,0,0-.094-.939.421.421,0,0,0-.81,0,3.237,3.237,0,0,0-.1.939A3.287,3.287,0,0,0,796.651,226.152Z" transform="translate(-488.621 -136.373)"/><path class="k" d="M804.564,223.889a2.7,2.7,0,0,1,.273,1.344,2.671,2.671,0,0,1-.273,1.336,1.169,1.169,0,0,1-1.878,0,2.673,2.673,0,0,1-.273-1.336,2.7,2.7,0,0,1,.273-1.344,1.169,1.169,0,0,1,1.878,0Zm-1.344,2.267a.4.4,0,0,0,.779,0,3.3,3.3,0,0,0,.1-.923,3.266,3.266,0,0,0-.1-.939.4.4,0,0,0-.779,0,3.237,3.237,0,0,0-.1.939,3.282,3.282,0,0,0,.1.923Z" transform="translate(-492.63 -136.377)"/><path class="k" d="M811.134,223.885a3.429,3.429,0,0,1,0,2.68.986.986,0,0,1-.939.471,1,1,0,0,1-.943-.471,3.477,3.477,0,0,1,0-2.68,1.174,1.174,0,0,1,1.882,0Zm-1.348,2.267a.408.408,0,0,0,.8,0,3.313,3.313,0,0,0,.1-.923,3.266,3.266,0,0,0-.1-.939.413.413,0,0,0-.8,0,3.261,3.261,0,0,0-.1.939A3.309,3.309,0,0,0,809.786,226.152Z" transform="translate(-496.641 -136.373)"/><path class="k" d="M817.7,223.885a2.754,2.754,0,0,1,.269,1.344,2.726,2.726,0,0,1-.269,1.336,1.169,1.169,0,0,1-1.882,0,3.477,3.477,0,0,1,0-2.68,1.169,1.169,0,0,1,1.882,0Zm-1.348,2.267a.4.4,0,0,0,.779,0,3.473,3.473,0,0,0,.1-.923,3.41,3.41,0,0,0-.1-.939.4.4,0,0,0-.779,0,3.257,3.257,0,0,0-.1.939A3.3,3.3,0,0,0,816.356,226.153Z" transform="translate(-500.651 -136.373)"/><path class="k" d="M824.274,223.885a2.754,2.754,0,0,1,.269,1.344,2.726,2.726,0,0,1-.269,1.336,1.169,1.169,0,0,1-1.882,0,2.724,2.724,0,0,1-.269-1.336,2.752,2.752,0,0,1,.269-1.344,1.169,1.169,0,0,1,1.882,0Zm-1.348,2.267a.417.417,0,0,0,.81,0,3.5,3.5,0,0,0,.094-.923,3.438,3.438,0,0,0-.094-.939.421.421,0,0,0-.81,0,3.266,3.266,0,0,0-.1.939,3.3,3.3,0,0,0,.1.923Z" transform="translate(-504.662 -136.373)"/><path class="k" d="M830.844,223.885a2.752,2.752,0,0,1,.269,1.344,2.724,2.724,0,0,1-.269,1.336,1.169,1.169,0,0,1-1.882,0,3.477,3.477,0,0,1,0-2.68,1.169,1.169,0,0,1,1.882,0Zm-1.348,2.267a.417.417,0,0,0,.811,0,3.518,3.518,0,0,0,.093-.923,3.447,3.447,0,0,0-.093-.939.421.421,0,0,0-.81,0,3.228,3.228,0,0,0-.1.939,3.278,3.278,0,0,0,.1.923Z" transform="translate(-508.672 -136.373)"/><path class="k" d="M837.4,223.889a2.7,2.7,0,0,1,.273,1.344,2.671,2.671,0,0,1-.273,1.336,1.169,1.169,0,0,1-1.878,0,3.428,3.428,0,0,1,0-2.68,1.169,1.169,0,0,1,1.878,0Zm-1.344,2.267a.417.417,0,0,0,.81,0,3.5,3.5,0,0,0,.094-.923,3.433,3.433,0,0,0-.094-.939.421.421,0,0,0-.81,0,3.229,3.229,0,0,0-.1.939A3.279,3.279,0,0,0,836.061,226.157Z" transform="translate(-512.677 -136.377)"/><path class="k" d="M843.974,223.889a3.428,3.428,0,0,1,0,2.68,1.169,1.169,0,0,1-1.878,0,2.673,2.673,0,0,1-.273-1.336,2.7,2.7,0,0,1,.273-1.344,1.169,1.169,0,0,1,1.878,0Zm-1.344,2.267a.413.413,0,0,0,.806,0,3.3,3.3,0,0,0,.1-.923,3.261,3.261,0,0,0-.1-.939.417.417,0,0,0-.806,0,3.237,3.237,0,0,0-.1.939A3.283,3.283,0,0,0,842.63,226.157Z" transform="translate(-516.687 -136.377)"/><path class="k" d="M850.544,223.885a2.754,2.754,0,0,1,.269,1.344,2.726,2.726,0,0,1-.269,1.336,1.169,1.169,0,0,1-1.882,0,3.477,3.477,0,0,1,0-2.68,1.169,1.169,0,0,1,1.882,0Zm-1.348,2.267a.4.4,0,0,0,.779,0,3.3,3.3,0,0,0,.1-.923,3.265,3.265,0,0,0-.1-.939.4.4,0,0,0-.779,0,3.265,3.265,0,0,0-.1.939,3.3,3.3,0,0,0,.1.923Z" transform="translate(-520.698 -136.373)"/><path class="k" d="M857.114,223.885a3.474,3.474,0,0,1,0,2.68,1.169,1.169,0,0,1-1.882,0,3.475,3.475,0,0,1,0-2.68,1.169,1.169,0,0,1,1.882,0Zm-1.36,2.267a.408.408,0,0,0,.8,0,3.468,3.468,0,0,0,.1-.923,3.415,3.415,0,0,0-.1-.939.413.413,0,0,0-.8,0,3.27,3.27,0,0,0-.1.939A3.3,3.3,0,0,0,855.754,226.153Z" transform="translate(-524.708 -136.373)"/><path class="n" d="M295.026,114.46H127.969a5.653,5.653,0,0,0-5.649,5.649V216.85a5.653,5.653,0,0,0,5.649,5.649H295.026a5.653,5.653,0,0,0,5.649-5.649V120.125a5.653,5.653,0,0,0-5.649-5.665Zm3.7,5.649V216.85a3.7,3.7,0,0,1-3.7,3.7H127.969a3.7,3.7,0,0,1-3.7-3.7V120.125a3.7,3.7,0,0,1,3.7-3.7H295.026a3.7,3.7,0,0,1,3.7,3.7Z" transform="translate(-77.492 -69.868)"/><rect class="n" width="155.985" height="22.175" rx="11.088" transform="translate(53.239 54)"/><path class="n" d="M304.958,347.7H153.021a3.9,3.9,0,0,0,0,7.76H304.958a3.9,3.9,0,0,0,0-7.76Z" transform="translate(-94.067 -212.242)"/><rect class="n" width="54.28" height="38.935" rx="12" transform="translate(53.239 82.307)"/><path class="n" d="M376.854,218.23H306.4a2.092,2.092,0,1,0,0,4.184h70.452a2.092,2.092,0,1,0,0-4.184Z" transform="translate(-188.582 -133.211)"/><path class="n" d="M376.854,245.42H306.4a2.092,2.092,0,0,0,0,4.184h70.452a2.092,2.092,0,1,0,0-4.184Z" transform="translate(-188.582 -149.809)"/><rect class="n" width="74.64" height="14.072" rx="5.37" transform="translate(115.728 105.631)"/><rect class="o" width="53.56" height="62.181" rx="12" transform="translate(214.768 60.004)"/><path class="p" d="M558.53,199.632l49.909-45.5a4.672,4.672,0,0,0-1.029-.129H601l-42.464,38.717Z" transform="translate(-343.762 -94.004)"/><path class="p" d="M612.086,169.66,558.53,218.49v2.583a4.675,4.675,0,0,0,4.675,4.675h1.075l47.806-43.59Z" transform="translate(-343.762 -103.563)"/><ellipse class="q" cx="30.847" cy="4.426" rx="30.847" ry="4.426" transform="translate(160.589 252.745)"/><ellipse class="q" cx="62.633" cy="5.758" rx="62.633" ry="5.758" transform="translate(45.218 277.57)"/><ellipse class="q" cx="62.633" cy="5.758" rx="62.633" ry="5.758" transform="translate(184.875 277.57)"/><path class="r" d="M.6,0H13.635V1.379H.6a.6.6,0,0,1-.6-.6V.6A.6.6,0,0,1,.6,0Z" transform="matrix(0.747, 0.665, -0.665, 0.747, 131.777, 125.077)"/><path class="s" d="M369.449,345.587s-.892-.931-1.169-.931-4.048-.6-4.71-.76-1.921-.456-2.1-.884a4.9,4.9,0,0,0-.639-1.118c-.16-.167-.16-.908-.183-1.1s-.666-.335-.666-.834.14-1.1,0-1.145a1.29,1.29,0,0,1-.729-.88c-.07-.5.16-.619.16-.619s-.5-.978,0-1.266a3.859,3.859,0,0,1,1.262-.362s-.456-1.134-.136-1.208.849.534,1.192.6a17.585,17.585,0,0,1,2.361.495c.814.284,1.356,0,1.73.195a19.134,19.134,0,0,1,3.008,3.561,6.9,6.9,0,0,0,1.85,1.788l.74,3.054-1.558,2.038Z" transform="translate(-222.079 -204.169)"/><path class="s" d="M512.91,633.42s-.428,2.314-.472,3.214,2.014,2.314,2.014,2.314l5.4.343a18,18,0,0,0,.343-3.257C520.067,635.391,512.91,633.42,512.91,633.42Z" transform="translate(-315.627 -386.651)"/><path class="s" d="M480.628,626.818a27.878,27.878,0,0,0-.429,2.828c-.043.9,2.7,2.186,2.7,2.186s3.814,1.169,4.585.779,1.329-2.338,1.329-2.338a16.129,16.129,0,0,1-.986-2.914C487.827,626.759,480.628,626.818,480.628,626.818Z" transform="translate(-295.947 -382.619)"/><path class="t" d="M469.043,449.2s-.647,16.265-.094,22.732,3.421,21.719,3.506,25.783,1.013,18.945.647,20.258,1.847,2.68,4.71,2.587,4.067-.74,4.067-3.05-.83-10.164-.464-12.934.281-16.635.093-18.669-2.337-18.412-1.473-18.182,3.927,20.258,4.406,23.862,2.637,9.74,2.637,16.078-2.361,13.316-1.4,14.154,4.538,2.949,7.659,2.832,3.226-21.665,2.626-26.1-3.241-17.142-3-22.319,2.4-8.758,2.279-14.878-.842-9.841-1.442-11.3S469.043,449.2,469.043,449.2Z" transform="translate(-288.944 -274.121)"/><path class="u" d="M423.968,319.923a.943.943,0,0,0-.779.655,9.422,9.422,0,0,1-.483,1.3,2.412,2.412,0,0,1-1.773.888c-1.765.238-4.917.277-6.584,2.708s-3.822,6.623-6.557,8.1-7.4,4.6-8.91,4.017-14.8-7.363-15.042-6.8-.226,3.549-.845,4.34-2.645,1.745-1.913,2.139,15.034,8.181,17.625,8.672,9.818-2.2,11.38-3.152,3.023-2.528,3.023-2.248,1.064,22.615.814,24.972-1.169,3.144-.592,3.872c.417.53,12.638,5.715,22.346,3.117,1.675-.452,4.036.5,5.781-.164a1.169,1.169,0,0,0,.732-1.313c-2.411-13.063,5.953-44.9,4.172-45.912s-10.18-3.117-10.32-3.6.175-.7-.242-1.192a12.656,12.656,0,0,0-2.443-1.714c-.175-.035-.456-.156-.6.125S426.076,319.588,423.968,319.923Z" transform="translate(-235.349 -194.446)"/><path class="v" d="M485.511,274.709a7.174,7.174,0,0,1,.039-5.672c1.2-3.257,2.166-6.378,6.4-6.8s7.519,1.445,8.824,3.4a9.2,9.2,0,0,1,1.282,5.571,9.74,9.74,0,0,1-1.648,5.267c-1.227,1.667-4.819,3.339-4.819,3.339l-8.7-2.236Z" transform="translate(-298.863 -160.036)"/><path class="s" d="M499.93,286.83a2.773,2.773,0,0,0-1.671,1.438c-.023.331-.234.67-.312.335s1.169-4.807-.616-6.015c-1.009-.678-3.635.717-6.487.265s-2.949-2.708-4.286-2.1c-.779.413-1.324,2.338-1.593,4.523-.23-.608-.58-1.34-.822-.834a8.961,8.961,0,0,0-.226,3.76,3.44,3.44,0,0,0,.861,1.235,13.875,13.875,0,0,0,.191,1.89c.549,2.875,2.221,4.137,2.166,4.624s-.717,1.492-.565,1.722,1.749,2.727,2.649,2.727,6.915-4.087,7.2-4.652,1.025-4.091,1.208-4.141a3.432,3.432,0,0,0,1.594-.565,5.337,5.337,0,0,0,1.3-2.443C500.549,288.045,500.495,286.83,499.93,286.83Z" transform="translate(-298.155 -171.315)"/><path class="v" d="M459.426,631.07s-3.592,4.718-5.135,4.971-5.454.623-6.307,1.418-.958,1.878-.39,2.131a70.1,70.1,0,0,0,10.23,1.461c2.337,0,4.967-1.628,5.388-1.628s-.292,1.5.206,1.461c.421-.035,5.248-.066,6.65-.1a.413.413,0,0,0,.409-.428c0-.83-.433-2.727-.335-3.315a6.129,6.129,0,0,0-.086-3.008c-.378-.877-.915-2.727-1.25-2.423s-1.628,3.175-4.387,2.338S460.178,631.113,459.426,631.07Z" transform="translate(-275.829 -385.216)"/><path class="v" d="M499.41,640.065c-.678.214-1.516,1.749-1.948,2.595a35.93,35.93,0,0,1-3.269,4.258c-.612.639-2.1.779-2.653,1.807s-.553,1.461.175,1.753a56.777,56.777,0,0,0,9.856.611,5.725,5.725,0,0,0,2.976-1.461c.117-.234.288,0,.288,0l1.449-.078a.51.51,0,0,0,.491-.526V647.79a2.241,2.241,0,0,0,.846-1.352c.21-.951.105-4.079-.265-4.422s-2.131,1.367-3.58.288S500.092,639.851,499.41,640.065Z" transform="translate(-302.629 -390.693)"/><path class="s" d="M522.665,451.432a7.434,7.434,0,0,0-1.145,1.929c-.024.39,2.641,4.309,3,4.285s2.1-2.941,2.338-3.631-3.919-2.945-3.919-2.945Z" transform="translate(-321.17 -275.341)"/><path class="w" d="M530.718,336.157c-2.926,2.193-2.435,10.425-1.831,16.152s1.091,13.02.721,14.317-5.407,10.932-5.9,11.808-1.11,1.609-.557,1.979,4.605,3.643,5.345,3.643,10.57-13.659,11.434-18.914-3.506-22.494-3.506-23.671S535.72,332.406,530.718,336.157Z" transform="translate(-322.032 -204.584)"/><path class="x" d="M409.935,522.36H291.794l-9.034,7.928H418.966Z" transform="translate(-175.427 -318.815)"/><path class="y" d="M282.76,542.83v1.991a.39.39,0,0,0,.39.39h28.326a1.714,1.714,0,0,1,1.718,1.718v66.938a1.9,1.9,0,0,0,1.905,1.905h0A1.9,1.9,0,0,0,317,613.866V546.928a1.714,1.714,0,0,1,1.718-1.718H383a1.714,1.714,0,0,1,1.714,1.718v66.938a1.9,1.9,0,0,0,1.905,1.905h0a1.9,1.9,0,0,0,1.909-1.905V546.928a1.714,1.714,0,0,1,1.714-1.718h28.33a.39.39,0,0,0,.39-.39V542.83Z" transform="translate(-175.427 -331.353)"/><path class="s" d="M582.261,509.529s-.662.779-1.122.8-1.679.136-1.679.136l1.4,2.984.873,1.309a9.79,9.79,0,0,0,2.365.436c.986,0,3.9-.366,4.286-.756s-.047-2.252-.047-2.252l-3.9-3.81-1.745.366Z" transform="translate(-356.538 -310.324)"/><path class="z" d="M622.9,656.666h.066l39.769-.678a3.97,3.97,0,0,0,3.545-5.622l-14.6-32a.779.779,0,0,0-1.414.643l14.6,32a2.419,2.419,0,0,1-2.158,3.42l-39.768.678a2.415,2.415,0,0,1-2.3-3.276l12.93-34.038a.779.779,0,1,0-1.453-.553l-12.934,34.038a3.974,3.974,0,0,0,3.717,5.384Z" transform="translate(-380.623 -376.436)"/><path class="s" d="M650.741,657.914c.635-.1,3.506-1.142,4.071-2s-.39-2.2-.569-2.392a.553.553,0,0,1-.066-.479l-1.239-.67-4.328,3.553.389,1.512C649.876,657.411,650.32,657.98,650.741,657.914Z" transform="translate(-398.749 -398.218)"/><path class="v" d="M639.657,656.32a19.114,19.114,0,0,1-.39,4.048c-.39,1.181-.148,3.2-.83,5.127s-2.9,1.648-2.758,4.009c.179,2.875,1.231,3.541,4.285,2.4s11.469-9.876,11.469-9.876,3.947-3.44,4.285-5.957-2.727-1.594-3.28-2.041-1.5-1.971-2.357-2.131-1.558-.066-1.625-.39.32-1.625-.639-1.784-.892,1.274-1.208,1.3-.448.67-.257.861.943,1.251.37,2.111a9.868,9.868,0,0,1-3.872,2.283C642.217,656.379,641.6,655.144,639.657,656.32Z" transform="translate(-390.851 -396.593)"/><path class="t" d="M608.533,590.824c-.113,1.009-1.558,2.727-3.187,4.227s-4.94,1.983-5.844.888-14.878-14.629-16.791-15.86-9.86-8.652-9.2-11.832,9.985-7.792,13.145-9.424,24.154-8.243,25.712-8.243,7.718,15.509,7.718,15.509-31.018,4.328-31.556,6.1,8.75,8.785,10.663,10.425S608.65,589.815,608.533,590.824Z" transform="translate(-352.882 -336.084)"/><path class="y" d="M629.475,663.146h.078l46.2-.779a4.617,4.617,0,0,0,4.118-6.533l-16.954-37.17a.9.9,0,0,0-1.644.752l16.959,37.151a2.812,2.812,0,0,1-2.509,3.973l-46.2.779a2.809,2.809,0,0,1-2.672-3.806L641.871,618a.9.9,0,1,0-1.687-.639L625.158,656.9a4.617,4.617,0,0,0,4.317,6.257Z" transform="translate(-384.249 -376.456)"/><path class="x" d="M632.336,561.616h34.24a9.658,9.658,0,0,0,9.646-9.646V525.206a1.656,1.656,0,0,0-3.312,0V551.97a6.342,6.342,0,0,1-6.335,6.335h-34.24a1.656,1.656,0,1,0,0,3.311Z" transform="translate(-387.804 -319.584)"/><path class="aa" d="M747.57,527.5a.667.667,0,0,1,0,.117A.566.566,0,0,0,747.57,527.5Z" transform="translate(-459.155 -321.995)"/><path class="v" d="M626.221,549.064s.615-3.724,5.329-3.724c3.238,0,14.2-.246,20.753-.39a5.408,5.408,0,0,0,5.271-5.189l.923-23.133a2.338,2.338,0,0,1,1.948-2.338c5.988-1.017,10.02.888,11.376,2.275a4.948,4.948,0,0,1,1.43,2.462,1.648,1.648,0,0,0-1.73-1.278,1.7,1.7,0,0,0-1.539,1.718v26.675a6.335,6.335,0,0,1-6.335,6.335H629.47a1.722,1.722,0,0,0-1.734,1.683,1.652,1.652,0,0,0,.444,1.1,4.453,4.453,0,0,1-2.127-2.778A5.493,5.493,0,0,1,626.221,549.064Z" transform="translate(-384.86 -313.757)"/><path class="z" d="M215.369,656.679h-.07L175.531,656a3.97,3.97,0,0,1-3.545-5.622l14.59-32a.779.779,0,0,1,1.414.643l-14.59,32a2.419,2.419,0,0,0,2.158,3.421l39.768.678a2.423,2.423,0,0,0,2.3-3.276L204.695,617.81a.779.779,0,1,1,1.453-.553l12.934,34.038a3.974,3.974,0,0,1-3.713,5.384Z" transform="translate(-107.589 -376.448)"/><path class="y" d="M196.725,663.146h-.078l-46.2-.779a4.62,4.62,0,0,1-4.1-6.541l16.959-37.17a.9.9,0,1,1,1.64.752l-16.974,37.158a2.813,2.813,0,0,0,2.509,3.974l46.2.779a2.809,2.809,0,0,0,2.673-3.806L184.328,618a.9.9,0,1,1,1.687-.639L201.041,656.9a4.616,4.616,0,0,1-4.317,6.257Z" transform="translate(-91.901 -376.456)"/><path class="x" d="M209.336,561.616H175.1a9.658,9.658,0,0,1-9.646-9.646V525.206a1.656,1.656,0,1,1,3.311,0V551.97A6.342,6.342,0,0,0,175.1,558.3h34.24a1.656,1.656,0,1,1,0,3.311Z" transform="translate(-103.819 -319.584)"/><path class="ab" d="M165.455,527.5a.667.667,0,0,0,0,.117A.593.593,0,0,1,165.455,527.5Z" transform="translate(-103.821 -321.995)"/><path class="v" d="M212.556,549.064s-.616-3.724-5.329-3.724c-3.237,0-14.2-.246-20.753-.39a5.407,5.407,0,0,1-5.271-5.189l-.919-23.133a2.338,2.338,0,0,0-1.948-2.338c-5.988-1.017-10.02.888-11.376,2.275a4.947,4.947,0,0,0-1.43,2.462,1.648,1.648,0,0,1,1.73-1.278,1.7,1.7,0,0,1,1.57,1.706v26.687a6.335,6.335,0,0,0,6.335,6.335h34.143a1.722,1.722,0,0,1,1.734,1.683,1.652,1.652,0,0,1-.444,1.1,4.453,4.453,0,0,0,2.127-2.778A5.454,5.454,0,0,0,212.556,549.064Z" transform="translate(-103.868 -313.757)"/><path class="v" d="M586.1,679.056a19.321,19.321,0,0,0-2.072,2.992,22.074,22.074,0,0,1-3.331,4.519c-.6.44-5.4,1.87-5.711,2.649a1.5,1.5,0,0,0,.682,2.073c.884.405,5.368,2.891,9.549,2.209a43.322,43.322,0,0,0,8.77-2.614c.853-.316,6.319-2.279,6.623-3.534a4.1,4.1,0,0,0-1.021-3.74c-1.021-1.169-1.4-3.195-1.835-3.635s-.748-.611-.748-.985.2-1.395-.2-1.632a.893.893,0,0,0-1.223.814c.07.678.779,1.461.542,2.279s-1.527,1.7-3.3,1.087S587.459,678.616,586.1,679.056Z" transform="translate(-353.711 -413.427)"/><path class="s" d="M619.718,682.755c1.769.611,3.058-.273,3.3-1.087.2-.682-.269-1.344-.464-1.948l-.592-.44-3.058,2.006.569,1.364Z" transform="translate(-380.613 -414.644)"/><path class="ac" d="M612.929,563.66s-31.794,4.87-36.8,7.3-7.441,3.923-6.623,7.3S580.862,601,581.291,602.895s1.613,5.065,1.169,6.37,3.865,3.76,6.011,3.436,4.285-1.948,4.285-3.436-2.789-9.015-3.541-12.876-5.793-12.338-5.15-13.308,11.485-3.436,14.06-3.65,22,0,23.375-1.929,3.218-4.831,2.361-9.015S612.929,563.66,612.929,563.66Z" transform="translate(-350.367 -344.068)"/><path class="s" d="M340.052,678.421c.413,1.819,2.1,2.867,3.9,3.417s5.181-1.558,5.762-2.209c.226-.253.39-.475.538-.651a5.327,5.327,0,0,1-1.29-1.948,24.568,24.568,0,0,1-1.021-3.74l-7.6.276s-.222,2.661-.362,4.547a2.071,2.071,0,0,1,.082.308Z" transform="translate(-210.349 -410.988)"/><path class="s" d="M246.568,654.2s-2.267.736-3.748,1.169a.9.9,0,0,1-.136.331,5.421,5.421,0,0,0-1.605,3.845c-.171,2.676,2.84,3.732,3.319,3.8s1.1,1.169,1.991,1.437a.888.888,0,0,0,1.048-.347,3.643,3.643,0,0,1,.53-1.66c.5-.542,3.755-3.611,3.755-3.611Z" transform="translate(-149.98 -399.335)"/><path class="ac" d="M232.041,566.15c-4.11-1.847-11.458-5.61-16.752-3.685s-8.181,12.408-4.819,15.194,24.692,1.8,26.858,1.925,10.238,2.411,10.721,3.253c.409.717-16.172,10.316-20.924,13.246a1.438,1.438,0,0,0-.39,2.073c1.1,1.5,3.569,4.286,4.515,5.5a1.321,1.321,0,0,0,1.866.222c2.536-2.018,9.112-7.13,12.657-8.762,4.457-2.045,16.623-6.985,17.948-9.74s1.808-8.672-2.77-10.6S236.147,567.992,232.041,566.15Z" transform="translate(-130.419 -343.013)"/><path class="t" d="M295.289,606.646c-1.675-3.545-1.134-24.871-.62-29.826s-.721-9.081-2.887-11.251-9.911-1.948-13.522-1.855c-2.338.066-16.327.518-25.95.834,2.338.865,4.508,1.909,6.152,2.649,4.106,1.843,24.314,6.673,28.891,8.6s4.094,7.827,2.77,10.6c-.495,1.032-2.493,2.365-5.033,3.736.39,6.479.545,13.7.588,16.269a1.056,1.056,0,0,0,.99,1.04C289.157,607.608,295.822,607.815,295.289,606.646Z" transform="translate(-156.84 -344.067)"/><path class="v" d="M233.365,655.713c-.175-.327-7.464.129-7.624.452s1.293,16.546,2.365,18.844,2.232,5.844,4.4,6.233c3.011.483,2.653-2.536,2.365-3.206-.39-.908-1.492-1.909-.982-3.44a91.6,91.6,0,0,1,4.554-8.431c.362-.557.136-1.531-.058-1.336s-.471,1.087-1.364.811-1.512-1.368-1.991-1.438-3.506-1.13-3.319-3.8a5.517,5.517,0,0,1,1.605-3.845A.779.779,0,0,0,233.365,655.713Z" transform="translate(-140.614 -400.19)"/><path class="v" d="M339.054,689.154c-1.808-.549-3.506-1.6-3.9-3.417s-.522,2.209-1.71,3.974-2.037,2.622-1.138,3.444,10.71,3.089,12.428,3.946a18.515,18.515,0,0,0,10.008,2.189c4.691-.393,3.4-2.189,2.618-3.163s-7.32-3.557-8.337-5.5-2.112-2.462-2.267-3.362-.526-1.321-.83-1.371-.53.39-1.114,1.064S340.866,689.707,339.054,689.154Z" transform="translate(-205.444 -418.304)"/><path class="s" d="M608.434,380.844s-2.926,4.465-3.015,5.844,1.324,1.208.631,2.295-2.443,3.288-2.049,3.9,1.356.421,1.539.693a7.962,7.962,0,0,1,.814,3.53c-.148,1.235-.514,3.623.694,3.713s5.5-.584,6.3.74,2.7,4.286,2.7,4.286,4.169-9.249,5.431-9.693,1.434-.818,1.434-1.364-.09-13.359-1.442-14.621S610.514,377.774,608.434,380.844Z" transform="translate(-371.483 -231.271)"/><path class="t" d="M346.678,507.15l6.829,1.7c.253.074.2.666-.043.779l-14.785,6.989" transform="translate(-209.562 -309.573)"/><path class="v" d="M328.3,515.845l-6.623-4.527,14.629-4.948,6.744,1.948a.284.284,0,0,1,.043.534Z" transform="translate(-199.185 -309.097)"/><path class="s" d="M275.471,505.975s5.719,1.441,9.673,1.948a77.423,77.423,0,0,0,12.51-.14c.234-.094,2.139-1.488,3.253-1.488s2.544-.542,3.354-.542a12.071,12.071,0,0,0,3.078-.779c.1-.1.608-.37.845-.269s.542,1.013-.608,1.589a10.6,10.6,0,0,1-2.809.845c-.37.066-.339.538-.608.744s-7.192,3.9-7.768,3.9-7.585-.25-8.4-.082-13.616,1.06-13.616,1.06Z" transform="translate(-170.312 -308.067)"/><rect class="ad" width="0.577" height="10.028" rx="0.288" transform="matrix(0.518, -0.855, 0.855, 0.518, 126.589, 197.74)"/><path class="ae" d="M330.5,531.7l-30.157,1.1-.553,1.227,34.085-.308Z" transform="translate(-185.823 -324.516)"/><path class="af" d="M216.7,436.69s-6.1,3.506-7.055,12.209,1.169,18.992.53,26.328-.569,11.228-1.847,13.581-3.3,11.9-2.337,12.5,12.506,2.392,12.774,1.251-2.423-10.569.736-12.622c2.154-1.4,17.313.421,16.312-3.086-1.558-5.454-1.149-18.641-1.149-22.1s1.422-9.26-.058-11.917-6.486-12.287-7.9-13.215S216.7,436.69,216.7,436.69Z" transform="translate(-128.412 -266.563)"/><path class="s" d="M251.384,379.022a10.031,10.031,0,0,1,.39,5.224s1.7,4.153,1.558,4.6-1.874.312-1.874.8-1.558,3.572-1.43,4.422-.39,1.788-1.784,1.741-2.458-.713-3.035,1.118-2.244,4.956-1.991,5.668,2.1,4.445,2.182,5.742c0,0-1.048-.292-2.813-3.311s-9.307-4.32-8.8-4.78,1.383-2.727,1.971-4.574a36.144,36.144,0,0,0,.962-8.68c-.206-1.048-.962-8.181,3.358-9.311S250.48,376.669,251.384,379.022Z" transform="translate(-145.516 -230.12)"/><path class="s" d="M228.241,444.614c2.158-.46,4.215,1.056,5.065,4.286s5.879,24.033,9.416,24.933,24.084,1.169,24.762,1.032,6.374-3.027,6.892-3.027a32.715,32.715,0,0,1,4.581.729c.105.156.884.522.623,1.095s-1.664.674-2.135.569-1.457-.257-1.457-.257,2.552,1.2,2.6,1.664a3.485,3.485,0,0,1-.709,1.772,1.555,1.555,0,0,1-.538.362,1,1,0,0,1-.779.612,9.7,9.7,0,0,1-1.266.094s-.109.779-.354.884a36.74,36.74,0,0,1-5.232.191c-.736-.125-2.61-.031-3.467-.152s-11.423.051-14.547.666-12.4,2.337-13.222,1.589c-3.152-2.914-7.792-13.222-9.327-17.114s-2-4.87-2-4.87-5.065-.46-5.279-5.431S222.755,445.884,228.241,444.614Z" transform="translate(-138.245 -271.351)"/><path class="ag" d="M221.78,467.57c0,.245,0,.491.02.744.206,4.971,5.279,5.431,5.279,5.431C226.591,472.514,222.96,469.358,221.78,467.57Z" transform="translate(-138.204 -285.413)"/><path class="v" d="M221.323,380.086a1.188,1.188,0,0,0-1.348-1.356,12.207,12.207,0,0,0-3.787.99c-1.27.8-3.678,3.047-3.678,7.612s1.169,14.442.312,18.462a22.1,22.1,0,0,1-2.022,5.641.39.39,0,0,0,.491.506c2.069-.951,6.564-3.588,7.09-8.637.682-6.584-1.8-20.258-.257-21.458a3.37,3.37,0,0,1,2.061-.756,1.169,1.169,0,0,0,1.138-1.013Z" transform="translate(-131.486 -231.176)"/><path class="s" d="M596.658,504.833s-2.4-2.3-2.793-3.339-1.036-1.422-1.476-1.371-.257.545-.542.674-1.5-.491-1.843,0-.748,0-1.169.491-.417.674-.752.908-.725-.156-.83.335-1.192.6-1.321.857-.156,1.293.051,1.348.647-.417.958-.105a14.793,14.793,0,0,1,2.014,2.376,2.249,2.249,0,0,0,1.387,1.1c.452.191,2.544,3.156,3.962,3.572a7.663,7.663,0,0,0,2.252.39l1.807-6.151Z" transform="translate(-360.428 -305.281)"/><path class="ah" d="M543.315,528.33h-22a.355.355,0,0,1-.351-.3l-.421-2.817a.359.359,0,0,1,.351-.409h20.722a.355.355,0,0,1,.3.171l1.687,2.532C543.748,527.73,543.576,528.33,543.315,528.33Z" transform="translate(-320.573 -320.347)"/><path class="ai" d="M543.315,527.56h-22a.355.355,0,0,1-.351-.3l-.421-2.817a.359.359,0,0,1,.351-.409h20.722a.355.355,0,0,1,.3.171l1.687,2.832a.355.355,0,0,1-.292.526Z" transform="translate(-320.573 -319.877)"/><path class="v" d="M484.432,486.639,498.76,503.1a.09.09,0,0,0,.152-.07l-.479-3.214a.209.209,0,0,0,0-.043l-13.071-15.4a.156.156,0,0,0-.265.051l-.674,2.061A.151.151,0,0,0,484.432,486.639Z" transform="translate(-298.516 -295.639)"/><path class="s" d="M564.308,516.475s1.773,2.295,2.727,2.295,3.557.3,4.13-.047.666-2.548.666-2.548l-2.376-2.435h-3.9l-1.558.943Z" transform="translate(-347.101 -313.596)"/><path class="aj" d="M582.261,509.529s-.662.779-1.122.8-1.679.136-1.679.136l1.4,2.984.873,1.309a9.79,9.79,0,0,0,2.365.436c.986,0,3.9-.366,4.286-.756s-.047-2.252-.047-2.252l-3.9-3.81-1.745.366Z" transform="translate(-356.538 -310.324)"/><path class="ak" d="M564.308,516.475s1.773,2.295,2.727,2.295,3.557.3,4.13-.047.666-2.548.666-2.548l-2.376-2.435h-3.9l-1.558.943Z" transform="translate(-347.101 -313.596)"/><path class="s" d="M565.424,511.938a15.747,15.747,0,0,1-1.948-1.593c-.506-.581-1.948.023-1.948.023a10.049,10.049,0,0,0-2.033.483,9.555,9.555,0,0,0-2.8,1.691c-.363.522-.885.779-1.216,1.286s-.912,1.593-.958,1.714-.043.635.265.724.834-.089.81-.5a.779.779,0,0,1,.39-.647c.187.055,0,.857.027,1.013s.09.23.53.257.526-.557.526-.623.281.273.658.234.608-.522.686-.756a9.621,9.621,0,0,1,.323-1.379c.144-.21.3-1.321,1.278-1.321,0,0-.654,2.275-.705,2.486a1.048,1.048,0,0,0,.526.841,1.145,1.145,0,0,0,1.169-.421c.312-.39.3-1.106.662-1.652a2.5,2.5,0,0,1,1.948-.97c.545.105,1.558.592,1.3,1.36a6.794,6.794,0,0,1-.53,1.594c-.222.234-.853,1.835.285,2.154.631.156,1.508-.935,1.718-1.4s.608-.779.674-1.04a4.061,4.061,0,0,0-.078-1.7A8.511,8.511,0,0,0,565.424,511.938Z" transform="translate(-341.299 -311.37)"/><rect class="o" width="29.834" height="34.634" rx="12" transform="translate(57.969 130.385) rotate(180)"/><path class="p" d="M112.491,271.189l-27.8-25.346a2.767,2.767,0,0,1,.569-.062h3.576l23.655,21.567Z" transform="translate(-54.522 -150.028)"/><path class="p" d="M79.47,254.49l29.834,27.2v1.438a2.61,2.61,0,0,1-2.6,2.6h-.6L79.47,261.452Z" transform="translate(-51.335 -155.345)"/><g class="al" transform="translate(292.788 204.441)"><path d="M847.455,652.927s-2.532-13.55-.542-16.433,3.876-3.362,4.375-6.038.425-7.881,2.564-9.7,4.718-.44,8.719-4.472,6.767-2.895,7.488-.822-3.693,3.117-4.25,5.369-.089,7.184-1.948,9.4-5.556,3.814-5.719,7.313.721,6.183-2.337,9.214-5.139,2.684-5.275,6.4Z" transform="translate(-812.119 -578.984)"/><path d="M847.455,652.927s-2.532-13.55-.542-16.433,3.876-3.362,4.375-6.038.425-7.881,2.564-9.7,4.718-.44,8.719-4.472,6.767-2.895,7.488-.822-3.693,3.117-4.25,5.369-.089,7.184-1.948,9.4-5.556,3.814-5.719,7.313.721,6.183-2.337,9.214-5.139,2.684-5.275,6.4Z" transform="translate(-812.119 -578.984)"/><path d="M768.616,638.1c3.9,1.636,10.6,5.871,12.361,8.045s3.183,7.336,4.114,8.571,3.67,4.286,4.067,6.167a22.576,22.576,0,0,1,.2,4.858l-.518-.183a13.853,13.853,0,0,0-.456-4.866,8.01,8.01,0,0,0-4.219-4.722c-1.652-.721-5.894-1.251-8.294-2.852s-14.828-13.382-14.828-13.382-2.154-1.434-2.244-2.556S764.72,636.466,768.616,638.1Z" transform="translate(-758.797 -593)"/><path d="M768.616,638.1c3.9,1.636,10.6,5.871,12.361,8.045s3.183,7.336,4.114,8.571,3.67,4.286,4.067,6.167a22.576,22.576,0,0,1,.2,4.858l-.518-.183a13.853,13.853,0,0,0-.456-4.866,8.01,8.01,0,0,0-4.219-4.722c-1.652-.721-5.894-1.251-8.294-2.852s-14.828-13.382-14.828-13.382-2.154-1.434-2.244-2.556S764.72,636.466,768.616,638.1Z" transform="translate(-758.797 -593)"/><g class="am" transform="translate(0 43.546)"><path d="M756.263,639.141s6.931,1.426,9.6,4.332,5.166,9.615,5.166,9.615L764.9,652,753.82,641.3S754.424,638.767,756.263,639.141Z" transform="translate(-755.759 -638.107)"/></g><path class="an" d="M855.34,655.929s1.558-18.462,14.8-30.859" transform="translate(-817.729 -585.995)"/><path d="M775.223,548.42s-.335,11.251,4.811,15.194,2.848,5.672,2.941,7.967a8.185,8.185,0,0,0,3.752,6.428c2.31,1.364-1.048,5.454,6.1,10.585s4.819,19.923,4.122,26.71l1.453.148s1.527-18.852-1.138-30.325c-2.727-11.687-5.933-20.2-13.546-27.185S775.223,548.42,775.223,548.42Z" transform="translate(-768.821 -539.206)"/><path d="M853.143,524.77s-14.617,9.9-14.465,32.725,0,42.636,0,42.636h2.591s-1.979-23.764-1.219-29.219,2.626-5.376,5.844-7.309-.534-5.785,1.6-8.22,3.35-1.067,2.287-7.157,4.515-5.789,4.769-10.963S852.384,530.252,853.143,524.77Z" transform="translate(-807.557 -524.77)"/><path d="M853.143,524.77s-14.617,9.9-14.465,32.725,0,42.636,0,42.636h2.591s-1.979-23.764-1.219-29.219,2.626-5.376,5.844-7.309-.534-5.785,1.6-8.22,3.35-1.067,2.287-7.157,4.515-5.789,4.769-10.963S852.384,530.252,853.143,524.77Z" transform="translate(-807.557 -524.77)"/><g class="ao" transform="translate(31.12)"><path d="M849.086,520.247a15.532,15.532,0,0,0-3.693,10.129c0,6.272-1.535,5.6-4.286,8.8s-1.535,3.67-1.734,8.609-4.34,8.544-4.538,13.947-2.805-1.8-2.805-1.8l4.741-37.568,8.138-5.006Z" transform="translate(-834.619 -520.247)"/></g><path d="M775.223,548.42s-.335,11.251,4.811,15.194,2.848,5.672,2.941,7.967a8.185,8.185,0,0,0,3.752,6.428c2.31,1.364-1.048,5.454,6.1,10.585s4.819,19.923,4.122,26.71l1.453.148s1.527-18.852-1.138-30.325c-2.727-11.687-5.933-20.2-13.546-27.185S775.223,548.42,775.223,548.42Z" transform="translate(-768.821 -539.206)"/><g class="ap" transform="translate(6.397 9.214)"><path d="M775.12,545.582s1.255,6.568,4.453,10.094,6.393,3.506,6.942,7.5-.265,5.31,3.195,8.31c2.061,1.788,1.878,2.934,2.427,6.459s6.085,8.271,6.685,13.106c.284,2.337,1.227-4.285-.183-15.856-1.009-8.275-5.731-22.49-5.731-22.49l-16.865-8.929-.993,1.434" transform="translate(-775.116 -545.582)"/></g><path d="M829.529,696.618c-.674,8.127-7.792,14.718-16.947,16.012h-.043a23.514,23.514,0,0,1-3.261.226c-10.713,0-19.479-7.168-20.258-16.245Z" transform="translate(-777.246 -629.664)"/><path d="M812.549,712.65a23.557,23.557,0,0,1-3.261.226c-10.714,0-19.479-7.168-20.258-16.246h14.115S802.739,708.559,812.549,712.65Z" transform="translate(-777.252 -629.676)"/><path d="M866.447,696.63c-.674,8.127-7.792,14.719-16.947,16.012.8-.152,13.4-2.337,14.929-16.012Z" transform="translate(-814.164 -629.676)"/></g><path class="b" d="M839.455,652.927s-2.532-13.55-.542-16.433,3.876-3.362,4.375-6.038.425-7.881,2.564-9.7,4.718-.44,8.719-4.472,6.767-2.895,7.488-.822-3.693,3.117-4.25,5.369-.089,7.184-1.948,9.4-5.556,3.814-5.719,7.313.721,6.183-2.338,9.214-5.139,2.684-5.275,6.4Z" transform="translate(-514.447 -374.543)"/><path class="aq" d="M839.455,652.927s-2.532-13.55-.542-16.433,3.876-3.362,4.375-6.038.425-7.881,2.564-9.7,4.718-.44,8.719-4.472,6.767-2.895,7.488-.822-3.693,3.117-4.25,5.369-.089,7.184-1.948,9.4-5.556,3.814-5.719,7.313.721,6.183-2.338,9.214-5.139,2.684-5.275,6.4Z" transform="translate(-514.447 -374.543)"/><path class="ar" d="M760.616,638.1c3.9,1.636,10.6,5.871,12.361,8.045s3.183,7.336,4.114,8.571,3.67,4.286,4.067,6.167a22.576,22.576,0,0,1,.2,4.858l-.518-.183a13.858,13.858,0,0,0-.456-4.866,8.01,8.01,0,0,0-4.219-4.722c-1.652-.721-5.894-1.251-8.294-2.852s-14.828-13.382-14.828-13.382-2.154-1.434-2.244-2.556S756.72,636.466,760.616,638.1Z" transform="translate(-461.126 -388.559)"/><path class="b" d="M760.616,638.1c3.9,1.636,10.6,5.871,12.361,8.045s3.183,7.336,4.114,8.571,3.67,4.286,4.067,6.167a22.576,22.576,0,0,1,.2,4.858l-.518-.183a13.858,13.858,0,0,0-.456-4.866,8.01,8.01,0,0,0-4.219-4.722c-1.652-.721-5.894-1.251-8.294-2.852s-14.828-13.382-14.828-13.382-2.154-1.434-2.244-2.556S756.72,636.466,760.616,638.1Z" transform="translate(-461.126 -388.559)"/><g class="as" transform="translate(289.672 247.987)"><path class="at" d="M748.263,639.141s6.93,1.426,9.6,4.332,5.166,9.615,5.166,9.615L756.9,652,745.82,641.3S746.424,638.767,748.263,639.141Z" transform="translate(-747.759 -638.107)"/></g><path class="au" d="M847.34,655.929s1.558-18.462,14.8-30.859" transform="translate(-520.057 -381.554)"/><path class="av" d="M767.223,548.42s-.335,11.251,4.811,15.194,2.848,5.672,2.941,7.967a8.187,8.187,0,0,0,3.752,6.428c2.31,1.364-1.048,5.454,6.1,10.585s4.819,19.923,4.122,26.71l1.453.148s1.527-18.852-1.137-30.325c-2.727-11.687-5.933-20.2-13.546-27.185S767.223,548.42,767.223,548.42Z" transform="translate(-471.149 -334.765)"/><path class="b" d="M845.143,524.77s-14.617,9.9-14.465,32.725,0,42.636,0,42.636h2.591s-1.979-23.764-1.219-29.219,2.626-5.376,5.844-7.309-.534-5.785,1.6-8.22,3.35-1.067,2.287-7.157,4.515-5.789,4.769-10.963S844.383,530.252,845.143,524.77Z" transform="translate(-509.885 -320.329)"/><g class="aw" transform="translate(320.791 204.441)"><path class="ax" d="M841.086,520.247a15.532,15.532,0,0,0-3.693,10.129c0,6.272-1.535,5.6-4.285,8.8s-1.535,3.67-1.734,8.609-4.34,8.544-4.539,13.947-2.805-1.8-2.805-1.8l4.741-37.568,8.138-5.006Z" transform="translate(-826.619 -520.247)"/></g><path class="b" d="M767.223,548.42s-.335,11.251,4.811,15.194,2.848,5.672,2.941,7.967a8.187,8.187,0,0,0,3.752,6.428c2.31,1.364-1.048,5.454,6.1,10.585s4.819,19.923,4.122,26.71l1.453.148s1.527-18.852-1.137-30.325c-2.727-11.687-5.933-20.2-13.546-27.185S767.223,548.42,767.223,548.42Z" transform="translate(-471.149 -334.765)"/><g class="ay" transform="translate(296.069 213.655)"><path class="az" d="M767.12,545.582s1.254,6.568,4.453,10.094,6.393,3.506,6.942,7.5-.265,5.31,3.195,8.31c2.061,1.788,1.878,2.934,2.427,6.459s6.085,8.271,6.685,13.106c.285,2.337,1.227-4.285-.183-15.856-1.009-8.275-5.731-22.49-5.731-22.49l-16.865-8.929-.993,1.434" transform="translate(-767.116 -545.582)"/></g><path class="ba" d="M821.529,696.618c-.674,8.127-7.792,14.718-16.947,16.012h-.043a23.517,23.517,0,0,1-3.261.226c-10.714,0-19.479-7.168-20.258-16.245Z" transform="translate(-479.574 -425.223)"/><path class="bb" d="M804.549,712.65a23.558,23.558,0,0,1-3.261.226c-10.714,0-19.479-7.168-20.258-16.246h14.115S794.739,708.559,804.549,712.65Z" transform="translate(-479.58 -425.235)"/><path class="bc" d="M858.447,696.63c-.674,8.127-7.792,14.719-16.947,16.012.8-.152,13.4-2.337,14.929-16.012Z" transform="translate(-516.492 -425.235)"/><path class="v" d="M611.3,397.206a5.379,5.379,0,0,1,3.335.639c.658.569.39.9-.16.892S610.693,397.872,611.3,397.206Z" transform="translate(-375.929 -242.409)"/><path class="v" d="M612.053,403.522c-.281-.152-.592-.117-.7.078s.039.471.319.623.592.117.7-.078S612.334,403.674,612.053,403.522Z" transform="translate(-375.987 -246.259)"/><path class="v" d="M612.35,402a1.9,1.9,0,0,1,1.815,1.325" transform="translate(-376.615 -245.384)"/><path class="bd" d="M618.41,378.89s4.73,14.1,1.005,19.358L622.9,396.5l1.656-12.584-.39-4.85Z" transform="translate(-380.314 -231.281)"/><path class="be" d="M630.51,420.983s2.793-12.747,7.663-16.413L639.6,405.9l-.841,7.6-3.7,9.221Z" transform="translate(-387.7 -246.957)"/><path class="u" d="M623.449,428.795s2.182,1.948,2.217,1.13,2.376-7.363,3.378-8.181,1.909-1.671,2.914-1.1,1.379,1.924,2.52,2.474,6.475,3.4,9.463,11.9,8.372,30.1,8.7,31.3,2.462,10.231,3.389,12.026,1.928,2.657,1.531,3.253-4.254,2.727-8.107,3.72-6.713,1.13-8.438,2.061-8.372-.133-10.3-2.338-5.314-5.715-5.645-7.242-.269-2.458-1.13-3.323-2.392-4.983-2.392-7.706-3.323-17.94-3.117-22.459,1.995-11.3,2.926-12.424S622.483,429.5,623.449,428.795Z" transform="translate(-380.324 -256.654)"/><path class="w" d="M628.509,447.129c-2.073-.779-5.135-.69-8.1,2.271s-4.149,9.977-5.454,12.856-2.961,7.7-4.64,8.789-4.344,3.557-3.95,5.844a4.142,4.142,0,0,0,3.95,3.849c2.369.3,4.839,1.286,6.717-1.679s3.654-6.319,6.233-8.571,8.692-8.988,8.988-13.729S630.585,447.92,628.509,447.129Z" transform="translate(-372.94 -272.681)"/><path class="v" d="M628.527,381.015c0-2.961-.682-4.675-5.579-7.348s-11.722.031-12.856.912a1.558,1.558,0,0,0,.094,2.571,1.757,1.757,0,0,0,.892,0h0l.277-.043h.024c.421-.078.9-.179,1.4-.28l.214-.047.121-.023.261-.051h.07l.265-.047h.086l.285-.043h.05l.234-.027h.07l.253-.02h.545l.156.031h.024a.63.63,0,0,1,.136.058l.027.02a.365.365,0,0,1,.1.09c.584.8-.39,2.688-1.169,3.7s.654,1.453,1.6,2.653.257,5.306-.253,7.27-2.8,2.595-3.089,1.527c-.8-2.973-4.309-2.228-4.317-1.925,0,.035.109.257.144.366.277.861,3.015-.538,2.938,1.948,0,.132-.366.1-.475.191-.241.214-1.122-.234-1.753-.257-.265,0-.242,1.488-.269,1.753-.14,1.262-.211,2.895.779,2.969s4-.358,5.528.191a.5.5,0,0,0,.471-.074,17.063,17.063,0,0,0,2.766-2.895c.908-1.2.471-2.836.253-3.67a18.958,18.958,0,0,1-.277-4.874,3.081,3.081,0,0,1,3.148-2.431c1.41.269,2.17,4.815,1.741,5.844s.187,2.388.846,2.388a2.486,2.486,0,0,0,1.589-.826c0-.39-.179-.8,1.239-3.054S628.527,383.972,628.527,381.015Z" transform="translate(-374.228 -227.391)"/><path class="bf" d="M619.341,213.016a15.77,15.77,0,1,1-15.768-15.766,15.77,15.77,0,0,1,15.768,15.766Z" transform="translate(-361.629 -120.405)"/><g class="bg" transform="translate(235.501 85.642)"><path class="w" d="M612.93,219.83h11.687v.023a17.917,17.917,0,0,1-1.169,1.7h-3.117a4.112,4.112,0,0,1,.877,1.839h3.331c.039,0,.062.023.062.047q-1.122,1.679-1.145,1.679h-2.166a4.933,4.933,0,0,1-.826,2.08,5.084,5.084,0,0,1-1.909,1.593,7.593,7.593,0,0,1-3.261.814v.027a4.51,4.51,0,0,0,.779,1.013l5.777,6.97v.327c0,.031,0,.051-.062.051h-2.54q-6.86-7.994-6.86-8.029v-1.621l.023-.058a10.772,10.772,0,0,0,1.422.086q3.845,0,4.78-2.493a2.031,2.031,0,0,0,.148-.756H611.8c-.035,0-.051,0-.051-.047.779-1.122,1.169-1.679,1.169-1.679h5.552v-.027a3.257,3.257,0,0,0-1.839-1.5,5.722,5.722,0,0,0-1.749-.316h-3.093V221.5C612.521,220.383,612.907,219.83,612.93,219.83Z" transform="translate(-611.75 -219.83)"/></g><g class="bh" transform="translate(58.67 61.34)"><path d="M163.285,162.117a1.886,1.886,0,0,1,.421,1.219,1.948,1.948,0,0,1-.651,1.558,2.8,2.8,0,0,1-1.889.565H157.85V157.73H161.1a2.77,2.77,0,0,1,1.8.514,1.753,1.753,0,0,1,.631,1.441,1.8,1.8,0,0,1-.39,1.169,1.773,1.773,0,0,1-.99.6,1.886,1.886,0,0,1,1.134.662Zm-3.9-1.169h1.391a1.325,1.325,0,0,0,.88-.257.923.923,0,0,0,.3-.74.939.939,0,0,0-.3-.744,1.329,1.329,0,0,0-.908-.261h-1.367Zm2.408,2.961a.954.954,0,0,0,.327-.779.982.982,0,0,0-.331-.779,1.465,1.465,0,0,0-.947-.277h-1.457V164.2h1.465a1.453,1.453,0,0,0,.951-.269Z" transform="translate(-157.85 -157.618)"/><path d="M189.983,157.74v4.531a1.99,1.99,0,0,0,.39,1.36,1.675,1.675,0,0,0,2.3,0,2.01,2.01,0,0,0,.39-1.36V157.74h1.531v4.531a3.767,3.767,0,0,1-.39,1.808,2.583,2.583,0,0,1-1.106,1.1,3.46,3.46,0,0,1-1.6.358,3.015,3.015,0,0,1-2.225-.83,3.306,3.306,0,0,1-.83-2.439V157.74Z" transform="translate(-176.523 -157.627)"/><path d="M225.358,164.264a2.1,2.1,0,0,1-.873.8,3.023,3.023,0,0,1-1.414.3,3.639,3.639,0,0,1-1.465-.277,2.494,2.494,0,0,1-1.036-.806,2.315,2.315,0,0,1-.44-1.223h1.64a1.266,1.266,0,0,0,.39.779,1.188,1.188,0,0,0,.857.312,1,1,0,0,0,.74-.257.9.9,0,0,0,.257-.662.872.872,0,0,0-.206-.6,1.493,1.493,0,0,0-.526-.39,8.9,8.9,0,0,0-.877-.331,8.186,8.186,0,0,1-1.169-.475,2.182,2.182,0,0,1-.779-.682,1.971,1.971,0,0,1-.323-1.169,1.9,1.9,0,0,1,.717-1.558,2.953,2.953,0,0,1,1.9-.573,3.019,3.019,0,0,1,1.948.588,2.24,2.24,0,0,1,.826,1.578h-1.664a1.168,1.168,0,0,0-.351-.686,1.083,1.083,0,0,0-.779-.269,1.036,1.036,0,0,0-.69.226.806.806,0,0,0-.265.651.83.83,0,0,0,.2.565,1.636,1.636,0,0,0,.514.366c.21.094.491.2.849.316a10.637,10.637,0,0,1,1.208.495,2.1,2.1,0,0,1,.779.69,2.023,2.023,0,0,1,.327,1.2A2.073,2.073,0,0,1,225.358,164.264Z" transform="translate(-195.867 -157.45)"/><path d="M251.678,157.74v7.725H250.12V157.74Z" transform="translate(-214.173 -157.627)"/><path d="M277.132,165.465h-1.558l-3.456-5.255v5.255H270.56V157.74h1.558l3.456,5.294V157.74h1.558Z" transform="translate(-226.65 -157.627)"/><path d="M305.523,158.963v1.995h2.727v1.169h-2.727V164.2h3.066v1.239H304v-7.7h4.609v1.223Z" transform="translate(-247.063 -157.627)"/><path d="M336.292,164.276a2.135,2.135,0,0,1-.877.8,3.008,3.008,0,0,1-1.41.3,3.658,3.658,0,0,1-1.469-.277,2.481,2.481,0,0,1-1.032-.8,2.282,2.282,0,0,1-.444-1.223h1.64a1.285,1.285,0,0,0,.39.779,1.192,1.192,0,0,0,.861.312,1,1,0,0,0,.736-.257.9.9,0,0,0,.257-.662.853.853,0,0,0-.207-.6,1.492,1.492,0,0,0-.526-.39,8.91,8.91,0,0,0-.877-.331,8.369,8.369,0,0,1-1.169-.475,2.182,2.182,0,0,1-.779-.682,1.971,1.971,0,0,1-.323-1.169,1.913,1.913,0,0,1,.717-1.558,2.957,2.957,0,0,1,1.9-.573,3.007,3.007,0,0,1,1.948.588,2.224,2.224,0,0,1,.826,1.578h-1.664a1.168,1.168,0,0,0-.351-.686,1.08,1.08,0,0,0-.779-.269,1.036,1.036,0,0,0-.69.226.8.8,0,0,0-.261.651.827.827,0,0,0,.2.565,1.611,1.611,0,0,0,.518.366,8.583,8.583,0,0,0,.846.316,10.722,10.722,0,0,1,1.212.495,2.112,2.112,0,0,1,.779.69,2.022,2.022,0,0,1,.331,1.2A2.108,2.108,0,0,1,336.292,164.276Z" transform="translate(-263.58 -157.462)"/><path d="M365.8,164.264a2.135,2.135,0,0,1-.877.8,3.023,3.023,0,0,1-1.414.3,3.639,3.639,0,0,1-1.465-.277,2.459,2.459,0,0,1-1.032-.806,2.283,2.283,0,0,1-.444-1.223h1.64a1.266,1.266,0,0,0,.39.779,1.192,1.192,0,0,0,.861.312,1,1,0,0,0,.736-.257.9.9,0,0,0,.257-.662.873.873,0,0,0-.206-.6,1.492,1.492,0,0,0-.526-.39,8.915,8.915,0,0,0-.877-.331,8.19,8.19,0,0,1-1.169-.475,2.182,2.182,0,0,1-.779-.682,1.972,1.972,0,0,1-.323-1.169,1.9,1.9,0,0,1,.717-1.558,2.953,2.953,0,0,1,1.9-.573,3.019,3.019,0,0,1,1.948.588,2.24,2.24,0,0,1,.826,1.578H364.3a1.169,1.169,0,0,0-.351-.686,1.083,1.083,0,0,0-.779-.269,1.037,1.037,0,0,0-.69.226.807.807,0,0,0-.265.651.83.83,0,0,0,.2.565,1.635,1.635,0,0,0,.514.366c.21.094.491.2.849.316a10.641,10.641,0,0,1,1.208.495,2.1,2.1,0,0,1,.779.69,2.022,2.022,0,0,1,.327,1.2A2.1,2.1,0,0,1,365.8,164.264Z" transform="translate(-281.594 -157.45)"/><path d="M411.143,164.281h2.595v1.169H409.6v-7.71h1.558Z" transform="translate(-311.523 -157.627)"/><path d="M440.707,157.963a3.626,3.626,0,0,1,1.391,1.406,4.083,4.083,0,0,1,.51,2.041,4.128,4.128,0,0,1-.51,2.045,3.638,3.638,0,0,1-1.391,1.41,4.087,4.087,0,0,1-3.927,0,3.638,3.638,0,0,1-1.391-1.41,4.13,4.13,0,0,1-.51-2.045,4.083,4.083,0,0,1,.51-2.041,3.627,3.627,0,0,1,1.391-1.406A4.087,4.087,0,0,1,440.707,157.963Zm-3.156,1.223a2.131,2.131,0,0,0-.806.88,3.269,3.269,0,0,0,0,2.684,2.131,2.131,0,0,0,.806.88,2.489,2.489,0,0,0,2.384,0,2.132,2.132,0,0,0,.806-.88,3.269,3.269,0,0,0,0-2.684,2.131,2.131,0,0,0-.806-.88A2.489,2.489,0,0,0,437.552,159.186Z" transform="translate(-326.953 -157.456)"/><path d="M474.435,164.051h-3.1l-.549,1.558H469.16L472,157.97h1.769l2.836,7.64h-1.632Zm-.417-1.169-1.138-3.261-1.138,3.261Z" transform="translate(-347.879 -157.767)"/><path d="M509.812,165.465h-1.558L504.8,160.21v5.255H503.24V157.74H504.8l3.455,5.294V157.74h1.558Z" transform="translate(-368.682 -157.627)"/></g><g class="bi" transform="translate(282.959 87.979)"><path class="w" d="M738.679,225.83h50.716v.105a76.845,76.845,0,0,1-5.065,7.379H770.784a17.667,17.667,0,0,1,3.795,7.963h14.45c.171.035.261.105.261.21q-4.85,7.277-4.955,7.273h-9.385q-.316,3.748-3.584,9.015-4.324,5.326-8.275,6.907a32.77,32.77,0,0,1-14.13,3.53v.109q0,.526,3.319,4.375L777.321,302.9v1.422c0,.14-.086.214-.261.214H766.043q-29.737-34.642-29.737-34.8v-7.013l.1-.261a45.238,45.238,0,0,0,6.171.366q16.655,0,20.718-10.807a8.747,8.747,0,0,0,.631-3.269H733.778a.187.187,0,0,1-.21-.21q5-7.273,5.111-7.274h23.936v-.105q-2.057-4.165-7.963-6.487a24.934,24.934,0,0,0-7.589-1.387H733.669v-.261Q738.519,225.83,738.679,225.83Z" transform="translate(-733.566 -225.83)"/></g><path class="bj" d="M266.612,405.007a1.925,1.925,0,1,0-2.115,1.827,1.975,1.975,0,0,0,2.115-1.827Z" transform="translate(-163.222 -245.995)"/><path class="bk" d="M271.91,393.808a3.258,3.258,0,0,0-3.05,1.823" transform="translate(-166.942 -240.387)"/><path class="bk" d="M273.858,398.164a.39.39,0,1,1-.487-.308A.413.413,0,0,1,273.858,398.164Z" transform="translate(-169.521 -242.853)"/><path class="bl" d="M273.688,415.812a3.78,3.78,0,0,1-1.718-1.052" transform="translate(-168.841 -253.177)"/><path class="bm" d="M498.185,298.863c0-.444-.035.927-.8,1.41s.156,1.325.779.923" transform="translate(-306.262 -182.378)"/><path class="bn" d="M497.958,298.889v-.058h0c0,.027.035,0,.035,0h0v.382a2.278,2.278,0,0,1-.113.475,1.826,1.826,0,0,1-.23.452,1.623,1.623,0,0,1-.39.354c-.214.133-.234.32-.066.53a.7.7,0,0,0,.756.214.717.717,0,0,1-.962,0,.627.627,0,0,1,.054-1.056,1.6,1.6,0,0,0,.557-.615,4.332,4.332,0,0,0,.2-.39l.094-.214.047-.109h.035s0,.031,0,.043Z" transform="translate(-306.036 -182.404)"/><path class="d" d="M494.572,308.557s-.873-.125,0,.16c.054.019.047,2.384,2.147,1.948,1.629-.327.366-1.278.366-1.278A16.889,16.889,0,0,0,494.572,308.557Z" transform="translate(-304.484 -188.332)"/><g class="bo" transform="translate(189.7 120.198)"><path class="w" d="M496.472,308.97l.066.456s2.127.736,3.175-.534l-3.3-.222Z" transform="translate(-495.543 -308.615)"/></g><path class="bp" d="M492.908,295.045c-.058.292-.28.491-.495.448a.479.479,0,0,1-.284-.6c.058-.292.281-.491.495-.448A.479.479,0,0,1,492.908,295.045Z" transform="translate(-303.214 -179.728)"/><path class="bq" d="M492.541,291.113a2.32,2.32,0,0,0-2.521.23,2.626,2.626,0,0,1,2.462.043Z" transform="translate(-301.942 -177.531)"/><path class="bp" d="M507.787,297.019c-.02.3.14.545.358.561s.413-.21.432-.506-.136-.549-.358-.565S507.807,296.723,507.787,297.019Z" transform="translate(-312.787 -180.994)"/><path class="bq" d="M506.516,292.747a2.388,2.388,0,0,1,2.439.939,2.7,2.7,0,0,0-2.454-.651Z" transform="translate(-312.002 -178.67)"/><path class="br" d="M240.1,377.686c-4.32,1.134-3.565,8.263-3.358,9.311a36.923,36.923,0,0,1-.962,8.68,16.617,16.617,0,0,1-1.971,4.574c-.28.253,1.893.779,4.2,1.675.573-2.544,1.449-5.844,2.1-7.951l4.48,1.025c-9.79-2.24,1.441-14.777,3.9-17.745A20.422,20.422,0,0,0,240.1,377.686Z" transform="translate(-145.533 -230.124)"/><path class="v" d="M248.858,372.879c.627-1.632-.1-2.3-1.2-3.822s-2.618-1.262-3.845-1.909a7.629,7.629,0,0,0-5.684-1.064c-2.957.518-4.726,3.117-5.968,4.585a9.55,9.55,0,0,0-2.727,7.094c.062,3.779,1.691,7.176,3.074,7.344s4.64-.717,3.97-2.306c-2.653-6.3,1.769-6.233,3.066-5.61S247.268,376.689,248.858,372.879Z" transform="translate(-142.877 -223.372)"/></g></svg>