<svg xmlns="http://www.w3.org/2000/svg" xmlns:xlink="http://www.w3.org/1999/xlink" width="317.658" height="337.396" viewBox="0 0 317.658 337.396"><defs><style>.a{fill:url(#a);}.b{fill:url(#b);}.c{fill:#15d1c3;}.d{fill:url(#c);}.e{fill:#ff9f75;}.f{fill:#f5b789;}.g{fill:#383f82;}.h{fill:url(#d);}.i{fill:url(#e);}.j{fill:#079e9a;}.k{fill:url(#f);}.l{fill:url(#g);}</style><linearGradient id="a" x1="-1.598" y1="-8.59" x2="-1.583" y2="-8.59" gradientUnits="objectBoundingBox"><stop offset="0" stop-color="#c0fcff" stop-opacity="0.6"/><stop offset="1" stop-color="#c0ffde" stop-opacity="0.6"/></linearGradient><linearGradient id="b" x1="-2.233" y1="-9.723" x2="-2.255" y2="-9.714" gradientUnits="objectBoundingBox"><stop offset="0" stop-color="#76c1ff" stop-opacity="0.502"/><stop offset="1" stop-color="#68cdd5" stop-opacity="0.102"/></linearGradient><linearGradient id="c" y1="0.499" x2="0.996" y2="0.499" gradientUnits="objectBoundingBox"><stop offset="0.01" stop-color="#1b2246" stop-opacity="0"/><stop offset="0.38" stop-color="#1b2246" stop-opacity="0.102"/><stop offset="1" stop-color="#1b2246" stop-opacity="0.2"/></linearGradient><linearGradient id="d" x1="0.001" y1="0.498" x2="0.998" y2="0.498" xlink:href="#c"/><linearGradient id="e" x1="-0.005" y1="0.497" x2="0.991" y2="0.497" gradientUnits="objectBoundingBox"><stop offset="0" stop-color="#da946c" stop-opacity="0"/><stop offset="0.27" stop-color="#ce7c50" stop-opacity="0.18"/><stop offset="0.57" stop-color="#c36636" stop-opacity="0.361"/><stop offset="0.83" stop-color="#bc5826" stop-opacity="0.459"/><stop offset="1" stop-color="#ba5320" stop-opacity="0.502"/></linearGradient><linearGradient id="f" x1="0" y1="0.5" x2="1" y2="0.5" xlink:href="#c"/><linearGradient id="g" x1="0.003" y1="0.499" x2="0.998" y2="0.499" xlink:href="#e"/></defs><g transform="translate(0 0)"><circle class="a" cx="152.505" cy="152.505" r="152.505" transform="translate(0 32.387)"/><path class="b" d="M233.142,249.117c-113.078-12.694-97.065-103.883-97.065-103.883C140.294,61.446,79.292,27.447,39.237,14.17A153.806,153.806,0,0,0,6,48.932C76.107,72.3,56.192,149.72,56.192,149.72,42.736,197.848,41.614,234.18,45.247,261.093a152.5,152.5,0,0,0,187.895-12.2Z" transform="translate(20.913 49.391)"/><path class="c" d="M125.8,0H67.762A17.942,17.942,0,0,0,49.82,17.943V62.8A17.942,17.942,0,0,0,67.762,80.739H81.218v22.427l22.427-22.427h22.427A17.942,17.942,0,0,0,144.014,62.8V17.943A17.942,17.942,0,0,0,125.8,0Z" transform="translate(173.644 0)"/><path class="d" d="M130.029.58C111.639,44.448,75.4,64.811,51.22,73.827a17.538,17.538,0,0,0,11.662,4.485H76.338V100.74L98.766,78.313h22.427a17.942,17.942,0,0,0,17.942-17.942V15.92A17.942,17.942,0,0,0,130.029.58Z" transform="translate(178.524 2.024)"/><path class="e" d="M196.1,166.4,240.95,81.625H205.066l-22.427,40.369V86.111A26.913,26.913,0,0,0,155.726,59.2H128.814a13.456,13.456,0,0,1-13.456-13.456V27.8H80.281V45.742A13.456,13.456,0,0,1,66.825,59.2H39.913A26.913,26.913,0,0,0,13,86.111V166.4Z" transform="translate(45.311 96.897)"/><path class="f" d="M34.785,111.051H25.814V99.21a44.5,44.5,0,0,1-1.839-50.371L27.2,43.68l7.58,4.8-3.23,5.158A35.435,35.435,0,0,0,33.8,94.859a4.485,4.485,0,0,1,.987,2.826v13.367Z" transform="translate(59.409 152.246)"/><path class="f" d="M51.871,111.121H42.9V97.665a4.486,4.486,0,0,1,.987-2.826A35.435,35.435,0,0,0,46.13,53.618L42.9,48.459l7.536-4.8,3.274,5.158A44.5,44.5,0,0,1,51.826,99.19v11.931Z" transform="translate(149.525 152.176)"/><path class="g" d="M142.964,107.112V62.482A62.482,62.482,0,0,0,80.527,0h0A62.482,62.482,0,0,0,18,62.482v44.854a26.913,26.913,0,0,0,26.913,26.913h71.318a26.913,26.913,0,0,0,26.733-27.137Z" transform="translate(62.738 0.002)"/><path class="h" d="M45.878,0A63.192,63.192,0,0,0,27.941,2.6,62.8,62.8,0,0,1,72.567,62.482v44.854a26.913,26.913,0,0,1-26.913,26.913H81.538a26.913,26.913,0,0,0,26.913-26.913V62.482A62.482,62.482,0,0,0,45.878,0Z" transform="translate(97.386 0.002)"/><path class="e" d="M96.139,60.713H55.77A26.913,26.913,0,0,1,82.683,33.8h40.369A26.913,26.913,0,0,1,96.139,60.713Z" transform="translate(194.382 117.81)"/><rect class="g" width="31.219" height="8.926" transform="translate(241.406 17.854)"/><rect class="g" width="17.852" height="8.926" transform="translate(281.595 17.854)"/><rect class="g" width="57.997" height="8.926" transform="translate(241.406 35.706)"/><rect class="g" width="31.219" height="8.926" transform="translate(241.406 53.558)"/><path class="i" d="M63.525,45.832V27.89H28V45.832a39.786,39.786,0,0,0,35.883,0Z" transform="translate(97.592 97.211)"/><path class="e" d="M23.157,44.354v19.2a40.369,40.369,0,1,0,80.334,0V27.668a40.369,40.369,0,0,0-4.8-19.018Z" transform="translate(80.008 30.151)"/><rect class="j" width="62.482" height="49.071" transform="translate(112.001 182.963)"/><path class="c" d="M205.021,57.227,182.594,97.6V61.713A26.913,26.913,0,0,0,155.682,34.8H141.687L97.954,92.931,56.419,34.89H39.913A26.913,26.913,0,0,0,13,61.8V142H196.1L240.95,57.227Z" transform="translate(45.311 121.295)"/><path class="k" d="M188.444,56.983H152.56L130.133,97.352V61.469a26.913,26.913,0,0,0-23.818-26.6C98.556,97.173,61.147,127.315,28,141.758H143.814Z" transform="translate(97.592 121.539)"/><path class="j" d="M34.785,111.051H25.814V99.21a44.5,44.5,0,0,1-1.839-50.371L27.2,43.68l7.58,4.8-3.23,5.158A35.435,35.435,0,0,0,33.8,94.859a4.485,4.485,0,0,1,.987,2.826v13.367Z" transform="translate(59.409 152.246)"/><path class="j" d="M51.871,111.121H42.9V97.665a4.486,4.486,0,0,1,.987-2.826A35.435,35.435,0,0,0,46.13,53.618L42.9,48.459l7.536-4.8,3.274,5.158A44.5,44.5,0,0,1,51.826,99.19v11.931Z" transform="translate(149.525 152.176)"/><path class="l" d="M72.189,63.552V27.668A40.369,40.369,0,0,0,67.39,8.65L56.042,14.122a62.8,62.8,0,0,1,2.781,18.211V77.187A26.913,26.913,0,0,1,31.91,104.1,40.369,40.369,0,0,0,72.279,63.731Z" transform="translate(111.22 30.151)"/></g></svg>