<svg xmlns="http://www.w3.org/2000/svg" xmlns:xlink="http://www.w3.org/1999/xlink" width="373.352" height="318.315" viewBox="0 0 373.352 318.315"><defs><style>.a{fill:#77c88a;}.b,.l,.z{fill:none;}.c{fill:#ba5320;}.d{fill-rule:evenodd;fill:url(#a);}.e{opacity:0.7;}.f{fill:url(#b);}.g{fill:#b2c1d4;opacity:0.12;}.h{fill:url(#c);}.i{fill:#43c59e;}.j{clip-path:url(#d);}.k{fill:url(#e);}.l{stroke:#27735b;stroke-width:0.65px;}.am,.l,.z{stroke-miterlimit:10;}.m{fill:#4fbd9a;}.n{clip-path:url(#f);}.o{fill:url(#g);}.p{clip-path:url(#h);}.q{fill:url(#i);}.r{fill:#de6300;}.s{fill:url(#j);}.t{fill:url(#k);}.u{opacity:0.25;fill:url(#l);}.v{fill:#a4a4a5;}.am,.w{fill:#221f1f;}.w{opacity:0.39;}.x{fill:#febf24;}.y{fill:#2a2d36;}.z{stroke:#2a2d36;}.aa,.av{fill:#fff;}.aa,.al{opacity:0.2;}.ab{clip-path:url(#m);}.ac{opacity:0.1;fill:url(#n);}.ad{fill:#e0e5e9;}.ae{clip-path:url(#o);}.af{fill:url(#p);}.ag{fill:url(#r);}.ah{fill:#c8ccce;}.ai{fill:url(#s);}.aj{fill:#e29805;}.ak{clip-path:url(#t);}.al{fill:url(#u);}.am{stroke:#221f1f;opacity:0.17;}.an{opacity:0.05;}.ao{fill:#1a2146;}.ap{fill:#ba5427;}.aq{clip-path:url(#w);}.ar{fill:#b8c2c9;}.as{fill:#e0e5f1;}.at{fill:#f7b389;}.au{fill:#ec8c5c;}.aw{fill:#3b5ba3;}.ax{fill:#304d87;}.ay{fill:#6b8dc4;}.az{fill:#d3dde3;}.ba{fill:#8eafd4;}.bb{fill:#4e7bb1;}.bc{clip-path:url(#x);}.bd{fill:#4a4746;}</style><linearGradient id="a" x1="0.989" y1="0.306" x2="-0.011" y2="0.306" gradientUnits="objectBoundingBox"><stop offset="0" stop-color="#fff" stop-opacity="0.102"/><stop offset="0.35" stop-color="#999fbb" stop-opacity="0.2"/><stop offset="0.99" stop-color="#38447a" stop-opacity="0.302"/></linearGradient><linearGradient id="b" x1="-0.036" y1="2.284" x2="-0.036" y2="1.337" gradientUnits="objectBoundingBox"><stop offset="0" stop-color="#c8efff"/><stop offset="0.14" stop-color="#c8efff" stop-opacity="0.898"/><stop offset="1" stop-color="#c8efff" stop-opacity="0.302"/></linearGradient><linearGradient id="c" x1="-24.016" y1="-4.297" x2="-24.934" y2="-3.501" gradientUnits="objectBoundingBox"><stop offset="0.32" stop-color="#43c59e" stop-opacity="0"/><stop offset="0.44" stop-color="#3dad8b" stop-opacity="0.29"/><stop offset="0.6" stop-color="#369478" stop-opacity="0.6"/><stop offset="0.75" stop-color="#32826a" stop-opacity="0.82"/><stop offset="0.88" stop-color="#2f7761" stop-opacity="0.949"/><stop offset="0.99" stop-color="#2e735e"/></linearGradient><clipPath id="d"><path class="a" d="M79.186,281.665c5.656,2.371,15.391,8.522,17.939,11.667s4.667,10.65,5.974,12.414,5.32,6.244,5.9,8.951a32.614,32.614,0,0,1,.289,7.047l-.756-.261a19.909,19.909,0,0,0-.663-7.066,11.611,11.611,0,0,0-6.114-6.851c-2.4-1.045-8.559-1.811-12.04-4.144s-21.467-19.414-21.467-19.414-3.127-2.072-3.257-3.733S73.53,279.295,79.186,281.665Z" transform="translate(-64.988 -279.359)"/></clipPath><linearGradient id="e" x1="81.731" y1="5.382" x2="82.327" y2="4.15" xlink:href="#c"/><clipPath id="f"><path class="b" d="M134.321,211.72s-21.206,14.364-20.991,47.5,0,61.863,0,61.863h3.733s-2.875-34.46-1.764-42.421,3.808-7.8,8.5-10.6-.775-8.4,2.315-11.928,4.863-1.549,3.313-10.388,6.534-8.4,6.926-15.867S133.22,219.672,134.321,211.72Z" transform="translate(-113.328 -211.72)"/></clipPath><linearGradient id="g" x1="133.983" y1="0.429" x2="133.231" y2="0.538" gradientUnits="objectBoundingBox"><stop offset="0.32" stop-color="#4fbd9a" stop-opacity="0"/><stop offset="0.39" stop-color="#4cb795" stop-opacity="0.18"/><stop offset="0.53" stop-color="#46ad8e" stop-opacity="0.471"/><stop offset="0.66" stop-color="#42a588" stop-opacity="0.698"/><stop offset="0.79" stop-color="#3fa083" stop-opacity="0.871"/><stop offset="0.9" stop-color="#3e9c81" stop-opacity="0.969"/><stop offset="0.99" stop-color="#3d9b80"/></linearGradient><clipPath id="h"><path class="a" d="M74.91,226.05s-.495,16.325,6.982,22.046,4.135,8.232,4.265,11.564a11.9,11.9,0,0,0,5.442,9.334c3.351,2-1.521,7.9,8.848,15.354s6.991,28.934,5.983,38.763l2.109.215s2.212-27.357-1.652-44c-3.948-17-8.606-29.317-19.6-39.453S74.91,226.05,74.91,226.05Z" transform="translate(-74.903 -226.05)"/></clipPath><linearGradient id="i" x1="0.81" y1="0.409" x2="0.426" y2="0.526" xlink:href="#g"/><linearGradient id="j" x1="1.099" y1="0.589" x2="-0.296" y2="0.283" gradientUnits="objectBoundingBox"><stop offset="0.01" stop-color="#dd6c91" stop-opacity="0"/><stop offset="0.99" stop-color="#fadfe7"/></linearGradient><linearGradient id="k" x1="1.319" y1="0.653" x2="0.325" y2="0.467" xlink:href="#j"/><linearGradient id="l" y1="3.256" x2="1" y2="3.256" gradientUnits="objectBoundingBox"><stop offset="0" stop-color="#b6d4f7"/><stop offset="1" stop-color="#b6d4f7" stop-opacity="0"/></linearGradient><clipPath id="m"><path class="b" d="M258.07,134.686l69.218-22.111a2.5,2.5,0,0,1,3.463,1.727l2.4,7.98-36.242,12.3Z" transform="translate(-258.07 -112.355)"/></clipPath><linearGradient id="n" x1="0.502" y1="19.771" x2="0.494" y2="18.807" gradientUnits="objectBoundingBox"><stop offset="0.01"/><stop offset="1"/></linearGradient><clipPath id="o"><path class="b" d="M245.5,138.34v79.952s.579,5.1,6.636,5.1H378.262s2.119-.289,2.119-3.08V144.2s-.579-1.344-3.173-1.344H253.191S245.5,142.279,245.5,138.34Z" transform="translate(-245.5 -138.34)"/></clipPath><linearGradient id="p" x1="1.059" y1="2.859" x2="0.222" y2="3.687" gradientUnits="objectBoundingBox"><stop offset="0" stop-color="#231f20" stop-opacity="0.898"/><stop offset="1" stop-color="#231f20" stop-opacity="0"/></linearGradient><linearGradient id="r" x1="-0.218" y1="18.418" x2="0.366" y2="18.051" gradientUnits="objectBoundingBox"><stop offset="0" stop-color="#231f20" stop-opacity="0.898"/><stop offset="1" stop-color="#fff" stop-opacity="0"/></linearGradient><linearGradient id="s" x1="1.58" y1="16.903" x2="-0.09" y2="18.547" xlink:href="#r"/><clipPath id="t"><path class="b" d="M299.68,134.785l58.643-20s2.109-2.109,2.688,0,5.6,20,5.6,20Z" transform="translate(-299.68 -113.846)"/></clipPath><linearGradient id="u" x1="0.989" y1="66.707" x2="0.021" y2="67.453" gradientUnits="objectBoundingBox"><stop offset="0.01" stop-opacity="0"/><stop offset="1"/></linearGradient><clipPath id="w"><path d="M214.14,89.135c.523.345.691-.252,1.437.392,0,0,1.867,3.08,3.248,1.736A4.181,4.181,0,0,0,220.3,87.53,18.667,18.667,0,0,1,214.14,89.135Z" transform="translate(-214.14 -87.53)"/></clipPath><clipPath id="x"><path class="c" d="M209.4,89.135c.513.345.691-.252,1.437.392.047,0,1.82,3.08,3.248,1.736a4.181,4.181,0,0,0,1.475-3.733,18.751,18.751,0,0,1-6.16,1.605Z" transform="translate(-209.4 -87.53)"/></clipPath></defs><g transform="translate(0 0)"><path class="d" d="M143.36,340.494l-28.337-.056c-3.453,0-6.272-1.307-6.263-2.893h0c0-1.6,2.8-2.884,6.272-2.884l28.337.056c3.453,0,6.272,1.316,6.263,2.9h0C149.632,339.206,146.8,340.5,143.36,340.494Z" transform="translate(-7.253 -22.319)"/><g class="e"><path class="f" d="M354.222,134.023c8.335,26.984,7.346,57.738-5.124,80.885a77.178,77.178,0,0,1-5.124,8.232h0a84.329,84.329,0,0,1-38.539,29.914l-2.287.868c-23.185,8.4-46.174,5.852-69.4,4.965-11.844-.457-23.679-.4-35.58,1.708-16.745,3-32.276,12.47-47.023,20.347-1.269.653-2.52,1.381-3.855,2.053a238.612,238.612,0,0,1-21.906,10.267,134.947,134.947,0,0,1-23.8,7.271,89.558,89.558,0,0,1-31.193,0,74.912,74.912,0,0,1-26.657-10.519A91.768,91.768,0,0,1,20.114,267.56,100.44,100.44,0,0,1,7.981,246.092a106.609,106.609,0,0,1-6.244-20.217,85.617,85.617,0,0,1-.607-30.95,68.91,68.91,0,0,1,14.3-31.24A113.058,113.058,0,0,1,30.512,148.08c.933-.775,1.867-1.624,2.8-2.333,10.556-8.54,22.69-16.222,32.322-25.966a63.973,63.973,0,0,0,9.875-12.731c12.731-21.981,13.907-48.246,25.1-70.842a3.734,3.734,0,0,1,.383-.691h0a61.237,61.237,0,0,1,7.28-10.976h0a69.069,69.069,0,0,1,22.4-16.978,78.011,78.011,0,0,1,48.656-6.048c13.244,2.8,24.641,9.576,35.309,17.855,16.39,12.74,31.24,28.981,48.9,39.836,21.467,13.179,49.944,15.867,67.436,34C341.537,104.071,349.452,118.455,354.222,134.023Z" transform="translate(-0.006 -0.02)"/><path class="g" d="M50.047,264.646a63.124,63.124,0,0,1-29.233,13.412A100.382,100.382,0,0,1,8.68,256.591a41.292,41.292,0,0,0,27.226-9.268,41.591,41.591,0,0,0,5.6-58.485,41.805,41.805,0,0,0-25.434-14.728A113.6,113.6,0,0,1,31.155,158.5c.933-.775,1.867-1.624,2.8-2.333a63.469,63.469,0,0,1,24.771,18.565C81.221,202.157,77.292,242.413,50.047,264.646Z" transform="translate(-0.584 -10.425)"/><path class="g" d="M192.587,217.287a186.432,186.432,0,0,1,45.866,44.2c-11.844-.457-23.679-.4-35.58,1.717-16.745,2.987-32.276,12.47-47.023,20.338-1.269.653-2.52,1.381-3.845,2.053a239.917,239.917,0,0,1-21.915,10.267c4.284-78.244-53.939-105.218-59.679-173.531a63.627,63.627,0,0,0,9.884-12.7c12.731-21.981,13.9-48.292,25.089-70.842a4.332,4.332,0,0,1,.383-.691C88.788,102.026,119.309,168.015,192.587,217.287Z" transform="translate(-4.698 -2.557)"/><path class="g" d="M351.709,223.679a84.33,84.33,0,0,1-38.539,29.914c-11.256-10.08-31.146-23.633-65.606-37.008-91.115-35.421-132.258-101.41-131.455-191.526h0A68.322,68.322,0,0,1,138.407,8.1c-.541,37.1,7.374,96.79,55.955,137.811C261.173,202.426,322.625,191.823,351.709,223.679Z" transform="translate(-7.742 -0.558)"/></g><path class="a" d="M119.755,322.59s-3.631-19.657-.831-23.847,5.6-4.872,6.347-8.755.625-11.434,3.733-14.075,6.842-.635,12.647-6.534,9.819-4.2,10.874-1.185-5.367,4.527-6.17,7.784-.131,10.426-2.8,13.636-8.055,5.526-8.3,10.6,1.045,8.979-3.388,13.375-7.467,3.892-7.654,9.278Z" transform="translate(-7.86 -17.706)"/><path class="h" d="M119.755,322.59s-3.631-19.657-.831-23.847,5.6-4.872,6.347-8.755.625-11.434,3.733-14.075,6.842-.635,12.647-6.534,9.819-4.2,10.874-1.185-5.367,4.527-6.17,7.784-.131,10.426-2.8,13.636-8.055,5.526-8.3,10.6,1.045,8.979-3.388,13.375-7.467,3.892-7.654,9.278Z" transform="translate(-7.86 -17.706)"/><path class="i" d="M79.186,281.665c5.656,2.371,15.391,8.522,17.939,11.667s4.667,10.65,5.974,12.414,5.32,6.244,5.9,8.951a32.614,32.614,0,0,1,.289,7.047l-.756-.261a19.909,19.909,0,0,0-.663-7.066,11.611,11.611,0,0,0-6.114-6.851c-2.4-1.045-8.559-1.811-12.04-4.144s-21.467-19.414-21.467-19.414-3.127-2.072-3.257-3.733S73.53,279.295,79.186,281.665Z" transform="translate(-4.336 -18.634)"/><path class="a" d="M79.186,281.665c5.656,2.371,15.391,8.522,17.939,11.667s4.667,10.65,5.974,12.414,5.32,6.244,5.9,8.951a32.614,32.614,0,0,1,.289,7.047l-.756-.261a19.909,19.909,0,0,0-.663-7.066,11.611,11.611,0,0,0-6.114-6.851c-2.4-1.045-8.559-1.811-12.04-4.144s-21.467-19.414-21.467-19.414-3.127-2.072-3.257-3.733S73.53,279.295,79.186,281.665Z" transform="translate(-4.336 -18.634)"/><g class="j" transform="translate(60.652 260.726)"><path class="k" d="M65.491,281s10.052,2.072,13.935,6.291,7.467,13.935,7.467,13.935l-8.867-1.559L62,284.142S62.821,280.483,65.491,281Z" transform="translate(-64.789 -279.465)"/></g><path class="l" d="M123.43,317.242s2.249-26.788,21.467-44.8" transform="translate(-8.231 -18.173)"/><path class="m" d="M74.91,226.05s-.495,16.325,6.982,22.046,4.135,8.232,4.265,11.564a11.9,11.9,0,0,0,5.442,9.334c3.351,2-1.521,7.9,8.848,15.354s6.991,28.934,5.983,38.763l2.109.215s2.212-27.357-1.652-44c-3.948-17-8.606-29.317-19.6-39.453S74.91,226.05,74.91,226.05Z" transform="translate(-4.997 -15.081)"/><path class="a" d="M134.321,211.72s-21.206,14.364-20.991,47.5,0,61.863,0,61.863h3.733s-2.875-34.46-1.764-42.421,3.808-7.8,8.5-10.6-.775-8.4,2.315-11.928,4.863-1.549,3.313-10.388,6.534-8.4,6.926-15.867S133.22,219.672,134.321,211.72Z" transform="translate(-7.558 -14.126)"/><g class="n" transform="translate(105.771 197.594)"><path class="o" d="M134.058,211.42a22.559,22.559,0,0,0-5.358,14.691c0,9.1-2.231,8.13-6.2,12.778s-2.231,5.329-2.52,12.5-6.291,12.386-6.534,20.235S109.38,269,109.38,269l6.832-54.518,11.807-7.262Z" transform="translate(-113.065 -211.42)"/></g><path class="a" d="M74.91,226.05s-.495,16.325,6.982,22.046,4.135,8.232,4.265,11.564a11.9,11.9,0,0,0,5.442,9.334c3.351,2-1.521,7.9,8.848,15.354s6.991,28.934,5.983,38.763l2.109.215s2.212-27.357-1.652-44c-3.948-17-8.606-29.317-19.6-39.453S74.91,226.05,74.91,226.05Z" transform="translate(-4.997 -15.081)"/><g class="p" transform="translate(69.906 210.969)"><path class="q" d="M74.9,225.862s1.867,9.52,6.459,14.645,9.268,5.115,10.071,10.874-.383,7.7,4.667,12.059c3,2.595,2.725,4.256,3.528,9.334s8.83,12,9.7,19.013c.42,3.379,1.783-6.225-.261-23.007-1.465-12-8.316-32.668-8.316-32.668l-24.51-12.88L74.8,225.311" transform="translate(-74.896 -225.862)"/></g><path class="r" d="M142.045,315.809c-.98,11.788-11.294,21.355-24.594,23.232h-.056a34.236,34.236,0,0,1-4.732.327c-15.55,0-28.29-10.4-29.382-23.567Z" transform="translate(-5.555 -21.062)"/><path class="s" d="M117.394,339.051a34.226,34.226,0,0,1-4.732.327c-15.55,0-28.29-10.4-29.382-23.567h20.478S103.151,333.115,117.394,339.051Z" transform="translate(-5.555 -21.063)"/><path class="t" d="M144.484,315.81c-.98,11.788-11.294,21.355-24.594,23.231,1.167-.224,19.442-3.407,21.663-23.231Z" transform="translate(-7.995 -21.063)"/><path class="u" d="M357.013,240.844c-1.717.252-3.435.383-5.218.5-41.647,2.548-77.469-29.41-80.036-71.244A75.827,75.827,0,0,1,318.493,95.23c4.9,16.614,7,34.824,13.693,50.8,8.083,19.358,26.041,35.15,29.028,55.909C363.061,214.421,361.409,227.982,357.013,240.844Z" transform="translate(-18.105 -6.364)"/><path class="v" d="M245.494,137.75s-1.727-5.2,10.267-5.2,112.386-3.071,112.386-3.071,1.633,0,1.633,1.344v5.283h1.867v2.7h1.82v3.463H253.185a16.015,16.015,0,0,1-5.283-1.353A3.659,3.659,0,0,1,245.494,137.75Z" transform="translate(-16.359 -8.646)"/><path class="w" d="M373.45,144.378l-119.881-1.633s-5.087,0-7.467-2.688a2.651,2.651,0,0,1-.672-1.867s-.579,3.948,8.27,4.135c5.1.093,119.685-.933,119.685-.933v2.977Z" transform="translate(-16.36 -9.227)"/><path class="x" d="M299.68,134.785l58.643-20s2.109-2.109,2.688,0,5.6,20,5.6,20Z" transform="translate(-19.975 -7.604)"/><path class="y" d="M258.07,134.646l70.936-22.69a2.5,2.5,0,0,1,3.463,1.727l2.5,7.887-37.876,13.067Z" transform="translate(-17.202 -7.465)"/><path class="z" d="M371.883,139.264H252.776s-2.016.093-2.016-1.447,2.016-1.437,2.016-1.437l119.107.289" transform="translate(-16.715 -9.106)"/><path class="aa" d="M308.54,124.25,332,115.98l.961,2.408-23.651,8.074Z" transform="translate(-20.566 -7.747)"/><g class="ab" transform="translate(240.867 104.85)"><path class="ac" d="M345.624,118.77s-33.452,10-41.815,10.762-30.185.672-30.185.672l-17.3,5.6,48.74,4.228,43.364-13.963Z" transform="translate(-257.953 -112.783)"/></g><path class="ad" d="M380.38,144.2v76.135c0,2.8-2.119,3.08-2.119,3.08h-126a7.065,7.065,0,0,1-3.463-.775,5.806,5.806,0,0,1-3.164-4.321V138.34c0,4.032,7.691,4.517,7.691,4.517H377.216C379.811,142.858,380.38,144.2,380.38,144.2Z" transform="translate(-16.374 -9.237)"/><g class="ae" transform="translate(229.135 129.103)"><path class="af" d="M261.623,92.19s10.416,81.52,37.969,104.359,84.451,14.934,84.451,14.934v20.189l-153.473-4.6V98.341Z" transform="translate(-244.505 -135.265)"/></g><g class="ae" transform="translate(229.135 129.103)"><path class="ag" d="M366.207,173.46h27.506a2.175,2.175,0,0,1,2.119,2.4v17.883a3.92,3.92,0,0,1-3.733,2.8H366.245s-4.527-.485-4.527-2.8V177.781C361.681,177.7,361.2,173.46,366.207,173.46Z" transform="translate(-253.242 -140.68)"/></g><path class="ah" d="M367.957,172h27.488a2.175,2.175,0,0,1,2.119,2.4v17.883a3.92,3.92,0,0,1-3.733,2.8H367.975s-4.517-.485-4.517-2.8V176.322C363.439,176.247,362.861,172,367.957,172Z" transform="translate(-24.223 -11.48)"/><path class="ai" d="M367.957,172h27.488a2.175,2.175,0,0,1,2.119,2.4v17.883a3.92,3.92,0,0,1-3.733,2.8H367.975s-4.517-.485-4.517-2.8V176.322C363.439,176.247,362.861,172,367.957,172Z" transform="translate(-24.223 -11.48)"/><path class="aj" d="M352.31,123.246,362.6,119.69l.868,2.408-10.192,3.649Z" transform="translate(-23.482 -7.994)"/><path class="aj" d="M354.17,127.576l9.894-3.556.485,1.148-9.9,3.659Z" transform="translate(-23.606 -8.282)"/><path class="b" d="M367.957,172h27.488a2.175,2.175,0,0,1,2.119,2.4v17.883a3.92,3.92,0,0,1-3.733,2.8H367.975s-4.517-.485-4.517-2.8V176.322C363.439,176.247,362.861,172,367.957,172Z" transform="translate(-24.223 -11.48)"/><g class="ak" transform="translate(279.705 106.241)"><path class="al" d="M303.206,131.43s20.478,1.736,26.339,1.736,37.969.672,37.969.672l1.633,3.649H296.28Z" transform="translate(-299.453 -115.017)"/></g><g class="ae" transform="translate(229.135 129.103)"><path class="am" d="M359.733,247.238v9.128l-18.667,1.447v-9.138Zm-18.667-.093v-9.138l18.667-1.437V245.7Zm18.667,10.762v9.138l-18.667,1.437v-9.11Zm0,10.668v9.138l-18.667,1.54v-9.138Zm0,10.771v9.128l-18.667,1.447V280.84Zm0,10.668v9.138l-18.667,1.437v-9.128Zm0,10.678v9.128l-18.667,1.437V302.13Zm0,10.668v9.128l-18.667,1.447V312.8Zm-.065,10.7v9.231L341,332.725V323.5Zm0,10.668v9.138L341,343.3v-9.128ZM341,354.071v-9.138l18.667-1.437v9.128Z" transform="translate(-251.864 -144.886)"/></g><g class="an" transform="translate(156.422 49.932)"><path d="M202,171.408a101.735,101.735,0,0,1,15.662-20.534A101.477,101.477,0,0,0,202,171.408h0m15.671-20.534v0m.112-.112h0m.112-.112h0" transform="translate(-169.888 -59.989)"/><path d="M197.837,332.012l2.081-12.927L194.1,317.33l-.924,13.692,4.657.989Z" transform="translate(-169.301 -71.096)"/><path d="M191.864,330.464a2,2,0,0,0-1.045.448c-2.063,1.708-8.316,4.76-11.527,5.217-3.435.5-3.612,2.2,1.232,2.2s8.4-.429,10.547-.373a62.314,62.314,0,0,0,6.9.373c4.079,0,2.8-5.19,1.344-7.607a1.811,1.811,0,0,0-1.923-1.027Z" transform="translate(-168.209 -71.918)"/><path d="M217.277,319.417l-8.12-10.276-5.227,3.1,9.464,9.94,3.883-2.763Z" transform="translate(-170.017 -70.55)"/><path d="M212.382,321.9A2.081,2.081,0,0,0,212,322.97c-.131,2.669-2.2,9.492-4.6,11.686s-.877,2.8,3.108.933c4.377-2.072,5.358-6.478,6.851-8.027a60.311,60.311,0,0,0,4.947-4.835c2.8-3-1.932-5.6-4.667-6.132a1.867,1.867,0,0,0-2.063.728l-3.164,4.583Z" transform="translate(-170.172 -71.042)"/><path d="M221.714,86.61s1.587,10.584-1.484,15.457-3.509,5.6-3.509,5.6" transform="translate(-170.869 -55.721)"/><path d="M213.517,112.03a5.6,5.6,0,0,0,2.8.765,5.488,5.488,0,0,0,4.723-2.679c.056-.084.607-1,3.444-5.488,2-3.164,2.632-7.467,2.725-11.266a47.253,47.253,0,0,0-.448-7.952,5.516,5.516,0,0,0-10.9,1.633,36.712,36.712,0,0,1,.364,5.162,23.1,23.1,0,0,1-.42,4.769,5.7,5.7,0,0,1-.625,1.773c-3.136,4.975-3.584,5.74-3.584,5.74a5.5,5.5,0,0,0,1.913,7.542Z" transform="translate(-170.476 -55.343)"/><path d="M232.691,173.793c-1.157-15.793,4.163-55.022,6.888-70.637a3.883,3.883,0,0,0-3.817-4.536H203.3a3.874,3.874,0,0,0-3.733,2.865c-3.733,14.168-6.076,72.308-6.076,72.308Z" transform="translate(-169.321 -56.522)"/><path d="M177.992,140.915c.551-2.949,4.163-10.556,8.232-18.5,4.312-8.4,9.138-17.258,11.359-21.262a4.667,4.667,0,0,1,8.158,4.508c-3.435,6.179-6.972,12.778-10.024,18.667-3.491,6.72-6.888,10.874-8.26,14.178,2.529,2.212,8.764,2.352,13.748,2.053,1.363-.159,6.646-.532,10.164,2.7a8.839,8.839,0,0,1,2.8,7.215c-.112,2.5-.476,3.528-2.707,4.611a5.917,5.917,0,0,1-3.117.439c-2.557-.308-2.8-1.7-2.8-4.667a11.488,11.488,0,0,0-1.092-4.265,137.663,137.663,0,0,1-13.832,2.632c-6.3.765-8.839-.439-11.144-3.043a6.17,6.17,0,0,1-1.5-5.236Z" transform="translate(-168.281 -56.544)"/><path d="M230.971,204.669s4.77-8.755,1.7-25.509h-39.2s-.551,12.759.345,25.509Z" transform="translate(-169.309 -61.889)"/><path d="M186.86,122.417l4.564.933,4.928,1c3.052-5.89,6.59-12.488,10.024-18.667a4.667,4.667,0,0,0-8.158-4.508c-2.221,4-7.047,12.824-11.359,21.262Z" transform="translate(-168.88 -56.545)"/><path d="M234.138,102.278a4.667,4.667,0,0,1,5.6-3.4c11.247,2.8,19.05,5.311,24.492,7.588,12.5,5.264,12.386,9.166,12.348,11.2-.065,2.277-.5,6.674-27.478,16.5a17.735,17.735,0,0,0,1.391,4.853c1.223,2.268-.047,4.433-1.391,6.627a3.463,3.463,0,0,1-2.8,1.652c-1.652,0-3.733-2.091-3.995-3.836-1.017-6.291-.84-9.987-.532-10.724h0l.093-.177a5.653,5.653,0,0,1,.336-.616l.28-.327.3-.364a5.7,5.7,0,0,1,.588-.476l.093-.084a4.592,4.592,0,0,1,1.027-.513c9.128-3.733,17.65-9.828,21.4-12.526a48.267,48.267,0,0,0-5.469-2.539,184.7,184.7,0,0,0-22.914-7.14,4.667,4.667,0,0,1-3.416-5.6Z" transform="translate(-172.018 -56.531)"/><path d="M186.077,120.369l6.244,1.195,4.909.933h0l4.144.793c5.348-10.482,6.627-12.88,6.823-16.474.224-4.051-.868-6.058-3.5-7.467a5.451,5.451,0,0,0-7.467,2.119,176.854,176.854,0,0,0-11.2,18.938Z" transform="translate(-168.824 -56.523)"/><path d="M167.777,257.144c.579,3.855,2.669,7.98,5.6,13.067,4.891,8.494,12.376,17.893,19.087,25.8,4.667,5.5,8.97,10.267,11.723,13.515,1.2,1.381,2.109,2.492,2.651,3.257l5.535-7.178c-2.063-2.893-3.976-6.8-6.375-10.454l-.187-.28c-4.517-6.814-9.334-14.5-13.188-21.467a6.711,6.711,0,0,1-.4-.7c-4.1-7.392-7.14-13.935-7.719-17.734-1.027-6.842,9.184-28.132,19.283-46.911,1.148-2.156,2.305-4.275,3.444-6.328a5.3,5.3,0,0,0,.653-2.277c.3-3.463-2.24-7.467-5.329-9.138-3.789-2.081-8.68-3.164-10.771.625-4.275,7.747-26.517,49.468-23.987,66.269Z" transform="translate(-167.596 -62.506)"/><path d="M194.219,302.086c4.667,5.5,8.97,10.267,11.723,13.515.439-3.836.933-8,1.372-12.208.093-.812.177-1.615.252-2.445-4.518-6.814-9.334-14.5-13.188-21.467-.168,6.907-.187,14.934-.159,22.615Z" transform="translate(-169.369 -68.573)"/><path d="M195.006,259.571c1.923-15.68,15.083-57.813,17.127-62.451,1.727-3.967,11.2-4.807,15.214-3.061a7.831,7.831,0,0,1,4.023,10.323c-5.283,12.04-20.319,44.223-21.822,55.619-.868,6.8-2.044,20.534-4.191,32.173-1.512,8.148-3.024,16.082-4.144,21.85-.933,5-.933,4.088-1.064,4.592l-9.4-1.465s2-39.117,4.256-57.607Z" transform="translate(-169.139 -62.824)"/><path d="M237.53,107.908a184.689,184.689,0,0,1,22.914,7.14l3.8-8.587a168.892,168.892,0,0,0-24.492-7.588,4.667,4.667,0,1,0-2.221,9.035Z" transform="translate(-171.995 -56.523)"/><path d="M239.684,98.742a4.956,4.956,0,0,0-5.936,3.883c-.8,2.9,1.213,5.18,3.808,6.711,3.2,1.867,4.275,2.231,17.734,6.86l7.467-10.37C245.564,99.171,244.677,99.46,239.684,98.742Z" transform="translate(-171.992 -56.522)"/><path d="M216.17,96.973h.747a17.456,17.456,0,0,0,10.661-3.632,47.258,47.258,0,0,0-.45-7.951,5.516,5.516,0,0,0-10.9,1.633,36.707,36.707,0,0,1,.364,5.161,23.1,23.1,0,0,1-.42,4.77Z" transform="translate(-170.833 -55.342)"/><path d="M199.44,75.8c2.193,10.127,7.831,17.5,17.5,17.5s15.774-7.308,17.5-17.5c1.624-9.53-7.878-18.873-17.547-18.873S197.387,66.357,199.44,75.8Z" transform="translate(-169.7 -53.744)"/><path d="M197.993,317.7v-.271c2.651-16.4,6.655-41.171,8.69-56.749,1.475-11.34,15.512-45.072,20.8-57.113l.093-.271.047-.14c.849-2.324,3.463-10.939.933-24.464l-.765.14c2.445,13.328-.1,21.785-.933,24.053l-.065.2v.168c-5.3,12.068-19.377,45.894-20.861,57.327-2.035,15.568-6.039,40.331-8.68,56.721l-.047.28.765.121Z" transform="translate(-169.569 -61.857)"/><path d="M211.54,98.62c0,2.352.933,6.328,7.14,6.328,4.517,0,10.192-1.913,12.283-5.544l.448-.784Z" transform="translate(-170.524 -56.522)"/><path d="M229.72,98.62c-1.661,2.884-6.627,4.77-10.93,4.77s-5.6-2.137-5.6-4.77Z" transform="translate(-170.634 -56.522)"/><path d="M205.437,150.426c0-.056-.233-2.7,2.492-6.534l-2.548-1.512c-3.229,4.8-2.912,8.279-2.912,8.5l2.968-.42Z" transform="translate(-169.919 -59.438)"/><path d="M207.466,142.374a3.864,3.864,0,0,0-4.331.709c-.933,1.073-.495,2.483.933,3.164a3.873,3.873,0,0,0,4.331-.709C209.332,144.474,208.894,143.055,207.466,142.374Z" transform="translate(-169.931 -59.413)"/><path d="M209.665,205.338l4.284-26.517-.775-.121-4.284,26.508.775.131Z" transform="translate(-170.348 -61.858)"/><path d="M209.9,200.275l.121-.775a4.312,4.312,0,0,1-2.539-1.493,3.556,3.556,0,0,1-.513-2.725l2.716-16.8-.775-.121-2.716,16.8a4.322,4.322,0,0,0,.663,3.313,5,5,0,0,0,3.043,1.811Z" transform="translate(-170.162 -61.835)"/><path d="M237.135,75.824a6.132,6.132,0,0,1-.065,5.152,2.427,2.427,0,0,1-4.387-.121l-2.268-5.049a2.427,2.427,0,0,1,2.8-3.351,6.076,6.076,0,0,1,3.892,3.369Z" transform="translate(-171.768 -54.773)"/><path d="M212.4,78.327a.691.691,0,1,0,.569-.877.737.737,0,0,0-.569.877Z" transform="translate(-170.58 -55.111)"/><path d="M220.7,76.214a.756.756,0,0,0,.784.7.812.812,0,1,0-.784-.7Z" transform="translate(-171.134 -54.967)"/><path d="M223.134,73.9A5.208,5.208,0,0,0,216.6,73.4" transform="translate(-170.861 -54.78)"/><path class="ao" d="M223.132,73.866a9.94,9.94,0,0,0-3.229-.933,6.263,6.263,0,0,0-1.615.065,17.292,17.292,0,0,0-1.708.411,3.789,3.789,0,0,1,1.5-1.111,3.976,3.976,0,0,1,1.867-.289,4.359,4.359,0,0,1,1.82.588A3.733,3.733,0,0,1,223.132,73.866Z" transform="translate(-170.86 -54.747)"/><path d="M213.182,74a5.32,5.32,0,0,0-5.012,2.884" transform="translate(-170.3 -54.881)"/><path class="ao" d="M213.182,73.986a13.293,13.293,0,0,0-2.753,1.045,7.352,7.352,0,0,0-1.167.793c-.383.3-.7.672-1.092,1.045a3.211,3.211,0,0,1,.625-1.484,3.621,3.621,0,0,1,1.241-1.073,4.228,4.228,0,0,1,1.559-.495A3.4,3.4,0,0,1,213.182,73.986Z" transform="translate(-170.3 -54.867)"/><path d="M215.833,77.35a32.931,32.931,0,0,1-.933,4.144c-.625,1.792.877,2.679,2.7,3.257" transform="translate(-170.738 -55.104)"/><path class="ap" d="M215.811,77.35a13.265,13.265,0,0,1-.14,2.287,6.088,6.088,0,0,1-.205,1.139c-.075.383-.224.793-.3,1.083a1.643,1.643,0,0,0,.569,1.708,9.8,9.8,0,0,0,1.867,1.185A5.1,5.1,0,0,1,215.4,84a2.259,2.259,0,0,1-.831-.933,2.193,2.193,0,0,1-.084-1.316c.261-.775.439-1.428.653-2.175S215.559,78.078,215.811,77.35Z" transform="translate(-170.716 -55.104)"/><path d="M214.14,89.135c.523.345.691-.252,1.437.392,0,0,1.867,3.08,3.248,1.736A4.181,4.181,0,0,0,220.3,87.53,18.667,18.667,0,0,1,214.14,89.135Z" transform="translate(-170.697 -55.783)"/><g class="aq" transform="translate(43.443 31.747)"><path d="M216.094,88.892c.093.177.205.429.3.616a4.667,4.667,0,0,0,4.322-2.128l-4.844,1.1C215.991,88.584,215.991,88.677,216.094,88.892Z" transform="translate(-214.255 -87.52)"/></g><path d="M199.758,62.62c5.255-8.512,18.294-9.222,20.833-9.091,1.344.065,4.228.831,5.507,2.8a21.6,21.6,0,0,0,0-2.623,4,4,0,0,1,1.12,3.481,14.933,14.933,0,0,0,1.344-2.193,2.8,2.8,0,0,1-.765,2.8c3.556.831,8.111,5.862,6.534,16.185-.681,4.508-10.827,1.064-13.7-3.444a9.268,9.268,0,0,1-5.759,3.733,18.742,18.742,0,0,0,3.407-5.32c-5.4,3.3-12.638,6.87-13.468,9.072,0,0-1.559-3.537-.383-5.787,0,0-4.293,1.073-4.835,5.358,0,0-5.479-5.918.159-15.027Z" transform="translate(-169.569 -53.516)"/></g><path class="ar" d="M197.26,171.408a101.437,101.437,0,0,1,15.671-20.534,101.188,101.188,0,0,0-15.671,20.534h0m15.671-20.534.056-.056-.056.056m.121-.112h0m.112-.112h0" transform="translate(-13.15 -10.057)"/><path class="as" d="M193.1,332.012l2.081-12.927-5.815-1.755-.933,13.692,4.667.989Z" transform="translate(-12.562 -21.164)"/><path class="at" d="M187.124,330.464a2.063,2.063,0,0,0-1.055.448c-2.053,1.708-8.307,4.76-11.518,5.218-3.444.5-3.612,2.2,1.223,2.2s8.4-.429,10.547-.373a62.334,62.334,0,0,0,6.907.373c4.069,0,2.8-5.19,1.344-7.607a1.867,1.867,0,0,0-1.932-1.027Z" transform="translate(-11.47 -21.987)"/><path class="as" d="M212.528,319.417l-8.111-10.276-5.227,3.1,9.464,9.94,3.873-2.763Z" transform="translate(-13.279 -20.618)"/><path class="at" d="M207.642,321.9a2,2,0,0,0-.383,1.073c-.14,2.669-2.2,9.492-4.6,11.686s-.877,2.8,3.1.933c4.378-2.072,5.358-6.478,6.86-8.027a62.028,62.028,0,0,0,4.947-4.835c2.753-3-1.932-5.6-4.667-6.132a1.867,1.867,0,0,0-2.053.728l-3.164,4.583Z" transform="translate(-13.434 -21.11)"/><path class="au" d="M216.974,86.61s1.559,10.631-1.484,15.457-3.509,5.6-3.509,5.6" transform="translate(-14.131 -5.79)"/><path class="at" d="M208.807,112.018a5.507,5.507,0,0,0,7.523-1.867c.065-.084.616-1,3.444-5.488,2-3.164,2.641-7.467,2.735-11.266a45.909,45.909,0,0,0-.457-7.952,5.507,5.507,0,1,0-10.892,1.633,36.739,36.739,0,0,1,.355,5.161,22.478,22.478,0,0,1-.42,4.769,5.489,5.489,0,0,1-.616,1.773c-3.136,4.975-3.593,5.74-3.593,5.74a5.488,5.488,0,0,0,1.923,7.542Z" transform="translate(-13.74 -5.399)"/><path class="av" d="M227.943,173.793c-1.148-15.793,4.163-55.022,6.9-70.637a3.883,3.883,0,0,0-3.827-4.536H198.57a3.864,3.864,0,0,0-3.734,2.866c-3.733,14.168-6.076,72.307-6.076,72.307Z" transform="translate(-12.584 -6.59)"/><path class="at" d="M173.292,140.879c.541-2.949,4.163-10.556,8.232-18.5,4.312-8.4,9.128-17.258,11.359-21.262a4.667,4.667,0,1,1,8.148,4.508c-3.425,6.179-6.963,12.778-10.015,18.667-3.5,6.72-6.9,10.874-8.27,14.178,2.539,2.212,8.774,2.352,13.758,2.053,1.363-.159,6.646-.532,10.164,2.7a8.867,8.867,0,0,1,2.8,7.215c-.112,2.5-.476,3.528-2.7,4.611a5.927,5.927,0,0,1-3.117.439c-2.557-.308-2.8-1.7-2.8-4.667a11.4,11.4,0,0,0-1.1-4.265,137.043,137.043,0,0,1-13.832,2.632c-6.31.765-8.839-.439-11.144-3.043a6.16,6.16,0,0,1-1.493-5.236Z" transform="translate(-11.546 -6.577)"/><path class="aw" d="M226.221,204.669s4.779-8.755,1.708-25.509h-39.2a254.592,254.592,0,0,0,.345,25.509Z" transform="translate(-12.571 -11.957)"/><path class="au" d="M182.12,122.381l4.564.933,4.928,1c3.052-5.89,6.59-12.488,10.015-18.667a4.667,4.667,0,1,0-8.148-4.508c-2.231,4-7.047,12.824-11.359,21.262Z" transform="translate(-12.142 -6.578)"/><path class="at" d="M229.4,102.278a4.667,4.667,0,0,1,5.6-3.4c11.2,2.8,19.05,5.311,24.491,7.588,12.5,5.264,12.386,9.166,12.339,11.2-.056,2.277-.5,6.674-27.469,16.5a17.734,17.734,0,0,0,1.391,4.853c1.223,2.268-.047,4.433-1.391,6.627a3.482,3.482,0,0,1-2.8,1.652c-1.652,0-3.733-2.091-3.995-3.836-1.017-6.291-.84-9.987-.532-10.724h0l.1-.177a5.663,5.663,0,0,1,.336-.616l.271-.327.308-.364a5.6,5.6,0,0,1,.579-.476l.1-.084a4.733,4.733,0,0,1,1.017-.513c9.128-3.733,17.659-9.828,21.4-12.526a46.76,46.76,0,0,0-5.47-2.539,183.987,183.987,0,0,0-22.9-7.14,4.667,4.667,0,0,1-3.416-5.6Z" transform="translate(-15.281 -6.599)"/><path class="av" d="M181.33,120.37l6.254,1.195,4.909.933h0l4.144.793c5.339-10.482,6.618-12.88,6.823-16.474.224-4.051-.868-6.058-3.509-7.467a5.442,5.442,0,0,0-7.411,2.119,175.968,175.968,0,0,0-11.2,18.938Z" transform="translate(-12.089 -6.593)"/><path class="aw" d="M163.037,257.144c.569,3.855,2.66,7.98,5.6,13.067,4.891,8.494,12.367,17.893,19.087,25.8,4.667,5.5,8.96,10.267,11.723,13.515,1.195,1.381,2.1,2.492,2.651,3.257l5.535-7.178c-2.063-2.893-3.976-6.8-6.375-10.454l-.187-.28c-4.527-6.814-9.334-14.5-13.188-21.467-.159-.233-.28-.467-.411-.7-4.1-7.392-7.131-13.935-7.71-17.734-1.027-6.842,9.175-28.132,19.274-46.911,1.157-2.156,2.315-4.275,3.453-6.328a5.6,5.6,0,0,0,.653-2.277c.289-3.463-2.249-7.467-5.329-9.138-3.789-2.081-8.69-3.164-10.771.625-4.275,7.747-26.517,49.468-23.987,66.269Z" transform="translate(-10.858 -12.574)"/><path class="ax" d="M189.479,302.086c4.667,5.5,8.96,10.267,11.723,13.515.439-3.836.933-8,1.372-12.208.093-.812.168-1.615.252-2.445-4.527-6.814-9.334-14.5-13.188-21.467-.177,6.907-.187,14.934-.159,22.615Z" transform="translate(-12.631 -18.642)"/><path class="aw" d="M190.256,259.571c1.923-15.68,15.092-57.813,17.137-62.451,1.727-3.967,11.2-4.807,15.214-3.061a7.831,7.831,0,0,1,4.023,10.323C221.337,216.422,206.3,248.6,204.807,260c-.877,6.8-2.044,20.534-4.2,32.173-1.512,8.148-3.015,16.082-4.144,21.85-.933,5-.933,4.088-1.064,4.592L186,317.15s1.988-39.117,4.247-57.607Z" transform="translate(-12.4 -12.892)"/><path class="au" d="M232.79,107.908a183.979,183.979,0,0,1,22.9,7.14l3.808-8.587a169.275,169.275,0,0,0-24.492-7.588,4.667,4.667,0,1,0-2.221,9.035Z" transform="translate(-15.257 -6.591)"/><path class="av" d="M234.943,98.742a4.956,4.956,0,0,0-5.936,3.883c-.8,2.9,1.2,5.18,3.808,6.711,3.192,1.867,4.265,2.231,17.734,6.86l7.467-10.37C240.824,99.171,239.937,99.46,234.943,98.742Z" transform="translate(-15.254 -6.59)"/><path class="au" d="M211.42,96.958h.756a17.47,17.47,0,0,0,10.656-3.628,45.911,45.911,0,0,0-.454-7.955,5.507,5.507,0,1,0-10.892,1.633,36.749,36.749,0,0,1,.355,5.161,22.477,22.477,0,0,1-.42,4.77Z" transform="translate(-14.094 -5.395)"/><path class="at" d="M194.7,75.8c2.193,10.127,7.831,17.5,17.5,17.5s15.765-7.308,17.5-17.5c1.615-9.53-7.887-18.873-17.547-18.873S192.638,66.329,194.7,75.8Z" transform="translate(-12.961 -3.812)"/><path class="ay" d="M193.253,317.7l.047-.271c2.651-16.4,6.655-41.171,8.68-56.749,1.484-11.34,15.522-45.072,20.8-57.113l.093-.271v-.14c.859-2.324,3.463-10.939.989-24.464l-.765.14c2.436,13.328-.112,21.785-.933,24.053l-.065.2-.056.168c-5.292,12.068-19.367,45.894-20.861,57.327-2.025,15.568-6.03,40.331-8.68,56.721l-.047.28.775.121Z" transform="translate(-12.83 -11.925)"/><path class="az" d="M206.8,98.62c0,2.352.933,6.328,7.14,6.328,4.517,0,10.192-1.913,12.274-5.544l.457-.784Z" transform="translate(-13.786 -6.59)"/><path class="at" d="M224.98,98.62c-1.661,2.884-6.627,4.77-10.93,4.77s-5.6-2.137-5.6-4.77Z" transform="translate(-13.896 -6.59)"/><path class="ba" d="M200.688,150.426c0-.056-.233-2.7,2.5-6.534l-2.548-1.512c-3.239,4.8-2.912,8.279-2.912,8.5l2.959-.42Z" transform="translate(-13.181 -9.506)"/><path class="bb" d="M202.725,142.374a3.864,3.864,0,0,0-4.331.709c-.933,1.073-.5,2.483.933,3.164a3.864,3.864,0,0,0,4.331-.709C204.592,144.474,204.153,143.055,202.725,142.374Z" transform="translate(-13.193 -9.481)"/><path class="ay" d="M204.915,205.338l4.284-26.517-.765-.121-4.284,26.508.765.131Z" transform="translate(-13.61 -11.926)"/><path class="ay" d="M205.159,200.275l.112-.775a4.3,4.3,0,0,1-2.529-1.493,3.519,3.519,0,0,1-.513-2.725l2.707-16.8-.765-.121-2.716,16.8a4.284,4.284,0,0,0,.663,3.313,5,5,0,0,0,3.043,1.811Z" transform="translate(-13.424 -11.903)"/><path class="at" d="M232.386,75.824a6.058,6.058,0,0,1-.065,5.152,2.427,2.427,0,0,1-4.378-.121l-2.268-5.049a2.427,2.427,0,0,1,2.8-3.351,6.076,6.076,0,0,1,3.892,3.369Z" transform="translate(-15.03 -4.842)"/><path class="ao" d="M207.659,78.327a.737.737,0,0,0,.784.7.8.8,0,0,0-.215-1.577.737.737,0,0,0-.569.877Z" transform="translate(-13.842 -5.179)"/><path class="ao" d="M216,76.217a.691.691,0,1,0,1.353-.187.737.737,0,0,0-.784-.7A.747.747,0,0,0,216,76.217Z" transform="translate(-14.398 -5.038)"/><path class="ao" d="M218.383,73.866a9.81,9.81,0,0,0-3.229-.933,6.281,6.281,0,0,0-1.615.065,17.132,17.132,0,0,0-1.7.411,3.733,3.733,0,0,1,1.493-1.111,4.013,4.013,0,0,1,1.867-.289,4.406,4.406,0,0,1,1.867.588,3.631,3.631,0,0,1,1.316,1.269Z" transform="translate(-14.122 -4.816)"/><path class="ao" d="M208.438,73.986a13.292,13.292,0,0,0-2.8,1.045,6.588,6.588,0,0,0-1.167.793c-.383.3-.7.672-1.1,1.045A3.313,3.313,0,0,1,204,75.386a3.8,3.8,0,0,1,1.241-1.073,4.284,4.284,0,0,1,1.559-.495A3.416,3.416,0,0,1,208.438,73.986Z" transform="translate(-13.558 -4.935)"/><path class="ap" d="M211.07,77.35a14.266,14.266,0,0,1-.159,2.287,6.062,6.062,0,0,1-.2,1.139c-.075.383-.233.793-.3,1.083a1.624,1.624,0,0,0,.569,1.708,9.52,9.52,0,0,0,1.867,1.185A5.133,5.133,0,0,1,210.641,84a2.3,2.3,0,0,1-.821-.933,2.193,2.193,0,0,1-.084-1.316c.252-.775.439-1.428.644-2.175S210.818,78.078,211.07,77.35Z" transform="translate(-13.978 -5.173)"/><path class="c" d="M209.4,89.135c.513.345.691-.252,1.437.392.047,0,1.82,3.08,3.248,1.736a4.181,4.181,0,0,0,1.475-3.733,18.751,18.751,0,0,1-6.16,1.605Z" transform="translate(-13.959 -5.851)"/><g class="bc" transform="translate(195.441 81.679)"><path class="av" d="M211.353,88.892l.3.616a4.667,4.667,0,0,0,4.312-2.128l-4.844,1.1Z" transform="translate(-209.515 -87.52)"/></g><path class="bd" d="M195.009,62.62c5.264-8.512,18.3-9.222,20.842-9.091,1.344.065,4.219.831,5.507,2.8a21.6,21.6,0,0,0,0-2.623,4,4,0,0,1,1.12,3.481,14.935,14.935,0,0,0,1.344-2.193,2.8,2.8,0,0,1-.765,2.8c3.556.831,8.1,5.862,6.534,16.185-.681,4.508-10.818,1.064-13.7-3.444a9.268,9.268,0,0,1-5.759,3.733,18.546,18.546,0,0,0,3.407-5.32c-5.4,3.3-12.638,6.87-13.459,9.072,0,0-1.559-3.537-.392-5.787,0,0-4.284,1.073-4.825,5.358,0,0-5.479-5.918.149-15.027Z" transform="translate(-12.831 -3.584)"/></g></svg>