<svg xmlns="http://www.w3.org/2000/svg" xmlns:xlink="http://www.w3.org/1999/xlink" width="328.299" height="362.094" viewBox="0 0 328.299 362.094"><defs><style>.a{fill:url(#a);}.b{opacity:0.6;fill:url(#b);}.c{fill:#079e9a;}.d{fill:url(#c);}.e{fill:#383f82;}.f,.g{fill:#fff;}.f{opacity:0.2;}.h{fill:#15d1c3;}</style><linearGradient id="a" y1="0.5" x2="1" y2="0.5" gradientUnits="objectBoundingBox"><stop offset="0" stop-color="#c0fcff" stop-opacity="0.6"/><stop offset="1" stop-color="#c0ffde" stop-opacity="0.6"/></linearGradient><linearGradient id="b" x1="1.013" y1="0.1" x2="0.026" y2="0.835" gradientUnits="objectBoundingBox"><stop offset="0" stop-color="#76c1ff" stop-opacity="0.502"/><stop offset="1" stop-color="#68cdd5" stop-opacity="0.102"/></linearGradient><linearGradient id="c" y1="0.5" x2="1" y2="0.5" gradientUnits="objectBoundingBox"><stop offset="0.01" stop-color="#1b2246" stop-opacity="0"/><stop offset="0.53" stop-color="#1b2246" stop-opacity="0.2"/><stop offset="1" stop-color="#1b2246" stop-opacity="0.302"/></linearGradient></defs><circle class="a" cx="164.149" cy="164.149" r="164.149" transform="translate(0 33.795)"/><path class="b" d="M9.681,198.8a163.619,163.619,0,0,0,113.553,48.279c-11.442-41.52-10.959-88.3,22.16-119.877,38.623-36.885,89.365-19.312,134.265-39.3,1.448-.628,5.6-2.559,10.621-5.069A163.81,163.81,0,0,0,281.4,29.73c-40.893,32.057-117.608,33.8-117.608,33.8C24.551,61.3,9.536,156.56,9.681,198.8Z" transform="translate(37.054 113.804)"/><path class="c" d="M143.828,166.225H120.171a11.638,11.638,0,0,0,0-1.352v-1.3a19.746,19.746,0,0,1,10.67-17.284c14.484-7.773,20.712-22.45,23.367-37.175a11.346,11.346,0,0,0,4.538.966,13.76,13.76,0,0,0,12.746-14.484,13.76,13.76,0,0,0-12.746-14.484h-1.159v-32.4A49.39,49.39,0,0,0,108.391,0H101.2A49.39,49.39,0,0,0,51.952,48.714V80.964A13.76,13.76,0,0,0,39.3,95.448a13.76,13.76,0,0,0,12.746,14.484,11.346,11.346,0,0,0,4.538-.966c2.7,15.015,9.125,29.981,24.14,37.658a19.794,19.794,0,0,1,11.153,17.525v.579a11.635,11.635,0,0,0,0,1.352H68.222c-32.4,0-58.852,35.051-58.852,64.887a18.1,18.1,0,0,0,18.1,18.1h157.1a18.1,18.1,0,0,0,18.1-18.1C202.68,201.276,176.175,166.225,143.828,166.225Z" transform="translate(35.868)"/><path class="d" d="M71.881,116.888a18.1,18.1,0,0,0,18.1-18.1c0-27.471-22.4-59.19-51.176-64.163C49.769,49.1,72.943,85.265,58.991,116.695Z" transform="translate(148.562 132.523)"/><rect class="e" width="6.614" height="16.753" transform="matrix(0.665, -0.747, 0.747, 0.665, 238.115, 196.793)"/><path class="e" d="M37.678,65.293a34.616,34.616,0,1,0,8.687-25.04A34.616,34.616,0,0,0,37.678,65.293Zm63.68-3.718A28.968,28.968,0,1,1,91.69,41.424,28.968,28.968,0,0,1,101.358,61.576Z" transform="translate(143.997 109.623)"/><path class="e" d="M93.878,76.4l-3.621,4.1a3.669,3.669,0,0,1-5.166.29l-3.669-3.235L52.454,51.874a3.669,3.669,0,0,1-.29-5.166l3.621-4.1a3.669,3.669,0,0,1,5.166-.29L93.443,71.282A3.669,3.669,0,0,1,93.878,76.4Z" transform="translate(196.136 158.43)"/><ellipse class="f" cx="29.161" cy="29.161" rx="29.161" ry="29.161" transform="translate(185.409 145.487) rotate(-3.35)"/><rect class="g" width="83.475" height="28.243" rx="2.84" transform="translate(99.117 76.378)"/><circle class="h" cx="5.118" cy="5.118" r="5.118" transform="translate(111.622 85.358)"/><circle class="h" cx="5.118" cy="5.118" r="5.118" transform="translate(159.853 85.358)"/><path class="h" d="M24.77,69.343a22.353,22.353,0,0,1,44.707,0" transform="translate(94.818 179.874)"/><path class="g" d="M59.978,58.918l8.159-9.8L65.193,46.51l-8.063,9.9Z" transform="translate(218.689 178.037)"/></svg>