<svg xmlns="http://www.w3.org/2000/svg" xmlns:xlink="http://www.w3.org/1999/xlink" width="270.952" height="350.396" viewBox="0 0 270.952 350.396"><defs><style>.a,.ah,.am,.ao,.ar,.as,.au,.av,.aw,.ax,.bj,.bk,.bt,.s{fill:none;}.b{fill:#d3d3d3;}.ak,.b{opacity:0.36;}.c{fill:#1b2246;}.d{fill:#d1d3d4;}.e{clip-path:url(#a);}.f{fill:#e6e7e8;}.ae,.g,.k,.o,.q,.v{fill:#fff;}.h{fill:#f1f2f2;}.i{fill:url(#b);}.j{fill:url(#c);}.ae,.k,.q{font-size:5px;}.ae,.k,.o{font-family:AmericanTypewriter-Condensed, American Typewriter;}.k{letter-spacing:0.02em;}.l{letter-spacing:-0.02em;}.m{letter-spacing:-0.03em;}.n{letter-spacing:-0.05em;}.o{font-size:1px;letter-spacing:-0.01em;}.p{letter-spacing:0.05em;}.q{font-family:Helvetica;}.ae,.q{letter-spacing:0.03em;}.r{fill:#c4c4c4;}.s{stroke:#a9a9a9;}.ah,.am,.ao,.ar,.au,.aw,.bj,.bk,.bt,.s{stroke-miterlimit:10;}.t{fill:#bcbec0;}.aj,.u{opacity:0.5;}.u{fill:url(#d);}.v{opacity:0.9;}.w,.x{opacity:0.3;}.w{fill:url(#e);}.x{fill:url(#f);}.y{fill:#ae256d;}.z{clip-path:url(#g);}.aa,.ab{opacity:0.59;}.aa{fill:url(#h);}.ab{fill:url(#i);}.ac{fill:url(#j);}.ad{fill:url(#k);}.af{fill:#fec813;}.ag{fill:#ff585b;}.ah{stroke:#d6aa2d;}.ai{fill:#fcdd99;}.aj{fill:url(#l);}.ak{fill:url(#m);}.al{opacity:0.84;fill:url(#n);}.am{stroke:#f1f2f2;stroke-width:5px;}.an{fill:#ffb692;}.ao,.au,.av{stroke:#1b2246;}.ao,.ar,.as,.au,.av,.aw,.ax,.bj,.bk,.bt{stroke-width:0.5px;}.ap{fill:#d1b3ff;}.aq{fill:url(#o);}.ar,.as{stroke:#ae256d;}.ar,.as,.au,.av,.aw,.ax{opacity:0.4;}.as,.av,.ax{stroke-linecap:round;stroke-linejoin:round;}.at{fill:#383f82;}.aw,.ax{stroke:#ea7dc5;}.ay{fill:url(#p);}.az{fill:#39296b;}.ba{fill:url(#q);}.bb{fill:url(#r);}.bc{opacity:0.24;}.bd{fill:url(#s);}.be{fill:url(#t);}.bf{fill:#ba5427;}.bg{fill:#7060cc;}.bh{fill:#899aef;}.bi{fill:url(#u);}.bj{stroke:#ae246c;}.bk{stroke:#ba5320;}.bl{fill:url(#v);}.bm{fill:url(#w);}.bn{fill:url(#x);}.bo{fill:url(#y);}.bp{fill:url(#z);}.bq{fill:url(#aa);}.br{fill:#ae246c;}.bs{fill:#ba5320;}.bt{stroke:#000;}.bu{fill:url(#ac);}.bv{opacity:0.1;}</style><clipPath id="a"><path class="a" d="M144.382,146.243l10.45-75.9a5.394,5.394,0,0,0-4.585-6.041L22.838,46.772A5.394,5.394,0,0,0,16.8,51.357L6.347,127.244c-.4,2.94,1.106,4.746,3.223,5.11l127.41,17.529C141.268,151.219,143.978,149.169,144.382,146.243Z" transform="translate(-6.281 -46.726)"/></clipPath><linearGradient id="b" x1="4.655" y1="10.703" x2="5.337" y2="9.186" gradientUnits="objectBoundingBox"><stop offset="0" stop-color="#555" stop-opacity="0"/><stop offset="0.03" stop-color="#5d5d5d" stop-opacity="0.039"/><stop offset="0.22" stop-color="#8d8d8d" stop-opacity="0.271"/><stop offset="0.4" stop-color="#b6b6b6" stop-opacity="0.459"/><stop offset="0.58" stop-color="#d6d6d6" stop-opacity="0.612"/><stop offset="0.74" stop-color="#ececec" stop-opacity="0.71"/><stop offset="0.88" stop-color="#fafafa" stop-opacity="0.78"/><stop offset="0.98" stop-color="#fff" stop-opacity="0.8"/></linearGradient><linearGradient id="c" x1="2.925" y1="15.674" x2="2.783" y2="17.429" gradientUnits="objectBoundingBox"><stop offset="0" stop-color="#fff" stop-opacity="0"/><stop offset="0.15" stop-color="#fff" stop-opacity="0.239"/><stop offset="0.32" stop-color="#fff" stop-opacity="0.471"/><stop offset="0.48" stop-color="#fff" stop-opacity="0.659"/><stop offset="0.63" stop-color="#fff" stop-opacity="0.812"/><stop offset="0.77" stop-color="#fff" stop-opacity="0.91"/><stop offset="0.89" stop-color="#fff" stop-opacity="0.98"/><stop offset="0.98" stop-color="#fff"/></linearGradient><linearGradient id="d" x1="17.604" y1="27.452" x2="18.641" y2="27.844" gradientUnits="objectBoundingBox"><stop offset="0.32" stop-color="#fff" stop-opacity="0"/><stop offset="0.33" stop-color="#fff" stop-opacity="0.031"/><stop offset="0.44" stop-color="#fff" stop-opacity="0.278"/><stop offset="0.55" stop-color="#fff" stop-opacity="0.502"/><stop offset="0.65" stop-color="#fff" stop-opacity="0.678"/><stop offset="0.75" stop-color="#fff" stop-opacity="0.82"/><stop offset="0.84" stop-color="#fff" stop-opacity="0.922"/><stop offset="0.93" stop-color="#fff" stop-opacity="0.98"/><stop offset="1" stop-color="#fff"/></linearGradient><linearGradient id="e" x1="0.504" y1="-0.136" x2="0.502" y2="0.257" gradientUnits="objectBoundingBox"><stop offset="0.31" stop-color="#1b2246" stop-opacity="0"/><stop offset="0.47" stop-color="#1b2246" stop-opacity="0.341"/><stop offset="0.67" stop-color="#1b2246" stop-opacity="0.698"/><stop offset="0.85" stop-color="#1b2246" stop-opacity="0.922"/><stop offset="1" stop-color="#1b2246"/></linearGradient><linearGradient id="f" x1="1.539" y1="0.477" x2="0.433" y2="0.506" xlink:href="#e"/><clipPath id="g"><path class="a" d="M148.815,143.22V66.874a5.394,5.394,0,0,0-5.394-5.394H15.324A5.394,5.394,0,0,0,9.93,66.874V143.22c0,2.953,1.739,4.531,3.883,4.612h128.1C146.428,148.573,148.815,146.173,148.815,143.22Z" transform="translate(-9.93 -61.48)"/></clipPath><linearGradient id="h" x1="0.539" y1="-0.074" x2="0.464" y2="0.972" gradientUnits="objectBoundingBox"><stop offset="0.33" stop-color="#ae246c" stop-opacity="0"/><stop offset="0.46" stop-color="#822361" stop-opacity="0.302"/><stop offset="0.67" stop-color="#4a2352" stop-opacity="0.678"/><stop offset="0.86" stop-color="#272249" stop-opacity="0.922"/><stop offset="1" stop-color="#1b2246"/></linearGradient><linearGradient id="i" x1="21.631" y1="-0.144" x2="21.709" y2="0.97" xlink:href="#h"/><linearGradient id="j" x1="0.405" y1="0.721" x2="1.088" y2="-0.889" gradientUnits="objectBoundingBox"><stop offset="0" stop-color="#ae246c" stop-opacity="0"/><stop offset="0.09" stop-color="#ba4482" stop-opacity="0.059"/><stop offset="0.36" stop-color="#d895b8" stop-opacity="0.212"/><stop offset="0.6" stop-color="#edcfdf" stop-opacity="0.31"/><stop offset="0.82" stop-color="#faf3f7" stop-opacity="0.38"/><stop offset="0.98" stop-color="#fff" stop-opacity="0.4"/></linearGradient><linearGradient id="k" x1="0.472" y1="0.635" x2="0.331" y2="2.445" gradientUnits="objectBoundingBox"><stop offset="0" stop-color="#fff" stop-opacity="0"/><stop offset="0.07" stop-color="#fff" stop-opacity="0.071"/><stop offset="0.29" stop-color="#fff" stop-opacity="0.259"/><stop offset="0.5" stop-color="#fff" stop-opacity="0.412"/><stop offset="0.69" stop-color="#fff" stop-opacity="0.51"/><stop offset="0.86" stop-color="#fff" stop-opacity="0.58"/><stop offset="0.98" stop-color="#fff" stop-opacity="0.6"/></linearGradient><linearGradient id="l" x1="-0.197" y1="0.236" x2="0.991" y2="0.639" xlink:href="#d"/><linearGradient id="m" x1="0.023" y1="0.361" x2="1.265" y2="0.71" xlink:href="#d"/><linearGradient id="n" x1="-0.524" y1="0.279" x2="1.244" y2="0.661" xlink:href="#e"/><linearGradient id="o" x1="0.748" y1="1.572" x2="0.53" y2="0.482" gradientUnits="objectBoundingBox"><stop offset="0.55" stop-color="#ba5320" stop-opacity="0"/><stop offset="0.61" stop-color="#ba5320" stop-opacity="0.141"/><stop offset="0.73" stop-color="#ba5320" stop-opacity="0.38"/><stop offset="0.84" stop-color="#ba5320" stop-opacity="0.561"/><stop offset="0.93" stop-color="#ba5320" stop-opacity="0.659"/><stop offset="0.99" stop-color="#ba5320" stop-opacity="0.698"/></linearGradient><linearGradient id="p" x1="0.443" y1="2.586" x2="0.504" y2="0.122" xlink:href="#o"/><linearGradient id="q" x1="-1.249" y1="1.016" x2="1.592" y2="0.319" gradientUnits="objectBoundingBox"><stop offset="0.37" stop-color="#383f82" stop-opacity="0"/><stop offset="0.49" stop-color="#383f82" stop-opacity="0.11"/><stop offset="0.72" stop-color="#383f82" stop-opacity="0.388"/><stop offset="1" stop-color="#383f82" stop-opacity="0.8"/></linearGradient><linearGradient id="r" x1="2.254" y1="0.699" x2="-0.168" y2="0.408" gradientUnits="objectBoundingBox"><stop offset="0.55" stop-color="#fff" stop-opacity="0"/><stop offset="1" stop-opacity="0.8"/></linearGradient><linearGradient id="s" x1="0.698" y1="1.778" x2="0.468" y2="0.231" xlink:href="#o"/><linearGradient id="t" x1="5.667" y1="2.326" x2="-1.62" y2="-0.336" xlink:href="#q"/><linearGradient id="u" x1="0.178" y1="0.001" x2="0.842" y2="0.897" xlink:href="#o"/><linearGradient id="v" x1="2.099" y1="0.442" x2="-0.457" y2="0.545" xlink:href="#o"/><linearGradient id="w" x1="-1.823" y1="0.854" x2="2.457" y2="0.169" xlink:href="#o"/><linearGradient id="x" x1="1.353" y1="1.402" x2="0.054" y2="-0.041" gradientUnits="objectBoundingBox"><stop offset="0.56" stop-color="#383f82" stop-opacity="0"/><stop offset="0.7" stop-color="#383f82" stop-opacity="0.349"/><stop offset="0.83" stop-color="#383f82" stop-opacity="0.588"/><stop offset="0.93" stop-color="#383f82" stop-opacity="0.749"/><stop offset="1" stop-color="#383f82" stop-opacity="0.8"/></linearGradient><linearGradient id="y" x1="4.397" y1="0.921" x2="-0.89" y2="0.323" xlink:href="#x"/><linearGradient id="z" x1="6.477" y1="1.626" x2="-2.132" y2="0.061" xlink:href="#x"/><radialGradient id="aa" cx="0.555" cy="0.227" r="1.227" gradientUnits="objectBoundingBox"><stop offset="0" stop-color="#ffa273"/><stop offset="0.78" stop-color="#ffb692" stop-opacity="0"/></radialGradient><linearGradient id="ac" x1="-0.109" y1="0.68" x2="0.897" y2="0.393" gradientUnits="objectBoundingBox"><stop offset="0.37" stop-color="#383f82" stop-opacity="0"/><stop offset="0.54" stop-color="#383f82" stop-opacity="0.02"/><stop offset="0.66" stop-color="#383f82" stop-opacity="0.09"/><stop offset="0.76" stop-color="#383f82" stop-opacity="0.212"/><stop offset="0.85" stop-color="#383f82" stop-opacity="0.369"/><stop offset="0.93" stop-color="#383f82" stop-opacity="0.58"/><stop offset="1" stop-color="#383f82" stop-opacity="0.8"/></linearGradient></defs><g transform="translate(0 0)"><path class="b" d="M265.26,166.271l-37.418-56.633-7.214,4.22c-.432-.324-7.443-5.6-12.405-8.67a21.266,21.266,0,0,0-.189-2.495c-.62-5.731-13.942-31.768-13.942-31.768h0s-4.22-10.935-8.266-13.9a16.613,16.613,0,0,0-2.171-1.348,21.966,21.966,0,0,0,.283-3.749c.108-10.059-6.3-8.9-7.484-17.057-.742-5.11.566-9.911,1.038-14.832.094-1.052.162-2.117.162-3.209A16.046,16.046,0,0,0,168.54,2.7a23.894,23.894,0,0,0-27.966,4.342c-1.348,1.348-2.1,3.061-3.506,4.409a9.627,9.627,0,0,1-5.1,2.7c-.849.135-1.726.108-2.575.175A7.875,7.875,0,0,0,124,16.774c-1.348,1.564-1.861,3.789-3.654,4.8a5.272,5.272,0,0,1-3.425.391c-6.378-1.038-12.513-1.267-18.594,1.348a17.408,17.408,0,0,0-8.7,7.578,16.558,16.558,0,0,0-.607,12.742c1.187,3.56,3.007,7.12,6.162,9.223a15.251,15.251,0,0,0,3.331,1.618,24.446,24.446,0,0,0,14.711-.189c3.3-1.052,6.742-2.292,10.167-1.861,3.115.391,6.014,2.211,8.819,4.045a12.661,12.661,0,0,0-4.045,5.7c-1.834,5.11-4.045,12.27-4.045,12.27s-.512,2.36-1.348,6c-1.254,5.636-3.128,14.32-4.544,22.343-1.78,10.019-2.872,17.947-5.555,24.352a21.17,21.17,0,0,0,1.079-1.942c-.364,1.106-.742,2.184-1.173,3.209-.216.526-.445,1.038-.688,1.551-3.209,6.675-6.607,22.006-8.009,27.75-1.187,4.868-2.346,8.454-2.886,10.032,0,0-3.587-.067-2.373,1.578a3.222,3.222,0,0,0,1.281.836,28.8,28.8,0,0,1-3.331,4.949c-29.017.431-66.382,20.4-47.6,28.586,4.544,1.982,20.55-.876,40.128,5.259L80.314,252.1l-22.68-4.625-13.363-2.7a13.592,13.592,0,0,0-16.059,10.612l-13.43,66.435a13.605,13.605,0,0,0,10.612,16.059l1.267.256-.8,3.9L31.1,343.1l.8-3.9,5.394,1.092,11.987,2.441a6.391,6.391,0,0,0,12.661-1.173,13.565,13.565,0,0,0,6.23-8.859L84.44,252.892h0l8.616-42.542a82.771,82.771,0,0,1,9.574,4.22,350.912,350.912,0,0,0,32.753,15.089c1.753.688,3.438,1.348,5.11,1.942,0,.971.094,2.063.148,3.263.229,4.531.62,10.464,1.348,17.246.58,5.569,1.348,11.718,2.468,18.122a390.141,390.141,0,0,1,4.612,45.846v.4a9.87,9.87,0,0,0-2.225,8c.378,1.955,1.119,3.749,1.618,5.906.984,4.153,1.51,16.4,8.913,16.5,4.665,0,2.063-9.735,1.726-15.048-.175-2.8-.351-5.07-.5-6.9-.067-4.045-.391-7.659-.391-7.659s1.6-20.873,2.292-37.431c.324-7.753.917-17.367,1.443-25.4.553-8.549,1.052-15.3,1.119-16.181,10.693,2.279,19.039,2.535,25.539,1.537.216,1.874.755,5.919,1.847,10.9a90.342,90.342,0,0,0,5.272,16.828c5.825,13.3,12.661,29.867,14.994,40.654a12.445,12.445,0,0,0,0,1.969c-3.964,5.852-2,9.735-2,9.735l4.328,14.913.607-.108-1.025-9.6c1.51,1.47,3.735,9.263,12.823,12.365,7.5,2.562,2.077-7.929,0-11.677a16.625,16.625,0,0,0-.755-2.252,202.657,202.657,0,0,1-6.054-21.48c-2.1-10.032-7.915-54.907-9.088-64.2-.5-3.951-.89-6.85-1.227-9.439l.2-.688a22.8,22.8,0,0,0,3.169-10.423c-.849-3.708-3.438-13.322-6.742-25.323l6.5-.3,13.794-3.8-.458-1.686,10.477-1.834,12.918-5.8-.58-1.348,6.324-1.659Zm-57.024-46.695-1.834-3.614a12.015,12.015,0,0,0,1.214-3.182l4.045,5.232Zm-12.621-1.712c.121,1.9.27,3.735.4,5.3l-5.555,1.524,2.7-7.848c.9.4,1.7.742,2.454,1.025Zm1.645.539a13.672,13.672,0,0,0,4.045.566l.418,2.7-4.787,1.348Zm9.385,1.82-4.949,1.348c0-.849.108-1.739.162-2.7a6.054,6.054,0,0,0,2.333-.634,5.07,5.07,0,0,0,1.227-.944l1.942,2.7-.688.31ZM175.052,89.885c-.957-.62-1.672-1.106-2.077-1.348a5.787,5.787,0,0,1-.485-.418c.445.324,1.348.971,2.562,1.78Zm9.749,4.746a9.736,9.736,0,0,0,1.227-3.843h0a19.025,19.025,0,0,0,.216-1.9l.553.823.688,1.119h0l5.11,8.266-1.888-.876c-2.144-.836-4.274-1.834-6.3-2.845.094-.256.229-.485.351-.742Zm-48.839,1.659a9.44,9.44,0,0,0,1.16,1.079l.472.445a.242.242,0,0,1,.081.121c.351,1.133.553,1.847.742,2.616a1.885,1.885,0,0,0,.108.458q.007.135,0,.27l.067.364c.121.647.243,1.348.391,2.252v1.254c.081.526.135,1.025.189,1.551h0a4.747,4.747,0,0,0,.081.876v.3a15.5,15.5,0,0,0,.081,1.874v1a25.3,25.3,0,0,1-.229,3.047,10.787,10.787,0,0,1-.93,3.034c-2.7,5.394-9.25,7.106-13.862,13.484-.472.647-.9,1.348-1.348,2.05.458-1.6.971-3.25,1.632-5.043,2.495-6.054,9.237-25.067,11.34-31.027Zm46.317,15.857a20.576,20.576,0,0,1-.742-3.546,55.835,55.835,0,0,0,10.18,7.443c-.661,3.573-1.187,6.971-1.456,8.711l-3.964,1.092c-1.429-4.962-2.562-8.859-3.25-11.192h.081c-.2-.634-.539-1.524-.876-2.508Zm38.375,1.659-1.524.89-3.034,1.348h0L211.729,118c-1.146-2.387-2.427-4.949-3.695-7.241a30.008,30.008,0,0,0,.256-4.167ZM192.73,71.9,194,70.94ZM117.84,150.01c-.876,5.852-2.778,14.832-8.508,20.361a9.169,9.169,0,0,0-1.551-.9A157.481,157.481,0,0,0,117.84,150.01Zm-11.313,21.574,1.214.081a16.489,16.489,0,0,1-1.982,1.267q.352-.666.769-1.294Z" transform="translate(-3.417 0.001)"/><path class="c" d="M171.5,51.9c0,4.423-.58,7.133-4.5,9.965-7.861,5.677-18.513,6.2-27.871,3.681a68.607,68.607,0,0,1-14.994-6.31c-4.153-2.279-8.427-6.2-13.174-6.742-3.452-.431-6.85.8-10.167,1.861a24.446,24.446,0,0,1-14.711.189,15.264,15.264,0,0,1-3.331-1.618c-3.209-2.1-4.976-5.69-6.108-9.237a16.558,16.558,0,0,1,.607-12.742,17.408,17.408,0,0,1,8.7-7.578c6.081-2.7,12.216-2.414,18.594-1.348a5.272,5.272,0,0,0,3.425-.445c1.726-.957,2.238-3.182,3.519-4.706a7.875,7.875,0,0,1,5.394-2.454,20.485,20.485,0,0,0,2.575-.175,9.627,9.627,0,0,0,5.1-2.7c1.348-1.348,2.157-3.088,3.506-4.409A23.894,23.894,0,0,1,156.1,2.7a16.046,16.046,0,0,1,9.115,14.064,21.235,21.235,0,0,1-.162,3.209c-.472,4.962-1.78,9.762-1.038,14.832C165.185,42.986,171.59,41.8,171.5,51.9Z" transform="translate(17.885 0.002)"/><path d="M169.016,46.733c0,4.423-.58,7.133-4.5,9.965-7.861,5.677-18.513,6.2-27.871,3.681a68.607,68.607,0,0,1-14.994-6.31c-4.153-2.279-8.427-6.2-13.174-6.742-3.452-.431-6.85.8-10.167,1.861a24.446,24.446,0,0,1-14.711.189c-1.16-3.856-1.861-9.884,3.223-13.484,7.915-5.569,13.848-5.569,30.2-2.7s16.005-9.533,16.545-10.248S153.725,32.1,153.725,32.1a25.727,25.727,0,0,0,8.616-16.181,5.732,5.732,0,0,1,.229-1.092c-.472,4.962-1.78,9.762-1.038,14.832C162.705,37.82,169.11,36.634,169.016,46.733Z" transform="translate(20.365 5.168)"/><path class="d" d="M144.443,145.793l10.45-75.9a5.394,5.394,0,0,0-4.585-6.041L22.9,46.322a5.394,5.394,0,0,0-6.041,4.585l-10.45,75.9c-.4,2.94,1.025,4.733,3.223,5.11l127.41,17.529C141.342,150.782,144.038,148.733,144.443,145.793Z" transform="translate(-6.261 16.124)"/><g class="e" transform="translate(0 63.006)"><path class="f" d="M6,94.3s58.062-1.9,86.109,30.555,41.922,29.409,68.5,24.851l11.974-86.972L11.394,40.54Z" transform="translate(-6.379 -48.881)"/><path class="g" d="M118.084,97.089a36.6,36.6,0,1,0,31.269,41.247,36.6,36.6,0,0,0-31.269-41.247Zm-9.007,65.424a21.178,21.178,0,1,1,.014.027Z" transform="translate(18.183 -29.299)"/><path class="h" d="M175.684,82.857s-30.339,39.1-100.024,6.27S3.44,108.086,3.44,108.086s7.416-68.269,7.5-68.9S180.026,68.025,180.026,68.025Z" transform="translate(-7.271 -49.357)"/><path class="i" d="M9.56,84.94s54.475.27,56.2,49.769L0,130.583,8.09,85.722" transform="translate(-8.47 -33.412)"/><path class="j" d="M49.5,45.72s13.268,49.109,103.827,26.1l4.423-17.785Z" transform="translate(8.776 -47.076)"/></g><text class="k" transform="translate(17.544 109.736) rotate(7.83)"><tspan x="0" y="0">5325 </tspan><tspan class="l" y="0">7</tspan><tspan class="m" y="0">1</tspan><tspan y="0">00 0000 00</tspan><tspan class="n" y="0">0</tspan><tspan y="0">1</tspan></text><text class="o" transform="translate(16.388 122.853) rotate(7.83)"><tspan x="0" y="0">V</tspan><tspan class="p" y="0">ALID THRU</tspan></text><text class="q" transform="translate(40.009 128.487) rotate(7.83)"><tspan x="0" y="0">1/24</tspan></text><circle class="r" cx="7.956" cy="7.956" r="7.956" transform="translate(109.127 101.783) rotate(-82.17)"/><rect class="s" width="5.394" height="5.394" transform="translate(26.612 89.278) rotate(-82.17)"/><rect class="t" width="17.758" height="22.491" rx="2.19" transform="translate(17.767 94.266) rotate(-82.17)"/><line class="s" y1="5.474" x2="0.755" transform="translate(30.014 78.964)"/><line class="s" y1="5.474" x2="0.755" transform="translate(28.503 89.913)"/><line class="s" x1="6.904" y1="0.944" transform="translate(19.995 85.854)"/><line class="s" x1="6.917" y1="0.957" transform="translate(32.373 87.553)"/><path class="s" d="M30.54,63.284,33.4,61.41l4.423.62" transform="translate(2.17 21.397)"/><path class="s" d="M27.895,66.19l-2.859,1.861L20.6,67.444" transform="translate(-1.293 23.062)"/><path class="s" d="M28.278,63.072,26.026,60.5,21.59,59.89" transform="translate(-0.948 20.867)"/><path class="s" d="M29.99,66.74,32.242,69.3l4.436.62" transform="translate(1.979 23.254)"/><path class="u" d="M34.923,58.674l-8.387,16.68-4.247-.58a2.953,2.953,0,0,1-2.522-3.331l1.672-11.785a2.953,2.953,0,0,1,3.331-2.521l9.911,1.348Z" transform="translate(-1.593 19.898)"/><path class="v" d="M32.187,107.3l-11.246-1.551a2.913,2.913,0,0,1-2.495-3.29h0a2.913,2.913,0,0,1,3.3-2.454L33,101.559a2.913,2.913,0,0,1,2.495,3.29h0A2.913,2.913,0,0,1,32.187,107.3Z" transform="translate(-2.052 34.833)"/><path class="w" d="M15.154,56.3,9.76,89.511,134.311,69.69l8.4-2.575c6.391-4.652,1.847-5.731,1.847-5.731Z" transform="translate(-5.069 19.616)"/><path class="x" d="M112.776,60.38s3.627.135,3.654,5.731-.661,32.051-.661,32.051l-4.436,6.4H103L106.169,62.4Z" transform="translate(27.415 21.038)"/><path class="y" d="M148.815,143.22V66.874a5.394,5.394,0,0,0-5.394-5.394H15.324A5.394,5.394,0,0,0,9.93,66.874V143.22c0,2.953,1.659,4.544,3.883,4.612h128.1C146.428,148.573,148.815,146.173,148.815,143.22Z" transform="translate(-5.01 21.421)"/><g class="z" transform="translate(4.92 82.901)"><path class="aa" d="M6.6,110.344s57.051-9.722,89.156,18.473,45.387,23.341,70.993,15.237V56.53H4.66Z" transform="translate(-11.766 -63.205)"/><path class="ab" d="M172.036,76.094s-24.649,42.785-97.907,19.767S5.361,124.394,5.361,124.394s-1.9-68.4-1.9-69.051S174.3,60.857,174.3,60.857Z" transform="translate(-12.184 -63.635)"/><path class="ac" d="M8.63,100.865s53.814-7.133,62.242,41.49L5.38,147.223l1.942-45.387" transform="translate(-11.515 -47.886)"/><path class="ad" d="M44.33,57.962s19.781,46.681,106.011,11.677l1.942-18.149Z" transform="translate(2.055 -64.96)"/></g><text class="ae" transform="translate(17.5 130.05)"><tspan x="0" y="0">5325 </tspan><tspan class="l" y="0">7</tspan><tspan class="m" y="0">1</tspan><tspan y="0">00 0000 00</tspan><tspan class="n" y="0">0</tspan><tspan y="0">1</tspan></text><text class="o" transform="translate(18.134 142.287)"><tspan x="0" y="0">V</tspan><tspan class="p" y="0">ALID THRU</tspan></text><text class="q" transform="translate(42.217 144.693)"><tspan x="0" y="0">1/24</tspan></text><circle class="af" cx="7.929" cy="7.929" r="7.929" transform="translate(106.953 93.378)"/><circle class="ag" cx="7.929" cy="7.929" r="7.929" transform="translate(116.837 93.378)"/><rect class="ah" width="5.38" height="5.38" transform="translate(23.798 102.709)"/><rect class="ai" width="22.41" height="17.691" rx="2.18" transform="translate(15.734 96.52)"/><line class="ah" y1="5.501" transform="translate(26.494 97.342)"/><line class="ah" y1="5.501" transform="translate(26.494 108.359)"/><line class="ah" x1="6.931" transform="translate(16.799 105.608)"/><line class="ah" x1="6.958" transform="translate(29.245 105.608)"/><path class="ah" d="M27.92,76.745,30.5,74.52h4.45" transform="translate(1.258 25.964)"/><path class="ah" d="M25.725,80.14l-2.562,2.238H18.7" transform="translate(-1.955 27.922)"/><path class="ah" d="M25.725,76.745,23.163,74.52H18.7" transform="translate(-1.955 25.964)"/><path class="ah" d="M27.92,80.14,30.5,82.378h4.45" transform="translate(1.258 27.922)"/><path class="aj" d="M31.2,71.661l-6.054,17.61H20.872A2.939,2.939,0,0,1,18,86.331V74.519a2.94,2.94,0,0,1,2.94-2.94H30.9Z" transform="translate(-2.198 24.94)"/><path class="v" d="M35.5,120.008H24.2a2.9,2.9,0,0,1-2.9-2.9h0a2.9,2.9,0,0,1,2.9-2.9H35.512a2.9,2.9,0,0,1,2.913,2.886h0a2.9,2.9,0,0,1-2.926,2.913Z" transform="translate(-1.049 39.792)"/><path class="ak" d="M10.81,67.475V142.23c0,2.886,1.618,4.45,3.8,4.517H60.957L89.422,62.715l-.458-.485H16.055a5.232,5.232,0,0,0-5.245,5.245Z" transform="translate(-4.703 21.682)"/><path class="al" d="M101.339,62l-.7,3.128c-1.187,5.394-2.7,12.554-3.856,19.2-1.766,10.032-2.859,17.961-5.542,24.379-.216.526-.445,1.038-.688,1.551-2.481,5.164-5.07,15.52-6.742,22.6H95.325a32.092,32.092,0,0,0,1.348-3.384c3.735-9.884,4.045-14.684,6.675-21.884,2.238-6.041,8.98-25.04,11.1-31.013L116.077,62Z" transform="translate(20.729 21.602)"/><path class="am" d="M80.26,136.341A38.861,38.861,0,0,1,119.121,97.48" transform="translate(19.493 33.963)"/><path class="c" d="M130.317,236.732s.539,2.966,1.241,13.888c.337,5.313,2.939,15.116-1.726,15.048-7.416-.108-7.942-12.351-8.913-16.5-.512-2.144-1.241-3.937-1.618-5.906-.89-4.531,2.157-9.007,4.8-9.992C127.944,231.851,130.317,236.732,130.317,236.732Z" transform="translate(33.039 81.181)"/><path class="c" d="M181.241,244.981s9.911,16.059.809,12.958-11.313-10.9-12.823-12.365l1.025,9.6-.607.108-4.328-14.913s-2.548-5.016,3.964-12.23a32.362,32.362,0,0,0,4.76,15.25c3.91,5.906,8.98,8.374,8.09,4.194a17.4,17.4,0,0,0-.89-2.6Z" transform="translate(48.955 79.485)"/><path class="an" d="M145.674,16.381c0,1.348-.108,2.7-.2,4.126a46.952,46.952,0,0,1-2.387,11.933c-.324.917-.728,1.9-1.187,2.926-2.184,4.706-5.893,9.843-11.138,9.843-3.047,0-5.906-2.009-8.252-5.124-.364-.472-.715-.984-1.052-1.51-3.223-5.03-4.746-13.012-4.746-19.174,0-10.989,5.987-13.969,14.037-13.969,4.247,0,10.275-1.052,13.16,2.966C145.539,10.65,145.727,13.7,145.674,16.381Z" transform="translate(32.192 1.851)"/><path class="an" d="M120.843,75.234s-9.075,25.62-11.745,32.833-2.939,12.014-6.675,21.9-12.81,24.271-12.81,24.271l-4.544-4.8a110.337,110.337,0,0,0,3.209-10.909c1.348-5.744,4.8-21.089,8.009-27.75.243-.5.472-1.011.688-1.551,2.7-6.418,3.776-14.333,5.555-24.352,2.36-13.3,5.933-29.665,5.933-29.665l8.9,1.6Z" transform="translate(21.168 19.237)"/><path class="c" d="M132.916,2.1l-.216.067a59.639,59.639,0,0,0-10.962,5.191c-4.5,2.7-10.909,7.2-10.787,13.12a8.818,8.818,0,0,0,.364,2.7,2.993,2.993,0,0,0,1.861,1.942c1.564.445,4.045-.566,5.636-.957,1.793-.445,3.614-.728,5.394-1.011A93.889,93.889,0,0,0,137.986,20.3c12.8-4.045,9.21-13.026,9.21-13.026Z" transform="translate(30.184 0.733)"/><path class="an" d="M180.206,269.787a46.317,46.317,0,0,1-6.971-12.311,14.536,14.536,0,0,1-.863-5.555c-2.333-10.787-9.156-27.359-14.994-40.654a90.342,90.342,0,0,1-5.272-16.828,108.937,108.937,0,0,1-1.955-12.014v-3.762s15.223-17.381,18.055-17.232q.384,0,.445.485a.994.994,0,0,0,0,.108c.755,6.742,1.348,10.342,2.495,19.565s7,54.152,9.088,64.2a202.829,202.829,0,0,0,6.122,21.467C189.591,275.154,184.48,274.965,180.206,269.787Z" transform="translate(43.842 56.243)"/><path class="ao" d="M159.944,74.852s-2.508-.364-4.342,4.045c-2.023,4.827-4.342,21.008-4.342,21.008" transform="translate(44.229 26.077)"/><path class="ao" d="M158.585,75.16s-2.521.256-3.223,4.962c-.782,5.178.944,21.439.944,21.439" transform="translate(45.587 26.187)"/><path class="ao" d="M157.938,74.85s-2,1.551-.108,5.919c2.077,4.8,12.136,17.691,12.136,17.691" transform="translate(46.235 26.079)"/><path class="ap" d="M224.094,137.957l-11.34,9.358-22.491,5.879L158.09,98.138,186.676,81.27Z" transform="translate(46.608 28.316)"/><path class="aq" d="M152.375,193.02a84.607,84.607,0,0,1-2.225-11.165v-3.506s17.233-16.181,20.442-16.019l.512.445a.792.792,0,0,0,0,.094C171.239,164.231,172.358,180.453,152.375,193.02Z" transform="translate(43.842 56.557)"/><line class="ar" x1="35.126" y1="54.192" transform="translate(228.349 112.377)"/><path class="as" d="M172.11,86.933l35.759,60.381,4.113-9.061,7.227-.3L181.791,81.27" transform="translate(51.493 28.316)"/><path class="at" d="M210.5,148.972l-12.918,5.8-23.462,4.1-26.064-58.79L181.8,84.95Z" transform="translate(43.114 29.598)"/><path class="au" d="M170.56,86.07l25.593,60.3-6.337,7.794" transform="translate(50.953 29.988)"/><path class="y" d="M188.892,156.809l-13.794,3.8-22.087,1.011L144.26,96.36l26-7.2Z" transform="translate(41.79 31.065)"/><path class="av" d="M173.08,84.95l28.707,64.022-6.513-2.211" transform="translate(51.831 29.598)"/><line class="aw" x1="13.255" y1="68.97" transform="translate(203.633 122.706)"/><path class="ax" d="M163.54,89.16l18.635,67.649L176.08,153.4" transform="translate(48.507 31.065)"/><path class="aw" d="M160.79,90.02,177.038,153.1l-7.7,7.214" transform="translate(47.549 31.364)"/><line class="au" x1="23.826" y1="66.22" transform="translate(216.874 118.148)"/><path class="an" d="M137.184,180.72s-.526,7.093-1.119,16.181c-.526,8.09-1.119,17.664-1.443,25.4-.7,16.558-2.292,37.431-2.292,37.431s1.753,20-2.211,19.916c-5.394.7-7-21.116-7-21.116a390.113,390.113,0,0,0-4.612-45.845c-1.092-6.4-1.888-12.554-2.468-18.122-1.645-15.534-1.632-26.644-1.632-26.644l7.146-3.034Z" transform="translate(31.39 57.449)"/><path class="ay" d="M137.184,180.251s-.526,6.594-1.119,15.089a27.952,27.952,0,0,1-20.024-2.211,239.779,239.779,0,0,1-1.632-24.77l7.147-2.818Z" transform="translate(31.39 57.675)"/><path class="az" d="M210.645,203.905s0,42.313-76.306,12.311a350.939,350.939,0,0,1-32.752-15.089c-25.377-13.16-47.99-8.36-53.545-10.787-18.878-8.212,18.878-28.316,48-28.6,19.511-.175,20.469-24.824,21.426-29.894a38.254,38.254,0,0,1,6-14.927c4.6-6.351,11.205-8.009,13.862-13.484a12.028,12.028,0,0,0,1.079-4.207,24.753,24.753,0,0,0,.081-2.872,36.676,36.676,0,0,0-.351-4.585v-.458l-.121-.8c-.148-.89-.27-1.6-.391-2.252l-.067-.364v-.27a.826.826,0,0,0-.108-.458c-.189-.769-.391-1.483-.742-2.616a.243.243,0,0,0-.081-.121,11.111,11.111,0,0,1-4.194-8.279,17.451,17.451,0,0,1,.189-2.6,16.6,16.6,0,0,0-5.178-8.738h0a36.115,36.115,0,0,0-2.886-2.7l-.512-.418-.7-.539-.175-.135s2.2-7.16,4.045-12.27c2.966-8.225,11.165-9.021,16.181-9.965a32.6,32.6,0,0,0,.364,3.614c.863,5.3,3.506,12.068,11.34,12.608,11.3.8,13.565-9.695,14.064-16.585,4.045,1.47,10.41,1.348,15.587,5.11,4.045,2.98,8.266,13.9,8.266,13.9-1.47,1.011-9.371,7.376-9.371,7.376,2.966,9.25,1.011,14.927-.337,17.071a84.573,84.573,0,0,1-12.2-7.43l-4.045,4.261a118.659,118.659,0,0,0,13.241,13.565,23.22,23.22,0,0,0,1.038,6.742C182.881,103.922,207.638,190.812,210.645,203.905Z" transform="translate(6.499 13.391)"/><path class="ap" d="M151.181,72.435l-.162.31a26.685,26.685,0,0,0-2.764,12.877A122.053,122.053,0,0,1,135,71.342l4.49-5.893a106.523,106.523,0,0,0,11.691,6.985Z" transform="translate(38.564 22.804)"/><path class="ba" d="M144.995,160.445c-9.668,7.713-15.776,4.679-21.237,14.2-3.587,6.243-1.861,14.2,4.409,21.251a50.392,50.392,0,0,1,6.162,8.414,350.92,350.92,0,0,1-32.753-15.089c-25.377-13.16-47.989-8.36-53.545-10.787-18.878-8.212,18.878-28.316,48-28.6,19.511-.175,20.469-24.824,21.426-29.894a38.253,38.253,0,0,1,6-14.927c4.6-6.351,11.205-8.009,13.862-13.484a12.028,12.028,0,0,0,1.079-4.207,1.5,1.5,0,0,0,.337-.957h0a47.7,47.7,0,0,0-.62-6.5c0-.148,0-.31,0-.458v-.8c-.148-.89-.27-1.6-.391-2.252l-.067-.364v-.27a.826.826,0,0,0-.108-.458c-.175-.823-.391-1.618-.688-2.7,0,0,2.144,1.632,9.075,2.98,2.953.58,3.061.93,1.267,3.9-2.144,3.533-8.09,18.878-3.3,36.852C146.4,126.425,158.978,149.307,144.995,160.445Z" transform="translate(6.496 25.285)"/><path class="an" d="M143.22,41.125c-.5,7.268-2.7,18.3-14.064,17.529a10.571,10.571,0,0,1-5.879-2.184h0c-3.411-2.7-4.854-7.241-5.394-11.1a36.035,36.035,0,0,1-.364-3.816,26.083,26.083,0,0,0,2.886-.755c2.926-.944,2.993-6.364,2.8-8.441a14.684,14.684,0,0,0,3.614,3.034,7.928,7.928,0,0,0,3.695.957c4.126,0,6.742-2.872,8.765-5.542a28.716,28.716,0,0,0,0,5.191,5.515,5.515,0,0,0,3.937,5.124Z" transform="translate(32.474 10.736)"/><rect class="c" width="4.018" height="72.719" transform="matrix(0.98, 0.2, -0.2, 0.98, 99.148, 186.978)"/><path class="at" d="M90.953,189.726,74.665,269.538A13.619,13.619,0,0,1,58.605,280.15l-14.832-3.02-11.839-2.414a13.605,13.605,0,0,1-10.612-16.059l13.551-66.462a13.592,13.592,0,0,1,16.059-10.612l13.363,2.7Z" transform="translate(-1.138 63.167)"/><path class="bb" d="M64.45,184.444a13.605,13.605,0,0,0-16.059,10.612L34.84,261.518a13.592,13.592,0,0,0,8.953,15.6l-11.839-2.414a13.605,13.605,0,0,1-10.612-16.059l13.551-66.462a13.592,13.592,0,0,1,16.059-10.612l13.363,2.7Z" transform="translate(-1.131 63.163)"/><g class="bc" transform="translate(25.055 250.487)"><path d="M28.418,265.616c-.351,1.7-.189,3.169.351,3.277s1.267-1.187,1.6-2.885l15.56-76.279c.351-1.7.189-3.169-.351-3.277s-1.267,1.187-1.6,2.886Z" transform="translate(-23.688 -185.528)"/><path d="M25.048,264.922c-.351,1.7-.189,3.169.351,3.277s1.267-1.187,1.6-2.886l15.574-76.265c.351-1.7.189-3.169-.351-3.277s-1.267,1.187-1.6,2.886Z" transform="translate(-24.862 -185.765)"/><path d="M40.508,268.076c-.351,1.7-.189,3.169.351,3.277s1.267-1.187,1.6-2.886l15.56-76.279c.351-1.7.189-3.169-.351-3.277s-1.267,1.187-1.6,2.886Z" transform="translate(-19.476 -184.671)"/><path d="M37.128,267.386c-.351,1.7-.189,3.169.351,3.277s1.267-1.187,1.6-2.886L54.644,191.5c.351-1.7.189-3.169-.351-3.277s-1.268,1.187-1.6,2.886Z" transform="translate(-20.654 -184.912)"/><path d="M47.238,269.456c-.351,1.7-.189,3.169.351,3.277s1.267-1.187,1.6-2.886l15.56-76.279c.351-1.7.189-3.169-.351-3.277s-1.267,1.187-1.6,2.886Z" transform="translate(-17.131 -184.191)"/><path d="M43.858,268.776c-.351,1.7-.189,3.169.351,3.277s1.267-1.187,1.6-2.886l15.56-76.319c.351-1.7.189-3.169-.351-3.277s-1.267,1.187-1.6,2.886Z" transform="translate(-18.309 -184.441)"/><path d="M53.968,270.823c-.351,1.7-.189,3.169.351,3.277s1.267-1.187,1.6-2.886L71.5,194.948c.351-1.7.189-3.169-.351-3.277s-1.267,1.187-1.6,2.886Z" transform="translate(-14.787 -183.71)"/><path d="M50.588,270.136c-.351,1.7-.189,3.169.351,3.277s1.267-1.187,1.6-2.886L68.1,194.248c.351-1.7.189-3.169-.351-3.277s-1.267,1.187-1.6,2.886Z" transform="translate(-15.964 -183.954)"/><path d="M58.048,266.224c-.351,1.7-.189,3.169.351,3.277s1.267-1.187,1.6-2.886l14.5-71.007c.351-1.7.189-3.169-.351-3.277s-1.268,1.187-1.6,2.886Z" transform="translate(-13.365 -183.48)"/></g><rect class="c" width="4.005" height="5.34" transform="matrix(0.2, -0.98, 0.98, 0.2, 31.293, 342.028)"/><path class="c" d="M53.441,262.881a7.645,7.645,0,1,1,7.47-6.122,7.726,7.726,0,0,1-7.484,6.122Z" transform="translate(7.478 86.261)"/><path class="g" d="M53.744,249.168a6.391,6.391,0,1,1-6.257,5.11,6.391,6.391,0,0,1,6.257-5.11m0-2.508a8.9,8.9,0,1,0,1.78.175,8.9,8.9,0,0,0-1.78-.175Z" transform="translate(7.162 85.937)"/><rect class="c" width="94.819" height="2.265" transform="matrix(0.2, -0.98, 0.98, 0.2, 35.105, 338.762)"/><path class="an" d="M139.366,23.108a5.825,5.825,0,0,1-2.157,3.708c-.351.2-1.632.971-.135-4.288.62-2.184.9-3.681,1.564-3.708C140,18.82,139.918,20.937,139.366,23.108Z" transform="translate(39.039 6.558)"/><path class="an" d="M115.732,24a5.5,5.5,0,0,0,2.077,3.789c.364.216,1.712,1.025.472-4.288-.512-2.211-.715-3.722-1.429-3.762C115.354,19.646,115.287,21.763,115.732,24Z" transform="translate(31.767 6.878)"/><path class="bd" d="M139.233,30.76s-.661,5-7.025,9.439c-4.922,3.384-10.261,4.045-14.374,5.164a36.043,36.043,0,0,1-.364-3.816,26.076,26.076,0,0,0,2.886-.755c2.926-.944,2.993-6.351,2.8-8.427a9.02,9.02,0,0,0,.89.944c2.346,2.144,4.045,3.047,6.418,3.047C134.595,36.315,137.3,33.416,139.233,30.76Z" transform="translate(32.457 10.718)"/><path class="be" d="M129.74,68.57s3.614,1.632,4.935,2.441c1.793,1.106,3.034,3.546,3.964,6.23.769,2.211,4.342,7.618,11.893,13.12,0,0-1.092-7.322-.526-9.668l-13.174-13.9Z" transform="translate(36.731 23.271)"/><path class="bf" d="M131.094,56.52a20.078,20.078,0,0,1,6.23,5.313c2.845,3.654-4.45,5.232-4.45,5.232l-4.544-7.133.31-2.98Z" transform="translate(36.24 19.693)"/><path class="bg" d="M137.3,71.615l-8.32.971a.944.944,0,0,1-1.025-.715l-4.234-17.529a.944.944,0,0,1,.809-1.16l8.32-.971a.944.944,0,0,1,1.025.715L138.1,70.455a.944.944,0,0,1-.809,1.16Z" transform="translate(34.624 18.19)"/><path class="an" d="M144.554,68.894a5.677,5.677,0,0,1-2.144-2.2c-2.063-3.937-4.369-6.634-5.973-7.565a20.927,20.927,0,0,0-7.066-1.429,13.834,13.834,0,0,0-5.394.876c-1.578.458-.31,2.373,2.468,1.82,2.319-.458,5.812.3,6.068,1.348s-3.9.3-5.987,1.011-2.184,1.78-1.928,2.292a1.011,1.011,0,0,0,.85.5c.458,0,.674-.31,1.2-.418a13.618,13.618,0,0,1,4.827.742,34.36,34.36,0,0,0-4.342.108,1.645,1.645,0,0,0-1.038,1.241c-.121.539,0,1.052.607,1.106.364,0,.27-.216.715-.175a26.968,26.968,0,0,1,4.355.863,6.567,6.567,0,0,1-3.452.27c-1.092-.485-1.348.823-.62,1.348a4.045,4.045,0,0,0,2.319.917,8.913,8.913,0,0,1,3.2.688c3.223,1.348,4.328,1.119,5.636,2.238.661.566,1.038,1.065,1.888.755C143.57,74.072,146.267,72.333,144.554,68.894Z" transform="translate(34.484 20.102)"/><ellipse class="bh" cx="0.661" cy="0.796" rx="0.661" ry="0.796" transform="translate(162.693 74.393) rotate(-70.37)"/><path class="an" d="M171.106,99.973c-3.034,1.632-10.787.984-22.842-9.87A115.963,115.963,0,0,1,134.78,76.12L139.5,69.93a106.526,106.526,0,0,0,11.758,6.985c2.063,1.052,4.247,2.063,6.432,2.926l1.888.876-5.11-8.266h0L153.2,70.389c-.31-3.034-.809-4.665-2.548-9.708,0,0,8.994-7.052,10.45-8.09,0,0,13.322,26.038,13.942,31.768S175.138,97.815,171.106,99.973Z" transform="translate(38.487 18.324)"/><path class="an" d="M84.146,138.662s1.793-.769,2.077-.418c.607.7-1.348,1.982-1.348,1.982H83.35v-1.011Z" transform="translate(20.569 48.133)"/><path class="bi" d="M141.733,38.46c-.5,7.268-2.7,18.3-14.064,17.529A10.571,10.571,0,0,1,121.79,53.8c3.4,1.969,9.021,2.589,12.918-.121C140.951,49.315,141.733,38.46,141.733,38.46Z" transform="translate(33.962 13.401)"/><path class="an" d="M82.849,144.406c1.524.836,3.357.256,3.627.984s-2.387,1.551-5.313.769c-3.735-1.011-5.164-3.924-3.8-6.742.836-1.766,1.564-2.778,4.355-5.313a28.492,28.492,0,0,0,6.54-9.655l3.951,4.787-4.463,6.607Z" transform="translate(18.306 43.36)"/><circle class="c" cx="2.764" cy="2.764" r="2.764" transform="matrix(0.2, -0.98, 0.98, 0.2, 97.906, 187.376)"/><circle class="c" cx="2.764" cy="2.764" r="2.764" transform="matrix(0.2, -0.98, 0.98, 0.2, 105.551, 188.922)"/><rect class="c" width="7.807" height="5.515" transform="matrix(0.98, 0.2, -0.2, 0.98, 101.709, 182.505)"/><path class="an" d="M92.173,127.07a20.819,20.819,0,0,0-3.02,8.09c-.647,3.627-3.506,4.288-4.045,5.394s0,2.252-.8,3.425-2.845.93-2.575,0a11.488,11.488,0,0,0,.512-4.854,11.542,11.542,0,0,1,1.726-5.785l1.5-5.542Z" transform="translate(19.999 44.272)"/><path class="bj" d="M85.017,138.425c-.593,1.065,0,2.252-.8,3.425s-2.845.93-2.575,0a11.488,11.488,0,0,0,.485-4.773,5.286,5.286,0,0,1,1.348-4.167" transform="translate(19.967 46.307)"/><path class="bk" d="M153.12,73.45s3.25,1.348,5,1.82,5.906,1.187,8.212,4.045" transform="translate(44.877 25.591)"/><path class="ao" d="M157.42,74.82a31.189,31.189,0,0,1,7.187,2.7c4.665,2.36,15.1,10.221,15.1,10.221" transform="translate(46.375 26.069)"/><path class="ao" d="M157.48,74.9a11.529,11.529,0,0,1,6.095,4.261c2.117,2.6,4.949,8.09,7.227,12.769" transform="translate(46.396 26.097)"/><path class="ao" d="M157.48,74.9s2.575.553,3.371,5.232c.539,3.155.175,10.167-.148,15.372" transform="translate(46.396 26.097)"/><path class="bl" d="M149.982,71.866l-1.065-1.6c-.472-4.733-1.524-6.54-2.427-9.681,0,0,9.007-6.944,10.477-8.009C156.967,52.57,149.6,63.034,149.982,71.866Z" transform="translate(42.567 18.317)"/><path class="bm" d="M108.657,57.978s-3.061,12.877-5.623,23.5S96.7,103.581,94,107.936c2.7-6.418,3.775-14.333,5.555-24.352,2.36-13.3,5.946-28.424,5.946-28.424s1.119.863,1.888,1.591Z" transform="translate(24.28 19.219)"/><path class="bn" d="M123.047,42.452s-7.726,1.7-12.136,6.162c-2.292,2.319-5.178,15.1-5.178,15.1l-3.3-2.7,4.045-11.825c2.966-8.67,11.165-9.439,16.181-10.5a36.073,36.073,0,0,0,.391,3.762Z" transform="translate(27.217 13.481)"/><path class="bo" d="M112.024,52.41s-2.36,8.333-4.234,11.084a16.289,16.289,0,0,1,2.077,5.394v.5s2.09-10.41,2.481-12.284A13.484,13.484,0,0,0,112.024,52.41Z" transform="translate(29.084 18.261)"/><path class="bp" d="M145.093,50.56s1.5,6.4,4.423,8.9l-2.414,2s-1.861-5.07-2.279-6.54A11.772,11.772,0,0,1,145.093,50.56Z" transform="translate(41.955 17.617)"/><path class="ao" d="M120.08,23.28c0,.351,2.7,2.1,6.081.526" transform="translate(33.366 8.112)"/><path class="c" d="M119.24,21.817a5.609,5.609,0,0,1,4.126-.553,6.81,6.81,0,0,1,1.969.782,5.812,5.812,0,0,1,1.591,1.348L125,22.747a18.875,18.875,0,0,0-1.861-.512,18.527,18.527,0,0,0-3.9-.418Z" transform="translate(33.073 7.351)"/><path class="c" d="M136.084,22.356a18.54,18.54,0,0,0-3.924.175,18.877,18.877,0,0,0-1.9.391l-1.969.512a5.811,5.811,0,0,1,1.686-1.254A6.809,6.809,0,0,1,132,21.534a5.609,5.609,0,0,1,4.086.823Z" transform="translate(36.226 7.472)"/><path class="c" d="M128.63,9.768s4.045.957,4.369,3.762c.445,4.382,4.328,4.045,4.665,6.944.566,4.8,1.874,5.946,2.441,5.016a18.544,18.544,0,0,0,1.146-3.951S143.6,9.215,143.381,9,136.9,8.19,136.9,8.19Z" transform="translate(36.345 2.855)"/><path class="c" d="M117.627,23.749s.7,3.115,1.173,2.1c.836-1.82,0-10.086,1.348-12.136,1.928-3.074-1.645-2.966-1.645-2.966l-3.3,2.481,1.645,6.486.4,1.6Z" transform="translate(31.666 3.747)"/><circle class="bq" cx="3.587" cy="3.587" r="3.587" transform="translate(165.15 34.332)"/><circle class="bq" cx="3.587" cy="3.587" r="3.587" transform="translate(153.001 34.332)"/><path class="br" d="M86.211,124.531a5.393,5.393,0,0,0-1.9.971c-.094.094,0,.135,0,0s0-.108.148,0a.741.741,0,0,0,.229.121l.351.135a33.555,33.555,0,0,0,4.045.93c1.429.27,2.913.539,4.288.728h.8c.094,0,0,0,0,.067a.526.526,0,0,0,0,.283c0,.229.121.108,0,0A9.25,9.25,0,0,0,92.71,126.1a4.868,4.868,0,0,1,2.427.769,1.254,1.254,0,0,1,.539.984,1.2,1.2,0,0,1-.3.8,1.645,1.645,0,0,1-.458.364,2.7,2.7,0,0,1-.458.2l-.351.094a5.771,5.771,0,0,1-.661.121,15.6,15.6,0,0,1-4.841-.2,12.486,12.486,0,0,1-4.652-1.739,4.316,4.316,0,0,1-.593-.512,2.225,2.225,0,0,1-.5-.769,1.726,1.726,0,0,1-.081-1.146,1.348,1.348,0,0,1,.769-.8,2.886,2.886,0,0,1,1.348-.135,4.949,4.949,0,0,1,1.308.4Z" transform="translate(20.351 43.238)"/><path class="br" d="M141.351,66.631a1.847,1.847,0,0,1,1.348.5,4.476,4.476,0,0,1,.944,1.214,8.089,8.089,0,0,1,.823,2.859,12.513,12.513,0,0,1-.755,5.771,9.3,9.3,0,0,1-1.524,2.7,5.555,5.555,0,0,1-1.348,1.133,2.7,2.7,0,0,1-2.13.351,2.548,2.548,0,0,1-1.564-1.348,4.639,4.639,0,0,1-.472-1.537,6.917,6.917,0,0,1,.27-2.859,14.835,14.835,0,0,0,.984,2.468c.351.728,1,1.348,1.2,1.16a2.414,2.414,0,0,0,1.025-1,10.631,10.631,0,0,0,1.025-2.063,20.659,20.659,0,0,0,1.214-4.8,11.1,11.1,0,0,0,0-2.454A2.7,2.7,0,0,0,141.351,66.631Z" transform="translate(39.13 23.215)"/><path class="bs" d="M125.748,25.39c-.094.715-.2,1.348-.243,2.1a3.8,3.8,0,0,0,.256,1.888.93.93,0,0,0,.607.485,1.348,1.348,0,0,0,.863,0,2.7,2.7,0,0,0,1.348-1.348,2.306,2.306,0,0,1-1.133,1.9,1.726,1.726,0,0,1-1.227.094,1.564,1.564,0,0,1-1.025-.769,3.438,3.438,0,0,1-.162-2.319A6.957,6.957,0,0,1,125.748,25.39Z" transform="translate(35.047 8.847)"/><ellipse class="c" cx="0.728" cy="0.553" rx="0.728" ry="0.553" transform="translate(155.617 32.35)"/><path class="ao" d="M134.841,23.28c0,.351-2.7,2.1-6.081.526" transform="translate(36.39 8.112)"/><ellipse class="c" cx="0.728" cy="0.553" rx="0.728" ry="0.553" transform="translate(167.604 32.35)"/><path class="br" d="M124.59,30.4c1.254-.148,2.319-.135,3.371-.243a13.333,13.333,0,0,0,1.537-.243,16.65,16.65,0,0,0,1.645-.5,2.94,2.94,0,0,1-1.214,1.456,4.342,4.342,0,0,1-1.834.62,5.137,5.137,0,0,1-1.874-.189A3.856,3.856,0,0,1,124.59,30.4Z" transform="translate(34.937 10.251)"/><path class="br" d="M125.74,30.6a5.582,5.582,0,0,1,1.5-.283,5.88,5.88,0,0,1,1.5.229,1.572,1.572,0,0,1-2.993.054Z" transform="translate(35.338 10.565)"/><path class="at" d="M157.4,87.049s-11.6,4.841-22.788,4.935a49.081,49.081,0,0,1-16.113-2.7,34.82,34.82,0,0,1-4.3-1.807s-.216-6.675-.512-8.36A27.993,27.993,0,0,0,120.7,81.9a54.476,54.476,0,0,0,33.71-2.05l1.16.984A33.052,33.052,0,0,0,157.4,87.049Z" transform="translate(31.14 27.567)"/><path d="M120.764,81.955a66.367,66.367,0,0,0-2.184,7.376,48.257,48.257,0,0,1-5.07-2.13,26.227,26.227,0,0,0,.229-8.09A27.562,27.562,0,0,0,120.764,81.955Z" transform="translate(31.077 27.563)"/><path class="bt" d="M148.22,77.938a9.52,9.52,0,0,0,1.591-4.477c.539-4.908-2.009-10.585-3.816-15.641a60.144,60.144,0,0,1-2.225-8.09" transform="translate(41.619 17.327)"/><path class="bt" d="M145.3,49.72a13.982,13.982,0,0,0-.27,6.31" transform="translate(41.976 17.324)"/><path class="bt" d="M112.435,50.55a58.989,58.989,0,0,1-.944,9.088c-.957,5.043-2.7,10.491-2.2,13.484.728,4.113,2.953,7.713,9.439,9.129" transform="translate(29.577 17.613)"/><path class="bt" d="M110.64,51.37a16.9,16.9,0,0,1,.849,4.773" transform="translate(30.077 17.899)"/><path class="bu" d="M152.205,93.33l-14.5,1.578,8.751,65.262,24.3-.7Z" transform="translate(39.508 32.517)"/><path class="bv" d="M148.46,93.6l3.789-1.038,19.444,66.867-4.679.31Z" transform="translate(43.253 32.249)"/></g></svg>