<svg xmlns="http://www.w3.org/2000/svg" xmlns:xlink="http://www.w3.org/1999/xlink" width="382.656" height="356.486" viewBox="0 0 382.656 356.486"><defs><style>.a,.k,.m,.o,.p,.q,.r,.s,.v,.w,.x,.y{fill:#231f20;}.a,.cs,.l,.m,.o,.p,.q,.r,.s,.v,.w,.x,.y{stroke:#231f20;}.a,.av,.be,.bl,.bn,.by,.bz,.cg,.co,.cs,.cz,.dd,.di,.dt,.ed,.i,.l,.m,.o,.p,.q,.r,.v,.w,.x,.y{stroke-miterlimit:10;}.ak,.av,.b,.be,.bl,.bn,.cf,.cg,.co,.cs,.cz,.dd,.di,.dt,.ed,.h,.i,.l{fill:none;}.ae,.av,.ax,.br,.bx,.c,.cg,.d,.dm,.dn,.e,.f,.r,.v,.y{fill-rule:evenodd;}.c{fill:url(#a);}.as,.d,.g{opacity:0.5;}.d{fill:url(#b);}.e,.f{opacity:0.8;}.e{fill:url(#c);}.f{fill:url(#d);}.h{stroke:#88898a;stroke-width:0.75px;}.bt,.cf,.dn,.h,.s{stroke-linecap:round;}.ak,.bt,.cf,.dn,.h,.s{stroke-linejoin:round;}.co,.i{stroke:#fff;}.bz,.dt,.i,.x{stroke-width:0.9px;}.j{opacity:0.1;}.be,.m{stroke-width:0.86px;}.n{clip-path:url(#e);}.bj,.bp,.br,.o,.r{opacity:0.9;}.bl,.p{stroke-width:0.23px;}.bn,.cg,.q,.y{stroke-width:0.92px;}.bt,.cf,.s{stroke-width:0.54px;}.t{clip-path:url(#f);}.u{clip-path:url(#g);}.by,.w{stroke-width:0.64px;}.z{fill:url(#h);}.aa{fill:url(#i);}.ab{fill:url(#j);}.ac{fill:#603728;}.ad,.al,.dm{fill:#fff;}.ae,.ai{fill:#fec813;}.af,.am{opacity:0.7;}.af{fill:url(#k);}.ag{fill:#a6afb4;}.ah{fill:url(#l);}.aj{fill:url(#p);}.ak{stroke:#82919a;stroke-width:2.1px;}.al,.aw{opacity:0.4;}.am{fill:url(#q);}.an{fill:url(#r);}.ao{fill:url(#s);}.ap{fill:#c2c3c4;}.aq{fill:#1b2246;}.ar{clip-path:url(#w);}.as{fill:#27325b;}.at{fill:#f9b17d;}.au{fill:#93593d;}.av,.ed{stroke:#603728;stroke-width:1.07px;}.aw{fill:url(#x);}.ax{fill:#8e583d;}.ay{fill:#d0d2d3;}.az{fill:#88898a;}.ba{fill:#af86e0;}.bb{fill:#ee7762;}.bc,.bt,.by,.bz,.dn{fill:#eeb08a;}.bd{fill:url(#y);}.be{stroke:#58348c;}.bf{fill:url(#z);}.bg{fill:#faba92;}.bh{clip-path:url(#aa);}.bi{fill:url(#ab);}.bj{fill:url(#ac);}.bk{fill:#4850d9;}.bl{stroke:#ab4841;}.bm{fill:url(#ad);}.bn{stroke:#3d48ad;}.bo{fill:url(#ae);}.bp{fill:url(#af);}.bq{fill:#b06c10;}.br{fill:url(#ag);}.bs{fill:#1a2146;}.bt,.dn{stroke:#d55e40;}.bu{clip-path:url(#ah);}.bv{fill:url(#ai);}.bw{clip-path:url(#aj);}.bx{fill:url(#ak);}.by,.bz,.cf{stroke:#ba5427;}.ca{fill:#91293b;}.cb{fill:#ba5427;}.cc{fill:url(#al);}.cd{fill:url(#am);}.ce{fill:#d6a313;}.cg{stroke:#938a4a;}.ch{fill:url(#an);}.ci{fill:#d55e40;}.cj{fill:#eb9f75;}.ck{fill:#d9936c;}.cl{fill:url(#ao);}.cm{fill:#153d6d;}.cn{clip-path:url(#ap);}.co,.dd{stroke-width:0.84px;}.cp{fill:#4e273f;}.cq{fill:#a26f51;}.cr{fill:url(#aq);}.cs{stroke-width:0.63px;}.ct{fill:url(#ar);}.cu{fill:url(#as);}.cv{clip-path:url(#at);}.cw{fill:#9ea0a3;}.cx{fill:url(#au);}.cy{fill:url(#av);}.cz{stroke:#1a2146;stroke-width:0.45px;}.da{fill:url(#aw);}.db{fill:#2b78f4;}.dc{fill:url(#ax);}.dd{stroke:#19054a;}.de{fill:url(#ay);}.df{fill:#ae246c;}.dg{fill:#7fd4e3;}.dh{fill:#ab4841;}.di{stroke:#410dbf;stroke-width:0.59px;}.dj{fill:url(#az);}.dk{fill:url(#ba);}.dl{fill:url(#bb);}.dn{stroke-width:0.5px;}.do{clip-path:url(#bc);}.dp{fill:url(#bd);}.dq{fill:url(#be);}.dr{fill:url(#bf);}.ds{fill:#ad664d;}.dt{stroke:#ee7762;}.du{fill:#808182;}.dv{fill:#98a5ac;}.dw{clip-path:url(#bg);}.dx{fill:url(#bh);}.dy{fill:#c8cfd3;}.dz{fill:url(#bi);}.ea{fill:url(#bj);}.eb{fill:url(#bk);}.ec{fill:url(#bl);}.ee{fill:#43c59e;}.ef{clip-path:url(#bm);}.eg{fill:url(#bn);}.eh{clip-path:url(#bo);}.ei{fill:url(#bp);}.ej{clip-path:url(#bq);}.ek{fill:url(#br);}.el{clip-path:url(#bs);}.em{opacity:0.6;fill:url(#bt);}</style><linearGradient id="a" y1="0.5" x2="1" y2="0.5" gradientUnits="objectBoundingBox"><stop offset="0" stop-color="#fff8ed"/><stop offset="1" stop-color="#ffe2c5"/></linearGradient><linearGradient id="b" y1="0.5" x2="1" y2="0.5" gradientUnits="objectBoundingBox"><stop offset="0.01" stop-color="#ef9e11" stop-opacity="0.051"/><stop offset="1" stop-color="#ba5320" stop-opacity="0.149"/></linearGradient><linearGradient id="c" x1="0" y1="0.5" x2="1" y2="0.5" xlink:href="#b"/><linearGradient id="d" x1="0" y1="0.5" x2="1" y2="0.5" xlink:href="#b"/><clipPath id="e"><path class="a" d="M287.843,201.645l.1-.775s-7.531,6.5-14.937,12.254c-2.611,2.032-6.925,3.966-8.351,4.928-8.021,5.347-9.3,7.869-13.591,9.3,0,0-4.322,1.23-5.481,1.684a5.419,5.419,0,0,0-2.264,1.97c-.811.891-1.4.722-2.112.891s-.374,1.016.829,1.016a2.87,2.87,0,0,0,2.21-.686l.98,1.889a3.469,3.469,0,0,1-.374.285l-.054-.071-.089.16a2.4,2.4,0,0,1-3.208-.3s-.187-.686-.517-.615-.33.348-.107,1.069a2.513,2.513,0,0,0,1.114,1.328,2.253,2.253,0,0,1-.668-.374s-.472-.374-.677-.214-.2.463.285,1.007a2.674,2.674,0,0,0,2.371.829h.08a1.782,1.782,0,0,1-1.016.178s-.677-.143-.793.071,0,.517.731.749a3.333,3.333,0,0,0,2.611-.446,4.645,4.645,0,0,0,.891-.82l.089.125a2.4,2.4,0,0,1-1.462,1.372c-1.034.374-1.052.455-1.052.633s.891.258,2.032-.2a7.272,7.272,0,0,0,3.725-3.565c.232-.437.437-.891.633-1.328.294-.659.891-2.041.891-2.041l3.467-1.114c.749-.374,6.951-2.424,13.493-5.214,3.743-1.6,25.845-12.138,25.845-12.138Z" transform="translate(-240.517 -200.87)"/></clipPath><clipPath id="f"><ellipse class="a" cx="2.674" cy="2.674" rx="2.674" ry="2.674"/></clipPath><clipPath id="g"><path class="a" d="M335.066,221.519a3.716,3.716,0,0,1-4.019-1.658c-1.23-1.72-1.506-1.025-1.533.152a1.649,1.649,0,0,1-1.56-1.23,2.353,2.353,0,0,1-1.078-3.2,2.094,2.094,0,0,1-.089-2.674,1.649,1.649,0,0,1,1.061-2.192c1.952-.891,5.517,1.577,8.146,4.634,3.752,4.349,12.317,7.433,12.317,7.433a7.21,7.21,0,0,1,5.526,5.811c.775,4.893.535,9.982-2.13,9.741a12,12,0,0,1-5.962-2.905C341.188,231.171,336.4,223.765,335.066,221.519Z" transform="translate(-326.347 -210.533)"/></clipPath><linearGradient id="h" x1="0.748" y1="0.664" x2="0.152" y2="-0.023" gradientUnits="objectBoundingBox"><stop offset="0" stop-color="#fff" stop-opacity="0.102"/><stop offset="0.35" stop-color="#999fbb" stop-opacity="0.2"/><stop offset="0.99" stop-color="#38447a" stop-opacity="0.302"/></linearGradient><linearGradient id="i" x1="-1.877" y1="2.687" x2="-2.879" y2="1.037" xlink:href="#h"/><linearGradient id="j" x1="0.5" y1="1.604" x2="0.5" y2="-0.139" xlink:href="#h"/><radialGradient id="k" cx="0.539" cy="0.182" r="0.671" gradientTransform="translate(-0.063 0) scale(1.117 1)" gradientUnits="objectBoundingBox"><stop offset="0.01" stop-color="#fff"/><stop offset="0.81" stop-color="#fff" stop-opacity="0"/></radialGradient><linearGradient id="l" y1="0.5" x2="1" y2="0.5" gradientUnits="objectBoundingBox"><stop offset="0.02" stop-color="#8c959b"/><stop offset="0.82" stop-color="#808f98"/></linearGradient><linearGradient id="p" x1="0" y1="0.5" x2="0.999" y2="0.5" xlink:href="#l"/><radialGradient id="q" cx="0.539" cy="0.182" r="0.671" xlink:href="#k"/><linearGradient id="r" x1="-0.004" y1="0.5" x2="1" y2="0.5" xlink:href="#l"/><linearGradient id="s" x1="0.001" y1="0.5" x2="1" y2="0.5" xlink:href="#l"/><clipPath id="w"><rect class="b" width="94.995" height="196.041"/></clipPath><linearGradient id="x" x1="1.147" y1="-0.286" x2="0.425" y2="1.137" gradientTransform="matrix(1, 0, 0, 1, 0, 0)" xlink:href="#k"/><linearGradient id="y" x1="-4.059" y1="0.255" x2="2.31" y2="0.609" gradientUnits="objectBoundingBox"><stop offset="0.01" stop-color="#38447a" stop-opacity="0"/><stop offset="0.12" stop-color="#353e6b" stop-opacity="0.161"/><stop offset="0.65" stop-color="#282734" stop-opacity="0.78"/><stop offset="1" stop-color="#231f20"/></linearGradient><linearGradient id="z" x1="-1.804" y1="0.478" x2="1.483" y2="0.51" xlink:href="#y"/><clipPath id="aa"><path class="b" d="M280.923,198.115l.1-.775s-7.531,6.5-14.937,12.254c-2.611,2.032-6.925,3.966-8.351,4.928-8.021,5.347-9.3,7.869-13.591,9.3,0,0-4.322,1.23-5.481,1.684a5.418,5.418,0,0,0-2.264,1.97c-.811.891-1.4.722-2.112.891s-.374,1.016.829,1.016a2.869,2.869,0,0,0,2.21-.686l.98,1.889a3.471,3.471,0,0,1-.374.285l-.053-.071-.089.16a2.4,2.4,0,0,1-3.208-.3s-.187-.686-.517-.615-.33.348-.107,1.069a2.513,2.513,0,0,0,1.114,1.328,2.255,2.255,0,0,1-.668-.374s-.472-.374-.677-.214-.2.463.285,1.007a2.674,2.674,0,0,0,2.371.829h.08a1.783,1.783,0,0,1-1.016.178s-.677-.143-.793.071,0,.517.731.749a3.333,3.333,0,0,0,2.611-.446,4.641,4.641,0,0,0,.891-.82l.089.125a2.4,2.4,0,0,1-1.462,1.372c-1.034.374-1.052.454-1.052.633s.891.258,2.032-.2a7.272,7.272,0,0,0,3.725-3.565c.232-.437.437-.891.633-1.328.294-.659.891-2.041.891-2.041l3.467-1.114c.749-.374,6.951-2.424,13.493-5.214,3.743-1.6,25.845-12.138,25.845-12.138Z" transform="translate(-233.598 -197.34)"/></clipPath><linearGradient id="ab" x1="1.184" y1="-0.62" x2="0.082" y2="1.098" gradientUnits="objectBoundingBox"><stop offset="0.22" stop-color="#d9936c" stop-opacity="0"/><stop offset="0.99" stop-color="#a6515a"/></linearGradient><linearGradient id="ac" x1="0" y1="0.5" x2="1" y2="0.5" xlink:href="#ab"/><linearGradient id="ad" x1="1.736" y1="0.373" x2="-0.519" y2="0.567" gradientUnits="objectBoundingBox"><stop offset="0.22" stop-color="#3d48ad" stop-opacity="0"/><stop offset="0.48" stop-color="#3d48ad" stop-opacity="0.522"/><stop offset="0.67" stop-color="#3d48ad" stop-opacity="0.871"/><stop offset="0.77" stop-color="#3d48ad"/></linearGradient><linearGradient id="ae" x1="0.735" y1="1.591" x2="0.358" y2="-0.172" xlink:href="#ad"/><linearGradient id="af" x1="1.123" y1="2.086" x2="0.296" y2="-0.247" xlink:href="#ab"/><linearGradient id="ag" x1="0.896" y1="-0.053" x2="0.167" y2="0.966" xlink:href="#ab"/><clipPath id="ah"><ellipse class="b" cx="2.674" cy="2.674" rx="2.674" ry="2.674"/></clipPath><linearGradient id="ai" y1="0.5" x2="1.001" y2="0.5" gradientUnits="objectBoundingBox"><stop offset="0.01" stop-color="#88898a"/><stop offset="0.8" stop-color="#c2c3c4"/></linearGradient><clipPath id="aj"><path class="b" d="M328.136,217.989a3.716,3.716,0,0,1-4.019-1.658c-1.23-1.72-1.506-1.025-1.533.152a1.649,1.649,0,0,1-1.56-1.23,2.353,2.353,0,0,1-1.078-3.2,2.094,2.094,0,0,1-.089-2.674,1.649,1.649,0,0,1,1.06-2.192c1.952-.891,5.517,1.577,8.146,4.634,3.752,4.349,12.317,7.433,12.317,7.433a7.21,7.21,0,0,1,5.526,5.811c.775,4.893.535,9.982-2.13,9.741a12,12,0,0,1-5.962-2.905C334.294,227.641,329.472,220.235,328.136,217.989Z" transform="translate(-319.417 -207.003)"/></clipPath><linearGradient id="ak" x1="0.596" y1="0.259" x2="0.24" y2="0.923" xlink:href="#ab"/><radialGradient id="al" cx="-0.248" cy="-0.502" r="1.176" gradientTransform="matrix(0.962, -0.409, 0.447, 0.948, 0.215, -0.128)" gradientUnits="objectBoundingBox"><stop offset="0" stop-color="#ec9981"/><stop offset="0.78" stop-color="#ec9981" stop-opacity="0"/></radialGradient><radialGradient id="am" cx="-0.247" cy="-0.507" r="1.176" gradientTransform="matrix(0.962, -0.409, 0.447, 0.948, 0.217, -0.127)" xlink:href="#al"/><linearGradient id="an" x1="-4.271" y1="-4.752" x2="-5.159" y2="-5.226" xlink:href="#ab"/><linearGradient id="ao" x1="-0.182" y1="0.473" x2="0.945" y2="0.509" gradientUnits="objectBoundingBox"><stop offset="0.07" stop-color="#d9936c" stop-opacity="0"/><stop offset="0.99" stop-color="#a6515a"/></linearGradient><clipPath id="ap"><path class="b" d="M367.894,364.076s2.629,7.869-1.364,9.144c-4.911,1.569-16.532-2.674-18.662-4.456-.758-1.248-.223-5.534,6.809-4.144,2.513.49,5.009-.214,5.811-2.451S367.894,364.076,367.894,364.076Z" transform="translate(-347.61 -361.506)"/></clipPath><linearGradient id="aq" x1="0.808" y1="0.15" x2="-0.1" y2="0.939" xlink:href="#y"/><linearGradient id="ar" x1="-0.193" y1="-0.088" x2="0.621" y2="0.609" gradientUnits="objectBoundingBox"><stop offset="0.22" stop-color="#d9936c" stop-opacity="0"/><stop offset="0.87" stop-color="#ad5b5d" stop-opacity="0.878"/><stop offset="0.99" stop-color="#a6515a"/></linearGradient><linearGradient id="as" x1="1.167" y1="0.635" x2="0.11" y2="0.446" xlink:href="#ab"/><clipPath id="at"><path class="b" d="M391.5,354.68s4.456,3.565,2.87,7.54c-2.175,5.6-5.107,13.074-6.782,14.919s-8.253,1.979-10.151.561c-2.059-1.533-2.166-3.779-1.257-4.973.285-.374,1.194-1.6,4.073-.891,0,0,.7-8.538.891-9.973S386.388,351.32,391.5,354.68Z" transform="translate(-375.639 -353.941)"/></clipPath><linearGradient id="au" x1="-46.962" y1="42.403" x2="-48.909" y2="42.27" xlink:href="#ab"/><radialGradient id="av" cx="-0.164" cy="-0.45" r="1.174" gradientTransform="matrix(0.967, -0.409, 0.45, 0.948, 0.197, -0.091)" xlink:href="#al"/><linearGradient id="aw" x1="-0.033" y1="0.207" x2="0.675" y2="0.596" xlink:href="#ar"/><linearGradient id="ax" x1="0.614" y1="1.877" x2="0.478" y2="-0.268" gradientUnits="objectBoundingBox"><stop offset="0.01" stop-color="#2b78f4" stop-opacity="0"/><stop offset="0.1" stop-color="#2671e4" stop-opacity="0.129"/><stop offset="0.38" stop-color="#185fb5" stop-opacity="0.502"/><stop offset="0.64" stop-color="#0e5193" stop-opacity="0.78"/><stop offset="0.85" stop-color="#08497e" stop-opacity="0.941"/><stop offset="1" stop-color="#064677"/></linearGradient><linearGradient id="ay" x1="1.426" y1="0.721" x2="-0.521" y2="0.406" xlink:href="#ab"/><linearGradient id="az" x1="1.267" y1="0.972" x2="0.186" y2="0.094" gradientUnits="objectBoundingBox"><stop offset="0.21" stop-color="#7fd4e3" stop-opacity="0"/><stop offset="0.23" stop-color="#7dd3e2" stop-opacity="0.02"/><stop offset="0.49" stop-color="#51b8ca" stop-opacity="0.541"/><stop offset="0.67" stop-color="#36a8bb" stop-opacity="0.871"/><stop offset="0.76" stop-color="#2ba1b5"/></linearGradient><linearGradient id="ba" x1="0.756" y1="1.338" x2="0.175" y2="-0.125" xlink:href="#ax"/><linearGradient id="bb" x1="-0.132" y1="1.119" x2="0.446" y2="0.398" xlink:href="#y"/><clipPath id="bc"><path class="b" d="M387.521,152.986c-1.854-.187-3.618-1.292-4.839-4.349-.365-.891-.954-1.872-1.381-2.781l2.46-.606L387,149.528Z" transform="translate(-381.3 -145.25)"/></clipPath><radialGradient id="bd" cx="-0.258" cy="-0.504" r="1.023" gradientTransform="matrix(1.165, -0.367, 0.534, 1.08, 0.312, -0.054)" xlink:href="#al"/><linearGradient id="be" x1="-0.33" y1="1.678" x2="0.61" y2="0.175" xlink:href="#ab"/><linearGradient id="bf" x1="0.625" y1="2.32" x2="0.424" y2="-0.244" gradientUnits="objectBoundingBox"><stop offset="0.01" stop-color="#ae236c" stop-opacity="0"/><stop offset="0.04" stop-color="#ab226b" stop-opacity="0.051"/><stop offset="0.35" stop-color="#901c5f" stop-opacity="0.459"/><stop offset="0.62" stop-color="#7d1757" stop-opacity="0.749"/><stop offset="0.84" stop-color="#711452" stop-opacity="0.941"/><stop offset="1" stop-color="#6d1350"/></linearGradient><clipPath id="bg"><path class="b" d="M209.661,163.008l-19.732-.41V156.85l19.732,1.007Z" transform="translate(-189.93 -156.85)"/></clipPath><linearGradient id="bh" x1="0.936" y1="0.567" x2="0.163" y2="0.336" gradientUnits="objectBoundingBox"><stop offset="0" stop-color="#fff" stop-opacity="0.502"/><stop offset="0.98" stop-color="#fff" stop-opacity="0"/></linearGradient><linearGradient id="bi" x1="-191.229" y1="-0.324" x2="-191.895" y2="0.857" gradientTransform="matrix(1, 0, 0, 1, 0, 0)" xlink:href="#k"/><linearGradient id="bj" x1="51.294" y1="-0.324" x2="50.685" y2="0.857" gradientTransform="matrix(1, 0, 0, 1, 0, 0)" xlink:href="#k"/><linearGradient id="bk" x1="0.708" y1="-0.364" x2="-0.094" y2="2.393" gradientTransform="matrix(1, 0, 0, 1, 0, 0)" xlink:href="#k"/><linearGradient id="bl" x1="0.655" y1="-0.836" x2="0.077" y2="3.45" gradientTransform="matrix(1, 0, 0, 1, 0, 0)" xlink:href="#k"/><clipPath id="bm"><path class="b" d="M132.273,242.63S115.83,253.761,116,279.5s0,47.956,0,47.956h2.914s-2.228-26.736-1.372-32.886,2.959-6.051,6.6-8.226-.6-6.506,1.782-9.251,3.77-1.2,2.567-8.021,5.08-6.506,5.347-12.334S131.418,248.8,132.273,242.63Z" transform="translate(-115.999 -242.63)"/></clipPath><linearGradient id="bn" x1="249.156" y1="0.429" x2="248.406" y2="0.538" gradientUnits="objectBoundingBox"><stop offset="0.32" stop-color="#43c59e" stop-opacity="0"/><stop offset="0.4" stop-color="#42bd98" stop-opacity="0.188"/><stop offset="0.53" stop-color="#41b190" stop-opacity="0.478"/><stop offset="0.67" stop-color="#3fa889" stop-opacity="0.698"/><stop offset="0.79" stop-color="#3fa184" stop-opacity="0.871"/><stop offset="0.9" stop-color="#3e9d81" stop-opacity="0.969"/><stop offset="0.99" stop-color="#3e9c80"/></linearGradient><clipPath id="bo"><path class="b" d="M84.8,254.26s-.374,12.655,5.419,17.094,3.2,6.381,3.306,8.966a9.224,9.224,0,0,0,4.215,7.228c2.593,1.551-1.176,6.123,6.862,11.907s5.419,22.414,4.634,30.043l1.64.169s1.711-21.211-1.283-34.116c-3.057-13.172-6.675-22.726-15.24-30.587S84.8,254.26,84.8,254.26Z" transform="translate(-84.794 -254.26)"/></clipPath><linearGradient id="bp" x1="0.811" y1="0.408" x2="0.426" y2="0.526" xlink:href="#bn"/><clipPath id="bq"><path class="b" d="M149.713,280.67a9.35,9.35,0,0,0-3.28,4.83c-.891,3.048-2.068,5.606-4.1,6.47-5.7,2.424-1.854,5.927-6.176,8.912-2.326,1.613-3.805,2.879-4.456,5.552-.82,3.4-1.6,4.456-4.456,6.034-.553.3-4.109-.588-5.846,2.861-2.371,4.715-2.994,14.259-2.968,15.668h-1.3a63.65,63.65,0,0,1,4.625-22.664C127.156,295.687,138.056,283.085,149.713,280.67Z" transform="translate(-117.13 -280.67)"/></clipPath><linearGradient id="br" x1="0.552" y1="0.53" x2="0.403" y2="0.416" xlink:href="#bn"/><clipPath id="bs"><path class="b" d="M121.625,350.423h-9.153a7.451,7.451,0,0,1-7.3-5.971L101.5,326.324a3.458,3.458,0,0,1,3.4-4.144h24.615a3.208,3.208,0,0,1,3.146,3.85l-3.734,18.422A7.451,7.451,0,0,1,121.625,350.423Z" transform="translate(-101.433 -322.18)"/></clipPath><linearGradient id="bt" x1="0.147" y1="0.13" x2="0.914" y2="0.826" gradientUnits="objectBoundingBox"><stop offset="0.04" stop-color="#2fb5be" stop-opacity="0"/><stop offset="0.07" stop-color="#58348c" stop-opacity="0.11"/><stop offset="0.25" stop-color="#744ea7" stop-opacity="0.412"/><stop offset="0.41" stop-color="#8862bb" stop-opacity="0.631"/><stop offset="0.49" stop-color="#9069c3" stop-opacity="0.722"/><stop offset="0.63" stop-color="#9d75cf" stop-opacity="0.839"/><stop offset="0.77" stop-color="#a77ed8" stop-opacity="0.929"/><stop offset="0.9" stop-color="#ad84de" stop-opacity="0.98"/><stop offset="0.99" stop-color="#af86e0"/></linearGradient></defs><g transform="translate(0 0)"><path class="c" d="M110.339,255.742c17.388.891,36.388.677,52.912,6.951,35.06,13.315,59.382,42.778,97.383,50.176,21.273,4.117,43.162.811,61.94-10.329C359.755,280.491,381.3,226,371.519,184.2c-5.962-25.516-29.963-43.233-42.092-66.467-16.523-31.638-18.208-72.376-44.418-96.6-23.573-21.79-61.788-28.474-88.792-11.1C174.159,24.222,159.071,47.1,135.908,59.888,117.139,70.253,94.27,68.952,73.692,72.561,53.916,76.028,35.824,83.149,22.4,98.683A88.507,88.507,0,0,0,6.361,126.64c-9.108,25.667-8.841,55.131,3.2,79.773a77.206,77.206,0,0,0,18.154,23.671c7.861,6.684,18.145,13.128,27.9,16.639,16.042,5.775,33.189,7.807,50.211,8.787Z" transform="translate(0.024 -0.017)"/><path class="d" d="M61.257,85.84c-12.21,3.823-23.341,9.8-32.547,19.232C32.925,155.747,52.9,210.806,45.171,249.218a82.474,82.474,0,0,0,13.9,6.684c16.042,5.766,33.135,7.8,50.131,8.77l4.456.241c9.536.472,19.544.633,29.41,1.711-4.269-26.4-14.357-57.243-36.691-85.192C80.9,149.562,65.909,116.979,61.257,85.84Z" transform="translate(-3.102 -9.339)"/><path class="e" d="M199.189,225.5c13.208-38.812-35.052-62.385-43.1-135.465A108.425,108.425,0,0,1,156.5,63a70.393,70.393,0,0,1-6.185,3.841A70.211,70.211,0,0,1,131.6,73.659c-2.273,25.587,3.137,52.9,16.933,81.992,23.243,49.106,15.552,69.515,15.552,69.515Z" transform="translate(-14.24 -6.854)"/><path class="f" d="M375.2,151.2c-8.556-11.033-18.145-21.674-24.491-33.822-16.488-31.585-18.172-72.251-44.347-96.43C282.835-.811,244.682-7.477,217.7,9.866a153.946,153.946,0,0,0-15.873,11.755A118.309,118.309,0,0,0,375.165,151.2Z" transform="translate(-21.607 -0.001)"/><g class="g" transform="translate(25.875 39.587)"><line class="h" x2="49.097" transform="translate(0.758 128.291)"/><line class="h" x2="61.494" transform="translate(0.758 139.146)"/><line class="h" y1="10.597" transform="translate(18.591 117.436)"/><line class="h" y1="10.597" transform="translate(37.707 50.256)"/><line class="h" y1="10.597" transform="translate(17.815 61.628)"/><line class="h" y1="6.176" transform="translate(18.332 43.304)"/><line class="h" y1="10.588" transform="translate(18.849 139.921)"/><line class="h" y1="10.597" transform="translate(48.304 139.395)"/><line class="h" y2="10.597" transform="translate(35.381 128.291)"/><line class="h" x2="36.175" transform="translate(225.674 182.94)"/><line class="h" x2="48.58" transform="translate(225.674 193.786)"/><line class="h" y1="10.597" transform="translate(230.585 172.085)"/><line class="h" y1="10.597" transform="translate(230.843 194.562)"/><line class="h" y1="10.597" transform="translate(260.298 194.045)"/><line class="h" y2="10.588" transform="translate(247.384 182.94)"/><line class="h" x2="49.088" transform="translate(214.311 10.855)"/><line class="h" x2="61.494" transform="translate(214.311 21.71)"/><line class="h" x2="52.956" transform="translate(0 60.852)"/><line class="h" x2="67.822" transform="translate(7.994 49.614)"/><line class="h" y1="10.597" transform="translate(232.135)"/><line class="h" y1="10.588" transform="translate(232.394 22.485)"/><line class="h" y1="10.597" transform="translate(261.849 21.969)"/><line class="h" y2="10.597" transform="translate(248.935 10.855)"/></g><path class="i" d="M132.4,273.87s3.039-5.125,7.379-6.72" transform="translate(-14.382 -29.062)"/><g class="j" transform="translate(214.366 140.611)"><path class="a" d="M329.708,338.668l.775-.33c-.276-8.2-1.283-38.4-1.283-41.985,0-4.144.16-19.446,1.274-27.253s4.937-12.272,7.335-22.949-13.867-9.723-14.349-9.723-10.837,3.271-10.837,3.271a104.464,104.464,0,0,0-2.549,21.755,108.941,108.941,0,0,0,4.456,34.267c2.593,9,9.732,34.9,11.737,42.208A6.186,6.186,0,0,1,329.708,338.668Z" transform="translate(-248.07 -166.328)"/><g transform="translate(74.818 101.47)"><path class="k" d="M329.513,341.867a4.938,4.938,0,0,1,1.782.633q1.163-.481,2.326-.989l-8.146-69.88s-1.649,11.408-.749,29.874C325.44,316.6,328.444,335.477,329.513,341.867Z" transform="translate(-324.458 -271.63)"/><path class="l" d="M329.513,341.867a4.938,4.938,0,0,1,1.782.633q1.163-.481,2.326-.989l-8.146-69.88s-1.649,11.408-.749,29.874C325.44,316.6,328.444,335.477,329.513,341.867Z" transform="translate(-324.458 -271.63)"/></g><path class="a" d="M342.866,235.306l-14.259-1.916s-1.916,23.43-2.068,33.153a214.533,214.533,0,0,0,1.916,30.6c1.069,7.736,2.914,32.975,3.485,41,2.326-.971,4.608-2.014,6.871-3.128.615-3.939,1.506-9.286,2.54-14.072a53.171,53.171,0,0,0,.428-21.568c-1.061-6.158,6.167-27.2,8.074-35.916S348.739,243.594,342.866,235.306Z" transform="translate(-249.865 -166)"/><path class="m" d="M328.383,300.218c1.069,7.736,2.914,32.975,3.485,41h0L326.306,261.7s-.535,8.68-.294,15.151S327.109,290.976,328.383,300.218Z" transform="translate(-249.802 -169.08)"/><path class="a" d="M300.386,174.169a9.172,9.172,0,0,0,.677-4.759c-.241-3.066.971-4.18,3.565-5.107s7.388-2.576,5.686-5.294-9.09-.775-11.327,4.126-.677,7.246-2.478,9.91-5.98,8.6-4.92,14.179c1.248,6.542,4.652,7.6,4.839,11.452.258,5.347-2.424,8.074-1.515,13.93,1.488,9.545,15.418,10.739,19.054,2.611,1.9-4.233,3.779-17.334,3.565-18.012s-14.776-20.6-14.776-20.6Z" transform="translate(-246.046 -157.774)"/><g transform="translate(78.162 69.306)"><path class="k" d="M350.606,258.328v-2.754a2.589,2.589,0,0,0-.053-.588c-.054-.2,0-.178,0-.258s-.045-.437-.071-.651v-.232a4.553,4.553,0,0,0-.1-.686v-.223a3.774,3.774,0,0,0-.116-.7l-.053-.258a3.522,3.522,0,0,0-.125-.668l-.062-.294c-.044-.214-.089-.419-.134-.633l-.08-.339-.143-.588-.1-.374-.143-.544-.116-.383c-.053-.178-.1-.357-.16-.544l-.116-.365-.178-.544-.143-.41-.169-.5-.16-.437-.169-.463-.187-.463-.4-.463-.223-.526-.151-.365-.241-.535-.16-.357-.25-.526-.16-.348-.276-.553-.16-.312-.294-.562-.151-.294-.339-.6-.134-.241-.33-.561-.16-.267-.357-.57-.151-.241-.374-.579-.152-.223-.4-.579-.134-.2c-2.308,3.467-6.586,7.076-14.821,8.27,0,0,4.527,22.548,9.527,25.418,3.2,1.836,1.319,25.533,1.453,34.882s-1.684,23.929-3.235,32.565q1.506-.7,2.995-1.426c.659-3.939,1.551-9.286,2.584-14.072a53.168,53.168,0,0,0,.428-21.568c-.891-5.169,4.055-20.819,6.8-30.872l.178-.642v-.143l.223-.891.125-.481.125-.33.152-.606.053-.214.187-.784v-.187l.178-.758q.178-.82.3-1.658v-.214a5.129,5.129,0,0,1,.08-.633v-.205a2.393,2.393,0,0,1,.063-.659V260.2a4.135,4.135,0,0,1,.044-.74v-.882A.25.25,0,0,0,350.606,258.328Z" transform="translate(-328.21 -235.54)"/><path class="l" d="M350.606,258.328v-2.754a2.589,2.589,0,0,0-.053-.588c-.054-.2,0-.178,0-.258s-.045-.437-.071-.651v-.232a4.553,4.553,0,0,0-.1-.686v-.223a3.774,3.774,0,0,0-.116-.7l-.053-.258a3.522,3.522,0,0,0-.125-.668l-.062-.294c-.044-.214-.089-.419-.134-.633l-.08-.339-.143-.588-.1-.374-.143-.544-.116-.383c-.053-.178-.1-.357-.16-.544l-.116-.365-.178-.544-.143-.41-.169-.5-.16-.437-.169-.463-.187-.463-.4-.463-.223-.526-.151-.365-.241-.535-.16-.357-.25-.526-.16-.348-.276-.553-.16-.312-.294-.562-.151-.294-.339-.6-.134-.241-.33-.561-.16-.267-.357-.57-.151-.241-.374-.579-.152-.223-.4-.579-.134-.2c-2.308,3.467-6.586,7.076-14.821,8.27,0,0,4.527,22.548,9.527,25.418,3.2,1.836,1.319,25.533,1.453,34.882s-1.684,23.929-3.235,32.565q1.506-.7,2.995-1.426c.659-3.939,1.551-9.286,2.584-14.072a53.168,53.168,0,0,0,.428-21.568c-.891-5.169,4.055-20.819,6.8-30.872l.178-.642v-.143l.223-.891.125-.481.125-.33.152-.606.053-.214.187-.784v-.187l.178-.758q.178-.82.3-1.658v-.214a5.129,5.129,0,0,1,.08-.633v-.205a2.393,2.393,0,0,1,.063-.659V260.2a4.135,4.135,0,0,1,.044-.74v-.882A.25.25,0,0,0,350.606,258.328Z" transform="translate(-328.21 -235.54)"/></g><path class="a" d="M287.843,201.645l.1-.775s-7.531,6.5-14.937,12.254c-2.611,2.032-6.925,3.966-8.351,4.928-5.071,3.4-10.525,7.246-14.42,9.34a19.755,19.755,0,0,1-4.652,1.649,5.419,5.419,0,0,0-2.264,1.97c-.811.891-1.4.722-2.112.891s-.374,1.016.829,1.016a2.87,2.87,0,0,0,2.21-.686l.98,1.889a3.469,3.469,0,0,1-.374.285l-.054-.071-.089.16a2.4,2.4,0,0,1-3.208-.3s-.187-.686-.517-.615-.33.348-.107,1.069a2.513,2.513,0,0,0,1.114,1.328,2.253,2.253,0,0,1-.668-.374s-.472-.374-.677-.214-.2.463.285,1.007a2.674,2.674,0,0,0,2.371.829h.08a1.782,1.782,0,0,1-1.016.178s-.677-.143-.793.071,0,.517.731.749a3.333,3.333,0,0,0,2.611-.446,4.645,4.645,0,0,0,.891-.82l.089.125a3.075,3.075,0,0,1-1.462,1.372c-1,.472-1.052.454-1.052.633s.891.258,2.032-.2a7.272,7.272,0,0,0,3.725-3.565c.232-.437.437-.891.633-1.328.294-.659.891-2.041.891-2.041l3.467-1.114c.749-.374,6.951-2.424,13.493-5.214,3.743-1.6,25.845-12.138,25.845-12.138Z" transform="translate(-240.509 -162.462)"/><path class="k" d="M287.843,201.645l.1-.775s-7.531,6.5-14.937,12.254c-2.611,2.032-6.925,3.966-8.351,4.928-8.021,5.347-9.3,7.869-13.591,9.3,0,0-4.322,1.23-5.481,1.684a5.419,5.419,0,0,0-2.264,1.97c-.811.891-1.4.722-2.112.891s-.374,1.016.829,1.016a2.87,2.87,0,0,0,2.21-.686l.98,1.889a3.469,3.469,0,0,1-.374.285l-.054-.071-.089.16a2.4,2.4,0,0,1-3.208-.3s-.187-.686-.517-.615-.33.348-.107,1.069a2.513,2.513,0,0,0,1.114,1.328,2.253,2.253,0,0,1-.668-.374s-.472-.374-.677-.214-.2.463.285,1.007a2.674,2.674,0,0,0,2.371.829h.08a1.782,1.782,0,0,1-1.016.178s-.677-.143-.793.071,0,.517.731.749a3.333,3.333,0,0,0,2.611-.446,4.645,4.645,0,0,0,.891-.82l.089.125a2.4,2.4,0,0,1-1.462,1.372c-1.034.374-1.052.455-1.052.633s.891.258,2.032-.2a7.272,7.272,0,0,0,3.725-3.565c.232-.437.437-.891.633-1.328.294-.659.891-2.041.891-2.041l3.467-1.114c.749-.374,6.951-2.424,13.493-5.214,3.743-1.6,25.845-12.138,25.845-12.138Z" transform="translate(-240.509 -162.462)"/><g class="n" transform="translate(0.009 38.408)"><path class="a" d="M247.327,234.746c1.025-.544,1.372,1.007,1.355,1.889a5.846,5.846,0,0,1-2.763,4.911c-1.123.784-2.95,1.337-2.834,1.007a12.275,12.275,0,0,1,1.782-1.141,37.028,37.028,0,0,0-3.672,1.408c-.749.472.178.062-.071,0s0-1.47-.214-1.782a9.121,9.121,0,0,0-2.371.535c.285,0,.606-.793.508-.82-1.141-.33.553.517,0-.267a14.979,14.979,0,0,1,0-1.622s.41-1.248.383-1.283c-.57-.891,1.613-.045,1.907-.383.757-.891,2.014-.143,2.014-.143l1.782-1.453Z" transform="translate(-240.302 -204.543)"/><path class="o" d="M289.765,204.14s-.258,7.361,2.005,10.08c0,0-18.8,10.08-20.926,11.176a18.187,18.187,0,0,0-3.565,2.388l22.922-6.461,5.882-5.49s1.1-2.674.713-2.843-3.681-5.347-4-5.552S289.765,204.14,289.765,204.14Z" transform="translate(-243.429 -201.226)"/></g><path class="l" d="M287.843,201.645l.1-.775s-7.531,6.5-14.937,12.254c-2.611,2.032-6.925,3.966-8.351,4.928-8.021,5.347-9.3,7.869-13.591,9.3,0,0-4.322,1.23-5.481,1.684a5.419,5.419,0,0,0-2.264,1.97c-.811.891-1.4.722-2.112.891s-.374,1.016.829,1.016a2.87,2.87,0,0,0,2.21-.686l.98,1.889a3.469,3.469,0,0,1-.374.285l-.054-.071-.089.16a2.4,2.4,0,0,1-3.208-.3s-.187-.686-.517-.615-.33.348-.107,1.069a2.513,2.513,0,0,0,1.114,1.328,2.253,2.253,0,0,1-.668-.374s-.472-.374-.677-.214-.2.463.285,1.007a2.674,2.674,0,0,0,2.371.829h.08a1.782,1.782,0,0,1-1.016.178s-.677-.143-.793.071,0,.517.731.749a3.333,3.333,0,0,0,2.611-.446,4.645,4.645,0,0,0,.891-.82l.089.125a2.4,2.4,0,0,1-1.462,1.372c-1.034.374-1.052.455-1.052.633s.891.258,2.032-.2a7.272,7.272,0,0,0,3.725-3.565c.232-.437.437-.891.633-1.328.294-.659.891-2.041.891-2.041l3.467-1.114c.749-.374,6.951-2.424,13.493-5.214,3.743-1.6,25.845-12.138,25.845-12.138Z" transform="translate(-240.509 -162.462)"/><path class="a" d="M342.517,200.261s-2.674-7.976-5.82-11.72c-3.841-4.51-12.735-4.2-17.913-3.77.267.838,0,.8.089.891.258.392-2.032,7.664-6.809,8.565-4.456.838-5.08-4.795-5.08-4.795a30.907,30.907,0,0,0-13.992,9.714s-2.834,10.267,5.347,12.9l2.95-1.355s-1.934,7.442,3.886,10.454c4.251,2.2,7.13-1.3,5.517,12.9,0,0,.2.152.526.437,8.85,7.584,23.172,2.852,27.922-4.456,0,0-1.381-7.852-3.235-14.393a85.574,85.574,0,0,0-3.3-8.556S340.36,206.482,342.517,200.261Z" transform="translate(-246.165 -160.686)"/><path class="p" d="M247.666,231.84c-1.061.339-1.845.472-2.094.57a5.418,5.418,0,0,0-2.264,1.97c-.811.891-1.4.722-2.112.891s-.374,1.016.829,1.016a2.87,2.87,0,0,0,2.21-.686l.98,1.889a3.459,3.459,0,0,1-.374.285l-.053-.071-.089.16a2.4,2.4,0,0,1-3.208-.3s-.187-.686-.517-.615-.33.348-.107,1.069a2.513,2.513,0,0,0,1.114,1.328,2.252,2.252,0,0,1-.668-.374s-.472-.374-.677-.214-.2.463.285,1.007a2.674,2.674,0,0,0,2.371.829h.08a1.782,1.782,0,0,1-1.016.178s-.677-.143-.793.071,0,.517.731.749a3.334,3.334,0,0,0,2.611-.446,4.643,4.643,0,0,0,.891-.82l.089.125a3.074,3.074,0,0,1-1.462,1.372c-1,.472-1.052.455-1.052.633s.891.258,2.032-.2a6.6,6.6,0,0,0,2.433-1.684" transform="translate(-240.507 -165.831)"/><path class="k" d="M331.06,199.09a68.006,68.006,0,0,1,1.684,12.7c.1,6.1-3.565,10.944-5.811,12.477s-.891,7.014-.677,8.627a37.98,37.98,0,0,0,1.631,6.871s11.711-1.408,13.484-7.254c.633-2.1-2.21-17.771-5.124-23.9A83.835,83.835,0,0,0,331.06,199.09Z" transform="translate(-249.77 -162.269)"/><path class="l" d="M331.06,199.09a68.006,68.006,0,0,1,1.684,12.7c.1,6.1-3.565,10.944-5.811,12.477s-.891,7.014-.677,8.627a37.98,37.98,0,0,0,1.631,6.871s11.711-1.408,13.484-7.254c.633-2.1-2.21-17.771-5.124-23.9A83.835,83.835,0,0,0,331.06,199.09Z" transform="translate(-249.77 -162.269)"/><path class="q" d="M336.84,208.533s-2.959-7.237-5.65-10.213" transform="translate(-250.372 -162.185)"/><path class="a" d="M334.516,185.32s-7.914-.151-5.454,25.551c1.462,15.284,5.873,40.3,7.852,47.751,1.462.7,5.82,2.094,5.82,2.094l17.922-9.8L356,224.364l-9.8,1.569a60.149,60.149,0,0,1-11.523,3.378c-1.782-5.748-3.431-12.958-3.431-12.958-.481-9.358-.731-8.912-.891-13.3-.16-4.6,0-15.151,5.731-17.04Z" transform="translate(-250.089 -160.771)"/><path class="k" d="M337.373,188.565c-1.836-2.05-4.6-3.44-9.732-3.565l-8.083.3c.062.374-.071.374,0,.446.258.383-2.005,7.673-6.773,8.591-4.456.891-5.1-4.768-5.1-4.768a30.183,30.183,0,0,0-8.217,4.3v.152s6.675-3.565,8.618-.241,6.559,6.827,14.848,2.46c5.526-2.914,4.928-7.763,14.518-7.13a2.871,2.871,0,0,0,.348,0A2.057,2.057,0,0,0,337.373,188.565Z" transform="translate(-246.922 -160.736)"/><path class="l" d="M337.373,188.565c-1.836-2.05-4.6-3.44-9.732-3.565l-8.083.3c.062.374-.071.374,0,.446.258.383-2.005,7.673-6.773,8.591-4.456.891-5.1-4.768-5.1-4.768a30.183,30.183,0,0,0-8.217,4.3v.152s6.675-3.565,8.618-.241,6.559,6.827,14.848,2.46c5.526-2.914,4.928-7.763,14.518-7.13a2.871,2.871,0,0,0,.348,0A2.057,2.057,0,0,0,337.373,188.565Z" transform="translate(-246.922 -160.736)"/><path class="a" d="M313.651,193.973c4.322-.829,6.934-7.049,6.7-7.406a12.923,12.923,0,0,1-.49-1.39h-.3l-1.087-3.467-11.042,2.139s.775,3.1,1.221,5.659C308.66,189.544,309.328,194.8,313.651,193.973Z" transform="translate(-247.788 -160.378)"/><path class="o" d="M319.889,188.044a27.8,27.8,0,0,0-.1-2.843h-.232l-1-3.191-.7-.16-10.436,2.023s.294,1.159.615,2.674c1.052,1.72,3.021,3.262,9.483,5.044a14.423,14.423,0,0,0,2.362-3.547Z" transform="translate(-247.787 -160.393)"/><path class="a" d="M303.574,178.824s4.349,6.853,10.106,5.1c5.24-1.6,3.859-10.2,3.859-10.2s1.56.642,1.105-2.21-1.979-2.941-2.674-1.56c.187-.365-.214-1.622-.285-2.032a10.757,10.757,0,0,0-.526-1.916,9.053,9.053,0,0,0-2.531-3.128,5.179,5.179,0,0,0-3.182-1.141,9.037,9.037,0,0,0-6.381,2.5,9.572,9.572,0,0,0-2.166,3.217,8.858,8.858,0,0,0-.134,5.846c.071.2.321,1.212.5,1.283,0,0-1.426-.553-1.15,1.194S302.13,181.168,303.574,178.824Z" transform="translate(-246.988 -158.206)"/><path class="a" d="M311.516,163.373s4.608-.784,5.713,6.417c0,0,1.266-2,2.139.16.963,2.388.561,3.11.285,3.449s-.891.151-.891.151a14.384,14.384,0,0,1-1.176,8.092s-2.8,6.354.722,7.869c2.29.989,5.526-5.16,10.3-6.443a11.814,11.814,0,0,1,8.021,1.105,10.543,10.543,0,0,0-6.069-5c-4.456-1.453-7.032-2.317-7.932-7.834s-3.877-13.725-11.229-10.347Z" transform="translate(-248.22 -158.039)"/><path class="a" d="M337.63,210.187a70.4,70.4,0,0,0,2.406,12.192c1.631,4.821,4.821,5.882,4.821,5.882L338.272,210Z" transform="translate(-251.073 -163.456)"/><path class="a" d="M347.414,202.18s6.372,22.236,5.74,26.139-3.351,4.893-3.351,4.893l-6.613-6.239-2-5.347a45.66,45.66,0,0,0-1.31-5.936,48.916,48.916,0,0,0-2.353-6.729Z" transform="translate(-251.062 -162.605)"/><path class="r" d="M337.53,209.78a37.277,37.277,0,0,0,9.135,9.206,20.951,20.951,0,0,1,5.089,4.456l-11.532-4.171S339.081,212.6,337.53,209.78Z" transform="translate(-251.062 -163.432)"/><path class="a" d="M301.521,174.929s.66,0,.651-1.274c0-.945-.66-2.9-.767-4.215-.241-3.066,2.478-3.805,5.151-4.385,4.75-1.025,5.784-3.3,4.082-6.016s-9.607,0-11.791,5.1c-1.506,3.565-.749,7.13-4.367,12.673,1.97-.561,3.271-2.255,4.51-2.674S301.521,174.929,301.521,174.929Z" transform="translate(-246.379 -157.795)"/><ellipse class="a" cx="0.553" cy="0.651" rx="0.553" ry="0.651" transform="translate(60.111 13.563) rotate(-25.22)"/><ellipse class="a" cx="0.553" cy="0.651" rx="0.553" ry="0.651" transform="translate(66.25 11.956) rotate(-25.23)"/><path class="q" d="M315.52,220.36a6.532,6.532,0,0,0,2.674,2.549,9.242,9.242,0,0,0,7.629,0" transform="translate(-248.668 -164.583)"/><path class="q" d="M302.39,213.007s1.462-5.2,1.782-7.317" transform="translate(-247.239 -162.987)"/><path class="q" d="M301.93,205.18s.455,3.467,1.292,4.2" transform="translate(-247.189 -162.931)"/><path class="s" d="M319.3,172s-.33.891.267,1.239" transform="translate(-249.069 -159.322)"/><path class="s" d="M301.29,177.85a.713.713,0,0,1,.57.5c.169.472,0,1.2.633,1.4" transform="translate(-247.12 -159.958)"/><path class="m" d="M323.53,249.38s-.08,8.244,1.417,9.527a4.457,4.457,0,0,0,2.611.258" transform="translate(-249.539 -167.739)"/><path class="m" d="M326.71,249.09a51.683,51.683,0,0,0,1.016,9.108" transform="translate(-249.885 -167.708)"/><path class="m" d="M314.726,245.7s0,4.456-3.066,5.829" transform="translate(-248.248 -167.339)"/><ellipse class="a" cx="2.674" cy="2.674" rx="2.674" ry="2.674" transform="translate(0.947 68.816)"/><path class="a" d="M335.45,233.8l1.631,5.133,6.4,25.48,17.441-9.108-4.269-28.385Z" transform="translate(-250.836 -165.296)"/><ellipse class="k" cx="2.674" cy="2.674" rx="2.674" ry="2.674" transform="translate(0.947 68.816)"/><g class="t" transform="translate(0.947 68.816)"><path class="a" d="M243.674,236.719c1.346-.455,3.075-.508,2.754,1.649a3.012,3.012,0,0,1-2.308,2.415l3.03-1.034s1.114-2.1,1.087-2.184-2.13-2.674-2.228-2.807a15.915,15.915,0,0,0-2.4-.339c-.125,0-1.934,1.782-1.934,1.782l-.125.214.125.2-.178.5A5.776,5.776,0,0,0,243.674,236.719Z" transform="translate(-241.562 -234.928)"/></g><ellipse class="l" cx="2.674" cy="2.674" rx="2.674" ry="2.674" transform="translate(0.947 68.816)"/><path class="a" d="M241.842,236.381a5.191,5.191,0,0,0,.811,0,4.456,4.456,0,0,0,1.782-.677,5.722,5.722,0,0,0,2.46-.267c.7-.205,2.166-1.506,1.515-1.952-.784-.535-3.226.82-3.226.82l-2.121.686-1.283.891Z" transform="translate(-240.646 -165.997)"/><path class="p" d="M241.9,235.72s.053.267,0,.339a.953.953,0,0,1-.8-.089" transform="translate(-240.572 -166.254)"/><path class="a" d="M335.066,221.519a3.69,3.69,0,0,1-4.019-1.658c-1.515-2.148-1.6-.5-1.533.151a1.649,1.649,0,0,1-1.56-1.23,2.353,2.353,0,0,1-1.078-3.2,2.094,2.094,0,0,1-.089-2.674,1.649,1.649,0,0,1,1.061-2.192c1.952-.891,5.517,1.577,8.146,4.634,3.752,4.349,12.317,7.433,12.317,7.433a7.21,7.21,0,0,1,5.526,5.811c.775,4.893.535,9.982-2.13,9.741a12,12,0,0,1-5.962-2.905C341.188,231.171,336.4,223.765,335.066,221.519Z" transform="translate(-249.845 -163.514)"/><path class="k" d="M335.066,221.519a3.716,3.716,0,0,1-4.019-1.658c-1.23-1.72-1.506-1.025-1.533.152a1.649,1.649,0,0,1-1.56-1.23,2.353,2.353,0,0,1-1.078-3.2,2.094,2.094,0,0,1-.089-2.674,1.649,1.649,0,0,1,1.061-2.192c1.952-.891,5.517,1.577,8.146,4.634,3.752,4.349,12.317,7.433,12.317,7.433a7.21,7.21,0,0,1,5.526,5.811c.775,4.893.535,9.982-2.13,9.741a12,12,0,0,1-5.962-2.905C341.188,231.171,336.4,223.765,335.066,221.519Z" transform="translate(-249.845 -163.514)"/><g class="u" transform="translate(76.502 47.019)"><path class="v" d="M336.13,222.86a62.51,62.51,0,0,0,9.973,10.409c5.579,4.456,9.206,4.144,10.16,3.2s-1.1,3.627-1.1,3.627-8.155-.285-8.44-.481-10.543-14.447-10.543-14.447Z" transform="translate(-327.411 -211.874)"/></g><path class="l" d="M335.066,221.519a3.716,3.716,0,0,1-4.019-1.658c-1.23-1.72-1.506-1.025-1.533.152a1.649,1.649,0,0,1-1.56-1.23,2.353,2.353,0,0,1-1.078-3.2,2.094,2.094,0,0,1-.089-2.674,1.649,1.649,0,0,1,1.061-2.192c1.952-.891,5.517,1.577,8.146,4.634,3.752,4.349,12.317,7.433,12.317,7.433a7.21,7.21,0,0,1,5.526,5.811c.775,4.893.535,9.982-2.13,9.741a12,12,0,0,1-5.962-2.905C341.188,231.171,336.4,223.765,335.066,221.519Z" transform="translate(-249.845 -163.514)"/><path class="w" d="M330.853,217.82a1.952,1.952,0,0,0-2.585.383,2.076,2.076,0,0,0-.089,1.444" transform="translate(-250.035 -164.271)"/><path class="w" d="M326.94,216.011a2.371,2.371,0,0,1,.633-.989,2.5,2.5,0,0,1,2.763-.116" transform="translate(-249.91 -163.95)"/><path class="w" d="M326.86,212.894a2.362,2.362,0,0,1,2.674-.713" transform="translate(-249.901 -163.676)"/><path class="x" d="M340.38,218.7s5.133,3.048,6.978,3.877,3.921,1.355,5.089,2.371" transform="translate(-251.372 -164.402)"/><circle class="a" cx="0.517" cy="0.517" r="0.517" transform="translate(55.186 20.69)"/><circle class="a" cx="0.517" cy="0.517" r="0.517" transform="translate(70.765 14.772)"/><path class="a" d="M315.266,179.63c-1.123.57-2.995,1.31-4.617.811,0,0,1.167,2.745,3.4,2.166,1.782-.454,1.23-2.772,1.23-2.772a1.689,1.689,0,0,0-.009-.2Z" transform="translate(-248.138 -160.152)"/><path class="a" d="M315.266,179.63a2.33,2.33,0,0,0,.045.437,3.7,3.7,0,0,1-4.661.383C310.65,180.441,312.4,181.083,315.266,179.63Z" transform="translate(-248.138 -160.152)"/><path class="a" d="M315.254,182.137s-1.782-.891-2.674.553A2.192,2.192,0,0,0,315.254,182.137Z" transform="translate(-248.348 -160.395)"/><ellipse class="a" cx="2.139" cy="2.255" rx="2.139" ry="2.255" transform="translate(58.12 15.977) rotate(-2.24)"/><ellipse class="a" cx="2.139" cy="2.255" rx="2.139" ry="2.255" transform="matrix(1, -0.04, 0.04, 1, 66.249, 14.058)"/><path class="a" d="M311.89,168.931s2.522-1.453,4.59.3a4.759,4.759,0,0,0-4.456.2Z" transform="translate(-248.273 -158.927)"/><path class="a" d="M307.7,170.17a4.2,4.2,0,0,0-3.494,2.994,4.759,4.759,0,0,1,3.7-2.531Z" transform="translate(-247.437 -159.123)"/><ellipse class="a" cx="0.33" cy="0.223" rx="0.33" ry="0.223" transform="translate(63.89 17.629) rotate(-85.31)"/><path class="a" d="M329.21,194a33.054,33.054,0,0,0,2.38-2.406c.838-2.674,2.255-4.92,4.59-5.677l-1.6-.668S330.689,185.179,329.21,194Z" transform="translate(-250.157 -160.763)"/><path class="s" d="M340.925,230a92.291,92.291,0,0,1-5.855-8.458,3.69,3.69,0,0,1-4.019-1.658c-1.515-2.148-1.6-.5-1.533.152a1.649,1.649,0,0,1-1.56-1.23,2.353,2.353,0,0,1-1.078-3.2,2.317,2.317,0,0,1,0-2.87,1.6,1.6,0,0,1,1.052-2.032" transform="translate(-249.849 -163.533)"/><path class="p" d="M243.72,241.53a3.335,3.335,0,0,0,.838-.49" transform="translate(-240.857 -166.832)"/><path class="p" d="M242.16,240.21l.508.16" transform="translate(-240.687 -166.742)"/><path class="p" d="M241.85,236.567a4.278,4.278,0,0,0,2.54-.659,5.753,5.753,0,0,0,3.494-.838" transform="translate(-240.654 -166.183)"/><path class="s" d="M275.508,219.12a2.085,2.085,0,0,1-1.328,1.328" transform="translate(-244.17 -164.448)"/><path class="a" d="M329.9,221.023l2.5,2.95-.713-2.772s-.891-1.488-1.3-1.372S329.845,220.391,329.9,221.023Z" transform="translate(-250.23 -164.524)"/><path class="y" d="M335.45,234.58s4.741,6.827,8.021,28.082" transform="translate(-250.836 -166.129)"/><path class="a" d="M312,174.07l2.932,1.212c1.488.615-.214,2.273-1.88,2.344Z" transform="translate(-248.285 -159.547)"/><path class="k" d="M310.9,172.38a3.431,3.431,0,0,0,2.38,2.068c1.782.41.383,2.121-.392,3.039" transform="translate(-248.165 -159.363)"/><path class="k" d="M310.9,172.38a4.671,4.671,0,0,0,1.2,1.248,3.487,3.487,0,0,0,.731.383c.258.116.5.125.891.267a1.079,1.079,0,0,1,.731.891,1.658,1.658,0,0,1-.276.989,5.5,5.5,0,0,1-1.239,1.355,15.158,15.158,0,0,0,.891-1.551,1.427,1.427,0,0,0,.143-.722c0-.187-.178-.312-.41-.4a7.387,7.387,0,0,1-.891-.285,3.117,3.117,0,0,1-.8-.535A2.941,2.941,0,0,1,310.9,172.38Z" transform="translate(-248.165 -159.363)"/><path class="m" d="M313.14,242.47s3.618,6.871,18.136,4.456" transform="translate(-248.409 -166.988)"/></g><path class="z" d="M310.9,354.188s5.347,1.292,6.381,3.734c12.04,6.149,35.141,16.612,48.019,19.322,15.917,3.351,25.07-16.389-18.341-19.865-7.647-.615-12.941-2.46-16.88-3.476-8.074-2.085-9.919-3.5-9.919-3.5Z" transform="translate(-33.799 -38.118)"/><path class="aa" d="M347.585,368.448s-.686,1.1,1.176,3.084c4.51,4.8,15.935,12.593,24.33,16.452,10.989,5.044,32.084,10.614,42.155,7.629s3.342-9.973-2.281-13.19c-12.735-7.29-38.028-12.477-50.363-13.707C352.995,367.788,348.547,366.344,347.585,368.448Z" transform="translate(-37.777 -39.963)"/><path class="ab" d="M119.881,352.8h-9.153a53.788,53.788,0,0,0-11.265,1.274L84.25,357.826c-2.112.517-1.782,1.007.722,1.007h24.063a18.85,18.85,0,0,0,5.7-.82l8.5-3.939C124.818,353.335,123.419,352.8,119.881,352.8Z" transform="translate(-8.992 -38.379)"/><path class="ac" d="M178.166,87.422v2.852a10.34,10.34,0,0,1-1.159.348,12.529,12.529,0,0,1-1.292.241V87.69h0v-.223a1.346,1.346,0,0,1,.169-.642l-.178-.374c-.071-.143,0-.205.134-.116l.276.187.134-.107-.062-.383c0-.16.053-.2.16-.071l.25.294a1.222,1.222,0,0,1,.339-.053A1.257,1.257,0,0,1,178.166,87.422Z" transform="translate(-19.09 -9.344)"/><path class="ac" d="M177.943,88.645v1.39a6.542,6.542,0,0,1-1.934.285V87.54a.971.971,0,1,1,1.934,0v1.105Z" transform="translate(-19.125 -9.408)"/><circle class="ad" cx="0.205" cy="0.205" r="0.205" transform="translate(157.936 77.651)"/><path class="ac" d="M175.056,88.332v2.852a10.472,10.472,0,0,1-1.159.348,12.675,12.675,0,0,1-1.292.241V88.6h0v-.223a1.346,1.346,0,0,1,.169-.642l-.178-.374c-.071-.143,0-.2.134-.116l.276.187.134-.107-.071-.383c0-.16.053-.2.16-.071l.25.294a1.22,1.22,0,0,1,.339-.053A1.257,1.257,0,0,1,175.056,88.332Z" transform="translate(-18.751 -9.443)"/><path class="ac" d="M174.833,89.564v1.39a6.542,6.542,0,0,1-1.934.285V88.45a.971.971,0,1,1,1.934,0v1.105Z" transform="translate(-18.787 -9.507)"/><circle class="ad" cx="0.205" cy="0.205" r="0.205" transform="translate(155.164 78.471)"/><path class="ae" d="M179.718,91.35c0,1.453-3.4,3.716-7.584,3.716S164.55,92.8,164.55,91.35s3.4-1.56,7.584-1.56S179.718,89.9,179.718,91.35Z" transform="translate(-17.879 -9.768)"/><ellipse class="af" cx="41.531" cy="46.37" rx="41.531" ry="46.37" transform="translate(228.734 97.231)"/><circle class="ag" cx="1.123" cy="1.123" r="1.123" transform="translate(270.14 124.387)"/><circle class="ah" cx="1.15" cy="1.15" r="1.15" transform="translate(270.087 96.741)"/><circle class="ah" cx="4.456" cy="4.456" r="4.456" transform="translate(266.887 98.773)"/><path class="ag" d="M310.348,120.292H297.06l2.273-4.242h8.752Z" transform="translate(-32.294 -12.625)"/><path class="ah" d="M307.935,136.933h-8.262L297.41,122.05H310.2Z" transform="translate(-32.332 -13.278)"/><rect class="ah" width="11.399" height="1.337" transform="translate(265.773 123.656)"/><path class="ai" d="M306.988,136.942h-6.025L298.94,122.13h10.187Z" transform="translate(-32.498 -13.286)"/><rect class="aj" width="16.746" height="1.337" transform="translate(262.948 107.498)"/><circle class="ak" cx="2.959" cy="2.959" r="2.959" transform="translate(268.277 92.089)"/><circle class="al" cx="3.645" cy="3.645" r="3.645" transform="translate(267.921 111.125)"/><ellipse class="ad" cx="1.551" cy="1.551" rx="1.551" ry="1.551" transform="translate(270.015 114.708)"/><ellipse class="am" cx="41.531" cy="46.37" rx="41.531" ry="46.37" transform="translate(59.367 96.999)"/><circle class="ag" cx="1.123" cy="1.123" r="1.123" transform="translate(100.657 123.932)"/><circle class="an" cx="1.15" cy="1.15" r="1.15" transform="translate(100.613 96.286)"/><circle class="ao" cx="4.456" cy="4.456" r="4.456" transform="translate(97.404 98.318)"/><path class="ag" d="M120.188,119.782H106.9l2.264-4.242h8.761Z" transform="translate(-11.608 -12.569)"/><path class="ah" d="M117.775,136.423h-8.262L107.25,121.54h12.789Z" transform="translate(-11.646 -13.222)"/><rect class="ah" width="11.399" height="1.337" transform="translate(96.299 123.201)"/><path class="ai" d="M116.819,136.432h-6.025L108.78,121.62h10.178Z" transform="translate(-11.812 -13.231)"/><rect class="ah" width="16.746" height="1.337" transform="translate(93.465 107.043)"/><circle class="ak" cx="2.959" cy="2.959" r="2.959" transform="translate(98.804 91.634)"/><circle class="al" cx="3.645" cy="3.645" r="3.645" transform="translate(98.447 110.671)"/><ellipse class="ad" cx="1.551" cy="1.551" rx="1.551" ry="1.551" transform="translate(100.542 114.253)"/><rect class="ap" width="111.563" height="196.041" transform="translate(130.736 107.311)"/><rect class="ap" width="111.563" height="196.041" transform="translate(130.068 107.311)"/><rect class="aq" width="94.995" height="196.041" transform="translate(139.024 107.311)"/><g class="ar" transform="translate(139.024 107.311)"><path class="as" d="M235.79,313.03h14.144V251.42l-14.144,4.447Z" transform="translate(-164.653 -134.662)"/><rect class="as" width="23.288" height="5.891" transform="translate(65.834 109.388)"/><path class="as" d="M247.917,195.71s-2.5,7.388-1,13.252,4.715,13.841.143,24.295l-1.5,1.925h-7.5V195.968" transform="translate(-164.9 -128.601)"/><rect class="aq" width="5.009" height="54.534" transform="translate(75.762 123.647)"/><rect class="as" width="10.882" height="26.175" transform="translate(88.097 23.876)"/><rect class="aq" width="9.117" height="18.635" transform="translate(91.287 27.646)"/></g><path class="at" d="M232.8,311.861l-73.017,4.59V120.41L232.8,125Z" transform="translate(-17.36 -13.099)"/><path class="au" d="M232.8,311.861l-73.017,4.59V120.41L232.8,125Z" transform="translate(-17.36 -13.099)"/><path class="av" d="M168.48,127.39l57.136,4.394v175.49" transform="translate(-18.307 -13.858)"/><path class="aw" d="M234.948,159.49l-55.4,160.25,55.4-3.627Z" transform="translate(-19.511 -17.35)"/><path class="ax" d="M234.25,234.987l6.657,23.359V233.82Z" transform="translate(-25.461 -25.436)"/><rect class="ay" width="127.506" height="9.884" transform="translate(122.768 304.947)"/><path class="az" d="M265.236,341.962H137.73l7.967-1.7H257.51Z" transform="translate(-14.961 -37.015)"/><rect class="ap" width="126.865" height="9.242" transform="translate(123.089 95.894)"/><rect class="ap" width="144.083" height="9.242" transform="translate(114.48 84.415)"/><path class="az" d="M263.824,107.277H136.959l-8.529-2.237H272.513Z" transform="translate(-13.95 -11.427)"/><path class="az" d="M257.484,120.148H145.351l-7.531-2.228H265.166Z" transform="translate(-14.971 -12.828)"/><path class="ba" d="M261.856,371.311H149.26l17.459-11.951h76.7Z" transform="translate(-16.216 -39.093)"/><path class="ac" d="M261.856,370.592H149.26l17.459-12.352h76.7Z" transform="translate(-16.216 -38.971)"/><path class="bb" d="M320.4,348.621l-6.96,1.328c-3.03.588-4.117,1.961-3.4,3.244,1.462,2.585,10.944.722,10.944.722l4.412-1.364-.214-4.251Z" transform="translate(-33.682 -37.89)"/><path class="aq" d="M320.4,348.621l-6.96,1.328c-3.03.588-4.117,1.961-3.4,3.244,1.462,2.585,10.944.722,10.944.722l4.412-1.364-.214-4.251Z" transform="translate(-33.682 -37.89)"/><path class="bc" d="M321.167,348.606l-4.456.891s-1.5.6-.784,1,6.31,0,7.968-1.087S321.167,348.606,321.167,348.606Z" transform="translate(-34.325 -37.919)"/><path class="bb" d="M324.914,350.165a46.484,46.484,0,0,1-6.239,4.991c-3.03,1.916-.954,3.244,1.435,3.03a19.314,19.314,0,0,0,7.54-2.077,12.221,12.221,0,0,0,3.084-2.281V349.8Z" transform="translate(-34.481 -38.053)"/><path class="aq" d="M324.914,350.165a46.484,46.484,0,0,1-6.239,4.991c-3.03,1.916-.954,3.244,1.435,3.03a19.314,19.314,0,0,0,7.54-2.077,12.221,12.221,0,0,0,3.084-2.281V349.8Z" transform="translate(-34.481 -38.053)"/><path class="bc" d="M325.679,350.3s-3.4,2.344-2.469,3.226a3.609,3.609,0,0,0,3.324,0,9.108,9.108,0,0,0,3.2-2.986l-.668-.241Z" transform="translate(-35.121 -38.107)"/><path class="aq" d="M305.684,236.171a104.467,104.467,0,0,0-2.54,21.772,108.933,108.933,0,0,0,4.456,34.267c3.03,10.516,12.272,44.151,12.272,44.151a7.032,7.032,0,0,0,3.743.517S322.26,297,322.26,292.853s.16-19.446,1.274-27.253,4.937-12.272,7.335-22.949-13.867-9.723-14.349-9.723S305.684,236.171,305.684,236.171Z" transform="translate(-32.95 -25.337)"/><g transform="translate(282.99 238.961)"><path class="bd" d="M322.964,340.559l3.984-.241-8.422-72.189s-1.649,11.408-.749,29.874S322.964,340.559,322.964,340.559Z" transform="translate(-317.508 -268.13)"/></g><path class="aq" d="M321.676,229.86s-1.916,23.43-2.068,33.153a214.541,214.541,0,0,0,1.916,30.6c1.274,9.242,3.663,43.509,3.663,43.509s3.3,1.488,5.9-.16c0,0,1.435-10.837,3.351-19.553a53.17,53.17,0,0,0,.428-21.568c-1.061-6.158,6.167-27.2,8.074-35.916s-1.114-19.865-6.987-28.154Z" transform="translate(-34.746 -25.005)"/><path class="be" d="M319.376,258.19s-.535,8.68-.294,15.151,1.1,14.144,2.371,23.386,3.663,43.509,3.663,43.509" transform="translate(-34.683 -28.087)"/><path class="aq" d="M293.465,170.639a9.169,9.169,0,0,0,.677-4.759c-.241-3.066.971-4.18,3.565-5.107s7.388-2.576,5.686-5.294-9.091-.775-11.327,4.126-.677,7.246-2.478,9.91-5.98,8.6-4.919,14.179c1.248,6.542,4.652,7.6,4.839,11.452.258,5.347-2.424,8.074-1.515,13.93,1.488,9.545,15.418,10.739,19.054,2.611,1.9-4.233,3.779-17.334,3.565-18.011s-14.776-20.6-14.776-20.6Z" transform="translate(-30.927 -16.78)"/><g transform="translate(286.53 206.78)"><path class="bf" d="M343.457,258.284a5.119,5.119,0,0,1,.08-.633v-.2a2.4,2.4,0,0,1,.062-.66v-.134a4.118,4.118,0,0,1,.045-.74v-3.886a2.585,2.585,0,0,0-.053-.588c-.053-.2,0-.178,0-.258s-.045-.437-.071-.651V250.3a4.545,4.545,0,0,0-.1-.686v-.223a3.769,3.769,0,0,0-.116-.7l-.053-.258a3.521,3.521,0,0,0-.125-.668l-.062-.294c-.045-.214-.089-.419-.134-.633l-.08-.339-.143-.588-.1-.374-.143-.544-.116-.383c-.053-.178-.1-.357-.16-.544l-.116-.365-.178-.544-.143-.41c-.053-.169-.107-.33-.169-.5l-.16-.437-.169-.463-.187-.463-.169-.437-.223-.526-.151-.365-.241-.535-.16-.356-.25-.526-.16-.348-.276-.553-.16-.312-.294-.561-.152-.294-.339-.6-.134-.241-.33-.561-.16-.267-.356-.57-.151-.241-.374-.579-.152-.223-.4-.579-.134-.2c-2.308,3.467-6.586,7.076-14.821,8.271,0,0,4.527,22.548,9.527,25.418,3.2,1.836,1.319,25.533,1.453,34.882.16,11.586-2.593,30.64-4.206,37.369a5.4,5.4,0,0,0,3.173-.766s1.435-10.837,3.351-19.553a53.168,53.168,0,0,0,.428-21.567c-.891-5.169,4.055-20.819,6.8-30.872h0l.178-.642v-.143l.223-.891.125-.481.1-.383.152-.606.053-.214.187-.784v-.187l.178-.758q.178-.82.3-1.658C343.439,258.436,343.448,258.355,343.457,258.284Z" transform="translate(-321.48 -232.02)"/></g><path class="bg" d="M280.923,198.115l.1-.775s-7.531,6.5-14.937,12.254c-2.611,2.032-6.925,3.966-8.351,4.928-5.071,3.4-10.525,7.246-14.42,9.34a19.761,19.761,0,0,1-4.652,1.649,5.418,5.418,0,0,0-2.264,1.97c-.811.891-1.4.722-2.112.891s-.374,1.016.829,1.016a2.869,2.869,0,0,0,2.21-.686l.98,1.889a3.471,3.471,0,0,1-.374.285l-.053-.071-.089.16a2.4,2.4,0,0,1-3.208-.3s-.187-.686-.517-.615-.33.348-.107,1.069a2.513,2.513,0,0,0,1.114,1.328,2.255,2.255,0,0,1-.668-.374s-.472-.374-.677-.214-.2.463.285,1.007a2.674,2.674,0,0,0,2.371.829h.08a1.783,1.783,0,0,1-1.016.178s-.677-.143-.793.071,0,.517.731.749a3.333,3.333,0,0,0,2.611-.446,4.641,4.641,0,0,0,.891-.82l.089.125a3.075,3.075,0,0,1-1.462,1.372c-1,.472-1.052.455-1.052.633s.891.258,2.032-.2a7.272,7.272,0,0,0,3.725-3.565c.232-.437.437-.891.633-1.328.294-.659.891-2.041.891-2.041l3.467-1.114c.749-.374,6.951-2.424,13.493-5.214,3.743-1.6,25.845-12.138,25.845-12.138Z" transform="translate(-25.39 -21.468)"/><g class="bh" transform="translate(208.207 175.872)"><path class="bi" d="M240.4,231.216c1.025-.544,1.372,1.007,1.355,1.889a5.846,5.846,0,0,1-2.763,4.911c-1.123.784-2.95,1.337-2.834,1.007a12.269,12.269,0,0,1,1.782-1.141,36.974,36.974,0,0,0-3.672,1.408c-.749.472.178.062-.071,0s0-1.471-.214-1.782a9.115,9.115,0,0,0-2.371.535c.285,0,.606-.793.508-.82-1.141-.33.553.517,0-.267a14.994,14.994,0,0,1,0-1.622s.41-1.248.383-1.283c-.57-.891,1.613-.045,1.907-.383.758-.891,2.014-.143,2.014-.143l1.782-1.453Z" transform="translate(-233.381 -201.013)"/><path class="bj" d="M282.835,200.61s-.258,7.361,2.005,10.08c0,0-18.8,10.08-20.926,11.176a18.189,18.189,0,0,0-3.565,2.388l22.931-6.461,5.882-5.49s1.1-2.674.713-2.843-3.681-5.347-4-5.552S282.835,200.61,282.835,200.61Z" transform="translate(-236.508 -197.696)"/></g><path class="bk" d="M335.587,196.731s-2.674-7.976-5.82-11.719c-3.841-4.51-12.735-4.2-17.913-3.77.267.838,0,.8.089.891.258.392-2.032,7.664-6.809,8.565-4.456.838-5.08-4.795-5.08-4.795a30.908,30.908,0,0,0-13.992,9.714s-2.834,10.267,5.347,12.9l2.95-1.355s-1.934,7.442,3.886,10.454c4.251,2.2,7.13-1.3,5.517,12.9,0,0,.2.151.526.437,8.85,7.584,23.172,2.852,27.922-4.456,0,0-1.381-7.852-3.235-14.393a85.558,85.558,0,0,0-3.3-8.556S333.43,202.952,335.587,196.731Z" transform="translate(-31.046 -19.692)"/><path class="bl" d="M240.746,228.3c-1.061.339-1.845.472-2.094.57a5.418,5.418,0,0,0-2.264,1.97c-.811.891-1.4.722-2.112.891s-.374,1.016.829,1.016a2.87,2.87,0,0,0,2.21-.686l.98,1.889a3.476,3.476,0,0,1-.374.285l-.053-.071-.089.16a2.4,2.4,0,0,1-3.208-.3s-.187-.686-.517-.615-.33.348-.107,1.069a2.513,2.513,0,0,0,1.114,1.328,2.255,2.255,0,0,1-.668-.374s-.472-.374-.677-.214-.2.464.285,1.007a2.674,2.674,0,0,0,2.371.829h.08a1.782,1.782,0,0,1-1.016.178s-.677-.143-.793.071,0,.517.731.749a3.334,3.334,0,0,0,2.611-.446,4.644,4.644,0,0,0,.891-.82l.089.125a3.075,3.075,0,0,1-1.462,1.372c-1,.472-1.052.455-1.052.633s.891.258,2.032-.2a6.6,6.6,0,0,0,2.433-1.684" transform="translate(-25.389 -24.836)"/><path class="bm" d="M324.13,195.56a68.006,68.006,0,0,1,1.684,12.7c.1,6.1-3.565,10.944-5.811,12.477s-.891,7.014-.677,8.627a37.974,37.974,0,0,0,1.631,6.871s11.711-1.408,13.484-7.255c.633-2.1-2.21-17.771-5.124-23.9A83.849,83.849,0,0,0,324.13,195.56Z" transform="translate(-34.651 -21.274)"/><path class="bn" d="M329.91,205s-2.959-7.237-5.65-10.213" transform="translate(-35.253 -21.19)"/><path class="ai" d="M327.586,181.78s-7.914-.152-5.454,25.551c1.462,15.284,5.873,40.3,7.852,47.751,1.462.7,5.82,2.094,5.82,2.094l17.922-9.8-4.652-26.549-9.8,1.569a60.149,60.149,0,0,1-11.523,3.378c-1.782-5.748-3.431-12.958-3.431-12.958-.481-9.358-.731-8.912-.891-13.3-.16-4.6,0-15.151,5.73-17.04Z" transform="translate(-34.97 -19.775)"/><path class="bo" d="M330.443,184.995c-1.836-2.05-4.6-3.44-9.732-3.565l-8.083.3c.062.374-.071.374,0,.446.258.383-2.005,7.673-6.773,8.591-4.456.891-5.1-4.768-5.1-4.768a30.187,30.187,0,0,0-8.217,4.3v.152s6.675-3.565,8.618-.241,6.559,6.827,14.848,2.46c5.526-2.914,4.928-7.763,14.518-7.13a2.9,2.9,0,0,0,.347,0A4.123,4.123,0,0,0,330.443,184.995Z" transform="translate(-31.802 -19.737)"/><path class="bc" d="M306.721,190.443c4.322-.829,6.934-7.05,6.7-7.406a12.93,12.93,0,0,1-.49-1.39h-.3l-1.087-3.467L300.5,180.319s.775,3.1,1.221,5.659C301.73,186.041,302.4,191.272,306.721,190.443Z" transform="translate(-32.668 -19.384)"/><path class="bp" d="M312.96,184.516a27.813,27.813,0,0,0-.1-2.843h-.232l-.989-3.173-.7-.16-10.436,2.023s.294,1.159.615,2.674c1.052,1.72,3.021,3.262,9.482,5.044A14.42,14.42,0,0,0,312.96,184.516Z" transform="translate(-32.669 -19.401)"/><path class="bg" d="M296.674,175.294s4.349,6.853,10.106,5.1c5.24-1.6,3.859-10.2,3.859-10.2s1.56.642,1.105-2.21-1.978-2.941-2.674-1.56c.187-.365-.214-1.622-.285-2.032a10.763,10.763,0,0,0-.526-1.916,9.056,9.056,0,0,0-2.531-3.128,5.178,5.178,0,0,0-3.182-1.141,9.037,9.037,0,0,0-6.381,2.5A9.572,9.572,0,0,0,294,163.931a8.859,8.859,0,0,0-.134,5.846c.071.2.321,1.212.5,1.283,0,0-1.426-.553-1.15,1.194S295.2,177.629,296.674,175.294Z" transform="translate(-31.872 -17.211)"/><path class="aq" d="M304.589,159.847s4.608-.784,5.713,6.417c0,0,1.265-2,2.139.16.963,2.388.562,3.11.285,3.449s-.891.151-.891.151a14.383,14.383,0,0,1-1.176,8.092s-2.8,6.354.722,7.869c2.29.989,5.526-5.16,10.3-6.443a11.814,11.814,0,0,1,8.021,1.105,10.543,10.543,0,0,0-6.042-4.964c-4.456-1.453-7.032-2.317-7.932-7.834S311.853,154.126,304.5,157.5Z" transform="translate(-33.103 -17.048)"/><path class="bq" d="M330.7,206.645a70.4,70.4,0,0,0,2.406,12.192c1.631,4.821,4.821,5.882,4.821,5.882l-6.586-18.279Z" transform="translate(-35.953 -22.458)"/><path class="bg" d="M340.484,198.65s6.372,22.236,5.739,26.139-3.351,4.857-3.351,4.857l-6.613-6.238-2-5.347a45.64,45.64,0,0,0-1.31-5.935A48.916,48.916,0,0,0,330.6,205.4Z" transform="translate(-35.942 -21.61)"/><path class="br" d="M330.6,206.25a37.277,37.277,0,0,0,9.135,9.206,20.949,20.949,0,0,1,5.089,4.456l-11.532-4.171S332.151,209.066,330.6,206.25Z" transform="translate(-35.942 -22.437)"/><path class="aq" d="M294.591,171.379s.659,0,.651-1.274c0-.945-.659-2.9-.766-4.215-.241-3.066,2.478-3.806,5.151-4.385,4.75-1.025,5.784-3.3,4.082-6.016s-9.607,0-11.791,5.1c-1.506,3.565-.749,7.13-4.367,12.673,1.97-.561,3.271-2.255,4.51-2.674S294.591,171.379,294.591,171.379Z" transform="translate(-31.259 -16.798)"/><ellipse class="bs" cx="0.553" cy="0.651" rx="0.553" ry="0.651" transform="translate(268.306 151.027) rotate(-25.22)"/><ellipse class="bs" cx="0.553" cy="0.651" rx="0.553" ry="0.651" transform="translate(274.453 149.417) rotate(-25.23)"/><path class="bn" d="M308.59,216.83a6.533,6.533,0,0,0,2.674,2.549,9.242,9.242,0,0,0,7.629,0" transform="translate(-33.548 -23.588)"/><path class="bn" d="M295.46,209.477s1.462-5.2,1.782-7.317" transform="translate(-32.12 -21.992)"/><path class="bn" d="M295,201.64s.455,3.467,1.292,4.2" transform="translate(-32.07 -21.936)"/><path class="bt" d="M312.369,168.43s-.33.891.267,1.239" transform="translate(-33.949 -18.323)"/><path class="bt" d="M294.36,174.32a.713.713,0,0,1,.57.5c.169.472,0,1.2.633,1.4" transform="translate(-32 -18.964)"/><path class="be" d="M316.6,245.85s-.08,8.244,1.417,9.527a4.456,4.456,0,0,0,2.611.258" transform="translate(-34.419 -26.745)"/><path class="be" d="M319.78,245.56a51.688,51.688,0,0,0,1.016,9.108" transform="translate(-34.765 -26.713)"/><path class="be" d="M307.806,242.17s0,4.456-3.066,5.829" transform="translate(-33.129 -26.345)"/><ellipse class="ap" cx="2.674" cy="2.674" rx="2.674" ry="2.674" transform="translate(209.145 206.28)"/><path class="ai" d="M328.52,230.269l1.631,5.133,6.4,25.48,17.441-9.108-4.269-28.394Z" transform="translate(-35.716 -24.301)"/><g class="bu" transform="translate(209.145 206.28)"><path class="bv" d="M236.735,233.169c1.346-.454,3.075-.508,2.754,1.649a3.013,3.013,0,0,1-2.308,2.415l3.03-1.034s1.114-2.1,1.087-2.183-2.13-2.674-2.228-2.807a15.9,15.9,0,0,0-2.4-.339c-.125,0-1.934,1.782-1.934,1.782l-.125.214.125.2-.178.5A5.774,5.774,0,0,0,236.735,233.169Z" transform="translate(-234.64 -231.396)"/></g><path class="bc" d="M234.912,232.851a5.192,5.192,0,0,0,.811,0,4.457,4.457,0,0,0,1.782-.677,5.722,5.722,0,0,0,2.46-.267c.7-.205,2.166-1.506,1.515-1.952-.784-.535-3.226.82-3.226.82l-2.121.686-1.283.891Z" transform="translate(-25.527 -25.002)"/><path class="bl" d="M235.012,232.18s.053.267,0,.339a.954.954,0,0,1-.8-.089" transform="translate(-25.457 -25.258)"/><path class="bg" d="M328.136,217.989a3.689,3.689,0,0,1-4.019-1.658c-1.515-2.148-1.6-.5-1.533.152a1.649,1.649,0,0,1-1.56-1.23,2.353,2.353,0,0,1-1.078-3.2,2.094,2.094,0,0,1-.089-2.674,1.649,1.649,0,0,1,1.06-2.192c1.952-.891,5.517,1.577,8.146,4.634,3.752,4.349,12.317,7.433,12.317,7.433a7.21,7.21,0,0,1,5.526,5.811c.775,4.893.535,9.982-2.13,9.741a12,12,0,0,1-5.962-2.905C334.294,227.641,329.472,220.235,328.136,217.989Z" transform="translate(-34.726 -22.519)"/><g class="bw" transform="translate(284.691 184.484)"><path class="bx" d="M329.2,219.33a62.514,62.514,0,0,0,9.973,10.4c5.579,4.456,9.206,4.144,10.16,3.2s-1.1,3.627-1.1,3.627-8.155-.285-8.44-.481-10.543-14.447-10.543-14.447Z" transform="translate(-320.481 -208.344)"/></g><path class="by" d="M323.923,214.28a1.952,1.952,0,0,0-2.585.383,2.076,2.076,0,0,0-.089,1.444" transform="translate(-34.915 -23.275)"/><path class="by" d="M320,212.481a2.371,2.371,0,0,1,.633-.989,2.5,2.5,0,0,1,2.763-.116" transform="translate(-34.789 -22.955)"/><path class="by" d="M319.93,209.394a2.362,2.362,0,0,1,2.674-.713" transform="translate(-34.782 -22.685)"/><path class="bz" d="M333.45,215.16s5.133,3.048,6.978,3.877,3.921,1.355,5.089,2.371" transform="translate(-36.252 -23.406)"/><circle class="ad" cx="0.517" cy="0.517" r="0.517" transform="translate(263.376 158.146)"/><circle class="ad" cx="0.517" cy="0.517" r="0.517" transform="translate(278.954 152.237)"/><path class="ca" d="M308.336,176.09c-1.123.57-2.995,1.31-4.616.811,0,0,1.167,2.745,3.4,2.166,1.782-.454,1.23-2.772,1.23-2.772A1.69,1.69,0,0,0,308.336,176.09Z" transform="translate(-33.018 -19.156)"/><path class="ad" d="M308.336,176.09a2.33,2.33,0,0,0,.045.437,3.7,3.7,0,0,1-4.661.383C303.72,176.9,305.467,177.552,308.336,176.09Z" transform="translate(-33.018 -19.156)"/><path class="cb" d="M308.324,178.607s-1.782-.891-2.674.553A2.192,2.192,0,0,0,308.324,178.607Z" transform="translate(-33.228 -19.4)"/><ellipse class="cc" cx="2.139" cy="2.255" rx="2.139" ry="2.255" transform="translate(266.306 153.427) rotate(-2.24)"/><ellipse class="cd" cx="2.139" cy="2.255" rx="2.139" ry="2.255" transform="translate(274.083 151.663) rotate(-2.24)"/><path class="bs" d="M305,165.391s2.522-1.453,4.59.3a4.759,4.759,0,0,0-4.456.2Z" transform="translate(-33.157 -17.931)"/><path class="bs" d="M300.782,166.63a4.211,4.211,0,0,0-3.5,3,4.759,4.759,0,0,1,3.7-2.531Z" transform="translate(-32.318 -18.127)"/><ellipse class="cb" cx="0.33" cy="0.223" rx="0.33" ry="0.223" transform="translate(272.084 155.092) rotate(-85.31)"/><path class="ce" d="M322.28,190.462a33.054,33.054,0,0,0,2.379-2.406c.838-2.674,2.255-4.92,4.59-5.677l-1.6-.668S323.759,181.639,322.28,190.462Z" transform="translate(-35.037 -19.768)"/><path class="cf" d="M333.995,226.465a92.324,92.324,0,0,1-5.855-8.458,3.69,3.69,0,0,1-4.019-1.658c-1.515-2.148-1.6-.5-1.533.151a1.649,1.649,0,0,1-1.56-1.23,2.353,2.353,0,0,1-1.078-3.2,2.317,2.317,0,0,1,0-2.87A1.6,1.6,0,0,1,321,207.17" transform="translate(-34.73 -22.537)"/><path class="bl" d="M236.79,238a3.335,3.335,0,0,0,.838-.49" transform="translate(-25.737 -25.838)"/><path class="bl" d="M235.23,236.68l.508.16" transform="translate(-25.568 -25.747)"/><path class="bl" d="M234.92,233.037a4.278,4.278,0,0,0,2.54-.659,5.753,5.753,0,0,0,3.494-.838" transform="translate(-25.534 -25.188)"/><path class="bt" d="M268.578,215.59a2.085,2.085,0,0,1-1.328,1.328" transform="translate(-29.051 -23.453)"/><path class="ce" d="M323,217.493l2.5,2.95-.713-2.772s-.891-1.488-1.3-1.372S322.917,216.861,323,217.493Z" transform="translate(-35.113 -23.53)"/><path class="cg" d="M328.52,231s4.741,6.827,8.021,28.082" transform="translate(-35.716 -25.129)"/><path class="ch" d="M305.1,170.54l2.932,1.212c1.488.615-.214,2.273-1.88,2.344Z" transform="translate(-33.168 -18.552)"/><path class="bg" d="M304,168.85a3.431,3.431,0,0,0,2.38,2.068c1.782.41.383,2.121-.392,3.039" transform="translate(-33.049 -18.369)"/><path class="ci" d="M304,168.85a4.659,4.659,0,0,0,1.2,1.248,3.472,3.472,0,0,0,.731.383c.258.116.5.125.891.267a1.079,1.079,0,0,1,.731.891,1.657,1.657,0,0,1-.276.989,5.5,5.5,0,0,1-1.239,1.355,15.2,15.2,0,0,0,.891-1.551,1.426,1.426,0,0,0,.142-.722c0-.187-.178-.312-.41-.4a7.389,7.389,0,0,1-.891-.285,3.12,3.12,0,0,1-.8-.535A2.941,2.941,0,0,1,304,168.85Z" transform="translate(-33.049 -18.369)"/><path class="bs" d="M380.17,361.78s1.087,2.674,4.189.74,9.322-6.648,6.72-10.579-9.982-.169-9.982-.169Z" transform="translate(-41.335 -38.091)"/><path class="cj" d="M381.757,360.855l-1.667-6.666,8.556-5.659,3.342,5.561-7.121,6.764Z" transform="translate(-41.326 -37.915)"/><path class="bg" d="M396.985,141.778s2.273,4.723,4.269,7.843c.446,2.674-10.534-1.007-10.534-1.007l2.923-9.8Z" transform="translate(-42.482 -15.101)"/><path class="ck" d="M371.721,159.28s-2.87,3.565-2.941,4.643a2.077,2.077,0,0,0,1.034,1.693Z" transform="translate(-40.096 -17.328)"/><path class="cl" d="M371.721,159.28s-2.87,3.565-2.941,4.643a2.077,2.077,0,0,0,1.034,1.693Z" transform="translate(-40.096 -17.328)"/><path class="cm" d="M367.894,364.076s2.629,7.869-1.364,9.144c-4.911,1.569-16.532-2.674-18.662-4.456-.758-1.248-.223-5.534,6.809-4.144,2.513.49,5.009-.214,5.811-2.451S367.894,364.076,367.894,364.076Z" transform="translate(-37.793 -39.326)"/><g class="cn" transform="translate(309.817 322.18)"><path class="ad" d="M347.486,368.57a38.545,38.545,0,0,0,16.978,4.741s3.7-.446,4.091-2.032,1.3,1.266,1.23,1.372-2.674,2.986-2.8,2.986-11.488-.98-11.3-.945-9.028-4.385-9.108-4.536a11.638,11.638,0,0,1,0-1.622C346.585,368.419,347.486,368.57,347.486,368.57Z" transform="translate(-347.495 -362.266)"/></g><path class="co" d="M354.969,364.43a2.718,2.718,0,0,0-2.139,1.729" transform="translate(-38.361 -39.644)"/><path class="co" d="M356.739,364.78a2.728,2.728,0,0,0-2.139,1.729" transform="translate(-38.553 -39.682)"/><path class="co" d="M358.989,364.64a3.85,3.85,0,0,0-2.3,2.112" transform="translate(-38.781 -39.667)"/><path class="cp" d="M397.319,262.52a19.4,19.4,0,0,1-2.023,7.388c-3.69,7.789-7.13,5.347-12.04,25.3-2.166,8.707-7.593,38.117-7.593,38.117s-3.28,17.183-4.314,18.306-8.021,4.073-12.789-.722c0,0,3.565-38.2,4.153-49.311s9.91-38.117,9.8-38.679S389.253,259,389.253,259Z" transform="translate(-38.984 -28.175)"/><path class="aq" d="M397.319,262.573a19.4,19.4,0,0,1-2.023,7.388c-3.69,7.789-7.13,5.347-12.04,25.3-2.166,8.707-7.593,38.117-7.593,38.117s-3.28,17.183-4.314,18.306-8.021,4.073-12.789-.722c0,0,3.565-38.2,4.153-49.311s9.91-38.117,9.8-38.679,16.737-3.9,16.737-3.9Z" transform="translate(-38.984 -28.183)"/><path class="bs" d="M378.83,140.964s1.114,2.674,2.068,2.87,1.337-3.5,1.337-3.5a11.312,11.312,0,0,0-1.123-.891A13.214,13.214,0,0,0,378.83,140.964Z" transform="translate(-41.189 -15.169)"/><rect class="cq" width="8.975" height="10.98" transform="translate(339.94 150.758)"/><path class="cr" d="M383.693,275.131S394.673,266,397.8,262.52c.963,4.527-4.456,10.409-8.092,16.933a61.583,61.583,0,0,0-6.185,17.913l-3.3,17.922-5.526-4.064-.811-23.742Z" transform="translate(-40.652 -28.558)"/><path class="cs" d="M366.977,183.84a15.453,15.453,0,0,0-2.5.891,6.016,6.016,0,0,0-2.353,3.565" transform="translate(-39.371 -19.999)"/><path class="cj" d="M359.752,191.248c.588-1.631,1.043-2.968,1.4-4.064,1.239-3.752,1.506-4.7,1.845-5.2.7-1.034,2.174-1.5,3.7-2.371a10.427,10.427,0,0,1,3.716-.784c.731-.134,1.194-.089.8.686s-2.879,1.23-2.879,1.23-2.531,1.319-2.79,3l.258,2.308.2,6.8-3.11,2.914-3.369-3.048Z" transform="translate(-39.089 -19.448)"/><path class="ct" d="M365.534,183.811l-2.674,2.549s.615-3.164,1.444-3.868c.285-.241,1.782-1.078,3.217-1.952a12.982,12.982,0,0,1,2.994-.891c1.3-.339,1.248-.659,1.248-.659a1.1,1.1,0,0,1-.143.517c-.089.143-5.347,4.1-5.347,4.1Z" transform="translate(-39.452 -19.472)"/><path class="aq" d="M361.485,267.35s-3.039,32.922-1.123,39.8,12.147,34.526,17.584,44.561a11.471,11.471,0,0,1,1.31-4.625c2.014-3.52,6.042-7.13,10.044-4.8,0,0-10.552-26.371-12.147-32.975a25.456,25.456,0,0,1-.891-6.729,44.049,44.049,0,0,1,1.292-8.378c1.194-5.677,6.631-26.451,6.631-26.451l-9.67-9.429-12.147-.962Z" transform="translate(-39.111 -27.997)"/><path class="cj" d="M375.6,151.838a23.771,23.771,0,0,0-4.3,7.5,49.259,49.259,0,0,0-2.255,9.5c-1.123,8.591,5.178,6.194,5.178,6.194L382.136,171s3.119-13.627,1.6-17.548S375.6,151.838,375.6,151.838Z" transform="translate(-40.111 -16.445)"/><path class="be" d="M391.313,343.7s-10.552-26.371-12.147-32.975c0,0-.642-3.244-.891-5.4-.16-1.675.054-4.028,1.248-9.705s3.449-14.34,3.449-14.34l1.167-5.347a75.767,75.767,0,0,0,6.506-5.347" transform="translate(-41.123 -29.435)"/><path class="cu" d="M376.379,152.444a28.741,28.741,0,0,1,.971,9.723c-.472,4.2-4.518,14.66-7.941,11.185,0,0,.544,2.3,3.77,2.157,3.048-.134,9.483-8.743,9.483-8.743l-1.684-12.825L377.68,151Z" transform="translate(-40.164 -16.427)"/><path class="aq" d="M369.8,166.361s-2.62,9.073,1.239,10.561a11.8,11.8,0,0,0,6.319.383l5.552-6.239-1.979-3.324a5.855,5.855,0,0,1-3.654,1.123,4.251,4.251,0,0,1-3.387-1.435,5.125,5.125,0,0,0-4.091-1.069Z" transform="translate(-40.113 -18.09)"/><path class="co" d="M376.32,258.37" transform="translate(-40.916 -28.107)"/><path class="bg" d="M370.6,187.254c.749-.8,3.253-6.738,3.253-6.738a52.6,52.6,0,0,0,5.6-3.146c2.674-1.782,5.793-6.889,5.793-6.889l-4.741-3.1L378.98,169.3s-1.221,1.533-2.522,3.565-3.422,5.347-6.238,6.14c-3.565.963-4.1,3.449-4.1,3.449l1.337,5.508Z" transform="translate(-39.806 -18.209)"/><path class="cm" d="M391.5,354.68s4.456,3.565,2.87,7.54c-2.175,5.6-5.107,13.074-6.782,14.919s-8.253,1.979-10.151.561c-2.059-1.533-2.166-3.779-1.257-4.973.285-.374,1.194-1.6,4.073-.891,0,0,.7-8.538.891-9.973S386.388,351.32,391.5,354.68Z" transform="translate(-40.842 -38.503)"/><g class="cv" transform="translate(334.797 315.438)"><path class="ad" d="M394.863,362.392s-.446-4.777-3.886-3.663-5.053,4.046-6.132,9.082c-.6,2.807-1.693,6.818-2.5,9.393-.6,1.943-5.864-.1-6.238.187-1,.775,9.75,4.109,9.75,4.109l7.771-8.547Z" transform="translate(-375.683 -354.444)"/><path class="cw" d="M395.741,363.532s-.446-4.777-3.886-3.663-4.7,4.18-5.775,9.206a73.753,73.753,0,0,1-2.852,9.269,4.742,4.742,0,0,1-2.041,2.29c-1,.775,5.552,2,5.552,2l7.771-8.547Z" transform="translate(-376.231 -354.568)"/></g><path class="aq" d="M374.82,149.5c-3.057,2.674-.829,2.442,1.925,2.95s2.674,1.025,2.406,3.8a4.135,4.135,0,0,0,1.916,3.663c.365.276-.33,2.54.089,2.772,2.932,1.631,8.021.178,8.021.178s2.825-2.9,2.246-9.349S378.991,145.857,374.82,149.5Z" transform="translate(-40.593 -16.042)"/><path class="cx" d="M395.531,140.5s1.105,5.757-.891,9.893l5.178.419s-1.56-3.859-2.13-6.025-1.194-4.055-1.194-4.055l-1.123-.365" transform="translate(-42.909 -15.27)"/><ellipse class="bs" cx="0.553" cy="0.686" rx="0.553" ry="0.686" transform="translate(334.433 142.157)"/><path class="aq" d="M379.249,139.429c.784,1.292,1.078,1.845,4.153,0s2.344-5.347,3.975-4.866,2.923,3.716,4.456,1.283l.642-1.239,1.4,4.616a16.181,16.181,0,0,1,1.684,1.854,8.437,8.437,0,0,1,1.221,2s.41-1.283-.383-4.9c-.757-3.467-2.531-8.778-7.905-8.021S377.2,136.1,379.249,139.429Z" transform="translate(-41.189 -14.151)"/><path class="bg" d="M380.239,138.464c-.455.891-.365,3.262.891,5.944.437.891,1.016,1.854,1.381,2.781,1.221,3.057,2.995,4.162,4.839,4.349.811.08,2.549-1.542,3.324-1.782s1.31.633,1.863,0c1.078-1.2,2.558-3.012,2.674-4.59a13.369,13.369,0,0,0-1.043-5.7,2.742,2.742,0,0,0,1.043-3.021c-.392-2.228-1.88-4.064-3.173-.74C392.075,135.719,386.736,125.622,380.239,138.464Z" transform="translate(-41.315 -14.354)"/><ellipse class="cy" cx="2.397" cy="2.54" rx="2.397" ry="2.54" transform="translate(346.839 127.724) rotate(-2.24)"/><path class="cz" d="M387,143.961a.891.891,0,0,0,1.649-.321" transform="translate(-42.078 -15.626)"/><path class="cz" d="M382.24,146.229s1.292.891,1.266-.749" transform="translate(-41.56 -15.826)"/><path class="aq" d="M387.863,129.457c-3.565.49-6.711,3.226-9.037,5.73-1.185,1.274-2.879,2.406-1.462,4.046.989,1.141,3.921,2.032,7,.152s1.782-3.565,3.511-3.324c2.4.276,2.763,2.451,3.859-.553h0s.5-2.469.758-4.545A6.114,6.114,0,0,0,387.863,129.457Z" transform="translate(-40.971 -14.08)"/><path class="cj" d="M362,188.5a6.524,6.524,0,0,1,3.431-4.4,6.435,6.435,0,0,0,2.95-2.246c.766-.766,1.346.3.766,1.462s-2.094,3.057-2.228,3.378a21.707,21.707,0,0,1-.446,3.627l-4.456-1.729" transform="translate(-39.358 -19.754)"/><path class="da" d="M367.074,187.31a8.843,8.843,0,0,0-2.611,3.084,18.215,18.215,0,0,0-1.123,4.679s3.422-3.387,3.449-3.467S367.083,188.575,367.074,187.31Z" transform="translate(-39.504 -20.377)"/><path class="ck" d="M363.65,186.68" transform="translate(-39.538 -20.308)"/><path class="db" d="M401.15,184.13s4.456,6.051.535,27.975c-2.674,11.416-4.189,5.026-2.54,30.3.891,13.083.16,11.185-4.153,13.743s-17.5,5.276-27.253,5.035l-1.123-6.871s-2.8,5.2-3.44,6.631c0,0-4.955-1.916-6.078-3.993,0,0,.642-22.218,2.674-32.77,0,0-2.674,5.784-7.584,7.13s-7.754-6.016-7.647-9.215c.16-4.634,8.324-22.361,13.6-30.435,0,0-.151,3.1,2.406,3.1,0,0,3.618-7.272,8.333-8.787S401.15,184.13,401.15,184.13Z" transform="translate(-37.458 -20.031)"/><path class="dc" d="M371.92,186a10.106,10.106,0,0,1,9.376,4.732c3.761,5.57,7.486,11.087,12.646,11.087,5.828,0,10.695-8.235,10.285-16.523l-28.635-.891Z" transform="translate(-40.437 -20.06)"/><path class="dd" d="M361.242,196.05s-7.37,14.259-9.643,19.821a22.46,22.46,0,0,0-1.319,4.287" transform="translate(-38.083 -21.327)"/><path class="de" d="M386.914,170.481l-4.741-3.1-.428.535-.1.125a14.135,14.135,0,0,0,1.4,3.565c.784,1.2-1.2,4.928-1.506,5.481C384.089,175.062,386.914,170.481,386.914,170.481Z" transform="translate(-41.484 -18.209)"/><path class="df" d="M405.837,179.668s-2.674,7.272-8.912,10.2c-5.517,2.593-11.31-.891-16.1-3.565s-6.39-2.157-9.09-1.114c0,0,2.424-5.178,4.964-6.452s8.342-1.782,8.342-1.782S405.106,177.752,405.837,179.668Z" transform="translate(-40.417 -19.25)"/><path class="dg" d="M407.531,156.258c-1.782-5.748-6.051-5.757-6.051-5.757s-10.2-1.836-14.331,3.244c-3.244,3.993-3.841,7.041-5.739,11.684a8.019,8.019,0,0,0,2.2,2.3,15.549,15.549,0,0,0,3.565,1.408,11.1,11.1,0,0,0-.205,1.462c-.053.74-1.782.989-.775,3.565,1.132,2.941,12.237,14.188,19.134,5.944A17.458,17.458,0,0,0,408,173.984,37.5,37.5,0,0,0,407.531,156.258Z" transform="translate(-41.47 -16.337)"/><path class="dd" d="M351.537,217.85a7.327,7.327,0,0,0-2.807,3.191" transform="translate(-37.915 -23.699)"/><path class="bc" d="M384.791,172.45a3.189,3.189,0,0,1-.891,1.257" transform="translate(-41.741 -18.76)"/><path class="ci" d="M384.786,172.45a.828.828,0,0,1,0,.455,1.043,1.043,0,0,1-.178.383,1.017,1.017,0,0,1-.321.285.829.829,0,0,1-.437.125,1.781,1.781,0,0,1,.143-.41,1.86,1.86,0,0,1,.187-.321,1.832,1.832,0,0,1,.25-.276A1.783,1.783,0,0,1,384.786,172.45Z" transform="translate(-41.735 -18.76)"/><path class="dh" d="M368.88,182.439a.943.943,0,0,0,.267.294.241.241,0,0,0,.294,0,2.9,2.9,0,0,0,.472-.633,1.034,1.034,0,0,1-.365.784.374.374,0,0,1-.481,0A.651.651,0,0,1,368.88,182.439Z" transform="translate(-40.107 -19.81)"/><path class="dh" d="M371.689,178.91a.436.436,0,0,0,.205.116.392.392,0,0,0,.205,0,1.417,1.417,0,0,1,.526,0,1.416,1.416,0,0,1-.481.2.437.437,0,0,1-.3,0A.3.3,0,0,1,371.689,178.91Z" transform="translate(-40.412 -19.463)"/><path class="bg" d="M396.5,150.312s5.24,4.073,6.746.187A24.329,24.329,0,0,0,396.5,150.312Z" transform="translate(-43.111 -16.336)"/><path class="di" d="M396.5,150.33s5.24,4.073,6.746.187" transform="translate(-43.111 -16.354)"/><path class="di" d="M395.31,150.41a10.641,10.641,0,0,0,3.449,2.2c1.907.677,4.2.5,5.2-1.943" transform="translate(-42.982 -16.363)"/><path class="di" d="M381.87,166.29a8.912,8.912,0,0,0,5.4,3.734" transform="translate(-41.52 -18.09)"/><path class="dj" d="M392.232,181.535a11.523,11.523,0,0,1-2.611-3.565c-.793-1.943,2.121-3.28,2.852-4.251s0-2.549-.544-4.554a11.3,11.3,0,0,1,.178-4.795,31.47,31.47,0,0,1-4.456,6.167c.1.089,0,.143-.2,1.6-.125.74-1.782.989-.775,3.565a12.274,12.274,0,0,0,2.5,3.333C390.726,180.323,392.232,181.535,392.232,181.535Z" transform="translate(-42.007 -17.881)"/><path class="di" d="M391,166.542a7.862,7.862,0,0,0,2.558-1.782" transform="translate(-42.513 -17.924)"/><path class="di" d="M387.71,170.66a30.176,30.176,0,0,0,4.456-6.64" transform="translate(-42.155 -17.843)"/><path class="dk" d="M369.77,211.24a43.579,43.579,0,0,1,1.257,12.361c-.071,3.565-2.513,10.525-2.264,19.179a69.371,69.371,0,0,0,3.948,19.937L369.3,264.1l-1.123-6.613-3.431,6.372-5.953-3.743.116-2.888s.686-18.537,2.406-29.669A170.987,170.987,0,0,0,369.77,211.24Z" transform="translate(-39.009 -22.98)"/><path class="dd" d="M405.831,222.9s-3.4,9.714-5.151,13.119" transform="translate(-43.566 -24.248)"/><path class="dd" d="M361.36,227.824s6.239-9.8,8.823-17" transform="translate(-39.289 -22.934)"/><path class="dl" d="M367.07,333s3.066,13.769,2.014,21.229l-.891,5.927s2.95.891,4.055-.455,2.442-9.108,2.442-9.108Z" transform="translate(-39.91 -36.225)"/><path class="bs" d="M373.09,157s2.914.134,3.725,2.727a4.777,4.777,0,0,0-3.886-2.246Z" transform="translate(-40.547 -17.079)"/><path class="dm" d="M373.444,169.344c.241.187.125.891-.223,1.266a1.551,1.551,0,0,1-2.219,0,1.782,1.782,0,0,1-.544-1.524c0-.062.062-.062.455.107a3.307,3.307,0,0,0,1.524.125C372.8,169.29,373.087,169.067,373.444,169.344Z" transform="translate(-40.277 -18.39)"/><path class="dn" d="M394.987,137.06s-.4,1.007.339,1.337" transform="translate(-42.935 -14.91)"/><path class="bs" d="M385.94,141.592a12.993,12.993,0,0,1,3.948-.365,39.928,39.928,0,0,0-3.93.82Z" transform="translate(-41.962 -15.361)"/><path class="bs" d="M382.349,143.25a4.661,4.661,0,0,0-1.569,1.622,13.615,13.615,0,0,1,1.943-1.355Z" transform="translate(-41.401 -15.584)"/><path class="ci" d="M386.76,150.689s-.437-.677.668-.758a4.189,4.189,0,0,0,2.166-.891,2.672,2.672,0,0,1-.659.838,3.565,3.565,0,0,1-2.175.811Z" transform="translate(-42.042 -16.214)"/><path class="ci" d="M387.69,151.362h.134a1.729,1.729,0,0,0,1.3-.642s-.08.722-.615.891A.891.891,0,0,1,387.69,151.362Z" transform="translate(-42.153 -16.396)"/><g class="do" transform="translate(339.842 129.449)"><ellipse class="dp" cx="2.397" cy="3.003" rx="2.397" ry="3.003" transform="translate(-1.124 3.172) rotate(-15.36)"/></g><path class="dq" d="M384.952,146.63s-.989,1.925.178,2.736c.66.463,1.783-1.586,1.783-1.586Z" transform="translate(-41.812 -15.951)"/><path class="bg" d="M385.451,145.54s-1.078,1.6-.249,2.38,1.978-.446,1.978-.446" transform="translate(-41.848 -15.833)"/><path class="ci" d="M385.422,145.54a8.294,8.294,0,0,0-.285,1.15,1.293,1.293,0,0,0,.134.954.8.8,0,0,0,.829.312,3.3,3.3,0,0,0,1.052-.481,2.041,2.041,0,0,1-.945.829,1.123,1.123,0,0,1-1.337-.348,1.435,1.435,0,0,1-.143-1.364A2.674,2.674,0,0,1,385.422,145.54Z" transform="translate(-41.818 -15.833)"/><path class="ci" d="M389.738,148.56s-.169.891.615.428C390.353,148.952,389.783,148.952,389.738,148.56Z" transform="translate(-42.374 -16.161)"/><path class="be" d="M360.45,313.16c1.372,4.928,7.014,20.5,12.1,32.663" transform="translate(-39.19 -34.067)"/><path class="dr" d="M375.36,180.358s3.458-.811,5.65.392,5.026,1.194,6.007.57a13.924,13.924,0,0,0,1.167-.829s-1.069-1.168-1.738-2a6.548,6.548,0,0,1-.891-1.515,51.153,51.153,0,0,0-6.782,1.248,8.35,8.35,0,0,0-1.577.588A7.709,7.709,0,0,0,375.36,180.358Z" transform="translate(-40.812 -19.253)"/><path class="be" d="M306.22,238.94s3.618,6.871,18.136,4.456" transform="translate(-33.29 -25.993)"/><path class="ac" d="M178.46,320.879l-4.42,4.055,47.609-2.29v-.062l-4.42-4Z" transform="translate(-18.911 -34.657)"/><path class="ds" d="M217.112,252l4.536-4.064-47.609.464,4.42,4.055Z" transform="translate(-18.911 -26.972)"/><path class="ds" d="M222.37,252h.116V310.9l4.421,4V247.94Z" transform="translate(-24.169 -26.972)"/><path class="ac" d="M178.46,252.515l-4.42-4.055v68.846l4.42-4.055Z" transform="translate(-18.911 -27.029)"/><path class="dt" d="M227.46,323.07" transform="translate(-24.723 -35.145)"/><path class="dt" d="M222.5,318.59" transform="translate(-24.183 -34.658)"/><path class="ac" d="M178.46,208.68l-4.42,4.055,47.609.766v-.053l-4.42-4Z" transform="translate(-18.911 -22.701)"/><path class="ds" d="M217.112,142.636l4.536-4.055L174.04,135.97l4.42,4.055Z" transform="translate(-18.911 -14.792)"/><path class="ds" d="M222.37,142.955h.116v58.9l4.421,4V138.9Z" transform="translate(-24.169 -15.111)"/><path class="ac" d="M178.46,140.025l-4.42-4.055v68.855l4.42-4.055Z" transform="translate(-18.911 -14.792)"/><path class="dt" d="M227.46,214" transform="translate(-24.723 -23.28)"/><path class="ac" d="M178.46,237.068l-4.42,4.055,47.609-.339v-.062l-4.42-4Z" transform="translate(-18.911 -25.752)"/><path class="ds" d="M217.112,223.268l4.536-4.064-47.609-.374,4.42,4.055Z" transform="translate(-18.911 -23.806)"/><path class="ds" d="M222.37,223.314h.116V234.82l4.421,4V219.25Z" transform="translate(-24.169 -23.851)"/><path class="ac" d="M178.46,222.885l-4.42-4.055v20.346l4.42-4.055Z" transform="translate(-18.911 -23.806)"/><path class="dt" d="M180.23,223.45" transform="translate(-19.585 -24.308)"/><path class="dt" d="M175.05,218.35" transform="translate(-19.021 -23.753)"/><rect class="du" width="4.082" height="196.041" transform="translate(139.006 107.311)"/><path class="dv" d="M209.62,163.347l-20.07-.428V156.85l20.07,1.069Z" transform="translate(-20.599 -17.063)"/><path class="dv" d="M209.661,163.008l-19.732-.41V156.85l19.732,1.007Z" transform="translate(-20.64 -17.063)"/><g class="dw" transform="translate(169.29 139.787)"><path class="dx" d="M202.767,155.831l-2.923,7.049-3.886,1.488L185.7,162.8s.5-7.281.749-7.691,14.144-.659,14.144-.659Z" transform="translate(-189.47 -156.589)"/></g><ellipse class="dy" cx="0.312" cy="0.472" rx="0.312" ry="0.472" transform="translate(187.533 142.87)"/><ellipse class="dy" cx="0.312" cy="0.472" rx="0.312" ry="0.472" transform="translate(170.324 142.157)"/><path class="i" d="M121.7,276.57s3.039-5.125,7.379-6.72" transform="translate(-13.218 -29.356)"/><path class="dz" d="M270.853,135.69l-8.164,22.485v78.864h8.164Z" transform="translate(-28.555 -14.761)"/><path class="ea" d="M145.99,135.65l8.939,22.485v78.873H145.99Z" transform="translate(-15.86 -14.757)"/><path class="eb" d="M220.806,219.22l-1.506,4.064h2.736l4.536-4.064Z" transform="translate(-23.835 -23.848)"/><path class="ec" d="M210.873,248.06l-1.364,4.109,11.425.027,4.554-4.135Z" transform="translate(-22.77 -26.985)"/><line class="i" x2="1.399" y2="0.143" transform="translate(339.584 330.89)"/><line class="i" x2="1.399" y2="0.143" transform="translate(339.584 329.491)"/><line class="i" x2="1.399" y2="0.143" transform="translate(339.584 328.092)"/><path class="ac" d="M161.987,85.068l.089.178h-1.453l.125.178a1.667,1.667,0,0,0,.686.57c.089.107.455.579.891.579h.668a3.672,3.672,0,0,0,1.4,1.1l.891,1.257-.392.392a.116.116,0,0,0,0,.16.125.125,0,0,0,.089,0,.116.116,0,0,0,.08,0l.374-.374.267.357a.16.16,0,0,0,.1,0h.062a.116.116,0,0,0,0-.16L164.7,87.751h.276a2.674,2.674,0,0,0,.579-.071l.891,1.221-.383.383a.09.09,0,0,0,.08.16.125.125,0,0,0,.089,0l.356-.357.241.339a.16.16,0,0,0,.1,0H167a.116.116,0,0,0,0-.16l-1.23-1.667a5.544,5.544,0,0,0,2.112-1.577c.178-.187.357-.374.517-.517a4.006,4.006,0,0,0,.339-.339h1.016l-.5-.677a1.328,1.328,0,0,0,0-1.078,7.683,7.683,0,0,0-1.453-1.782l-.187-.178v.49l-.4-.205-.062.294-1.782.766a.116.116,0,0,0,.018.036H164.09a5.917,5.917,0,0,0-3.618,1.782l-.152.151h.205Zm5.579-1.836c.071-.062.232,0,.339.116s.143.285.062.348a.481.481,0,0,1-.339-.116C167.521,83.455,167.494,83.295,167.566,83.232Z" transform="translate(-17.419 -8.861)"/><line class="ed" y1="56.218" transform="translate(150.173 240.708)"/><path class="b" d="M236.79,238.06" transform="translate(-25.738 -25.897)"/><path class="ee" d="M149.713,280.67a9.35,9.35,0,0,0-3.28,4.83c-.891,3.048-2.068,5.606-4.1,6.47-5.7,2.424-1.854,5.927-6.176,8.912-2.326,1.613-3.805,2.879-4.456,5.552-.82,3.4-1.6,4.456-4.456,6.034-.553.3-4.109-.588-5.846,2.861-2.371,4.715-2.994,14.259-2.968,15.668h-1.3a63.65,63.65,0,0,1,4.625-22.664C127.156,295.687,138.056,283.085,149.713,280.67Z" transform="translate(-12.721 -30.533)"/><path class="ee" d="M84.8,254.26s-.374,12.655,5.419,17.094,3.2,6.381,3.306,8.966a9.224,9.224,0,0,0,4.215,7.228c2.593,1.551-1.176,6.123,6.862,11.907s5.419,22.414,4.634,30.043l1.64.169s1.711-21.211-1.283-34.116c-3.057-13.172-6.675-22.726-15.24-30.587S84.8,254.26,84.8,254.26Z" transform="translate(-9.203 -27.66)"/><path class="ee" d="M132.273,242.63S115.83,253.761,116,279.5s0,47.956,0,47.956h2.914s-2.228-26.736-1.372-32.886,2.959-6.051,6.6-8.226-.6-6.506,1.782-9.251,3.77-1.2,2.567-8.021,5.08-6.506,5.347-12.334S131.418,248.8,132.273,242.63Z" transform="translate(-12.598 -26.395)"/><g class="ef" transform="translate(103.401 216.235)"><path class="eg" d="M131.92,242.235a17.477,17.477,0,0,0-4.153,11.39c0,7.058-1.729,6.31-4.8,9.91s-1.729,4.126-1.952,9.688-4.884,9.607-5.107,15.685-3.155-2.032-3.155-2.032l5.347-42.262L127.232,239Z" transform="translate(-115.645 -242.235)"/></g><g class="eh" transform="translate(75.591 226.6)"><path class="ei" d="M84.795,254.014S86.2,261.4,89.8,265.368,97,269.334,97.619,273.8s-.294,5.971,3.565,9.349c2.317,2.014,2.112,3.3,2.736,7.272s6.845,9.3,7.522,14.741c.321,2.62,1.381-4.83-.2-17.824-1.132-9.3-6.444-25.3-6.444-25.3L85.864,252l-1.114,1.613" transform="translate(-84.79 -254.014)"/></g><g class="ej" transform="translate(104.409 250.137)"><path class="ek" d="M149.635,280.772a13.511,13.511,0,0,0-9.937,8.413c-3.039,7.486-4.322,4.911-6.238,7.014s-1.9,6.5-6.239,8.912c-5.133,2.87-6.042,2.674-7.789,9.429l-1.052,4.911,8.912.82,23.724-26.059,2.335-16.042-3.565,2.2" transform="translate(-117.266 -280.398)"/></g><path class="aq" d="M121.637,350.423h-9.153a7.451,7.451,0,0,1-7.3-5.971l-3.565-17.557a3.93,3.93,0,0,1,3.859-4.714h24.063a3.208,3.208,0,0,1,3.146,3.85l-3.734,18.422A7.45,7.45,0,0,1,121.637,350.423Z" transform="translate(-11.025 -35.048)"/><g class="el" transform="translate(90.42 287.132)"><path class="em" d="M126.918,321.518s-5.82,13.93-24.268,20.2l.544,6.88a7.451,7.451,0,0,0,4,6.025c3.11,1.613,7.13,3.672,7.736,3.788.954.187,19.4-4.376,19.776-4.946s3.618-19.972,3.618-20.5,0-11.22-.383-11.791-11.22-3.609-11.22-3.609l.419,2.674Z" transform="translate(-101.565 -321.678)"/></g></g></svg>