<svg xmlns="http://www.w3.org/2000/svg" width="203.133" height="186.279" viewBox="0 0 203.133 186.279"><defs><style>.a{stroke:#707070;}</style></defs><g transform="translate(0.5 0.5)"><g transform="translate(134.75 143.17)"><path class="a" d="M362.388,384a21.054,21.054,0,1,0,21.054,21.055A21.084,21.084,0,0,0,362.388,384Zm0,33.687a12.633,12.633,0,1,1,12.633-12.633A12.648,12.648,0,0,1,362.388,417.689Z" transform="translate(-341.334 -384.002)"/></g><g transform="translate(50.531 143.17)"><path class="a" d="M149.054,384a21.054,21.054,0,1,0,21.054,21.054A21.084,21.084,0,0,0,149.054,384Zm0,33.687a12.633,12.633,0,1,1,12.633-12.633A12.648,12.648,0,0,1,149.054,417.689Z" transform="translate(-128 -384.002)"/></g><g transform="translate(0 0)"><path class="a" d="M181.07,147.663H75.451a21.11,21.11,0,0,1-20.642-16.928L33.6,24.722a4.21,4.21,0,0,0-4.127-3.386H4.211a4.211,4.211,0,1,0,0,8.422H26.023L46.547,132.394a29.558,29.558,0,0,0,28.9,23.691H181.069a4.211,4.211,0,1,0,0-8.422Z" transform="translate(0 -21.336)"/></g><g transform="translate(33.687 25.265)"><path class="a" d="M252.742,86.784a4.228,4.228,0,0,0-3.183-1.448H89.544a4.211,4.211,0,1,0,0,8.422H244.7l-6.8,47.743a4.217,4.217,0,0,1-3.663,3.588L101.68,161.157a4.213,4.213,0,0,0,.5,8.4,5.021,5.021,0,0,0,.505-.025l132.551-16.077A12.661,12.661,0,0,0,246.215,142.7l7.512-52.56A4.186,4.186,0,0,0,252.742,86.784Z" transform="translate(-85.333 -85.336)"/></g></g></svg>