<svg xmlns="http://www.w3.org/2000/svg" width="203.184" height="177.856" viewBox="0 0 203.184 177.856"><defs><style>.a{stroke:#707070;}</style></defs><g transform="translate(0.565 0.503)"><g transform="translate(25.261 67.369)"><path class="a" d="M194.527,202.654H76.621a12.648,12.648,0,0,0-12.633,12.633v8.422A79.811,79.811,0,0,0,107.3,294.83a4.213,4.213,0,1,0,3.866-7.487A71.405,71.405,0,0,1,72.41,223.708v-8.422a4.213,4.213,0,0,1,4.211-4.211H194.527a4.213,4.213,0,0,1,4.211,4.211v8.422a71.375,71.375,0,0,1-38.766,63.627,4.214,4.214,0,0,0,1.937,7.959,4.153,4.153,0,0,0,1.928-.472,79.771,79.771,0,0,0,43.322-71.114v-8.422A12.648,12.648,0,0,0,194.527,202.654Z" transform="translate(-63.988 -202.654)"/></g><g transform="translate(0 151.579)"><path class="a" d="M193.386,418.568a4.22,4.22,0,0,0-3.891-2.6H4.214a4.216,4.216,0,0,0-2.981,7.193l9.441,9.449a29.3,29.3,0,0,0,20.844,8.633H162.174a29.352,29.352,0,0,0,20.861-8.633l9.441-9.449A4.2,4.2,0,0,0,193.386,418.568Zm-16.313,8.085a20.935,20.935,0,0,1-14.89,6.165H31.518a20.935,20.935,0,0,1-14.89-6.165L14.372,424.4H179.33Z" transform="translate(0 -415.966)"/></g><g transform="translate(140.181 84.194)"><path class="a" d="M408.887,248.332c-11.344-7.293-29.468.623-31.5,1.541a4.215,4.215,0,1,0,3.495,7.672c4.059-1.844,17.079-6.215,23.446-2.114,2.872,1.844,4.278,5.424,4.278,10.915,0,16.86-34.007,27.051-47.137,29.561l-2.981.589a4.208,4.208,0,0,0,.809,8.338,3.906,3.906,0,0,0,.817-.084l2.956-.581c2.206-.421,53.959-10.569,53.959-37.822C417.031,257.874,414.286,251.818,408.887,248.332Z" transform="translate(-355.093 -245.272)"/></g><g transform="translate(117.906 0)"><path class="a" d="M310.393,64.1c6.847-8.557,6.847-21.956,0-30.512a4.212,4.212,0,1,0-6.577,5.263c4.337,5.415,4.337,14.57-.008,20-6.855,8.557-6.855,21.956,0,30.512a4.212,4.212,0,0,0,6.577-5.263C306.039,78.686,306.039,69.531,310.393,64.1Z" transform="translate(-298.666 -32.001)"/></g><g transform="translate(92.613 0.003)"><path class="a" d="M246.318,64.1c6.855-8.557,6.855-21.956,0-30.512a4.212,4.212,0,1,0-6.577,5.263c4.346,5.415,4.346,14.57-.008,20-6.847,8.557-6.847,21.956,0,30.512a4.212,4.212,0,1,0,6.577-5.263C241.972,78.691,241.972,69.537,246.318,64.1Z" transform="translate(-234.597 -32.009)"/></g><g transform="translate(67.375 0.008)"><path class="a" d="M182.393,64.12c6.847-8.557,6.847-21.956,0-30.512a4.209,4.209,0,0,0-6.577,5.255c4.337,5.415,4.337,14.57-.008,20-6.855,8.557-6.855,21.956,0,30.512a4.209,4.209,0,1,0,6.577-5.255C178.039,78.7,178.039,69.552,182.393,64.12Z" transform="translate(-170.666 -32.022)"/></g></g></svg>