<svg xmlns="http://www.w3.org/2000/svg" width="203.263" height="203.217" viewBox="0 0 203.263 203.217"><defs><style>.a{stroke:#707070;}</style></defs><g transform="translate(0.5 0.594)"><g transform="translate(50.251 0.068)"><path class="a" d="M238.915,55.579a4.208,4.208,0,0,0-6.181,5.71c32.736,35.464,44.476,69.556,34.892,79.148-10.5,10.519-49.824-5.255-86.686-42.109-17.635-17.635-31.6-36.921-39.3-54.3-6.771-15.269-7.815-27.371-2.8-32.382,9.559-9.559,43.743,2.3,79.418,35.152a4.214,4.214,0,1,0,5.71-6.2C186.565,6.177,147.4-8.831,132.876,5.688c-7.8,7.79-7.42,22.621,1.061,41.764,8.119,18.3,22.7,38.487,41.048,56.839,29.561,29.552,62.279,47.566,83.073,47.558,6.493,0,11.824-1.752,15.513-5.457C288.149,131.813,273.243,92.77,238.915,55.579Z" transform="translate(-127.289 -0.173)"/></g><g transform="translate(33.687 6.122)"><path class="a" d="M247.083,151.369a4.219,4.219,0,0,0-5.912-.75,86.371,86.371,0,0,1-54.776,18.78,92.75,92.75,0,0,1-92.64-92.64c0-20.878,5.9-38.184,18.545-54.455a4.207,4.207,0,0,0-6.645-5.163C91.978,34.718,85.333,54.214,85.333,76.76A101.174,101.174,0,0,0,186.395,177.821c22.478,0,42.084-6.721,59.938-20.541A4.218,4.218,0,0,0,247.083,151.369Z" transform="translate(-85.333 -15.507)"/></g><g transform="translate(80.009 16.833)"><path class="a" d="M306.7,43.879a4.174,4.174,0,0,0-5.162-.615l-96.851,58.952a4.21,4.21,0,0,0,4.379,7.192l82.062-49.95-49.95,82.062a4.206,4.206,0,0,0,1.407,5.786,4.193,4.193,0,0,0,5.777-1.415L307.32,49.042A4.2,4.2,0,0,0,306.7,43.879Z" transform="translate(-202.672 -42.639)"/></g><g transform="translate(42.113 129.633)"><path class="a" d="M156.942,378.328l-14.4-38.235a4.211,4.211,0,0,0-7.883,2.965L146.911,375.6H117L132.8,334.088a4.209,4.209,0,0,0-7.866-3L106.95,378.311a4.2,4.2,0,0,0,3.933,5.71h42.109a4.224,4.224,0,0,0,3.47-1.819A4.18,4.18,0,0,0,156.942,378.328Z" transform="translate(-106.675 -328.375)"/></g><g transform="translate(0 176.858)"><path class="a" d="M130.539,448H4.211A4.213,4.213,0,0,0,0,452.211v16.844a4.213,4.213,0,0,0,4.211,4.211H130.539a4.213,4.213,0,0,0,4.211-4.211V452.211A4.213,4.213,0,0,0,130.539,448Zm-4.211,16.844H8.422v-8.422H126.328Z" transform="translate(0 -448)"/></g><g transform="translate(176.859)"><path class="a" d="M460.633,0a12.633,12.633,0,1,0,12.633,12.633A12.648,12.648,0,0,0,460.633,0Zm0,16.844a4.211,4.211,0,1,1,4.211-4.211A4.223,4.223,0,0,1,460.633,16.844Z" transform="translate(-448)"/></g></g></svg>