<svg xmlns="http://www.w3.org/2000/svg" width="194.702" height="194.701" viewBox="0 0 194.702 194.701"><defs><style>.a{stroke:#707070;}</style></defs><g transform="translate(0.5 0.5)"><path class="a" d="M130.539,75.8a4.213,4.213,0,0,0,4.211-4.211V21.054A21.079,21.079,0,0,0,113.695,0H21.054A21.078,21.078,0,0,0,0,21.054V172.647A21.078,21.078,0,0,0,21.054,193.7h92.64a21.078,21.078,0,0,0,21.054-21.054V122.116a4.211,4.211,0,1,0-8.422,0v50.531a12.648,12.648,0,0,1-12.633,12.633H21.054A12.648,12.648,0,0,1,8.422,172.647V21.054A12.648,12.648,0,0,1,21.054,8.422h92.64a12.648,12.648,0,0,1,12.633,12.633V71.585A4.213,4.213,0,0,0,130.539,75.8Z"/><g transform="translate(50.531 92.64)"><path class="a" d="M266.96,234.667H132.211a4.211,4.211,0,1,0,0,8.422H266.96a4.211,4.211,0,1,0,0-8.422Z" transform="translate(-128 -234.667)"/></g><g transform="translate(160.013 67.389)"><path class="a" d="M437.78,197.2l-25.266-25.265a4.21,4.21,0,1,0-5.954,5.954l22.284,22.284L406.56,222.458a4.213,4.213,0,0,0,5.954,5.963l25.266-25.265A4.214,4.214,0,0,0,437.78,197.2Z" transform="translate(-405.328 -170.704)"/></g></g></svg>