<svg xmlns="http://www.w3.org/2000/svg" width="203.124" height="203.126" viewBox="0 0 203.124 203.126"><defs><style>.a{stroke:#707070;}</style></defs><g transform="translate(0.5 0.499)"><g transform="translate(0 50.534)"><path class="a" d="M75.8,128.009a75.8,75.8,0,1,0,75.8,75.8A75.884,75.884,0,0,0,75.8,128.009Zm0,143.171a67.375,67.375,0,1,1,67.375-67.374A67.453,67.453,0,0,1,75.8,271.18Z" transform="translate(-0.004 -128.009)"/></g><g transform="translate(122.114 0)"><path class="a" d="M388.323,1.461h-.008a4.124,4.124,0,0,0-.623-.589,4.2,4.2,0,0,0-2.266-.859A1.75,1.75,0,0,0,385.1,0H326.178a4.211,4.211,0,0,0,0,8.422h48.788l-64.4,64.4a4.21,4.21,0,1,0,5.963,5.946L380.92,14.38V63.168a4.211,4.211,0,1,0,8.422-.017V4.165A4.269,4.269,0,0,0,388.323,1.461Z" transform="translate(-309.332 -0.001)"/></g></g></svg>