<svg xmlns="http://www.w3.org/2000/svg" width="203.124" height="203.146" viewBox="0 0 203.124 203.146"><defs><style>.a{stroke:#707070;}</style></defs><g transform="translate(0.5 0.5)"><g transform="translate(0)"><path class="a" d="M195.995,139.5,117.916,61.42V26.807a38.276,38.276,0,0,0-3.6-16.119l-1.777-3.36a12.632,12.632,0,0,0-22.832-.2L87.74,10.872a38.139,38.139,0,0,0-3.512,15.934V61.42L6.175,139.473A20.95,20.95,0,0,0,.01,154.363v9.862a4.213,4.213,0,0,0,6.485,3.545l79.359-50.859c.783,12.759,1.853,23.4,3.15,36.357L90.343,166.5l-29.485,19.48a4.188,4.188,0,0,0-1.895,3.512v8.422a4.208,4.208,0,0,0,5.12,4.118l36.989-8.22,36.989,8.211a4.119,4.119,0,0,0,.91.1,4.209,4.209,0,0,0,4.211-4.211v-8.422a4.262,4.262,0,0,0-1.895-3.529L111.8,166.516l1.339-13.281c1.306-12.936,2.367-23.573,3.15-36.323l79.368,50.851a4.205,4.205,0,0,0,6.477-3.537v-9.862A20.881,20.881,0,0,0,195.995,139.5Zm-2.282,17.029-78.955-50.581a4.22,4.22,0,0,0-6.485,3.343c-.792,15.951-1.928,27.345-3.512,43.128l-1.6,15.791a4.216,4.216,0,0,0,1.87,3.95l29.729,19.606v.9l-32.778-7.285a4.144,4.144,0,0,0-1.819,0l-32.778,7.285v-.9l29.729-19.648a4.183,4.183,0,0,0,1.87-3.95l-1.592-15.732c-1.583-15.791-2.729-27.2-3.512-43.162a4.22,4.22,0,0,0-6.485-3.343l-78.964,50.6v-2.165a12.693,12.693,0,0,1,3.706-8.927L91.421,66.145a4.241,4.241,0,0,0,1.23-2.981V26.807a29.465,29.465,0,0,1,2.636-12.195l1.962-3.748a4.159,4.159,0,0,1,3.823-2.442,4.276,4.276,0,0,1,3.916,2.628l1.777,3.369a29.642,29.642,0,0,1,2.729,12.388V63.164a4.214,4.214,0,0,0,1.238,2.981l79.308,79.308a12.528,12.528,0,0,1,3.672,8.91Z" transform="translate(-0.01)"/></g></g></svg>