<svg xmlns="http://www.w3.org/2000/svg" xmlns:xlink="http://www.w3.org/1999/xlink" width="1018.469" height="1004.402" viewBox="0 0 1018.469 1004.402"><defs><style>.a{fill:#fff;}.b{filter:url(#w);}.c{filter:url(#u);}.d{filter:url(#s);}.e{filter:url(#q);}.f{filter:url(#o);}.g{filter:url(#m);}.h{filter:url(#k);}.i{filter:url(#i);}.j{filter:url(#g);}.k{filter:url(#e);}.l{filter:url(#c);}.m{filter:url(#a);}</style><filter id="a" x="0" y="0" width="1018.469" height="1004.402" filterUnits="userSpaceOnUse"><feOffset dy="12" input="SourceAlpha"/><feGaussianBlur stdDeviation="12" result="b"/><feFlood flood-color="#4a4646" flood-opacity="0.161"/><feComposite operator="in" in2="b"/><feComposite in="SourceGraphic"/></filter><filter id="c" x="67" y="296" width="229" height="229" filterUnits="userSpaceOnUse"><feOffset dy="-10" input="SourceAlpha"/><feGaussianBlur stdDeviation="15" result="d"/><feFlood flood-opacity="0.161"/><feComposite operator="in" in2="d"/><feComposite in="SourceGraphic"/></filter><filter id="e" x="225" y="424" width="229" height="229" filterUnits="userSpaceOnUse"><feOffset dy="-10" input="SourceAlpha"/><feGaussianBlur stdDeviation="15" result="f"/><feFlood flood-opacity="0.161"/><feComposite operator="in" in2="f"/><feComposite in="SourceGraphic"/></filter><filter id="g" x="434" y="424" width="229" height="229" filterUnits="userSpaceOnUse"><feOffset dy="-10" input="SourceAlpha"/><feGaussianBlur stdDeviation="15" result="h"/><feFlood flood-opacity="0.161"/><feComposite operator="in" in2="h"/><feComposite in="SourceGraphic"/></filter><filter id="i" x="514" y="262" width="229" height="229" filterUnits="userSpaceOnUse"><feOffset dy="-10" input="SourceAlpha"/><feGaussianBlur stdDeviation="15" result="j"/><feFlood flood-opacity="0.161"/><feComposite operator="in" in2="j"/><feComposite in="SourceGraphic"/></filter><filter id="k" x="756" y="328" width="229" height="229" filterUnits="userSpaceOnUse"><feOffset dy="-10" input="SourceAlpha"/><feGaussianBlur stdDeviation="15" result="l"/><feFlood flood-opacity="0.161"/><feComposite operator="in" in2="l"/><feComposite in="SourceGraphic"/></filter><filter id="m" x="616" y="435" width="229" height="229" filterUnits="userSpaceOnUse"><feOffset dy="-10" input="SourceAlpha"/><feGaussianBlur stdDeviation="15" result="n"/><feFlood flood-opacity="0.161"/><feComposite operator="in" in2="n"/><feComposite in="SourceGraphic"/></filter><filter id="o" x="547" y="585" width="229" height="229" filterUnits="userSpaceOnUse"><feOffset dy="-10" input="SourceAlpha"/><feGaussianBlur stdDeviation="15" result="p"/><feFlood flood-opacity="0.161"/><feComposite operator="in" in2="p"/><feComposite in="SourceGraphic"/></filter><filter id="q" x="325" y="564" width="229" height="229" filterUnits="userSpaceOnUse"><feOffset dy="-10" input="SourceAlpha"/><feGaussianBlur stdDeviation="15" result="r"/><feFlood flood-opacity="0.161"/><feComposite operator="in" in2="r"/><feComposite in="SourceGraphic"/></filter><filter id="s" x="72" y="494" width="229" height="229" filterUnits="userSpaceOnUse"><feOffset dy="-10" input="SourceAlpha"/><feGaussianBlur stdDeviation="15" result="t"/><feFlood flood-opacity="0.161"/><feComposite operator="in" in2="t"/><feComposite in="SourceGraphic"/></filter><filter id="u" x="295" y="274" width="229" height="229" filterUnits="userSpaceOnUse"><feOffset dy="-10" input="SourceAlpha"/><feGaussianBlur stdDeviation="15" result="v"/><feFlood flood-opacity="0.161"/><feComposite operator="in" in2="v"/><feComposite in="SourceGraphic"/></filter><filter id="w" x="125" y="371" width="110.256" height="110.256" filterUnits="userSpaceOnUse"><feOffset dy="6" input="SourceAlpha"/><feGaussianBlur stdDeviation="6" result="x"/><feFlood flood-opacity="0.2"/><feComposite operator="in" in2="x"/><feComposite in="SourceGraphic"/></filter></defs><g transform="translate(-1211 -4439)"><g class="m" transform="matrix(1, 0, 0, 1, 1211, 4439)"><rect class="a" width="946.469" height="932.402" rx="50" transform="translate(36 24)"/></g><g class="l" transform="matrix(1, 0, 0, 1, 1211, 4439)"><rect class="a" width="139" height="139" rx="69.5" transform="translate(112 351)"/></g><g class="k" transform="matrix(1, 0, 0, 1, 1211, 4439)"><rect class="a" width="139" height="139" rx="69.5" transform="translate(270 479)"/></g><g class="j" transform="matrix(1, 0, 0, 1, 1211, 4439)"><rect class="a" width="139" height="139" rx="69.5" transform="translate(479 479)"/></g><g class="i" transform="matrix(1, 0, 0, 1, 1211, 4439)"><rect class="a" width="139" height="139" rx="69.5" transform="translate(559 317)"/></g><g class="h" transform="matrix(1, 0, 0, 1, 1211, 4439)"><rect class="a" width="139" height="139" rx="69.5" transform="translate(801 383)"/></g><g class="g" transform="matrix(1, 0, 0, 1, 1211, 4439)"><rect class="a" width="139" height="139" rx="69.5" transform="translate(661 490)"/></g><g class="f" transform="matrix(1, 0, 0, 1, 1211, 4439)"><rect class="a" width="139" height="139" rx="69.5" transform="translate(592 640)"/></g><g class="e" transform="matrix(1, 0, 0, 1, 1211, 4439)"><rect class="a" width="139" height="139" rx="69.5" transform="translate(370 619)"/></g><g class="d" transform="matrix(1, 0, 0, 1, 1211, 4439)"><rect class="a" width="139" height="139" rx="69.5" transform="translate(117 549)"/></g><g class="c" transform="matrix(1, 0, 0, 1, 1211, 4439)"><rect class="a" width="139" height="139" rx="69.5" transform="translate(340 329)"/></g><g transform="translate(1354 4822)"><g class="b" transform="matrix(1, 0, 0, 1, -143, -383)"><path d="M37.128,0A37.128,37.128,0,1,0,74.257,37.128,37.169,37.169,0,0,0,37.128,0Zm0,70.72A33.592,33.592,0,1,1,70.721,37.128,33.632,33.632,0,0,1,37.128,70.72Z" transform="translate(143 383)"/></g></g><g transform="translate(1371.68 4822)"><path d="M126.115,35.36a15.912,15.912,0,1,1,0-31.824,1.768,1.768,0,1,0,0-3.536,19.448,19.448,0,0,0,0,38.9,15.912,15.912,0,1,1,0,31.824,1.768,1.768,0,1,0,0,3.536,19.448,19.448,0,0,0,0-38.9Z" transform="translate(-106.667)"/></g><g transform="translate(1387.592 4837.912)"><path d="M206.2,96a3.536,3.536,0,1,0,3.536,3.536A3.54,3.54,0,0,0,206.2,96Z" transform="translate(-202.667 -96)"/></g><g transform="translate(1387.592 4873.272)"><path d="M206.2,309.333a3.536,3.536,0,1,0,3.536,3.536A3.54,3.54,0,0,0,206.2,309.333Z" transform="translate(-202.667 -309.333)"/></g><g transform="translate(1586.26 4805)"><path d="M25.389,0A25.381,25.381,0,1,0,50.769,25.381,25.409,25.409,0,0,0,25.389,0Zm0,47.775A22.395,22.395,0,1,1,47.783,25.381,22.418,22.418,0,0,1,25.389,47.775Z" transform="translate(-0.008)"/></g><g transform="translate(1627.039 4845.781)"><path d="M321.8,319.7l-27.9-27.9a1.493,1.493,0,1,0-2.111,2.111l27.9,27.9A1.493,1.493,0,0,0,321.8,319.7Z" transform="translate(-291.352 -291.365)"/></g><g transform="translate(1610.148 4816.944)"><path d="M172.167,85.333a1.494,1.494,0,0,0-1.493,1.493v23.888a1.493,1.493,0,0,0,2.986,0V86.826A1.494,1.494,0,0,0,172.167,85.333Z" transform="translate(-170.674 -85.333)"/></g><g transform="translate(1598.204 4828.888)"><path d="M110.722,170.667H86.834a1.493,1.493,0,1,0,0,2.986h23.888a1.493,1.493,0,1,0,0-2.986Z" transform="translate(-85.341 -170.667)"/></g><g transform="translate(1798.591 4785)"><path d="M40.274,21.547A40.247,40.247,0,0,0,17.539,95.023a1.677,1.677,0,0,0,1.893-2.769,36.918,36.918,0,1,1,41.687,0,1.679,1.679,0,0,0,1.9,2.769A40.249,40.249,0,0,0,40.274,21.547Z" transform="translate(0 -21.547)"/></g><g transform="translate(1808.659 4795.068)"><path d="M94.205,85.547a30.185,30.185,0,0,0-17.049,55.108,1.677,1.677,0,0,0,1.893-2.769,26.85,26.85,0,1,1,30.316,0,1.679,1.679,0,0,0,1.9,2.769,30.187,30.187,0,0,0-17.059-55.1Z" transform="translate(-64 -85.547)"/></g><g transform="translate(1818.727 4805.137)"><path d="M148.137,149.547a20.123,20.123,0,0,0-11.364,36.74,1.677,1.677,0,0,0,1.893-2.769,16.78,16.78,0,1,1,18.949,0,1.677,1.677,0,0,0,1.893,2.769,20.124,20.124,0,0,0-11.371-36.736Z" transform="translate(-128 -149.547)"/></g><g transform="translate(1832.152 4818.561)"><path d="M220.045,234.88a6.712,6.712,0,1,0,6.712,6.712A6.719,6.719,0,0,0,220.045,234.88Zm0,10.068a3.356,3.356,0,1,1,3.356-3.356A3.359,3.359,0,0,1,220.045,244.948Z" transform="translate(-213.333 -234.88)"/></g><g transform="translate(2049.23 4859)"><path d="M55.492,0H6.453A6.46,6.46,0,0,0,0,6.453v49.04a6.46,6.46,0,0,0,6.453,6.453h49.04a6.46,6.46,0,0,0,6.453-6.453V6.453A6.46,6.46,0,0,0,55.492,0Zm3.872,55.492a3.876,3.876,0,0,1-3.872,3.872H6.453a3.876,3.876,0,0,1-3.872-3.872V6.453A3.876,3.876,0,0,1,6.453,2.581h49.04a3.876,3.876,0,0,1,3.872,3.872v49.04Z"/></g><g transform="translate(2049.23 4869.324)"><path d="M60.654,85.333H1.291a1.291,1.291,0,0,0,0,2.581H60.654a1.291,1.291,0,1,0,0-2.581Z" transform="translate(0 -85.333)"/></g><g transform="translate(2054.393 4864.162)"><circle cx="1.291" cy="1.291" r="1.291"/></g><g transform="translate(2059.555 4864.162)"><circle cx="1.291" cy="1.291" r="1.291"/></g><g transform="translate(2064.717 4864.162)"><circle cx="1.291" cy="1.291" r="1.291"/></g><g transform="translate(2059.555 4882.229)"><path d="M125.339,192H86.624a1.29,1.29,0,1,0,0,2.581h38.716a1.29,1.29,0,1,0,0-2.581Z" transform="translate(-85.333 -192)"/></g><g transform="translate(2059.555 4892.553)"><path d="M125.339,277.333H86.624a1.291,1.291,0,1,0,0,2.581h38.716a1.291,1.291,0,1,0,0-2.581Z" transform="translate(-85.333 -277.333)"/></g><g transform="translate(2059.555 4902.877)"><path d="M125.339,362.667H86.624a1.29,1.29,0,1,0,0,2.581h38.716a1.29,1.29,0,1,0,0-2.581Z" transform="translate(-85.333 -362.667)"/></g><g transform="translate(1520.198 4956.396)"><path d="M53.143,51.3l-8.111-8.084a1.347,1.347,0,0,0-1.9,1.908L51.241,53.2a1.347,1.347,0,1,0,1.9-1.908Z" transform="translate(-42.734 -42.819)"/></g><g transform="translate(1514.809 4969.869)"><path d="M12.195,149.48H1.416a1.347,1.347,0,0,0,0,2.695H12.195a1.347,1.347,0,0,0,0-2.695Z" transform="translate(-0.069 -149.48)"/></g><g transform="translate(1533.698 4951.007)"><path d="M150.963.147a1.348,1.348,0,0,0-1.347,1.347V12.273a1.347,1.347,0,1,0,2.695,0V1.494A1.348,1.348,0,0,0,150.963.147Z" transform="translate(-149.616 -0.147)"/></g><g transform="translate(1563.312 4996.816)"><path d="M394.471,371.3l-8.111-8.084a1.346,1.346,0,1,0-1.9,1.908l8.111,8.084a1.346,1.346,0,1,0,1.9-1.908Z" transform="translate(-384.064 -362.819)"/></g><g transform="translate(1566.034 4991.426)"><path d="M417.742,320.147H406.963a1.347,1.347,0,1,0,0,2.695h10.778a1.347,1.347,0,1,0,0-2.695Z" transform="translate(-405.616 -320.147)"/></g><g transform="translate(1557.923 4999.51)"><path d="M342.749,384.147a1.348,1.348,0,0,0-1.347,1.347v10.778a1.347,1.347,0,0,0,2.695,0V385.494A1.348,1.348,0,0,0,342.749,384.147Z" transform="translate(-341.402 -384.147)"/></g><g transform="translate(1541.251 4951)"><path d="M244.1,3.638a12.139,12.139,0,0,0-17.146,0L215.191,15.4A1.347,1.347,0,0,0,217.1,17.3L228.856,5.543a9.431,9.431,0,0,1,13.336,13.338L225.046,36.03a9.441,9.441,0,0,1-13.338,0,1.347,1.347,0,1,0-1.905,1.905,12.139,12.139,0,0,0,17.149,0L244.1,20.786A12.138,12.138,0,0,0,244.1,3.638Z" transform="translate(-209.408 -0.093)"/></g><g transform="translate(1514.8 4974.296)"><path d="M37.841,188.072a12.137,12.137,0,0,0-17.149,0L3.547,205.221A12.126,12.126,0,0,0,20.7,222.369L32.455,210.61A1.347,1.347,0,0,0,30.55,208.7L18.79,220.464A9.431,9.431,0,0,1,5.455,207.126L22.6,189.977a9.448,9.448,0,0,1,13.338,0,1.347,1.347,0,1,0,1.905-1.905Z" transform="translate(0 -184.525)"/></g><g transform="translate(1723.012 4955.997)"><path d="M56.834,121.3H5.5a1.839,1.839,0,0,1-1.833-1.833A1.959,1.959,0,0,1,5.8,117.61l44-7.341a1.833,1.833,0,1,0-.6-3.615L5.5,113.969a5.507,5.507,0,0,0-5.5,5.5v44a5.507,5.507,0,0,0,5.5,5.5H56.834A9.175,9.175,0,0,0,66,159.8V130.469A9.175,9.175,0,0,0,56.834,121.3Zm5.5,38.5a5.507,5.507,0,0,1-5.5,5.5H5.5a1.839,1.839,0,0,1-1.833-1.833V124.654a5.424,5.424,0,0,0,1.833.315H56.834a5.507,5.507,0,0,1,5.5,5.5Z" transform="translate(0 -106.626)"/></g><g transform="translate(1756.008 4945)"><path d="M245.369,64.731,224.886,44.249a5.51,5.51,0,0,0-7.777,0l-24.6,24.6a1.833,1.833,0,1,0,2.592,2.592l24.6-24.6a1.835,1.835,0,0,1,2.592,0l20.482,20.482a1.835,1.835,0,0,1,0,2.592L221.839,90.849a1.834,1.834,0,0,0,2.6,2.592l20.933-20.933A5.5,5.5,0,0,0,245.369,64.731Z" transform="translate(-191.973 -42.643)"/></g><g transform="translate(1767.011 4948.981)"><path d="M280.812,66.341a1.835,1.835,0,0,0-2.592,0L256.531,88.03a1.833,1.833,0,0,0,2.592,2.592l21.689-21.689A1.835,1.835,0,0,0,280.812,66.341Z" transform="translate(-255.995 -65.805)"/></g><g transform="translate(1778.011 4954.481)"><path d="M339.311,98.341a1.835,1.835,0,0,0-2.592,0L320.53,114.53a1.833,1.833,0,0,0,2.592,2.592l16.189-16.189A1.835,1.835,0,0,0,339.311,98.341Z" transform="translate(-319.994 -97.805)"/></g><g transform="translate(1770.679 4989)"><path d="M282.833,298.643a5.5,5.5,0,1,0,5.5,5.5A5.507,5.507,0,0,0,282.833,298.643Zm0,7.333a1.833,1.833,0,1,1,1.833-1.833A1.839,1.839,0,0,1,282.833,305.976Z" transform="translate(-277.333 -298.643)"/></g><g transform="translate(1763.346 4981.667)"><path d="M258.5,277.975H243.834a5.507,5.507,0,0,1-5.5-5.5v-7.333a5.507,5.507,0,0,1,5.5-5.5H258.5a1.833,1.833,0,1,0,0-3.667H243.834a9.175,9.175,0,0,0-9.167,9.167v7.333a9.175,9.175,0,0,0,9.167,9.167H258.5a1.833,1.833,0,1,0,0-3.667Z" transform="translate(-234.667 -255.975)"/></g><g transform="translate(1902.152 4959)"><path d="M43.081.142A1.56,1.56,0,0,0,41.4.39L16.7,22H4.716A4.72,4.72,0,0,0,0,26.715v22a4.72,4.72,0,0,0,4.714,4.714H16.7l24.7,21.61a1.558,1.558,0,0,0,1.034.39A1.573,1.573,0,0,0,44,73.857V1.572A1.568,1.568,0,0,0,43.081.142ZM40.859,70.394,18.322,50.676a1.566,1.566,0,0,0-1.034-.39H4.716a1.576,1.576,0,0,1-1.571-1.571v-22a1.576,1.576,0,0,1,1.571-1.571H17.288a1.567,1.567,0,0,0,1.034-.39L40.859,5.035Z" transform="translate(-0.002 0)"/></g><g transform="translate(1954.255 4984.772)"><path d="M356.765,176.12a1.569,1.569,0,0,0-3.036.792,39.685,39.685,0,0,1,0,19.929,1.563,1.563,0,0,0,1.122,1.914,1.446,1.446,0,0,0,.4.053,1.566,1.566,0,0,0,1.518-1.175,42.666,42.666,0,0,0,0-21.513Z" transform="translate(-353.677 -174.939)"/></g><g transform="translate(1961.197 4975.905)"><path d="M403.818,115.722a1.571,1.571,0,0,0-2.9,1.2,48.871,48.871,0,0,1,0,37.265,1.573,1.573,0,0,0,.852,2.052,1.549,1.549,0,0,0,.6.119,1.573,1.573,0,0,0,1.452-.968,52.015,52.015,0,0,0,0-39.669Z" transform="translate(-400.795 -114.75)"/></g><g transform="translate(1967.705 4967.577)"><path d="M447.943,59.062a1.572,1.572,0,0,0-2.788,1.455,58.248,58.248,0,0,1,.009,53.664,1.572,1.572,0,1,0,2.788,1.455,61.406,61.406,0,0,0-.009-56.574Z" transform="translate(-444.977 -58.22)"/></g><g transform="translate(1362.291 5034)"><path d="M72.3,109.969a1.527,1.527,0,0,0-1.417-.152l-13.116,5.247v-.8a7.609,7.609,0,0,0-7.6-7.6H7.6a7.609,7.609,0,0,0-7.6,7.6V141.63a7.609,7.609,0,0,0,7.6,7.6H50.164a7.609,7.609,0,0,0,7.6-7.6v-.8L70.88,146.08a1.521,1.521,0,0,0,2.086-1.411V111.227A1.515,1.515,0,0,0,72.3,109.969Zm-2.371,32.457L56.81,137.179a1.521,1.521,0,0,0-2.086,1.411v3.04a4.566,4.566,0,0,1-4.56,4.56H7.6a4.566,4.566,0,0,1-4.56-4.56V114.268a4.566,4.566,0,0,1,4.56-4.56H50.164a4.566,4.566,0,0,1,4.56,4.56v3.04a1.516,1.516,0,0,0,.669,1.259,1.535,1.535,0,0,0,1.417.152l13.116-5.247v28.955Z" transform="translate(0 -106.667)"/></g><g transform="translate(1636.538 5092)"><path d="M184.525,85.333a13.859,13.859,0,1,0,13.859,13.859A13.874,13.874,0,0,0,184.525,85.333Zm0,23.758a9.9,9.9,0,1,1,9.9-9.9A9.913,9.913,0,0,1,184.525,109.091Z" transform="translate(-170.666 -85.333)"/></g><g transform="translate(1668.216 5107.839)"><path d="M351.233,170.667a9.9,9.9,0,1,0,9.9,9.9A9.913,9.913,0,0,0,351.233,170.667Zm0,15.839a5.94,5.94,0,1,1,5.94-5.94A5.947,5.947,0,0,1,351.233,186.506Z" transform="translate(-341.334 -170.667)"/></g><g transform="translate(1613.062 5107.839)"><path d="M54.081,170.667a9.9,9.9,0,1,0,9.9,9.9A9.91,9.91,0,0,0,54.081,170.667Zm0,15.839a5.94,5.94,0,1,1,5.94-5.94A5.947,5.947,0,0,1,54.081,186.506Z" transform="translate(-44.182 -170.667)"/></g><g transform="translate(1624.659 5123.678)"><path d="M132.4,256a25.768,25.768,0,0,0-25.738,25.738,1.98,1.98,0,0,0,3.96,0,21.778,21.778,0,1,1,43.556,0,1.98,1.98,0,0,0,3.96,0A25.768,25.768,0,0,0,132.4,256Z" transform="translate(-106.666 -256)"/></g><g transform="translate(1667.934 5131.597)"><path d="M349.995,298.667a17.819,17.819,0,0,0-9.23,2.574,1.98,1.98,0,0,0,2.055,3.386,13.862,13.862,0,0,1,21.034,11.859,1.98,1.98,0,1,0,3.96,0A17.841,17.841,0,0,0,349.995,298.667Z" transform="translate(-339.813 -298.667)"/></g><g transform="translate(1604.861 5131.597)"><path d="M27.045,301.237A17.825,17.825,0,0,0,0,316.486a1.98,1.98,0,1,0,3.96,0,13.864,13.864,0,0,1,21.03-11.863,1.98,1.98,0,1,0,2.055-3.386Z" transform="translate(0 -298.667)"/></g><g transform="translate(1847.37 5126.654)"><path d="M117.65,106.667a21.65,21.65,0,1,0,21.65,21.65A21.675,21.675,0,0,0,117.65,106.667Zm0,39.969a18.319,18.319,0,1,1,18.319-18.319A18.341,18.341,0,0,1,117.65,146.636Z" transform="translate(-96 -106.667)"/></g><g transform="translate(1854.031 5110)"><path d="M163.647,0H143.663a5,5,0,0,0-5,5V23.315a1.665,1.665,0,1,0,3.331,0V5a1.668,1.668,0,0,1,1.665-1.665h19.984A1.668,1.668,0,0,1,165.313,5V23.315a1.665,1.665,0,1,0,3.331,0V5A5,5,0,0,0,163.647,0Z" transform="translate(-138.667)"/></g><g transform="translate(1890.669 5143.307)"><path d="M375,213.333A1.666,1.666,0,0,0,373.333,215v6.661a1.665,1.665,0,0,0,3.331,0V215A1.666,1.666,0,0,0,375,213.333Z" transform="translate(-373.333 -213.333)"/></g></g></svg>