<svg xmlns="http://www.w3.org/2000/svg" xmlns:xlink="http://www.w3.org/1999/xlink" width="188.432" height="188.432" viewBox="0 0 188.432 188.432"><defs><style>.a{fill:#e1b313;}.b,.e{fill:#fff;}.c{fill:none;stroke:#e1b313;stroke-width:3px;}.d,.e{stroke:none;}.f{filter:url(#a);}</style><filter id="a" x="0" y="0" width="188.432" height="188.432" filterUnits="userSpaceOnUse"><feOffset dy="12" input="SourceAlpha"/><feGaussianBlur stdDeviation="12" result="b"/><feFlood flood-opacity="0.161"/><feComposite operator="in" in2="b"/><feComposite in="SourceGraphic"/></filter></defs><g transform="translate(-2191 -1120)"><g class="f" transform="matrix(1, 0, 0, 1, 2191, 1120)"><path class="a" d="M58.216,0A58.216,58.216,0,1,1,0,58.216,58.216,58.216,0,0,1,58.216,0Z" transform="translate(36 24)"/></g><g transform="translate(13690.374 14533.632)"><g class="b" transform="translate(-11436 -13367)"><path class="d" d="M 59.91493988037109 70.12757873535156 C 58.22411346435547 69.19538116455078 55.31858062744141 67.59510803222656 52.42366027832031 66.00820159912109 C 49.80772018432617 64.57424163818359 47.71192932128906 63.43147277832031 46.19449996948242 62.61166381835938 C 43.11682891845703 60.94890594482422 43.09743118286133 60.94890594482422 42.77339935302734 60.94890594482422 L 42.29909896850586 60.94890594482422 L 42.29738235473633 60.95099639892578 L 11.07544040679932 60.95099639892578 C 5.519819736480713 60.95099639892578 0.9999999403953552 56.25309371948242 0.9999999403953552 50.47858428955078 L 0.9999999403953552 11.47240447998047 C 0.9999999403953552 5.697904586791992 5.519819736480713 1.000004529953003 11.07544040679932 1.000004529953003 L 49.83950042724609 1.000004529953003 C 55.39511871337891 1.000004529953003 59.91493988037109 5.697904586791992 59.91493988037109 11.47240447998047 L 59.91493988037109 50.47858428955078 L 59.91493988037109 70.12757873535156 Z"/><path class="e" d="M 11.07544708251953 2 C 6.071224212646484 2 2.000003814697266 6.249298095703125 2.000003814697266 11.4724006652832 L 2.000003814697266 50.47858810424805 C 2.000003814697266 55.70169067382812 6.071224212646484 59.95098876953125 11.07544708251953 59.95098876953125 L 41.82041168212891 59.95098876953125 L 41.82211303710938 59.94889831542969 L 42.77339172363281 59.94889831542969 C 43.36968231201172 59.94889831542969 43.36968231201172 59.94889831542969 46.66981506347656 61.73184585571289 C 48.18903732299805 62.55261993408203 50.28662490844727 63.69636535644531 52.90433502197266 65.13130950927734 C 55.07353210449219 66.32039642333984 57.24898910522461 67.51715087890625 58.91493606567383 68.43474578857422 L 58.91493606567383 50.47858810424805 L 58.91493606567383 11.4724006652832 C 58.91493606567383 6.249298095703125 54.84371566772461 2 49.83949279785156 2 L 11.07544708251953 2 M 11.07544708251953 0 L 49.83949279785156 0 C 55.95629119873047 0 60.91493606567383 5.136367797851562 60.91493606567383 11.4724006652832 L 60.91493606567383 50.47858810424805 C 60.91493606567383 52.86092376708984 60.91493606567383 71.8212890625 60.91493606567383 71.8212890625 C 60.91493606567383 71.8212890625 43.036865234375 61.94890594482422 42.77339172363281 61.94890594482422 C 42.77118682861328 61.94890594482422 42.77021789550781 61.94959259033203 42.77050399780273 61.95098876953125 L 11.07544708251953 61.95098876953125 C 4.958648681640625 61.95098876953125 3.814697265625e-06 56.81461334228516 3.814697265625e-06 50.47858810424805 L 3.814697265625e-06 11.4724006652832 C 3.814697265625e-06 5.136367797851562 4.958648681640625 0 11.07544708251953 0 Z"/></g><path class="c" d="M0,0S8.251,5.306,16.085,5.306,31.337,0,31.337,0" transform="translate(-11421.211 -13320.715)"/></g></g></svg>