<svg xmlns="http://www.w3.org/2000/svg" xmlns:xlink="http://www.w3.org/1999/xlink" width="1171" height="693" viewBox="0 0 1171 693"><defs><style>.a{fill:#fff;}.b{filter:url(#s);}.c{filter:url(#q);}.d{filter:url(#o);}.e{filter:url(#m);}.f{filter:url(#k);}.g{filter:url(#i);}.h{filter:url(#g);}.i{filter:url(#e);}.j{filter:url(#c);}.k{filter:url(#a);}</style><filter id="a" x="0" y="44" width="272" height="272" filterUnits="userSpaceOnUse"><feOffset dy="-10" input="SourceAlpha"/><feGaussianBlur stdDeviation="15" result="b"/><feFlood flood-opacity="0.161"/><feComposite operator="in" in2="b"/><feComposite in="SourceGraphic"/></filter><filter id="c" x="206" y="212" width="272" height="271" filterUnits="userSpaceOnUse"><feOffset dy="-10" input="SourceAlpha"/><feGaussianBlur stdDeviation="15" result="d"/><feFlood flood-opacity="0.161"/><feComposite operator="in" in2="d"/><feComposite in="SourceGraphic"/></filter><filter id="e" x="479" y="212" width="271" height="271" filterUnits="userSpaceOnUse"><feOffset dy="-10" input="SourceAlpha"/><feGaussianBlur stdDeviation="15" result="f"/><feFlood flood-opacity="0.161"/><feComposite operator="in" in2="f"/><feComposite in="SourceGraphic"/></filter><filter id="g" x="584" y="0" width="271" height="272" filterUnits="userSpaceOnUse"><feOffset dy="-10" input="SourceAlpha"/><feGaussianBlur stdDeviation="15" result="h"/><feFlood flood-opacity="0.161"/><feComposite operator="in" in2="h"/><feComposite in="SourceGraphic"/></filter><filter id="i" x="899" y="86" width="272" height="272" filterUnits="userSpaceOnUse"><feOffset dy="-10" input="SourceAlpha"/><feGaussianBlur stdDeviation="15" result="j"/><feFlood flood-opacity="0.161"/><feComposite operator="in" in2="j"/><feComposite in="SourceGraphic"/></filter><filter id="k" x="717" y="226" width="271" height="271" filterUnits="userSpaceOnUse"><feOffset dy="-10" input="SourceAlpha"/><feGaussianBlur stdDeviation="15" result="l"/><feFlood flood-opacity="0.161"/><feComposite operator="in" in2="l"/><feComposite in="SourceGraphic"/></filter><filter id="m" x="627" y="422" width="272" height="271" filterUnits="userSpaceOnUse"><feOffset dy="-10" input="SourceAlpha"/><feGaussianBlur stdDeviation="15" result="n"/><feFlood flood-opacity="0.161"/><feComposite operator="in" in2="n"/><feComposite in="SourceGraphic"/></filter><filter id="o" x="337" y="395" width="271" height="271" filterUnits="userSpaceOnUse"><feOffset dy="-10" input="SourceAlpha"/><feGaussianBlur stdDeviation="15" result="p"/><feFlood flood-opacity="0.161"/><feComposite operator="in" in2="p"/><feComposite in="SourceGraphic"/></filter><filter id="q" x="6" y="303" width="272" height="271" filterUnits="userSpaceOnUse"><feOffset dy="-10" input="SourceAlpha"/><feGaussianBlur stdDeviation="15" result="r"/><feFlood flood-opacity="0.161"/><feComposite operator="in" in2="r"/><feComposite in="SourceGraphic"/></filter><filter id="s" x="297" y="16" width="272" height="271" filterUnits="userSpaceOnUse"><feOffset dy="-10" input="SourceAlpha"/><feGaussianBlur stdDeviation="15" result="t"/><feFlood flood-opacity="0.161"/><feComposite operator="in" in2="t"/><feComposite in="SourceGraphic"/></filter></defs><g transform="translate(-216 -3712.971)"><g class="k" transform="matrix(1, 0, 0, 1, 216, 3712.97)"><rect class="a" width="182" height="182" rx="91" transform="translate(45 99)"/></g><g class="j" transform="matrix(1, 0, 0, 1, 216, 3712.97)"><rect class="a" width="182" height="181" rx="90.5" transform="translate(251 267)"/></g><g class="i" transform="matrix(1, 0, 0, 1, 216, 3712.97)"><rect class="a" width="181" height="181" rx="90.5" transform="translate(524 267)"/></g><g class="h" transform="matrix(1, 0, 0, 1, 216, 3712.97)"><rect class="a" width="181" height="182" rx="90.5" transform="translate(629 55)"/></g><g class="g" transform="matrix(1, 0, 0, 1, 216, 3712.97)"><rect class="a" width="182" height="182" rx="91" transform="translate(944 141)"/></g><g class="f" transform="matrix(1, 0, 0, 1, 216, 3712.97)"><rect class="a" width="181" height="181" rx="90.5" transform="translate(762 281)"/></g><g class="e" transform="matrix(1, 0, 0, 1, 216, 3712.97)"><rect class="a" width="182" height="181" rx="90.5" transform="translate(672 477)"/></g><g class="d" transform="matrix(1, 0, 0, 1, 216, 3712.97)"><rect class="a" width="181" height="181" rx="90.5" transform="translate(382 450)"/></g><g class="c" transform="matrix(1, 0, 0, 1, 216, 3712.97)"><rect class="a" width="182" height="181" rx="90.5" transform="translate(51 358)"/></g><g class="b" transform="matrix(1, 0, 0, 1, 216, 3712.97)"><rect class="a" width="182" height="181" rx="90.5" transform="translate(342 71)"/></g><g transform="translate(302.773 3851.549)"><g transform="translate(39.432 38.565)"><path d="M216.265,201.258a12.771,12.771,0,1,0,12.772,12.771A12.786,12.786,0,0,0,216.265,201.258Zm0,20.71a7.939,7.939,0,1,1,7.939-7.939A7.948,7.948,0,0,1,216.265,221.968Z" transform="translate(-203.494 -201.258)"/></g><g transform="translate(0 0)"><g transform="translate(0 0)"><path d="M98.882,31.494c.941-6.912-.139-12.791-3.123-17.134A8.586,8.586,0,0,0,80.458,6.6c-8.092-.4-18,2.569-28.255,8.494C34.693,4.977,18.84,3.762,10.616,11.988,7.042,15.562,5.191,20.677,5.2,26.855A8.589,8.589,0,0,0,8.59,43.336c.05,0,.1,0,.148,0a76.607,76.607,0,0,0,4.986,10.243C3.6,71.085,2.389,86.938,10.615,95.161c3.629,3.63,8.742,5.422,14.829,5.422,7.707,0,16.975-2.876,26.758-8.53,9.784,5.654,19.051,8.53,26.759,8.53,6.086,0,11.2-1.792,14.831-5.421,8.226-8.226,7.008-24.08-3.114-41.588C95.13,45.866,97.962,38.258,98.882,31.494ZM87.932,7.072a3.757,3.757,0,1,1-3.757,3.757A3.762,3.762,0,0,1,87.932,7.072ZM79.363,11.4a8.583,8.583,0,0,0,13.06,6.749c1.789,3.248,2.367,7.578,1.671,12.695a54.97,54.97,0,0,1-6.328,18.026A108.643,108.643,0,0,0,73.85,31.928a108.73,108.73,0,0,0-16.945-13.92C65.155,13.585,72.946,11.29,79.363,11.4ZM8.59,38.5a3.757,3.757,0,1,1,3.757-3.757A3.762,3.762,0,0,1,8.59,38.5Zm4.776,3.379a8.586,8.586,0,0,0-3.333-15.6c.1-4.6,1.461-8.336,4-10.874,6.179-6.18,19.07-5.094,33.462,2.605A112.413,112.413,0,0,0,16.637,48.87,69.426,69.426,0,0,1,13.366,41.882Zm.667,49.863c-6.18-6.178-5.094-19.07,2.605-33.462a108.713,108.713,0,0,0,13.917,16.94A108.735,108.735,0,0,0,47.5,89.14C33.1,96.838,20.212,97.925,14.032,91.744Zm19.94-19.939A102.449,102.449,0,0,1,19.358,53.575,106.758,106.758,0,0,1,52.2,20.73,102.462,102.462,0,0,1,70.433,35.344,102.337,102.337,0,0,1,85.046,53.575,102.333,102.333,0,0,1,70.433,71.806,102.453,102.453,0,0,1,52.2,86.42,102.446,102.446,0,0,1,33.972,71.806Zm56.4,19.939c-6.181,6.18-19.073,5.094-33.465-2.6A108.714,108.714,0,0,0,73.85,75.223a108.625,108.625,0,0,0,13.915-16.94C95.466,72.674,96.554,85.565,90.374,91.745Z" transform="translate(0 -2.239)"/></g></g></g><g transform="translate(506.419 4018.643)"><g transform="translate(31.576 16.171)"><path d="M195.017,130.415l-17.8-15.181L194.97,100.6a2.9,2.9,0,0,0,.017-4.464l-18.74-15.67a2.9,2.9,0,0,0-4.762,2.225v27.656l-12-10.235a2.231,2.231,0,1,0-2.9,3.4l13.68,11.664-13.651,11.246a2.231,2.231,0,1,0,2.838,3.444l12.033-9.913v28.356a2.873,2.873,0,0,0,1.673,2.628,2.912,2.912,0,0,0,1.235.277,2.883,2.883,0,0,0,1.854-.68L195,134.847a2.9,2.9,0,0,0,.02-4.432ZM175.948,86.038,190.68,98.357l-14.732,12.137Zm0,58.927V120.021l14.766,12.59Z" transform="translate(-155.801 -79.789)"/></g><g transform="translate(0)"><path d="M88.571,15.2A51.883,51.883,0,1,0,15.2,88.571,51.883,51.883,0,1,0,88.571,15.2ZM51.883,99.3A47.421,47.421,0,1,1,99.3,51.884,47.474,47.474,0,0,1,51.883,99.3Z" transform="translate(0 0)"/></g></g><g transform="translate(304.079 4133.521)"><g transform="translate(0 0)"><g transform="translate(0 0)"><path d="M102.978,138.4H97.462v-8.417a7.056,7.056,0,0,0-7.048-7.048H7.048A7.056,7.056,0,0,0,0,129.979v41.874A7.056,7.056,0,0,0,7.048,178.9H90.414a7.056,7.056,0,0,0,7.048-7.048v-8.417h5.516a4.7,4.7,0,0,0,4.7-4.7V143.1A4.7,4.7,0,0,0,102.978,138.4ZM23.844,174.2H7.048a2.352,2.352,0,0,1-2.35-2.35V129.979a2.352,2.352,0,0,1,2.35-2.35h16.8Zm68.919-2.349a2.352,2.352,0,0,1-2.35,2.35H28.543V127.63H90.414a2.352,2.352,0,0,1,2.35,2.35v41.874Zm10.215-13.116H97.462V143.1h5.516l0,15.642Z" transform="translate(0 -122.931)"/></g></g><g transform="translate(44.447 18.708)"><g transform="translate(0 0)"><path d="M243.39,218.057a2.35,2.35,0,0,0-3.242-.727L229.9,223.822v-9.586a2.35,2.35,0,0,0-3.607-1.985l-13.856,8.778a2.349,2.349,0,1,0,2.515,3.97l10.249-6.493v9.586a2.35,2.35,0,0,0,3.607,1.985l13.856-8.777A2.349,2.349,0,0,0,243.39,218.057Z" transform="translate(-211.344 -211.886)"/></g></g></g><g transform="translate(610.853 3821.525)"><g transform="translate(0)"><path d="M147.029,86.519l-5.206-9.77V52.622a32.827,32.827,0,0,0-23.676-31.485V9.093a9.093,9.093,0,1,0-18.186,0V21.137A32.828,32.828,0,0,0,76.285,52.622V76.749l-5.205,9.77a6.014,6.014,0,0,0,5.308,8.842H97.053a12.02,12.02,0,0,0,24,0h20.666a6.014,6.014,0,0,0,5.308-8.842ZM104.772,9.093a4.282,4.282,0,1,1,8.563,0V20.133a32.912,32.912,0,0,0-8.563,0ZM81.1,52.622a27.958,27.958,0,0,1,55.916,0V74.759H81.1ZM109.054,101.9a7.218,7.218,0,0,1-7.177-6.534h14.354A7.219,7.219,0,0,1,109.054,101.9Zm33.7-11.929a1.184,1.184,0,0,1-1.031.584H76.388a1.2,1.2,0,0,1-1.061-1.769l4.908-9.212h57.641l4.908,9.212A1.186,1.186,0,0,1,142.752,89.966Z" transform="translate(-70.366)"/></g><g transform="translate(17.143 31.077)"><path d="M174.167,149.113a21.57,21.57,0,0,0-21.545,21.545,2.406,2.406,0,0,0,4.811,0,16.753,16.753,0,0,1,16.734-16.734,2.406,2.406,0,0,0,0-4.811Z" transform="translate(-152.622 -149.113)"/></g></g><g transform="translate(794.918 4029.087)"><g transform="translate(0)"><g transform="translate(0)"><path d="M100.172,0H37.23A4.938,4.938,0,0,0,32.3,4.932V78.385a4.938,4.938,0,0,0,4.932,4.932h62.942a4.938,4.938,0,0,0,4.932-4.932V4.932A4.938,4.938,0,0,0,100.172,0ZM36.244,4.932a.988.988,0,0,1,.986-.986h62.942a.988.988,0,0,1,.986.986v17.1H36.244Zm19.008,74.44H37.23a.987.987,0,0,1-.986-.986V54.644H55.251Zm0-28.673H36.244V25.981H55.251ZM78.2,79.372H59.2V54.644H78.2Zm0-28.674H59.2V25.981H78.2Zm22.954,27.687a.988.988,0,0,1-.986.987H82.151V25.981h19.008Z" transform="translate(-32.298)"/></g></g><g transform="translate(6.599 31.489)"><g transform="translate(0)"><path d="M84.577,198.384h-2.9v-2.9a1.973,1.973,0,1,0-3.946,0v2.9h-2.9a1.973,1.973,0,0,0,0,3.946h2.9v2.9a1.973,1.973,0,0,0,3.946,0v-2.9h2.9a1.973,1.973,0,0,0,0-3.946Z" transform="translate(-72.849 -193.506)"/></g></g><g transform="translate(29.455 36.367)"><path d="M225.225,223.48h-9.95a1.973,1.973,0,0,0,0,3.946h9.95a1.973,1.973,0,0,0,0-3.946Z" transform="translate(-213.302 -223.48)"/></g><g transform="translate(7.7 61.264)"><g transform="translate(0)"><path d="M88.153,382.224l2.382-2.382a1.973,1.973,0,0,0-2.79-2.79l-2.382,2.382-2.382-2.382a1.973,1.973,0,0,0-2.79,2.79l2.382,2.382-2.382,2.382a1.973,1.973,0,0,0,2.79,2.79l2.382-2.382,2.382,2.382a1.973,1.973,0,1,0,2.79-2.79Z" transform="translate(-79.614 -376.474)"/></g></g><g transform="translate(30.653 61.264)"><path d="M231.585,377.053a1.974,1.974,0,0,0-2.79,0l-7.553,7.553a1.973,1.973,0,0,0,2.79,2.79l7.553-7.553A1.973,1.973,0,0,0,231.585,377.053Z" transform="translate(-220.663 -376.475)"/></g><g transform="translate(30.943 61.554)"><g transform="translate(0)"><circle cx="1.683" cy="1.683" r="1.683"/></g></g><g transform="translate(38.497 69.107)"><g transform="translate(0)"><circle cx="1.683" cy="1.683" r="1.683"/></g></g><g transform="translate(52.284 47.261)"><path d="M365.646,290.423H355.562a1.973,1.973,0,1,0,0,3.946h10.085a1.973,1.973,0,0,0,0-3.946Z" transform="translate(-353.589 -290.423)"/></g><g transform="translate(52.284 54.147)"><path d="M365.646,332.739H355.562a1.973,1.973,0,1,0,0,3.946h10.085a1.973,1.973,0,0,0,0-3.946Z" transform="translate(-353.589 -332.739)"/></g></g><g transform="translate(653.932 4205.318)"><g transform="translate(0)"><path d="M136.309,0H81.8A11.671,11.671,0,0,0,70.146,11.658v70.7A11.671,11.671,0,0,0,81.8,94.013h54.506a2.089,2.089,0,0,0,2.089-2.089c0-.044,0-.088-.007-.131s.007-.087.007-.131V2.089A2.09,2.09,0,0,0,136.309,0ZM79.714,89.535a7.491,7.491,0,0,1-5.39-7.18V20.592a11.618,11.618,0,0,0,5.39,2.533Zm2.089-70.4a7.479,7.479,0,1,1,0-14.958h45.572a11.628,11.628,0,0,0,0,14.958H81.8Zm38.835,4.179V35.575l-2.5-1.858a2.089,2.089,0,0,0-2.5,0l-2.52,1.879V23.316ZM134.22,89.834H83.893V23.316h25.055V39.761a2.089,2.089,0,0,0,3.339,1.675L116.9,38l4.583,3.413a2.09,2.09,0,0,0,3.337-1.676V23.316h9.4V89.834Zm0-71a7.477,7.477,0,0,1,0-14.36v14.36Z" transform="translate(-70.146)"/></g><g transform="translate(26.572 50.028)"><g transform="translate(0)"><path d="M237.444,272.456h-20.5a2.089,2.089,0,0,0,0,4.179h20.5a2.089,2.089,0,1,0,0-4.179Z" transform="translate(-214.856 -272.456)"/></g></g><g transform="translate(20.732 63.122)"><g transform="translate(0)"><path d="M217.322,343.765H185.145a2.089,2.089,0,1,0,0,4.179h32.177a2.089,2.089,0,1,0,0-4.179Z" transform="translate(-183.056 -343.765)"/></g></g></g><g transform="translate(879.77 3800.638)"><g transform="translate(0)"><g transform="translate(0)"><path d="M102.915,71.949a17.53,17.53,0,0,0-13.8,6.717L56.9,60.063A17.5,17.5,0,0,0,56.9,47L89.12,28.4a17.511,17.511,0,1,0-2.5-4.308L54.4,42.692a17.557,17.557,0,1,0,0,21.678l32.221,18.6a17.554,17.554,0,1,0,16.291-11.025Zm0-66.97A12.579,12.579,0,1,1,90.336,17.557,12.593,12.593,0,0,1,102.915,4.978ZM40.606,66.11A12.579,12.579,0,1,1,53.185,53.531,12.593,12.593,0,0,1,40.606,66.11Zm62.309,35.974a12.579,12.579,0,1,1,12.579-12.578A12.593,12.593,0,0,1,102.915,102.084Z" transform="translate(-23.049)"/></g></g><g transform="translate(10.156 46.13)"><path d="M79.018,220.606a7.409,7.409,0,0,0-7.4,7.4,2.489,2.489,0,0,0,4.978,0,2.425,2.425,0,0,1,2.423-2.423,2.489,2.489,0,0,0,0-4.978Z" transform="translate(-71.617 -220.606)"/></g></g><g transform="translate(1015.534 4033.003)"><g transform="translate(0 0)"><path d="M56.157,96.189a12.181,12.181,0,0,0-9.475-5.133,2.186,2.186,0,0,0-.243-.014,9.374,9.374,0,0,1-9.3-8.276,17.657,17.657,0,0,0,3.783-3.81A24.007,24.007,0,0,0,45.24,67.827a2.2,2.2,0,0,0,.412-.639,18.761,18.761,0,0,0,1.457-7.3c0-9.787-7.4-17.749-16.495-17.749a15.341,15.341,0,0,0-6.792,1.589,12.143,12.143,0,0,0-2.356.433c-7.6,2.2-11.9,11.39-9.58,20.494a20.31,20.31,0,0,0,.883,2.677,2.2,2.2,0,0,0,.39.622c.876,6.43,3.919,11.779,8.081,14.805a9.375,9.375,0,0,1-9.3,8.288c-.074,0-.147,0-.219.011A12.169,12.169,0,0,0,0,103.2v13.086A2.211,2.211,0,0,0,2.211,118.5H41.269a2.211,2.211,0,0,0,0-4.421H4.421V103.2a7.746,7.746,0,0,1,7.737-7.737c.074,0,.147,0,.219-.011a13.7,13.7,0,0,0,4.53-.918l10.466,15.106a2.21,2.21,0,0,0,3.634,0L41.474,94.534a13.7,13.7,0,0,0,4.53.918c.072.007.145.011.219.011a7.756,7.756,0,0,1,6.324,3.278,2.211,2.211,0,0,0,3.61-2.552ZM22.693,48.4a7.853,7.853,0,0,1,1.823-.3,2.209,2.209,0,0,0,.929-.251,11.017,11.017,0,0,1,5.168-1.3c6.522,0,11.85,5.74,12.063,12.884a7.89,7.89,0,0,0-4.774-1.6H26.341a2.644,2.644,0,0,1-2.456-1.659,2.594,2.594,0,0,0-4.916.322,15.194,15.194,0,0,1-3.048,5.9C14.774,55.988,17.661,49.857,22.693,48.4ZM17.509,67.124a19.747,19.747,0,0,0,4.584-6.284l.023.017a7.011,7.011,0,0,0,4.225,1.4H37.9a3.513,3.513,0,0,1,3.157,1.985,20.518,20.518,0,0,1-3.69,12.086c-2.232,3.022-5.137,4.686-8.179,4.686a10.108,10.108,0,0,1-7.718-4.095A19.335,19.335,0,0,1,17.509,67.124ZM29.19,104.5l-8.46-12.21a13.8,13.8,0,0,0,4.623-7.442,12.835,12.835,0,0,0,7.675.006,13.8,13.8,0,0,0,4.622,7.436Z" transform="translate(0 -42.135)"/></g><g transform="translate(47.736 9.097)"><path d="M276.979,138.137c-.072-.007-.145-.011-.219-.011a9.375,9.375,0,0,1-9.3-8.3,19.646,19.646,0,0,0,6.411-8.522,2.21,2.21,0,0,0,3.858.712A23.27,23.27,0,0,0,277,93.5a16.313,16.313,0,0,0-12.231-5.992c-.244-.01-.851.011-.949.017a16.56,16.56,0,0,0-7.432-1.491,18.014,18.014,0,0,0-13.756,7.454,26.923,26.923,0,0,0-4.809,19.473,26.686,26.686,0,0,0,2.152,7.48,2.21,2.21,0,0,0,3.9.234c.178-.291.406-.653.659-1.009a21.9,21.9,0,0,0,4.4,7.807,16.779,16.779,0,0,0,2.625,2.366,9.375,9.375,0,0,1-9.3,8.286c-.074,0-.147,0-.219.011a12.17,12.17,0,0,0-11.722,12.147V163.37a2.211,2.211,0,0,0,2.211,2.211H286.49a2.211,2.211,0,0,0,2.211-2.211V150.283A12.17,12.17,0,0,0,276.979,138.137Zm-34.266-23.178a23.329,23.329,0,0,1-.511-2.617,21.618,21.618,0,0,1-.208-2.445,21.381,21.381,0,0,1,4.146-13.717,13.677,13.677,0,0,1,10.39-5.727,12.65,12.65,0,0,1,5.891,1.3,2.249,2.249,0,0,0,1.065.229c.042,0,1.177-.055,1.21-.054a11.958,11.958,0,0,1,8.954,4.455,18.129,18.129,0,0,1,4.176,11.26,19.243,19.243,0,0,1-.947,6.682q-.313-.835-.7-1.644a19.725,19.725,0,0,0-10.117-9.9,2.21,2.21,0,0,0-2.93,1.271,16.375,16.375,0,0,1-1.06,2.3,6.592,6.592,0,0,1-6.085,3.21c-.389-.013-.785-.014-1.174,0a17.455,17.455,0,0,0-5.55,1.086A19.48,19.48,0,0,0,242.713,114.959Zm5.438,1.2a12.728,12.728,0,0,1,6.8-2.184c.292-.01.588-.009.88,0a10.983,10.983,0,0,0,10.1-5.471q.182-.325.353-.658a15.38,15.38,0,0,1,5.035,5.118c-.011.065-.021.131-.026.2a19.694,19.694,0,0,1-4.074,10.839A10.108,10.108,0,0,1,259.5,128.1C254.3,128.1,249.667,123.153,248.151,116.162Zm7.524,15.765a12.686,12.686,0,0,0,7.672,0,13.829,13.829,0,0,0,6.595,8.808,10.824,10.824,0,0,1-20.86,0A13.828,13.828,0,0,0,255.675,131.927ZM284.28,161.16H234.742V150.284a7.746,7.746,0,0,1,7.737-7.737c.074,0,.147,0,.219-.011a13.773,13.773,0,0,0,2.233-.251,15.242,15.242,0,0,0,29.161,0,13.746,13.746,0,0,0,2.233.25c.072.007.145.011.219.011a7.746,7.746,0,0,1,7.737,7.737Z" transform="translate(-230.32 -86.026)"/></g></g><g transform="translate(930.681 4228.816)"><g transform="translate(0)"><g transform="translate(0)"><path d="M117.319,37.947a2.307,2.307,0,0,0-2.276-.051l-14.914,8.027V39.045a2.307,2.307,0,0,0-2.306-2.306H94.072a20.671,20.671,0,1,0-33.1-20.912A15.584,15.584,0,1,0,37.9,36.739H35.8a2.306,2.306,0,0,0-2.306,2.306v10.47H27.653a2.306,2.306,0,0,0-2.306,2.306v9.07A2.306,2.306,0,0,0,27.653,63.2h5.839v10.47A2.306,2.306,0,0,0,35.8,75.974H63.007l-12.5,23.98a2.306,2.306,0,1,0,4.09,2.133L66.81,78.657l12.214,23.43a2.306,2.306,0,0,0,4.09-2.133l-12.5-23.98H97.823a2.307,2.307,0,0,0,2.306-2.306V66.788l14.914,8.027a2.306,2.306,0,0,0,3.4-2.031V39.927A2.306,2.306,0,0,0,117.319,37.947ZM33.492,58.584H29.96V54.127h3.532ZM81.07,4.613A16.063,16.063,0,1,1,65.007,20.676,16.081,16.081,0,0,1,81.07,4.613ZM63.458,31.493a20.83,20.83,0,0,0,4.611,5.245H60.022A15.641,15.641,0,0,0,63.458,31.493ZM48.963,14.782A10.978,10.978,0,1,1,37.985,25.76,10.991,10.991,0,0,1,48.963,14.782Zm46.553,35V71.36H38.105V41.351H95.516ZM113.83,68.923l-13.7-7.374V51.162l13.7-7.374Z" transform="translate(-25.347)"/></g></g><g transform="translate(16.61 18.754)"><g transform="translate(0)"><path d="M114.66,92.931a7.006,7.006,0,1,0,7.006,7.006A7.014,7.014,0,0,0,114.66,92.931Zm0,9.86a2.855,2.855,0,1,1,2.855-2.855A2.858,2.858,0,0,1,114.66,102.791Z" transform="translate(-107.654 -92.931)"/></g></g><g transform="translate(45.662 10.614)"><g transform="translate(0)"><path d="M261.67,52.6a10.061,10.061,0,1,0,10.061,10.062A10.073,10.073,0,0,0,261.67,52.6Zm0,15.51a5.449,5.449,0,1,1,5.449-5.449A5.455,5.455,0,0,1,261.67,68.105Z" transform="translate(-251.609 -52.595)"/></g></g><g transform="translate(21.014 48.058)"><path d="M156.744,238.137H131.667a2.191,2.191,0,0,0-2.191,2.191v12.213a2.191,2.191,0,0,0,2.191,2.191h25.077a2.191,2.191,0,0,0,2.191-2.191V240.328A2.191,2.191,0,0,0,156.744,238.137Zm-2.191,12.213H133.858v-7.831h20.695v7.831Z" transform="translate(-129.476 -238.137)"/></g><g transform="translate(58.072 50.249)"><circle cx="2.306" cy="2.306" r="2.306"/></g><g transform="translate(58.072 57.848)"><circle cx="2.306" cy="2.306" r="2.306"/></g></g><g transform="translate(1195.682 3901.155)"><g transform="translate(24.44 34.516)"><path d="M174.85,225.041a4.685,4.685,0,0,0-1.559-3.351,44.469,44.469,0,0,0-59.016,0,4.687,4.687,0,0,0-.185,6.81l8.917,8.917a4.66,4.66,0,0,0,6.331.275,22.49,22.49,0,0,1,28.889,0,4.658,4.658,0,0,0,6.332-.274l8.917-8.917A4.719,4.719,0,0,0,174.85,225.041Zm-13.6,9.063h0a27.177,27.177,0,0,0-34.925,0l-8.93-8.906a39.777,39.777,0,0,1,52.765-.01Z" transform="translate(-112.714 -210.489)"/></g><g transform="translate(45.643 69.033)"><path d="M227.347,372.565a9.87,9.87,0,1,0,2.891,6.98A9.806,9.806,0,0,0,227.347,372.565Zm-3.317,10.642a5.18,5.18,0,1,1,0-7.325h0a5.18,5.18,0,0,1,0,7.325Z" transform="translate(-210.501 -369.674)"/></g><g transform="translate(0 0)"><g transform="translate(0 0)"><path d="M109.531,72.643a79.052,79.052,0,0,0-108.045,0,4.7,4.7,0,0,0-.114,6.745l8.9,8.9a4.67,4.67,0,0,0,6.5.128,57.064,57.064,0,0,1,77.477,0,4.669,4.669,0,0,0,6.5-.128l8.9-8.9a4.7,4.7,0,0,0-.114-6.745ZM97.438,84.977a61.752,61.752,0,0,0-83.85-.007L4.7,76.062a74.353,74.353,0,0,1,101.623,0l.008.009Z" transform="translate(0.001 -51.303)"/></g></g></g></g></svg>