<svg xmlns="http://www.w3.org/2000/svg" xmlns:xlink="http://www.w3.org/1999/xlink" width="777.996" height="914.154" viewBox="0 0 777.996 914.154"><defs><style>.a{fill:#030303;}.a,.ac,.ad,.ae,.ag,.ah,.aj,.ak,.an,.c,.d,.e,.f,.g,.h,.i,.j,.n,.p,.q,.r,.s,.t,.u,.v,.w,.x,.y,.z{fill-rule:evenodd;}.b,.k{fill:#fff;}.b{font-size:21px;}.aa,.ab,.al,.am,.b{font-family:ArialRoundedMTBold, Arial Rounded MT Bold;}.c{fill:url(#a);}.d{fill:#c30c0c;}.e{fill:#060606;}.f{fill:#f9fbf9;}.g{fill:url(#c);}.h{fill:#6047a5;}.i{fill:#fdfefe;}.j{fill:#090909;}.k{stroke:#3e3d3d;}.l,.m,.o{fill:none;}.l{stroke:#000;}.l,.m{stroke-width:4px;stroke-dasharray:2 5;}.m{stroke:#fff;}.n{fill:url(#g);}.p{fill:#34886b;}.q{fill:url(#k);}.r{fill:#31beb8;}.s{fill:#1c772e;}.t{fill:url(#m);}.u{fill:#2b6fcc;}.v{fill:#fcfdfd;}.w{fill:url(#n);}.x{fill:#e1e1e1;}.aa,.ab,.y{fill:#2b7dc4;}.z{fill:#f9faf9;}.aa,.al{font-size:11px;}.ab,.am{font-size:5px;}.ac{fill:url(#q);}.ad{fill:#f8f9f8;}.ae,.af{fill:#7e425e;}.ag{fill:url(#y);}.ah,.ai{fill:url(#z);}.aj{fill:#1a1a1a;}.ak{fill:#0c0c0c;}.ao{stroke:none;}</style><linearGradient id="a" x1="0.5" x2="0.5" y2="0.5" gradientUnits="objectBoundingBox"><stop offset="0" stop-color="#030303"/><stop offset="0.255" stop-color="#3e3e3e" stop-opacity="0.29"/><stop offset="1" stop-color="#565656" stop-opacity="0"/></linearGradient><linearGradient id="c" x1="0.5" x2="0.538" y2="0.444" gradientUnits="objectBoundingBox"><stop offset="0" stop-color="#060606"/><stop offset="0.312" stop-color="#434343" stop-opacity="0.122"/><stop offset="1" stop-color="#585858" stop-opacity="0"/></linearGradient><linearGradient id="g" x1="0.5" x2="0.5" y2="0.314" gradientUnits="objectBoundingBox"><stop offset="0" stop-color="#fdfefe"/><stop offset="0.332" stop-color="#9c9c9c" stop-opacity="0.231"/><stop offset="1" stop-color="#7f7f7f" stop-opacity="0"/></linearGradient><linearGradient id="k" x1="0.469" y1="-0.07" x2="0.5" y2="0.757" gradientUnits="objectBoundingBox"><stop offset="0" stop-color="#030303"/><stop offset="0.416" stop-color="#d2d2d2" stop-opacity="0.176"/><stop offset="1" stop-color="#fff" stop-opacity="0"/></linearGradient><linearGradient id="m" x1="0.5" x2="0.5" y2="0.452" gradientUnits="objectBoundingBox"><stop offset="0" stop-color="#030303"/><stop offset="0.359" stop-color="#434343" stop-opacity="0.153"/><stop offset="1" stop-color="#565656" stop-opacity="0"/></linearGradient><linearGradient id="n" x1="0.5" x2="0.5" y2="0.564" gradientUnits="objectBoundingBox"><stop offset="0" stop-color="#1a1a1a"/><stop offset="0.609" stop-color="#5a5a5a" stop-opacity="0.11"/><stop offset="1" stop-color="#666" stop-opacity="0"/></linearGradient><linearGradient id="q" x1="0.5" y1="-0.504" x2="0.5" y2="0.5" gradientUnits="objectBoundingBox"><stop offset="0" stop-color="#e1e1e1"/><stop offset="0.386" stop-color="#898989" stop-opacity="0.216"/><stop offset="1" stop-color="#717171" stop-opacity="0"/></linearGradient><linearGradient id="y" x1="0.5" y1="-0.325" x2="0.5" y2="1.432" gradientUnits="objectBoundingBox"><stop offset="0" stop-color="#030303"/><stop offset="0.409" stop-color="#f6f6f6" stop-opacity="0.129"/><stop offset="1" stop-color="#fff" stop-opacity="0.031"/></linearGradient><linearGradient id="z" y1="-0.325" y2="0.762" xlink:href="#y"/></defs><g transform="translate(-619 -178.77)"><g transform="translate(619 189.684)"><g transform="translate(0 0)"><path class="a" d="M596.732,2534.455l9.05-.107,6.572-19.607c2.262,5.279,4.2,30.273,8.188,31.889,3.232-1.724,5.47-19.868,6.679-21.546s2.262,9.05,2.262,9.05l34.043.323c-4.417,7.541-22.624,22.731-33.289,28.334C623.019,2560.526,601.8,2542.75,596.732,2534.455Zm-3.124-3.447c-14.436-26.718,7.864-40.184,22.732-36.629,7.809,2.695,11.1,7.541,13.9,8.619,4.417-2.37,7.434-9.481,19.5-9.157,1.939,13.036,8.726,17.452,21.654,19.5a25.16,25.16,0,0,1-5.171,17.776l-34.151-.216c-2.478-7.433-2.788-15.732-5.494-15.406s-3.555,15.729-6.141,20.792l-5.171-24.563c-1.508-8.08-.754-5.926-2.909-7-2.693,1.939-7.541,21.977-8.942,26.394Zm56.128-40.938c-9.48.323-14.652,3.771-19.5,7.972-4.848-2.586-17.453-15.3-35.013-2.586a25.906,25.906,0,0,0-9.588,15.19c-2.262,10.558,2.681,16.225,3.663,20.577-1.885-.026-4.52,0-4.52,0v3.125c11.017.551,2.474-2.8,14.755,9.7,7.218,7.326,21.223,18.638,30.7,23.378,16.914-11.958,24.886-15.729,38.245-32.966,9.588-.107,8.483-1.135,8.511-1.724s-1.077-1.293-6.141-1.724c2.8-7.864,4.525-7.757,4.2-18.638,28.98-6.895,13.9-50.2-12.82-38.891C655.661,2476.28,651.352,2481.774,649.736,2490.07Z" transform="translate(-584.778 -2471.605)"/><text class="b" transform="translate(73.105 27.521)"><tspan x="0" y="0">90</tspan></text></g><g transform="translate(0 95.817)"><path class="c" d="M596.732,2496.223l9.05.08,6.572,14.642c2.262-3.942,4.2-22.607,8.188-23.814,3.232,1.287,5.47,14.837,6.679,16.09s2.262-6.758,2.262-6.758l34.043-.241c-4.417-5.632-22.624-16.976-33.289-21.159C623.019,2476.754,601.8,2490.028,596.732,2496.223Zm-3.124,2.574c-14.436,19.952,7.864,30.009,22.732,27.354,7.809-2.012,11.1-5.632,13.9-6.436,4.417,1.77,7.434,7.08,19.5,6.839,1.939-9.735,8.726-13.033,21.654-14.562.646-5.229-1.616-9.815-5.171-13.275l-34.151.161c-2.478,5.551-2.788,11.748-5.494,11.5s-3.555-11.746-6.141-15.527l-5.171,18.343c-1.508,6.034-.754,4.425-2.909,5.229-2.693-1.448-7.541-16.412-8.942-19.711Zm56.128,30.572c-9.48-.241-14.652-2.816-19.5-5.953-4.848,1.931-17.453,11.424-35.013,1.931-3.878-2.092-8.08-6.115-9.588-11.344-2.262-7.884,2.681-12.117,3.663-15.366-1.885.02-4.52,0-4.52,0V2496.3c11.017-.412,2.474,2.092,14.755-7.24,7.218-5.471,21.223-13.918,30.7-17.458,16.914,8.93,24.886,11.747,38.245,24.619,9.588.08,8.483.847,8.511,1.287s-1.077.966-6.141,1.287c2.8,5.873,4.525,5.793,4.2,13.918,28.98,5.149,13.9,37.491-12.82,29.043C655.661,2539.667,651.352,2535.564,649.736,2529.369Z" transform="translate(-584.778 -2471.604)"/><text class="b" transform="matrix(1, 0, 0, -1, 73.105, 41.793)"><tspan x="0" y="0">90</tspan></text></g></g><g transform="translate(619 398.747)"><g transform="translate(0 0)"><path class="d" d="M596.732,2534.455l9.05-.107,6.572-19.607c2.262,5.279,4.2,30.273,8.188,31.889,3.232-1.724,5.47-19.868,6.679-21.546s2.262,9.05,2.262,9.05l34.043.323c-4.417,7.541-22.624,22.731-33.289,28.334C623.019,2560.526,601.8,2542.75,596.732,2534.455Zm-3.124-3.447c-14.436-26.718,7.864-40.184,22.732-36.629,7.809,2.695,11.1,7.541,13.9,8.619,4.417-2.37,7.434-9.481,19.5-9.157,1.939,13.036,8.726,17.452,21.654,19.5a25.16,25.16,0,0,1-5.171,17.776l-34.151-.216c-2.478-7.433-2.788-15.732-5.494-15.406s-3.555,15.729-6.141,20.792l-5.171-24.563c-1.508-8.08-.754-5.926-2.909-7-2.693,1.939-7.541,21.977-8.942,26.394Zm56.128-40.938c-9.48.323-14.652,3.771-19.5,7.972-4.848-2.586-17.453-15.3-35.013-2.586a25.906,25.906,0,0,0-9.588,15.19c-2.262,10.558,2.681,16.225,3.663,20.577-1.885-.026-4.52,0-4.52,0v3.125c11.017.551,2.474-2.8,14.755,9.7,7.218,7.326,21.223,18.638,30.7,23.378,16.914-11.958,24.886-15.729,38.245-32.966,9.588-.107,8.483-1.135,8.511-1.724s-1.077-1.293-6.141-1.724c2.8-7.864,4.525-7.757,4.2-18.638,28.98-6.895,13.9-50.2-12.82-38.891C655.661,2476.28,651.352,2481.774,649.736,2490.07Z" transform="translate(-584.778 -2471.605)"/><text class="b" transform="translate(73.105 27.521)"><tspan x="0" y="0">90</tspan></text></g><g transform="translate(0 95.817)"><path class="c" d="M596.732,2496.223l9.05.08,6.572,14.642c2.262-3.942,4.2-22.607,8.188-23.814,3.232,1.287,5.47,14.837,6.679,16.09s2.262-6.758,2.262-6.758l34.043-.241c-4.417-5.632-22.624-16.976-33.289-21.159C623.019,2476.754,601.8,2490.028,596.732,2496.223Zm-3.124,2.574c-14.436,19.952,7.864,30.009,22.732,27.354,7.809-2.012,11.1-5.632,13.9-6.436,4.417,1.77,7.434,7.08,19.5,6.839,1.939-9.735,8.726-13.033,21.654-14.562.646-5.229-1.616-9.815-5.171-13.275l-34.151.161c-2.478,5.551-2.788,11.748-5.494,11.5s-3.555-11.746-6.141-15.527l-5.171,18.343c-1.508,6.034-.754,4.425-2.909,5.229-2.693-1.448-7.541-16.412-8.942-19.711Zm56.128,30.572c-9.48-.241-14.652-2.816-19.5-5.953-4.848,1.931-17.453,11.424-35.013,1.931-3.878-2.092-8.08-6.115-9.588-11.344-2.262-7.884,2.681-12.117,3.663-15.366-1.885.02-4.52,0-4.52,0V2496.3c11.017-.412,2.474,2.092,14.755-7.24,7.218-5.471,21.223-13.918,30.7-17.458,16.914,8.93,24.886,11.747,38.245,24.619,9.588.08,8.483.847,8.511,1.287s-1.077.966-6.141,1.287c2.8,5.873,4.525,5.793,4.2,13.918,28.98,5.149,13.9,37.491-12.82,29.043C655.661,2539.667,651.352,2535.564,649.736,2529.369Z" transform="translate(-584.778 -2471.604)"/></g></g><g transform="translate(1285.447 189.417)"><g transform="translate(0 0)"><path class="e" d="M6238.668,480.316c1.186-3.878,4.095-5.171,6.249-7.757,1.939,1.293,6.679,7.972,8.188,9.8,8.941,11.312,28.118,22.3,28.334,25.317-.539,3.017-4.417,7-7.218,7.972-2.8.215-12.821-14.436-16.592-19.069S6244.163,482.794,6238.668,480.316Zm83.386-17.022c-1.509-1.077-9.266-12.712-18.854-20.577-14.974-12.174-21.545-12.5-14.436-19.284,5.818-5.71,6.141-3.447,10.666,2.8,14.22,19.823,13.251,16.268,28.979,29.842C6327.116,459.093,6324.208,461.248,6322.054,463.295Zm-86.51,8.08c-.97,3.555-1.938,2.8-3.77,5.6,2.478,4.956,14.22,9.7,24.239,21.87,3.663,4.632,6.571,8.08,10.127,13.143,4.74,6.787,7.218,9.48,14.112,2.478,10.45-10.558-.754-10.881-15.083-24.024a97.08,97.08,0,0,1-11.527-11.527c-2.692-3.232-7.217-11.635-10.88-12.928l-4.31,3.771c-12.6-6.787-6.033-22.408,4.524-14.759l55.913,55.59c3.771,3.771,13.682,16.268,21.654,15.513,7.326-.646,14.437-9.588,1.939-21.87-12.605-12.281-25.21-24.563-37.491-37.383-12.174-12.6-24.562-24.563-37.061-36.952-2.369-2.37-7.541-6.248-6.57-11.743,1.077-6.141,8.295-5.6,12.173-2.8l55.806,55.59,9.373,9.373c12.6,12.5,21.331,2.262,20.685-5.6-.538-5.6-5.5-7.649-7.757-11.2,1.615-2.586,2.909-2.37,3.663-5.279-2.586-3.663-9.48-7.434-12.82-10.127-24.24-20.038-23.378-39-35.337-26.933-5.709,5.71-6.248,8.511,1.293,13.9,8.08,5.6,18.854,13.9,24.778,21.546,3.017,3.771,7.541,11.527,11.1,13.251l4.417-3.663c12.39,7.326,6.895,21.008-3.771,15.3l-56.129-55.374c-2.908-3.017-6.572-6.572-8.941-8.942-3.017-3.017-5.494-7.11-11.851-7.218-8.08-.215-16.375,8.4-3.231,21.546,12.6,12.6,24.994,24.563,37.49,37.383,12.282,12.6,24.563,24.455,37.061,36.952,2.263,2.37,7.11,6.141,6.571,11.42-.646,5.818-7.218,6.787-11.851,3.555L6248.9,455.861C6233.175,439.917,6218.415,460.494,6235.544,471.375Z" transform="translate(-6227.883 -409.963)"/><path class="f" d="M6802.5,547.692c2.154-2.047,5.063-4.2,6.356-7.218-15.729-13.574-14.76-10.019-28.98-29.842-4.525-6.248-4.848-8.511-10.666-2.8-7.11,6.787-.538,7.11,14.436,19.284C6793.239,534.98,6801,546.615,6802.5,547.692Z" transform="translate(-6708.333 -494.361)"/><path class="f" d="M6328,998.757c5.495,2.478,15.19,11.635,18.961,16.268s13.79,19.284,16.591,19.069c2.8-.969,6.68-4.956,7.218-7.972-.216-3.017-19.392-14.005-28.333-25.317-1.508-1.832-6.249-8.511-8.188-9.8C6332.093,993.586,6329.184,994.878,6328,998.757Z" transform="translate(-6317.213 -928.404)"/></g><g transform="translate(0 116.172)"><path class="g" d="M6238.668,453.577c1.186,3.692,4.095,4.922,6.249,7.383,1.939-1.231,6.679-7.589,8.188-9.332,8.941-10.767,28.118-21.227,28.334-24.1-.539-2.871-4.417-6.666-7.218-7.589-2.8-.205-12.821,13.741-16.592,18.151S6244.163,451.218,6238.668,453.577Zm83.386,16.2c-1.509,1.025-9.266,12.1-18.854,19.586-14.974,11.588-21.545,11.9-14.436,18.356,5.818,5.435,6.141,3.281,10.666-2.666,14.22-18.869,13.251-15.484,28.979-28.405C6327.116,473.779,6324.208,471.728,6322.054,469.779Zm-86.51-7.691c-.97-3.384-1.938-2.666-3.77-5.332,2.478-4.717,14.22-9.229,24.239-20.817,3.663-4.41,6.571-7.691,10.127-12.511,4.74-6.46,7.218-9.024,14.112-2.359,10.45,10.05-.754,10.357-15.083,22.868a94.892,94.892,0,0,0-11.527,10.973c-2.692,3.076-7.217,11.075-10.88,12.306l-4.31-3.589c-12.6,6.46-6.033,21.33,4.524,14.049l55.913-52.914c3.771-3.589,13.682-15.485,21.654-14.767,7.326.615,14.437,9.127,1.939,20.817-12.605,11.69-25.21,23.381-37.491,35.584-12.174,12-24.562,23.381-37.061,35.174-2.369,2.256-7.541,5.948-6.57,11.178,1.077,5.845,8.295,5.332,12.173,2.666l55.806-52.914,9.373-8.922c12.6-11.9,21.331-2.153,20.685,5.332-.538,5.332-5.5,7.281-7.757,10.665,1.615,2.461,2.909,2.256,3.663,5.025-2.586,3.487-9.48,7.076-12.82,9.639-24.24,19.074-23.378,37.122-35.337,25.637-5.709-5.435-6.248-8.1,1.293-13.229,8.08-5.332,18.854-13.228,24.778-20.509,3.017-3.589,7.541-10.973,11.1-12.613l4.417,3.487c12.39-6.973,6.895-20-3.771-14.562l-56.129,52.709c-2.908,2.871-6.572,6.255-8.941,8.511-3.017,2.871-5.494,6.768-11.851,6.871-8.08.205-16.375-8-3.231-20.509,12.6-12,24.994-23.381,37.49-35.584,12.282-12,24.563-23.278,37.061-35.174,2.263-2.256,7.11-5.845,6.571-10.87-.646-5.538-7.218-6.461-11.851-3.384L6248.9,476.855C6233.175,492.032,6218.415,472.446,6235.544,462.088Z" transform="translate(-6227.883 -409.963)"/><path class="g" d="M6328,1026.339c5.495-2.478,15.19-11.635,18.961-16.268s13.79-19.284,16.591-19.069c2.8.97,6.68,4.956,7.218,7.972-.216,3.016-19.392,14.005-28.333,25.317-1.508,1.832-6.249,8.511-8.188,9.8C6332.093,1031.51,6329.184,1030.217,6328,1026.339Z" transform="translate(-6317.213 -980.52)"/></g></g><g transform="translate(1285.447 398.48)"><g transform="translate(0 0)"><path class="h" d="M6238.668,480.316c1.186-3.878,4.095-5.171,6.249-7.757,1.939,1.293,6.679,7.972,8.188,9.8,8.941,11.312,28.118,22.3,28.334,25.317-.539,3.017-4.417,7-7.218,7.972-2.8.215-12.821-14.436-16.592-19.069S6244.163,482.794,6238.668,480.316Zm83.386-17.022c-1.509-1.077-9.266-12.712-18.854-20.577-14.974-12.174-21.545-12.5-14.436-19.284,5.818-5.71,6.141-3.447,10.666,2.8,14.22,19.823,13.251,16.268,28.979,29.842C6327.116,459.093,6324.208,461.248,6322.054,463.295Zm-86.51,8.08c-.97,3.555-1.938,2.8-3.77,5.6,2.478,4.956,14.22,9.7,24.239,21.87,3.663,4.632,6.571,8.08,10.127,13.143,4.74,6.787,7.218,9.48,14.112,2.478,10.45-10.558-.754-10.881-15.083-24.024a97.08,97.08,0,0,1-11.527-11.527c-2.692-3.232-7.217-11.635-10.88-12.928l-4.31,3.771c-12.6-6.787-6.033-22.408,4.524-14.759l55.913,55.59c3.771,3.771,13.682,16.268,21.654,15.513,7.326-.646,14.437-9.588,1.939-21.87-12.605-12.281-25.21-24.563-37.491-37.383-12.174-12.6-24.562-24.563-37.061-36.952-2.369-2.37-7.541-6.248-6.57-11.743,1.077-6.141,8.295-5.6,12.173-2.8l55.806,55.59,9.373,9.373c12.6,12.5,21.331,2.262,20.685-5.6-.538-5.6-5.5-7.649-7.757-11.2,1.615-2.586,2.909-2.37,3.663-5.279-2.586-3.663-9.48-7.434-12.82-10.127-24.24-20.038-23.378-39-35.337-26.933-5.709,5.71-6.248,8.511,1.293,13.9,8.08,5.6,18.854,13.9,24.778,21.546,3.017,3.771,7.541,11.527,11.1,13.251l4.417-3.663c12.39,7.326,6.895,21.008-3.771,15.3l-56.129-55.374c-2.908-3.017-6.572-6.572-8.941-8.942-3.017-3.017-5.494-7.11-11.851-7.218-8.08-.215-16.375,8.4-3.231,21.546,12.6,12.6,24.994,24.563,37.49,37.383,12.282,12.6,24.563,24.455,37.061,36.952,2.263,2.37,7.11,6.141,6.571,11.42-.646,5.818-7.218,6.787-11.851,3.555L6248.9,455.861C6233.175,439.917,6218.415,460.494,6235.544,471.375Z" transform="translate(-6227.883 -409.963)"/><path class="f" d="M6802.5,547.692c2.154-2.047,5.063-4.2,6.356-7.218-15.729-13.574-14.76-10.019-28.98-29.842-4.525-6.248-4.848-8.511-10.666-2.8-7.11,6.787-.538,7.11,14.436,19.284C6793.239,534.98,6801,546.615,6802.5,547.692Z" transform="translate(-6708.333 -494.361)"/><path class="f" d="M6328,998.757c5.495,2.478,15.19,11.635,18.961,16.268s13.79,19.284,16.591,19.069c2.8-.969,6.68-4.956,7.218-7.972-.216-3.017-19.392-14.005-28.333-25.317-1.508-1.832-6.249-8.511-8.188-9.8C6332.093,993.586,6329.184,994.878,6328,998.757Z" transform="translate(-6317.213 -928.404)"/></g><g transform="translate(0 116.172)"><path class="g" d="M6238.668,453.577c1.186,3.692,4.095,4.922,6.249,7.383,1.939-1.231,6.679-7.589,8.188-9.332,8.941-10.767,28.118-21.227,28.334-24.1-.539-2.871-4.417-6.666-7.218-7.589-2.8-.205-12.821,13.741-16.592,18.151S6244.163,451.218,6238.668,453.577Zm83.386,16.2c-1.509,1.025-9.266,12.1-18.854,19.586-14.974,11.588-21.545,11.9-14.436,18.356,5.818,5.435,6.141,3.281,10.666-2.666,14.22-18.869,13.251-15.484,28.979-28.405C6327.116,473.779,6324.208,471.728,6322.054,469.779Zm-86.51-7.691c-.97-3.384-1.938-2.666-3.77-5.332,2.478-4.717,14.22-9.229,24.239-20.817,3.663-4.41,6.571-7.691,10.127-12.511,4.74-6.46,7.218-9.024,14.112-2.359,10.45,10.05-.754,10.357-15.083,22.868a94.892,94.892,0,0,0-11.527,10.973c-2.692,3.076-7.217,11.075-10.88,12.306l-4.31-3.589c-12.6,6.46-6.033,21.33,4.524,14.049l55.913-52.914c3.771-3.589,13.682-15.485,21.654-14.767,7.326.615,14.437,9.127,1.939,20.817-12.605,11.69-25.21,23.381-37.491,35.584-12.174,12-24.562,23.381-37.061,35.174-2.369,2.256-7.541,5.948-6.57,11.178,1.077,5.845,8.295,5.332,12.173,2.666l55.806-52.914,9.373-8.922c12.6-11.9,21.331-2.153,20.685,5.332-.538,5.332-5.5,7.281-7.757,10.665,1.615,2.461,2.909,2.256,3.663,5.025-2.586,3.487-9.48,7.076-12.82,9.639-24.24,19.074-23.378,37.122-35.337,25.637-5.709-5.435-6.248-8.1,1.293-13.229,8.08-5.332,18.854-13.228,24.778-20.509,3.017-3.589,7.541-10.973,11.1-12.613l4.417,3.487c12.39-6.973,6.895-20-3.771-14.562l-56.129,52.709c-2.908,2.871-6.572,6.255-8.941,8.511-3.017,2.871-5.494,6.768-11.851,6.871-8.08.205-16.375-8-3.231-20.509,12.6-12,24.994-23.381,37.49-35.584,12.282-12,24.563-23.278,37.061-35.174,2.263-2.256,7.11-5.845,6.571-10.87-.646-5.538-7.218-6.461-11.851-3.384L6248.9,476.855C6233.175,492.032,6218.415,472.446,6235.544,462.088Z" transform="translate(-6227.883 -409.963)"/><path class="g" d="M6328,1026.339c5.495-2.478,15.19-11.635,18.961-16.268s13.79-19.284,16.591-19.069c2.8.97,6.68,4.956,7.218,7.972-.216,3.016-19.392,14.005-28.333,25.317-1.508,1.832-6.249,8.511-8.188,9.8C6332.093,1031.51,6329.184,1030.217,6328,1026.339Z" transform="translate(-6317.213 -980.52)"/></g></g><g transform="translate(837.303 189.411)"><g transform="translate(0 0)"><path class="i" d="M4548.12,602.755c-28.657,3.555-46.217-5.925-58.176-22.624a55.657,55.657,0,0,1-10.234-30.811c-.538-17.991,5.387-22.624,8.511-32.32-11.958,3.878-24.239,18.53-28.441,31.889a54.9,54.9,0,0,0,7.326,47.4c6.572,9.373,19.823,20.254,37.6,22.193C4520,620.207,4542.3,613.2,4548.12,602.755Z" transform="translate(-4454.566 -512.266)"/><path class="a" d="M4842.941,605.266c-7.218-13.79,4.417-36.219,25.541-36.38.1,4.174.638,27.3.638,27.3S4846.43,605,4842.941,605.266Zm19.93-37.275c-40.185,10.558-24.024,64.1,11.527,56.775,13.9-2.8,26.18-17.022,22.408-34.474C4893.9,577.256,4879.785,563.574,4862.871,567.991Z" transform="translate(-4795.389 -557.009)"/><path class="j" d="M4525.161,563.546c-5.817,10.45-28.118,17.453-43.416,15.729-17.775-1.939-31.027-12.82-37.6-22.193a54.9,54.9,0,0,1-7.326-47.4c4.2-13.359,16.483-28.01,28.441-31.889-3.124,9.7-9.049,14.328-8.511,32.32a55.646,55.646,0,0,0,10.234,30.811C4478.943,557.621,4496.5,567.1,4525.161,563.546Zm6.679-4.309c-6.895.539-11.2,2.909-19.822,2.8-36.521-.646-63.239-37.706-48.265-74.766,1.724-4.2,7.542-11.851,7.434-14.113-9.588-1.616-29.3,16.375-35.228,31.027-19.607,48.372,30.7,96.1,77.783,71.857a53.539,53.539,0,0,0,14.543-10.881C4530.116,563.223,4531.517,562.684,4531.84,559.237Z" transform="translate(-4431.607 -473.057)"/><g class="k" transform="translate(68.395 35.26)"><circle class="ao" cx="4.373" cy="4.373" r="4.373"/><circle class="o" cx="4.373" cy="4.373" r="3.873"/></g><g class="k" transform="translate(72.282 38.175)"><rect class="ao" width="21.381" height="2.916"/><rect class="o" x="0.5" y="0.5" width="20.381" height="1.916"/></g><g class="k" transform="translate(74.712 23.112) rotate(90)"><rect class="ao" width="16.522" height="2.916"/><rect class="o" x="0.5" y="0.5" width="15.522" height="1.916"/></g><path class="l" d="M1082.089,186.335c-5.941-20.757,15.831-33.845,23.63-33.2" transform="translate(-1033.988 -140.096)"/><path class="m" d="M1.014,33.223C-4.927,12.466,16.845-.622,24.644.023" transform="translate(106.109 21.728) rotate(107)"/><path class="m" d="M1.663,34.02C-6.315,13.2,15.741-7.972,39.582,2.992" transform="matrix(-0.819, -0.574, 0.574, -0.819, 79.486, 75.623)"/></g><g transform="translate(0 109.501)"><path class="n" d="M4548.12,532.272c-28.657-3.4-46.217,5.659-58.176,21.608a51.607,51.607,0,0,0-10.234,29.428c-.538,17.183,5.387,21.608,8.511,30.869-11.958-3.7-24.239-17.7-28.441-30.457a50.487,50.487,0,0,1,7.326-45.274,54.746,54.746,0,0,1,37.6-21.2C4520,515.6,4542.3,522.291,4548.12,532.272Z" transform="translate(-4454.566 -513.977)"/><path class="n" d="M4525.161,491.277c-5.817-10.014-28.118-16.725-43.416-15.073a54.71,54.71,0,0,0-37.6,21.267,50.791,50.791,0,0,0-7.326,45.425c4.2,12.8,16.483,26.842,28.441,30.558-3.124-9.291-9.049-13.731-8.511-30.971a51.877,51.877,0,0,1,10.234-29.526C4478.943,496.955,4496.5,487.87,4525.161,491.277Zm6.679,4.13c-6.895-.516-11.2-2.787-19.822-2.684-36.521.619-63.239,36.133-48.265,71.647,1.724,4.026,7.542,11.356,7.434,13.524-9.588,1.549-29.3-15.692-35.228-29.732-19.607-46.354,30.7-92.088,77.783-68.86a53.409,53.409,0,0,1,14.543,10.427C4530.116,491.586,4531.517,492.1,4531.84,495.406Z" transform="translate(-4431.607 -473.057)"/><path class="o" d="M1082.089,153.111c-5.941,20.757,15.831,33.845,23.63,33.2" transform="translate(-1033.988 -94.416)"/><path class="o" d="M38.156,0C31.474,20.531,6.105,19.207,0,14.311" transform="translate(85.197 97.096) rotate(-107)"/><path class="o" d="M0,5.179C17.473-7.5,40.725,3.967,42.126,30.2" transform="matrix(-0.819, 0.574, -0.574, -0.819, 100.608, 25.992)"/></g></g><g transform="translate(837.303 398.474)"><g transform="translate(0 0)"><path class="i" d="M4548.12,602.755c-28.657,3.555-46.217-5.925-58.176-22.624a55.657,55.657,0,0,1-10.234-30.811c-.538-17.991,5.387-22.624,8.511-32.32-11.958,3.878-24.239,18.53-28.441,31.889a54.9,54.9,0,0,0,7.326,47.4c6.572,9.373,19.823,20.254,37.6,22.193C4520,620.207,4542.3,613.2,4548.12,602.755Z" transform="translate(-4454.566 -512.266)"/><path class="p" d="M4842.941,605.266c-7.218-13.79,4.417-36.219,25.541-36.38.1,4.174.638,27.3.638,27.3S4846.43,605,4842.941,605.266Zm19.93-37.275c-40.185,10.558-24.024,64.1,11.527,56.775,13.9-2.8,26.18-17.022,22.408-34.474C4893.9,577.256,4879.785,563.574,4862.871,567.991Z" transform="translate(-4795.389 -557.009)"/><path class="p" d="M4525.161,563.546c-5.817,10.45-28.118,17.453-43.416,15.729-17.775-1.939-31.027-12.82-37.6-22.193a54.9,54.9,0,0,1-7.326-47.4c4.2-13.359,16.483-28.01,28.441-31.889-3.124,9.7-9.049,14.328-8.511,32.32a55.646,55.646,0,0,0,10.234,30.811C4478.943,557.621,4496.5,567.1,4525.161,563.546Zm6.679-4.309c-6.895.539-11.2,2.909-19.822,2.8-36.521-.646-63.239-37.706-48.265-74.766,1.724-4.2,7.542-11.851,7.434-14.113-9.588-1.616-29.3,16.375-35.228,31.027-19.607,48.372,30.7,96.1,77.783,71.857a53.539,53.539,0,0,0,14.543-10.881C4530.116,563.223,4531.517,562.684,4531.84,559.237Z" transform="translate(-4431.607 -473.057)"/><g class="k" transform="translate(68.395 35.26)"><circle class="ao" cx="4.373" cy="4.373" r="4.373"/><circle class="o" cx="4.373" cy="4.373" r="3.873"/></g><g class="k" transform="translate(72.282 38.175)"><rect class="ao" width="21.381" height="2.916"/><rect class="o" x="0.5" y="0.5" width="20.381" height="1.916"/></g><g class="k" transform="translate(74.712 23.112) rotate(90)"><rect class="ao" width="16.522" height="2.916"/><rect class="o" x="0.5" y="0.5" width="15.522" height="1.916"/></g><path class="l" d="M1082.089,186.335c-5.941-20.757,15.831-33.845,23.63-33.2" transform="translate(-1033.988 -140.096)"/><path class="m" d="M1.014,33.223C-4.927,12.466,16.845-.622,24.644.023" transform="translate(106.109 21.728) rotate(107)"/><path class="m" d="M1.663,34.02C-6.315,13.2,15.741-7.972,39.582,2.992" transform="matrix(-0.819, -0.574, 0.574, -0.819, 79.486, 75.623)"/></g><g transform="translate(0 109.501)"><path class="n" d="M4548.12,532.272c-28.657-3.4-46.217,5.659-58.176,21.608a51.607,51.607,0,0,0-10.234,29.428c-.538,17.183,5.387,21.608,8.511,30.869-11.958-3.7-24.239-17.7-28.441-30.457a50.487,50.487,0,0,1,7.326-45.274,54.746,54.746,0,0,1,37.6-21.2C4520,515.6,4542.3,522.291,4548.12,532.272Z" transform="translate(-4454.566 -513.977)"/><path class="n" d="M4525.161,491.277c-5.817-10.014-28.118-16.725-43.416-15.073a54.71,54.71,0,0,0-37.6,21.267,50.791,50.791,0,0,0-7.326,45.425c4.2,12.8,16.483,26.842,28.441,30.558-3.124-9.291-9.049-13.731-8.511-30.971a51.877,51.877,0,0,1,10.234-29.526C4478.943,496.955,4496.5,487.87,4525.161,491.277Zm6.679,4.13c-6.895-.516-11.2-2.787-19.822-2.684-36.521.619-63.239,36.133-48.265,71.647,1.724,4.026,7.542,11.356,7.434,13.524-9.588,1.549-29.3-15.692-35.228-29.732-19.607-46.354,30.7-92.088,77.783-68.86a53.409,53.409,0,0,1,14.543,10.427C4530.116,491.586,4531.517,492.1,4531.84,495.406Z" transform="translate(-4431.607 -473.057)"/><path class="o" d="M1082.089,153.111c-5.941,20.757,15.831,33.845,23.63,33.2" transform="translate(-1033.988 -94.416)"/><path class="o" d="M38.156,0C31.474,20.531,6.105,19.207,0,14.311" transform="translate(85.197 97.096) rotate(-107)"/><path class="o" d="M0,5.179C17.473-7.5,40.725,3.967,42.126,30.2" transform="matrix(-0.819, 0.574, -0.574, -0.819, 100.608, 25.992)"/></g></g><g transform="translate(1063.723 178.77)"><g transform="translate(0)"><path class="a" d="M759.541,462.6c-2.155-21.87,30.488-24.24,32.535-3.555C794.231,481.024,761.588,483.718,759.541,462.6Zm89.849-54.728c14.436-5.063,20.146,17.129,6.787,21.223C842.387,433.3,834.738,412.938,849.39,407.874ZM766.113,517.438c4.875.943,9.108,2.091,17.237.431s0-3.771,5.494-7c2.478-1.508,4.094-2.37,6.679-3.986L821.7,491.151c7.11-4.309,13.089-7.487,10.127-10.558s-21.978-1.724-21.978-1.724,30.057-15.944,36.414-19.284c3.555-1.831,3.663-1.4,8.188-1.508,6.356-.215,6.141-.97,6.679-3.232-2.262-1.293-2.909-1.185-6.249-1.724.862-2.586,5.71-9.48,7.433-12.6a68.281,68.281,0,0,0,6.356-14.544c9.48-32.535-40.292-32.643-32.427-1.508,3.124,12.389,9.7,19.284,14.113,28.334-2.37,1.185-3.448.108-6.033,2.262.323,1.724.862,1.831,2.047,3.016l-32.212,14.975s-11.123,4.983-8.3,7.434,19.607,2.37,19.607,2.37l-5.171,3.878s-3.771,2.155-5.818,3.232c-4.633,2.586-7.326,4.309-11.743,7-5.063,3.124-18.1,12.174-23.27,13.79,3.555-8.942,15.406-21.439,20.253-40.83,4.848-19.284-7.11-35.121-25.317-34.259-17.13.754-27.579,16.7-22.193,35.552,3.016,10.45,9.049,21.439,14.759,30.919,1.939,3.124,5.063,6.572,5.925,9.911a48.294,48.294,0,0,0-9.049,2.047S761.238,516.5,766.113,517.438Z" transform="translate(-750.792 -401.339)"/></g><g transform="translate(0 117.372)"><path class="q" d="M759.541,454.221c-2.155,20.612,30.488,22.845,32.535,3.351C794.231,436.858,761.588,434.319,759.541,454.221ZM849.39,505.8c14.436,4.772,20.146-16.144,6.787-20C842.387,481.838,834.738,501.028,849.39,505.8ZM766.113,402.539c4.875-.888,9.108-1.971,17.237-.406s0,3.554,5.494,6.6c2.478,1.421,4.094,2.234,6.679,3.757L821.7,427.314c7.11,4.061,13.089,7.057,10.127,9.95s-21.978,1.625-21.978,1.625,30.057,15.027,36.414,18.175c3.555,1.726,3.663,1.32,8.188,1.422,6.356.2,6.141.914,6.679,3.046-2.262,1.218-2.909,1.117-6.249,1.625.862,2.437,5.71,8.935,7.433,11.88a62.518,62.518,0,0,1,6.356,13.707c9.48,30.664-40.292,30.765-32.427,1.422,3.124-11.677,9.7-18.175,14.113-26.7-2.37-1.117-3.448-.1-6.033-2.132.323-1.625.862-1.726,2.047-2.843l-32.212-14.113s-11.123-4.7-8.3-7.006,19.607-2.234,19.607-2.234l-5.171-3.655s-3.771-2.031-5.818-3.046c-4.633-2.437-7.326-4.061-11.743-6.6-5.063-2.945-18.1-11.474-23.27-13,3.555,8.427,15.406,20.206,20.253,38.482,4.848,18.175-7.11,33.1-25.317,32.288-17.13-.711-27.579-15.738-22.193-33.507,3.016-9.849,9.049-20.206,14.759-29.141,1.939-2.944,5.063-6.194,5.925-9.341a50.774,50.774,0,0,1-9.049-1.929S761.238,403.427,766.113,402.539Z" transform="translate(-750.792 -401.339)"/></g></g><g transform="translate(1063.723 387.832)"><g transform="translate(0)"><path class="r" d="M759.541,462.6c-2.155-21.87,30.488-24.24,32.535-3.555C794.231,481.024,761.588,483.718,759.541,462.6Zm89.849-54.728c14.436-5.063,20.146,17.129,6.787,21.223C842.387,433.3,834.738,412.938,849.39,407.874ZM766.113,517.438c4.875.943,9.108,2.091,17.237.431s0-3.771,5.494-7c2.478-1.508,4.094-2.37,6.679-3.986L821.7,491.151c7.11-4.309,13.089-7.487,10.127-10.558s-21.978-1.724-21.978-1.724,30.057-15.944,36.414-19.284c3.555-1.831,3.663-1.4,8.188-1.508,6.356-.215,6.141-.97,6.679-3.232-2.262-1.293-2.909-1.185-6.249-1.724.862-2.586,5.71-9.48,7.433-12.6a68.281,68.281,0,0,0,6.356-14.544c9.48-32.535-40.292-32.643-32.427-1.508,3.124,12.389,9.7,19.284,14.113,28.334-2.37,1.185-3.448.108-6.033,2.262.323,1.724.862,1.831,2.047,3.016l-32.212,14.975s-11.123,4.983-8.3,7.434,19.607,2.37,19.607,2.37l-5.171,3.878s-3.771,2.155-5.818,3.232c-4.633,2.586-7.326,4.309-11.743,7-5.063,3.124-18.1,12.174-23.27,13.79,3.555-8.942,15.406-21.439,20.253-40.83,4.848-19.284-7.11-35.121-25.317-34.259-17.13.754-27.579,16.7-22.193,35.552,3.016,10.45,9.049,21.439,14.759,30.919,1.939,3.124,5.063,6.572,5.925,9.911a48.294,48.294,0,0,0-9.049,2.047S761.238,516.5,766.113,517.438Z" transform="translate(-750.792 -401.339)"/></g><g transform="translate(0 117.372)"><path class="q" d="M759.541,454.221c-2.155,20.612,30.488,22.845,32.535,3.351C794.231,436.858,761.588,434.319,759.541,454.221ZM849.39,505.8c14.436,4.772,20.146-16.144,6.787-20C842.387,481.838,834.738,501.028,849.39,505.8ZM766.113,402.539c4.875-.888,9.108-1.971,17.237-.406s0,3.554,5.494,6.6c2.478,1.421,4.094,2.234,6.679,3.757L821.7,427.314c7.11,4.061,13.089,7.057,10.127,9.95s-21.978,1.625-21.978,1.625,30.057,15.027,36.414,18.175c3.555,1.726,3.663,1.32,8.188,1.422,6.356.2,6.141.914,6.679,3.046-2.262,1.218-2.909,1.117-6.249,1.625.862,2.437,5.71,8.935,7.433,11.88a62.518,62.518,0,0,1,6.356,13.707c9.48,30.664-40.292,30.765-32.427,1.422,3.124-11.677,9.7-18.175,14.113-26.7-2.37-1.117-3.448-.1-6.033-2.132.323-1.625.862-1.726,2.047-2.843l-32.212-14.113s-11.123-4.7-8.3-7.006,19.607-2.234,19.607-2.234l-5.171-3.655s-3.771-2.031-5.818-3.046c-4.633-2.437-7.326-4.061-11.743-6.6-5.063-2.945-18.1-11.474-23.27-13,3.555,8.427,15.406,20.206,20.253,38.482,4.848,18.175-7.11,33.1-25.317,32.288-17.13-.711-27.579-15.738-22.193-33.507,3.016-9.849,9.049-20.206,14.759-29.141,1.939-2.944,5.063-6.194,5.925-9.341a50.774,50.774,0,0,1-9.049-1.929S761.238,403.427,766.113,402.539Z" transform="translate(-750.792 -401.339)"/></g></g><g transform="translate(1017.777 893.65)"><g transform="translate(0)"><path class="s" d="M4118.3,2858.173c-1.4-1.939-1.616-51.173-.107-53.65,1.4-1.724,6.787-1.4,8.08-.754,2.37,1.185,1.615,5.063,1.615,8.188v38.137c0,2.585.862,7.11-1.185,8.618C4125.738,2859.466,4120.89,2860.543,4118.3,2858.173Zm-70.887-54.3c13.9-3.878,9.588,6.141,9.588,27.472,0,5.925,1.616,23.27-.862,27.041a10.738,10.738,0,0,1-7.541.862c-2.586-.862-2.047-2.586-2.047-6.141C4046.662,2843.306,4045.585,2808.077,4047.417,2803.876Zm82.739,5.171c8.08-2.478,9.8-.215,10.018,4.309.108,1.831-.107,4.2-.107,6.033,0,6.9,1.077,31.673-.646,33.936-2.263,1.832-7.11,1.077-9.157.323C4128.97,2850.309,4128.97,2812.818,4130.155,2809.047Zm-95.235-.215,9.373-.215c1.185,4.2,1.4,41.584-.108,44.493-1.077,1.293-8.942,3.232-9.8-1.508C4033.95,2849.016,4034.166,2811.417,4034.92,2808.832Zm107.409,6.356c12.5-3.124,10.127,1.616,10.02,10.989,0,18.207,2.8,21.762-4.956,21.977-7.434.323-5.494-2.8-5.494-11.528C4141.9,2831.132,4141.359,2819.928,4142.329,2815.188Zm-113.873,32.858-5.925-.323c-.862-3.771-.862-28.765,0-32.643,12.712-1.616,10.019-1.185,10.019,16.268C4032.55,2845.137,4034.382,2848.046,4028.456,2848.046Zm15.621-41.153c-14.005-1.4-10.344,2.271-11.929,5.822-3.555-.216-10.411-.237-11.341,1.288s-.754,9.157-.754,9.157c-5.279,2.262-5.063-.431-5.063,9.7,0,6.356.754,4.632,5.171,6.787.647,9.049-2.262,10.665,11.2,10.126,2.909,3.124-1.832,7.11,12.712,6.033,1.185,2.155,1.078,5.063,5.279,5.818,13.359,2.478,8.726-10.019,9.48-22.193l56.031-.344s-.632,16.583,1.605,20.167,12.82,4.2,13.251-3.555c14.543,1.4,10.665-2.155,13.143-5.925,4.417.216,9.772.5,10.881-1.4s.538-8.726.538-8.726c5.171-2.586,5.279.323,5.279-8.3,0-8.3.108-5.818-5.279-8.188,0,0,.715-6.311-.323-8.834s-5.6-1.724-11.1-1.4c0,0-.14-3.669-2.047-5.387s-6.356-.969-10.665-.754c-1.293-2.693-1.293-4.633-4.525-5.171a10.13,10.13,0,0,0-9.157,1.077c-3.234,2.581-2.131,16.13-1.965,20.81l-55.672.091c-.539-13.036,2.478-21.762-5.71-22.193-4.309-.216-6.248-.108-7.864,2.693Z" transform="translate(-4014.988 -2801.021)"/></g><g transform="translate(0 60.916)"><path class="t" d="M4118.3,2804.308c-1.4,1.693-1.616,44.678-.107,46.841,1.4,1.505,6.787,1.223,8.08.658,2.37-1.034,1.615-4.421,1.615-7.148v-33.3c0-2.257.862-6.208-1.185-7.525C4125.738,2803.179,4120.89,2802.239,4118.3,2804.308Zm-70.887,47.405c13.9,3.386,9.588-5.361,9.588-23.985,0-5.173,1.616-20.317-.862-23.609a12.138,12.138,0,0,0-7.541-.752c-2.586.752-2.047,2.258-2.047,5.361C4046.662,2817.288,4045.585,2848.046,4047.417,2851.714Zm82.739-4.515c8.08,2.163,9.8.188,10.018-3.762.108-1.6-.107-3.668-.107-5.267,0-6.02,1.077-27.654-.646-29.628-2.263-1.6-7.11-.94-9.157-.282C4128.97,2811.174,4128.97,2843.906,4130.155,2847.2Zm-95.235.188,9.373.188c1.185-3.669,1.4-36.307-.108-38.846-1.077-1.128-8.942-2.822-9.8,1.317C4033.95,2812.3,4034.166,2845.13,4034.92,2847.387Zm107.409-5.549c12.5,2.728,10.127-1.411,10.02-9.594,0-15.9,2.8-19-4.956-19.188-7.434-.282-5.494,2.446-5.494,10.064C4141.9,2827.917,4141.359,2837.7,4142.329,2841.837Zm-113.873-28.687-5.925.282c-.862,3.292-.862,25.114,0,28.5,12.712,1.411,10.019,1.035,10.019-14.2C4032.55,2815.689,4034.382,2813.15,4028.456,2813.15Zm15.621,35.93c-14.005,1.223-10.344-1.982-11.929-5.083-3.555.188-10.411.207-11.341-1.125s-.754-7.995-.754-7.995c-5.279-1.975-5.063.376-5.063-8.466,0-5.549.754-4.044,5.171-5.926.647-7.9-2.262-9.312,11.2-8.841,2.909-2.728-1.832-6.208,12.712-5.267,1.185-1.881,1.078-4.421,5.279-5.079,13.359-2.163,8.726,8.747,9.48,19.376l56.031.3s-.632-14.478,1.605-17.607,12.82-3.668,13.251,3.1c14.543-1.223,10.665,1.881,13.143,5.173,4.417-.188,9.772-.438,10.881,1.222s.538,7.619.538,7.619c5.171,2.258,5.279-.282,5.279,7.243,0,7.243.108,5.079-5.279,7.149,0,0,.715,5.51-.323,7.713s-5.6,1.5-11.1,1.223c0,0-.14,3.2-2.047,4.7s-6.356.846-10.665.658c-1.293,2.352-1.293,4.044-4.525,4.515a11.319,11.319,0,0,1-9.157-.941c-3.234-2.253-2.131-14.083-1.965-18.168l-55.672-.079c-.539,11.381,2.478,19-5.71,19.376-4.309.188-6.248.094-7.864-2.351Z" transform="translate(-4014.988 -2801.021)"/></g></g><g transform="translate(801.052 885.875)"><g transform="translate(0 0)"><path class="u" d="M2227.394,2793.369a24.979,24.979,0,0,1,8.08-7.218c5.817-3.448,5.71-.216,12.5-.431,9.05-.431,17.776-6.033,24.671-6.68,2.262,2.694,16.591,21.223,16.914,22.839-11.42.431-22.947,1.724-34.474.754C2245.17,2801.772,2235.151,2798.971,2227.394,2793.369Zm64.962-22.408c3.447-1.939,7.326-5.171,11.635-3.124a45.861,45.861,0,0,0,13.143,4.2c5.925.754,9.8.431,13.79-2.586a25.644,25.644,0,0,0,4.525-4.525c1.616-2.155,1.616-3.016,3.77-4.417,1.832,2.155,5.171,10.773,4.31,14.005,0,0-6.464,11.527-6.787,11.958-3.124,5.279-3.016,8.188-9.05,9.588-4.74,1.077-10.773,2.908-15.406,2.478-3.663-4.955-6.679-9.157-10.019-13.79C2299.144,2780.441,2294.511,2775.162,2292.356,2770.961Zm-50.418,42.877c11.851,2.262,29.734,4.956,41.477-.754,14.22-6.787,12.5-1.509,15.19.754,3.448,2.909,17.668,1.724,22.624,1.616a71.8,71.8,0,0,0,19.823-3.771c9.373-3.124,9.588-4.094,8.726-15.406-.862-10.881-4.632-31.888-9.8-38.137-10.235.107-4.956,17.883-33.612,7.433-9.48-3.555-2.155-7.218-9.05-13.574-4.094.323-10.127,6.572-11.743,9.157,1.832,3.448,3.125,2.478,4.309,6.141l-5.925-5.494-4.417,2.8,3.771,5.925c-2.155-.646-3.34-2.8-4.74-4.633l-5.494,2.586,2.37,5.817c-2.8-.862-1.185-1.724-4.309-4.309l-5.6,2.909,1.939,4.632c-3.016-1.508-.969-1.508-3.878-3.555l-5.925,2.37.969,4.525c-1.832-.646-1.724-1.832-3.232-3.447-8.08,1.616-6.141,2.262-6.249,3.555l-.107.97c-.323,2.478.754,0-.323,1.508l-1.4-3.555c-3.448,0-7,.754-10.666.862-3.986,0-8.08-.754-11.958-.431-7,.539-12.6,5.71-10.019,13.251,1.616,4.525,7.972,10.126,11.419,12.6C2231.38,2809.744,2235.582,2810.93,2241.938,2813.838Z" transform="translate(-2214.04 -2752)"/><path class="v" d="M2941,2841.45c2.155,4.2,6.787,9.48,9.911,13.79,3.34,4.632,6.356,8.834,10.019,13.79,4.632.431,10.666-1.4,15.406-2.478,6.033-1.4,5.926-4.309,9.05-9.588.323-.431,6.787-11.958,6.787-11.958.862-3.232-2.478-11.85-4.31-14-2.155,1.4-2.155,2.262-3.77,4.417a25.654,25.654,0,0,1-4.525,4.525c-3.986,3.016-7.865,3.34-13.79,2.585a45.842,45.842,0,0,1-13.143-4.2C2948.326,2836.279,2944.447,2839.511,2941,2841.45Z" transform="translate(-2862.683 -2822.489)"/><path class="v" d="M2338,3017.328c7.757,5.6,17.776,8.4,27.687,9.265,11.528.969,23.055-.323,34.474-.754-.323-1.616-14.651-20.146-16.914-22.839-6.895.646-15.621,6.248-24.67,6.679-6.787.216-6.679-3.016-12.5.431A24.978,24.978,0,0,0,2338,3017.328Z" transform="translate(-2324.645 -2975.959)"/></g><g transform="translate(0 64.493)"><path class="w" d="M2227.394,2770.483a23.977,23.977,0,0,0,8.08,5.77c5.817,2.756,5.71.172,12.5.344,9.05.345,17.776,4.823,24.671,5.339,2.262-2.153,16.591-16.964,16.914-18.256-11.42-.345-22.947-1.378-34.474-.6C2245.17,2763.767,2235.151,2766.006,2227.394,2770.483Zm64.962,17.911c3.447,1.55,7.326,4.134,11.635,2.5a54.4,54.4,0,0,1,13.143-3.358c5.925-.6,9.8-.344,13.79,2.067a23.806,23.806,0,0,1,4.525,3.617c1.616,1.722,1.616,2.411,3.77,3.531,1.832-1.722,5.171-8.611,4.31-11.195,0,0-6.464-9.214-6.787-9.559-3.124-4.219-3.016-6.544-9.05-7.664-4.74-.861-10.773-2.325-15.406-1.981-3.663,3.961-6.679,7.32-10.019,11.022C2299.144,2780.817,2294.511,2785.037,2292.356,2788.395Zm-50.418-34.273c11.851-1.808,29.734-3.961,41.477.6,14.22,5.426,12.5,1.206,15.19-.6,3.448-2.325,17.668-1.378,22.624-1.292a87.963,87.963,0,0,1,19.823,3.014c9.373,2.5,9.588,3.272,8.726,12.314-.862,8.7-4.632,25.489-9.8,30.484-10.235-.086-4.956-14.294-33.612-5.942-9.48,2.842-2.155,5.77-9.05,10.85-4.094-.258-10.127-5.253-11.743-7.32,1.832-2.756,3.125-1.981,4.309-4.909l-5.925,4.392-4.417-2.239,3.771-4.736c-2.155.517-3.34,2.239-4.74,3.7l-5.494-2.067,2.37-4.65c-2.8.689-1.185,1.378-4.309,3.444l-5.6-2.325,1.939-3.7c-3.016,1.206-.969,1.206-3.878,2.842l-5.925-1.895.969-3.617c-1.832.516-1.724,1.464-3.232,2.755-8.08-1.291-6.141-1.808-6.249-2.842l-.107-.775c-.323-1.98.754,0-.323-1.205l-1.4,2.841c-3.448,0-7-.6-10.666-.688-3.986,0-8.08.6-11.958.344-7-.43-12.6-4.564-10.019-10.592,1.616-3.617,7.972-8.094,11.419-10.075C2231.38,2757.394,2235.582,2756.447,2241.938,2754.122Z" transform="translate(-2214.04 -2752)"/><path class="w" d="M2941,2858.644c2.155-4.2,6.787-9.48,9.911-13.79,3.34-4.633,6.356-8.834,10.019-13.79,4.632-.431,10.666,1.4,15.406,2.478,6.033,1.4,5.926,4.309,9.05,9.588.323.431,6.787,11.958,6.787,11.958.862,3.232-2.478,11.85-4.31,14.005-2.155-1.4-2.155-2.262-3.77-4.417a25.663,25.663,0,0,0-4.525-4.525c-3.986-3.016-7.865-3.34-13.79-2.585a45.849,45.849,0,0,0-13.143,4.2C2948.326,2863.816,2944.447,2860.583,2941,2858.644Z" transform="translate(-2862.683 -2826.054)"/><path class="w" d="M2338,3012.617c7.757-5.6,17.776-8.4,27.687-9.265,11.528-.97,23.055.323,34.474.754-.323,1.616-14.651,20.146-16.914,22.839-6.895-.646-15.621-6.248-24.67-6.679-6.787-.216-6.679,3.016-12.5-.431A24.976,24.976,0,0,1,2338,3012.617Z" transform="translate(-2324.645 -2993.804)"/></g></g><g transform="translate(1243.248 908.228)"><g transform="translate(0 0)"><path class="x" d="M6122.6,3074.069l.323,10.989-5.387.108Zm-13.575-6.787,5.818-.215-.431,18.1-5.387-.108Zm-23.162,16.268c.97,7.326,17.884,4.633,24.994,4.633h59.9c5.5.108,9.05,0,9.481-5.387,2.37-24.455-3.771-19.392-25.209-19.392h-59.9c-5.279,0-8.727-.215-9.374,5.279A136.7,136.7,0,0,0,6085.862,3083.55Z" transform="translate(-6063.561 -3056.603)"/><path class="y" d="M5901.9,3006.472c4.417-1.724,59.36-.646,69.056-.646,35.552,0,32.32-3.34,32.32,20.469,0,5.495.646,11.42-4.2,13.359-3.556,1.4-60.438.539-69.272.539-35.768,0-32,3.447-32.1-20.577C5897.7,3013.366,5896.837,3008.518,5901.9,3006.472Zm-20.9,1.616v30.058c7,.539,9.265,1.4,15.19,3.232,6.895,2.155,78.752.97,91.249.97,20.361,0,12.82-.431,32.427-4.417.755-6.249.216-14.76.216-21.331,0-12.712.216-7-11.526-10.665-10.559-3.34-30.7-1.616-42.771-1.616-14.651,0-53.112-.754-65.932,0C5893.713,3004.64,5888.541,3007.441,5881,3008.087Z" transform="translate(-5881 -3003.872)"/><path class="z" d="M6039.1,3049.519c-1.292-4.094-.754-14.113-.754-19.5-.108-9.373,2.585-7.973,11.2-7.973h77.89c9.05,0,10.773-1.077,10.773,8.727-.108,5.6.539,14.329-.862,18.961-2.693,1.077-2.478,1.185-6.249,1.077h-81.553C6045.128,3050.812,6042.436,3051.351,6039.1,3049.519Zm.539-29.626c-5.063,2.046-4.2,6.894-4.2,13.143.108,24.024-3.663,20.577,32.1,20.577,8.834,0,65.717.861,69.273-.539,4.848-1.939,4.2-7.865,4.2-13.359,0-23.809,3.231-20.469-32.32-20.469C6098.995,3019.246,6044.052,3018.169,6039.635,3019.893Z" transform="translate(-6018.734 -3017.293)"/><path class="y" d="M6064.772,3069.579a136.712,136.712,0,0,1-.108-14.867c.646-5.494,4.094-5.279,9.373-5.279h59.9c21.438,0,27.579-5.063,25.208,19.392-.431,5.386-3.985,5.494-9.48,5.386h-59.9C6082.656,3074.211,6065.742,3076.9,6064.772,3069.579Zm-1.939,5.279c3.34,1.832,6.033,1.292,10.45,1.292h81.553c3.771.108,3.555,0,6.249-1.077,1.4-4.632.754-13.358.862-18.961,0-9.8-1.724-8.726-10.773-8.726h-77.891c-8.619,0-11.312-1.4-11.2,7.972C6062.079,3060.745,6061.541,3070.764,6062.833,3074.857Z" transform="translate(-6042.472 -3042.632)"/><path class="a" d="M6303,3118.991l5.387.108.432-18.1-5.818.216Z" transform="translate(-6257.537 -3090.536)"/><path class="a" d="M6303,3113.354l5.387.074.432-12.428-5.818.148Z" transform="translate(-6266.284 -3084.865)"/><path class="a" d="M6378.442,3177.1l5.387-.108-.322-10.989-5.064.41Z" transform="translate(-6324.469 -3148.534)"/><path class="a" d="M6378.442,3177.1l5.387-.108-.322-10.989h-5.064Z" transform="translate(-6316.693 -3148.534)"/><text class="aa" transform="translate(80.38 18.49)"><tspan x="0" y="0">7513</tspan></text><text class="ab" transform="translate(89.127 26.124)"><tspan x="0" y="0">steps</tspan></text></g><g transform="translate(0 38.799)"><path class="ac" d="M6122.6,3074.274l.323-8.51-5.387-.083Zm-13.575,5.256,5.818.167-.431-14.017-5.387.083Zm-23.162-12.6c.97-5.674,17.884-3.588,24.994-3.588h59.9c5.5-.083,9.05,0,9.481,4.172,2.37,18.94-3.771,15.018-25.209,15.018h-59.9c-5.279,0-8.727.167-9.374-4.088A82.045,82.045,0,0,1,6085.862,3066.931Z" transform="translate(-6063.561 -3056.233)"/><path class="ac" d="M5901.9,3034.664c4.417,1.466,59.36.55,69.056.55,35.552,0,32.32,2.841,32.32-17.412,0-4.674.646-9.714-4.2-11.363-3.556-1.192-60.438-.458-69.272-.458-35.768,0-32-2.932-32.1,17.5C5897.7,3028.8,5896.837,3032.923,5901.9,3034.664Zm-20.9-1.374v-25.568c7-.458,9.265-1.191,15.19-2.749,6.895-1.833,78.752-.825,91.249-.825,20.361,0,12.82.367,32.427,3.757.755,5.315.216,12.555.216,18.145,0,10.814.216,5.957-11.526,9.073-10.559,2.841-30.7,1.375-42.771,1.375-14.651,0-53.112.641-65.932,0C5893.713,3036.222,5888.541,3033.84,5881,3033.29Z" transform="translate(-5881 -3003.872)"/><path class="ac" d="M6039.1,3022.547c-1.292,3.415-.754,11.773-.754,16.267-.108,7.819,2.585,6.651,11.2,6.651h77.89c9.05,0,10.773.9,10.773-7.28-.108-4.673.539-11.953-.862-15.818-2.693-.9-2.478-.989-6.249-.9h-81.553C6045.128,3021.469,6042.436,3021.02,6039.1,3022.547Zm.539,24.715c-5.063-1.708-4.2-5.752-4.2-10.965.108-20.042-3.663-17.166,32.1-17.166,8.834,0,65.717-.719,69.273.45,4.848,1.617,4.2,6.561,4.2,11.144,0,19.862,3.231,17.076-32.32,17.076C6098.995,3047.8,6044.052,3048.7,6039.635,3047.263Z" transform="translate(-6018.734 -3016.696)"/><path class="ac" d="M6064.772,3052.625a87.436,87.436,0,0,0-.108,11.887c.646,4.393,4.094,4.221,9.373,4.221h59.9c21.438,0,27.579,4.048,25.208-15.5-.431-4.307-3.985-4.393-9.48-4.307h-59.9C6082.656,3048.922,6065.742,3046.768,6064.772,3052.625Zm-1.939-4.221c3.34-1.465,6.033-1.034,10.45-1.034h81.553c3.771-.086,3.555,0,6.249.861,1.4,3.7.754,10.681.862,15.16,0,7.839-1.724,6.977-10.773,6.977h-77.891c-8.619,0-11.312,1.12-11.2-6.374C6062.079,3059.689,6061.541,3051.678,6062.833,3048.4Z" transform="translate(-6042.472 -3042.105)"/><path class="ac" d="M6303,3101.108l5.387-.108.432,18.1-5.818-.215Z" transform="translate(-6257.537 -3093.629)"/><path class="ac" d="M6303,3101.073l5.387-.073.432,12.428-5.818-.148Z" transform="translate(-6266.284 -3093.013)"/><path class="ac" d="M6378.442,3166l5.387.107-.322,10.989-5.064-.41Z" transform="translate(-6324.469 -3157.906)"/><path class="ac" d="M6378.442,3166l5.387.107-.322,10.989h-5.064Z" transform="translate(-6316.693 -3157.906)"/></g></g><g transform="translate(631.757 842.141)"><g transform="translate(0)"><path class="ad" d="M2773,572.134c11.958-.216,54.728,1.616,62.808-.431v-76.49c-4.632-1.185-52.788-.108-62.7-.539Z" transform="translate(-2771.093 -465.372)"/><path class="ae" d="M2757.313,252.3c9.911.431,58.067-.646,62.7.539v76.49c-8.08,2.047-50.85.215-62.808.431Zm10.988,106.87h3.448V342.259c.108-3.771.215-3.663-.754-5.171-1.724.215-1.185.323-3.232,1.831,0,0-.216.215-.323.215-2.047-6.895,6.141-4.632,21.439-4.632,13.467,0,23.055-2.155,20.9,4.74-3.017-.97.754-1.831-3.663-2.155-1.077,2.155-.754,13.682-.646,18.1,0,3.986-.754,3.663,2.155,4.309,2.8-4.094-.646-12.5,1.508-17.129l4.417-.215c9.7-9.911,8.3-11.743,8.3-21.546V257.8c.108-8.188.323-6.679-3.555-12.174-3.124-4.2-2.586-5.387-9.588-6.033V226.232c-.646-5.387.862-1.939-1.832-3.232-1.185.754-1.508.323-1.616,4.848l.108,14.975c.646,3.447-.754,1.185,1.508,2.478,2.155-.97.97-1.616,2.8-2.262l.215,3.878c-4.848.97-38.137,1.077-42.339,0l-.323-3.878c1.077.108,1.616,1.831,3.771,2.155l.754-20.254c-.754-2.155.431-.862-1.508-1.939-2.155,1.185-1.185-1.508-1.616,3.232l-.107,13.466c-6.788.323-6.464,1.831-9.588,6.033-4.094,5.6-3.555,3.986-3.555,12.82v64.316c0,8.619-.862,7.649,3.232,13.143,3.34,4.417,2.909,5.925,9.8,6.464Z" transform="translate(-2755.298 -223)"/><path class="ae" d="M2920,245.085l30.919.108.216-22.085L2920,223Z" transform="translate(-2902.256 -223)"/><path class="ae" d="M2921.215,1303.977l30.812.215V1282H2921Z" transform="translate(-2903.148 -1167.912)"/><path class="af" d="M28.425,20.123a7.5,7.5,0,0,0-2.464.421L23.508,14.9h3.467a.87.87,0,0,1,0,1.741H25.524V17.8h1.451a2.031,2.031,0,1,0,0-4.061H22.623a.58.58,0,0,0-.532.812l1.16,2.669h-9.72L12.851,15.1l1.952-.651a1.254,1.254,0,0,0-.4-2.444H10.1a1.4,1.4,0,0,0-.99,2.391l.33.33a2.553,2.553,0,0,0,2.3.714l.623,1.947a.567.567,0,0,0-.116.149l-1.7,3.22a7.543,7.543,0,1,0,4.1,9.425A2.313,2.313,0,0,0,16.7,31.715l.436,1.307a.58.58,0,0,0,.537.4l2.031.048.027-1.16-1.625-.038-.265-.793a2.292,2.292,0,0,0,.754-3.539l5.811-8.046.486,1.116a7.535,7.535,0,1,0,3.529-.884Zm-16.7-5.876a1.446,1.446,0,0,1-1.468-.348l-.33-.33a.24.24,0,0,1,.17-.408h4.307a.094.094,0,0,1,.03.183Zm-4.189,19.8A6.382,6.382,0,1,1,10,21.778L7.025,27.394a.58.58,0,0,0,.406.841l6.242,1.171A6.389,6.389,0,0,1,7.538,34.048Zm6.352-5.78-5.47-1.027,2.6-4.913a6.382,6.382,0,0,1,2.9,5.338c0,.2-.012.406-.031.6Zm1.179-.366c0-.079.012-.157.012-.236A7.537,7.537,0,0,0,11.565,21.3l1.279-2.417,2.742,8.567a2.313,2.313,0,0,0-.518.453Zm2.409,2.46-.4-1.188-1.1.367.294.882a1.156,1.156,0,1,1,1.2-.062Zm.189-3.112a2.3,2.3,0,0,0-.845-.165c-.044,0-.085.01-.129.013L13.9,18.382h9.854l.116.269Zm10.759,6.8A6.382,6.382,0,0,1,25.36,22.07L27.893,27.9l1.064-.464-2.533-5.825a6.382,6.382,0,1,1,2,12.44Z" transform="translate(14.782 45.34)"/></g><g transform="translate(0 136.497)"><path class="ag" d="M2820.013,260.546c-8.08-2.548-50.85-.268-62.808-.536C2757.205,260.01,2815.38,357.227,2820.013,260.546ZM2768.3,223.4h3.448v21.053c.108,4.693.215,4.559-.754,6.436-1.724-.268-1.185-.4-3.232-2.28,0,0-.216-.268-.323-.268-2.047,8.582,6.141,5.766,21.439,5.766,13.467,0,23.055,2.682,20.9-5.9-3.017,1.207.754,2.28-3.663,2.682-1.077-2.682-.754-17.03-.646-22.528,0-4.961-.754-4.559,2.155-5.364,2.8,5.1-.646,15.555,1.508,21.321l4.417.268c9.7,12.337,8.3,14.616,8.3,26.819.108,88.367-66.471,88.233-66.471-2.816,0-10.727-.862-9.521,3.232-16.359,3.34-5.5,2.909-7.375,9.8-8.046Z" transform="translate(-2755.298 -223)"/><path class="ah" d="M2921.215,1282.215l30.812-.215v22.193H2921Z" transform="translate(-2903.148 -1281.785)"/><path class="ai" d="M28.425,27.085a7.5,7.5,0,0,1-2.464-.421l-2.454,5.643h3.467a.87.87,0,1,0,0-1.741H25.524v-1.16h1.451a2.031,2.031,0,1,1,0,4.061H22.623a.58.58,0,0,1-.532-.812l1.16-2.669h-9.72l-.681,2.126,1.952.651a1.254,1.254,0,0,1-.4,2.444H10.1a1.4,1.4,0,0,1-.99-2.391l.33-.33a2.553,2.553,0,0,1,2.3-.714l.623-1.947a.567.567,0,0,1-.116-.149l-1.7-3.22a7.543,7.543,0,1,1,4.1-9.425A2.313,2.313,0,0,1,16.7,15.493l.436-1.307a.58.58,0,0,1,.537-.4l2.031-.048.027,1.16-1.625.038-.265.793a2.292,2.292,0,0,1,.754,3.539l5.811,8.046L24.9,26.2a7.535,7.535,0,1,1,3.529.884Zm-16.7,5.876a1.446,1.446,0,0,0-1.468.348l-.33.33a.24.24,0,0,0,.17.408h4.307a.094.094,0,0,0,.03-.183ZM7.538,13.16A6.382,6.382,0,1,0,10,25.431L7.025,19.814a.58.58,0,0,1,.406-.841L13.673,17.8A6.389,6.389,0,0,0,7.538,13.16Zm6.352,5.78-5.47,1.027,2.6,4.913a6.382,6.382,0,0,0,2.9-5.338C13.92,19.34,13.908,19.136,13.889,18.94Zm1.179.366c0,.079.012.157.012.236a7.537,7.537,0,0,1-3.515,6.367l1.279,2.417,2.742-8.567a2.313,2.313,0,0,1-.518-.453Zm2.409-2.46-.4,1.188-1.1-.367.294-.882a1.156,1.156,0,1,0,1.2.062Zm.189,3.112a2.3,2.3,0,0,1-.845.165c-.044,0-.085-.01-.129-.013L13.9,28.826h9.854l.116-.269Zm10.759-6.8A6.382,6.382,0,0,0,25.36,25.138l2.533-5.828,1.064.464L26.424,25.6a6.382,6.382,0,1,0,2-12.44Z" transform="translate(14.782 60.443)"/></g></g><g transform="translate(1017.777 642.775)"><g transform="translate(0)"><path class="a" d="M4118.3,2858.173c-1.4-1.939-1.616-51.173-.107-53.65,1.4-1.724,6.787-1.4,8.08-.754,2.37,1.185,1.615,5.063,1.615,8.188v38.137c0,2.585.862,7.11-1.185,8.618C4125.738,2859.466,4120.89,2860.543,4118.3,2858.173Zm-70.887-54.3c13.9-3.878,9.588,6.141,9.588,27.472,0,5.925,1.616,23.27-.862,27.041a10.738,10.738,0,0,1-7.541.862c-2.586-.862-2.047-2.586-2.047-6.141C4046.662,2843.306,4045.585,2808.077,4047.417,2803.876Zm82.739,5.171c8.08-2.478,9.8-.215,10.018,4.309.108,1.831-.107,4.2-.107,6.033,0,6.9,1.077,31.673-.646,33.936-2.263,1.832-7.11,1.077-9.157.323C4128.97,2850.309,4128.97,2812.818,4130.155,2809.047Zm-95.235-.215,9.373-.215c1.185,4.2,1.4,41.584-.108,44.493-1.077,1.293-8.942,3.232-9.8-1.508C4033.95,2849.016,4034.166,2811.417,4034.92,2808.832Zm107.409,6.356c12.5-3.124,10.127,1.616,10.02,10.989,0,18.207,2.8,21.762-4.956,21.977-7.434.323-5.494-2.8-5.494-11.528C4141.9,2831.132,4141.359,2819.928,4142.329,2815.188Zm-113.873,32.858-5.925-.323c-.862-3.771-.862-28.765,0-32.643,12.712-1.616,10.019-1.185,10.019,16.268C4032.55,2845.137,4034.382,2848.046,4028.456,2848.046Zm15.621-41.153c-14.005-1.4-10.344,2.271-11.929,5.822-3.555-.216-10.411-.237-11.341,1.288s-.754,9.157-.754,9.157c-5.279,2.262-5.063-.431-5.063,9.7,0,6.356.754,4.632,5.171,6.787.647,9.049-2.262,10.665,11.2,10.126,2.909,3.124-1.832,7.11,12.712,6.033,1.185,2.155,1.078,5.063,5.279,5.818,13.359,2.478,8.726-10.019,9.48-22.193l56.031-.344s-.632,16.583,1.605,20.167,12.82,4.2,13.251-3.555c14.543,1.4,10.665-2.155,13.143-5.925,4.417.216,9.772.5,10.881-1.4s.538-8.726.538-8.726c5.171-2.586,5.279.323,5.279-8.3,0-8.3.108-5.818-5.279-8.188,0,0,.715-6.311-.323-8.834s-5.6-1.724-11.1-1.4c0,0-.14-3.669-2.047-5.387s-6.356-.969-10.665-.754c-1.293-2.693-1.293-4.633-4.525-5.171a10.13,10.13,0,0,0-9.157,1.077c-3.234,2.581-2.131,16.13-1.965,20.81l-55.672.091c-.539-13.036,2.478-21.762-5.71-22.193-4.309-.216-6.248-.108-7.864,2.693Z" transform="translate(-4014.988 -2801.021)"/></g><g transform="translate(0 60.916)"><path class="t" d="M4118.3,2804.308c-1.4,1.693-1.616,44.678-.107,46.841,1.4,1.505,6.787,1.223,8.08.658,2.37-1.034,1.615-4.421,1.615-7.148v-33.3c0-2.257.862-6.208-1.185-7.525C4125.738,2803.179,4120.89,2802.239,4118.3,2804.308Zm-70.887,47.405c13.9,3.386,9.588-5.361,9.588-23.985,0-5.173,1.616-20.317-.862-23.609a12.138,12.138,0,0,0-7.541-.752c-2.586.752-2.047,2.258-2.047,5.361C4046.662,2817.288,4045.585,2848.046,4047.417,2851.714Zm82.739-4.515c8.08,2.163,9.8.188,10.018-3.762.108-1.6-.107-3.668-.107-5.267,0-6.02,1.077-27.654-.646-29.628-2.263-1.6-7.11-.94-9.157-.282C4128.97,2811.174,4128.97,2843.906,4130.155,2847.2Zm-95.235.188,9.373.188c1.185-3.669,1.4-36.307-.108-38.846-1.077-1.128-8.942-2.822-9.8,1.317C4033.95,2812.3,4034.166,2845.13,4034.92,2847.387Zm107.409-5.549c12.5,2.728,10.127-1.411,10.02-9.594,0-15.9,2.8-19-4.956-19.188-7.434-.282-5.494,2.446-5.494,10.064C4141.9,2827.917,4141.359,2837.7,4142.329,2841.837Zm-113.873-28.687-5.925.282c-.862,3.292-.862,25.114,0,28.5,12.712,1.411,10.019,1.035,10.019-14.2C4032.55,2815.689,4034.382,2813.15,4028.456,2813.15Zm15.621,35.93c-14.005,1.223-10.344-1.982-11.929-5.083-3.555.188-10.411.207-11.341-1.125s-.754-7.995-.754-7.995c-5.279-1.975-5.063.376-5.063-8.466,0-5.549.754-4.044,5.171-5.926.647-7.9-2.262-9.312,11.2-8.841,2.909-2.728-1.832-6.208,12.712-5.267,1.185-1.881,1.078-4.421,5.279-5.079,13.359-2.163,8.726,8.747,9.48,19.376l56.031.3s-.632-14.478,1.605-17.607,12.82-3.668,13.251,3.1c14.543-1.223,10.665,1.881,13.143,5.173,4.417-.188,9.772-.438,10.881,1.222s.538,7.619.538,7.619c5.171,2.258,5.279-.282,5.279,7.243,0,7.243.108,5.079-5.279,7.149,0,0,.715,5.51-.323,7.713s-5.6,1.5-11.1,1.223c0,0-.14,3.2-2.047,4.7s-6.356.846-10.665.658c-1.293,2.352-1.293,4.044-4.525,4.515a11.319,11.319,0,0,1-9.157-.941c-3.234-2.253-2.131-14.083-1.965-18.168l-55.672-.079c-.539,11.381,2.478,19-5.71,19.376-4.309.188-6.248.094-7.864-2.351Z" transform="translate(-4014.988 -2801.021)"/></g></g><g transform="translate(801.052 635)"><g transform="translate(0 0)"><path class="aj" d="M2227.394,2793.369a24.979,24.979,0,0,1,8.08-7.218c5.817-3.448,5.71-.216,12.5-.431,9.05-.431,17.776-6.033,24.671-6.68,2.262,2.694,16.591,21.223,16.914,22.839-11.42.431-22.947,1.724-34.474.754C2245.17,2801.772,2235.151,2798.971,2227.394,2793.369Zm64.962-22.408c3.447-1.939,7.326-5.171,11.635-3.124a45.861,45.861,0,0,0,13.143,4.2c5.925.754,9.8.431,13.79-2.586a25.644,25.644,0,0,0,4.525-4.525c1.616-2.155,1.616-3.016,3.77-4.417,1.832,2.155,5.171,10.773,4.31,14.005,0,0-6.464,11.527-6.787,11.958-3.124,5.279-3.016,8.188-9.05,9.588-4.74,1.077-10.773,2.908-15.406,2.478-3.663-4.955-6.679-9.157-10.019-13.79C2299.144,2780.441,2294.511,2775.162,2292.356,2770.961Zm-50.418,42.877c11.851,2.262,29.734,4.956,41.477-.754,14.22-6.787,12.5-1.509,15.19.754,3.448,2.909,17.668,1.724,22.624,1.616a71.8,71.8,0,0,0,19.823-3.771c9.373-3.124,9.588-4.094,8.726-15.406-.862-10.881-4.632-31.888-9.8-38.137-10.235.107-4.956,17.883-33.612,7.433-9.48-3.555-2.155-7.218-9.05-13.574-4.094.323-10.127,6.572-11.743,9.157,1.832,3.448,3.125,2.478,4.309,6.141l-5.925-5.494-4.417,2.8,3.771,5.925c-2.155-.646-3.34-2.8-4.74-4.633l-5.494,2.586,2.37,5.817c-2.8-.862-1.185-1.724-4.309-4.309l-5.6,2.909,1.939,4.632c-3.016-1.508-.969-1.508-3.878-3.555l-5.925,2.37.969,4.525c-1.832-.646-1.724-1.832-3.232-3.447-8.08,1.616-6.141,2.262-6.249,3.555l-.107.97c-.323,2.478.754,0-.323,1.508l-1.4-3.555c-3.448,0-7,.754-10.666.862-3.986,0-8.08-.754-11.958-.431-7,.539-12.6,5.71-10.019,13.251,1.616,4.525,7.972,10.126,11.419,12.6C2231.38,2809.744,2235.582,2810.93,2241.938,2813.838Z" transform="translate(-2214.04 -2752)"/><path class="v" d="M2941,2841.45c2.155,4.2,6.787,9.48,9.911,13.79,3.34,4.632,6.356,8.834,10.019,13.79,4.632.431,10.666-1.4,15.406-2.478,6.033-1.4,5.926-4.309,9.05-9.588.323-.431,6.787-11.958,6.787-11.958.862-3.232-2.478-11.85-4.31-14-2.155,1.4-2.155,2.262-3.77,4.417a25.654,25.654,0,0,1-4.525,4.525c-3.986,3.016-7.865,3.34-13.79,2.585a45.842,45.842,0,0,1-13.143-4.2C2948.326,2836.279,2944.447,2839.511,2941,2841.45Z" transform="translate(-2862.683 -2822.489)"/><path class="v" d="M2338,3017.328c7.757,5.6,17.776,8.4,27.687,9.265,11.528.969,23.055-.323,34.474-.754-.323-1.616-14.651-20.146-16.914-22.839-6.895.646-15.621,6.248-24.67,6.679-6.787.216-6.679-3.016-12.5.431A24.978,24.978,0,0,0,2338,3017.328Z" transform="translate(-2324.645 -2975.959)"/></g><g transform="translate(0 64.493)"><path class="w" d="M2227.394,2770.483a23.977,23.977,0,0,0,8.08,5.77c5.817,2.756,5.71.172,12.5.344,9.05.345,17.776,4.823,24.671,5.339,2.262-2.153,16.591-16.964,16.914-18.256-11.42-.345-22.947-1.378-34.474-.6C2245.17,2763.767,2235.151,2766.006,2227.394,2770.483Zm64.962,17.911c3.447,1.55,7.326,4.134,11.635,2.5a54.4,54.4,0,0,1,13.143-3.358c5.925-.6,9.8-.344,13.79,2.067a23.806,23.806,0,0,1,4.525,3.617c1.616,1.722,1.616,2.411,3.77,3.531,1.832-1.722,5.171-8.611,4.31-11.195,0,0-6.464-9.214-6.787-9.559-3.124-4.219-3.016-6.544-9.05-7.664-4.74-.861-10.773-2.325-15.406-1.981-3.663,3.961-6.679,7.32-10.019,11.022C2299.144,2780.817,2294.511,2785.037,2292.356,2788.395Zm-50.418-34.273c11.851-1.808,29.734-3.961,41.477.6,14.22,5.426,12.5,1.206,15.19-.6,3.448-2.325,17.668-1.378,22.624-1.292a87.963,87.963,0,0,1,19.823,3.014c9.373,2.5,9.588,3.272,8.726,12.314-.862,8.7-4.632,25.489-9.8,30.484-10.235-.086-4.956-14.294-33.612-5.942-9.48,2.842-2.155,5.77-9.05,10.85-4.094-.258-10.127-5.253-11.743-7.32,1.832-2.756,3.125-1.981,4.309-4.909l-5.925,4.392-4.417-2.239,3.771-4.736c-2.155.517-3.34,2.239-4.74,3.7l-5.494-2.067,2.37-4.65c-2.8.689-1.185,1.378-4.309,3.444l-5.6-2.325,1.939-3.7c-3.016,1.206-.969,1.206-3.878,2.842l-5.925-1.895.969-3.617c-1.832.516-1.724,1.464-3.232,2.755-8.08-1.291-6.141-1.808-6.249-2.842l-.107-.775c-.323-1.98.754,0-.323-1.205l-1.4,2.841c-3.448,0-7-.6-10.666-.688-3.986,0-8.08.6-11.958.344-7-.43-12.6-4.564-10.019-10.592,1.616-3.617,7.972-8.094,11.419-10.075C2231.38,2757.394,2235.582,2756.447,2241.938,2754.122Z" transform="translate(-2214.04 -2752)"/><path class="w" d="M2941,2858.644c2.155-4.2,6.787-9.48,9.911-13.79,3.34-4.633,6.356-8.834,10.019-13.79,4.632-.431,10.666,1.4,15.406,2.478,6.033,1.4,5.926,4.309,9.05,9.588.323.431,6.787,11.958,6.787,11.958.862,3.232-2.478,11.85-4.31,14.005-2.155-1.4-2.155-2.262-3.77-4.417a25.663,25.663,0,0,0-4.525-4.525c-3.986-3.016-7.865-3.34-13.79-2.585a45.849,45.849,0,0,0-13.143,4.2C2948.326,2863.816,2944.447,2860.583,2941,2858.644Z" transform="translate(-2862.683 -2826.054)"/><path class="w" d="M2338,3012.617c7.757-5.6,17.776-8.4,27.687-9.265,11.528-.97,23.055.323,34.474.754-.323,1.616-14.651,20.146-16.914,22.839-6.895-.646-15.621-6.248-24.67-6.679-6.787-.216-6.679,3.016-12.5-.431A24.976,24.976,0,0,1,2338,3012.617Z" transform="translate(-2324.645 -2993.804)"/></g></g><g transform="translate(1243.248 657.353)"><g transform="translate(0 0)"><path class="x" d="M6122.6,3074.069l.323,10.989-5.387.108Zm-13.575-6.787,5.818-.215-.431,18.1-5.387-.108Zm-23.162,16.268c.97,7.326,17.884,4.633,24.994,4.633h59.9c5.5.108,9.05,0,9.481-5.387,2.37-24.455-3.771-19.392-25.209-19.392h-59.9c-5.279,0-8.727-.215-9.374,5.279A136.7,136.7,0,0,0,6085.862,3083.55Z" transform="translate(-6063.561 -3056.603)"/><path class="a" d="M5901.9,3006.472c4.417-1.724,59.36-.646,69.056-.646,35.552,0,32.32-3.34,32.32,20.469,0,5.495.646,11.42-4.2,13.359-3.556,1.4-60.438.539-69.272.539-35.768,0-32,3.447-32.1-20.577C5897.7,3013.366,5896.837,3008.518,5901.9,3006.472Zm-20.9,1.616v30.058c7,.539,9.265,1.4,15.19,3.232,6.895,2.155,78.752.97,91.249.97,20.361,0,12.82-.431,32.427-4.417.755-6.249.216-14.76.216-21.331,0-12.712.216-7-11.526-10.665-10.559-3.34-30.7-1.616-42.771-1.616-14.651,0-53.112-.754-65.932,0C5893.713,3004.64,5888.541,3007.441,5881,3008.087Z" transform="translate(-5881 -3003.872)"/><path class="z" d="M6039.1,3049.519c-1.292-4.094-.754-14.113-.754-19.5-.108-9.373,2.585-7.973,11.2-7.973h77.89c9.05,0,10.773-1.077,10.773,8.727-.108,5.6.539,14.329-.862,18.961-2.693,1.077-2.478,1.185-6.249,1.077h-81.553C6045.128,3050.812,6042.436,3051.351,6039.1,3049.519Zm.539-29.626c-5.063,2.046-4.2,6.894-4.2,13.143.108,24.024-3.663,20.577,32.1,20.577,8.834,0,65.717.861,69.273-.539,4.848-1.939,4.2-7.865,4.2-13.359,0-23.809,3.231-20.469-32.32-20.469C6098.995,3019.246,6044.052,3018.169,6039.635,3019.893Z" transform="translate(-6018.734 -3017.293)"/><path class="ak" d="M6064.772,3069.579a136.712,136.712,0,0,1-.108-14.867c.646-5.494,4.094-5.279,9.373-5.279h59.9c21.438,0,27.579-5.063,25.208,19.392-.431,5.386-3.985,5.494-9.48,5.386h-59.9C6082.656,3074.211,6065.742,3076.9,6064.772,3069.579Zm-1.939,5.279c3.34,1.832,6.033,1.292,10.45,1.292h81.553c3.771.108,3.555,0,6.249-1.077,1.4-4.632.754-13.358.862-18.961,0-9.8-1.724-8.726-10.773-8.726h-77.891c-8.619,0-11.312-1.4-11.2,7.972C6062.079,3060.745,6061.541,3070.764,6062.833,3074.857Z" transform="translate(-6042.472 -3042.632)"/><path class="a" d="M6303,3118.991l5.387.108.432-18.1-5.818.216Z" transform="translate(-6257.537 -3090.536)"/><path class="a" d="M6303,3113.354l5.387.074.432-12.428-5.818.148Z" transform="translate(-6266.284 -3084.865)"/><path class="a" d="M6378.442,3177.1l5.387-.108-.322-10.989-5.064.41Z" transform="translate(-6324.469 -3148.534)"/><path class="a" d="M6378.442,3177.1l5.387-.108-.322-10.989h-5.064Z" transform="translate(-6316.693 -3148.534)"/><text class="al" transform="translate(80.38 18.49)"><tspan x="0" y="0">7513</tspan></text><text class="am" transform="translate(89.127 26.124)"><tspan x="0" y="0">steps</tspan></text></g><g transform="translate(0 38.799)"><path class="ac" d="M6122.6,3074.274l.323-8.51-5.387-.083Zm-13.575,5.256,5.818.167-.431-14.017-5.387.083Zm-23.162-12.6c.97-5.674,17.884-3.588,24.994-3.588h59.9c5.5-.083,9.05,0,9.481,4.172,2.37,18.94-3.771,15.018-25.209,15.018h-59.9c-5.279,0-8.727.167-9.374-4.088A82.045,82.045,0,0,1,6085.862,3066.931Z" transform="translate(-6063.561 -3056.233)"/><path class="ac" d="M5901.9,3034.664c4.417,1.466,59.36.55,69.056.55,35.552,0,32.32,2.841,32.32-17.412,0-4.674.646-9.714-4.2-11.363-3.556-1.192-60.438-.458-69.272-.458-35.768,0-32-2.932-32.1,17.5C5897.7,3028.8,5896.837,3032.923,5901.9,3034.664Zm-20.9-1.374v-25.568c7-.458,9.265-1.191,15.19-2.749,6.895-1.833,78.752-.825,91.249-.825,20.361,0,12.82.367,32.427,3.757.755,5.315.216,12.555.216,18.145,0,10.814.216,5.957-11.526,9.073-10.559,2.841-30.7,1.375-42.771,1.375-14.651,0-53.112.641-65.932,0C5893.713,3036.222,5888.541,3033.84,5881,3033.29Z" transform="translate(-5881 -3003.872)"/><path class="ac" d="M6039.1,3022.547c-1.292,3.415-.754,11.773-.754,16.267-.108,7.819,2.585,6.651,11.2,6.651h77.89c9.05,0,10.773.9,10.773-7.28-.108-4.673.539-11.953-.862-15.818-2.693-.9-2.478-.989-6.249-.9h-81.553C6045.128,3021.469,6042.436,3021.02,6039.1,3022.547Zm.539,24.715c-5.063-1.708-4.2-5.752-4.2-10.965.108-20.042-3.663-17.166,32.1-17.166,8.834,0,65.717-.719,69.273.45,4.848,1.617,4.2,6.561,4.2,11.144,0,19.862,3.231,17.076-32.32,17.076C6098.995,3047.8,6044.052,3048.7,6039.635,3047.263Z" transform="translate(-6018.734 -3016.696)"/><path class="ac" d="M6064.772,3052.625a87.436,87.436,0,0,0-.108,11.887c.646,4.393,4.094,4.221,9.373,4.221h59.9c21.438,0,27.579,4.048,25.208-15.5-.431-4.307-3.985-4.393-9.48-4.307h-59.9C6082.656,3048.922,6065.742,3046.768,6064.772,3052.625Zm-1.939-4.221c3.34-1.465,6.033-1.034,10.45-1.034h81.553c3.771-.086,3.555,0,6.249.861,1.4,3.7.754,10.681.862,15.16,0,7.839-1.724,6.977-10.773,6.977h-77.891c-8.619,0-11.312,1.12-11.2-6.374C6062.079,3059.689,6061.541,3051.678,6062.833,3048.4Z" transform="translate(-6042.472 -3042.105)"/><path class="ac" d="M6303,3101.108l5.387-.108.432,18.1-5.818-.215Z" transform="translate(-6257.537 -3093.629)"/><path class="ac" d="M6303,3101.073l5.387-.073.432,12.428-5.818-.148Z" transform="translate(-6266.284 -3093.013)"/><path class="ac" d="M6378.442,3166l5.387.107-.322,10.989-5.064-.41Z" transform="translate(-6324.469 -3157.906)"/><path class="ac" d="M6378.442,3166l5.387.107-.322,10.989h-5.064Z" transform="translate(-6316.693 -3157.906)"/></g></g><g transform="translate(631.757 591.266)"><g transform="translate(0)"><path class="ad" d="M2773,572.134c11.958-.216,54.728,1.616,62.808-.431v-76.49c-4.632-1.185-52.788-.108-62.7-.539Z" transform="translate(-2771.093 -465.372)"/><path class="e" d="M2757.313,252.3c9.911.431,58.067-.646,62.7.539v76.49c-8.08,2.047-50.85.215-62.808.431Zm10.988,106.87h3.448V342.259c.108-3.771.215-3.663-.754-5.171-1.724.215-1.185.323-3.232,1.831,0,0-.216.215-.323.215-2.047-6.895,6.141-4.632,21.439-4.632,13.467,0,23.055-2.155,20.9,4.74-3.017-.97.754-1.831-3.663-2.155-1.077,2.155-.754,13.682-.646,18.1,0,3.986-.754,3.663,2.155,4.309,2.8-4.094-.646-12.5,1.508-17.129l4.417-.215c9.7-9.911,8.3-11.743,8.3-21.546V257.8c.108-8.188.323-6.679-3.555-12.174-3.124-4.2-2.586-5.387-9.588-6.033V226.232c-.646-5.387.862-1.939-1.832-3.232-1.185.754-1.508.323-1.616,4.848l.108,14.975c.646,3.447-.754,1.185,1.508,2.478,2.155-.97.97-1.616,2.8-2.262l.215,3.878c-4.848.97-38.137,1.077-42.339,0l-.323-3.878c1.077.108,1.616,1.831,3.771,2.155l.754-20.254c-.754-2.155.431-.862-1.508-1.939-2.155,1.185-1.185-1.508-1.616,3.232l-.107,13.466c-6.788.323-6.464,1.831-9.588,6.033-4.094,5.6-3.555,3.986-3.555,12.82v64.316c0,8.619-.862,7.649,3.232,13.143,3.34,4.417,2.909,5.925,9.8,6.464Z" transform="translate(-2755.298 -223)"/><path class="an" d="M2920,245.085l30.919.108.216-22.085L2920,223Z" transform="translate(-2902.256 -223)"/><path class="an" d="M2921.215,1303.977l30.812.215V1282H2921Z" transform="translate(-2903.148 -1167.912)"/><path d="M28.425,20.123a7.5,7.5,0,0,0-2.464.421L23.508,14.9h3.467a.87.87,0,0,1,0,1.741H25.524V17.8h1.451a2.031,2.031,0,1,0,0-4.061H22.623a.58.58,0,0,0-.532.812l1.16,2.669h-9.72L12.851,15.1l1.952-.651a1.254,1.254,0,0,0-.4-2.444H10.1a1.4,1.4,0,0,0-.99,2.391l.33.33a2.553,2.553,0,0,0,2.3.714l.623,1.947a.567.567,0,0,0-.116.149l-1.7,3.22a7.543,7.543,0,1,0,4.1,9.425A2.313,2.313,0,0,0,16.7,31.715l.436,1.307a.58.58,0,0,0,.537.4l2.031.048.027-1.16-1.625-.038-.265-.793a2.292,2.292,0,0,0,.754-3.539l5.811-8.046.486,1.116a7.535,7.535,0,1,0,3.529-.884Zm-16.7-5.876a1.446,1.446,0,0,1-1.468-.348l-.33-.33a.24.24,0,0,1,.17-.408h4.307a.094.094,0,0,1,.03.183Zm-4.189,19.8A6.382,6.382,0,1,1,10,21.778L7.025,27.394a.58.58,0,0,0,.406.841l6.242,1.171A6.389,6.389,0,0,1,7.538,34.048Zm6.352-5.78-5.47-1.027,2.6-4.913a6.382,6.382,0,0,1,2.9,5.338c0,.2-.012.406-.031.6Zm1.179-.366c0-.079.012-.157.012-.236A7.537,7.537,0,0,0,11.565,21.3l1.279-2.417,2.742,8.567a2.313,2.313,0,0,0-.518.453Zm2.409,2.46-.4-1.188-1.1.367.294.882a1.156,1.156,0,1,1,1.2-.062Zm.189-3.112a2.3,2.3,0,0,0-.845-.165c-.044,0-.085.01-.129.013L13.9,18.382h9.854l.116.269Zm10.759,6.8A6.382,6.382,0,0,1,25.36,22.07L27.893,27.9l1.064-.464-2.533-5.825a6.382,6.382,0,1,1,2,12.44Z" transform="translate(14.782 45.34)"/></g><g transform="translate(0 136.497)"><path class="ag" d="M2820.013,260.546c-8.08-2.548-50.85-.268-62.808-.536C2757.205,260.01,2815.38,357.227,2820.013,260.546ZM2768.3,223.4h3.448v21.053c.108,4.693.215,4.559-.754,6.436-1.724-.268-1.185-.4-3.232-2.28,0,0-.216-.268-.323-.268-2.047,8.582,6.141,5.766,21.439,5.766,13.467,0,23.055,2.682,20.9-5.9-3.017,1.207.754,2.28-3.663,2.682-1.077-2.682-.754-17.03-.646-22.528,0-4.961-.754-4.559,2.155-5.364,2.8,5.1-.646,15.555,1.508,21.321l4.417.268c9.7,12.337,8.3,14.616,8.3,26.819.108,88.367-66.471,88.233-66.471-2.816,0-10.727-.862-9.521,3.232-16.359,3.34-5.5,2.909-7.375,9.8-8.046Z" transform="translate(-2755.298 -223)"/><path class="ah" d="M2921.215,1282.215l30.812-.215v22.193H2921Z" transform="translate(-2903.148 -1281.785)"/><path class="ai" d="M28.425,27.085a7.5,7.5,0,0,1-2.464-.421l-2.454,5.643h3.467a.87.87,0,1,0,0-1.741H25.524v-1.16h1.451a2.031,2.031,0,1,1,0,4.061H22.623a.58.58,0,0,1-.532-.812l1.16-2.669h-9.72l-.681,2.126,1.952.651a1.254,1.254,0,0,1-.4,2.444H10.1a1.4,1.4,0,0,1-.99-2.391l.33-.33a2.553,2.553,0,0,1,2.3-.714l.623-1.947a.567.567,0,0,1-.116-.149l-1.7-3.22a7.543,7.543,0,1,1,4.1-9.425A2.313,2.313,0,0,1,16.7,15.493l.436-1.307a.58.58,0,0,1,.537-.4l2.031-.048.027,1.16-1.625.038-.265.793a2.292,2.292,0,0,1,.754,3.539l5.811,8.046L24.9,26.2a7.535,7.535,0,1,1,3.529.884Zm-16.7,5.876a1.446,1.446,0,0,0-1.468.348l-.33.33a.24.24,0,0,0,.17.408h4.307a.094.094,0,0,0,.03-.183ZM7.538,13.16A6.382,6.382,0,1,0,10,25.431L7.025,19.814a.58.58,0,0,1,.406-.841L13.673,17.8A6.389,6.389,0,0,0,7.538,13.16Zm6.352,5.78-5.47,1.027,2.6,4.913a6.382,6.382,0,0,0,2.9-5.338C13.92,19.34,13.908,19.136,13.889,18.94Zm1.179.366c0,.079.012.157.012.236a7.537,7.537,0,0,1-3.515,6.367l1.279,2.417,2.742-8.567a2.313,2.313,0,0,1-.518-.453Zm2.409-2.46-.4,1.188-1.1-.367.294-.882a1.156,1.156,0,1,0,1.2.062Zm.189,3.112a2.3,2.3,0,0,1-.845.165c-.044,0-.085-.01-.129-.013L13.9,28.826h9.854l.116-.269Zm10.759-6.8A6.382,6.382,0,0,0,25.36,25.138l2.533-5.828,1.064.464L26.424,25.6a6.382,6.382,0,1,0,2-12.44Z" transform="translate(14.782 60.443)"/></g></g></g></svg>