<svg xmlns="http://www.w3.org/2000/svg" width="31.114" height="38.309" viewBox="0 0 31.114 38.309"><g transform="translate(0.003 0.001)"><path d="M223.3,154.7a.9.9,0,0,0-.9.9v16.956a.9.9,0,0,0,1.794,0V155.6A.9.9,0,0,0,223.3,154.7Zm0,0" transform="translate(-202.449 -140.825)"/><path d="M105.3,154.7a.9.9,0,0,0-.9.9v16.956a.9.9,0,0,0,1.794,0V155.6A.9.9,0,0,0,105.3,154.7Zm0,0" transform="translate(-95.035 -140.825)"/><path d="M2.545,11.4v22.1a4.95,4.95,0,0,0,1.316,3.414,4.418,4.418,0,0,0,3.206,1.386H24.041a4.417,4.417,0,0,0,3.206-1.386,4.95,4.95,0,0,0,1.316-3.414V11.4a3.427,3.427,0,0,0-.879-6.74H23.09V3.543A3.524,3.524,0,0,0,19.537,0H11.57A3.524,3.524,0,0,0,8.017,3.543V4.664H3.424a3.427,3.427,0,0,0-.879,6.74Zm21.5,25.109H7.066a2.841,2.841,0,0,1-2.727-3.005V11.482H26.768V33.507A2.841,2.841,0,0,1,24.041,36.513ZM9.812,3.543A1.728,1.728,0,0,1,11.57,1.793h7.966A1.728,1.728,0,0,1,21.3,3.543V4.664H9.812ZM3.424,6.458H27.683a1.615,1.615,0,0,1,0,3.23H3.424a1.615,1.615,0,0,1,0-3.23Zm0,0" transform="translate(0 0)"/><path d="M164.3,154.7a.9.9,0,0,0-.9.9v16.956a.9.9,0,1,0,1.794,0V155.6A.9.9,0,0,0,164.3,154.7Zm0,0" transform="translate(-148.742 -140.825)"/></g></svg>