<svg xmlns="http://www.w3.org/2000/svg" width="48.243" height="48" viewBox="0 0 48.243 48"><g transform="translate(0 -0.261)"><path d="M44.526,64.619a1.2,1.2,0,0,0-1.2,1.2V76.489a3.608,3.608,0,0,1-3.6,3.6H6.007a3.608,3.608,0,0,1-3.6-3.6V45.179a3.609,3.609,0,0,1,3.6-3.6H16.675a1.2,1.2,0,1,0,0-2.4H6.007A6.014,6.014,0,0,0,0,45.179v31.31A6.014,6.014,0,0,0,6.007,82.5H39.72a6.014,6.014,0,0,0,6.007-6.007V65.821A1.2,1.2,0,0,0,44.526,64.619Zm0,0" transform="translate(0 -34.236)"/><path d="M140.442,1.844a5.407,5.407,0,0,0-7.646,0L111.361,23.28a1.2,1.2,0,0,0-.308.529l-2.819,10.177a1.2,1.2,0,0,0,1.478,1.479l10.176-2.819a1.2,1.2,0,0,0,.529-.308L141.852,10.9a5.413,5.413,0,0,0,0-7.646ZM113.979,24.061,131.522,6.517l5.658,5.658L119.636,29.718Zm-1.13,2.268,4.52,4.521-6.252,1.732ZM140.153,9.2l-1.274,1.274-5.658-5.658L134.5,3.543a3,3,0,0,1,4.247,0l1.41,1.41A3.008,3.008,0,0,1,140.153,9.2Zm0,0" transform="translate(-95.191)"/></g></svg>