<svg xmlns="http://www.w3.org/2000/svg" xmlns:xlink="http://www.w3.org/1999/xlink" width="1018.469" height="1004.402" viewBox="0 0 1018.469 1004.402"><defs><style>.a{fill:#fff;}.b{filter:url(#q);}.c{filter:url(#o);}.d{filter:url(#m);}.e{filter:url(#k);}.f{filter:url(#i);}.g{filter:url(#g);}.h{filter:url(#e);}.i{filter:url(#c);}.j{filter:url(#a);}</style><filter id="a" x="0" y="0" width="1018.469" height="1004.402" filterUnits="userSpaceOnUse"><feOffset dy="12" input="SourceAlpha"/><feGaussianBlur stdDeviation="12" result="b"/><feFlood flood-color="#4a4646" flood-opacity="0.161"/><feComposite operator="in" in2="b"/><feComposite in="SourceGraphic"/></filter><filter id="c" x="67" y="315" width="278" height="278" filterUnits="userSpaceOnUse"><feOffset dy="-10" input="SourceAlpha"/><feGaussianBlur stdDeviation="15" result="d"/><feFlood flood-opacity="0.161"/><feComposite operator="in" in2="d"/><feComposite in="SourceGraphic"/></filter><filter id="e" x="316" y="315" width="278" height="278" filterUnits="userSpaceOnUse"><feOffset dy="-10" input="SourceAlpha"/><feGaussianBlur stdDeviation="15" result="f"/><feFlood flood-opacity="0.161"/><feComposite operator="in" in2="f"/><feComposite in="SourceGraphic"/></filter><filter id="g" x="565" y="315" width="278" height="278" filterUnits="userSpaceOnUse"><feOffset dy="-10" input="SourceAlpha"/><feGaussianBlur stdDeviation="15" result="h"/><feFlood flood-opacity="0.161"/><feComposite operator="in" in2="h"/><feComposite in="SourceGraphic"/></filter><filter id="i" x="72" y="535" width="278" height="278" filterUnits="userSpaceOnUse"><feOffset dy="-10" input="SourceAlpha"/><feGaussianBlur stdDeviation="15" result="j"/><feFlood flood-opacity="0.161"/><feComposite operator="in" in2="j"/><feComposite in="SourceGraphic"/></filter><filter id="k" x="319" y="540" width="278" height="278" filterUnits="userSpaceOnUse"><feOffset dy="-10" input="SourceAlpha"/><feGaussianBlur stdDeviation="15" result="l"/><feFlood flood-opacity="0.161"/><feComposite operator="in" in2="l"/><feComposite in="SourceGraphic"/></filter><filter id="m" x="563" y="540" width="278" height="278" filterUnits="userSpaceOnUse"><feOffset dy="-10" input="SourceAlpha"/><feGaussianBlur stdDeviation="15" result="n"/><feFlood flood-opacity="0.161"/><feComposite operator="in" in2="n"/><feComposite in="SourceGraphic"/></filter><filter id="o" x="148" y="409" width="120.194" height="118.742" filterUnits="userSpaceOnUse"><feOffset dy="6" input="SourceAlpha"/><feGaussianBlur stdDeviation="6" result="p"/><feFlood flood-opacity="0.2"/><feComposite operator="in" in2="p"/><feComposite in="SourceGraphic"/></filter><filter id="q" x="395" y="410" width="119.201" height="119.201" filterUnits="userSpaceOnUse"><feOffset dy="6" input="SourceAlpha"/><feGaussianBlur stdDeviation="6" result="r"/><feFlood flood-opacity="0.2"/><feComposite operator="in" in2="r"/><feComposite in="SourceGraphic"/></filter></defs><g transform="translate(-156 -2443)"><g class="j" transform="matrix(1, 0, 0, 1, 156, 2443)"><rect class="a" width="946.469" height="932.402" rx="50" transform="translate(36 24)"/></g><g class="i" transform="matrix(1, 0, 0, 1, 156, 2443)"><rect class="a" width="188" height="188" rx="20" transform="translate(112 370)"/></g><g class="h" transform="matrix(1, 0, 0, 1, 156, 2443)"><rect class="a" width="188" height="188" rx="20" transform="translate(361 370)"/></g><g class="g" transform="matrix(1, 0, 0, 1, 156, 2443)"><rect class="a" width="188" height="188" rx="20" transform="translate(610 370)"/></g><g class="f" transform="matrix(1, 0, 0, 1, 156, 2443)"><rect class="a" width="188" height="188" rx="20" transform="translate(117 590)"/></g><g class="e" transform="matrix(1, 0, 0, 1, 156, 2443)"><rect class="a" width="188" height="188" rx="20" transform="translate(364 595)"/></g><g class="d" transform="matrix(1, 0, 0, 1, 156, 2443)"><rect class="a" width="188" height="188" rx="20" transform="translate(608 595)"/></g><path d="M26.452,3.4a4.355,4.355,0,1,1,0,8.71,1.452,1.452,0,0,0,0,2.9A7.258,7.258,0,1,0,26.452.5a1.452,1.452,0,0,0,0,2.9Z" transform="translate(333.29 2863.5)"/><path d="M32.452,3.4a4.355,4.355,0,0,1,0,8.71,1.452,1.452,0,1,0,0,2.9A7.258,7.258,0,1,0,32.452.5a1.452,1.452,0,1,0,0,2.9Z" transform="translate(336 2863.5)"/><g class="c" transform="matrix(1, 0, 0, 1, 156, 2443)"><path d="M62.273,6.306A7.271,7.271,0,0,0,55.161.5a1.452,1.452,0,1,0,0,2.9,4.355,4.355,0,0,1,0,8.71,1.452,1.452,0,1,0,0,2.9A7.272,7.272,0,0,0,62.273,9.21H81.291v1.452a1.452,1.452,0,1,0,0,2.9v5.806a1.452,1.452,0,1,0,0,2.9v1.452H2.9V22.274a1.452,1.452,0,1,0,0-2.9V13.565a1.452,1.452,0,0,0,0-2.9V9.21H27.581a1.452,1.452,0,0,0,0-2.9H24.945a4.347,4.347,0,1,1,4.088,5.806,1.452,1.452,0,0,0,0,2.9,7.258,7.258,0,1,0-7.111-8.71H0V83.242H84.194V6.306ZM81.291,80.339H2.9V26.629H81.291Z" transform="translate(166 420.5)"/></g><path d="M12.425,34.687a1.451,1.451,0,0,0,2.053,0l6.232-6.232V61.241H16.355a1.452,1.452,0,0,0,0,2.9H27.968a1.452,1.452,0,1,0,0-2.9H23.613V24.951a1.457,1.457,0,0,0-.9-1.34,1.456,1.456,0,0,0-1.582.315l-8.708,8.708A1.45,1.45,0,0,0,12.425,34.687Z" transform="translate(327.419 2873.888)"/><path d="M30,52.532A11.613,11.613,0,1,0,47.007,42.256a10.161,10.161,0,1,0-10.788,0A11.619,11.619,0,0,0,30,52.532Zm4.355-18.871a7.258,7.258,0,1,1,7.258,7.258A7.266,7.266,0,0,1,34.355,33.661Zm7.258,10.161a8.71,8.71,0,1,1-8.71,8.71A8.718,8.718,0,0,1,41.613,43.823Z" transform="translate(335.549 2873.887)"/><circle cx="1.5" cy="1.5" r="1.5" transform="translate(332 2874)"/><circle cx="1.5" cy="1.5" r="1.5" transform="translate(332 2883)"/><ellipse cx="1.5" cy="1" rx="1.5" ry="1" transform="translate(328 2879)"/><circle cx="1" cy="1" r="1" transform="translate(337 2879)"/><circle cx="1.5" cy="1.5" r="1.5" transform="translate(341 2874)"/><circle cx="1.5" cy="1.5" r="1.5" transform="translate(341 2883)"/><ellipse cx="1" cy="1.5" rx="1" ry="1.5" transform="translate(350 2883)"/><ellipse cx="1.5" cy="1" rx="1.5" ry="1" transform="translate(345 2879)"/><ellipse cx="1.5" cy="1" rx="1.5" ry="1" transform="translate(354 2879)"/><circle cx="1.5" cy="1.5" r="1.5" transform="translate(358 2883)"/><circle cx="1.5" cy="1.5" r="1.5" transform="translate(367 2883)"/><ellipse cx="1.5" cy="1" rx="1.5" ry="1" transform="translate(363 2879)"/><ellipse cx="1.5" cy="1" rx="1.5" ry="1" transform="translate(371 2879)"/><circle cx="1.5" cy="1.5" r="1.5" transform="translate(384 2874)"/><circle cx="1.5" cy="1.5" r="1.5" transform="translate(376 2883)"/><circle cx="1.5" cy="1.5" r="1.5" transform="translate(384 2883)"/><ellipse cx="1.5" cy="1" rx="1.5" ry="1" transform="translate(380 2879)"/><ellipse cx="1.5" cy="1" rx="1.5" ry="1" transform="translate(389 2879)"/><circle cx="1.5" cy="1.5" r="1.5" transform="translate(393 2874)"/><circle cx="1.5" cy="1.5" r="1.5" transform="translate(393 2883)"/><ellipse cx="1.5" cy="1" rx="1.5" ry="1" transform="translate(397 2879)"/><g class="b" transform="matrix(1, 0, 0, 1, 156, 2443)"><path d="M41.6,0A41.6,41.6,0,1,0,83.2,41.6,41.648,41.648,0,0,0,41.6,0Zm0,80.427A38.827,38.827,0,1,1,80.427,41.6,38.871,38.871,0,0,1,41.6,80.427Z" transform="translate(413 422)"/></g><path d="M36.027,30.329V16.266a1.387,1.387,0,0,0-2.773,0V30.329a5.539,5.539,0,0,0-3.963,3.963h-9.9a1.387,1.387,0,1,0,0,2.773h9.9a5.535,5.535,0,1,0,6.736-6.736ZM34.64,38.453a2.773,2.773,0,1,1,2.773-2.773A2.776,2.776,0,0,1,34.64,38.453Z" transform="translate(575.96 2870.753)"/><path d="M30.387,11.039a1.386,1.386,0,0,0,1.387-1.387V8.266a1.387,1.387,0,0,0-2.773,0V9.652A1.386,1.386,0,0,0,30.387,11.039Z" transform="translate(580.214 2867.66)"/><path d="M30.387,49.879A1.386,1.386,0,0,0,29,51.266v1.387a1.387,1.387,0,1,0,2.773,0V51.266A1.386,1.386,0,0,0,30.387,49.879Z" transform="translate(580.214 2884.287)"/><path d="M52.773,28.879H51.387a1.387,1.387,0,0,0,0,2.773h1.387a1.387,1.387,0,1,0,0-2.773Z" transform="translate(588.334 2876.167)"/><path d="M9.773,28.879H8.387a1.387,1.387,0,0,0,0,2.773H9.773a1.387,1.387,0,1,0,0-2.773Z" transform="translate(571.707 2876.167)"/><path d="M45.236,13.728l-.98.98a1.386,1.386,0,1,0,1.961,1.961l.98-.98a1.386,1.386,0,0,0-1.961-1.961Z" transform="translate(585.955 2870.151)"/><path d="M14.831,44.134l-.98.98a1.386,1.386,0,1,0,1.961,1.961l.98-.98a1.386,1.386,0,1,0-1.961-1.961Z" transform="translate(574.198 2881.909)"/><path d="M46.216,44.134A1.386,1.386,0,0,0,44.255,46.1l.98.98A1.386,1.386,0,1,0,47.2,45.115Z" transform="translate(585.955 2881.908)"/><path d="M15.811,13.728a1.386,1.386,0,0,0-1.961,1.961l.98.98a1.386,1.386,0,0,0,1.961-1.961Z" transform="translate(574.198 2870.151)"/><path d="M29.453,26.058a1.515,1.515,0,0,0-1.033,1.874c.041.141,4.079,14.5,2.967,46.409A1.508,1.508,0,0,0,32.845,75.9c.018,0,.036,0,.054,0a1.512,1.512,0,0,0,1.509-1.459c1.13-32.385-2.911-46.76-3.082-47.356A1.515,1.515,0,0,0,29.453,26.058Z" transform="translate(832.917 2878.321)"/><path d="M75.167,24.922A40.828,40.828,0,0,0,21.838,3.15a48.845,48.845,0,0,0-7.79,4.089A1.513,1.513,0,1,0,15.7,9.777,45.772,45.772,0,0,1,23,5.942,37.8,37.8,0,0,1,72.379,26.1c2.465,5.829,3.8,16.56,4.372,22.44a1.511,1.511,0,0,0,1.5,1.364c.048,0,.1,0,.15-.008a1.512,1.512,0,0,0,1.357-1.653C79.04,40.856,77.657,30.809,75.167,24.922Z" transform="translate(825.232 2865)"/><path d="M15.525,10.588A1.512,1.512,0,0,0,13.4,8.434C5.269,16.447-2.833,31.348,4.756,56.825A1.51,1.51,0,0,0,6.2,57.906a1.514,1.514,0,0,0,1.449-1.943C1.987,36.934,4.707,21.245,15.525,10.588Z" transform="translate(819.272 2869.098)"/><path d="M41.286,6.022A31.385,31.385,0,0,0,27.9,8.451,31.758,31.758,0,0,0,9.558,46.386a38.524,38.524,0,0,1,1.125,4.823c.541,3.7.57,10.52.57,21.332a1.512,1.512,0,1,0,3.025,0c0-11.279-.029-17.852-.6-21.772a40.618,40.618,0,0,0-1.208-5.208A28.744,28.744,0,0,1,41.179,9.042c10.754.387,22.944,9.867,26.62,20.7,3.182,9.375,3.209,25.347,2.814,39.731a1.513,1.513,0,0,0,1.472,1.553,1.547,1.547,0,0,0,1.553-1.472c.4-14.653.36-30.959-2.975-40.786C66.555,16.661,53.376,6.455,41.286,6.022Z" transform="translate(822.667 2868.073)"/><path d="M31.413,12a22.566,22.566,0,0,0-4.867.528,1.512,1.512,0,0,0,.652,2.954A19.659,19.659,0,0,1,49.517,27.025c3.675,8.681,3.915,22.614,3.067,46.926a1.509,1.509,0,0,0,1.458,1.564c.018,0,.036,0,.054,0a1.512,1.512,0,0,0,1.509-1.459c.883-25.291.614-38.955-3.3-48.212A22.636,22.636,0,0,0,31.413,12Z" transform="translate(831.38 2871.148)"/><path d="M25.7,17.269a1.512,1.512,0,0,0-1.738-2.476c-7.789,5.469-11.173,15.975-8.416,26.156.032.11,3.1,11.285,3.1,28.74a1.512,1.512,0,1,0,3.025,0c0-17.865-3.082-29.085-3.211-29.544C16.037,31.2,18.947,22.009,25.7,17.269Z" transform="translate(825.864 2872.438)"/><path d="M40.3,48.522A1.511,1.511,0,0,0,38.8,47h-.011a1.513,1.513,0,0,0-1.512,1.5c-.008,1.137.03,2.8.071,4.591.059,2.609.126,5.565.061,7.466a1.508,1.508,0,0,0,1.459,1.562l.053,0a1.512,1.512,0,0,0,1.509-1.461c.07-1.986,0-4.989-.059-7.639C40.326,51.265,40.289,49.637,40.3,48.522Z" transform="translate(837.483 2889.079)"/><path d="M33.426,19a12.041,12.041,0,0,0-4.66.935,12.294,12.294,0,0,0-6.654,15.447c1.14,3.462,2.1,21.584,2.1,39.573a1.512,1.512,0,0,0,3.025,0c0-16.193-.862-36.289-2.253-40.519a9.294,9.294,0,0,1,4.945-11.71,9.068,9.068,0,0,1,11.855,4.849c2.824,6.683,3.663,18.782,3.869,27.756a1.514,1.514,0,0,0,1.512,1.478H47.2a1.514,1.514,0,0,0,1.478-1.547c-.213-9.234-1.1-21.74-4.114-28.875A12.073,12.073,0,0,0,33.426,19Z" transform="translate(829.366 2874.734)"/><path d="M81.581,31.305A1.739,1.739,0,0,0,80.26,30.7H76.585V11.218a2.422,2.422,0,0,0-2.42-2.42H32.194l-3.4-5.668a2.429,2.429,0,0,0-2.075-1.176H7.833a2.422,2.422,0,0,0-2.42,2.42V30.7H1.74a1.739,1.739,0,0,0-1.72,2L6.751,77.126A1.731,1.731,0,0,0,8.47,78.6H73.529a1.732,1.732,0,0,0,1.72-1.48L81.979,32.7A1.734,1.734,0,0,0,81.581,31.305ZM8.152,4.694H26.539l3.4,5.668a2.429,2.429,0,0,0,2.075,1.176H73.849V30.7H71.112V21.118H10.889V30.7H8.152v-26Zm60.222,26H13.627V23.855H68.374Zm4.3,45.167H9.328L2.9,33.436H79.1Z" transform="translate(569 3089.045)"/><path d="M39.8,8A29.79,29.79,0,0,0,29.28,65.664v15.95a1.751,1.751,0,0,0,1.753,1.753h1.753v3.505a1.751,1.751,0,0,0,1.753,1.753H45.054a1.751,1.751,0,0,0,1.753-1.753V83.367H48.56a1.751,1.751,0,0,0,1.753-1.753V65.664A29.79,29.79,0,0,0,39.8,8Zm5.258,71.861A1.751,1.751,0,0,0,43.3,81.614v3.505H36.291V81.614a1.751,1.751,0,0,0-1.753-1.753H32.785V71.1H46.807v8.764Zm2.959-17.1a1.753,1.753,0,0,0-1.206,1.665v3.169H32.785V64.423a1.752,1.752,0,0,0-1.206-1.665,26.291,26.291,0,1,1,16.433,0Z" transform="translate(823.022 3088.022)"/><path d="M27.753,10.516a1.751,1.751,0,0,0,1.753-1.753V1.753a1.753,1.753,0,0,0-3.505,0V8.764A1.751,1.751,0,0,0,27.753,10.516Z" transform="translate(835.065 3082)"/><path d="M54.764,24H47.753a1.753,1.753,0,0,0,0,3.505h7.011a1.753,1.753,0,0,0,0-3.505Z" transform="translate(850.119 3100.065)"/><path d="M10.764,24H3.753a1.753,1.753,0,1,0,0,3.505h7.011a1.753,1.753,0,1,0,0-3.505Z" transform="translate(817 3100.065)"/><path d="M45.613,7.542,40.657,12.5a1.752,1.752,0,1,0,2.478,2.478l4.957-4.957a1.752,1.752,0,1,0-2.478-2.478Z" transform="translate(845.711 3087.291)"/><path d="M14.5,38.657,9.543,43.613a1.752,1.752,0,1,0,2.478,2.478l4.957-4.957A1.752,1.752,0,0,0,14.5,38.657Z" transform="translate(822.291 3110.71)"/><path d="M43.135,38.657a1.752,1.752,0,1,0-2.478,2.478l4.957,4.957a1.752,1.752,0,0,0,2.478-2.478Z" transform="translate(845.711 3110.71)"/><path d="M14.5,14.978A1.752,1.752,0,0,0,16.978,12.5L12.021,7.543a1.752,1.752,0,0,0-2.478,2.478Z" transform="translate(822.291 3087.291)"/><path d="M36.033,13A21.056,21.056,0,0,0,15,34.033a1.753,1.753,0,0,0,3.505,0A17.547,17.547,0,0,1,36.033,16.505a1.753,1.753,0,1,0,0-3.505Z" transform="translate(826.785 3091.785)"/><path d="M64.7,0H18.835A18.856,18.856,0,0,0,0,18.835V64.7A18.856,18.856,0,0,0,18.835,83.532H64.7A18.856,18.856,0,0,0,83.532,64.7V18.835A18.856,18.856,0,0,0,64.7,0ZM80.438,64.7A15.758,15.758,0,0,1,64.7,80.438H18.835A15.758,15.758,0,0,1,3.094,64.7V18.835A15.758,15.758,0,0,1,18.835,3.094H64.7A15.758,15.758,0,0,1,80.438,18.835Z" transform="translate(320 3084)"/><path d="M62.489,8.871,28.457,13.289a1.547,1.547,0,0,0-1.347,1.535V51.984A12.207,12.207,0,0,0,18.6,48.635C12.2,48.635,7,53.3,7,59.023s5.2,10.384,11.6,10.384,11.6-4.659,11.6-10.386V27.452l30.938-4.019V42.01a12.034,12.034,0,0,0-8.4-3.32c-6.336,0-11.49,4.661-11.49,10.387s5.156,10.386,11.49,10.386S64.235,54.8,64.235,49.078V10.4a1.546,1.546,0,0,0-1.746-1.533ZM18.6,66.313c-4.692,0-8.508-3.27-8.508-7.292s3.816-7.294,8.508-7.294S27.11,55,27.11,59.021,23.293,66.313,18.6,66.313ZM30.2,24.332V16.183l30.938-4.017v8.147Zm22.54,32.036c-4.63,0-8.4-3.27-8.4-7.292s3.767-7.294,8.4-7.294,8.4,3.273,8.4,7.294S57.373,56.368,52.743,56.368Z" transform="translate(323.828 3088.844)"/></g></svg>