<svg xmlns="http://www.w3.org/2000/svg" xmlns:xlink="http://www.w3.org/1999/xlink" width="1018.469" height="1004.402" viewBox="0 0 1018.469 1004.402"><defs><style>.a{fill:#fff;}.b{fill:#e7eced;}.c{fill:#424a60;}.d{fill:#38454f;}.e{fill:#afb6bb;}.f{fill:#839594;}.g{fill:#e0e1e2;}.h{fill:#c7cac7;}.i{fill:#26b99a;}.j{fill:#ef6129;}.k{fill:#ebba16;}.l{fill:#efce4a;}.m{fill:#f7e6a1;}.n{fill:#556080;}.o{filter:url(#m);}.p{filter:url(#k);}.q{filter:url(#i);}.r{filter:url(#g);}.s{filter:url(#e);}.t{filter:url(#c);}.u{filter:url(#a);}</style><filter id="a" x="0" y="0" width="1018.469" height="1004.402" filterUnits="userSpaceOnUse"><feOffset dy="12" input="SourceAlpha"/><feGaussianBlur stdDeviation="12" result="b"/><feFlood flood-color="#4a4646" flood-opacity="0.161"/><feComposite operator="in" in2="b"/><feComposite in="SourceGraphic"/></filter><filter id="c" x="67" y="315" width="278" height="278" filterUnits="userSpaceOnUse"><feOffset dy="-10" input="SourceAlpha"/><feGaussianBlur stdDeviation="15" result="d"/><feFlood flood-opacity="0.161"/><feComposite operator="in" in2="d"/><feComposite in="SourceGraphic"/></filter><filter id="e" x="316" y="315" width="278" height="278" filterUnits="userSpaceOnUse"><feOffset dy="-10" input="SourceAlpha"/><feGaussianBlur stdDeviation="15" result="f"/><feFlood flood-opacity="0.161"/><feComposite operator="in" in2="f"/><feComposite in="SourceGraphic"/></filter><filter id="g" x="565" y="315" width="278" height="278" filterUnits="userSpaceOnUse"><feOffset dy="-10" input="SourceAlpha"/><feGaussianBlur stdDeviation="15" result="h"/><feFlood flood-opacity="0.161"/><feComposite operator="in" in2="h"/><feComposite in="SourceGraphic"/></filter><filter id="i" x="72" y="535" width="278" height="278" filterUnits="userSpaceOnUse"><feOffset dy="-10" input="SourceAlpha"/><feGaussianBlur stdDeviation="15" result="j"/><feFlood flood-opacity="0.161"/><feComposite operator="in" in2="j"/><feComposite in="SourceGraphic"/></filter><filter id="k" x="319" y="540" width="278" height="278" filterUnits="userSpaceOnUse"><feOffset dy="-10" input="SourceAlpha"/><feGaussianBlur stdDeviation="15" result="l"/><feFlood flood-opacity="0.161"/><feComposite operator="in" in2="l"/><feComposite in="SourceGraphic"/></filter><filter id="m" x="563" y="540" width="278" height="278" filterUnits="userSpaceOnUse"><feOffset dy="-10" input="SourceAlpha"/><feGaussianBlur stdDeviation="15" result="n"/><feFlood flood-opacity="0.161"/><feComposite operator="in" in2="n"/><feComposite in="SourceGraphic"/></filter></defs><g transform="translate(-1211 -3441)"><g class="u" transform="matrix(1, 0, 0, 1, 1211, 3441)"><rect class="a" width="946.469" height="932.402" rx="50" transform="translate(36 24)"/></g><g class="t" transform="matrix(1, 0, 0, 1, 1211, 3441)"><rect class="a" width="188" height="188" rx="20" transform="translate(112 370)"/></g><g class="s" transform="matrix(1, 0, 0, 1, 1211, 3441)"><rect class="a" width="188" height="188" rx="20" transform="translate(361 370)"/></g><g class="r" transform="matrix(1, 0, 0, 1, 1211, 3441)"><rect class="a" width="188" height="188" rx="20" transform="translate(610 370)"/></g><g class="q" transform="matrix(1, 0, 0, 1, 1211, 3441)"><rect class="a" width="188" height="188" rx="20" transform="translate(117 590)"/></g><g class="p" transform="matrix(1, 0, 0, 1, 1211, 3441)"><rect class="a" width="188" height="188" rx="20" transform="translate(364 595)"/></g><g class="o" transform="matrix(1, 0, 0, 1, 1211, 3441)"><rect class="a" width="188" height="188" rx="20" transform="translate(608 595)"/></g><rect class="b" width="84" height="58" transform="translate(1375 3890)"/><g transform="translate(1391.645 3898.946)"><path class="c" d="M27.975,62.941H23.482V25.5a1.5,1.5,0,0,0-.926-1.382,1.5,1.5,0,0,0-1.633.325l-8.985,8.985a1.5,1.5,0,1,0,2.118,2.118l6.43-6.43V62.941H15.993a1.5,1.5,0,0,0,0,3H27.975a1.5,1.5,0,0,0,0-3Z" transform="translate(-11.5 -23.999)"/><path class="c" d="M47.048,43.353a10.484,10.484,0,1,0-11.131,0,11.982,11.982,0,1,0,11.131,0ZM33.993,34.484a7.489,7.489,0,1,1,7.489,7.489A7.5,7.5,0,0,1,33.993,34.484Zm7.489,28.457a8.987,8.987,0,1,1,8.987-8.987A9,9,0,0,1,41.482,62.942Z" transform="translate(-2.54 -24)"/></g><path class="c" d="M61.908,5H.5V24.471H84.374V5Z" transform="translate(1374.67 3865.489)"/><ellipse class="d" cx="3" cy="3.5" rx="3" ry="3.5" transform="translate(1401 3873)"/><ellipse class="d" cx="3" cy="3.5" rx="3" ry="3.5" transform="translate(1410 3873)"/><ellipse class="d" cx="3" cy="3.5" rx="3" ry="3.5" transform="translate(1419 3873)"/><ellipse class="d" cx="3" cy="3.5" rx="3" ry="3.5" transform="translate(1428 3873)"/><path class="e" d="M38.993,0A7.42,7.42,0,0,0,34.5,1.535a7.509,7.509,0,0,1,1.97,2.239,4.492,4.492,0,1,1,2.524,8.208,1.5,1.5,0,1,0,0,3A7.489,7.489,0,0,0,38.993,0Z" transform="translate(1391.594 3863)"/><path class="f" d="M33.526,2.52A7.393,7.393,0,0,0,32.5,6.234h3A4.492,4.492,0,0,0,33.526,2.52Z" transform="translate(1390.599 3864.254)"/><path class="f" d="M27.526,2.52A7.393,7.393,0,0,0,26.5,6.234h3A4.492,4.492,0,0,0,27.526,2.52Z" transform="translate(1387.612 3864.254)"/><path class="e" d="M39.456,3.774a7.53,7.53,0,0,0-1.97-2.239,7.343,7.343,0,0,0-8.987,0,7.509,7.509,0,0,1,1.97,2.239,4.492,4.492,0,1,1,2.524,8.208,1.5,1.5,0,1,0,0,3,7.5,7.5,0,0,0,7.489-7.489A7.393,7.393,0,0,0,39.456,3.774Z" transform="translate(1388.607 3863)"/><path class="f" d="M21.526,2.52A7.393,7.393,0,0,0,20.5,6.234h3A4.492,4.492,0,0,0,21.526,2.52Z" transform="translate(1384.625 3864.254)"/><path class="e" d="M33.456,3.774a7.53,7.53,0,0,0-1.97-2.239,7.343,7.343,0,0,0-8.987,0,7.509,7.509,0,0,1,1.97,2.239,4.492,4.492,0,1,1,2.524,8.208,1.5,1.5,0,0,0,0,3,7.5,7.5,0,0,0,7.489-7.489A7.393,7.393,0,0,0,33.456,3.774Z" transform="translate(1385.621 3863)"/><path class="e" d="M28.452,3.774a7.53,7.53,0,0,0-1.97-2.239A7.42,7.42,0,0,0,21.989,0,7.5,7.5,0,0,0,14.5,7.489h3a4.493,4.493,0,1,1,4.493,4.493,1.5,1.5,0,0,0,0,3,7.5,7.5,0,0,0,7.489-7.489A7.393,7.393,0,0,0,28.452,3.774Z" transform="translate(1381.639 3863)"/><ellipse class="g" cx="42.85" cy="42.85" rx="42.85" ry="42.85" transform="translate(1623.296 3863.202)"/><ellipse class="a" cx="24.721" cy="24.721" rx="24.721" ry="24.721" transform="translate(1641.425 3881.331)"/><path class="c" d="M13.226,61a1.648,1.648,0,0,1-1.165-2.813l6.482-6.482a1.648,1.648,0,1,1,2.33,2.33l-6.482,6.482A1.644,1.644,0,0,1,13.226,61Z" transform="translate(1626.551 3891.197)"/><path class="c" d="M47.795,61.022a1.644,1.644,0,0,1-1.165-.483L40.1,54.007a1.648,1.648,0,1,1,2.33-2.33l6.531,6.531a1.648,1.648,0,0,1-1.165,2.813Z" transform="translate(1644.721 3891.177)"/><path class="h" d="M47.32,14.612A1.648,1.648,0,0,1,46.155,11.8L51.1,6.854a1.648,1.648,0,0,1,2.33,2.33l-4.944,4.944A1.642,1.642,0,0,1,47.32,14.612Z" transform="translate(1648.647 3862.128)"/><path class="h" d="M13.078,14.612a1.644,1.644,0,0,1-1.165-.483L6.968,9.184A1.648,1.648,0,1,1,9.3,6.854L14.243,11.8a1.648,1.648,0,0,1-1.165,2.813Z" transform="translate(1623.25 3862.128)"/><path class="i" d="M46.725,93.45A46.147,46.147,0,1,1,92.871,47.3,46.2,46.2,0,0,1,46.725,93.45Zm0-85.7A39.554,39.554,0,1,0,86.279,47.3,39.6,39.6,0,0,0,46.725,7.749Z" transform="translate(1619.422 3858.749)"/><g transform="translate(1628.24 3867.947)"><path class="i" d="M29.226,6.036a1.648,1.648,0,0,0-1.648,1.648V9.332a1.648,1.648,0,1,0,3.3,0V7.684A1.647,1.647,0,0,0,29.226,6.036Z" transform="translate(8.68 -6.036)"/><path class="i" d="M29.226,49.036a1.648,1.648,0,0,0-1.648,1.648v1.648a1.648,1.648,0,1,0,3.3,0V50.684A1.647,1.647,0,0,0,29.226,49.036Z" transform="translate(8.68 21.832)"/><path class="i" d="M51.874,28.036H50.226a1.648,1.648,0,0,0,0,3.3h1.648a1.648,1.648,0,0,0,0-3.3Z" transform="translate(22.29 8.222)"/><path class="i" d="M8.874,28.036H7.226a1.648,1.648,0,0,0,0,3.3H8.874a1.648,1.648,0,0,0,0-3.3Z" transform="translate(-5.578 8.222)"/><path class="i" d="M44.075,12.962,42.91,14.127a1.648,1.648,0,1,0,2.33,2.33l1.165-1.165a1.648,1.648,0,1,0-2.33-2.33Z" transform="translate(18.303 -1.86)"/><path class="i" d="M13.67,43.368l-1.165,1.165a1.648,1.648,0,1,0,2.33,2.33L16,45.7a1.648,1.648,0,1,0-2.33-2.33Z" transform="translate(-1.402 17.846)"/><path class="i" d="M45.24,43.368a1.648,1.648,0,1,0-2.33,2.33l1.165,1.165a1.648,1.648,0,0,0,2.33-2.33Z" transform="translate(18.303 17.845)"/><path class="i" d="M14.835,12.962a1.648,1.648,0,0,0-2.33,2.33l1.165,1.165A1.648,1.648,0,1,0,16,14.127Z" transform="translate(-1.402 -1.86)"/></g><path class="c" d="M45.411,31.453H32.226a1.648,1.648,0,0,1,0-3.3H45.411a1.648,1.648,0,0,1,0,3.3Z" transform="translate(1638.865 3876.248)"/><path class="c" d="M29.226,35.582a1.648,1.648,0,0,1-1.648-1.648V15.805a1.648,1.648,0,1,1,3.3,0V33.934A1.648,1.648,0,0,1,29.226,35.582Z" transform="translate(1636.921 3867.174)"/><path class="c" d="M31.17,38.342a6.592,6.592,0,1,1,6.592-6.592A6.6,6.6,0,0,1,31.17,38.342Zm0-9.889a3.3,3.3,0,1,0,3.3,3.3A3.3,3.3,0,0,0,31.17,28.453Z" transform="translate(1634.976 3874.303)"/><path class="b" d="M61.021,3.438a11.737,11.737,0,0,1,0,16.6l-16.6-16.6A11.739,11.739,0,0,1,61.021,3.438Z" transform="translate(1647.836 3857.999)"/><path class="b" d="M4.016,3.438a11.737,11.737,0,0,0,0,16.6l16.6-16.6A11.737,11.737,0,0,0,4.016,3.438Z" transform="translate(1619.422 3857.999)"/><path class="h" d="M29.4,26.055a1.436,1.436,0,0,0-.98,1.777c.039.133,3.868,13.755,2.814,44.011a1.43,1.43,0,0,0,1.383,1.483h.052A1.433,1.433,0,0,0,34.1,71.943c1.071-30.712-2.761-44.344-2.923-44.909A1.437,1.437,0,0,0,29.4,26.055Z" transform="translate(1884.79 3874.289)"/><path class="h" d="M71.973,23.634A38.718,38.718,0,0,0,21.4,2.987a46.321,46.321,0,0,0-7.388,3.878,1.435,1.435,0,0,0,1.563,2.407A43.407,43.407,0,0,1,22.5,5.635,35.847,35.847,0,0,1,69.329,24.753c2.338,5.527,3.6,15.7,4.146,21.28A1.433,1.433,0,0,0,74.9,47.327c.046,0,.093,0,.142-.007a1.434,1.434,0,0,0,1.286-1.568C75.646,38.745,74.335,29.217,71.973,23.634Z" transform="translate(1878.276 3863)"/><path class="h" d="M14.812,10.454A1.434,1.434,0,0,0,12.8,8.412C5.086,16.01-2.6,30.141,4.6,54.3a1.432,1.432,0,0,0,1.374,1.025,1.436,1.436,0,0,0,1.374-1.843C1.973,35.439,4.553,20.561,14.812,10.454Z" transform="translate(1873.226 3866.473)"/><path class="h" d="M39.585,6.021a29.763,29.763,0,0,0-12.7,2.3A30.117,30.117,0,0,0,9.5,44.3a36.534,36.534,0,0,1,1.067,4.574c.513,3.512.541,9.976.541,20.229a1.434,1.434,0,0,0,2.868,0c0-10.7-.027-16.929-.571-20.647a38.518,38.518,0,0,0-1.146-4.939A27.258,27.258,0,0,1,39.483,8.885c10.2.367,21.758,9.357,25.245,19.633C67.745,37.408,67.771,52.555,67.4,66.2a1.435,1.435,0,0,0,1.4,1.473,1.467,1.467,0,0,0,1.473-1.4c.38-13.9.341-29.359-2.821-38.679C63.547,16.11,51.05,6.431,39.585,6.021Z" transform="translate(1876.103 3865.604)"/><path class="h" d="M25.123,17.127a1.434,1.434,0,0,0-1.648-2.348c-7.386,5.186-10.6,15.149-7.981,24.8.03.1,2.942,10.7,2.942,27.255a1.434,1.434,0,1,0,2.868,0c0-16.942-2.923-27.582-3.045-28.017C15.962,30.34,18.722,21.622,25.123,17.127Z" transform="translate(1878.812 3869.303)"/><path class="h" d="M31.1,12a21.4,21.4,0,0,0-4.615.5,1.434,1.434,0,0,0,.618,2.8A18.643,18.643,0,0,1,48.269,26.249c3.485,8.232,3.713,21.445,2.909,44.5a1.431,1.431,0,0,0,1.383,1.483h.052a1.433,1.433,0,0,0,1.431-1.384c.838-23.984.582-36.942-3.134-45.72A21.467,21.467,0,0,0,31.1,12Z" transform="translate(1883.486 3868.21)"/><path class="h" d="M40.141,48.443A1.433,1.433,0,0,0,38.717,47h-.01a1.434,1.434,0,0,0-1.434,1.424c-.007,1.079.029,2.653.067,4.354.056,2.474.119,5.278.057,7.081a1.43,1.43,0,0,0,1.384,1.482h.05a1.434,1.434,0,0,0,1.431-1.385c.066-1.883,0-4.731-.056-7.244C40.168,51.045,40.133,49.5,40.141,48.443Z" transform="translate(1888.658 3883.406)"/><path class="h" d="M32.806,19a11.418,11.418,0,0,0-4.419.886,11.659,11.659,0,0,0-6.31,14.649C23.158,37.818,24.072,55,24.072,72.064a1.434,1.434,0,1,0,2.868,0c0-15.356-.817-34.413-2.137-38.425a8.814,8.814,0,0,1,4.69-11.1,8.6,8.6,0,0,1,11.243,4.6c2.678,6.338,3.474,17.811,3.669,26.322a1.435,1.435,0,0,0,1.434,1.4h.033a1.436,1.436,0,0,0,1.4-1.467c-.2-8.757-1.041-20.616-3.9-27.383A11.449,11.449,0,0,0,32.806,19Z" transform="translate(1881.78 3871.25)"/><rect class="j" width="72" height="79" transform="translate(1386 4086)"/><g transform="translate(1378.369 4093.165)"><rect class="k" width="6" height="65" transform="translate(79.631 -0.165)"/><rect class="k" width="8" height="65" transform="translate(-0.369 -0.165)"/></g><g transform="translate(1372 4099.535)"><rect class="l" width="8" height="51" transform="translate(92 0.465)"/><rect class="l" width="6" height="51" transform="translate(0 0.465)"/></g><path class="a" d="M66.483,12.413a1.721,1.721,0,0,0-1.386-.392L32.389,17.185a1.722,1.722,0,0,0-1.453,1.7V52.764a11.646,11.646,0,0,0-7.747-2.892C17.02,49.872,12,54.5,12,60.2S17.02,70.53,23.19,70.53c6.082,0,11.036-4.505,11.176-10.089,0-.022.014-.041.014-.064V30.685l29.265-4.62V42.437A11.638,11.638,0,0,0,55.9,39.543c-6.17,0-11.19,4.632-11.19,10.329S49.728,60.2,55.9,60.2s11.19-4.632,11.19-10.329V13.721A1.719,1.719,0,0,0,66.483,12.413Z" transform="translate(1380.331 4084.329)"/><path class="l" d="M86.734,79.543H2.93A2.929,2.929,0,0,1,.1,75.848L19.137,23.664A2.928,2.928,0,0,1,21.965,21.5h83.8c1.929,0,2.827,1.842,2.827,3.694L89.562,77.378A2.928,2.928,0,0,1,86.734,79.543Z" transform="translate(1614.661 4090.458)"/><g transform="translate(1614.661 4082)"><path class="k" d="M94.119,18.606H46.808L37.447,5.5H3.243A3.243,3.243,0,0,0,0,8.743v80c.129,0,.258.011.384.019L19.135,37.622a2.926,2.926,0,0,1,2.827-2.164h75.4V21.849A3.243,3.243,0,0,0,94.119,18.606Z" transform="translate(0 -5.5)"/></g><path class="l" d="M42.5,9a31.992,31.992,0,0,0-10,62.384V91h4v6h12V91h4V71.384A31.992,31.992,0,0,0,42.5,9Z" transform="translate(1870.356 4082)"/><g transform="translate(1862.856 4073)"><path class="l" d="M27.5,0a2,2,0,0,0-2,2v8a2,2,0,1,0,4,0V2A2,2,0,0,0,27.5,0Z" transform="translate(22.5)"/><path class="l" d="M55.5,24h-8a2,2,0,0,0,0,4h8a2,2,0,1,0,0-4Z" transform="translate(42.5 24)"/><path class="l" d="M11.5,24h-8a2,2,0,0,0,0,4h8a2,2,0,0,0,0-4Z" transform="translate(-1.5 24)"/><path class="l" d="M45.885,7.615l-5.656,5.656A2,2,0,1,0,43.057,16.1l5.656-5.656a2,2,0,1,0-2.828-2.828Z" transform="translate(36.643 7.029)"/><path class="l" d="M14.771,38.729,9.115,44.385a2,2,0,1,0,2.828,2.828L17.6,41.557a2,2,0,0,0-2.828-2.828Z" transform="translate(5.529 38.143)"/><path class="l" d="M43.057,38.729a2,2,0,0,0-2.828,2.828l5.656,5.656a2,2,0,0,0,2.828-2.828Z" transform="translate(36.643 38.143)"/><path class="l" d="M11.943,7.615a2,2,0,0,0-2.828,2.828L14.771,16.1A2,2,0,1,0,17.6,13.271Z" transform="translate(5.529 7.029)"/></g><path class="m" d="M16.5,39a2,2,0,0,1-2-2,24.027,24.027,0,0,1,24-24,2,2,0,1,1,0,4,20.023,20.023,0,0,0-20,20A2,2,0,0,1,16.5,39Z" transform="translate(1874.356 4086)"/><path class="n" d="M21.5,43V57h4v6h12V57h4V43Z" transform="translate(1881.356 4116)"/></g></svg>