<svg xmlns="http://www.w3.org/2000/svg" xmlns:xlink="http://www.w3.org/1999/xlink" width="1018.469" height="1004.402" viewBox="0 0 1018.469 1004.402"><defs><style>.a{fill:#fff;}.b{fill:#d13834;}.c{fill:#f75b57;}.d{fill:#4c312c;}.e{fill:#994530;}.f{fill:#659c35;}.g{fill:#583e68;}.h{fill:#6a3311;}.i{fill:#6f58a8;}.j{fill:#d2d5d7;}.k{fill:#a5a5a5;}.l{fill:#fff5bb;}.m{fill:#a46f3e;}.n{fill:#fbd490;}.o{fill:#704928;}.p{fill:#775131;}.q{fill:#e6e6e6;}.r{fill:#f4c44e;}.s{fill:#fab900;}.t{fill:#fdeb08;}.u{fill:#e09a0a;}.v{fill:#f8b700;}.w{fill:#d32500;}.x{fill:#f55e30;}.y{fill:#fac84d;}.z{filter:url(#m);}.aa{filter:url(#k);}.ab{filter:url(#i);}.ac{filter:url(#g);}.ad{filter:url(#e);}.ae{filter:url(#c);}.af{filter:url(#a);}</style><filter id="a" x="0" y="0" width="1018.469" height="1004.402" filterUnits="userSpaceOnUse"><feOffset dy="12" input="SourceAlpha"/><feGaussianBlur stdDeviation="12" result="b"/><feFlood flood-color="#4a4646" flood-opacity="0.161"/><feComposite operator="in" in2="b"/><feComposite in="SourceGraphic"/></filter><filter id="c" x="57" y="300" width="278" height="278" filterUnits="userSpaceOnUse"><feOffset dy="-10" input="SourceAlpha"/><feGaussianBlur stdDeviation="15" result="d"/><feFlood flood-opacity="0.161"/><feComposite operator="in" in2="d"/><feComposite in="SourceGraphic"/></filter><filter id="e" x="306" y="300" width="278" height="278" filterUnits="userSpaceOnUse"><feOffset dy="-10" input="SourceAlpha"/><feGaussianBlur stdDeviation="15" result="f"/><feFlood flood-opacity="0.161"/><feComposite operator="in" in2="f"/><feComposite in="SourceGraphic"/></filter><filter id="g" x="555" y="300" width="278" height="278" filterUnits="userSpaceOnUse"><feOffset dy="-10" input="SourceAlpha"/><feGaussianBlur stdDeviation="15" result="h"/><feFlood flood-opacity="0.161"/><feComposite operator="in" in2="h"/><feComposite in="SourceGraphic"/></filter><filter id="i" x="62" y="520" width="278" height="278" filterUnits="userSpaceOnUse"><feOffset dy="-10" input="SourceAlpha"/><feGaussianBlur stdDeviation="15" result="j"/><feFlood flood-opacity="0.161"/><feComposite operator="in" in2="j"/><feComposite in="SourceGraphic"/></filter><filter id="k" x="309" y="525" width="278" height="278" filterUnits="userSpaceOnUse"><feOffset dy="-10" input="SourceAlpha"/><feGaussianBlur stdDeviation="15" result="l"/><feFlood flood-opacity="0.161"/><feComposite operator="in" in2="l"/><feComposite in="SourceGraphic"/></filter><filter id="m" x="553" y="525" width="278" height="278" filterUnits="userSpaceOnUse"><feOffset dy="-10" input="SourceAlpha"/><feGaussianBlur stdDeviation="15" result="n"/><feFlood flood-opacity="0.161"/><feComposite operator="in" in2="n"/><feComposite in="SourceGraphic"/></filter></defs><g transform="translate(-156 -4438)"><g class="af" transform="matrix(1, 0, 0, 1, 156, 4438)"><rect class="a" width="946.469" height="932.402" rx="50" transform="translate(36 24)"/></g><g class="ae" transform="matrix(1, 0, 0, 1, 156, 4438)"><rect class="a" width="188" height="188" rx="20" transform="translate(102 355)"/></g><g class="ad" transform="matrix(1, 0, 0, 1, 156, 4438)"><rect class="a" width="188" height="188" rx="20" transform="translate(351 355)"/></g><g class="ac" transform="matrix(1, 0, 0, 1, 156, 4438)"><rect class="a" width="188" height="188" rx="20" transform="translate(600 355)"/></g><g class="ab" transform="matrix(1, 0, 0, 1, 156, 4438)"><rect class="a" width="188" height="188" rx="20" transform="translate(107 575)"/></g><g class="aa" transform="matrix(1, 0, 0, 1, 156, 4438)"><rect class="a" width="188" height="188" rx="20" transform="translate(354 580)"/></g><g class="z" transform="matrix(1, 0, 0, 1, 156, 4438)"><rect class="a" width="188" height="188" rx="20" transform="translate(598 580)"/></g><path class="b" d="M48.969,16.93a21.934,21.934,0,0,1-10.532,0c-18-4.452-33.078-2.745-32.9,31.2.089,17.391,16.375,39.94,33.491,36.082a21.359,21.359,0,0,1,9.355,0c17.116,3.858,33.4-18.691,33.491-36.082C82.045,14.186,66.972,12.478,48.969,16.93Z" transform="translate(298.468 4842.208)"/><path class="c" d="M11.207,37.086a1.673,1.673,0,0,1-1.674-1.674c0-9.229,6.757-16.738,15.064-16.738a1.674,1.674,0,1,1,0,3.348c-6.459,0-11.717,6.007-11.717,13.39A1.674,1.674,0,0,1,11.207,37.086Z" transform="translate(301.164 4844.583)"/><path class="d" d="M33.285,29.846a1.673,1.673,0,0,1-1.67-1.62C31.388,21.143,28.667,12.25,21.7,8.536a1.674,1.674,0,1,1,1.577-2.954C31.5,9.967,34.706,20.1,34.96,28.119a1.672,1.672,0,0,1-1.62,1.726C33.32,29.846,33.3,29.846,33.285,29.846Z" transform="translate(308.766 4835.628)"/><path class="e" d="M31.372,25.985A10.462,10.462,0,0,1,23.924,22.9a1.674,1.674,0,1,1,2.367-2.367,7.179,7.179,0,0,0,10.162,0A1.674,1.674,0,0,1,38.819,22.9,10.458,10.458,0,0,1,31.372,25.985Z" transform="translate(310.529 4845.503)"/><path class="f" d="M27.3,21.826l1.019-6.839A16.6,16.6,0,0,1,42.294,1.018L49.131,0,48.112,6.839a16.6,16.6,0,0,1-13.97,13.969Z" transform="translate(313.139 4832)"/><path class="g" d="M83.345,24.407l.02.017-.037-.025a.052.052,0,0,1,.017.008c-1.779-1.26-2.5-3.307-1.6-4.584-.9,1.281-3.083,1.3-4.877.041s-2.521-3.319-1.621-4.6c-.9,1.281-3.083,1.3-4.877.041s-2.519-3.319-1.621-4.6c-.83,1.183-2.751,1.276-4.454.3a56.3,56.3,0,0,0-8.454,7.765S42.453,31.274,23.57,34.717a23.221,23.221,0,0,0-5.106,1.449c-.73.317-2.353,1.165-2.353,1.165A28.173,28.173,0,0,0,26.643,89.993a28.024,28.024,0,0,0,14.937-2.74C51.962,82.378,73.134,68.3,81.89,32.308a52.809,52.809,0,0,0,2.264-7.491A3.565,3.565,0,0,1,83.345,24.407Z" transform="translate(548.819 4838.061)"/><path class="h" d="M51.215,12.712a1.659,1.659,0,1,1,0-3.319c3.19,0,5.818-.974,6.86-2.541.748-1.127.727-2.657-.068-4.549a1.66,1.66,0,0,1,3.062-1.284c1.557,3.712.735,6.22-.229,7.67C59.165,11.208,55.567,12.712,51.215,12.712Z" transform="translate(580.475 4831)"/><path class="f" d="M39.718,14.468a3.572,3.572,0,0,1-.984-4.952,3.571,3.571,0,0,1,4.992-.76c3.541-5.048,9.921-4.6,15.2-.9s7.667,9.408,4.126,14.456a3.572,3.572,0,0,1,.984,4.952,3.4,3.4,0,0,1-4.824.878l.037.025c-1.794-1.26-2.521-3.319-1.621-4.6-.9,1.281-3.083,1.3-4.877.041s-2.521-3.319-1.621-4.6c-.9,1.281-3.083,1.3-4.877.041s-2.521-3.319-1.621-4.6c-.9,1.281-3.083,1.3-4.877.041" transform="translate(572.937 4834.313)"/><path class="i" d="M11.185,59.99A1.662,1.662,0,0,1,9.766,59.2a24.883,24.883,0,0,1-1.18-22.549,1.659,1.659,0,1,1,3.044,1.321,21.528,21.528,0,0,0,.971,19.5,1.661,1.661,0,0,1-1.416,2.524Z" transform="translate(552.045 4854.509)"/><path class="i" d="M11.3,37.716a1.658,1.658,0,0,1-1.255-2.741,19.6,19.6,0,0,1,7.4-5.357,1.66,1.66,0,0,1,1.25,3.077,16.215,16.215,0,0,0-6.14,4.446A1.667,1.667,0,0,1,11.3,37.716Z" transform="translate(554.156 4850.453)"/><path class="j" d="M53.379,35.558H4.106C1.837,35.558,0,31.665,0,29.4V25.293c0-2.267,1.837-2.053,4.106-2.053h98.546c2.267,0,4.106-.214,4.106,2.053V29.4c0,2.267-1.84,6.159-4.106,6.159H53.379Z" transform="translate(797.459 4853.474)"/><path class="j" d="M106.968,28.237c0,24.636-23.9,47.222-53.379,47.222S.208,52.873.208,28.237Z" transform="translate(797.678 4858.742)"/><path class="k" d="M41.7,57.215c-.07,0-.14,0-.211-.01C29.428,55.967,18.358,51.173,10.32,43.7a2.053,2.053,0,1,1,2.794-3.008C20.5,47.562,30.73,51.974,41.909,53.119a2.053,2.053,0,0,1-.207,4.1Z" transform="translate(807.636 4871.284)"/><path class="k" d="M9.581,42.293a2.044,2.044,0,0,1-1.371-.528A18.405,18.405,0,0,1,5.77,39.092a2.053,2.053,0,0,1,3.289-2.457,14.381,14.381,0,0,0,1.9,2.08,2.052,2.052,0,0,1-1.376,3.578Z" transform="translate(803.104 4866.717)"/><path class="l" d="M27,23.383V41.692a5.133,5.133,0,0,0,10.265,0V36.6a5.133,5.133,0,0,1,10.265,0V53.569a5.133,5.133,0,0,0,10.265,0V23.383Z" transform="translate(825.891 4853.331)"/><path class="m" d="M51.58,46.684,8.283,2.361C6.813.893,4.432.38,2.96,1.848l-.482.226a4.939,4.939,0,0,0,0,6.221L39.966,46.682H51.58Z" transform="translate(798.907 4830.03)"/><path class="m" d="M96.743,8.5H16.467A16.515,16.515,0,0,0,0,24.967v12.35a16.381,16.381,0,0,0,4.876,11.65,12.019,12.019,0,0,1,3.357,8.567V72.253A14.506,14.506,0,0,0,22.7,86.717H92.309A12.7,12.7,0,0,0,104.976,74.05V58a13.569,13.569,0,0,1,3.687-9.374,16.365,16.365,0,0,0,4.547-11.313V24.967A16.515,16.515,0,0,0,96.743,8.5Z" transform="translate(293.13 5059.5)"/><path class="n" d="M46.852,8.5H16.467A16.515,16.515,0,0,0,0,24.967v12.35a16.381,16.381,0,0,0,4.876,11.65,12.019,12.019,0,0,1,3.357,8.567V72.253A14.506,14.506,0,0,0,22.7,86.717H38.2a13.3,13.3,0,0,0,13.26-13.26V56.573a10.775,10.775,0,0,1,3.357-7.606,16.381,16.381,0,0,0,4.876-11.65V21.34A12.877,12.877,0,0,0,46.852,8.5Z" transform="translate(293.13 5059.5)"/><path class="o" d="M56.584,32.617H38.058a2.058,2.058,0,1,1,0-4.117H56.584a2.058,2.058,0,1,1,0,4.117Z" transform="translate(331.231 5080.667)"/><path class="o" d="M36.175,32.617H32.058a2.058,2.058,0,1,1,0-4.117h4.117a2.058,2.058,0,1,1,0,4.117Z" transform="translate(324.881 5080.667)"/><path class="m" d="M10.559,38.7A2.058,2.058,0,0,1,9.1,35.191L12.191,32.1A2.058,2.058,0,0,1,15.1,35.014L12.014,38.1A2.053,2.053,0,0,1,10.559,38.7Z" transform="translate(302.126 5083.842)"/><path class="m" d="M20.437,31.37a2.046,2.046,0,0,1-1.245-.42L15.717,28.3a2.058,2.058,0,0,1,2.495-3.275l3.475,2.645a2.06,2.06,0,0,1-1.249,3.7Z" transform="translate(308.906 5076.548)"/><path class="m" d="M14.843,45.976a2.046,2.046,0,0,1-1.245-.42l-3.475-2.645a2.058,2.058,0,0,1,2.495-3.275l3.475,2.645a2.058,2.058,0,0,1-1.249,3.695Z" transform="translate(302.986 5092.008)"/><path class="m" d="M18.2,41.2a2.059,2.059,0,0,1-.587-4.032l4.185-1.243a2.06,2.06,0,0,1,1.175,3.948l-4.185,1.243A2.088,2.088,0,0,1,18.2,41.2Z" transform="translate(310.212 5088.439)"/><path class="m" d="M6.386,20.7A2.058,2.058,0,0,1,4.93,17.191L8.018,14.1a2.058,2.058,0,0,1,2.911,2.911L7.841,20.1A2.053,2.053,0,0,1,6.386,20.7Z" transform="translate(297.71 5064.792)"/><path class="m" d="M10.67,27.976a2.046,2.046,0,0,1-1.245-.42L5.95,24.911a2.058,2.058,0,0,1,2.495-3.275l3.475,2.645a2.058,2.058,0,0,1-1.249,3.695Z" transform="translate(298.569 5072.958)"/><path class="m" d="M25.45,28.232a2.06,2.06,0,0,1-2.027-1.717L22.7,22.21a2.057,2.057,0,1,1,4.057-.683l.727,4.306A2.057,2.057,0,0,1,25.794,28.2,2.172,2.172,0,0,1,25.45,28.232Z" transform="translate(317.12 5071.473)"/><path class="m" d="M14.024,23.2a2.059,2.059,0,0,1-.587-4.032l4.185-1.243A2.06,2.06,0,0,1,18.8,21.873l-4.185,1.243A2.077,2.077,0,0,1,14.024,23.2Z" transform="translate(305.795 5069.387)"/><path class="m" d="M24.13,19.2a2.057,2.057,0,0,1-.745-.138l-4.071-1.581A2.059,2.059,0,0,1,20.8,13.64l4.071,1.581A2.058,2.058,0,0,1,24.13,19.2Z" transform="translate(312.18 5064.792)"/><path class="p" d="M51.072,19.607c1.206-3.446,1.381-7.451-2.06-10.524A2.441,2.441,0,0,0,47.388,8.5H44.905a2.5,2.5,0,0,0-2.04,3.956A22.174,22.174,0,0,1,46.3,19.44,2.508,2.508,0,0,0,51.072,19.607Z" transform="translate(337.996 5059.5)"/><path class="p" d="M41.68,19.607c1.206-3.446,1.381-7.451-2.06-10.524A2.441,2.441,0,0,0,38,8.5H35.513a2.5,2.5,0,0,0-2.04,3.956,22.174,22.174,0,0,1,3.433,6.984A2.508,2.508,0,0,0,41.68,19.607Z" transform="translate(328.056 5059.5)"/><path class="q" d="M96.4,53.57H14.137a11.362,11.362,0,0,1-9.243-4.757L.351,42.451A1.867,1.867,0,0,1,1.871,39.5h106.8a1.868,1.868,0,0,1,1.519,2.952l-4.542,6.361A11.368,11.368,0,0,1,96.4,53.57Z" transform="translate(793.144 5091.805)"/><path class="r" d="M2,64.746a50.246,50.246,0,0,1,100.493,0Z" transform="translate(795.163 5066.56)"/><path class="r" d="M40.987,23.365l-1.658-.249a48.952,48.952,0,0,0-14.557,0l-1.658.249-.543-1.588A9.842,9.842,0,0,1,22,18.549a10.049,10.049,0,0,1,20.1,0,9.89,9.89,0,0,1-.569,3.228Zm-8.938-4.816a52.93,52.93,0,0,1,6.017.346c.008-.117.012-.231.012-.346a6.03,6.03,0,0,0-12.059,0c0,.115,0,.229.012.346A52.93,52.93,0,0,1,32.049,18.549Z" transform="translate(815.36 5060.5)"/><path class="a" d="M23.355,22.551a2.009,2.009,0,0,1-.44-3.969A44.56,44.56,0,0,1,32.682,17.5a1.969,1.969,0,0,1,2.038,2.01,2.009,2.009,0,0,1-2.01,2.008h-.026A40.495,40.495,0,0,0,23.8,22.5,1.981,1.981,0,0,1,23.355,22.551Z" transform="translate(814.699 5069.589)"/><path class="a" d="M8.012,52.9a1.838,1.838,0,0,1-.362-.034,2.01,2.01,0,0,1-1.618-2.337c2.3-12.582,9.911-23.793,20.368-29.989A2.01,2.01,0,1,1,28.448,24C18.976,29.611,12.074,39.8,9.986,51.253A2.007,2.007,0,0,1,8.012,52.9Z" transform="translate(799.202 5072.375)"/><path class="s" d="M28.02,45.634A21.442,21.442,0,0,0,32.9,45V0H23.283V45.034A21.344,21.344,0,0,0,28.02,45.634Z" transform="translate(567.571 5047)"/><path class="t" d="M37.9,36.124V5H28.283V39.621C31.532,38.848,35.017,38.144,37.9,36.124Z" transform="translate(572.188 5051.617)"/><path class="u" d="M37.543,28.365A9.961,9.961,0,0,1,42.9,24.585V9H33.283V32.081A16.441,16.441,0,0,0,37.543,28.365Z" transform="translate(576.805 5055.311)"/><path class="t" d="M40.939,21.428h5.5a5.087,5.087,0,0,1,1.462.235V12H38.283v9.815A9.662,9.662,0,0,1,40.939,21.428Z" transform="translate(581.422 5058.081)"/><path class="t" d="M27.9,39.621V5H18.283V36.218C21.182,38.219,24.665,38.869,27.9,39.621Z" transform="translate(562.954 5051.617)"/><path class="v" d="M18.507,28.365A16.375,16.375,0,0,0,22.9,32.081V9H13.283V24.626A9.957,9.957,0,0,1,18.507,28.365Z" transform="translate(558.337 5055.311)"/><path class="t" d="M9.612,21.428h5.5a9.6,9.6,0,0,1,2.789.429V12H8.283v9.615A5.2,5.2,0,0,1,9.612,21.428Z" transform="translate(553.72 5058.081)"/><path class="w" d="M70.453,16.4a9.734,9.734,0,0,0-7.961,4.093C58.53,26.1,49.511,29.529,43.683,29.529s-14.837-3.426-18.8-9.034A9.734,9.734,0,0,0,16.923,16.4h-5.5c-3.2,0-5.1,2.795-5.1,6.024v.337A167.121,167.121,0,0,0,15.6,78.085l.433,1.244a7.318,7.318,0,0,0,6.443,4.58H64.906a6.97,6.97,0,0,0,6.876-5.824h0A162.885,162.885,0,0,0,81.06,22.718l0-.292c0-3.229-1.906-6.024-5.1-6.024Z" transform="translate(551.908 5062.146)"/><path class="x" d="M75.854,21.8h-5.5a9.734,9.734,0,0,0-7.961,4.093c-3.962,5.607-12.981,9.034-18.809,9.034s-14.837-3.426-18.8-9.034A9.734,9.734,0,0,0,16.825,21.8h-5.5c-2.612,0-4.341,1.875-4.9,4.318A167.047,167.047,0,0,0,15.5,73.1s16.645-3.793,28.158-3.793c11.5,0,27.954,4.208,28.024,3.793a162.971,162.971,0,0,0,9.094-46.877C80.247,23.727,78.5,21.8,75.854,21.8Z" transform="translate(552.008 5067.128)"/><ellipse class="y" cx="13.464" cy="9.617" rx="13.464" ry="9.617" transform="translate(583.16 5109.51)"/></g></svg>