<svg xmlns="http://www.w3.org/2000/svg" xmlns:xlink="http://www.w3.org/1999/xlink" width="1018.469" height="1004.402" viewBox="0 0 1018.469 1004.402"><defs><style>.a{fill:#fff;}.b{filter:url(#y);}.c{filter:url(#w);}.d{filter:url(#u);}.e{filter:url(#s);}.f{filter:url(#q);}.g{filter:url(#o);}.h{filter:url(#m);}.i{filter:url(#k);}.j{filter:url(#i);}.k{filter:url(#g);}.l{filter:url(#e);}.m{filter:url(#c);}.n{filter:url(#a);}</style><filter id="a" x="0" y="0" width="1018.469" height="1004.402" filterUnits="userSpaceOnUse"><feOffset dy="12" input="SourceAlpha"/><feGaussianBlur stdDeviation="12" result="b"/><feFlood flood-color="#4a4646" flood-opacity="0.161"/><feComposite operator="in" in2="b"/><feComposite in="SourceGraphic"/></filter><filter id="c" x="67" y="315" width="278" height="278" filterUnits="userSpaceOnUse"><feOffset dy="-10" input="SourceAlpha"/><feGaussianBlur stdDeviation="15" result="d"/><feFlood flood-opacity="0.161"/><feComposite operator="in" in2="d"/><feComposite in="SourceGraphic"/></filter><filter id="e" x="316" y="315" width="278" height="278" filterUnits="userSpaceOnUse"><feOffset dy="-10" input="SourceAlpha"/><feGaussianBlur stdDeviation="15" result="f"/><feFlood flood-opacity="0.161"/><feComposite operator="in" in2="f"/><feComposite in="SourceGraphic"/></filter><filter id="g" x="565" y="315" width="278" height="278" filterUnits="userSpaceOnUse"><feOffset dy="-10" input="SourceAlpha"/><feGaussianBlur stdDeviation="15" result="h"/><feFlood flood-opacity="0.161"/><feComposite operator="in" in2="h"/><feComposite in="SourceGraphic"/></filter><filter id="i" x="152.379" y="399.082" width="107.713" height="128.944" filterUnits="userSpaceOnUse"><feOffset dy="6" input="SourceAlpha"/><feGaussianBlur stdDeviation="6" result="j"/><feFlood flood-opacity="0.2"/><feComposite operator="in" in2="j"/><feComposite in="SourceGraphic"/></filter><filter id="k" x="399.589" y="399.082" width="109.8" height="128.944" filterUnits="userSpaceOnUse"><feOffset dy="6" input="SourceAlpha"/><feGaussianBlur stdDeviation="6" result="l"/><feFlood flood-opacity="0.2"/><feComposite operator="in" in2="l"/><feComposite in="SourceGraphic"/></filter><filter id="m" x="638.871" y="397.64" width="130.055" height="130.101" filterUnits="userSpaceOnUse"><feOffset dy="6" input="SourceAlpha"/><feGaussianBlur stdDeviation="6" result="n"/><feFlood flood-opacity="0.2"/><feComposite operator="in" in2="n"/><feComposite in="SourceGraphic"/></filter><filter id="o" x="72" y="535" width="278" height="278" filterUnits="userSpaceOnUse"><feOffset dy="-10" input="SourceAlpha"/><feGaussianBlur stdDeviation="15" result="p"/><feFlood flood-opacity="0.161"/><feComposite operator="in" in2="p"/><feComposite in="SourceGraphic"/></filter><filter id="q" x="319" y="540" width="278" height="278" filterUnits="userSpaceOnUse"><feOffset dy="-10" input="SourceAlpha"/><feGaussianBlur stdDeviation="15" result="r"/><feFlood flood-opacity="0.161"/><feComposite operator="in" in2="r"/><feComposite in="SourceGraphic"/></filter><filter id="s" x="563" y="540" width="278" height="278" filterUnits="userSpaceOnUse"><feOffset dy="-10" input="SourceAlpha"/><feGaussianBlur stdDeviation="15" result="t"/><feFlood flood-opacity="0.161"/><feComposite operator="in" in2="t"/><feComposite in="SourceGraphic"/></filter><filter id="u" x="147" y="630" width="127.395" height="130" filterUnits="userSpaceOnUse"><feOffset dy="6" input="SourceAlpha"/><feGaussianBlur stdDeviation="6" result="v"/><feFlood flood-opacity="0.2"/><feComposite operator="in" in2="v"/><feComposite in="SourceGraphic"/></filter><filter id="w" x="397" y="644.533" width="121.732" height="104.291" filterUnits="userSpaceOnUse"><feOffset dy="6" input="SourceAlpha"/><feGaussianBlur stdDeviation="6" result="x"/><feFlood flood-opacity="0.2"/><feComposite operator="in" in2="x"/><feComposite in="SourceGraphic"/></filter><filter id="y" x="637" y="636" width="130" height="107.536" filterUnits="userSpaceOnUse"><feOffset dy="6" input="SourceAlpha"/><feGaussianBlur stdDeviation="6" result="z"/><feFlood flood-opacity="0.2"/><feComposite operator="in" in2="z"/><feComposite in="SourceGraphic"/></filter></defs><g transform="translate(-1211 -1445)"><g class="n" transform="matrix(1, 0, 0, 1, 1211, 1445)"><rect class="a" width="946.469" height="932.402" rx="50" transform="translate(36 24)"/></g><g class="m" transform="matrix(1, 0, 0, 1, 1211, 1445)"><rect class="a" width="188" height="188" rx="20" transform="translate(112 370)"/></g><g class="l" transform="matrix(1, 0, 0, 1, 1211, 1445)"><rect class="a" width="188" height="188" rx="20" transform="translate(361 370)"/></g><g class="k" transform="matrix(1, 0, 0, 1, 1211, 1445)"><rect class="a" width="188" height="188" rx="20" transform="translate(610 370)"/></g><g class="j" transform="matrix(1, 0, 0, 1, 1211, 1445)"><path d="M125.431,89.129a39.356,39.356,0,0,0-21.555-19.608V63.838c4.641-.256,13.393-1.436,18.526-6.687a2.677,2.677,0,0,0,.669-2.537,2.646,2.646,0,0,0-1.849-1.868c-.079-.02-6.844-2.34-5.487-16.186a60.129,60.129,0,0,0-.275-15.773c-.885-5.231-2.655-9.342-5.231-12.213A13.988,13.988,0,0,0,99.413,3.914H98.9A16.51,16.51,0,0,0,87.967,0a22.534,22.534,0,0,0-8.142,1.613l-.118.039a20.158,20.158,0,0,0-9.755,6.982c-4.032,5.349-5.959,13.275-5.723,23.541.236,10.286-1.455,15.32-2.911,17.739-1.2,1.986-2.34,2.38-2.635,2.458a2.415,2.415,0,0,0-2.321,1.3,2.686,2.686,0,0,0,.256,2.871,14.008,14.008,0,0,0,4.936,3.992,32.559,32.559,0,0,0,14.14,3.442v5.408A39.533,39.533,0,0,0,54.239,89.148a2.642,2.642,0,0,0,2.38,3.8h66.434a2.649,2.649,0,0,0,2.242-1.239A2.724,2.724,0,0,0,125.431,89.129Zm-64.29-1.514A34.047,34.047,0,0,1,79.136,73.769a2.656,2.656,0,0,0,1.849-2.517V61.36A2.652,2.652,0,0,0,78.31,58.7c-7.65.079-12.272-1.672-14.789-3.166.177-.177.374-.354.57-.551,3.874-4.032,5.7-11.741,5.448-22.931-.511-20.67,8.28-24.013,12.016-25.429l.118-.039A17.966,17.966,0,0,1,87.927,5.33a10.623,10.623,0,0,1,7.886,3.048,2.586,2.586,0,0,0,2.281.944c.433-.039.865-.059,1.278-.059a8.753,8.753,0,0,1,6.883,2.911c3.737,4.13,5.271,12.842,4.169,23.895-1.1,11.151,2.38,16.736,5.389,19.45-4.051,2.242-9.814,3.088-14.16,3.088h-.393a2.7,2.7,0,0,0-1.927.747,2.646,2.646,0,0,0-.806,1.908V71.429a2.638,2.638,0,0,0,1.849,2.517A34.367,34.367,0,0,1,118.47,87.654H61.142Z" transform="translate(116.4 411.08)"/></g><g transform="translate(1628.589 1856.082)"><g class="i" transform="matrix(1, 0, 0, 1, -417.59, -411.08)"><path d="M121.235,24.16H64.626a9.534,9.534,0,0,1,0-19.067h56.628a2.546,2.546,0,0,0,0-5.092H64.626A14.649,14.649,0,0,0,50,14.626V78.318A14.649,14.649,0,0,0,64.626,92.944h56.628A2.545,2.545,0,0,0,123.8,90.4V26.706A2.574,2.574,0,0,0,121.235,24.16Zm-2.546,63.692H64.626a9.547,9.547,0,0,1-9.534-9.534V25.729a14.6,14.6,0,0,0,9.534,3.542h54.062v58.58Z" transform="translate(367.59 411.08)"/></g><path d="M119.846,64.3a2.546,2.546,0,0,0,0,5.092h47.822a2.546,2.546,0,0,0,0-5.092Z" transform="translate(-104.416 -51.99)"/><path d="M170.168,242.3a2.726,2.726,0,0,0,.861.153,2.531,2.531,0,0,0,2.393-1.685l3.1-8.672H188.47a1.648,1.648,0,0,0,.306-.019l3.1,8.691a2.55,2.55,0,0,0,2.393,1.685,2.725,2.725,0,0,0,.861-.153,2.543,2.543,0,0,0,1.532-3.254l-11.6-32.526h0a1.171,1.171,0,0,0-.1-.23l-.057-.115-.057-.115a.832.832,0,0,1-.077-.134c-.019-.019-.038-.057-.057-.077a.508.508,0,0,0-.1-.115c-.019-.019-.038-.057-.077-.077-.019-.038-.057-.057-.1-.1l-.1-.1c-.019-.019-.057-.038-.077-.077-.038-.038-.077-.057-.115-.1-.019-.019-.057-.038-.077-.057-.038-.019-.077-.057-.115-.077l-.115-.057-.115-.057a1.17,1.17,0,0,0-.23-.1h-.019l-.23-.057c-.038,0-.057-.019-.1-.019-.057-.019-.1-.019-.153-.038a.243.243,0,0,1-.115-.019c-.038,0-.1-.019-.134-.019h-.249a.326.326,0,0,0-.134.019.243.243,0,0,0-.115.019.451.451,0,0,0-.153.038c-.038,0-.057.019-.1.019-.077.019-.153.038-.211.057h-.019a1.169,1.169,0,0,0-.23.1l-.115.057-.115.057a.833.833,0,0,1-.134.077c-.019.019-.057.038-.077.057-.038.038-.077.057-.115.1-.019.019-.057.038-.077.077l-.1.1-.1.1c-.019.019-.038.057-.077.077-.038.038-.057.077-.1.115-.019.019-.038.057-.057.077-.019.038-.057.077-.077.115l-.057.115-.057.115a1.171,1.171,0,0,0-.1.23h0l-11.64,32.526A2.636,2.636,0,0,0,170.168,242.3Zm12.5-27.357,4.307,12.061h-8.634Z" transform="translate(-145.779 -165.593)"/></g><g transform="translate(1867.871 1854.64)"><g class="h" transform="matrix(1, 0, 0, 1, -656.87, -409.64)"><path d="M80.4,13.792A47.037,47.037,0,0,0,10.77,76.881C8.662,81.2,6.179,84.072,3.362,85.452a4.389,4.389,0,0,0,1.261,8.275,22.385,22.385,0,0,0,3.33.256h0a30.421,30.421,0,0,0,16.905-5.477A47.052,47.052,0,0,0,80.4,13.792ZM76.637,76.546A41.738,41.738,0,0,1,26.02,83.028a2.648,2.648,0,0,0-2.975.177A25.334,25.334,0,0,1,8.287,88.624c3.172-2.364,5.832-6.029,8.059-11.132a2.678,2.678,0,0,0-.453-2.837,41.718,41.718,0,1,1,60.744,1.891Z" transform="translate(656.75 409.64)"/></g><path d="M167.349,160H127.943a2.66,2.66,0,0,0,0,5.32h39.406a2.66,2.66,0,0,0,0-5.32Z" transform="translate(-100.622 -128.475)"/><path d="M167.349,225.3H127.943a2.66,2.66,0,1,0,0,5.32h39.406a2.66,2.66,0,1,0,0-5.32Z" transform="translate(-100.622 -180.909)"/><path d="M167.349,290.6H127.943a2.66,2.66,0,1,0,0,5.32h39.406a2.66,2.66,0,1,0,0-5.32Z" transform="translate(-100.622 -233.343)"/></g><g class="g" transform="matrix(1, 0, 0, 1, 1211, 1445)"><rect class="a" width="188" height="188" rx="20" transform="translate(117 590)"/></g><g class="f" transform="matrix(1, 0, 0, 1, 1211, 1445)"><rect class="a" width="188" height="188" rx="20" transform="translate(364 595)"/></g><g class="e" transform="matrix(1, 0, 0, 1, 1211, 1445)"><rect class="a" width="188" height="188" rx="20" transform="translate(608 595)"/></g><g class="d" transform="matrix(1, 0, 0, 1, 1211, 1445)"><path d="M95.263,30.092a13.871,13.871,0,0,0,.826-3.932,12.517,12.517,0,0,0-4.462-10.2A12.014,12.014,0,0,0,90.29,8.428C88.186,4.654,84.078,2.1,78.062.821A56.938,56.938,0,0,0,62.336.27a197.925,197.925,0,0,0-26.2,1.435l-4.62.55A8.161,8.161,0,0,0,26.794.762H14.8A8.184,8.184,0,0,0,6.625,8.94V40.884A8.184,8.184,0,0,0,14.8,49.062H26.794a8.112,8.112,0,0,0,3.892-.983,21.117,21.117,0,0,0,3.853,5.779,2.1,2.1,0,0,0,.315.275c6.173,4.738,13.446,21.8,16.021,28.76-.256,2.162-.511,6.841,1.651,9.377A4.907,4.907,0,0,0,56.321,94c1.514,0,6.743-.354,10.006-4.856,3.086-4.285,3.263-10.694.511-19.068-2.32-7.038-2.536-10.163-2.457-11.421,1.062.236,2.1.452,3.106.629h.02a61.691,61.691,0,0,0,9.672,1.238c7.352.354,12.679-.924,15.785-3.774,4.285-3.912,3.774-8.905,2.5-12.09A11.99,11.99,0,0,0,98.015,37.9,11.942,11.942,0,0,0,95.263,30.092ZM26.794,43.774H14.8a2.873,2.873,0,0,1-2.87-2.87V8.959a2.873,2.873,0,0,1,2.87-2.87H26.794a2.873,2.873,0,0,1,2.87,2.87V40.9A2.861,2.861,0,0,1,26.794,43.774Zm63.24,1.907a7.875,7.875,0,0,1,.924,2.575,4.8,4.8,0,0,1-1.592,4.6c-3.755,3.421-14.567,2.634-20.6,1.3-.079-.02-.157-.039-.256-.059-1.081-.2-2.241-.432-3.421-.688a4.284,4.284,0,0,0-4.285.767c-2.615,2.32-2.32,7.588.963,17.594,2.162,6.566,2.241,11.52.236,14.291a7.028,7.028,0,0,1-5.544,2.654c-.472-.786-.609-3.479-.256-5.7a3.013,3.013,0,0,0-.118-1.317c-.374-1-9-24.632-17.83-31.63A16.676,16.676,0,0,1,34.6,43.321a8.316,8.316,0,0,0,.374-2.438V8.959a8.329,8.329,0,0,0-.177-1.73l1.985-.236h.02A193.734,193.734,0,0,1,62.356,5.6h.275c5.956-.472,10.773-.334,14.331.432,4.4.944,7.313,2.595,8.65,4.934a6.861,6.861,0,0,1,.57,5.15,2.593,2.593,0,0,0,.9,3.008c5.819,4.364,3.145,9.456,2.791,10.085a2.591,2.591,0,0,0,.354,3.2c1.691,1.769,2.516,3.538,2.457,5.268a7.3,7.3,0,0,1-2.2,4.62A2.589,2.589,0,0,0,90.034,45.68Z" transform="translate(158.38 642)"/></g><g transform="translate(1626 2077)"><path d="M155.2,38.137a2.608,2.608,0,0,0,0,3.7L169.07,55.714a2.633,2.633,0,0,0,1.841.775,2.553,2.553,0,0,0,1.841-.775l13.875-13.875a2.617,2.617,0,0,0-3.7-3.7l-9.4,9.4V2.616a2.616,2.616,0,1,0-5.232,0v44.92l-9.4-9.4A2.608,2.608,0,0,0,155.2,38.137Z" transform="translate(-128.046)"/><g class="c" transform="matrix(1, 0, 0, 1, -415, -632)"><path d="M103.935,161.637l-9.108-32.944a2.652,2.652,0,0,0-1.434-1.686l-.252-.116a2.667,2.667,0,0,0-1.085-.233H75.642a2.616,2.616,0,0,0,0,5.232h14.65l7.693,27.867H77.638a2.605,2.605,0,0,0-2.616,2.616v2.364a6.277,6.277,0,0,1-6.279,6.279H52.775a6.277,6.277,0,0,1-6.279-6.279v-2.364a2.605,2.605,0,0,0-2.616-2.616H24.327l7.732-27.925h14.65a2.616,2.616,0,1,0,0-5.232H30.276a2.667,2.667,0,0,0-1.085.233l-.252.116a2.6,2.6,0,0,0-1.434,1.686L18.4,161.579a2.882,2.882,0,0,0-.1.7v13.74a18.9,18.9,0,0,0,18.875,18.875H85.157a18.9,18.9,0,0,0,18.875-18.875V162.334A2.027,2.027,0,0,0,103.935,161.637ZM98.8,176.016a13.663,13.663,0,0,1-13.643,13.643H37.175a13.663,13.663,0,0,1-13.643-13.643V164.989H41.3a11.521,11.521,0,0,0,11.511,11.24H68.782a11.521,11.521,0,0,0,11.511-11.24H98.838v11.026Z" transform="translate(396.7 529.93)"/></g></g><g transform="translate(1866 2093)"><g class="b" transform="matrix(1, 0, 0, 1, -655, -648)"><path d="M82.525,57.75H11.495A11.5,11.5,0,0,0,0,69.245v48.546a11.5,11.5,0,0,0,11.495,11.495H82.505A11.5,11.5,0,0,0,94,117.791V69.264A11.492,11.492,0,0,0,82.525,57.75Zm6.243,60.041a6.25,6.25,0,0,1-6.243,6.243H11.495a6.25,6.25,0,0,1-6.243-6.243V69.264a6.25,6.25,0,0,1,6.243-6.243H82.505a6.25,6.25,0,0,1,6.243,6.243v48.527Z" transform="translate(655 590.25)"/></g><path d="M104.191,134.118,127.181,113.5a2.63,2.63,0,1,0-3.52-3.909l-31.7,28.455-6.185-5.524c-.019-.019-.039-.039-.039-.058a3.887,3.887,0,0,0-.428-.37L60.138,109.573a2.631,2.631,0,0,0-3.5,3.929L79.9,134.293,56.734,155.98a2.636,2.636,0,0,0-.117,3.715,2.686,2.686,0,0,0,1.926.836,2.631,2.631,0,0,0,1.789-.7l23.515-22,6.379,5.7a2.619,2.619,0,0,0,3.5-.019l6.555-5.874L123.66,159.85a2.633,2.633,0,0,0,3.715-.1,2.636,2.636,0,0,0-.1-3.715Z" transform="translate(-44.909 -98.953)"/></g></g></svg>