<svg xmlns="http://www.w3.org/2000/svg" width="383.636" height="490.498" viewBox="0 0 383.636 490.498"><defs><style>.a{fill:#fff;font-size:116px;font-family:NexaBold, Nexa Bold;letter-spacing:0.05em;}</style></defs><g transform="translate(-1148.999 -9280)"><circle cx="45" cy="45" r="45" transform="translate(1362 9500)"/><path d="M-120.264-122.324s-3.827-10.646,4.532-17.933,19.074,0,19.074,0L12.533-29.34l98.253.221L160.88-78.493v-79.342s2.057-8.907,13.02-9.037,13.735,9.037,13.735,9.037V-66.3L124,0,109.426,103.355c-2.974,16.976-.42,34.07-28.315,31.968H34.846c-16.016,0-17.071-12.193-19.97-30.322L.684-1.042Z" transform="translate(1345 9635)"/><path d="M2479,13066v-174H2378v-149h225v149H2502v174Z" transform="translate(-1229 -3463)"/><text class="a" transform="translate(1224 9391)"><tspan x="0" y="0">!!</tspan></text></g></svg>