<svg xmlns="http://www.w3.org/2000/svg" width="221.094" height="221.094" viewBox="0 0 221.094 221.094"><defs><style>.a{fill:none;}.b,.c{stroke:none;}</style></defs><g transform="translate(-1746 -428.512)"><g class="a" transform="translate(1746 428.512)"><path class="b" d="M110.547,0A110.547,110.547,0,1,1,0,110.547,110.547,110.547,0,0,1,110.547,0Z"/><path class="c" d="M 110.546875 5.000015258789062 C 103.3823776245117 5.000015258789062 96.223876953125 5.721511840820312 89.27020263671875 7.1444091796875 C 82.49580383300781 8.530670166015625 75.83230590820312 10.59913635253906 69.46481323242188 13.29234313964844 C 63.21180725097656 15.93714904785156 57.18037414550781 19.2109375 51.53810119628906 23.02281188964844 C 45.94813537597656 26.79930114746094 40.69143676757812 31.13650512695312 35.91397094726562 35.91397094726562 C 31.13650512695312 40.69143676757812 26.79930114746094 45.94813537597656 23.02281188964844 51.53810119628906 C 19.2109375 57.18037414550781 15.93714904785156 63.21180725097656 13.29234313964844 69.46481323242188 C 10.59913635253906 75.83230590820312 8.530670166015625 82.49580383300781 7.1444091796875 89.27020263671875 C 5.721511840820312 96.223876953125 5.000015258789062 103.3823776245117 5.000015258789062 110.546875 C 5.000015258789062 117.7113723754883 5.721511840820312 124.869873046875 7.1444091796875 131.8235473632812 C 8.530670166015625 138.5979309082031 10.59913635253906 145.2614440917969 13.29234313964844 151.6289367675781 C 15.93714904785156 157.8819427490234 19.2109375 163.9133758544922 23.02281188964844 169.5556335449219 C 26.79930114746094 175.1455993652344 31.13650512695312 180.4023132324219 35.91397094726562 185.1797790527344 C 40.69143676757812 189.9572448730469 45.94813537597656 194.29443359375 51.53810119628906 198.0709381103516 C 57.18037414550781 201.8828125 63.21180725097656 205.1566162109375 69.46481323242188 207.8014068603516 C 75.83230590820312 210.4946136474609 82.49580383300781 212.5630798339844 89.27020263671875 213.9493408203125 C 96.223876953125 215.3722381591797 103.3823776245117 216.0937347412109 110.546875 216.0937347412109 C 117.7113723754883 216.0937347412109 124.869873046875 215.3722381591797 131.8235473632812 213.9493408203125 C 138.5979309082031 212.5630798339844 145.2614440917969 210.4946136474609 151.6289367675781 207.8014068603516 C 157.8819427490234 205.1566162109375 163.9133758544922 201.8828125 169.5556335449219 198.0709381103516 C 175.1455993652344 194.29443359375 180.4023132324219 189.9572448730469 185.1797790527344 185.1797790527344 C 189.9572448730469 180.4023132324219 194.29443359375 175.1455993652344 198.0709381103516 169.5556335449219 C 201.8828125 163.9133758544922 205.1566162109375 157.8819427490234 207.8014068603516 151.6289367675781 C 210.4946136474609 145.2614440917969 212.5630798339844 138.5979309082031 213.9493408203125 131.8235473632812 C 215.3722381591797 124.869873046875 216.0937347412109 117.7113723754883 216.0937347412109 110.546875 C 216.0937347412109 103.3823776245117 215.3722381591797 96.223876953125 213.9493408203125 89.27020263671875 C 212.5630798339844 82.49580383300781 210.4946136474609 75.83230590820312 207.8014068603516 69.46481323242188 C 205.1566162109375 63.21180725097656 201.8828125 57.18037414550781 198.0709381103516 51.53810119628906 C 194.29443359375 45.94813537597656 189.9572448730469 40.69143676757812 185.1797790527344 35.91397094726562 C 180.4023132324219 31.13650512695312 175.1455993652344 26.79930114746094 169.5556335449219 23.02281188964844 C 163.9133758544922 19.2109375 157.8819427490234 15.93714904785156 151.6289367675781 13.29234313964844 C 145.2614440917969 10.59913635253906 138.5979309082031 8.530670166015625 131.8235473632812 7.1444091796875 C 124.869873046875 5.721511840820312 117.7113723754883 5.000015258789062 110.546875 5.000015258789062 M 110.546875 1.52587890625e-05 C 171.6002044677734 1.52587890625e-05 221.0937347412109 49.49354553222656 221.0937347412109 110.546875 C 221.0937347412109 171.6002044677734 171.6002044677734 221.0937347412109 110.546875 221.0937347412109 C 49.49354553222656 221.0937347412109 1.52587890625e-05 171.6002044677734 1.52587890625e-05 110.546875 C 1.52587890625e-05 49.49354553222656 49.49354553222656 1.52587890625e-05 110.546875 1.52587890625e-05 Z"/></g><path d="M0,43.6,11.338,31.854,43.377,62.794,104.008,0,115.66,11.256l-71.8,74.353-.1-.094-.17.176Z" transform="translate(1796.621 493.815)"/></g></svg>