<svg xmlns="http://www.w3.org/2000/svg" width="319.997" height="237" viewBox="0 0 319.997 237"><defs><style>.a{fill:#696969;opacity:0.335;}</style></defs><path class="a" d="M-7431,8403h-74v-66h22.194a9.957,9.957,0,0,0,5.306-1.5,10.059,10.059,0,0,0,3.524-3.8,10.067,10.067,0,0,0,1.183-5.048,9.957,9.957,0,0,0-1.721-5.237l-39.2-58.114a9.866,9.866,0,0,0-3.706-3.308,10.062,10.062,0,0,0-4.584-1.1,10.062,10.062,0,0,0-4.584,1.1,9.862,9.862,0,0,0-3.7,3.308l-39.2,58.114a9.961,9.961,0,0,0-1.721,5.237,10.065,10.065,0,0,0,1.182,5.049,10.073,10.073,0,0,0,3.524,3.8,9.965,9.965,0,0,0,5.306,1.5H-7538v66h31.625L-7613,8403a68.574,68.574,0,0,1-26.857-5.422,69.057,69.057,0,0,1-11.72-6.362,69.446,69.446,0,0,1-10.211-8.425,69.633,69.633,0,0,1-8.425-10.212,69.03,69.03,0,0,1-6.361-11.722A68.574,68.574,0,0,1-7682,8334a68.574,68.574,0,0,1,5.422-26.857,69.03,69.03,0,0,1,6.361-11.722,69.633,69.633,0,0,1,8.425-10.212,69.446,69.446,0,0,1,10.211-8.425,69.057,69.057,0,0,1,11.72-6.362A68.574,68.574,0,0,1-7613,8265h2.434a79.4,79.4,0,0,1-1.43-15,79.164,79.164,0,0,1,1.829-16.928,79.546,79.546,0,0,1,5.244-15.767,82.427,82.427,0,0,1,8.3-14.269,86.24,86.24,0,0,1,10.99-12.431,89.627,89.627,0,0,1,13.319-10.257,92.211,92.211,0,0,1,15.287-7.745,94.288,94.288,0,0,1,16.893-4.895A96.919,96.919,0,0,1-7522,8166a96.936,96.936,0,0,1,18.139,1.707,94.308,94.308,0,0,1,16.9,4.895,92.216,92.216,0,0,1,15.288,7.745,89.576,89.576,0,0,1,13.319,10.257,86.169,86.169,0,0,1,10.99,12.431,82.478,82.478,0,0,1,8.3,14.269,79.492,79.492,0,0,1,5.244,15.767A79.164,79.164,0,0,1-7432,8250a79.264,79.264,0,0,1-1.43,15H-7431a68.574,68.574,0,0,1,26.857,5.422,69.006,69.006,0,0,1,11.72,6.362,69.476,69.476,0,0,1,10.211,8.425,69.614,69.614,0,0,1,8.426,10.212,69.027,69.027,0,0,1,6.361,11.722A68.574,68.574,0,0,1-7362,8334a68.574,68.574,0,0,1-5.422,26.857,69.027,69.027,0,0,1-6.361,11.722,69.614,69.614,0,0,1-8.426,10.212,69.476,69.476,0,0,1-10.211,8.425,69.006,69.006,0,0,1-11.72,6.362A68.574,68.574,0,0,1-7431,8403Z" transform="translate(7681.999 -8166)"/></svg>