<svg xmlns="http://www.w3.org/2000/svg" width="74.426" height="74.436" viewBox="0 0 74.426 74.436"><path d="M37.218,0a37.218,37.218,0,0,0,0,74.436q1.682,0,3.35-.15c1.033-.093,2.058-.234,3.074-.412l.391-.069A37.218,37.218,0,0,0,37.218,0Zm-2.99,71.824H34.14c-.965-.085-1.923-.214-2.872-.38-.055-.01-.109-.016-.162-.026q-1.392-.249-2.756-.612l-.22-.056c-.887-.24-1.764-.52-2.628-.83-.09-.032-.18-.061-.27-.094-.847-.311-1.68-.66-2.5-1.038-.1-.045-.2-.089-.305-.138-.8-.372-1.592-.791-2.365-1.232l-.328-.185q-1.141-.666-2.233-1.423c-.11-.077-.222-.151-.331-.228-.717-.508-1.415-1.048-2.1-1.613l-.187-.164V53.346A13.663,13.663,0,0,1,28.534,39.7H45.9A13.663,13.663,0,0,1,59.549,53.346V63.807l-.165.138q-1.04.869-2.137,1.644c-.1.068-.2.133-.291.2q-1.107.769-2.268,1.448c-.1.056-.2.11-.293.165-.784.446-1.582.868-2.4,1.248-.093.044-.187.084-.282.124-.826.381-1.666.732-2.519,1.046-.085.031-.17.059-.248.088-.869.311-1.749.593-2.641.835L46.1,70.8c-.91.24-1.829.448-2.759.614-.053.01-.107.016-.16.025-.95.166-1.909.3-2.875.381h-.088c-.992.085-1.985.131-2.99.131S35.219,71.909,34.228,71.824Zm27.8-10.317V53.346A16.147,16.147,0,0,0,45.9,37.218H28.534A16.147,16.147,0,0,0,12.406,53.346v8.16a34.737,34.737,0,1,1,49.624,0Zm0,0"/><path d="M172.406,64a12.406,12.406,0,1,0,12.406,12.406A12.406,12.406,0,0,0,172.406,64Zm0,22.331a9.925,9.925,0,1,1,9.925-9.925A9.925,9.925,0,0,1,172.406,86.331Zm0,0" transform="translate(-135.188 -54.075)"/></svg>